<?xml version="1.0" encoding="UTF-8" standalone="no"?>
<!-- Generator: Adobe Illustrator 16.0.0, SVG Export Plug-In . SVG Version: 6.00 Build 0)  -->

<svg
   xmlns:dc="http://purl.org/dc/elements/1.1/"
   xmlns:cc="http://creativecommons.org/ns#"
   xmlns:rdf="http://www.w3.org/1999/02/22-rdf-syntax-ns#"
   xmlns:svg="http://www.w3.org/2000/svg"
   xmlns="http://www.w3.org/2000/svg"
   xmlns:sodipodi="http://sodipodi.sourceforge.net/DTD/sodipodi-0.dtd"
   xmlns:inkscape="http://www.inkscape.org/namespaces/inkscape"
   version="1.1"
   id="Layer_1"
   x="0px"
   y="0px"
   width="741.01373"
   height="282.297"
   viewBox="0 0 741.01373 282.297"
   enable-background="new 0 0 1000 1000"
   xml:space="preserve"
   sodipodi:docname="babyYodaFave.svg"
   inkscape:version="0.92.4 (5da689c313, 2019-01-14)"><metadata
   id="metadata364"><rdf:RDF><cc:Work
       rdf:about=""><dc:format>image/svg+xml</dc:format><dc:type
         rdf:resource="http://purl.org/dc/dcmitype/StillImage" /></cc:Work></rdf:RDF></metadata><defs
   id="defs362" /><sodipodi:namedview
   pagecolor="#ffffff"
   bordercolor="#666666"
   borderopacity="1"
   objecttolerance="10"
   gridtolerance="10"
   guidetolerance="10"
   inkscape:pageopacity="0"
   inkscape:pageshadow="2"
   inkscape:window-width="640"
   inkscape:window-height="480"
   id="namedview360"
   showgrid="false"
   inkscape:zoom="0.236"
   inkscape:cx="369.61471"
   inkscape:cy="141.706"
   inkscape:window-x="0"
   inkscape:window-y="0"
   inkscape:window-maximized="0"
   inkscape:current-layer="Layer_1" />
<path
   d="m 232.17171,56.344 c 0,0 -49.568,-18.792 -230.9500035,16.843 0,0 -6.184,3.937 9.2739995,14.081 19.53,12.813 49.577,12.925 62.749,37.517 11.593,21.647 34.267004,30.465 53.889004,34.97 36.634,8.409 66.773,7.22 103.659,2.56 0,-0.001 63.314,-88.717 1.379,-105.971 z"
   id="path237"
   inkscape:connector-curvature="0"
   style="fill:#5c8e51" />
<path
   d="m 3.3797065,81.692 c 0,0 183.7280035,-45.387 218.1800035,42.208 v 26.44 c 0,0 -77.142,13.586 -123.985004,-7.573 -21.116,-9.538 -29.678,-33.479 -51.825,-40.773 -24.977,-8.228 -35.663,-15.027 -42.3699995,-20.302 z"
   id="path239"
   inkscape:connector-curvature="0"
   style="opacity:0.8;fill:#d9a98b" />
<path
   d="m 221.93271,148.168 c 0,0 -55.178,16.72 -96.446,-77.157 0,0 73.708,-0.925 96.992,52.889 z"
   id="path241"
   inkscape:connector-curvature="0"
   style="fill:#755f52" />
<path
   d="m 224.93371,96.642 c 0,0 -45.039,-29.166 -88.944,-31.853 0,0 -23.002,1.434 -4.354,-5.65 0,0 57.229,-7.747 100.581,1.573 0,0 -0.852,27.523 -7.283,35.93 z"
   id="path243"
   inkscape:connector-curvature="0"
   style="fill:#8ab56f" />
<path
   d="m 508.84171,56.315 c 0,0 49.568,-18.792 230.95,16.843 0,0 6.185,3.937 -9.274,14.081 -19.53,12.813 -49.577,12.925 -62.748,37.517 -11.594,21.647 -34.268,30.465 -53.89,34.97 -36.634,8.409 -66.772,7.22 -103.659,2.56 -10e-4,-0.002 -63.313,-88.717 -1.379,-105.971 z"
   id="path245"
   inkscape:connector-curvature="0"
   style="fill:#5c8e51" />
<path
   d="m 737.63471,81.662 c 0,0 -183.729,-45.387 -218.18,42.208 v 26.44 c 0,0 77.141,13.586 123.984,-7.573 21.117,-9.538 29.678,-33.479 51.825,-40.773 24.977,-8.227 35.664,-15.026 42.371,-20.302 z"
   id="path247"
   inkscape:connector-curvature="0"
   style="opacity:0.8;fill:#d9a98b" />
<path
   d="m 519.08171,148.139 c 0,0 55.178,16.72 96.445,-77.157 0,0 -73.707,-0.925 -96.991,52.889 z"
   id="path249"
   inkscape:connector-curvature="0"
   style="fill:#755f52" />
<path
   d="m 516.07971,96.612 c 0,0 45.039,-29.166 88.945,-31.853 0,0 23.002,1.434 4.354,-5.65 0,0 -57.23,-7.747 -100.582,1.573 0,10e-4 0.853,27.523 7.283,35.93 z"
   id="path251"
   inkscape:connector-curvature="0"
   style="fill:#8ab56f" />
<path
   d="m 520.84171,128.781 c 0,23.578 4.008,47.056 -10.734,63.192 -16.595,18.165 -53.476,21.561 -80.019,21.561 h -119.63 c -26.543,0 -63.424,-3.395 -80.02,-21.56 -14.742,-16.137 -10.733,-39.615 -10.733,-63.193 V 90.753 c 0,-50.123 48.632,-90.753 98.753,-90.753 h 103.629 c 50.122,0 98.753,40.63 98.753,90.753 v 38.028 z"
   id="path253"
   inkscape:connector-curvature="0"
   style="fill:#8ab56f" />
<path
   d="m 387.89871,167.138 c 1.5,-0.227 11.609,3.453 12.055,16.453"
   id="path255"
   inkscape:connector-curvature="0"
   style="fill:#5c8e51" />
<path
   d="m 452.22671,163.956 c 7.524,0 14.399,-1.44 20.435,-4.281 32.33,-15.22 32.277,-68.849 32.473,-71.125 l 0.346,-4.043 -3.337,-2.31 c -1.222,-0.846 -25.259,-20.722 -53.257,-20.722 -7.525,0 -14.4,1.44 -20.436,4.281 -32.329,15.218 -31.276,68.849 -31.472,71.125 l 0.654,3.043 3.336,2.31 c 1.223,0.846 23.26,21.722 51.258,21.722 z"
   id="path257"
   inkscape:connector-curvature="0"
   style="opacity:0.4;fill:#fc8686" />
<path
   d="m 351.11471,168.138 c -1.5,-0.227 -11.609,3.453 -12.055,16.453"
   id="path259"
   inkscape:connector-curvature="0"
   style="fill:#5c8e51" />
<path
   d="m 287.78671,163.956 c -7.525,0 -14.4,-1.44 -20.435,-4.281 -32.33,-15.22 -32.277,-68.849 -32.472,-71.125 l -0.346,-4.043 3.337,-2.31 c 1.222,-0.846 25.259,-20.722 53.257,-20.722 7.525,0 14.4,1.44 20.435,4.281 32.329,15.218 31.277,68.849 31.472,71.125 l -0.654,3.043 -3.337,2.31 c -1.222,0.846 -23.259,21.722 -51.257,21.722 z"
   id="path261"
   inkscape:connector-curvature="0"
   style="opacity:0.4;fill:#fc8686" />
<path
   d="m 342.05971,137.479 c 0,0 -42.675,29.539 -71.727,15.863 -29.052,-13.677 -33.479,-65.389 -33.479,-65.389 0,0 42.675,-29.539 71.727,-15.863 29.052,13.676 33.479,65.389 33.479,65.389 z"
   id="path263"
   inkscape:connector-curvature="0"
   style="fill:#340100" />
<path
   d="m 397.89971,137.479 c 0,0 42.676,29.539 71.727,15.863 29.053,-13.677 33.479,-65.389 33.479,-65.389 0,0 -42.674,-29.539 -71.727,-15.863 -29.051,13.676 -33.479,65.389 -33.479,65.389 z"
   id="path265"
   inkscape:connector-curvature="0"
   style="fill:#340100" />
<g
   id="g271"
   transform="translate(-130.38529,-359.409)">
	<g
   id="g269">
		<path
   d="m 615.831,419.841 c -8.241,-5.204 -18.103,-8.489 -27.639,-10.146 -18.64,-3.24 -36.624,2.183 -50.176,15.422 -2.31,2.256 1.229,5.789 3.535,3.535 13.283,-12.976 30.594,-17.219 48.576,-13.516 8.009,1.649 16.231,4.635 23.18,9.022 2.736,1.728 5.242,-2.6 2.524,-4.317 z"
   id="path267"
   inkscape:connector-curvature="0"
   style="fill:#5c8e51" />
	</g>
</g>
<circle
   cx="468.39871"
   cy="93.591003"
   r="10"
   id="circle273"
   style="fill:#ffffff" />
<g
   id="g279"
   transform="translate(-130.38529,-359.409)">
	<g
   id="g277">
		<path
   d="m 596.625,492.738 c -6.566,10.899 -19.758,10.114 -29.579,4.423 -2.795,-1.62 -5.312,2.702 -2.523,4.317 12.227,7.085 28.409,7.08 36.421,-6.217 1.667,-2.768 -2.657,-5.28 -4.319,-2.523 z"
   id="path275"
   inkscape:connector-curvature="0"
   style="fill:#591c09" />
	</g>
</g>
<g
   id="g285"
   transform="translate(-130.38529,-359.409)">
	<g
   id="g283">
		<path
   d="m 623.977,511.86 c -4.181,11.117 -20.975,13.349 -31.653,12.585 -2.414,-0.173 -2.397,3.578 0,3.75 12.348,0.883 30.187,-1.822 35.269,-15.339 0.852,-2.267 -2.774,-3.238 -3.616,-0.996 z"
   id="path281"
   inkscape:connector-curvature="0"
   style="fill:#5c8e51" />
	</g>
</g>
<g
   id="g291"
   transform="translate(-130.38529,-359.409)">
	<g
   id="g289">
		<path
   d="m 544.11,396.674 c -12.294,-11.179 -31.334,-18.193 -45.517,-6.5 -1.868,1.54 0.801,4.177 2.652,2.651 12.445,-10.26 29.608,-3.143 40.213,6.5 1.785,1.624 4.444,-1.021 2.652,-2.651 z"
   id="path287"
   inkscape:connector-curvature="0"
   style="fill:#5c8e51" />
	</g>
</g>
<ellipse
   cx="370.27371"
   cy="148.95599"
   rx="13.068"
   ry="9.0439997"
   id="ellipse293"
   style="fill:#559242" />
<g
   id="g299"
   transform="translate(-130.38529,-359.409)">
	<g
   id="g297">
		<path
   d="m 476.184,537.158 c 14.167,9.58 33.21,9.007 47.363,0 2.711,-1.725 0.205,-6.054 -2.523,-4.316 -12.753,8.115 -29.565,8.622 -42.316,0 -2.68,-1.813 -5.179,2.521 -2.524,4.316 z"
   id="path295"
   inkscape:connector-curvature="0"
   style="fill:#340100" />
	</g>
</g>
<ellipse
   cx="484.86069"
   cy="180.18201"
   rx="22.246"
   ry="14.183"
   id="ellipse301"
   style="opacity:0.4;fill:#fc8686" />
<ellipse
   cx="254.8297"
   cy="180.59003"
   rx="22.246"
   ry="14.183"
   id="ellipse303"
   style="opacity:0.4;fill:#fc8686" />
<g
   id="g309"
   transform="translate(-130.38529,-359.409)">
	<g
   id="g307">
		<path
   d="m 386.477,425.159 c 6.995,-4.416 15.153,-7.246 23.179,-9.022 17.849,-3.952 35.447,0.69 48.577,13.516 2.307,2.254 5.845,-1.279 3.535,-3.535 -13.721,-13.404 -31.393,-18.375 -50.176,-15.422 -9.499,1.493 -19.463,4.984 -27.639,10.146 -2.718,1.716 -0.211,6.044 2.524,4.317 z"
   id="path305"
   inkscape:connector-curvature="0"
   style="fill:#5c8e51" />
	</g>
</g>
<g
   id="g315"
   transform="translate(-130.38529,-359.409)">
	<g
   id="g313">
		<path
   d="m 479.124,419.245 c 5.506,-4.927 13.239,-6.473 19.625,-2.378 2.032,1.303 3.901,-1.928 1.883,-3.222 -7.829,-5.02 -17.413,-3.065 -24.147,2.961 -1.797,1.608 0.851,4.238 2.639,2.639 z"
   id="path311"
   inkscape:connector-curvature="0"
   style="fill:#5c8e51" />
	</g>
</g>
<g
   id="g321"
   transform="translate(-130.38529,-359.409)">
	<g
   id="g319">
		<path
   d="m 525.989,416.606 c -6.734,-6.026 -16.317,-7.98 -24.146,-2.961 -2.019,1.294 -0.149,4.524 1.883,3.222 6.387,-4.094 14.119,-2.549 19.625,2.378 1.787,1.599 4.434,-1.031 2.638,-2.639 z"
   id="path317"
   inkscape:connector-curvature="0"
   style="fill:#5c8e51" />
	</g>
</g>
<circle
   cx="271.61472"
   cy="93.591003"
   r="10"
   id="circle323"
   style="fill:#ffffff" />
<g
   id="g329"
   transform="translate(-130.38529,-359.409)">
	<g
   id="g327">
		<path
   d="m 399.841,495.262 c 8.011,13.297 24.194,13.302 36.42,6.217 2.788,-1.615 0.271,-5.937 -2.523,-4.317 -9.822,5.691 -23.013,6.476 -29.58,-4.423 -1.661,-2.758 -5.985,-0.246 -4.317,2.523 z"
   id="path325"
   inkscape:connector-curvature="0"
   style="fill:#591c09" />
	</g>
</g>
<ellipse
   cx="370.18073"
   cy="144.771"
   rx="11.819"
   ry="9.1789999"
   id="ellipse331"
   style="fill:#8ab56f" />
<g
   id="g337"
   transform="translate(-130.38529,-359.409)">
	<g
   id="g335">
		<path
   d="m 372.192,513.856 c 5.082,13.517 22.921,16.222 35.269,15.339 2.397,-0.172 2.414,-3.923 0,-3.75 -10.679,0.764 -27.473,-1.468 -31.653,-12.585 -0.843,-2.242 -4.469,-1.271 -3.616,0.996 z"
   id="path333"
   inkscape:connector-curvature="0"
   style="fill:#5c8e51" />
	</g>
</g>
<path
   d="m 358.20571,194.364 c 0,0 12.397,-12.026 24.794,0.408"
   id="path339"
   inkscape:connector-curvature="0"
   style="fill:#5c8e51" />
<g
   id="g345"
   transform="translate(-130.38529,-359.409)">
	<g
   id="g343">
		<path
   d="m 458.326,400.326 c 10.604,-9.643 27.768,-16.76 40.214,-6.5 1.85,1.525 4.519,-1.112 2.652,-2.651 -14.184,-11.693 -33.224,-4.679 -45.517,6.5 -1.794,1.629 0.867,4.274 2.651,2.651 z"
   id="path341"
   inkscape:connector-curvature="0"
   style="fill:#5c8e51" />
	</g>
</g>
<path
   d="m 516.53571,239.297 c 0,13.808 -11.192,25 -25,25 l -87.921,18 h -58.527 l -91.648,-19 c -13.807,0 -25,-11.192 -25,-25 v -14.322 c 0,-13.808 11.193,-25 25,-25 h 238.097 c 13.808,0 25,11.192 25,25 v 15.322 z"
   id="path347"
   inkscape:connector-curvature="0"
   style="fill:#f4cf98" />
<g
   id="g353"
   transform="translate(-130.38529,-359.409)">
	<g
   id="g351">
		<path
   d="m 450.333,634.911 c 6.042,-2.521 11.588,-5.82 14.035,-12.176 2.115,-5.493 0.416,-12.083 -0.663,-17.607 -1.872,-9.594 -1.908,-17.644 3.262,-26.298 5.28,-8.838 14.545,-15.025 24.366,-17.625 1.557,-0.412 0.896,-2.823 -0.665,-2.41 -15.526,4.109 -29.056,16.889 -30.871,33.308 -0.804,7.271 2.076,14.662 2.846,21.834 1.029,9.578 -4.537,15.044 -12.975,18.564 -1.465,0.611 -0.823,3.031 0.665,2.41 z"
   id="path349"
   inkscape:connector-curvature="0"
   style="fill:#a88051" />
	</g>
</g>
<path
   d="m 234.53371,225.591 h 53.581 c 0,0 9.438,11.707 -55.531,11.854 0,0 -5.131,1.146 1.95,-11.854 z"
   id="path355"
   inkscape:connector-curvature="0"
   style="opacity:0.3;fill:#a88051" />
<path
   d="m 516.53571,223.975 c 0,0 -46.145,15.323 -66.032,13.47 0,0 -7.396,7.869 34.357,6.008 0,-0.001 20.596,0.906 31.675,-19.478 z"
   id="path357"
   inkscape:connector-curvature="0"
   style="opacity:0.3;fill:#a88051" />
</svg>