<?xml version="1.0" encoding="UTF-8" standalone="no"?>
<!-- Generator: Adobe Illustrator 16.0.0, SVG Export Plug-In . SVG Version: 6.00 Build 0)  -->

<svg
   xmlns:dc="http://purl.org/dc/elements/1.1/"
   xmlns:cc="http://creativecommons.org/ns#"
   xmlns:rdf="http://www.w3.org/1999/02/22-rdf-syntax-ns#"
   xmlns:svg="http://www.w3.org/2000/svg"
   xmlns="http://www.w3.org/2000/svg"
   xmlns:sodipodi="http://sodipodi.sourceforge.net/DTD/sodipodi-0.dtd"
   xmlns:inkscape="http://www.inkscape.org/namespaces/inkscape"
   version="1.1"
   id="Layer_1"
   x="0px"
   y="0px"
   width="741.00165"
   height="282.298"
   viewBox="0 0 741.00165 282.298"
   enable-background="new 0 0 1000 1000"
   xml:space="preserve"
   sodipodi:docname="babyYodaBack.svg"
   inkscape:version="0.92.4 (5da689c313, 2019-01-14)"><metadata
   id="metadata26"><rdf:RDF><cc:Work
       rdf:about=""><dc:format>image/svg+xml</dc:format><dc:type
         rdf:resource="http://purl.org/dc/dcmitype/StillImage" /></cc:Work></rdf:RDF></metadata><defs
   id="defs24" /><sodipodi:namedview
   pagecolor="#ffffff"
   bordercolor="#666666"
   borderopacity="1"
   objecttolerance="10"
   gridtolerance="10"
   guidetolerance="10"
   inkscape:pageopacity="0"
   inkscape:pageshadow="2"
   inkscape:window-width="1920"
   inkscape:window-height="1017"
   id="namedview22"
   showgrid="false"
   inkscape:zoom="0.848"
   inkscape:cx="369.6089"
   inkscape:cy="141.707"
   inkscape:window-x="-8"
   inkscape:window-y="-8"
   inkscape:window-maximized="1"
   inkscape:current-layer="Layer_1" />
<path
   d="M 739.7859,73.157 C 585.3349,42.813 526.4729,51.932 512.3939,55.31 496.3359,22.8 459.6279,0 422.0819,0 h -103.629 c -37.518,0 -74.198,22.766 -90.275,55.237 -14.833,-3.453 -74.063,-12.089 -226.9620024,17.95 0,0 -3.854,2.463 2.161,8.504 0,0 -0.003,10e-4 -0.003,10e-4 0.006,0.005 0.013,0.01 0.02,0.016 1.594,1.598 3.868,3.442 7.0970004,5.561 6.057,3.974 13.125,6.726 20.387,9.365 3.399,1.353 7.182,2.751 11.402,4.196 6.139,2.393 12.106,5.13 17.415,8.867 3.244,2.555 6.228,5.435 9.125,8.438 1.621,2.001 3.107,4.2 4.42,6.65 11.593,21.647 34.267002,30.465 53.889002,34.97 32.852,7.541 60.496,7.353 92.451,3.874 0.881,10.654 3.588,20.393 10.854,28.347 3.38,3.7 7.613,6.778 12.418,9.349 -8.517,3.985 -14.418,12.627 -14.418,22.651 v 14.322 c 0,13.808 11.193,25 25,25 l 91.648,19 h 58.527 l 87.921,-18 c 13.808,0 25,-11.192 25,-25 v -15.322 c 0,-11.007 -7.116,-20.346 -16.996,-23.684 4.042,-2.354 7.628,-5.1 10.567,-8.317 7.284,-7.974 9.987,-17.741 10.861,-28.426 32.15,3.526 59.902,3.754 92.911,-3.823 19.622,-4.505 42.296,-13.322 53.89,-34.97 1.313,-2.452 2.801,-4.651 4.423,-6.654 2.894,-3.001 5.876,-5.879 9.117,-8.432 5.31,-3.739 11.278,-6.477 17.419,-8.871 4.22,-1.444 8.003,-2.843 11.401,-4.195 7.263,-2.639 14.331,-5.391 20.388,-9.365 3.228,-2.118 5.502,-3.962 7.096,-5.56 0.007,-0.005 0.015,-0.011 0.021,-0.017 0,0 -0.003,-0.001 -0.004,-0.001 6.016,-6.041 2.162,-8.504 2.162,-8.504 z"
   id="path19"
   inkscape:connector-curvature="0"
   style="fill:#415636" />
</svg>