<svg xmlns="http://www.w3.org/2000/svg" width="527.12" height="527.13"><path d="M0 0h527.12v527.13H0z" fill="#637782"/><g fill-rule="evenodd"><path d="M263.4 375.53c-46.03-.5-89.85-9.37-129.43-34.3-12.75-8.03-24.05-17.7-33.15-29.76-24.66-32.64-22.76-70.8 4.96-101.1 24.52-26.8 55.87-41.58 90.43-49.75 64.32-15.22 126.92-11 186.47 19.7 17 8.75 31.96 20.4 43.6 35.75 25.2 33.2 23.04 71.94-5.55 102.44-25.45 27.14-57.94 41.27-93.3 49.82a253.2 253.2 0 0 1-64.03 7.21zm3.06-214.2c-28.58.34-54.17 3.34-78.96 11.07-31.08 9.7-59.75 23.62-80.06 50.4-19.36 25.53-19.25 56.32-.2 82.08 10.8 14.6 24.67 25.66 40.58 33.95 57.54 30 118.1 34.12 180.46 19.65 31.13-7.23 59.8-19.96 82.75-42.96 31.3-31.37 31.22-71.46.13-103-5.2-5.28-10.97-10.2-17.07-14.4-39.2-27.03-83.7-35.65-127.62-36.8z" fill="#010100"/><path d="M266.45 161.34c43.93 1.14 88.4 9.76 127.62 36.8 6.1 4.2 11.86 9.13 17.07 14.4 31.1 31.53 31.15 71.63-.13 103-22.94 23-51.62 35.73-82.75 42.96-62.36 14.47-122.92 10.35-180.46-19.65-15.92-8.3-29.8-19.35-40.58-33.95-19.04-25.75-19.15-56.54.2-82.07 20.32-26.8 48.98-40.72 80.06-50.4 24.8-7.73 50.38-10.73 78.96-11.07zM365.1 337.5c20.02-9.33 35.98-20.35 47.83-36.4 18.4-24.95 17.65-53.82-2.44-77.5-22.3-26.25-52.4-38.7-86.23-47.43 6.3 9.03 10.84 17.22 13.4 26.4 3.7 13.36 3.27 26.2-5.42 37.63-10.06 13.24-26.4 12.2-34.73-2.06-3.05-5.24-4.8-10.9-5.38-17.05-1.32-14.14-2.98-28.25-4.5-42.37l-1.82-1.54c-3.63 11.35-11.77 11.94-21.23 12.42-10.16.5-16.72-3.1-22.07-13.55l-5.68 49.9c-1.8 12.96-10.95 22.75-20.6 23.37-10.96.7-20.23-6.97-24.33-20.3-3.15-10.25-1.9-20.3 1.4-30.33 2.52-7.63 7.12-14.2 10.77-21.34-.98-.24-1.58-.6-2.08-.5-33.3 7.82-63.8 20.93-86.14 48.06-17.15 20.83-19.73 46.32-6.48 68.1 12.74 20.94 31.74 35.12 54.14 44.78.2.1.76-.62 1.32-1.1-1.65-3.57-3.54-7.1-4.93-10.83-2.82-7.57-3.98-15.33 2.3-21.75 6.46-6.6 14.5-5.95 22.42-3.07 3.45 1.25 6.72 3.15 9.83 5.12 7.7 4.88 12.66 12.38 17.8 20.37 1.24-2.6 2.05-4.42 2.96-6.2 7.64-14.9 19.15-16.67 30.84-4.6 7.53 7.8 11.92 17.33 15.38 27.5.86 2.52.15 6.35 4 7.83 2.83-10.32 6.4-20 12.46-28.46 5.43-7.56 11.43-15.2 21.92-14.45 10.58.75 13.66 9.9 17.4 18.4 1.73-2.54 3.25-4.95 4.94-7.22 6.46-8.68 14.1-16 24.8-19.03 7.1-2 14.4-2.37 20.23 3.27 5.94 5.74 5.24 13 3.23 20.1-1.13 4-2.96 7.8-5.3 13.8z" fill="#f9ed2c"/><path d="M365.1 337.5c2.34-6 4.17-9.8 5.3-13.8 2.02-7.1 2.72-14.36-3.23-20.1-5.84-5.64-13.12-5.28-20.23-3.27-10.7 3.03-18.33 10.35-24.8 19.03-1.7 2.27-3.2 4.68-4.94 7.22-3.74-8.5-6.82-17.64-17.4-18.4-10.48-.75-16.5 6.9-21.92 14.45-6.08 8.47-9.63 18.13-12.46 28.46-3.85-1.48-3.15-5.3-4-7.83-3.46-10.16-7.85-19.7-15.38-27.5-11.7-12.08-23.2-10.32-30.84 4.6-.9 1.77-1.72 3.6-2.96 6.2-5.14-8-10.1-15.5-17.8-20.37-3.12-1.97-6.4-3.87-9.83-5.12-7.92-2.88-15.96-3.54-22.42 3.07-6.28 6.4-5.12 14.17-2.3 21.75 1.4 3.72 3.3 7.26 4.93 10.83-.56.48-1.1 1.2-1.32 1.1-22.4-9.66-41.4-23.84-54.14-44.78-13.25-21.78-10.66-47.26 6.48-68.1 22.34-27.14 52.85-40.25 86.14-48.06.5-.12 1.1.25 2.08.5-3.65 7.15-8.25 13.7-10.77 21.34-3.32 10.04-4.57 20.08-1.4 30.33 4.1 13.33 13.37 21 24.33 20.3 9.64-.6 18.78-10.4 20.6-23.37 2.2-15.8 3.65-31.7 5.68-49.9 5.35 10.44 11.9 14.06 22.07 13.55 9.47-.48 17.6-1.06 21.23-12.42l1.82 1.54 4.5 42.38c.58 6.14 2.33 11.82 5.38 17.05 8.33 14.27 24.68 15.3 34.73 2.06 8.7-11.44 9.13-24.27 5.42-37.63-2.54-9.18-7.1-17.37-13.4-26.4 33.83 8.72 63.94 21.18 86.23 47.43 20.1 23.66 20.85 52.53 2.44 77.5-11.85 16.06-27.8 27.08-47.83 36.4z" fill="#010100"/></g></svg>