<svg xmlns="http://www.w3.org/2000/svg" width="276.59" height="537.43" fill="#231f20"><path d="M274.086 278.237L269.98 2.442l-36.69 126.924c-92.6-65.83-175.067-12.144-187.646-3.15L2.518 3.443l.068 4.226-.08-.227-.035 13 .348 1.9 5.697 355.42 7.308 63.23c6.473 12.945 28.195 39.614 34.92 47.744l.004.41 1.1.923.9 1.077.356-.015c18.332 15.64 36.268 35.66 60.122 41.388 10.97 2.635 20.092 2.97 34.294 1.487 11.662-1.218 30.14 1.793 45.074-6.775 17.88-10.258 32.637-27.008 38.075-33.628 9.262-8.207 15.155-14.688 15.155-14.688 5.196-4.454 13.876-23.226 18.9-34.772 7.973-18.363 6.264-38.69 6.264-38.69z"/><path d="M276.586 278.237L272.478 2.442c-.042-2.833-4.123-3.39-4.91-.665L230.876 128.7l3.673-1.494c-36.443-25.65-79.72-37.795-123.97-30.21-23.344 4.002-46.84 13.267-66.198 27.058l3.672 1.494L4.928 2.778C4.023.202-.03.498.017 3.443L.085 7.67l4.91-.665-.08-.227C4.014 4.17.014 4.52.006 7.442-.107 49.968 1.447 92.697 2.13 135.264L6.012 377.4c.154 9.588 2.218 19.492 3.317 29.008l3.994 34.555c.356 3.08 3.284 6.526 4.918 9.07 2.99 4.65 6.25 9.128 9.54 13.568 5.895 7.956 12.058 15.717 18.316 23.39l1.573 1.92c.883 1.076.594 1.603.577.023.02 1.787 1.454 2.438 2.5 3.7.365.438.774.77 1.34.925 2.178.6-.196-.185.422.346 2.77 2.378 5.478 4.827 8.188 7.27 9.57 8.63 19.126 17.322 30.035 24.26 10.38 6.602 21.874 10.27 34.064 11.57 12.32 1.316 24.893-.766 37.253-.903 13.1-.146 24.912-2.23 36.094-9.326 10.404-6.6 19.616-15.14 27.968-24.145 3.06-3.3 5.805-6.764 9.14-9.788 4-3.63 7.873-7.416 11.585-11.342 5.803-6.137 9.547-13.646 13.23-21.193 5.537-11.343 10.54-22.67 12.467-35.24 1.015-6.62.788-13.075.95-19.707l3.106-127.113c.08-3.227-4.922-3.22-5 0l-1.663 68.095c-.515 21.04-1.584 42.152-1.294 63.193.176 12.76-2.424 25.11-7.573 36.765-4.344 9.83-8.675 20.78-15.45 29.234-5.35 6.676-12.72 11.594-18.206 18.1-7.445 8.833-15.8 17.007-24.97 24.04-5.49 4.212-11.4 8.145-17.96 10.453-6.688 2.354-13.918 2.774-20.944 2.946-12.372.304-24.945 1.91-37.29 1.056-28.245-1.957-47.842-22.028-67.856-39.725-1.3-1.14-3.324-3.855-5.275-3.775 1.79-.074.417.773.05-.56-.784-2.85-4.8-6.184-6.637-8.446-6.856-8.492-13.56-17.12-19.852-26.042-2.626-3.724-5.15-7.527-7.416-11.482-.97-1.692-.91-.984-1.19-3.4l-6.82-59.015c-.783-6.77-.41-13.76-.52-20.564L5.007 7.44l-4.91.665.08.227c.895 2.585 4.958 2.272 4.91-.665l-.068-4.226-4.91.665L43.23 126.88c.492 1.4 2.27 2.492 3.672 1.494 18.16-12.938 39.683-21.48 61.45-25.9 43.855-8.882 87.536 3.607 123.672 29.04 1.352.952 3.253-.044 3.673-1.494L272.39 3.106l-4.91-.665 4.108 275.795c.047 3.223 5.047 3.227 5 .001z"/></svg>