<svg xmlns="http://www.w3.org/2000/svg" width="276.68" height="537.32"><path d="M2.57 3.45L46.8 129.37s76.92-70.87 186.54 0l36.7-126.92 4.1 275.8-3.1 127.2s1.7 20.33-6.26 38.7c-5 11.55-13.7 30.32-18.9 34.77 0 0-9.58 10.53-23.5 21.75-12.04 9.7-27.33 19.65-42.5 26.8 0 0-35.62-22.62-85.6-38l-41.46 1.7s-29.23-34.77-36.92-50.15l-7.3-63.23-1.47-91.72z" fill="#0a4f76"/><path d="M.16 4.1L44.4 130.03c.63 1.8 2.74 2.44 4.18 1.1 13.67-12.54 32.46-20.72 50.06-25.66 46.35-13 93.9.7 133.45 26.05 1.38.9 3.24.01 3.67-1.5L272.44 3.1l-4.9-.66 4.1 274.87c.27 18.32-.86 36.76-1.3 55.07l-1.78 72.8c-.22 9.05-.25 17.6-2.3 26.54-3.18 13.84-10.6 28.2-18.07 40.22-5.3 8.52-14.23 15.56-21.67 22.02-14.4 12.52-30.65 23.1-47.87 31.3h2.52c-10.86-6.88-22.5-12.65-34.13-18.1-11.87-5.56-24.02-10.5-36.35-14.93l-10.37-3.53c-1.8-.6-4.23-1.86-6.15-1.78l-40.6 1.66c-1.83.07 1.2.98.86.57-10.07-12.02-19.9-24.34-28.82-37.23-3.15-4.54-7-9.06-7.47-13.26l-6.82-59c-.78-6.77-.4-13.76-.52-20.56L5.07 3.45C5.02.22.02.22.07 3.45L6.04 375.8c.13 7.94 1.65 15.97 2.56 23.84l4.64 40.1c.62 5.32 5.1 10.44 8.03 14.73 5.46 7.96 11.38 15.6 17.36 23.17l11.96 14.74c1.96 2.35 7 1.06 9.64.96l31.74-1.3c3.7-.15 7 1.5 10.5 2.67a393.7 393.7 0 0 1 65.57 28.74c3.55 1.95 7.08 3.96 10.5 6.1 2.9 1.82 9.82-3.56 12.3-4.9 7-3.77 13.72-8.02 20.26-12.5 11.2-7.7 21.62-16.55 31.3-26.1 4.95-4.88 9.1-9.7 12.55-15.8 11.1-19.57 19.57-40.65 18.63-63.5-.26-6.37.2-12.8.36-19.18l1.1-45.25c.52-21.34 1.88-42.84 1.57-64.18l-4.1-275.72c-.04-2.83-4.12-3.4-4.9-.66l-36.7 126.92 3.67-1.5c-40.3-25.82-88.03-39.26-135.3-27.1-19.16 4.93-39.47 13.97-54.27 27.48l4.17 1.1L4.98 2.8C3.92-.24-.9 1.06.16 4.1z" fill="#231f20"/><g fill="#000205"><path d="M270.03 2.45l-21.3 223-38.7 15-54.46 64 8.54 90.3s-11.23 8.02-25.8 1.92v-94.23l-58.27-62-42.85-16s-14.17-93-34.66-204l.04-13 41.47 120s88.67-69.62 189.3 1.92z" opacity=".9"/><path d="M27.13 282.56l-6.6-11.2 109.6 45.3 12.82-14.2 21.68 12.5c2.58 1.5 20.64-8.65 23.4-9.8 15.14-6.34 22.28-11.68 37.4-18.03 7.16-3 28.1-12.75 36.05-12.75l-15.77 30.2-5.54 12.1s-.36 34.02 8.54 37.7l-64.7 27.32-30.56-57.47-13.17.23-50.7 51.85-43.45-18.93s5.68-17.62 6.6-40.7l-10.54-14.2z"/></g><path d="M50.8 489.14l-1-91.38-12.62-43.38 97.12 42.3c18.42 9.62 26.8 1.08 26.8 1.08 42.3-30.77 87.6-43.38 87.6-43.38l-15.75 47.23v89.17s-17.66 23.45-40.33 36.46c-14.93 8.57-33.4 5.56-45.07 6.77-14.2 1.48-23.33 1.15-34.3-1.5-24.87-5.97-43.3-27.5-62.48-43.37z" fill="#deb18a"/><path d="M53.3 489.14l-.8-74.4c-.07-6.8.76-14.08-1.16-20.67L39.6 353.7l-3.67 2.82 96.22 41.92c6.74 2.93 13.17 5.86 20.72 5.16 6.88-.64 11.7-5.34 17.18-9.06 23.95-16.24 51.38-29.93 79.35-37.77l-3.08-3.08-15.75 47.23c-.77 2.32-.1 5.84-.1 8.22v81.6c0-1.02.73-1.74-.04-.76l-1.76 2.17c-4.48 5.44-9.34 10.56-14.43 15.43-7.33 7-15.4 13.4-24.32 18.27-9.68 5.27-21.43 5.2-32.14 5.27-9.55.06-19 1.5-28.57 1.17a71.2 71.2 0 0 1-28.88-7.23c-18.32-8.98-32.3-24.8-47.76-37.7-2.46-2.05-6 1.47-3.53 3.54 19.02 15.88 36.2 35.7 60.63 43.23 12.3 3.8 25.25 3.64 37.9 2.37 11.8-1.18 23.53.18 35.2-2.65 12.14-2.95 22.66-11.62 31.8-19.76 6.8-6.05 13.1-12.75 18.8-19.83 1.82-2.25 2.1-3.42 2.1-6.2V401.6c0 1.4.63-1.5.83-2.1l14.83-44.48c.6-1.83-1.3-3.57-3.08-3.08-13.05 3.65-25.73 8.97-38.03 14.58-12.55 5.73-24.7 12.33-36.37 19.68-4.75 3-10.3 6-14.4 9.86-1.57 1.47-4.05 2.1-6.15 2.5-9.63 1.8-22.6-6.26-31.52-10.15l-83.13-36.2c-1.9-.82-4.34.5-3.67 2.82l12.34 42.43c.48 1.65.18-.46.2 1.17l1 90.5c.03 3.22 5.03 3.22 5 0z" fill="#231f20"/><path d="M173.72 327.45s19.42-25 62.46-25c0 0 1 24.08-31.73 26z" fill="#fff"/><path d="M175.5 329.2c13.77-17.55 39.6-24.1 60.7-24.27l-2.5-2.5c.43 12.7-11.46 20.42-22.5 22.7-6.45 1.33-13.12.6-19.65.38l-17.8-.58c-3.23-.1-3.22 4.9 0 5 14.27.47 29.9 2.93 43.8-1.24 11.32-3.4 21.6-13.76 21.17-26.26-.05-1.35-1.1-2.5-2.5-2.5-22.28.17-49.7 7.2-64.23 25.73-1.96 2.5 1.55 6.07 3.54 3.54z" fill="#231f20"/><path d="M113.95 327.45c-.01-.01-14.28-21.14-61.22-25 .32.03 8.78 13.03 9.94 14.12 7.1 6.7 16.6 12.38 26.26 14.24 2.3.44 26.14-1.7 25.02-3.36z" fill="#fff"/><path d="M116.1 326.18c-3.43-5-8.84-8.8-13.9-11.95-14.75-9.13-32.4-12.8-49.47-14.3-2.13-.2-3.37 2.9-1.77 4.27 1.7 1.46 3 4.3 4.26 6.15 1.7 2.5 3.34 5.1 5.24 7.46 6.4 7.9 18.1 13.3 27.8 15.4 5.34 1.14 12.14-.48 17.45-1.17 2.62-.34 11.9-.52 10.64-5.27-.82-3.12-5.64-1.8-4.82 1.33-.65-2.5 2.1-2.6-.7-1.93-1 .24-2.02.4-3.04.56a134 134 0 0 1-9.15 1.09c-6.4.6-10.9.53-17.03-1.8-7.26-2.76-14.82-7.67-19.3-14.1-2.4-3.45-4.62-8.5-7.83-11.25l-1.77 4.27c16.3 1.43 32.8 5.07 46.95 13.6 4.2 2.53 9.88 6.9 12.1 10.16 1.8 2.64 6.15.14 4.32-2.52zM84 445.24c23.34-4.08 46.7-6.97 70.36-7.86l8.03-.3c.35-.01 2.42.12 1.08-.15l41.32 8.3c3.15.63 4.5-4.2 1.33-4.82l-40.63-8.17c-3.55-.7-7.55 0-11.13.13-24.12.9-47.9 3.88-71.7 8.04-3.17.56-1.82 5.37 1.33 4.82z" fill="#231f20"/><path d="M123.72 463.98s34.62-5.77 50 0l-11.54-18.15-26.88 1z" fill="#bc9073"/><path d="M150.07 525.52l.15-17.3c.03-3.23-4.97-3.22-5 0l-.15 17.3c-.03 3.23 4.97 3.22 5 0zM66.3 419.3l-14.33-22.8c-1.7-2.72-6.04-.22-4.32 2.52l14.33 22.8c1.7 2.72 6.04.22 4.32-2.52zm157.5 3.53l11.35-19.12c1.65-2.78-2.67-5.3-4.32-2.52l-11.35 19.12c-1.65 2.78 2.67 5.3 4.32 2.52z" fill="#231f20"/><path d="M118.93 346.86l19.36-19.42v69.23z" opacity=".5" fill="#7ccbd8"/><path d="M242.38 342.16l-6.2 2.75 12.54 9.46-12.75 44.23 25.52-44.23zm-194.35 56.8l-9.75-42.6 17.52 3.5-5.26-14.7-25 7.2z" fill="#000205"/><g fill="#7ccbd8"><path d="M46.53 266.4l33.5-25.96 58.27 62-6.58 5.5z" opacity=".5"/><path d="M243.33 266.4l-30.5-24.96-58.27 62 6.58 5.5z" opacity=".4"/></g><g fill="#231f20"><path d="M81.57 242.2l54.97 62-.4-3.03-7.58 13.5 3.42-.9L21.14 266.2l.9 3.42 17.3-39.92c1.27-2.93-3.04-5.47-4.32-2.52l-17.3 39.92c-.5 1.12-.46 2.84.9 3.42l110.85 47.58c1.23.53 2.7.4 3.42-.9l7.58-13.5c.58-1.03.37-2.17-.4-3.03l-54.97-62c-2.14-2.42-5.67 1.13-3.53 3.53zm164.73-13.1l10.62 48.7 1.75-3.08c-20.33 3.05-40.1 12.54-58.7 20.87a902.7 902.7 0 0 0-26.92 12.66l-10.88 5.4c-.86.43-2.16.6-.13.33l1.26 4.66c.02-.02.04-.03.07-.04 1.24-.76 1.48-2.17.9-3.42l-6.54-14-.4 3.03 55.88-63.04c2.13-2.4-1.4-5.95-3.53-3.53l-55.9 63.04c-.8.9-.9 1.95-.4 3.03l6.54 14 .9-3.42c-.02.01-.05.03-.07.04-1.7 1.28-1.52 5.03 1.26 4.66 3.6-.48 7.58-3.48 10.75-5.05a1003.6 1003.6 0 0 1 26.52-12.6c19.15-8.73 39.68-18.65 60.7-21.8 1.4-.2 2-1.87 1.75-3.08l-10.62-48.7c-.68-3.15-5.5-1.8-4.82 1.33zm4.58 126.53l16.64-26.92c1.7-2.75-2.63-5.26-4.32-2.52l-16.64 26.92c-1.7 2.75 2.63 5.26 4.32 2.52zM39.34 353.1l-17.3-26.92c-1.74-2.7-6.07-.2-4.32 2.52l17.3 26.92c1.74 2.7 6.07.2 4.32-2.52z"/><path d="M53.3 488.14v-86.67c0-2.6-1.24-5.3-1.96-7.75l-11.75-40-3.67 2.82 96.22 41.92c6.88 3 13.44 5.78 21.12 4.76 7.12-.95 12.22-5.9 17.95-9.77 23.52-15.9 50.6-29.37 78.17-36.65l-3.08-3.08-15.72 48.13c-.68 2.08-.12 5.07-.12 7.2v81.67c0-.55.63-1.57.2-1a116.5 116.5 0 0 1-1.56 1.94 176 176 0 0 1-14.86 15.95c-7.33 7-15.4 13.4-24.32 18.27-9.68 5.27-21.43 5.2-32.14 5.27-9.55.06-19 1.5-28.57 1.17-10.46-.35-20.7-3.04-29.94-7.9-17.87-9.36-31.4-25.25-46.7-38.04-2.45-2.05-6 1.46-3.53 3.54 18.8 15.72 35.36 35.7 59.26 43.8 12 4.06 24.92 4.12 37.38 3 11.87-1.08 23.8.02 35.55-2.46 12.36-2.62 22.92-11.02 32.24-19.14 7.1-6.2 13.63-13.1 19.57-20.38 1.86-2.28 2.44-3.44 2.44-6.3v-84.4c0-.58.3-2-.08-.78l15.74-48.2c.6-1.85-1.3-3.54-3.08-3.08-13.4 3.54-26.42 8.94-39 14.67a292.3 292.3 0 0 0-37.24 20.41c-6.44 4.16-12.6 10.7-20.63 11.38-9.68.83-22.1-6.72-30.98-10.6L38.45 352.2c-1.88-.82-4.35.5-3.67 2.82l12.78 43.54c.23.77.75 3.5.75 2.3v87.25c0 3.23 5 3.23 5 0z"/></g></svg>