<?xml version="1.0" encoding="UTF-8" standalone="no"?>
<!-- Generator: Adobe Illustrator 16.0.0, SVG Export Plug-In . SVG Version: 6.00 Build 0)  -->

<svg
   xmlns:dc="http://purl.org/dc/elements/1.1/"
   xmlns:cc="http://creativecommons.org/ns#"
   xmlns:rdf="http://www.w3.org/1999/02/22-rdf-syntax-ns#"
   xmlns:svg="http://www.w3.org/2000/svg"
   xmlns="http://www.w3.org/2000/svg"
   xmlns:xlink="http://www.w3.org/1999/xlink"
   xmlns:sodipodi="http://sodipodi.sourceforge.net/DTD/sodipodi-0.dtd"
   xmlns:inkscape="http://www.inkscape.org/namespaces/inkscape"
   version="1.1"
   id="Layer_1"
   x="0px"
   y="0px"
   width="359.5"
   height="359.5"
   viewBox="0 0 359.5 359.5"
   enable-background="new 0 0 1000 1000"
   xml:space="preserve"
   sodipodi:docname="bellRedPattern.svg"
   inkscape:version="0.92.4 (5da689c313, 2019-01-14)"><metadata
   id="metadata844"><rdf:RDF><cc:Work
       rdf:about=""><dc:format>image/svg+xml</dc:format><dc:type
         rdf:resource="http://purl.org/dc/dcmitype/StillImage" /></cc:Work></rdf:RDF></metadata><defs
   id="defs842" /><sodipodi:namedview
   pagecolor="#ffffff"
   bordercolor="#666666"
   borderopacity="1"
   objecttolerance="10"
   gridtolerance="10"
   guidetolerance="10"
   inkscape:pageopacity="0"
   inkscape:pageshadow="2"
   inkscape:window-width="640"
   inkscape:window-height="480"
   id="namedview840"
   showgrid="false"
   inkscape:zoom="0.236"
   inkscape:cx="210.5"
   inkscape:cy="129"
   inkscape:window-x="0"
   inkscape:window-y="0"
   inkscape:window-maximized="0"
   inkscape:current-layer="Layer_1" />
<g
   id="g837"
   transform="translate(-289.5,-269.5)">
	<defs
   id="defs701">
		<rect
   id="SVGID_1_"
   x="289.5"
   y="269.5"
   width="359.5"
   height="359.5" />
	</defs>
	<clipPath
   id="SVGID_2_">
		<use
   xlink:href="#SVGID_1_"
   overflow="visible"
   id="use703"
   style="overflow:visible"
   x="0"
   y="0"
   width="100%"
   height="100%" />
	</clipPath>
	<rect
   x="289.5"
   y="269.5"
   clip-path="url(#SVGID_2_)"
   width="359.5"
   height="359.5"
   id="rect706"
   style="fill:none" />
	<rect
   x="289.5"
   y="269.5"
   clip-path="url(#SVGID_2_)"
   width="359.5"
   height="359.5"
   id="rect708"
   style="fill:#9e1417" />
	<g
   clip-path="url(#SVGID_2_)"
   id="g713">
		<path
   id="bell_27_"
   d="m 249.514,294.036 c 0.422,4.929 11.027,9.084 26.031,12.322 0.8,1.006 2.123,1.313 3.48,1.554 1.322,0.332 2.644,0.605 3.782,0.042 14.992,3.344 26.362,4.029 28.805,-0.278 0.595,-1.049 3.54,-10.311 0.18,-14.672 -0.885,-1.159 -6.768,-12.822 -5.308,-26.22 0.758,-7.036 2.364,-11.865 -5.145,-15.92 -0.832,-0.453 -2.333,-1.048 -3.955,-1.611 0.832,-3.844 0.047,-7.246 -1.822,-7.71 l -3.344,-0.8 c -1.901,-0.464 -4.233,2.306 -5.271,6.214 -1.717,-0.174 -3.339,-0.263 -4.286,-0.201 -8.521,0.542 -9.095,5.589 -11.344,12.302 -4.296,12.782 -14.519,20.907 -15.814,21.576 -4.883,2.563 -6.094,12.2 -5.989,13.402 z m 47.195,-45.015 c -1.601,-0.538 -3.239,-1.033 -4.434,-1.312 -0.016,-0.011 -0.016,-0.011 -0.031,-0.016 -0.005,0.005 -0.021,0 -0.038,-0.004 -1.242,-0.243 -3.002,-0.491 -4.724,-0.68 1.127,-1.865 2.534,-2.949 3.781,-2.648 l 3.339,0.81 c 1.186,0.295 1.928,1.8 2.107,3.85 z m -11.97,56.6 c 0.379,-0.906 0.7,-2.054 0.927,-3.587 0.212,-1.38 -1.021,-2.317 -1.601,-3.212 -0.047,-1.753 0.627,-4.181 1.301,-6.167 5.634,1.501 10.668,3.124 14.587,4.845 0.926,-2.723 1.648,-6.398 0.205,-9.015 -0.553,-0.98 -3.892,-11.112 -1.316,-21.797 0.152,-0.627 0.299,-1.228 0.457,-1.812 1.139,-4.361 2.028,-7.811 -1.748,-11.354 l -0.859,-0.805 1.038,0.542 c 0.3,0.158 0.51,0.274 0.669,0.368 4.913,3.06 4.349,6.225 3.506,11.007 -0.116,0.605 -0.216,1.216 -0.326,1.858 -1.817,11.317 2.501,21.255 3.187,22.271 1.969,2.949 0.305,8.821 -0.506,10.895 0.517,0.326 1.079,0.696 1.512,1.09 1.98,1.553 2.933,3.165 2.522,4.814 -0.815,3.292 -10.742,2.728 -23.555,0.059 z m -33.697,-14.014 c 1.316,-5.277 13.54,-3.934 28.521,-0.405 -0.205,2.116 -0.622,4.708 -1.411,6.319 -0.912,0.568 -2.338,0.927 -2.712,2.27 -0.39,1.4 -0.585,2.543 -0.632,3.486 -14.119,-3.691 -24.64,-8.115 -23.766,-11.67 z"
   inkscape:connector-curvature="0"
   style="fill:#edad2e" />
		<path
   d="m 273.68,221.146 c 2.128,-0.827 8.975,2.043 17.5,16.542 0.805,-0.796 1.938,-1.232 3.124,-0.97 l 0.473,0.106 c 1.233,0.269 2.117,1.2 2.469,2.328 13.909,-9.691 21.387,-9.426 22.982,-7.778 1.626,1.675 0.179,15.862 -1.095,17.045 -1.091,1.012 -17.011,-4.597 -21.802,-6.319 7.177,8.652 14.482,11.423 14.482,11.423 l -8.421,4.755 c 0,0 -6.33,-6.814 -7.978,-15.034 -0.644,0.283 -1.365,0.442 -2.108,0.279 l -0.474,-0.106 c -0.732,-0.162 -1.311,-0.584 -1.774,-1.105 -4.94,6.752 -13.529,10.291 -13.529,10.291 l -5.65,-7.847 c 0,0 7.773,0.547 17.91,-4.286 -5.288,-0.469 -21.708,-2.023 -22.255,-3.381 -0.679,-1.619 3.967,-15.106 6.146,-15.943 z"
   id="path711"
   inkscape:connector-curvature="0"
   style="fill:#243f07" />
	</g>
	<g
   clip-path="url(#SVGID_2_)"
   id="g718">
		<path
   id="bell_26_"
   d="m 609.015,294.036 c 0.416,4.929 11.026,9.084 26.03,12.322 0.801,1.006 2.123,1.313 3.479,1.554 1.324,0.332 2.641,0.605 3.781,0.042 14.993,3.344 26.364,4.029 28.808,-0.278 0.594,-1.049 3.539,-10.311 0.179,-14.672 -0.891,-1.159 -6.768,-12.822 -5.313,-26.22 0.764,-7.036 2.371,-11.865 -5.141,-15.92 -0.831,-0.453 -2.333,-1.048 -3.954,-1.611 0.833,-3.844 0.046,-7.246 -1.823,-7.71 l -3.342,-0.8 c -1.901,-0.464 -4.234,2.306 -5.273,6.214 -1.721,-0.174 -3.344,-0.263 -4.285,-0.201 -8.521,0.542 -9.095,5.589 -11.344,12.302 -4.297,12.782 -14.52,20.907 -15.813,21.576 -4.883,2.563 -6.094,12.2 -5.989,13.402 z m 47.194,-45.015 c -1.604,-0.538 -3.239,-1.033 -4.434,-1.312 -0.017,-0.011 -0.017,-0.011 -0.032,-0.016 -0.011,0.005 -0.019,0 -0.035,-0.004 -1.243,-0.243 -3.002,-0.491 -4.726,-0.68 1.122,-1.865 2.533,-2.949 3.781,-2.648 l 3.339,0.81 c 1.185,0.295 1.929,1.8 2.107,3.85 z m -11.97,56.6 c 0.381,-0.906 0.701,-2.054 0.928,-3.587 0.211,-1.38 -1.021,-2.317 -1.602,-3.212 -0.046,-1.753 0.626,-4.181 1.3,-6.167 5.635,1.501 10.67,3.124 14.589,4.845 0.925,-2.723 1.647,-6.398 0.205,-9.015 -0.553,-0.98 -3.892,-11.112 -1.316,-21.797 0.151,-0.627 0.3,-1.228 0.458,-1.812 1.136,-4.361 2.026,-7.811 -1.747,-11.354 l -0.86,-0.805 1.038,0.542 c 0.3,0.158 0.51,0.274 0.669,0.368 4.914,3.06 4.351,6.225 3.506,11.007 -0.115,0.605 -0.221,1.216 -0.326,1.858 -1.814,11.317 2.501,21.255 3.186,22.271 1.972,2.949 0.308,8.821 -0.51,10.895 0.521,0.326 1.084,0.696 1.516,1.09 1.982,1.553 2.935,3.165 2.522,4.819 -0.816,3.287 -10.741,2.723 -23.556,0.054 z m -33.697,-14.014 c 1.315,-5.277 13.539,-3.934 28.521,-0.405 -0.205,2.116 -0.623,4.708 -1.413,6.319 -0.909,0.568 -2.336,0.927 -2.711,2.27 -0.391,1.4 -0.585,2.543 -0.634,3.486 -14.116,-3.691 -24.637,-8.115 -23.763,-11.67 z"
   inkscape:connector-curvature="0"
   style="fill:#edad2e" />
		<path
   d="m 633.182,221.146 c 2.128,-0.827 8.973,2.043 17.499,16.542 0.806,-0.791 1.937,-1.232 3.123,-0.97 l 0.472,0.106 c 1.232,0.269 2.117,1.2 2.471,2.328 13.909,-9.691 21.386,-9.426 22.982,-7.778 1.626,1.675 0.178,15.862 -1.096,17.045 -1.089,1.012 -17.01,-4.597 -21.803,-6.319 7.18,8.652 14.483,11.423 14.483,11.423 l -8.426,4.755 c 0,0 -6.33,-6.814 -7.973,-15.034 -0.645,0.283 -1.365,0.442 -2.112,0.279 l -0.469,-0.106 c -0.731,-0.158 -1.312,-0.584 -1.775,-1.105 -4.94,6.752 -13.528,10.291 -13.528,10.291 l -5.65,-7.847 c 0,0 7.772,0.547 17.906,-4.286 -5.284,-0.469 -21.71,-2.023 -22.252,-3.381 -0.68,-1.619 3.96,-15.106 6.148,-15.943 z"
   id="path716"
   inkscape:connector-curvature="0"
   style="fill:#243f07" />
	</g>
	<g
   clip-path="url(#SVGID_2_)"
   id="g723">
		<path
   id="bell_25_"
   d="m 249.514,653.536 c 0.422,4.927 11.027,9.083 26.031,12.323 0.8,1.006 2.123,1.311 3.48,1.553 1.322,0.332 2.64,0.604 3.782,0.041 14.992,3.344 26.362,4.029 28.805,-0.278 0.595,-1.049 3.54,-10.311 0.18,-14.672 -0.885,-1.16 -6.768,-12.822 -5.308,-26.222 0.758,-7.034 2.364,-11.862 -5.145,-15.918 -0.832,-0.453 -2.333,-1.047 -3.955,-1.61 0.832,-3.847 0.047,-7.247 -1.822,-7.712 l -3.344,-0.801 c -1.901,-0.461 -4.233,2.309 -5.271,6.215 -1.717,-0.173 -3.339,-0.262 -4.286,-0.2 -8.521,0.542 -9.095,5.589 -11.344,12.302 -4.296,12.781 -14.519,20.908 -15.814,21.577 -4.883,2.562 -6.094,12.202 -5.989,13.402 z m 47.195,-45.015 c -1.606,-0.536 -3.239,-1.033 -4.434,-1.311 -0.016,-0.011 -0.016,-0.011 -0.031,-0.017 -0.011,0.006 -0.021,0 -0.038,-0.005 -1.242,-0.243 -3.002,-0.491 -4.724,-0.68 1.127,-1.864 2.534,-2.948 3.781,-2.648 l 3.339,0.812 c 1.186,0.294 1.928,1.799 2.107,3.849 z m -11.97,56.599 c 0.379,-0.906 0.7,-2.053 0.927,-3.585 0.212,-1.381 -1.021,-2.316 -1.601,-3.212 -0.047,-1.753 0.627,-4.184 1.301,-6.169 5.634,1.503 10.668,3.124 14.587,4.848 0.926,-2.725 1.648,-6.4 0.205,-9.017 -0.553,-0.979 -3.892,-11.112 -1.316,-21.799 0.152,-0.625 0.299,-1.227 0.457,-1.81 1.139,-4.361 2.028,-7.811 -1.748,-11.354 l -0.859,-0.807 1.038,0.542 c 0.3,0.159 0.51,0.275 0.669,0.369 4.913,3.062 4.349,6.226 3.506,11.008 -0.116,0.604 -0.221,1.216 -0.326,1.857 -1.817,11.317 2.501,21.257 3.187,22.271 1.969,2.951 0.305,8.822 -0.511,10.896 0.522,0.326 1.084,0.696 1.517,1.09 1.98,1.554 2.933,3.166 2.522,4.819 -0.815,3.287 -10.742,2.723 -23.555,0.053 z m -33.697,-14.012 c 1.316,-5.278 13.54,-3.936 28.521,-0.407 -0.205,2.117 -0.622,4.709 -1.411,6.319 -0.912,0.569 -2.338,0.928 -2.712,2.271 -0.39,1.4 -0.585,2.544 -0.632,3.488 -14.119,-3.693 -24.64,-8.116 -23.766,-11.671 z"
   inkscape:connector-curvature="0"
   style="fill:#edad2e" />
		<path
   d="m 273.68,580.646 c 2.128,-0.825 8.975,2.045 17.5,16.542 0.805,-0.796 1.938,-1.232 3.124,-0.969 l 0.473,0.105 c 1.233,0.268 2.117,1.2 2.469,2.328 13.909,-9.691 21.387,-9.427 22.982,-7.779 1.626,1.676 0.179,15.862 -1.095,17.046 -1.091,1.012 -17.011,-4.596 -21.802,-6.319 7.177,8.652 14.482,11.423 14.482,11.423 l -8.421,4.755 c 0,0 -6.33,-6.813 -7.978,-15.034 -0.644,0.283 -1.365,0.442 -2.108,0.278 l -0.474,-0.105 c -0.732,-0.162 -1.311,-0.585 -1.774,-1.105 -4.94,6.751 -13.529,10.289 -13.529,10.289 l -5.65,-7.846 c 0,0 7.773,0.548 17.91,-4.286 -5.288,-0.469 -21.713,-2.022 -22.255,-3.382 -0.679,-1.616 3.967,-15.105 6.146,-15.941 z"
   id="path721"
   inkscape:connector-curvature="0"
   style="fill:#243f07" />
	</g>
	<g
   clip-path="url(#SVGID_2_)"
   id="g728">
		<path
   id="bell_24_"
   d="m 609.015,653.536 c 0.416,4.927 11.026,9.083 26.03,12.323 0.801,1.006 2.123,1.311 3.474,1.553 1.33,0.332 2.646,0.604 3.787,0.041 14.993,3.344 26.364,4.029 28.808,-0.278 0.594,-1.049 3.539,-10.311 0.179,-14.672 -0.891,-1.16 -6.768,-12.822 -5.313,-26.222 0.764,-7.034 2.371,-11.862 -5.141,-15.918 -0.831,-0.453 -2.333,-1.047 -3.954,-1.61 0.833,-3.847 0.046,-7.247 -1.823,-7.712 l -3.342,-0.801 c -1.907,-0.461 -4.234,2.309 -5.273,6.215 -1.721,-0.173 -3.344,-0.262 -4.285,-0.2 -8.521,0.542 -9.095,5.589 -11.344,12.302 -4.297,12.781 -14.52,20.908 -15.813,21.577 -4.884,2.562 -6.095,12.202 -5.99,13.402 z m 47.194,-45.015 c -1.604,-0.536 -3.239,-1.033 -4.434,-1.311 -0.017,-0.011 -0.017,-0.011 -0.032,-0.017 -0.011,0.006 -0.024,0 -0.035,-0.005 -1.243,-0.243 -3.002,-0.491 -4.726,-0.68 1.122,-1.864 2.533,-2.948 3.781,-2.648 l 3.339,0.812 c 1.185,0.294 1.929,1.799 2.107,3.849 z m -11.97,56.599 c 0.381,-0.906 0.701,-2.053 0.928,-3.585 0.211,-1.381 -1.021,-2.316 -1.602,-3.212 -0.046,-1.753 0.623,-4.184 1.3,-6.169 5.635,1.503 10.67,3.124 14.589,4.848 0.925,-2.725 1.647,-6.4 0.205,-9.017 -0.553,-0.979 -3.892,-11.112 -1.316,-21.799 0.151,-0.625 0.3,-1.227 0.458,-1.81 1.133,-4.361 2.026,-7.811 -1.747,-11.354 l -0.86,-0.807 1.038,0.542 c 0.3,0.159 0.51,0.275 0.669,0.369 4.914,3.062 4.351,6.226 3.506,11.008 -0.115,0.604 -0.221,1.216 -0.326,1.857 -1.814,11.317 2.501,21.257 3.186,22.271 1.972,2.951 0.308,8.822 -0.51,10.896 0.521,0.326 1.084,0.696 1.516,1.09 1.982,1.554 2.935,3.166 2.522,4.819 -0.816,3.287 -10.741,2.723 -23.556,0.053 z m -33.697,-14.012 c 1.315,-5.278 13.539,-3.936 28.521,-0.407 -0.205,2.117 -0.623,4.709 -1.413,6.319 -0.909,0.569 -2.336,0.928 -2.711,2.271 -0.396,1.4 -0.585,2.544 -0.634,3.488 -14.116,-3.693 -24.637,-8.116 -23.763,-11.671 z"
   inkscape:connector-curvature="0"
   style="fill:#edad2e" />
		<path
   d="m 633.182,580.646 c 2.128,-0.825 8.973,2.045 17.499,16.542 0.806,-0.79 1.937,-1.232 3.123,-0.969 l 0.472,0.105 c 1.232,0.268 2.117,1.2 2.471,2.328 13.909,-9.691 21.386,-9.427 22.982,-7.779 1.626,1.676 0.178,15.862 -1.096,17.046 -1.089,1.012 -17.01,-4.596 -21.803,-6.319 7.18,8.652 14.483,11.423 14.483,11.423 l -8.426,4.755 c 0,0 -6.33,-6.813 -7.973,-15.034 -0.645,0.283 -1.365,0.442 -2.112,0.278 l -0.469,-0.105 c -0.731,-0.156 -1.312,-0.585 -1.775,-1.105 -4.94,6.751 -13.528,10.289 -13.528,10.289 l -5.65,-7.846 c 0,0 7.772,0.548 17.906,-4.286 -5.284,-0.469 -21.71,-2.022 -22.257,-3.382 -0.675,-1.616 3.965,-15.105 6.153,-15.941 z"
   id="path726"
   inkscape:connector-curvature="0"
   style="fill:#243f07" />
	</g>
	<g
   clip-path="url(#SVGID_2_)"
   id="g740">
		<path
   d="m 355.248,269.5 c 0,3.218 -2.612,5.83 -5.83,5.83 -3.216,0 -5.83,-2.612 -5.83,-5.83 0,-3.223 2.614,-5.83 5.83,-5.83 3.218,0 5.83,2.607 5.83,5.83 z"
   id="path730"
   inkscape:connector-curvature="0"
   style="fill:#edad2e" />
		<path
   d="m 415.167,269.5 c 0,3.218 -2.612,5.83 -5.829,5.83 -3.219,0 -5.83,-2.612 -5.83,-5.83 0,-3.223 2.611,-5.83 5.83,-5.83 3.217,0 5.829,2.607 5.829,5.83 z"
   id="path732"
   inkscape:connector-curvature="0"
   style="fill:#edad2e" />
		<path
   d="m 475.085,269.5 c 0,3.218 -2.612,5.83 -5.829,5.83 -3.224,0 -5.83,-2.612 -5.83,-5.83 0,-3.223 2.606,-5.83 5.83,-5.83 3.217,0 5.829,2.607 5.829,5.83 z"
   id="path734"
   inkscape:connector-curvature="0"
   style="fill:#edad2e" />
		<path
   d="m 534.998,269.5 c 0,3.218 -2.612,5.83 -5.83,5.83 -3.217,0 -5.83,-2.612 -5.83,-5.83 0,-3.223 2.613,-5.83 5.83,-5.83 3.218,0 5.83,2.607 5.83,5.83 z"
   id="path736"
   inkscape:connector-curvature="0"
   style="fill:#edad2e" />
		<path
   d="m 594.917,269.5 c 0,3.218 -2.613,5.83 -5.831,5.83 -3.218,0 -5.828,-2.612 -5.828,-5.83 0,-3.223 2.61,-5.83 5.828,-5.83 3.218,0 5.831,2.607 5.831,5.83 z"
   id="path738"
   inkscape:connector-curvature="0"
   style="fill:#edad2e" />
	</g>
	<g
   clip-path="url(#SVGID_2_)"
   id="g756">
		<path
   d="m 295.335,329.418 c 0,3.218 -2.612,5.83 -5.83,5.83 -3.223,0 -5.83,-2.612 -5.83,-5.83 0,-3.222 2.606,-5.83 5.83,-5.83 3.218,0 5.83,2.608 5.83,5.83 z"
   id="path742"
   inkscape:connector-curvature="0"
   style="fill:#edad2e" />
		<path
   d="m 355.248,329.418 c 0,3.218 -2.612,5.83 -5.83,5.83 -3.216,0 -5.83,-2.612 -5.83,-5.83 0,-3.222 2.614,-5.83 5.83,-5.83 3.218,0 5.83,2.608 5.83,5.83 z"
   id="path744"
   inkscape:connector-curvature="0"
   style="fill:#edad2e" />
		<path
   d="m 415.167,329.418 c 0,3.218 -2.612,5.83 -5.829,5.83 -3.219,0 -5.83,-2.612 -5.83,-5.83 0,-3.222 2.611,-5.83 5.83,-5.83 3.217,0 5.829,2.608 5.829,5.83 z"
   id="path746"
   inkscape:connector-curvature="0"
   style="fill:#edad2e" />
		<path
   d="m 475.085,329.418 c 0,3.218 -2.612,5.83 -5.829,5.83 -3.224,0 -5.83,-2.612 -5.83,-5.83 0,-3.222 2.606,-5.83 5.83,-5.83 3.217,0 5.829,2.608 5.829,5.83 z"
   id="path748"
   inkscape:connector-curvature="0"
   style="fill:#edad2e" />
		<path
   d="m 534.998,329.418 c 0,3.218 -2.612,5.83 -5.83,5.83 -3.217,0 -5.83,-2.612 -5.83,-5.83 0,-3.222 2.613,-5.83 5.83,-5.83 3.218,0 5.83,2.608 5.83,5.83 z"
   id="path750"
   inkscape:connector-curvature="0"
   style="fill:#edad2e" />
		<circle
   cx="589.08698"
   cy="329.418"
   r="5.8299999"
   id="circle752"
   style="fill:#edad2e" />
		<path
   d="m 654.834,329.418 c 0,3.218 -2.611,5.83 -5.828,5.83 -3.224,0 -5.829,-2.612 -5.829,-5.83 0,-3.222 2.605,-5.83 5.829,-5.83 3.217,0 5.828,2.608 5.828,5.83 z"
   id="path754"
   inkscape:connector-curvature="0"
   style="fill:#edad2e" />
	</g>
	<g
   clip-path="url(#SVGID_2_)"
   id="g761">
		<path
   id="bell_23_"
   d="m 448.232,490.132 c 2.834,4.061 14.098,2.348 28.711,-2.344 1.196,0.469 2.491,0.074 3.787,-0.396 1.311,-0.373 2.591,-0.796 3.303,-1.853 14.649,-4.603 24.84,-9.696 24.803,-14.646 -0.011,-1.206 -2.091,-10.701 -7.183,-12.798 -1.343,-0.558 -12.271,-7.72 -17.705,-20.048 -2.859,-6.478 -3.887,-11.464 -12.412,-11.223 -0.948,0.027 -2.549,0.264 -4.235,0.585 -1.205,-3.743 -3.58,-6.298 -5.435,-5.761 l -3.29,0.974 c -1.881,0.553 -2.518,4.113 -1.459,8.021 -1.579,0.71 -3.027,1.442 -3.818,1.969 -7.104,4.729 -5.077,9.385 -3.67,16.325 2.67,13.212 -2.118,25.361 -2.908,26.594 -2.943,4.663 0.822,13.611 1.511,14.601 z m 18.37,-62.583 c -1.659,0.337 -3.317,0.726 -4.492,1.079 -0.027,0 -0.027,0 -0.036,0.005 -0.006,0.006 -0.021,0.011 -0.038,0.017 -1.195,0.404 -2.843,1.073 -4.434,1.77 0.047,-2.176 0.727,-3.818 1.953,-4.183 l 3.298,-0.968 c 1.172,-0.337 2.574,0.594 3.749,2.28 z m 17.93,55.005 c -0.12,-0.975 -0.416,-2.128 -0.984,-3.57 -0.51,-1.302 -2.049,-1.496 -2.997,-1.979 -0.916,-1.497 -1.548,-3.939 -1.952,-5.993 5.623,-1.518 10.8,-2.634 15.055,-3.097 -0.558,-2.824 -1.774,-6.368 -4.329,-7.91 -0.968,-0.579 -8.931,-7.678 -12.038,-18.221 -0.185,-0.622 -0.357,-1.211 -0.511,-1.797 -1.201,-4.344 -2.148,-7.777 -7.193,-8.962 l -1.143,-0.264 1.164,-0.054 c 0.342,-0.015 0.578,-0.015 0.769,-0.015 5.782,0.194 6.878,3.218 8.536,7.777 0.205,0.585 0.421,1.165 0.647,1.774 4.086,10.706 12.797,17.158 13.893,17.694 3.186,1.57 4.681,7.489 5.008,9.691 0.616,0.02 1.285,0.063 1.859,0.188 2.491,0.354 4.124,1.269 4.592,2.907 0.937,3.257 -7.942,7.733 -20.376,11.831 z m -36.183,4.712 c -1.501,-5.229 9.753,-10.179 24.498,-14.612 0.879,1.938 1.816,4.387 1.933,6.178 -0.505,0.947 -1.56,1.969 -1.211,3.322 0.358,1.411 0.763,2.496 1.196,3.333 -14.073,3.866 -25.394,5.292 -26.416,1.779 z"
   inkscape:connector-curvature="0"
   style="fill:#edad2e" />
		<path
   d="m 432.719,414.925 c 1.432,-1.78 8.799,-2.717 23.429,5.572 0.301,-1.085 1.059,-2.033 2.217,-2.396 l 0.47,-0.146 c 1.194,-0.385 2.427,-0.021 3.296,0.778 7.205,-15.346 13.809,-18.857 16.016,-18.227 2.242,0.639 8.088,13.65 7.577,15.314 -0.442,1.418 -17.031,4.52 -22.044,5.424 10.542,3.903 18.252,2.65 18.252,2.65 l -4.913,8.335 c 0,0 -8.89,-2.738 -14.424,-9.036 -0.416,0.568 -0.958,1.063 -1.69,1.296 l -0.458,0.146 c -0.716,0.227 -1.427,0.147 -2.09,-0.074 -0.901,8.315 -6.573,15.679 -6.573,15.679 l -8.815,-3.972 c 0,0 7.004,-3.412 13.365,-12.664 -4.813,2.231 -19.812,9.099 -20.965,8.199 -1.397,-1.064 -4.119,-15.062 -2.65,-16.878 z"
   id="path759"
   inkscape:connector-curvature="0"
   style="fill:#243f07" />
	</g>
	<g
   clip-path="url(#SVGID_2_)"
   id="g777">
		<path
   d="m 295.335,389.332 c 0,3.218 -2.612,5.83 -5.83,5.83 -3.223,0 -5.83,-2.612 -5.83,-5.83 0,-3.223 2.606,-5.83 5.83,-5.83 3.218,0 5.83,2.607 5.83,5.83 z"
   id="path763"
   inkscape:connector-curvature="0"
   style="fill:#edad2e" />
		<path
   d="m 355.248,389.332 c 0,3.218 -2.612,5.83 -5.83,5.83 -3.216,0 -5.83,-2.612 -5.83,-5.83 0,-3.223 2.614,-5.83 5.83,-5.83 3.218,0 5.83,2.607 5.83,5.83 z"
   id="path765"
   inkscape:connector-curvature="0"
   style="fill:#edad2e" />
		<path
   d="m 415.167,389.332 c 0,3.218 -2.612,5.83 -5.829,5.83 -3.219,0 -5.83,-2.612 -5.83,-5.83 0,-3.223 2.611,-5.83 5.83,-5.83 3.217,0 5.829,2.607 5.829,5.83 z"
   id="path767"
   inkscape:connector-curvature="0"
   style="fill:#edad2e" />
		<path
   d="m 475.085,389.332 c 0,3.218 -2.612,5.83 -5.829,5.83 -3.224,0 -5.83,-2.612 -5.83,-5.83 0,-3.223 2.606,-5.83 5.83,-5.83 3.217,0 5.829,2.607 5.829,5.83 z"
   id="path769"
   inkscape:connector-curvature="0"
   style="fill:#edad2e" />
		<path
   d="m 534.998,389.332 c 0,3.218 -2.612,5.83 -5.83,5.83 -3.217,0 -5.83,-2.612 -5.83,-5.83 0,-3.223 2.613,-5.83 5.83,-5.83 3.218,0 5.83,2.607 5.83,5.83 z"
   id="path771"
   inkscape:connector-curvature="0"
   style="fill:#edad2e" />
		<path
   d="m 594.917,389.332 c 0,3.218 -2.613,5.83 -5.831,5.83 -3.218,0 -5.828,-2.612 -5.828,-5.83 0,-3.223 2.61,-5.83 5.828,-5.83 3.218,0 5.831,2.607 5.831,5.83 z"
   id="path773"
   inkscape:connector-curvature="0"
   style="fill:#edad2e" />
		<path
   d="m 654.834,389.332 c 0,3.218 -2.611,5.83 -5.828,5.83 -3.224,0 -5.829,-2.612 -5.829,-5.83 0,-3.223 2.605,-5.83 5.829,-5.83 3.217,0 5.828,2.607 5.828,5.83 z"
   id="path775"
   inkscape:connector-curvature="0"
   style="fill:#edad2e" />
	</g>
	<g
   clip-path="url(#SVGID_2_)"
   id="g791">
		<path
   d="m 295.335,449.25 c 0,3.218 -2.612,5.83 -5.83,5.83 -3.223,0 -5.83,-2.612 -5.83,-5.83 0,-3.223 2.606,-5.83 5.83,-5.83 3.218,0 5.83,2.607 5.83,5.83 z"
   id="path779"
   inkscape:connector-curvature="0"
   style="fill:#edad2e" />
		<path
   d="m 355.248,449.25 c 0,3.218 -2.612,5.83 -5.83,5.83 -3.216,0 -5.83,-2.612 -5.83,-5.83 0,-3.223 2.614,-5.83 5.83,-5.83 3.218,0 5.83,2.607 5.83,5.83 z"
   id="path781"
   inkscape:connector-curvature="0"
   style="fill:#edad2e" />
		<path
   d="m 415.167,449.25 c 0,3.218 -2.612,5.83 -5.829,5.83 -3.219,0 -5.83,-2.612 -5.83,-5.83 0,-3.223 2.611,-5.83 5.83,-5.83 3.217,0 5.829,2.607 5.829,5.83 z"
   id="path783"
   inkscape:connector-curvature="0"
   style="fill:#edad2e" />
		<path
   d="m 534.998,449.25 c 0,3.218 -2.612,5.83 -5.83,5.83 -3.217,0 -5.83,-2.612 -5.83,-5.83 0,-3.223 2.613,-5.83 5.83,-5.83 3.218,0 5.83,2.607 5.83,5.83 z"
   id="path785"
   inkscape:connector-curvature="0"
   style="fill:#edad2e" />
		<path
   d="m 594.917,449.25 c 0,3.218 -2.613,5.83 -5.831,5.83 -3.218,0 -5.828,-2.612 -5.828,-5.83 0,-3.223 2.61,-5.83 5.828,-5.83 3.218,0 5.831,2.607 5.831,5.83 z"
   id="path787"
   inkscape:connector-curvature="0"
   style="fill:#edad2e" />
		<path
   d="m 654.834,449.25 c 0,3.218 -2.611,5.83 -5.828,5.83 -3.224,0 -5.829,-2.612 -5.829,-5.83 0,-3.223 2.605,-5.83 5.829,-5.83 3.217,0 5.828,2.607 5.828,5.83 z"
   id="path789"
   inkscape:connector-curvature="0"
   style="fill:#edad2e" />
	</g>
	<g
   clip-path="url(#SVGID_2_)"
   id="g807">
		<path
   d="m 295.335,509.168 c 0,3.218 -2.612,5.83 -5.83,5.83 -3.223,0 -5.83,-2.612 -5.83,-5.83 0,-3.222 2.606,-5.83 5.83,-5.83 3.218,0 5.83,2.608 5.83,5.83 z"
   id="path793"
   inkscape:connector-curvature="0"
   style="fill:#edad2e" />
		<path
   d="m 355.248,509.168 c 0,3.218 -2.612,5.83 -5.83,5.83 -3.216,0 -5.83,-2.612 -5.83,-5.83 0,-3.222 2.614,-5.83 5.83,-5.83 3.218,0 5.83,2.608 5.83,5.83 z"
   id="path795"
   inkscape:connector-curvature="0"
   style="fill:#edad2e" />
		<path
   d="m 415.167,509.168 c 0,3.218 -2.612,5.83 -5.829,5.83 -3.219,0 -5.83,-2.612 -5.83,-5.83 0,-3.222 2.611,-5.83 5.83,-5.83 3.217,0 5.829,2.608 5.829,5.83 z"
   id="path797"
   inkscape:connector-curvature="0"
   style="fill:#edad2e" />
		<path
   d="m 475.085,509.168 c 0,3.218 -2.612,5.83 -5.829,5.83 -3.224,0 -5.83,-2.612 -5.83,-5.83 0,-3.222 2.606,-5.83 5.83,-5.83 3.217,0 5.829,2.608 5.829,5.83 z"
   id="path799"
   inkscape:connector-curvature="0"
   style="fill:#edad2e" />
		<path
   d="m 534.998,509.168 c 0,3.218 -2.612,5.83 -5.83,5.83 -3.217,0 -5.83,-2.612 -5.83,-5.83 0,-3.222 2.613,-5.83 5.83,-5.83 3.218,0 5.83,2.608 5.83,5.83 z"
   id="path801"
   inkscape:connector-curvature="0"
   style="fill:#edad2e" />
		<circle
   cx="589.08698"
   cy="509.168"
   r="5.8299999"
   id="circle803"
   style="fill:#edad2e" />
		<path
   d="m 654.834,509.168 c 0,3.218 -2.611,5.83 -5.828,5.83 -3.224,0 -5.829,-2.612 -5.829,-5.83 0,-3.222 2.605,-5.83 5.829,-5.83 3.217,0 5.828,2.608 5.828,5.83 z"
   id="path805"
   inkscape:connector-curvature="0"
   style="fill:#edad2e" />
	</g>
	<g
   clip-path="url(#SVGID_2_)"
   id="g823">
		<path
   d="m 295.335,569.08 c 0,3.218 -2.612,5.832 -5.83,5.832 -3.223,0 -5.83,-2.614 -5.83,-5.832 0,-3.223 2.606,-5.828 5.83,-5.828 3.218,0 5.83,2.605 5.83,5.828 z"
   id="path809"
   inkscape:connector-curvature="0"
   style="fill:#edad2e" />
		<path
   d="m 355.248,569.08 c 0,3.218 -2.612,5.832 -5.83,5.832 -3.216,0 -5.83,-2.614 -5.83,-5.832 0,-3.223 2.614,-5.828 5.83,-5.828 3.218,0 5.83,2.605 5.83,5.828 z"
   id="path811"
   inkscape:connector-curvature="0"
   style="fill:#edad2e" />
		<path
   d="m 415.167,569.08 c 0,3.218 -2.612,5.832 -5.829,5.832 -3.219,0 -5.83,-2.614 -5.83,-5.832 0,-3.223 2.611,-5.828 5.83,-5.828 3.217,0 5.829,2.605 5.829,5.828 z"
   id="path813"
   inkscape:connector-curvature="0"
   style="fill:#edad2e" />
		<path
   d="m 475.085,569.08 c 0,3.218 -2.612,5.832 -5.829,5.832 -3.224,0 -5.83,-2.614 -5.83,-5.832 0,-3.223 2.606,-5.828 5.83,-5.828 3.217,0 5.829,2.605 5.829,5.828 z"
   id="path815"
   inkscape:connector-curvature="0"
   style="fill:#edad2e" />
		<path
   d="m 534.998,569.08 c 0,3.218 -2.612,5.832 -5.83,5.832 -3.217,0 -5.83,-2.614 -5.83,-5.832 0,-3.223 2.613,-5.828 5.83,-5.828 3.218,0 5.83,2.605 5.83,5.828 z"
   id="path817"
   inkscape:connector-curvature="0"
   style="fill:#edad2e" />
		<path
   d="m 594.917,569.08 c 0,3.218 -2.613,5.832 -5.831,5.832 -3.218,0 -5.828,-2.614 -5.828,-5.832 0,-3.223 2.61,-5.828 5.828,-5.828 3.218,0 5.831,2.605 5.831,5.828 z"
   id="path819"
   inkscape:connector-curvature="0"
   style="fill:#edad2e" />
		<path
   d="m 654.834,569.08 c 0,3.218 -2.611,5.832 -5.828,5.832 -3.224,0 -5.829,-2.614 -5.829,-5.832 0,-3.223 2.605,-5.828 5.829,-5.828 3.217,0 5.828,2.605 5.828,5.828 z"
   id="path821"
   inkscape:connector-curvature="0"
   style="fill:#edad2e" />
	</g>
	<g
   clip-path="url(#SVGID_2_)"
   id="g835">
		<path
   d="m 355.248,629 c 0,3.218 -2.612,5.831 -5.83,5.831 -3.216,0 -5.83,-2.613 -5.83,-5.831 0,-3.223 2.614,-5.828 5.83,-5.828 3.218,0 5.83,2.605 5.83,5.828 z"
   id="path825"
   inkscape:connector-curvature="0"
   style="fill:#edad2e" />
		<path
   d="m 415.167,629 c 0,3.218 -2.612,5.831 -5.829,5.831 -3.219,0 -5.83,-2.613 -5.83,-5.831 0,-3.223 2.611,-5.828 5.83,-5.828 3.217,0 5.829,2.605 5.829,5.828 z"
   id="path827"
   inkscape:connector-curvature="0"
   style="fill:#edad2e" />
		<path
   d="m 475.085,629 c 0,3.218 -2.612,5.831 -5.829,5.831 -3.224,0 -5.83,-2.613 -5.83,-5.831 0,-3.223 2.606,-5.828 5.83,-5.828 3.217,0 5.829,2.605 5.829,5.828 z"
   id="path829"
   inkscape:connector-curvature="0"
   style="fill:#edad2e" />
		<path
   d="m 534.998,629 c 0,3.218 -2.612,5.831 -5.83,5.831 -3.217,0 -5.83,-2.613 -5.83,-5.831 0,-3.223 2.613,-5.828 5.83,-5.828 3.218,0 5.83,2.605 5.83,5.828 z"
   id="path831"
   inkscape:connector-curvature="0"
   style="fill:#edad2e" />
		<circle
   cx="589.08698"
   cy="629"
   r="5.8299999"
   id="circle833"
   style="fill:#edad2e" />
	</g>
</g>
</svg>