<?xml version="1.0" encoding="UTF-8" standalone="no"?>
<!-- Generator: Adobe Illustrator 16.0.0, SVG Export Plug-In . SVG Version: 6.00 Build 0)  -->

<svg
   xmlns:dc="http://purl.org/dc/elements/1.1/"
   xmlns:cc="http://creativecommons.org/ns#"
   xmlns:rdf="http://www.w3.org/1999/02/22-rdf-syntax-ns#"
   xmlns:svg="http://www.w3.org/2000/svg"
   xmlns="http://www.w3.org/2000/svg"
   xmlns:sodipodi="http://sodipodi.sourceforge.net/DTD/sodipodi-0.dtd"
   xmlns:inkscape="http://www.inkscape.org/namespaces/inkscape"
   version="1.1"
   id="Layer_40"
   x="0px"
   y="0px"
   width="464.46371"
   height="469.8895"
   viewBox="0 0 464.4637 469.8895"
   enable-background="new 0 0 595.77 529.763"
   xml:space="preserve"
   sodipodi:docname="burger-up.svg"
   inkscape:version="0.92.4 (5da689c313, 2019-01-14)"><metadata
   id="metadata94"><rdf:RDF><cc:Work
       rdf:about=""><dc:format>image/svg+xml</dc:format><dc:type
         rdf:resource="http://purl.org/dc/dcmitype/StillImage" /><dc:title></dc:title></cc:Work></rdf:RDF></metadata><defs
   id="defs92" /><sodipodi:namedview
   pagecolor="#ffffff"
   bordercolor="#666666"
   borderopacity="1"
   objecttolerance="10"
   gridtolerance="10"
   guidetolerance="10"
   inkscape:pageopacity="0"
   inkscape:pageshadow="2"
   inkscape:window-width="640"
   inkscape:window-height="480"
   id="namedview90"
   showgrid="false"
   fit-margin-top="0"
   fit-margin-left="0"
   fit-margin-right="0"
   fit-margin-bottom="0"
   inkscape:zoom="0.44548222"
   inkscape:cx="234.75771"
   inkscape:cy="234.94081"
   inkscape:window-x="0"
   inkscape:window-y="0"
   inkscape:window-maximized="0"
   inkscape:current-layer="Layer_40" />
<g
   id="Layer_38"
   transform="translate(-63.127302,-29.932809)">
	<path
   d="m 446.467,410.126 c 0,24.973 -20.244,45.215 -45.217,45.215 H 189.467 c -24.972,0 -45.216,-20.243 -45.216,-45.215 V 177.73 c 0,-24.972 20.244,-45.216 45.216,-45.216 H 401.25 c 24.973,0 45.217,20.244 45.217,45.216 z"
   id="path2"
   inkscape:connector-curvature="0"
   style="fill:#bb793f" />
	<path
   d="m 436.903,396.357 c 0,23.733 -19.24,42.973 -42.974,42.973 H 192.65 c -23.733,0 -42.973,-19.24 -42.973,-42.973 V 175.488 c 0,-23.733 19.24,-42.973 42.973,-42.973 h 201.28 c 23.733,0 42.974,19.24 42.974,42.973 v 220.869 z"
   id="path4"
   inkscape:connector-curvature="0"
   style="fill:#dc4939" />
</g>
<g
   id="Layer_36"
   transform="translate(-63.127302,-29.932809)">
	
		<rect
   x="131.146"
   y="103.38"
   transform="matrix(0.7071,0.7071,-0.7071,0.7071,275.7261,-130.4746)"
   width="328.42801"
   height="328.42899"
   id="rect7"
   style="fill:#ddd812" />
	
		<rect
   x="131.146"
   y="97.954002"
   transform="matrix(0.7071,0.7071,-0.7071,0.7071,271.8895,-132.0638)"
   width="328.42801"
   height="328.42899"
   id="rect9"
   style="fill:#fefe20" />
	<rect
   x="129.76401"
   y="99.133003"
   width="331.19101"
   height="325.53601"
   id="rect11"
   style="fill:#ffdf78" />
	<rect
   x="129.76401"
   y="424.66901"
   width="331.19101"
   height="6.2930002"
   id="rect13"
   style="fill:#fe8e69" />
</g>
<g
   id="Layer_37"
   transform="translate(-63.127302,-29.932809)">
	<g
   id="g18">
		<rect
   x="188.58099"
   y="151.58"
   width="24.415001"
   height="24.415001"
   id="rect16"
   style="fill:#e5c480" />
	</g>
	<g
   id="g22">
		<rect
   x="188.58099"
   y="144.345"
   width="24.415001"
   height="24.415001"
   id="rect20"
   style="fill:#fff8dc" />
	</g>
	<g
   id="g26">
		<rect
   x="282.89099"
   y="151.58"
   width="24.415001"
   height="24.415001"
   id="rect24"
   style="fill:#e5c480" />
	</g>
	<g
   id="g30">
		<rect
   x="282.89099"
   y="144.345"
   width="24.415001"
   height="24.415001"
   id="rect28"
   style="fill:#fff8dc" />
	</g>
	<g
   id="g34">
		<rect
   x="377.828"
   y="151.58"
   width="24.415001"
   height="24.415001"
   id="rect32"
   style="fill:#e5c480" />
	</g>
	<g
   id="g38">
		<rect
   x="377.828"
   y="144.345"
   width="24.415001"
   height="24.415001"
   id="rect36"
   style="fill:#fff8dc" />
	</g>
	<g
   id="g42">
		<rect
   x="188.52901"
   y="247.88499"
   width="24.415001"
   height="24.415001"
   id="rect40"
   style="fill:#e5c480" />
	</g>
	<g
   id="g46">
		<rect
   x="188.52901"
   y="240.64999"
   width="24.415001"
   height="24.415001"
   id="rect44"
   style="fill:#fff8dc" />
	</g>
	<g
   id="g50">
		<rect
   x="282.83899"
   y="247.88499"
   width="24.415001"
   height="24.415001"
   id="rect48"
   style="fill:#e5c480" />
	</g>
	<g
   id="g54">
		<rect
   x="282.83899"
   y="240.64999"
   width="24.415001"
   height="24.415001"
   id="rect52"
   style="fill:#fff8dc" />
	</g>
	<g
   id="g58">
		<rect
   x="377.776"
   y="247.88499"
   width="24.415001"
   height="24.415001"
   id="rect56"
   style="fill:#e5c480" />
	</g>
	<g
   id="g62">
		<rect
   x="377.776"
   y="240.64999"
   width="24.415001"
   height="24.415001"
   id="rect60"
   style="fill:#fff8dc" />
	</g>
	<g
   id="g66">
		<rect
   x="188.216"
   y="342.38199"
   width="24.415001"
   height="24.415001"
   id="rect64"
   style="fill:#e5c480" />
	</g>
	<g
   id="g70">
		<rect
   x="188.216"
   y="335.147"
   width="24.415001"
   height="24.415001"
   id="rect68"
   style="fill:#fff8dc" />
	</g>
	<g
   id="g74">
		<rect
   x="282.526"
   y="342.38199"
   width="24.415001"
   height="24.415001"
   id="rect72"
   style="fill:#e5c480" />
	</g>
	<g
   id="g78">
		<rect
   x="282.526"
   y="335.147"
   width="24.415001"
   height="24.415001"
   id="rect76"
   style="fill:#fff8dc" />
	</g>
	<g
   id="g82">
		<rect
   x="377.46301"
   y="342.38199"
   width="24.415001"
   height="24.415001"
   id="rect80"
   style="fill:#e5c480" />
	</g>
	<g
   id="g86">
		<rect
   x="377.46301"
   y="335.147"
   width="24.415001"
   height="24.415001"
   id="rect84"
   style="fill:#fff8dc" />
	</g>
</g>
</svg>