<svg xmlns="http://www.w3.org/2000/svg" width="1312.5" height="1312.5"><style><![CDATA[.B{fill:#c5f9f6}.C{stroke-linecap:round}.D{stroke-linejoin:round}]]></style><path d="M0 0h1312.5v1312.5H0z" fill="#74c8e3"/><path d="M460.6 730s-34.2-10-55-33.7c-16-18.2-27.3-55.5-27.3-55.4 0-.1-11.3 37.2-27.3 55.4-21 23.8-55 33.7-55 33.7a150 150 0 0 0 52.2 32.7c19 21 30.3 53.3 30.3 53.3s11-32.4 30-53.3c19-20.8 52.2-32.7 52.2-32.7zM1129 241s-48.8-14-78.6-48c-22.8-26-39-79.2-39-79 0-.1-16.2 53-39 79-29.8 34-78.6 48-78.6 48s47.6 17 74.5 46.7c27 29.8 43.2 76 43.3 76 0 0 16-46.3 43-76S1129 241 1129 241z" fill="#fff"/><circle cx="218.4" cy="210.9" r="169.3" transform="matrix(.71 -.71 .71 .71 -85.18 216.24)" class="B"/><g fill="#fff"><path d="M218.4 50.6A160.3 160.3 0 1 1 58.1 210.9 160.3 160.3 0 0 1 218.4 50.6m0-18a178.4 178.4 0 1 0 69.4 14 177.2 177.2 0 0 0-69.4-14z"/><circle cx="159" cy="156.6" r="62.1"/></g><path d="M216 322s108.6 5.2 119-113.8" fill="none" stroke="#fff" stroke-width="6" class="C D"/><circle cx="545.5" cy="1163.9" r="105" class="B"/><g fill="#fff"><path d="M545.5 1064.4a99.5 99.5 0 1 1-99.5 99.5 99.5 99.5 0 0 1 99.5-99.5m0-11a110.5 110.5 0 1 0 78.1 32.4 109.7 109.7 0 0 0-78.1-32.4z"/><circle cx="508.6" cy="1130.2" r="38.5"/></g><path d="M544 1233s67.4 3.2 73.8-70.6" fill="none" stroke="#fff" stroke-width="6" class="C D"/><circle cx="1136.7" cy="814.4" r="125.9" class="B"/><g fill="#fff"><path d="M1136.7 694a120.4 120.4 0 1 1-120.4 120.4A120.4 120.4 0 0 1 1136.7 694m0-11a131.4 131.4 0 1 0 92.9 38.5 130.6 130.6 0 0 0-92.9-38.5z"/><circle cx="1092" cy="773.7" r="46.6"/></g><path d="M1134.7 898s81.6 4 89.3-85.5" fill="none" stroke="#fff" stroke-width="5" class="C D"/><path d="M1191.3 1150.5s-27-7.8-43.6-26.7c-12.7-14.4-21.6-44-21.6-44 0-.1-9 29.4-21.6 44-16.5 19-43.6 26.7-43.6 26.7s26.4 9.4 41.3 26c15 16.5 24 42 24 42.2 0 0 8.8-25.7 23.8-42.2s41.3-26 41.3-26zm-1030-674s-22.8-6.6-36.7-22.4c-10.7-12-18.2-37-18.2-37 0-.1-7.5 24.8-18.2 37-14 16-36.7 22.4-36.7 22.4s22.2 8 34.8 21.8c12.6 14 20.2 35.5 20.2 35.5s7.4-21.6 20-35.5c12.6-14 34.8-21.8 34.8-21.8z" fill="#fff"/></svg>