<?xml version="1.0" encoding="utf-8"?>
<!-- Generator: Adobe Illustrator 16.0.0, SVG Export Plug-In . SVG Version: 6.00 Build 0)  -->
<!DOCTYPE svg PUBLIC "-//W3C//DTD SVG 1.1//EN" "http://www.w3.org/Graphics/SVG/1.1/DTD/svg11.dtd">
<svg version="1.1"
	 id="svg4537" xmlns:dc="http://purl.org/dc/elements/1.1/" xmlns:inkscape="http://www.inkscape.org/namespaces/inkscape" xmlns:svg="http://www.w3.org/2000/svg" xmlns:rdf="http://www.w3.org/1999/02/22-rdf-syntax-ns#" xmlns:cc="http://creativecommons.org/ns#" xmlns:sodipodi="http://sodipodi.sourceforge.net/DTD/sodipodi-0.dtd" sodipodi:docname="clownHead.svg" inkscape:version="0.92.4 (5da689c313, 2019-01-14)"
	 xmlns="http://www.w3.org/2000/svg" xmlns:xlink="http://www.w3.org/1999/xlink" x="0px" y="0px" width="451.898px"
	 height="482.917px" viewBox="0 0 451.898 482.917" enable-background="new 0 0 451.898 482.917" xml:space="preserve">
<g id="Layer_3" transform="translate(-625.06255,-608.10028)">
	<path id="path4522" inkscape:connector-curvature="0" fill="#CFCDCB" d="M747.307,793.795
		c-8.568,12.699-50.64,76.637-14.519,163.213c50.85,93.422,215.903,69.422,240.146-11.053
		c37.732-76.525-20.499-149.881-20.499-149.881c-36.434-18.857-71.099-27.109-102.794-26.754
		C791.587,769.977,747.307,793.795,747.307,793.795L747.307,793.795z"/>
	<g id="g4526">
		<path id="path4524" inkscape:connector-curvature="0" fill="#373D3A" d="M752.078,822.604c0,0,0.331,0.307,0.958,0.876
			c0.61,0.593,1.568,1.37,2.84,2.263c1.259,0.912,2.946,1.789,4.959,2.437c2.022,0.625,4.424,0.856,6.967,0.462
			c2.537-0.445,5.188-1.456,7.775-2.963c2.596-1.498,5.133-3.443,7.625-5.622c2.503-2.169,4.896-4.649,7.316-7.19
			c2.413-2.561,4.757-5.244,7.184-7.957c2.521-2.689,5.15-5.166,7.814-7.562c2.652-2.4,5.395-4.611,8.115-6.671
			c2.717-2.063,5.469-3.906,8.191-5.487c2.716-1.587,5.431-2.881,8.089-3.726c0.653-0.234,1.337-0.362,1.979-0.541
			c0.654-0.147,1.316-0.229,1.947-0.33c0.652-0.016,1.278-0.084,1.896-0.045c0.617,0.084,1.22,0.058,1.785,0.252
			c0.283,0.076,0.563,0.15,0.835,0.223c0.275,0.07,0.52,0.229,0.771,0.335c0.245,0.12,0.492,0.231,0.723,0.354
			c0.209,0.16,0.414,0.318,0.615,0.474c0.195,0.157,0.399,0.298,0.573,0.462c0.156,0.182,0.311,0.359,0.459,0.533
			c0.304,0.342,0.584,0.669,0.763,1.039c0.201,0.354,0.389,0.688,0.568,1c0.122,0.337,0.237,0.652,0.344,0.945
			c0.101,0.293,0.208,0.561,0.284,0.81c0.054,0.256,0.104,0.489,0.147,0.696c0.177,0.83,0.271,1.271,0.271,1.271
			s-0.148-0.426-0.423-1.224c-0.068-0.198-0.145-0.42-0.229-0.664c-0.104-0.232-0.241-0.48-0.375-0.752
			c-0.135-0.268-0.281-0.555-0.437-0.863c-0.198-0.279-0.409-0.573-0.633-0.887c-0.91-1.207-2.431-2.37-4.472-2.651
			c-2.029-0.321-4.413,0.196-6.838,1.151c-2.435,0.961-4.945,2.363-7.504,4.002c-2.557,1.652-5.138,3.587-7.751,5.66
			c-2.616,2.072-5.197,4.375-7.802,6.729c-2.585,2.366-5.172,4.863-7.557,7.443c-2.396,2.633-4.818,5.35-7.292,7.924
			c-2.474,2.582-5.048,5.015-7.697,7.205c-2.636,2.207-5.411,4.105-8.251,5.574c-2.821,1.494-5.793,2.416-8.605,2.711
			c-2.826,0.274-5.45-0.217-7.55-1.07c-2.101-0.859-3.744-1.969-4.938-3.027c-0.637-0.48-1.11-1.029-1.555-1.455
			c-0.45-0.426-0.771-0.834-1.048-1.154C752.37,822.948,752.078,822.604,752.078,822.604L752.078,822.604z"/>
	</g>
	<path id="path4528" inkscape:connector-curvature="0" fill="#A20A12" d="M796.043,834.383
		C795.208,832.209,795.428,832.137,796.043,834.383c-6.727-17.523-9.402-37.203-6.966-55.824c-2.075,2.176,3.226-1.547,6.42-1.896
		c1.596,5.674-2.223,14.098-2.676,19.979C791.89,809.229,792.697,822.164,796.043,834.383L796.043,834.383z"/>
	<g id="g4532">
		<path id="path4530" inkscape:connector-curvature="0" fill="#373D3A" d="M947.378,822.631c0,0-0.292,0.344-0.833,0.99
			c-0.277,0.319-0.597,0.729-1.047,1.154c-0.447,0.426-0.918,0.975-1.557,1.455c-1.192,1.059-2.836,2.167-4.938,3.028
			c-2.099,0.853-4.724,1.342-7.549,1.071c-2.813-0.295-5.785-1.217-8.606-2.711c-2.84-1.469-5.615-3.367-8.251-5.574
			c-2.649-2.192-5.221-4.623-7.697-7.205c-2.473-2.575-4.895-5.293-7.291-7.924c-2.385-2.582-4.973-5.078-7.558-7.443
			c-2.604-2.355-5.186-4.656-7.801-6.73c-2.614-2.072-5.195-4.008-7.751-5.658c-2.56-1.641-5.07-3.043-7.505-4.004
			c-2.425-0.955-4.809-1.471-6.838-1.15c-2.041,0.279-3.562,1.443-4.472,2.65c-0.223,0.314-0.434,0.609-0.633,0.888
			c-0.156,0.306-0.301,0.594-0.437,0.862c-0.134,0.272-0.27,0.52-0.375,0.752c-0.083,0.244-0.16,0.466-0.229,0.664
			c-0.276,0.797-0.423,1.225-0.423,1.225s0.093-0.443,0.271-1.271c0.043-0.207,0.092-0.44,0.147-0.697
			c0.077-0.248,0.182-0.516,0.285-0.809c0.107-0.293,0.221-0.609,0.343-0.945c0.178-0.313,0.368-0.646,0.568-1
			c0.179-0.371,0.46-0.696,0.763-1.039c0.148-0.174,0.303-0.35,0.459-0.532c0.174-0.164,0.378-0.306,0.574-0.464
			c0.2-0.155,0.405-0.313,0.614-0.473c0.232-0.123,0.478-0.234,0.725-0.354c0.25-0.106,0.496-0.265,0.769-0.334
			c0.272-0.075,0.552-0.149,0.835-0.224c0.565-0.194,1.169-0.168,1.785-0.252c0.618-0.039,1.244,0.029,1.896,0.045
			c0.631,0.102,1.292,0.183,1.946,0.33c0.642,0.178,1.328,0.308,1.979,0.541c2.658,0.844,5.373,2.139,8.089,3.726
			c2.721,1.581,5.473,3.425,8.19,5.487c2.721,2.062,5.465,4.273,8.116,6.67c2.664,2.397,5.293,4.875,7.815,7.563
			c2.426,2.715,4.771,5.395,7.184,7.957c2.419,2.542,4.811,5.021,7.315,7.191c2.493,2.179,5.029,4.123,7.625,5.621
			c2.587,1.508,5.239,2.519,7.776,2.963c2.543,0.394,4.944,0.164,6.967-0.463c2.012-0.647,3.7-1.525,4.959-2.437
			c1.27-0.892,2.229-1.67,2.839-2.261C947.047,822.938,947.378,822.631,947.378,822.631L947.378,822.631z"/>
	</g>
	<path id="path4534" inkscape:connector-curvature="0" fill="#A20A12" d="M903.412,834.41
		C904.026,832.166,904.246,832.238,903.412,834.41c3.546-12.955,4.931-27.832,2.86-41.134c-0.633-5.034-3.694-11.671-2.315-16.586
		c3.194,0.349,8.496,4.067,6.422,1.896C912.816,797.207,910.138,816.89,903.412,834.41L903.412,834.41z"/>
	<ellipse fill="#B83D00" cx="849.873" cy="1011.115" rx="57.044" ry="49.813"/>
</g>
</svg>
