<svg xmlns="http://www.w3.org/2000/svg" width="562.59" height="562.26"><style><![CDATA[.B{fill:#821d27}.C{fill:#a2262d}.D{opacity:.5}.E{fill:#5b111c}]]></style><g transform="translate(-568.71 -556.37)"><path d="M568.7 556.37h562.26v562.26H568.7z" fill="#1e0a09"/><path d="M846.54 746.68c-.24 3.2-4.12 3.38-7.55 4.38a24.6 24.6 0 0 1-6.83.85 23.9 23.9 0 0 1-7.23-.98c-3.3-1.07-7.66-3.97-5.47-6.18 10.07-10.16 2.66-6.44 6.6-8 1.8-.72 3.9-3.08 6.1-3.08 1.5 0 4.83.67 5.56 1.83 1.92 3.03 4.05.12 5 3.66.2.77 3.85 6.94 3.8 7.5z" class="B"/><ellipse cx="849.84" cy="656.79" rx="68.65" ry="86.31" class="C"/><path d="M790.87 1062.66c.1 2.7-3.04 3.16-5.7 4.3-1.54.65-3.4 1.07-5.44 1.3-2.17.23-4.2.18-5.93-.2-2.76-.62-6.53-2.66-4.96-4.7 7.25-9.32 1.6-5.6 4.63-7.22 1.4-.75 2.88-2.9 4.67-3.1 1.2-.13 3.96.15 4.65 1.06 1.8 2.37 3.28-.24 4.36 2.63.24.63 3.72 5.46 3.73 5.93z" class="B"/><linearGradient id="A" gradientUnits="userSpaceOnUse" x1="849.83" y1="743.1" x2="849.83" y2="570.48"><stop offset="0"/><stop offset="1" stop-color="#fff" stop-opacity="0"/></linearGradient><ellipse cx="849.84" cy="656.79" rx="68.65" ry="86.31" fill="url(#A)" class="D"/><ellipse transform="matrix(.9946 -.104 .104 .9946 -98.5032 85.5726)" cx="771.25" cy="987.27" rx="55.75" ry="72.35" class="C"/><linearGradient id="B" gradientUnits="userSpaceOnUse" x1="777.84" y1="1059.55" x2="762.79" y2="915.63"><stop offset="0"/><stop offset="1" stop-color="#fff" stop-opacity="0"/></linearGradient><path d="M826.7 981.47c-4.16-39.74-32.35-69.36-62.98-66.16s-52.08 38-47.92 77.75 32.35 69.36 62.98 66.16 52.08-38.02 47.92-77.76z" fill="url(#B)" class="D"/><path d="M896.63 965.9c.05 3.22-3.8 3.74-7.14 5.05a24.7 24.7 0 0 1-6.73 1.46 24 24 0 0 1-7.31-.33c-3.4-.77-8-3.28-6-5.67 9.14-11.04 2.08-6.67 5.86-8.57 1.75-.88 3.6-3.43 5.82-3.62 1.5-.13 4.88.24 5.72 1.33 2.18 2.85 4.05-.24 5.3 3.2.28.75 4.46 6.58 4.47 7.14z" class="B"/><ellipse cx="883.98" cy="852.06" rx="88.5" ry="111.27" class="C"/><linearGradient id="C" gradientUnits="userSpaceOnUse" x1="883.98" y1="963.33" x2="883.98" y2="740.8"><stop offset="0"/><stop offset="1" stop-color="#fff" stop-opacity="0"/></linearGradient><ellipse cx="883.98" cy="852.06" rx="88.5" ry="111.27" fill="url(#C)" class="D"/><path d="M1056.62 1053.54c.2 2.95-3.2 3.56-6.08 4.88-1.66.76-3.68 1.28-5.88 1.58-2.36.32-4.58.33-6.46-.04-3.03-.6-7.2-2.72-5.56-5 7.6-10.45 1.55-6.2 4.8-8.06 1.5-.87 3.04-3.27 4.98-3.53 1.3-.17 4.32.04 5.1 1.02 2.05 2.54 3.56-.37 4.83 2.75.28.68 4.22 5.87 4.26 6.4z" class="B"/><ellipse transform="matrix(.9911 -.133 .133 .9911 -121.5603 146.3417)" cx="1034.29" cy="982.8" rx="60.75" ry="67.95" class="C"/><linearGradient id="D" gradientUnits="userSpaceOnUse" x1="1044.48" y1="1051.51" x2="1026.4" y2="916.83"><stop offset="0"/><stop offset="1" stop-color="#fff" stop-opacity="0"/></linearGradient><path d="M1094.5 974.72c-5-37.2-36-63.73-69.25-59.26s-56.16 38.24-51.17 75.43 36 63.73 69.25 59.26 56.16-38.24 51.17-75.43z" fill="url(#D)" class="D"/><path d="M1061.32 859.1c-.3 4.13-5.3 4.35-9.73 5.65a31.7 31.7 0 0 1-8.8 1.1c-3.46 0-6.68-.4-9.32-1.26-4.26-1.4-9.87-5.12-7.06-7.96 12.98-13.1 3.43-8.3 8.5-10.3 2.34-.92 5.02-3.98 7.88-3.98 1.93 0 6.23.87 7.18 2.37 2.47 3.9 5.2.16 6.44 4.72.27 1 4.96 8.94 4.9 9.67z" class="B"/><ellipse cx="1042.8" cy="740.62" rx="88.5" ry="111.27" class="C"/><g class="B"><path d="M1050.45 865.87s13.06-11.45 6.8 15.15c-.34 1.43.85 4.3 2.44 4.5 3.6.5.1-26.4 1.52-26.5-.02 0-11.9.9-10.76 6.84z"/><path d="M1049.53 862.3c.1.44-.8 3.1-.9 3.77-.27 1.94-.73 4.48.06 6.34.7 1.66 1.5 1.67 2.1-.1 1-2.9-.7-7.2-1.28-10.02zm-46.4 40.3c.1.44-.8 3.1-.9 3.77-.27 1.94-.73 4.48.06 6.34.7 1.66 1.5 1.67 2.1-.1 1-2.9-.7-7.2-1.28-10.02z"/></g><linearGradient id="E" gradientUnits="userSpaceOnUse" x1="1042.8" y1="851.89" x2="1042.8" y2="629.36"><stop offset="0"/><stop offset="1" stop-color="#fff" stop-opacity="0"/></linearGradient><ellipse cx="1042.8" cy="740.62" rx="88.5" ry="111.27" fill="url(#E)" class="D"/><path d="M681.36 821.8c-1.88 4.22-7.23 2.56-12.36 2.25-2.96-.18-6.26-.96-9.66-2.18-3.64-1.3-6.87-2.95-9.32-4.86-3.95-3.07-8.43-9.12-4.4-11.04 18.6-8.85 6.76-7.43 12.84-7.6 2.8-.08 6.78-2.27 9.78-1.2 2.02.73 6.22 3.27 6.64 5.2 1.1 5.04 5.42 2.14 4.98 7.4-.1 1.15 1.83 11.27 1.5 12.02z" class="B"/><ellipse transform="rotate(2.14 671.98 682.41)" cx="672.36" cy="682.83" rx="98.84" ry="124.27" class="C"/><linearGradient id="F" gradientUnits="userSpaceOnUse" x1="667.02" y1="805.99" x2="676.32" y2="557.62"><stop offset="0"/><stop offset="1" stop-color="#fff" stop-opacity="0"/></linearGradient><path d="M771.14 686.52c2.57-68.6-39.58-125.84-94.13-127.88s-100.85 51.9-103.42 120.5 39.58 125.84 94.13 127.88 100.85-51.9 103.42-120.5z" fill="url(#F)" class="D"/><path d="M886.4 987.6c.24 1.2-2.12 8.3-2.38 10.13-.73 5.2-1.97 12.03.17 17.03 1.9 4.46 4.03 4.48 5.66-.24 2.7-7.75-1.9-19.3-3.45-26.92zm-39.2 47.9c.25 2.25-2.22 15.74-2.5 19.24-.76 9.9-2.05 22.84.18 32.32 2 8.46 4.2 8.5 5.9-.44 2.8-14.72-1.97-36.67-3.6-51.12z" class="B"/><path d="M662.32 831.6c.22 2.4-1.93 16.7-2.17 20.4-.66 10.5-1.8 24.24.15 34.3 1.74 8.98 3.67 9.02 5.15-.47 2.45-15.62-1.72-38.9-3.14-54.24z" fill="#96182a"/><path d="M1104.57 594.2c.26 1.25-2.24 8.74-2.5 10.68-.77 5.5-2.07 12.7.18 17.95 2 4.7 4.25 4.72 5.97-.24 2.84-8.18-2-20.37-3.63-28.4zm-16.02 445.35c.2 2.44-1.62 17.05-1.82 20.84-.56 10.72-1.5 24.74.13 35 1.46 9.16 3.08 9.2 4.32-.48 2.05-15.94-1.45-39.7-2.63-55.37zm-485.9-246.87c.05 2.5-1.9 17.4-2.18 21.28-.83 10.94-2.1 25.27-1.24 35.83.76 9.42 2 9.5 3.3-.37 2.17-16.26.42-40.7.12-56.74zm101.9 205.34c.14 2.37-1.24 16.55-1.4 20.22-.43 10.4-1.14 24 .1 33.96 1.1 8.9 2.34 8.94 3.3-.47 1.56-15.47-1.1-38.53-2-53.72zm386.57-275.96c.14 1.45-1.24 10.1-1.4 12.36-.43 6.35-1.14 14.67.1 20.76 1.1 5.43 2.34 5.46 3.3-.3 1.56-9.45-1.1-23.55-2-32.83z" class="B"/><path d="M780.5 722.06c.2 2.2-1.84 15.28-2.07 18.68-.63 9.6-1.7 22.18.15 31.38 1.66 8.2 3.5 8.26 4.9-.43 2.33-14.3-1.64-35.6-3-49.63z" class="E"/><path d="M605.4 1039.55c.22 2.43-1.93 17-2.17 20.76-.66 10.67-1.8 24.65.15 34.88 1.73 9.13 3.66 9.17 5.15-.48 2.44-15.9-1.72-39.57-3.13-55.17zm129.66-228.8c.25 1.1-2.16 7.63-2.43 9.32-.74 4.8-2 11.06.17 15.65 1.94 4.1 4.1 4.12 5.76-.2 2.74-7.13-1.92-17.76-3.5-24.76z" class="B"/><path d="M953.7 1039.55c.14 1.55-1.24 10.85-1.4 13.26-.43 6.82-1.14 15.75.1 22.28 1.1 5.83 2.34 5.86 3.3-.3 1.56-10.15-1.1-25.28-2-35.24z" fill="#661420"/><path d="M956.24 588.74c.27 2.2-2.35 15.5-2.64 18.93-.8 9.73-2.18 22.48.2 31.8 2.1 8.33 4.46 8.37 6.27-.44 2.98-14.5-2.1-36.1-3.82-50.3z" fill="#992334"/><path d="M583 872.28c.14 2.1-1.24 14.6-1.4 17.83-.43 9.16-1.14 21.16.1 29.95 1.1 7.84 2.34 7.88 3.3-.4 1.56-13.64-1.1-33.98-2-47.36z" class="E"/><path d="M653.55 1049.26c-.32 2.82-3.76 2.84-6.83 3.6-1.76.45-3.85.6-6.07.52-2.38-.1-4.57-.45-6.36-1.1-2.88-1.06-6.63-3.78-4.62-5.65 9.26-8.64 2.58-5.6 6.1-6.84 1.63-.57 3.55-2.6 5.5-2.5 1.32.05 4.25.76 4.86 1.8 1.6 2.75 3.57.25 4.3 3.4.16.7 3.16 6.27 3.1 6.76z" class="B"/><ellipse transform="matrix(.9992 .0392 -.0392 .9992 38.4117 -24.4967)" cx="644.03" cy="967.5" rx="60.75" ry="76.38" class="C"/><linearGradient id="G" gradientUnits="userSpaceOnUse" x1="641.76" y1="1042.68" x2="647.75" y2="890.04"><stop offset="0"/><stop offset="1" stop-color="#fff" stop-opacity="0"/></linearGradient><path d="M704.74 969.88c1.65-42.15-24.2-77.4-57.7-78.7s-62.04 31.8-63.7 73.94 24.2 77.4 57.7 78.7 62.04-31.8 63.7-73.94z" fill="url(#G)" class="D"/><path d="M809.5 996.18c.14 1.25-1.24 8.77-1.4 10.72-.42 5.5-1.14 12.73.1 18 1.1 4.7 2.34 4.74 3.3-.25 1.56-8.2-1.1-20.43-2-28.48zm69.02 33.92c.24.94-2.12 6.56-2.38 8-.73 4.12-1.97 9.5.17 13.46 1.9 3.52 4.03 3.54 5.66-.2 2.7-6.13-1.9-15.27-3.45-21.3z" class="B"/><path d="M783.97 1061.56c.14 2.1-1.24 14.6-1.4 17.83-.43 9.16-1.14 21.16.1 29.95 1.1 7.84 2.34 7.88 3.3-.4 1.57-13.64-1.1-33.98-2-47.36z" class="E"/><path d="M839.4 794.62c.2 1.67-1.84 11.7-2.06 14.3-.63 7.35-1.7 16.98.15 24.02 1.65 6.3 3.48 6.32 4.9-.33 2.33-10.94-1.64-27.25-2.98-38zm177.17 202.18c.2 1.2-1.72 8.44-1.93 10.3-.6 5.3-1.6 12.24.14 17.32 1.55 4.53 3.27 4.56 4.6-.24 2.18-7.9-1.53-19.65-2.8-27.4zm-15.07-340c.2 1.67-1.84 11.7-2.06 14.3-.63 7.35-1.7 16.98.14 24.02 1.65 6.3 3.48 6.32 4.9-.33 2.33-10.94-1.63-27.25-2.98-38zM735.13 954.1c.2 1.12-1.84 7.8-2.06 9.54-.63 4.9-1.7 11.33.14 16.04 1.65 4.2 3.48 4.22 4.9-.22 2.33-7.3-1.63-18.2-2.98-25.36zm76.45-324.12c.23 1.22-2.02 8.54-2.27 10.44-.7 5.37-1.87 12.4.16 17.55 1.82 4.6 3.84 4.62 5.4-.24 2.56-8-1.8-19.9-3.28-27.75zm-104.9 107.74c.2 1.67-1.84 11.7-2.06 14.3-.63 7.35-1.7 16.98.15 24.02 1.65 6.3 3.48 6.32 4.9-.33 2.33-10.94-1.63-27.25-2.98-38zm-81.27-99.24c.2 1.12-1.84 7.8-2.06 9.54-.63 4.9-1.7 11.33.15 16.04 1.65 4.2 3.48 4.22 4.9-.22 2.33-7.3-1.64-18.2-2.98-25.36zm-13.18 273.7c.2 1.07-1.84 7.47-2.06 9.13-.63 4.7-1.7 10.84.14 15.34 1.65 4.02 3.48 4.04 4.9-.2 2.33-7-1.64-17.4-2.98-24.26z" fill="#b73232"/></g></svg>