<?xml version="1.0" encoding="utf-8"?>
<!-- Generator: Adobe Illustrator 16.0.0, SVG Export Plug-In . SVG Version: 6.00 Build 0)  -->
<!DOCTYPE svg PUBLIC "-//W3C//DTD SVG 1.1//EN" "http://www.w3.org/Graphics/SVG/1.1/DTD/svg11.dtd">
<svg version="1.1"
	 id="svg4537" xmlns:dc="http://purl.org/dc/elements/1.1/" xmlns:inkscape="http://www.inkscape.org/namespaces/inkscape" xmlns:svg="http://www.w3.org/2000/svg" xmlns:rdf="http://www.w3.org/1999/02/22-rdf-syntax-ns#" xmlns:cc="http://creativecommons.org/ns#" xmlns:sodipodi="http://sodipodi.sourceforge.net/DTD/sodipodi-0.dtd" sodipodi:docname="clownHead.svg" inkscape:version="0.92.4 (5da689c313, 2019-01-14)"
	 xmlns="http://www.w3.org/2000/svg" xmlns:xlink="http://www.w3.org/1999/xlink" x="0px" y="0px" width="451.898px"
	 height="482.917px" viewBox="0 0 451.898 482.917" enable-background="new 0 0 451.898 482.917" xml:space="preserve">
<g id="Layer_3_1_">
	<ellipse id="ellipse4497" fill="#F3F7E4" cx="273.881" cy="160.688" rx="24.173" ry="19.573"/>
	<g id="g4505">
		<circle id="circle4499" fill="#FFB103" cx="280.187" cy="161.619" r="13.482"/>
		<g id="g4503">
			<path id="path4501" inkscape:connector-curvature="0" fill="#4A3100" d="M267.824,161.619c-0.078-1.436-2.316-1.445-2.238,0
				c0.41,7.601,6.351,15.045,14.603,14.601c7.601-0.41,15.043-6.349,14.601-14.601c-0.41-7.601-6.347-15.045-14.601-14.602
				c-8.271,0.445-14.158,6.33-14.603,14.602C265.508,163.063,267.746,163.057,267.824,161.619
				c0.348-6.445,5.371-12.742,12.364-12.363c6.444,0.346,12.739,5.373,12.361,12.363C291.69,177.551,268.68,177.549,267.824,161.619
				L267.824,161.619z"/>
		</g>
	</g>
	<circle id="circle4507" fill="#1C1A0E" cx="280.271" cy="162.363" r="6.297"/>
	<ellipse id="ellipse4509" fill="#F3F7E4" cx="176.375" cy="160.688" rx="24.173" ry="19.573"/>
	<g id="g4517">
		<circle id="circle4511" fill="#FFB103" cx="173.651" cy="159.619" r="13.482"/>
		<g id="g4515">
			<path id="path4513" inkscape:connector-curvature="0" fill="#4A3100" d="M186.014,159.619
				c-0.349,6.444-5.372,12.74-12.364,12.363c-6.444-0.348-12.74-5.371-12.363-12.363
				C162.145,143.688,185.156,143.688,186.014,159.619c0.077,1.438,2.314,1.444,2.237,0c-0.408-7.601-6.349-15.045-14.602-14.602
				c-7.599,0.41-15.046,6.35-14.602,14.602c0.409,7.602,6.35,15.045,14.602,14.603c8.271-0.446,14.156-6.331,14.602-14.603
				C188.33,158.176,186.092,158.183,186.014,159.619z"/>
		</g>
	</g>
	<circle id="circle4519" fill="#1C1A0E" cx="173.567" cy="160.361" r="6.298"/>
</g>
</svg>
