<?xml version="1.0" encoding="UTF-8" standalone="no"?>
<!-- Generator: Adobe Illustrator 16.0.0, SVG Export Plug-In . SVG Version: 6.00 Build 0)  -->

<svg
   xmlns:dc="http://purl.org/dc/elements/1.1/"
   xmlns:cc="http://creativecommons.org/ns#"
   xmlns:rdf="http://www.w3.org/1999/02/22-rdf-syntax-ns#"
   xmlns:svg="http://www.w3.org/2000/svg"
   xmlns="http://www.w3.org/2000/svg"
   xmlns:sodipodi="http://sodipodi.sourceforge.net/DTD/sodipodi-0.dtd"
   xmlns:inkscape="http://www.inkscape.org/namespaces/inkscape"
   version="1.1"
   id="svg4537"
   inkscape:version="0.92.4 (5da689c313, 2019-01-14)"
   sodipodi:docname="clownHead_back.svg"
   x="0px"
   y="0px"
   width="451.898px"
   height="482.917px"
   viewBox="0 0 451.898 482.917"
   enable-background="new 0 0 451.898 482.917"
   xml:space="preserve"><metadata
   id="metadata3992"><rdf:RDF><cc:Work
       rdf:about=""><dc:format>image/svg+xml</dc:format><dc:type
         rdf:resource="http://purl.org/dc/dcmitype/StillImage" /></cc:Work></rdf:RDF></metadata><defs
   id="defs3990" /><sodipodi:namedview
   pagecolor="#ffffff"
   bordercolor="#666666"
   borderopacity="1"
   objecttolerance="10"
   gridtolerance="10"
   guidetolerance="10"
   inkscape:pageopacity="0"
   inkscape:pageshadow="2"
   inkscape:window-width="640"
   inkscape:window-height="480"
   id="namedview3988"
   showgrid="false"
   inkscape:zoom="0.48869682"
   inkscape:cx="225.94901"
   inkscape:cy="241.4585"
   inkscape:window-x="0"
   inkscape:window-y="0"
   inkscape:window-maximized="0"
   inkscape:current-layer="svg4537" />
<g
   id="Layer_4"
   transform="matrix(1,0,0,-1,0,482.91794)">
	<path
   id="path4450"
   inkscape:connector-curvature="0"
   d="m 448.175,184.926 c -13.35,3.142 -25.146,0.865 -34.565,-3.049 -22.493,-44.119 -71.447,-85.371 -128.938,-103.131 -0.3,-6.843 -2.126,-13.339 -5.188,-19.248 l 0.017,-0.005 c 0,0 -0.021,-0.028 -0.055,-0.069 -2.189,-4.207 -4.992,-8.116 -8.331,-11.628 -8.961,-13.569 -20.834,-35.398 -12.619,-45.758 0,0 -68.034,22.621 -84.444,53.411 -4.478,6.94 -7.17,14.871 -7.535,23.326 -55.399,17.182 -102.656,56.284 -125.906,98.705 -7.128,6.156 -18.876,11.653 -36.752,7.446 0,0 -27.361,152.191 132.789,182.997 0,0 0.065,-0.998 0.148,-2.843 27.306,11.658 57.675,18.57 88.797,18.57 31.011,0 61.347,-6.858 88.674,-18.44 0.188,1.762 0.311,2.713 0.311,2.713 160.151,-30.806 133.597,-182.997 133.597,-182.997 z"
   style="fill:#b83d00" />
	<path
   id="path4452"
   inkscape:connector-curvature="0"
   d="m 340.935,289.226 c -0.02,0.184 -0.041,0.367 -0.062,0.552 -1.932,17.885 -2.055,35.062 -6.461,52.71 -7.99,31.999 -23.491,62.984 -48.089,85.453 -9.749,8.91 -15.633,27.371 -27.093,38.049 -11.749,10.943 -21.825,14.801 -34.796,14.801 -13.295,0 -23.474,-5.105 -35.274,-16.746 -12.093,-11.93 -17.677,-26.475 -27.954,-36.461 -22.587,-21.953 -36.469,-51.83 -43.986,-82.063 -4.271,-17.174 -4.084,-34.227 -6.726,-51.475 -2.48,-16.189 -12.544,-33.738 -15.771,-49.555 -8.367,-40.997 2.615,-108.511 37.616,-136.186 24.536,-19.4 61.359,-26.031 92.096,-26.031 30.146,0 62.276,4.626 87.395,22.131 37.742,26.298 55.46,91.79 45.751,134.514 -3.865,17 -14.618,32.829 -16.646,50.307 z"
   style="fill:#cfcdcb" />
	
		<ellipse
   id="ellipse4454"
   transform="matrix(0.4701,0.8826,-0.8826,0.4701,349.2553,80.5179)"
   cx="107.571"
   cy="331.12601"
   rx="35.223"
   ry="17.346001"
   style="fill:#cfcdcb" />
	<path
   id="path4456"
   inkscape:connector-curvature="0"
   d="m 169.372,337.394 c 1.884,15.006 -11.31,29.254 -7.833,43.867 2.518,13.896 17.729,21.877 24.97,33.123 -10.547,-9.554 -26.708,-16.029 -31.021,-30.808 -2.667,-9.133 0.582,-18.428 3.498,-27.048 2.163,-6.375 1.485,-21.369 10.386,-19.134 z"
   style="fill:#a20a12" />
	
		<ellipse
   id="ellipse4458"
   transform="matrix(0.4701,-0.8826,0.8826,0.4701,-111.4324,476.55)"
   cx="341.168"
   cy="331.07901"
   rx="35.222"
   ry="17.346001"
   style="fill:#cfcdcb" />
	
		<ellipse
   id="ellipse4460"
   enable-background="new    "
   cx="177.584"
   cy="325.17599"
   rx="30.375999"
   ry="24.596001"
   style="opacity:0.5;fill:#241f1b" />
	<path
   id="path4462"
   inkscape:connector-curvature="0"
   d="m 198.273,383.65 h 51.437 c 0,0 0.677,5.563 -3.554,9.507 -4.231,3.944 -13.367,3.843 -22.165,3.843 0,0 -16.333,1.69 -21.487,-3.788 -1.934,-2.054 -2.773,-6.294 -4.231,-9.562 z"
   style="fill:#820410" />
	<path
   id="path4464"
   inkscape:connector-curvature="0"
   enable-background="new    "
   d="m 327.218,295.786 c 0,13.681 -45.92,44.192 -102.563,44.192 -56.645,0 -102.564,-30.512 -102.564,-44.192 0,-13.68 45.92,-5.353 102.564,-5.353 56.643,0 102.563,-8.328 102.563,5.353 z"
   style="opacity:0.5;fill:#373d3a" />
	<path
   id="path4466"
   inkscape:connector-curvature="0"
   d="m 285.476,337.677 c 0.044,15.766 12.866,29.936 7.988,46.096 -4.42,14.645 -20.456,21.072 -30.956,30.584 7.212,-11.198 23.563,-19.791 25.119,-33.99 1.424,-9.489 -3.856,-19.247 -6.364,-28.145 -1.54,-5.362 -5.595,-18.078 4.213,-14.545 z"
   style="fill:#a20a12" />
	
		<ellipse
   id="ellipse4468"
   enable-background="new    "
   cx="272.10101"
   cy="325.229"
   rx="31.708"
   ry="25.676001"
   style="opacity:0.5;fill:#241f1b" />
	
		<ellipse
   id="ellipse4470"
   transform="matrix(-0.4898,-0.8718,0.8718,-0.4898,-130.0701,585.7521)"
   enable-background="new    "
   cx="106.352"
   cy="330.93399"
   rx="26.125999"
   ry="9.2489996"
   style="opacity:0.5;fill:#373d3a" />
	<path
   id="path4472"
   inkscape:connector-curvature="0"
   d="m 85.186,313.951 c 0,0 22.392,-28.971 36.903,44.553 0,0 12.606,-25.186 -10.731,-51.232 0,-0.003 -25.769,-18.048 -26.172,6.679 z"
   style="fill:#cfcdcb" />
	
		<ellipse
   id="ellipse4474"
   transform="matrix(-0.4898,0.8718,-0.8718,-0.4898,798.9576,194.5173)"
   enable-background="new    "
   cx="342.565"
   cy="331.02499"
   rx="26.124001"
   ry="9.2480001"
   style="opacity:0.5;fill:#373d3a" />
	<path
   id="path4476"
   inkscape:connector-curvature="0"
   d="m 363.778,313.951 c 0,0 -22.394,-28.971 -36.904,44.553 0,0 -12.606,-25.186 10.732,-51.232 0,-0.003 25.766,-18.048 26.172,6.679 z"
   style="fill:#cfcdcb" />
	<ellipse
   id="ellipse4478"
   cx="224.655"
   cy="386.08801"
   rx="10.871"
   ry="7.8270001"
   style="fill:#a20a12" />
	<g
   id="g4484">
		<g
   id="g4482">
			<path
   id="path4480"
   inkscape:connector-curvature="0"
   d="m 447.637,182.975 c -9.915,2.156 -19.655,1.613 -29.304,-1.471 -4.072,-1.302 -4.898,-4.366 -6.922,-7.891 -1.871,-3.262 -3.898,-6.432 -5.985,-9.559 -8.945,-13.398 -19.807,-25.483 -31.646,-36.372 -25.244,-23.217 -55.871,-40.641 -88.57,-50.878 0.495,0.65 0.99,1.3 1.485,1.951 -0.447,-7.167 -2.272,-13.849 -5.464,-20.277 -0.403,0.991 -0.808,1.981 -1.209,2.972 0.005,-0.002 0.01,-0.004 0.016,-0.006 1.514,-0.566 1.883,-2.143 0.894,-3.381 -1.49,-1.862 -2.521,-4.396 -3.943,-6.379 -1.492,-2.083 -3.442,-3.863 -4.842,-5.999 -2.881,-4.396 -5.521,-8.943 -7.922,-13.616 -4.096,-7.966 -10.025,-20.637 -3.981,-29.01 1.041,-1.442 -0.677,-3.508 -2.285,-2.972 -15.59,5.201 -30.832,12.041 -45.241,19.907 -22.908,12.505 -46.477,30.508 -48.224,58.786 0.495,-0.649 0.99,-1.3 1.485,-1.951 -33.303,10.468 -63.952,28.419 -89.53,52.159 -11.769,10.922 -22.257,23.251 -31.091,36.656 -2.063,3.13 -3.982,6.351 -5.827,9.613 -1.521,2.692 -5.296,4.418 -7.962,5.752 -8.404,4.205 -18.226,3.929 -27.17,1.966 -0.997,-0.219 -2.289,0.287 -2.489,1.413 -2.152,12.134 -2.202,24.842 -1.524,37.096 1.471,26.534 8.327,52.923 21.805,75.942 18.397,31.426 48.725,52.693 82.773,64.373 5.292,1.814 10.678,3.352 16.097,4.738 1.46,0.374 3.17,7.361 3.75,8.79 1.363,3.356 2.853,6.661 4.396,9.938 5.658,12.01 12.788,23.289 21.19,33.562 3.878,4.741 8.369,8.862 12.433,13.425 4.653,5.221 8.259,11.367 12.125,17.17 7.205,10.811 15.897,20.682 27.125,27.438 20.735,12.48 46.223,4.387 61.58,-12.531 7.979,-8.793 12.557,-20.074 19.424,-29.662 3.421,-4.777 8.188,-8.494 12.206,-12.746 4.4,-4.658 8.398,-9.688 12.172,-14.861 7.857,-10.777 14.283,-22.685 19.374,-34.998 1.483,-3.588 1.504,-5.047 5.329,-6.039 2.722,-0.705 5.423,-1.488 8.114,-2.301 5.522,-1.664 10.957,-3.613 16.31,-5.762 17.354,-6.963 33.505,-16.729 47.351,-29.32 37.367,-33.99 51.648,-87.122 47.162,-136.323 -0.24,-2.646 -0.52,-5.308 -0.971,-7.928 -0.442,-2.568 -4.341,-1.476 -3.902,1.075 1.972,11.445 1.918,24.929 1.126,37.009 -1.773,27.067 -9.391,53.892 -24.013,76.87 -20.907,32.854 -55.245,52.93 -92.252,62.778 -1.534,0.408 -4.499,0.437 -5.409,1.989 -1.664,2.842 -2.572,6.503 -3.887,9.523 -2.88,6.623 -6.23,13.034 -9.887,19.26 -6.809,11.588 -15.157,22.224 -24.813,31.564 -8.432,8.156 -13.502,18.008 -19.653,27.881 -7.148,11.471 -17.694,21.23 -30.919,24.98 -12.501,3.543 -25.567,0.854 -36.148,-6.359 -12.214,-8.324 -19.893,-20.748 -27.998,-32.734 -7.191,-10.637 -17.032,-18.983 -24.601,-29.365 -8.46,-11.604 -15.083,-24.523 -20.361,-37.85 -0.83,-2.098 -1.366,-5.897 -2.972,-7.504 -1.335,-1.334 -4.696,-1.488 -6.472,-1.967 -5.732,-1.547 -11.385,-3.385 -16.959,-5.427 C 91.148,352.498 81.65,347.924 72.645,342.517 57.437,333.388 44.025,321.339 33.438,307.105 8.572,273.669 -0.809,226.379 5.751,185.828 c 0.021,-0.122 0.04,-0.244 0.063,-0.366 -0.83,0.471 -1.659,0.942 -2.489,1.413 8.042,1.765 16.094,2.127 24.098,-0.006 4.292,-1.143 12.62,-4.184 14.934,-8.36 8.189,-14.789 18.554,-28.134 30.348,-40.219 25.951,-26.591 58.96,-46.436 94.354,-57.562 0.903,-0.284 1.427,-1.019 1.484,-1.951 1.708,-27.627 26.125,-44.461 48.274,-56.407 13.46,-7.259 27.702,-13.541 42.222,-18.385 -0.762,-0.99 -1.522,-1.981 -2.285,-2.972 -5.869,8.131 -2.177,19.477 1.467,27.738 2.561,5.803 5.634,11.322 8.984,16.701 1.877,3.011 4.146,5.458 6.295,8.27 1.727,2.257 2.822,5.007 4.575,7.198 0.298,-1.127 0.596,-2.254 0.893,-3.381 -0.005,0.002 -0.01,0.004 -0.016,0.006 -1.273,0.478 -1.826,1.729 -1.209,2.972 2.877,5.793 4.509,11.777 4.911,18.235 0.059,0.932 0.581,1.667 1.485,1.951 34.604,10.834 66.403,29.865 92.395,55.142 11.82,11.497 22.231,24.443 30.687,38.604 1.563,2.617 2.84,6.737 4.973,8.87 2.001,2 6.881,2.685 9.527,3.381 8.855,2.329 18.104,2.109 26.999,0.174 2.542,-0.552 1.461,-4.452 -1.083,-3.899 z"
   style="fill:#330101" />
		</g>
	</g>
	<path
   id="path4486"
   inkscape:connector-curvature="0"
   d="m 177.287,405.321 c 0,0 59.09,20.087 93.797,1.007 0,0 -33.604,37.145 -47.036,42.404 -0.001,0 -20.609,-18.443 -46.761,-43.411 z"
   style="fill:#560f0f" />
	<path
   id="path4488"
   inkscape:connector-curvature="0"
   d="m 263.102,413.204 c -1.443,0.69 -2.044,1.388 -3.148,2.169 -3.023,2.143 -13.94,10.211 -16.836,12.52 -6.428,5.123 -11.12,9.93 -19.271,10.785 -7.859,0.822 -17.445,-8.344 -23.35,-12.674 -6.434,-4.719 -12.378,-10.156 -18.48,-15.281 4.592,2.719 8.293,10.516 11.542,14.711 9.365,12.09 12.692,31.598 31.219,31.6 11.421,0 15.417,-10.928 21.545,-18.344 7.614,-9.213 13.192,-20.756 21.873,-28.924 -1.431,1.343 -2.901,2.387 -5.094,3.438 z"
   style="fill:#a20a12" />
	<path
   id="path4490"
   inkscape:connector-curvature="0"
   d="m 236.458,415.812 c -0.094,0 -1.438,10.313 -2.139,11.445 -2.104,3.42 -6.619,4.08 -9.838,4.467 0.06,-1.297 -0.823,-15.912 -0.854,-15.912 0.002,0 12.831,0 12.831,0 z"
   style="fill:#ddddac" />
	<path
   id="path4492"
   inkscape:connector-curvature="0"
   d="m 211.022,416.238 c 0.423,2.795 0.438,6.227 1.388,8.85 1.751,4.836 6.318,5.467 10.341,6.648 0.622,-4.977 1.104,-10.418 1.103,-15.498 h -12.832 z"
   style="fill:#ddddac" />
	<path
   id="path4494"
   inkscape:connector-curvature="0"
   d="m 177.609,404.673 c 23.687,5.09 39.887,5.271 39.887,5.271 0,0 6.356,7.91 12.408,0 0,0 18.882,-0.182 43.608,-4.428 0,0 -49.076,24.174 -91.37,1.42 z"
   style="fill:#a20a12" />
</g>
</svg>