<?xml version="1.0" encoding="UTF-8" standalone="no"?>
<!-- Generator: Adobe Illustrator 16.0.0, SVG Export Plug-In . SVG Version: 6.00 Build 0)  -->

<svg
   xmlns:dc="http://purl.org/dc/elements/1.1/"
   xmlns:cc="http://creativecommons.org/ns#"
   xmlns:rdf="http://www.w3.org/1999/02/22-rdf-syntax-ns#"
   xmlns:svg="http://www.w3.org/2000/svg"
   xmlns="http://www.w3.org/2000/svg"
   xmlns:sodipodi="http://sodipodi.sourceforge.net/DTD/sodipodi-0.dtd"
   xmlns:inkscape="http://www.inkscape.org/namespaces/inkscape"
   version="1.1"
   id="svg4537"
   inkscape:version="0.92.4 (5da689c313, 2019-01-14)"
   sodipodi:docname="clownHeadBack.svg"
   x="0px"
   y="0px"
   width="451.898px"
   height="482.917px"
   viewBox="0 0 451.898 482.917"
   enable-background="new 0 0 451.898 482.917"
   xml:space="preserve"><metadata
   id="metadata3930"><rdf:RDF><cc:Work
       rdf:about=""><dc:format>image/svg+xml</dc:format><dc:type
         rdf:resource="http://purl.org/dc/dcmitype/StillImage" /></cc:Work></rdf:RDF></metadata><defs
   id="defs3928" />
<sodipodi:namedview
   id="namedview4539"
   showgrid="false"
   guidetolerance="10"
   objecttolerance="10"
   inkscape:cx="224.93745"
   inkscape:cy="241.01718"
   pagecolor="#ffffff"
   gridtolerance="10"
   bordercolor="#666666"
   borderopacity="1"
   inkscape:zoom="0.13882353"
   inkscape:current-layer="svg4537"
   inkscape:window-maximized="0"
   inkscape:window-y="0"
   inkscape:window-x="0"
   inkscape:pageopacity="0"
   inkscape:window-height="480"
   inkscape:window-width="640"
   inkscape:pageshadow="2">
	</sodipodi:namedview>
<path
   d="m 451.101,290.59794 c -0.24,2.646 -0.52,5.308 -0.971,7.928 -0.192,1.117 -1.038,1.541 -1.897,1.454 -0.189,0.011 -0.385,0.005 -0.596,-0.041 -9.915,-2.156 -19.655,-1.613 -29.304,1.471 -4.072,1.302 -4.898,4.366 -6.922,7.891 -1.871,3.262 -3.898,6.432 -5.985,9.559 -8.945,13.398 -19.807,25.483 -31.646,36.372 -24.895,22.895 -55.027,40.143 -87.216,50.434 -0.597,6.598 -2.367,12.796 -5.333,18.771 -0.004,-0.01 -0.009,-0.021 -0.013,-0.031 -0.078,0.151 -0.172,0.301 -0.287,0.446 -1.49,1.862 -2.521,4.396 -3.943,6.379 -1.492,2.083 -3.442,3.863 -4.842,5.999 -2.881,4.396 -5.521,8.943 -7.922,13.616 -4.096,7.966 -10.025,20.637 -3.981,29.01 1.041,1.442 -0.677,3.508 -2.285,2.972 -15.59,-5.201 -30.832,-12.041 -45.241,-19.907 -22.498,-12.281 -45.616,-29.872 -48.093,-57.282 -32.777,-10.526 -62.946,-28.295 -88.175,-51.711 -11.769,-10.922 -22.257,-23.251 -31.091,-36.656 -2.063,-3.13 -3.982,-6.351 -5.827,-9.613 -1.521,-2.692 -5.296,-4.418 -7.962,-5.752 -8.404,-4.205 -18.226,-3.929 -27.17,-1.966 -0.997,0.219 -2.289,-0.287 -2.489,-1.413 -2.152,-12.134 -2.202,-24.842 -1.524,-37.096 1.471,-26.534 8.327,-52.923 21.805,-75.942 18.397,-31.426 48.725,-52.693 82.773,-64.373 5.292,-1.814 10.678,-3.352 16.097,-4.738 1.46,-0.374 3.17,-7.361 3.75,-8.79 1.363,-3.356 2.853,-6.661 4.396,-9.937998 5.658,-12.01 12.788,-23.289 21.19,-33.562 3.878,-4.741 8.369,-8.862 12.433,-13.425 4.653,-5.221 8.259,-11.367 12.125,-17.17 7.205,-10.811 15.897,-20.682 27.125,-27.4380003 20.735,-12.48 46.223,-4.387 61.58,12.5310003 7.979,8.793 12.557,20.074 19.424,29.662 3.421,4.777 8.188,8.494 12.206,12.746 4.4,4.658 8.398,9.688 12.172,14.861 7.857,10.777 14.283,22.685 19.374,34.997998 1.483,3.588 1.504,5.047 5.329,6.039 2.722,0.705 5.423,1.488 8.114,2.301 5.522,1.664 10.957,3.613 16.31,5.762 17.354,6.963 33.505,16.729 47.351,29.32 37.366,33.989 51.647,87.12 47.161,136.322 z"
   id="path3925"
   inkscape:connector-curvature="0"
   style="fill:#30070b" />
</svg>