<svg xmlns="http://www.w3.org/2000/svg" viewBox="0 0 1447.3 1447.3"><path d="M0 0h1447.3v1447.3H0z" fill="#078a55"/><path d="M239.8 410.2c-31-45.5-162.3 52-178 64C10.4 511.6 29.2 578.5 84 567c60-11.5 183.8-123 155.8-156.7zm541.2-246c-54.2-115.5-225.5-36.8-182.6 75.3C651 367.2 831.5 279 781 164.2zM402 318.6c-13.4-24-57.8-9.4-39.4 23.6 15.3 23.4 53.8 5.6 39.4-23.6zm548.2 822c-109-232.5-455.6-64.6-354 157.7 111.7 238.4 452.6 60.5 354-157.7zm327.6-393c-77.5-117-230-21-173.2 90.8 74.5 121.7 235 23 173.2-90.8zM290 1197.8c-35-55.2-198 64-215 78.4-56.2 40.6-38.6 125.2 32.2 108 67-13.8 217.2-145.8 183-186.5zm549.5-373.2c-42.5-65.4-132-17-103 50.4 40.6 75.2 139.7 18 103-50.4zm-60.5-226c-60.2-59-172.4 73.6-135.4 115.4 48 65.4 205-57.4 135.4-115.4zm602.7 649.8c-27.8-36.6-131.6 42.5-146.2 53.3-35 24.5-29 80.3 16.5 74.5 52.7-8.5 152-100.8 129.7-127.8zM374 546.3c-35.2 17.3-35.5 39.4-49.5 50.2-45 74.5 78.7 55.2 107 19 29.7-40.3-17-89.4-57.4-69.3z" fill="#116b4d"/><path d="M380.4 58.8c-26.7-46.7-168.6 54.2-184 69-44.7 37-23 100 28 87.7 48-5.6 186.3-120.8 155.8-156.7zm657 514.8c-55.5-118.3-231.8-32.8-180 80.2 56.7 121.2 230.2 31 180-80.2zM402 318.6c-16-25.6-54-7.8-41 21 16.5 29 56 6.4 41-21zM227.7 786.3c-24.4-42-153 50-166 63-34.8 28-23.4 86.8 25 77.6 44.5-4.5 168-108.5 141-140.5zm611.8 38.3c-44-67.2-132.7-14.5-102.5 51 42 73.8 139.2 17 102.5-51zM641 420.3c-41.7-42-123.5 53.2-94 82.6 34.8 42 142.6-41.8 94-82.6zm740.7 828c-22.4-38-136.5 44.2-148.2 55-35.7 27-23.4 83.4 23.7 71.8 40.7-7 148.7-98.2 124.5-126.8zM374 546.3c-39.8 20.8-36.5 42.8-49.5 50.2-20.3 20-7 50.4 17 52.7 32.7-4.4 70.6-8 92.3-37.2a47 47 0 0 0-60-65.7zm46.6 803c-16-25.6-54-7.8-41 21 16.5 29 56 6.4 41-21z" opacity=".3" fill="#116b4d"/><path d="M1263.2 1139.5c-49 19.4-31.7-1-41-18.4 7.4-4.6 22.6 2.5 22.3-4.8-3-23.8-14.7-.4-23.4 2.2-1-6.8-13-16.3-12.5-21.4 20.4-25.3 40-12 27.3-29.3-10.2-8.2-10-2-14 7.3-4.7 9.4-11.5 15.5-16.7 21a75.4 75.4 0 0 0-21.8-14.4c2.7-9.4 18.6-14 11.3-19.6-18.2-12.7-9.7 10.4-14 18.5-5.3-4-21.2-2-24.2-6.3-3.3-31.6 19.7-36.4-1.4-39.5-13.4 1.5-8 6-4.5 15.5 3 9.7 2.7 18.4 2.8 25.8a74.9 74.9 0 0 0-25.6 5.5c-4.4-7.4 2.6-22-4.6-21.8-23.7 3-.8 14.4 2 23-6.8 1.2-16 13.4-21.2 13-25.3-20.5-12-40-29.3-27.3-8.2 10.2-2 10 7.3 14 9.4 4.7 15.5 11.5 21 16.7a75.4 75.4 0 0 0-14 22c-10-3-14.3-19-20-11.5-12.8 18.2 11 9.7 19 14.2-4 5.3-1.7 21-5.8 24-33 3.6-37.4-19.8-40.6 1.4 1.5 13.6 6.2 8 15.8 4.4 10-3.2 19-2.6 26.5-2.7a75.4 75.4 0 0 0 5.7 25.2c-9.2 5.2-23.2-2.3-23 5 3 24.2 15.2-.3 24-2.5 1.3 6.6 13 15.8 12.8 20.7-21.5 27-41 13-28.3 30.4 11.5 9.5 10-.8 15-9.3 5-9 11.8-15 16.6-20a75.2 75.2 0 0 0 21.6 13.8c-4 12.2-19.4 15.2-12 21.2 18.6 13.2 9.5-12.4 14.5-20.2 5.2 3.8 20.4 2 23.5 6 4 34.3-20 38.5 1.5 41.7 13.3-1.5 8-6 4.4-15.6-3.4-10.6-2.7-20.3-2.8-27.7a75.4 75.4 0 0 0 25-5.2c5.4 9.3-2 23.8 5.2 23.5 24.4-3-.8-15.6-2.8-24.6 6.6-1.2 16-12.7 21-12.3 27 21.5 13 41 30.4 28.3 9.5-11.5-.8-10-9.3-15-9-5-15-11.8-20-16.6a75.2 75.2 0 0 0 14.2-21.4c11.6 3.7 15 19.2 20.7 11.8 13-18.4-11.6-9.5-19.7-14.4 4-5.2 2.2-20.7 6.4-23.7 10-1 24.2.2 35.5 8.3 7-.2 6.5-21-1.2-18.4zm-968.8-956c-58 23-37-1.5-48-21.6 11.3-5.7 25.6 2.4 26.2-4.6-2.7-30-17.4-1.2-27.5 1.6-1.7-8.3-14.5-19-15-25 25.2-31 47.3-14 32.3-34.6-13.3-10.7-11.6-.5-16.6 9.2-5.5 10.7-13.4 18-19.3 24a87.6 87.6 0 0 0-25.6-17C206 102 223.4 99 213.6 92c-21-13.7-10.6 13-16 22.2-6.5-4.6-24-2.7-28.4-7-3.8-39 23.5-42.8-1.6-46.8-15.2 1.8-10 6.4-5.7 17 4 11.7 3.6 22.7 3.7 31.6a87.5 87.5 0 0 0-30.1 6.4c-5.2-10 2.5-25-4.4-25.5-30 3-1.5 17 1.3 27-8.2 1.8-18.7 15-24.7 15.4C77 106.7 94 84.6 73.2 99.6c-10.7 13.3-.5 11.6 9.2 16.6 10.7 5.5 18 13.4 24 19.3A87.5 87.5 0 0 0 90 161.4c-13.6-5-16.3-20.8-22.5-14.5C50 170 80 159.2 88.8 164.6c-4.4 6.5-2.4 23.7-6.5 28-40.3 4.2-44-23.5-48 1.7 1.8 17.2 8.4 8.2 19.2 5 11.6-3.5 22.2-3 30.5-3a87.4 87.4 0 0 0 6.7 29.6c-12 6-26.3-2.2-27 5 2.7 30.2 18 .5 28.3-2 2 8 14.7 18.4 15.2 24-26 32.5-48.5 15-33.4 36 13.5 10.7 11.6.5 16.6-9.3 6-11.4 14.5-19 20.4-25a87.8 87.8 0 0 0 25.4 16.2c-5.7 15.5-21.5 17.4-15.2 24 23 18 12.2-13.8 18-22.7 6.4 4.3 23.2 2.7 27.6 6.6 4.7 41.8-23.6 45.2 1.8 49.3 17-1.8 8.4-8 5-19-3.7-12.2-3-23.5-3-31.8a87.4 87.4 0 0 0 29.4-6.2c6.4 12.3-2 27 5 27.6 30.5-2.6 0-18.3-2.3-28.8 8-1.7 18.6-14.3 24.4-14.7 33 26.3 15 48.5 36 33.4 10.7-13.3.6-11.6-9.3-16.6-11.4-6-19-14.6-25-20.4a87.3 87.3 0 0 0 16.7-25.1c16 6.2 17.2 23 24.8 13.3 14-21.4-14.7-10.4-23.6-16.3 4.5-6.4 3-23.5 7.2-28 12-1.2 28.5-.2 42 9.7 8.4.3 8-25-1.3-21.6z" fill="#3df29d"/><path d="M1138 308.4a26.5 26.5 0 1 1-7.9-36.6 26.5 26.5 0 0 1 7.9 36.6zm-64.3 104.2a20.9 20.9 0 1 1-6.3-28.8 20.9 20.9 0 0 1 6.3 28.8zm116 21.4a20.9 20.9 0 1 1-6.3-28.8 20.9 20.9 0 0 1 6.3 28.8zM446.5 875.7a30.9 30.9 0 1 1-9.3-42.7 30.9 30.9 0 0 1 9.3 42.7zm-75 121.7a24.4 24.4 0 1 1-7.3-33.7 24.4 24.4 0 0 1 7.3 33.7zm135.4 25a24.4 24.4 0 1 1-7.3-33.7 24.4 24.4 0 0 1 7.3 33.7z" fill="#00b588"/></svg>