<svg xmlns="http://www.w3.org/2000/svg" width="1282.8" height="1221.3" fill="#111"><path d="M711.3 1211.3c-29.5 0-49.6-16.8-55.3-46v-.7-.7c0-1 0-1.8.7-8.6l6-80.4c1.2-37.7-1.5-53.7-3.5-60.3.2 15-4 27.6-12.6 37-10.7 12-27.4 18.3-48.2 18.3-25.2 0-52-9.7-65.5-23.6l-.6-.7c-17.7-22-16.2-36-11.8-47.4a256 256 0 0 0-37.1-11.6l-1.3-.3-1.2-.7a10.5 10.5 0 0 0-1.8-.9c-.8 1-2.5 4-4.4 12-2 8.2-3.3 19-4.8 30.2-2.8 21.5-6 46-14 65.5-10.2 25-26.6 37.8-49 37.8-17 0-36.6-7.4-60.3-22.7l-.8-.5-.7-.6c-20.2-18.8-27-38-20.7-58.6 5.2-17 18.4-32 32.5-48 11.3-12.8 23-26 29.8-40 1.5-4.3 4.6-8.5 7.5-12.5 1-1.2 2-3 3-4.5a363.8 363.8 0 0 1-69.7-61.8 23 23 0 0 0-8 6.9c-5 6-10.3 14.5-16 23.5-15.2 24.4-32.5 52-58.7 52-16.3 0-32.2-11-48.8-33.3l-.6-1c-8.7-15-11-28.8-7-40.7 6.8-20 29-29.5 48.5-37.7 8.5-3.6 22.6-9.5 24-13.3a4.3 4.3 0 0 0-.8-2.2l-.6-1-.3-1.2c-2.2-8.7-7.2-28.4 4.2-45.4a88.2 88.2 0 0 0-.7-14.2l-11.6 9.4c-15 13-35.6 30.5-60.2 30.5a51.5 51.5 0 0 1-22.3-5.1c-18-7-41.3-40-43.5-71.2a57 57 0 0 1 31-56.4c8.4-7.4 23.7-8 40-8h13c7.8 0 17-.3 21.8-1.5a143.3 143.3 0 0 1-3.2-24.2c-.1-2-.3-4.3-.5-5.8a28.3 28.3 0 0 0-3-.1c-6.6 0-17.8 1.4-35 3.4l-49.7 5.4a4.5 4.5 0 0 0-.6 0c-4.7 0-15 3.3-25 6.4-16.4 5.2-37 11.7-55 11.7-16 0-28.3-5-36.8-15-12-14.2-15.4-37.5-10-71.2l.2-1.4.6-1.2c11-24.3 23.6-34.2 43.2-34.2 10.6 0 23 3 38.7 6.8 26 6.3 60.7 14.8 113 16.7-10.2-9-16.7-19.5-19.5-31.4-4.5-19.3 1.4-42 17-66.4-18.6-7-38.5-9.8-58-12.5-23.2-3.2-47.3-6.4-68.6-17.2l-.7-.3-.6-.4c-16.3-11.5-24.5-31.4-22.4-54.5a86 86 0 0 1 46.4-68.9l1-.4a62.1 62.1 0 0 1 20.9-4c19.8 0 33.4 11.6 52.2 27.7 17 14.6 40.4 34.6 79 54.5l1.2.7 2 1.3 1.5-3.8a240.6 240.6 0 0 1 24.1-47.5c-4.3-3.3-14-8.7-23.4-14L213 305c-13-8.3-27.4-12.6-40-16.5L142.8 276a51 51 0 0 1-22-49 81 81 0 0 1 44.9-59.2l.3-.1a56.8 56.8 0 0 1 20.4-4.1c23.3 0 36.5 17.2 53.3 39 12 15.8 25.8 33.6 47 51 7.3 5.2 13.7 11.8 20 18 7.2 7.3 16 16.4 21 16.4.6 0 5.6-.5 13-17.7-9.8-11-24.4-20.6-38.7-30-24.7-16.3-48-31.8-50-55.2-1.2-14.6 6.3-29.3 23-45h.1c11-10 25.3-15.7 38.5-15.7 12.8 0 35.7 5.3 47 41l18.3 35c5.5 11 11.7 23.5 14.3 23.5 4.6 0 16.8-7.6 32.2-17.2l25.3-15.5 3-1.2-2.4-4.3c-5.4-15.4-17.8-31-29.7-45.8-17.8-22.3-36-45.3-33-70.5 2-15.2 11.3-29 28.5-41.8l.6-.4c4.4-2.8 27.8-17 53-17 18.2 0 42.6 7.3 55.6 42l.2.4.1.4c2.8 10 3 19.2 3 29.7.3 16.7.6 37.3 11.3 74l4.6-1.4c15.8-4.8 44.8-13.6 97.5-15.5 2.8-9-1.2-26.4-4.7-42-6-26.5-12.3-53.8 2-72 8.4-10.6 22-15.7 41.8-15.7a143.9 143.9 0 0 1 16.9 1.1h.8l.8.2c18.3 5.3 30 13.3 35.7 24.6 8.8 17.4 1.4 37.7-6.5 59.2-5.2 14.2-10.6 28.8-12 43.8l-.1 1-1 4 5 .6c11.2 1.3 29.5 3.4 57.6 12.8a253 253 0 0 0 1.4-20.1c.8-18.7 1.6-31 6.5-38.3 8.5-22 29.2-35 55.7-35a90.2 90.2 0 0 1 45 12.4c14.7 8.6 25.5 21 30.6 34.8a56.1 56.1 0 0 1 1.7 31.9l.2-.3c2-2.5 5-11.5 7.4-19.4C936 97 949 57 984.6 57c15.6 0 33 8 53 24.4l.6.5.5.6c14.2 16.2 20.2 31 18.3 45.6-3.2 25-29 42.7-56.3 61.4-24.8 23.7-40.3 41.8-60 64.7q-.7.8-1.3 1.6l11.6 14c10-9 18.5-22.4 27-35.3 14.7-22.8 30-46.4 54-46.4 13.2 0 27 7.2 42 22l.5.5.5.6c14 18.8 19 34 15.6 47.6-4.8 20-26 30.7-50.5 43a301 301 0 0 0-43.2 24.7 475.8 475.8 0 0 1 29.4 50.8c3.8-2.6 9.5-7.7 14-11.7 16.5-14.7 39-35 64.8-35 17 0 32.7 9 46.3 26.3l.5.7.4.7c19.6 36.4 23.6 62.3 12.5 81.6-12.7 22-44.3 33.4-101.8 36.3l2 12.2c7.5-.3 25.2-5.3 56.4-14.2l29-8.2c4.2-1 11.3-4.6 18.8-8.6 15.3-8 34.3-18 52.8-18 25.5 0 42.5 18 50.6 53.7l.2.8.1.8c1.7 25.8-2.4 43-12.8 54.2-11.7 12.4-29 14-41 14a342 342 0 0 1-35.4-2.7c-15-1.6-30.5-3.3-46.8-3.3a187.1 187.1 0 0 0-26.3 1.7 53.4 53.4 0 0 1-13.7 1.4h0c-2.7 0-5.4-.1-8-.2l-7-.2a30.6 30.6 0 0 0-7.6.6 15.6 15.6 0 0 0 .6 3l.4 1.2v1.3a186 186 0 0 1 0 10.8v3c4.2 0 11-.7 20.2-1.6l18-1.7c14.8-4.3 31.6-9 46-9 14 0 25 4.2 32.8 12.5 8.5 9 12.8 22.6 13.3 41.4v.4c-.4 27.4-16.7 55.2-47 55.2-10.7 0-22.6-3.4-35.4-10.2-13-3.5-23.2-7-31.5-9.8-8.7-3-15.5-5.3-19-5.3a4 4 0 0 0-.6 0c-3.2 3-6.6 21.7-10.5 43.3l-.6 3.2-1 3.5c47.5 1.4 78 13.2 91 35.2 11.3 19.4 8.3 45-8.8 76.4l-.7 1c-15.7 21.6-32 32-50 32-25 0-48.7-20.7-73.6-44l-7.2 15.4c36.6 24.4 86.5 48.8 125 61l1 .3 1 .5c21 12 29.6 35.2 22.8 60.8-7 26-30.8 53.5-61.4 53.5a53.1 53.1 0 0 1-28.5-8.6l-.5-.3-.5-.4c-15-12.3-19-18.8-23.3-26.3-5.6-9.4-13.7-23-60-63.8a63 63 0 0 1-7.2 20.3l7 4c15 8.3 37.8 20.8 41 43 2.2 15.4-5.2 31.3-22.7 48.8l-1.2 1c-14.8 10.7-27 15.7-38.4 15.7-26 0-41.5-25.5-56.5-64h-.1a23.2 23.2 0 0 0-3 .3 39.2 39.2 0 0 1-6.2.6 21.5 21.5 0 0 1-12.2-3.7 47.6 47.6 0 0 1-10.4-6.6l-2-1.5-1 1.3-2.6.8c-13.5 4.3-16.2 7.7-16.6 8.3.3 3 7.2 10.5 11.4 15 11 12.3 26.3 29 25 51-1 16.3-10.8 32-29.7 48.2l-1 1-1.2.6c-22 10.4-40.3 15.5-55.5 15.5-21.2 0-36.7-10.2-45-29.5-6.4-15-7.6-33-8.5-47.5-.3-4.8-.7-11-1.3-15a75.3 75.3 0 0 1-15.3 2.4h-.5c1 7.5 6 24.7 13 48.7l10.5 37c3 9.3 7.5 17.3 12 25 10.5 18 22.3 38.2 4 69.7v.2c-8.5 13.7-35.8 25.3-59.7 25.3zM285.5 343.5zm592-138l5 3c4-5.4 10.4-16.6 15.5-26.3a161.6 161.6 0 0 1-15.8 15.2l-6 7 1.5 1z"/><path d="M470.6 20c17.8 0 36 8.2 46.2 35.6 6.6 24-4 43.8 15.7 108.4.3 2.8 1.4 4 3.8 4 9.2 0 37.5-16.3 112.6-18.2 23.5-29-49.3-129.5 33.2-129.4a133.3 133.3 0 0 1 15.7 1c63.5 18.3 15 64.4 10 117-7.2 25.8 4.8 6 74.3 30.8a3.8 3.8 0 0 0 1.6.4c10.3 0 3.5-55.8 12-65.5 7.4-20.8 26.3-29.8 46.8-29.7 49.7 0 108.3 52.7 32.5 116.2-17.5 19.8-14.2 15.5 5.8 29.3a2.5 2.5 0 0 0 1.9.9c10 0 34-56.6 45-71.6 11-13.8 16.8-82 56.7-82 12 0 27.2 6.3 46.6 22.2 36.4 41.5 5.7 63.6-36.8 92.7-28.6 27.3-45.2 47.4-69 75 7 3.3 18.8 25 26 25a3.6 3.6 0 0 0 3-1.8c30.6-24.8 46-82 77.5-82 9.8 0 21 5.5 34.8 19.2 47 63.5-29.8 62.8-83.6 107a468.2 468.2 0 0 1 36.4 62.3 4.8 4.8 0 0 0 4.2 2.3c13.7 0 45.7-48 81-48 12.6 0 25.6 6 38.4 22.5 38.8 72 15 100.5-93.5 103.7 7.5 21 1.3 31.7 14.2 31.7 10.6 0 34-7.4 88.4-22.6 14.8-3.3 44-26.3 69.4-26.3 17.3 0 33 10.8 41 46 3 47.2-14.8 57.4-44 57.4-22.2 0-51-6-82.2-6a197.7 197.7 0 0 0-28.3 1.9 43.6 43.6 0 0 1-11.7 1.2c-5 0-10.3-.4-15-.4-11.7 0-20.8 2-16.5 16.5.6 18.3-3 23.5 9.7 23.5 7 0 19.3-1.6 40.2-3.5 15.8-4.7 31.2-8.7 44.3-8.7 20.6 0 35.2 10.2 36 44-.3 19.8-10.8 45.3-37 45.3-8.7 0-19.2-2.8-31.7-9.6-29.3-7.8-44.8-15.8-54-15.8-12 0-14 12.7-21.4 54.6-2 9.6-8.2 14.5 5.2 15.3 88.4 1.5 109.3 38 77 97-14.5 20-28.2 28-42 28-22.2 0-44.8-20.7-72-46a4 4 0 0 0-2.6-1.1c-7.5 0-13.7 27-20.3 31 39.7 28 95.4 55.2 136 68 43 24.7 9.8 95.6-33.6 95.6a43.3 43.3 0 0 1-23.2-7c-36.3-29.7 1.4-18.5-102-106.3 6.8 17 1.5 32-6 43.7-12.4 12.4 92.2 26.7 29.6 89.5-12.7 9.2-23.2 13.8-32.5 13.8-19 0-32.6-19.7-48-59.7-3-3.3-5.7-4.2-8.6-4.2-3 0-6 1-9.2 1a11.4 11.4 0 0 1-7.3-2.5c-7.6-3-12.5-10.2-17.8-10.2-2 0-4 1-6.2 3.5-78 25 69.8 53.6-13.5 124.5-21.8 10.3-38.5 14.5-51.3 14.5-60 0-34-93.6-51-93.6a8.5 8.5 0 0 0-4.2 1.4c-31.6 10-35.8-20.7-1.5 101.3 10.2 33.5 39.4 48.4 17 87-5.7 9.2-28.8 20.6-51.2 20.6-20.3 0-40-9.3-45.4-38-.1-3.2 19.7-162.5-6.6-162.5-3 0-6.5 2-10.7 6.5 4.2 39-22 52.6-50.4 52.6-22.8 0-47-8.8-58.2-20.5-38.4-48 32-39.8-54.2-62.4a14.9 14.9 0 0 0-7.3-2.4c-29.8 0-4 145.7-71.5 145.7-14 0-31.7-6.2-54.8-21-55-51.4 20-85.5 44-135.4 2.7-8.5 18.8-22 10.8-26.5a354.8 354.8 0 0 1-74.2-65.7 12 12 0 0 0-3.7-.6c-25.4 0-46.2 82.8-83.7 82.8-11.7 0-25-8-40.8-29.2-39-67.2 83.5-59 64.6-93.7-3-11.4-5.6-27 4.4-39.6.6-21.8-2.2-29.4-7.8-29.4-13 0-40.8 41.8-74.6 41.8a41.4 41.4 0 0 1-18.3-4.3c-22.3-8-66.3-80.5-10.6-110.2 5.2-5.5 19.2-6.2 34-6.2h13c16.7 0 31.5-.8 32.8-8.7-8.8-32.6 2.2-43-17.6-43-12.2 0-36 4-83.2 9a14.4 14.4 0 0 0-1.9-.1c-15 0-51.4 18.2-80 18.2-26.4 0-46.3-15.4-37-74.5 9.8-21.4 19.3-28.4 34-28.4 26.5 0 70 22.3 162.8 24q.2 0 .3 0c4 0 7 .6 9.3.6 3 0 4.5-1.2 3.3-6.7-53.8-27.6-36-73.3-11.5-106.3-45-22.4-96.7-14-137.2-34.3C50 409 64.7 346 106 326.5a52.3 52.3 0 0 1 17.6-3.4c32 0 47 40.2 126.6 81 5 3.4 8 5 10.2 5 7.5 0 6-19 31.6-58.2 12.5-12-15.5-18.5-73.4-54.7-26-16.6-55.3-18.2-69.7-28.5-40.6-30.7-5.4-80 20.7-91a47.2 47.2 0 0 1 16.8-3.5c32.5 0 43 46.4 94.3 88 17.6 12.4 32.5 36.5 47 36.5 8.2 0 16.2-7.7 24.4-29.4-33-43.8-132.5-62.8-70.5-121 8.3-7.5 20-13 31.8-13 15 0 30 9 37.8 35 25 44.8 28.8 64.6 41.8 64.6 10 0 26-12 62-33.8 13.4-5.5 12.2-6.7 5.4-17.8-18.7-53-103.8-97-37.5-146.8 7.6-4.8 27.4-15.3 47.7-15.3m0-20c-27.3 0-51.6 14-58.4 18.4l-.6.4-.6.5c-19.5 14.6-30.2 30.5-32.5 48.5-3.8 29.4 16 54 35 78 10.5 13.2 21.3 26.8 26.8 39.6l-44 26.7c-2.4-4-5.6-10.5-8.5-16.4a781 781 0 0 0-18-34.6c-5-14.8-12.2-26.4-22-34.5a53 53 0 0 0-34.3-12.4c-16 0-32.4 6.7-45.2 18.3v.2c-19 18-27.6 35.3-26 53q.2 1.8.4 3.6c-15.2-19.4-30.7-36-56-36a66.6 66.6 0 0 0-23.9 4.8l-.6.2a86 86 0 0 0-32.3 25.5 85 85 0 0 0-18.7 41.6c-3 22.7 6.3 43.4 26 58.2l.4.3c9.2 6.6 20.8 10 33 13.8 12.7 3.8 25.8 7.8 37.6 15.3l.2.1c19 12 34.7 20.5 47.2 27.4l14.6 8.2a241.5 241.5 0 0 0-17 33.9c-33.6-18-54-35.5-70.5-49.7-19.6-16.8-35.2-30-58.7-30a71.9 71.9 0 0 0-24.3 4.6l-1.8.8a89.4 89.4 0 0 0-36.7 32.7 98 98 0 0 0-15.4 44.3C43 412 52.7 435.3 72 449l1.2 1 1.3.7c22.8 11.5 47.7 15 71.8 18.2 15.4 2 30.3 4 44.4 8a130.7 130.7 0 0 0-7.6 16.4c-6.2 16.5-7.7 32.2-4.3 46.6a65.6 65.6 0 0 0 7 17.9c-39-3-66.8-10-88.3-15.2-16.3-4-29.2-7-41-7-30 0-43.7 21.4-52.3 40L3 578l-.4 2.7C-3.2 617.5.8 643.4 15 660c10.4 12.2 25.3 18.4 44.4 18.4 19.8 0 41-6.8 58.2-12.2l21.7-6 2 .2 77.2-8.7 1.2 11-10 .2c-2 0-4.2 0-6.3 0h-6.6c-17.8 0-34.7.8-45.7 9.8-12.7 7.2-22.2 17-28.2 28.6-5.6 11-8 23.3-7 36.8a108 108 0 0 0 17.5 49.7c4.6 7 16.7 24 32 30a61.3 61.3 0 0 0 26.2 6c23 0 42-12.5 57-24.7-3.5 14.6-.4 28.5 1.4 35.6-4.4 2.4-11.4 5.4-16.2 7.4-20.4 8.6-46 19.3-54 43.7-5 14.7-2.3 31.2 8 49l1.2 2c18.6 25 37.2 37.3 56.8 37.3 15.2 0 29-7 42.4-21.8 9.4-10.4 17.2-23 24.8-35l14.6-21.6a372 372 0 0 0 56.6 50.1 50.3 50.3 0 0 0-5.9 10.6c-6.3 12.7-17.4 25.2-28 37.3-14 16-28.7 32.5-34.5 51.6-7.4 24.3.5 47.4 23.4 68.8l1.3 1.2 1.5 1c25.3 16.3 46.8 24.3 65.7 24.3 18.4 0 43.4-7.6 58-44 8.4-20.8 11.7-46 14.6-68l5-31 23.4 6.8a42.9 42.9 0 0 0-.4 13.4c1.4 11 6.8 22 16.5 34.3l1.2 1.4c15.3 16 44.5 26.7 72.7 26.7 22.8 0 42-7.3 54.7-20.6l-6.3 94.8c-.8 7.5-.8 8.2-.8 10l.3 3c3.6 18.5 12 32.7 25 42.2 11 8 24.7 12 40 12 27.3 0 58-13.5 68.2-30l.3-.4c9.5-16.2 12.8-31.4 10.2-46.5-2.2-13-8.3-23.3-14-33.3a143.1 143.1 0 0 1-9.1-17.3q.4.3.7.5a58 58 0 0 0 34.8 10.5c16.8 0 36.3-5.4 59.8-16.4l2.4-1 2-1.7c21-18 32-36 33.2-55.2 1.7-26.2-15.2-44.8-27.5-58.3l-4.7-5.2c1.4-.6 3-1.2 5.2-1.8a49.9 49.9 0 0 0 8.6 5.2 31.2 31.2 0 0 0 17 4.9l3-.1a173 173 0 0 0 21.7 40.5c11.6 15 25.5 22.6 41.2 22.6 13.6 0 27.6-5.6 44.2-17.6l1.3-1 1-1c9.6-9.7 16.4-19 20.7-28 4.2-9 6-18 5-26.7q.1.2.3.5c5.5 9.4 10.3 16.4 25.6 29l1 .8 1 .7a63 63 0 0 0 33.9 10.1c16.4 0 33-7 46.3-19.5a88.8 88.8 0 0 0 24.8-41.4c8-30-2.5-57.7-27.5-72l-2-1-38.6-14.4c17.2-3.3 33-15 47.7-35.2l.8-1 .6-1c19-34.6 21.8-63.6 8.7-86.3-8-13.7-21.4-24-40-30.7-13.2-4.8-28.8-7.7-47.5-9l6-29.2 41.2 13c14 7.2 27 11 39 11 37 0 56.7-32.7 57-65v-.7c-.5-21.3-5.7-37-16-48q-.7-.7-1.4-1.4l21 1c14 0 34-1.8 48.3-17 12.4-13.3 17.4-33 15.5-61.6l-.1-1.6-.4-1.6c-4.6-20.4-12-35.4-22.3-45.8a52.7 52.7 0 0 0-38.1-15.7c-17 0-33.5 7-47.8 14 16-29.4.3-65.5-13-90.2l-1.8-2.8c-15.6-20-33.8-30.2-54.2-30.2-29.5 0-53.7 21.6-71.4 37.4l-4 3.6-19-32.5c11.2-7.2 23-13 34-18.5 25.6-12.8 49.8-25 55.8-49.5 5.3-22-7.3-42.5-17.3-56l-1-1.2-1-1c-16.3-16.2-31.8-24.4-47.2-25l10-8.7c13.8-13 21.3-26 23-40 2.2-17.5-4.5-35-20.7-53.5l-1-1.2-1.3-1c-22-18-41.3-26.7-59.3-26.7-13.6 0-33 5.2-48.4 30a139.2 139.2 0 0 0-11.6 24.3C918 88 907 76.4 892.6 68a100.3 100.3 0 0 0-50-13.8c-30.4 0-54.3 15-64.6 40.3-5.8 9.4-6.7 22.8-7.5 42.5l-.3 7.2a257.4 257.4 0 0 0-41.9-8.8c2-12.2 6.5-24.5 11-36.5 8.3-22.6 16.8-46 6-67-7-14-20.7-23.6-41.8-29.7l-3.2-.6a153.9 153.9 0 0 0-18-1.2c-22.6 0-39.3 6.6-49.6 19.5-17.4 22-10.3 53-4 80.4 2.2 9.6 4.3 18.6 5 26.2l.3 4a351 351 0 0 0-86.1 14c-7.7-29.6-8-47.2-8.2-61.8-.2-10.8-.3-21-3.4-32.2v-1l-.3-.8C524 17.2 500.8 0 470.6 0zM326.2 276.2a156.8 156.8 0 0 1-12.4-11.7c-4.5-4.6-9.5-9.6-15-14.2l29.6 22a42.9 42.9 0 0 1-2.3 3.9zM1083.8 560h0z"/></svg>