<?xml version="1.0" encoding="UTF-8" standalone="no"?>
<svg
   xmlns:dc="http://purl.org/dc/elements/1.1/"
   xmlns:cc="http://creativecommons.org/ns#"
   xmlns:rdf="http://www.w3.org/1999/02/22-rdf-syntax-ns#"
   xmlns:svg="http://www.w3.org/2000/svg"
   xmlns="http://www.w3.org/2000/svg"
   xmlns:sodipodi="http://sodipodi.sourceforge.net/DTD/sodipodi-0.dtd"
   xmlns:inkscape="http://www.inkscape.org/namespaces/inkscape"
   viewBox="0 0 210.99999 211.00001"
   version="1.1"
   id="svg4189"
   sodipodi:docname="crew.svg"
   width="211"
   height="211"
   inkscape:version="0.92.4 (5da689c313, 2019-01-14)">
  <metadata
     id="metadata4193">
    <rdf:RDF>
      <cc:Work
         rdf:about="">
        <dc:format>image/svg+xml</dc:format>
        <dc:type
           rdf:resource="http://purl.org/dc/dcmitype/StillImage" />
        <dc:title></dc:title>
      </cc:Work>
    </rdf:RDF>
  </metadata>
  <sodipodi:namedview
     pagecolor="#ffffff"
     bordercolor="#666666"
     borderopacity="1"
     objecttolerance="10"
     gridtolerance="10"
     guidetolerance="10"
     inkscape:pageopacity="0"
     inkscape:pageshadow="2"
     inkscape:window-width="1920"
     inkscape:window-height="1017"
     id="namedview4191"
     showgrid="false"
     inkscape:zoom="1.1215131"
     inkscape:cx="81.285004"
     inkscape:cy="105.215"
     inkscape:window-x="-8"
     inkscape:window-y="-8"
     inkscape:window-maximized="1"
     inkscape:current-layer="svg4189" />
  <defs
     id="defs4156">
    <style
       id="style4154">.cls-1{fill:#750b37;}.cls-2{fill:#050405;}.cls-3{fill:#bf1702;}.cls-4{fill:#4a636c;}.cls-5{fill:#9ac5d7;}.cls-6{fill:#fcfefe;}</style>
  </defs>
  <g
     id="Слой_2"
     data-name="Слой 2"
     transform="translate(26,0.57000197)">
    <g
       id="Слой_2-2"
       data-name="Слой 2">
      <g
         id="Слой_18"
         data-name="Слой 18">
        <path
           class="cls-1"
           d="M 145.79,32.67 C 131.89,7.33 107.24,-4 67.06,1.29 49.87,3.58 36.4,22.07 33.22,48.37 32.57,53.76 30.75,56.13 24.99,56.42 8.7,57.25 0.14,65.53 1,82.58 1.29,88.65 0.4,94.78 0.05,100.89 v 37.49 a 10.63,10.63 0 0 1 0.73,2.42 c 0.85,17.29 6.72,29.78 27.07,28.81 3,-0.14 4,2.28 4.2,4.8 0.57,6.71 1,13.43 1.5,20.15 5.65,13.78 17.45,15.94 30.36,15.87 14.41,-0.08 22.36,-8.3 26.78,-21 a 1.38,1.38 0 0 1 0,-0.37 c 2.53,-5.59 -2.7,-16.32 3.12,-16.48 5.82,-0.16 1.93,11.3 5.14,16.84 6.09,10.81 15.53,12.38 27.08,11.61 7.24,-0.49 12.82,-2.42 17.85,-7.13 1.33,-3.2 2.92,-6.32 3.95,-9.62 11.4,-36.7 3.53,-75.72 13.81,-112.72 4.47,-15.98 -8.9,-26.21 -15.85,-38.89 z M 67.71,53 c 0,0.69 -0.06,1.38 -0.08,2.08 v 8.33 0.3 -0.3 -8.31 c 0,-0.69 0.05,-1.38 0.08,-2.07 0.19,-1.54 0.39,-3.08 0.58,-4.62 A 18.52,18.52 0 0 1 74,38.19 18.52,18.52 0 0 0 68.34,48.41 Z m 0.87,19.19 q 1.59,4.56 3.19,9.13 -1.59,-4.57 -3.2,-9.13 c 0,-0.45 -0.08,-0.9 -0.13,-1.34 0.05,0.47 0.09,0.92 0.14,1.37 z M 136.66,94 c 2.74,-0.13 4.52,0.57 5.44,2.36 -0.92,-1.77 -2.7,-2.47 -5.44,-2.36 z"
           id="path4158"
           inkscape:connector-curvature="0"
           style="fill:#750b37" />
      </g>
      <path
         class="cls-2"
         d="M 0,100.89 C 0.35,94.78 1.24,88.65 1,82.58 0.19,65.58 8.75,57.25 25,56.42 30.76,56.13 32.58,53.76 33.23,48.37 36.4,22.07 49.87,3.58 67.06,1.29 c 40.18,-5.34 64.83,6 78.73,31.38 7,12.68 20.32,22.91 15.9,38.85 -10.28,37 -2.41,76 -13.81,112.72 -1,3.3 -2.62,6.42 -3.95,9.62 -5,4.71 -10.61,6.64 -17.85,7.13 -11.55,0.77 -21,-0.8 -27.08,-11.61 -3.21,-5.54 0.59,-17 -5.14,-16.84 -5.73,0.16 -0.59,10.89 -3.12,16.48 a 1.38,1.38 0 0 0 0,0.37 c -4.42,12.74 -12.37,21 -26.78,21 -13,0.07 -24.71,-2.09 -30.41,-15.87 -0.49,-6.72 -0.93,-13.44 -1.5,-20.15 -0.21,-2.52 -1.23,-4.94 -4.2,-4.8 C 7.45,170.58 1.58,158.09 0.73,140.8 A 10.63,10.63 0 0 0 0,138.38 Z m 14.25,-18 -0.38,2.84 c -2.34,20.44 -4.25,41 -0.52,61.38 1.23,6.77 6.92,11.4 13.94,10.34 7.02,-1.06 3.89,-7.88 4,-12.22 0.26,-7.71 -0.42,-15.44 -0.57,-23.17 -0.26,-13.81 -0.42,-27.63 -0.62,-41.44 0.18,-3.51 1.67,-7.87 0.11,-10.23 -1.11,-1.68 -6.72,-1.71 -9.59,-0.6 -4.83,1.88 -6.21,6.76 -6.36,11.77 z m 136.58,-19.5 c 0.8,-6.24 -3.55,-10.46 -7.39,-13.4 -18.36,-14 -38.59,-9 -58.61,-4.49 -8.68,10.11 -10.21,21.12 -1.23,31.27 13.65,15.44 50,14.59 63.92,-0.84 3.14,-3.49 5.22,-7.57 3.31,-12.54 z m -8.51,41.77 c 2,-11.07 -1.64,-12.9 -12.43,-9.82 -30.76,8.78 -48.26,4 -58.12,-14 q -1.59,-4.57 -3.2,-9.13 L 68.44,70.87 68,67.22 67.67,63.44 V 55.11 L 67.71,53 68.29,48.38 c 1.56,-6.78 5.19,-11.6 12.16,-13.68 13.35,-4 27,-3.72 40.75,-3.62 1.9,0 5.26,0.3 3.15,-3.29 -9.79,-16.62 -54.22,-21 -66.9,-6.64 -5.94,4.92 -7.84,12.15 -9.45,19 -10.68,45.16 -6,90.85 -3.33,136.33 0.38,6.71 -3.09,17 6.12,20.19 19.45,6.84 26.05,1 26.83,-20.5 0.22,-6.06 -3.05,-16.24 5.48,-17.44 13.92,-1.95 28.15,3.05 43.2,0.16 -3,5.65 -7.59,6.71 -11.34,9 -7.71,4.78 -6.4,13.35 -3.9,19.17 3.46,8.1 12.22,3.85 18.75,3.51 5.91,-0.31 6.12,-5 6.13,-9.84 a 73.53,73.53 0 0 1 1.56,-16.31 c 4.5,-19.52 7.63,-39.13 4.82,-59.26 z"
         id="path4161"
         inkscape:connector-curvature="0"
         style="fill:#050405" />
      <path
         class="cls-3"
         d="m 71.77,81.35 c 9.86,18 27.36,22.77 58.12,14 10.79,-3.08 14.41,-1.25 12.43,9.82 -2.34,8.19 -3,17.44 -7.37,24.36 -11.09,17.58 -28.82,12.34 -45.55,11.61 -14.56,-0.65 -25.15,-7 -29.07,-19.84 C 50.31,88.4 45.77,54.9 57.45,21.18 c 12.68,-14.32 57.11,-10 66.9,6.64 2.11,3.59 -1.25,3.3 -3.15,3.29 -13.71,-0.1 -27.4,-0.36 -40.75,3.62 -7,2.08 -10.6,6.9 -12.16,13.68 C 68.1,50 67.9,51.49 67.71,53 c 0,0.69 -0.06,1.38 -0.08,2.07 v 8.34 l 0.37,3.81 0.48,3.66 c 0,0.44 0.09,0.89 0.13,1.34 q 1.57,4.56 3.16,9.13 z"
         id="path4163"
         inkscape:connector-curvature="0"
         style="fill:#bf1702" />
      <path
         class="cls-1"
         d="m 57.45,21.18 c -11.68,33.72 -7.14,67.22 2.88,100.11 3.92,12.84 14.51,19.19 29.07,19.84 16.73,0.73 34.46,6 45.55,-11.61 4.36,-6.92 5,-16.17 7.37,-24.36 2.81,20.13 -0.3,39.74 -4.82,59.3 a 73.53,73.53 0 0 0 -1.56,16.31 c 0,4.86 -0.22,9.53 -6.13,9.84 -6.53,0.34 -15.29,4.59 -18.75,-3.51 -2.5,-5.82 -3.81,-14.39 3.9,-19.17 3.75,-2.33 8.3,-3.39 11.34,-9 -15,2.89 -29.28,-2.11 -43.2,-0.16 -8.53,1.2 -5.26,11.38 -5.48,17.44 -0.78,21.45 -7.38,27.34 -26.83,20.5 -9.21,-3.24 -5.74,-13.48 -6.12,-20.19 C 42,131 37.32,85.31 48,40.15 49.61,33.33 51.51,26.1 57.45,21.18 Z"
         id="path4165"
         inkscape:connector-curvature="0"
         style="fill:#750b37" />
      <path
         class="cls-1"
         d="m 30.14,80.58 c 0.2,13.81 0.36,27.63 0.62,41.44 0.15,7.73 0.83,15.46 0.57,23.17 -0.15,4.34 3.09,11.14 -4,12.22 -7.09,1.08 -12.71,-3.57 -13.94,-10.34 -3.73,-20.41 -1.82,-40.94 0.52,-61.38 5.28,-2.02 12.3,1.31 16.23,-5.11 z"
         id="path4167"
         inkscape:connector-curvature="0"
         style="fill:#750b37" />
      <path
         class="cls-4"
         d="m 150.83,63.39 c 1.91,5 -0.17,9 -3.31,12.54 -13.91,15.43 -50.27,16.28 -63.92,0.84 -9,-10.15 -7.45,-21.16 1.23,-31.27 2.09,9.71 3.72,21.2 15,23.27 17.17,3.15 34.77,3.56 51,-5.38 z"
         id="path4169"
         inkscape:connector-curvature="0"
         style="fill:#4a636c" />
      <path
         class="cls-5"
         d="m 150.83,63.39 c -16.23,8.94 -33.84,8.53 -51,5.38 C 88.55,66.7 86.92,55.21 84.83,45.5 104.85,41 125.08,36 143.44,50 c 3.84,2.93 8.19,7.15 7.39,13.39 z"
         id="path4171"
         inkscape:connector-curvature="0"
         style="fill:#9ac5d7" />
      <path
         class="cls-3"
         d="m 30.14,80.58 c -3.93,6.42 -10.95,3.09 -16.27,5.11 0.13,-1 0.25,-1.89 0.38,-2.84 0,-0.44 0,-0.88 0.05,-1.33 0.15,-5 1.53,-9.89 6.36,-11.77 2.87,-1.11 8.48,-1.08 9.59,0.6 1.56,2.36 0.07,6.72 -0.11,10.23 z"
         id="path4173"
         inkscape:connector-curvature="0"
         style="fill:#bf1702" />
      <path
         class="cls-1"
         d="m 71.77,81.35 q -1.59,-4.57 -3.2,-9.13 1.61,4.56 3.2,9.13 z"
         id="path4175"
         inkscape:connector-curvature="0"
         style="fill:#750b37" />
      <path
         class="cls-1"
         d="M 67.63,63.44 Z"
         id="path4177"
         inkscape:connector-curvature="0"
         style="fill:#750b37" />
      <path
         class="cls-1"
         d="M 67.71,53 C 67.9,51.46 68.1,49.92 68.29,48.38 68.1,50 67.9,51.49 67.71,53 Z"
         id="path4179"
         inkscape:connector-curvature="0"
         style="fill:#750b37" />
      <path
         class="cls-1"
         d="M 68.44,70.88 68,67.22 Z"
         id="path4181"
         inkscape:connector-curvature="0"
         style="fill:#750b37" />
      <path
         class="cls-1"
         d="m 14.3,81.52 c 0,0.45 0,0.89 -0.05,1.33 0.02,-0.44 0.03,-0.85 0.05,-1.33 z"
         id="path4183"
         inkscape:connector-curvature="0"
         style="fill:#750b37" />
      <path
         class="cls-6"
         d="m 131.06,58.5 c 3.1,-1.1 7.33,1.66 9.05,-2.57 0.58,-1.44 -0.33,-4.75 -1.56,-5.46 -9.69,-5.57 -20.19,-7.45 -31.05,-4.39 -1.35,0.38 -2.27,4.44 -2.22,6.77 0,1.26 2.42,3.33 3.94,3.54 7.27,0.98 14.6,1.46 21.84,2.11 z"
         id="path4185"
         inkscape:connector-curvature="0"
         style="fill:#fcfefe" />
    </g>
  </g>
</svg>
