<svg xmlns="http://www.w3.org/2000/svg" width="275" height="324" viewBox="0 0 274.026 323.663"><path d="M65.222 133.44l-6.2 33.168-29.826 23.563L1.625 317.75s22.056 3.268 33.02-10.87l6.815-31.537s20.63 2.96 25.765-13.936l10.224-47.306 31.848-30.626 8.363-38.704z" fill="#b6d4d9"/><g fill="#fffeff"><path stroke-miterlimit="10" d="M68.5 173.156l-22.766 25.26-25.367 117.38-18.733 1.955 27.573-127.58 29.826-23.562 6.2-33.168 22.664 4.897-7.058 32.654z" stroke="#b6d4d9" stroke-width="2.56"/><path d="M64.56 214.32L53.3 270.902l-11.842 4.44L53.54 219.44z"/></g><path d="M224.825 133.026l3.357 33.576 27.717 26 16.63 129.462s-22.254 1.38-31.977-13.637l-4.1-32.002s-20.808 1.197-24.487-16.074l-6.167-48.003-29.13-33.223-5.046-39.273z" fill="#b6d4d9"/><g fill="#fffeff"><path stroke-miterlimit="10" d="M218.194 172.32l20.536 27.105 15.302 119.11 18.5 3.54-16.63-129.462-27.717-26-3.358-33.576-23 2.954 4.257 33.135z" stroke="#b6d4d9" stroke-width="2.56"/><path d="M217.777 211.168l1.642 57.67 10.934 6.36-2.567-57.137z"/></g><circle cx="144.146" cy="90.779" r="84.504" fill="#ffdb38"/><path d="M144.146 12.55c22.244.18 42.904 9.428 58.005 25.728 15.165 16.368 21.787 38.8 19.82 60.8-4.077 45.65-49.735 77.326-93.848 68.3-39.343-8.05-65.327-45.47-61.805-84.897 3.534-39.564 38.84-69.614 77.827-69.93 8.1-.065 8.096-12.616 0-12.55-46.822.38-85.48 36.125-90.376 82.48-4.858 45.992 28.676 89.062 73.667 97.518 45.855 8.62 91.232-20.1 104.127-64.658 13.054-45.108-12.38-92.492-55.302-109.465C166.106 1.858 155.034.087 144.147 0c-8.097-.065-8.1 12.485-.001 12.55zm37.428 79.066c-2.255 18.43-15.6 35.542-35.766 32.12-14.197-2.4-27.03-13.854-31.833-27.3-5.197-14.547 4.083-31.666 20.398-32.773 9.263-.628 15.738 7.65 16.278 16.3.498 7.97-5.962 18.158-14.792 15.08-5.2-1.816-7.43 6.43-2.27 8.23 10.044 3.5 18.988-2.87 23.142-11.87 4.438-9.614 2.303-20.302-4.178-28.405-13.607-17.013-39.946-3.955-46.644 12.856-6.507 16.334 2.722 34.176 15.112 44.9 14.12 12.2 34.776 16.475 50.863 5.447 11.37-7.794 16.607-21.375 18.22-34.562.67-5.454-7.872-5.4-8.532-.001z" fill="#fbc734"/><g fill="#ffe72f"><ellipse transform="rotate(243.179)" cx="-153.404" cy="28.93" rx="17.152" ry="10.88"/><ellipse cx="209.359" cy="103.448" rx="5.205" ry="4.302"/><ellipse transform="rotate(234.352)" cx="-133.462" cy="123.633" rx="9.204" ry="7.57"/></g></svg>