<?xml version="1.0" encoding="UTF-8" standalone="no"?>
<!-- Created with Inkscape (http://www.inkscape.org/) -->

<svg
   xmlns:dc="http://purl.org/dc/elements/1.1/"
   xmlns:cc="http://creativecommons.org/ns#"
   xmlns:rdf="http://www.w3.org/1999/02/22-rdf-syntax-ns#"
   xmlns:svg="http://www.w3.org/2000/svg"
   xmlns="http://www.w3.org/2000/svg"
   xmlns:sodipodi="http://sodipodi.sourceforge.net/DTD/sodipodi-0.dtd"
   xmlns:inkscape="http://www.inkscape.org/namespaces/inkscape"
   width="54.93388mm"
   height="55.27914mm"
   viewBox="0 0 54.93388 55.27914"
   version="1.1"
   id="svg8"
   inkscape:version="0.92.4 (5da689c313, 2019-01-14)"
   sodipodi:docname="cupidHand.svg">
  <defs
     id="defs2" />
  <sodipodi:namedview
     id="base"
     pagecolor="#ffffff"
     bordercolor="#666666"
     borderopacity="1.0"
     inkscape:pageopacity="0.0"
     inkscape:pageshadow="2"
     inkscape:zoom="0.35"
     inkscape:cx="49.526345"
     inkscape:cy="-24.106913"
     inkscape:document-units="mm"
     inkscape:current-layer="layer1"
     showgrid="false"
     inkscape:window-width="1920"
     inkscape:window-height="1017"
     inkscape:window-x="-8"
     inkscape:window-y="-8"
     inkscape:window-maximized="1" />
  <metadata
     id="metadata5">
    <rdf:RDF>
      <cc:Work
         rdf:about="">
        <dc:format>image/svg+xml</dc:format>
        <dc:type
           rdf:resource="http://purl.org/dc/dcmitype/StillImage" />
        <dc:title></dc:title>
      </cc:Work>
    </rdf:RDF>
  </metadata>
  <g
     inkscape:label="Layer 1"
     inkscape:groupmode="layer"
     id="layer1"
     transform="translate(-92.729488,-87.175906)">
    <g
       id="g74"
       transform="matrix(0.26458333,0,0,0.26458333,35.295977,-12.374101)">
      <polygon
         id="polygon10"
         points="300.578,498.082 300.634,530.296 321.291,518.127 320.414,486.75 "
         style="fill:#fdffff" />
      <polygon
         id="polygon12"
         points="340.296,498.012 340.354,530.226 321.291,518.127 320.414,486.75 "
         style="fill:#fdffff" />
      <g
         id="g18">
	<g
   id="g16">
		<path
   id="path14"
   d="m 218.057,477.77 c 5.815,7.567 11.629,15.134 17.444,22.701 2.175,2.831 5.599,4.335 8.979,2.354 2.794,-1.637 4.541,-6.135 2.354,-8.979 -5.815,-7.567 -11.629,-15.134 -17.444,-22.701 -2.175,-2.831 -5.599,-4.335 -8.979,-2.354 -2.794,1.636 -4.54,6.134 -2.354,8.979 z"
   inkscape:connector-curvature="0"
   style="fill:#faf028" />

	</g>

</g>
      <g
         id="g24">
	<g
   id="g22">
		<path
   id="path20"
   d="m 316.171,435.401 c -26.721,16.18 -53.442,32.36 -80.163,48.541 -11.244,6.809 -0.989,24.47 10.306,17.631 26.721,-16.181 53.442,-32.36 80.163,-48.541 11.244,-6.809 0.989,-24.47 -10.306,-17.631 z"
   inkscape:connector-curvature="0"
   style="fill:#faf028" />

	</g>

</g>
      <g
         id="g30">
	<g
   id="g28">
		<path
   id="path26"
   d="m 412.38,470.59 c -5.788,7.588 -11.575,15.177 -17.363,22.765 -2.176,2.853 -0.448,7.338 2.354,8.979 3.372,1.976 6.814,0.484 8.979,-2.354 5.788,-7.588 11.575,-15.177 17.363,-22.765 2.176,-2.852 0.448,-7.338 -2.354,-8.979 -3.372,-1.976 -6.814,-0.485 -8.979,2.354 z"
   inkscape:connector-curvature="0"
   style="fill:#faf028" />

	</g>

</g>
      <g
         id="g36">
	<g
   id="g34">
		<path
   id="path32"
   d="m 315.188,452.828 c 26.778,16.084 53.557,32.169 80.336,48.253 11.316,6.798 21.576,-10.861 10.305,-17.631 -26.778,-16.084 -53.557,-32.168 -80.335,-48.253 -11.318,-6.798 -21.577,10.862 -10.306,17.631 z"
   inkscape:connector-curvature="0"
   style="fill:#faf028" />

	</g>

</g>
      <line
         id="line38"
         y2="401.68799"
         x2="322.19501"
         y1="523.41199"
         x1="321.465"
         stroke-miterlimit="10"
         style="fill:none;stroke:#e1d8db;stroke-width:5.83389997;stroke-miterlimit:10" />
      <polygon
         id="polygon40"
         points="299.638,396.348 300.586,416.818 321.485,405.97 342.431,416.744 343.291,396.376 321.433,376.252 "
         style="fill:#ff4447" />
      <g
         id="g44">
	
		<rect
   id="rect42"
   height="29.912001"
   width="65.692001"
   transform="matrix(-0.0018,-1,1,-0.0018,-232.6912,872.3573)"
   y="537.36102"
   x="286.20901"
   style="fill:#aafdff" />

</g>
      <rect
         id="rect46"
         height="26.362"
         width="28.943001"
         stroke-miterlimit="10"
         transform="matrix(0.0018,1,-1,0.0018,853.6103,215.4293)"
         y="522.10303"
         x="304.42599"
         style="fill:#fddac8;stroke:#fddac8;stroke-width:3.4131999;stroke-miterlimit:10" />
    </g>
  </g>
</svg>
