<svg xmlns="http://www.w3.org/2000/svg" viewBox="0 0 441.39 660.02" width="441.39" height="660.02" fill="#111"><path d="M418.58 655.562c-9.75 0-21.976-7.773-29.2-14.995-5.097-5.062-7.127-17.188-9.09-28.914-1.054-6.295-2.25-13.43-3.527-15.636-2.012-3.517-14.067-19.6-33.12-44.22a40.867 40.867 0 0 1-7.972-5.856c-11.796-11.142-23.665-33.388-36.23-56.94l-15.51-28.298c-7.558-12.964-18.775-30.78-29.583-37.215-16.127-1.574-31.05-3.294-44.475-5.126q.795 3.193 1.53 6.506l1.5-.854 1.997 6.68 8.73 29.945c3.378 2.108 10.06 6.958 11.334 13 .536 2.598.134 6.57-1.428 14.183l-2.086 9.33c-1.622 7.055-3.298 14.35-3.922 19.665-1.67 14.146-13.132 27.978-20.467 27.98a6.83 6.83 0 0 1-.606-.027c-10.308-.924-12.466-15.77-13.192-26.856-1.428-21.41-12.928-28.763-28.844-38.937-10.104-6.46-21.557-13.78-31.756-26.1l-6.205-7.493 2.332.048a142.904 142.904 0 0 1-28.844-37.906c-8.787-17.05-12.485-33.892-10.413-47.426a39.374 39.374 0 0 1 1.538-6.692c5.595-25.533 42.825-36.408 73.124-41.035a275.57 275.57 0 0 1 19.21-2.287l-6.85-90.6c-14.867-3.224-41.435-9.51-72.816-19.27a10.727 10.727 0 0 1-5.481 1.566 8.509 8.509 0 0 1-3.729-.799l-1.255-.626-.103-.188c-7.938-3.68-33.8-16.076-45.707-26.625-7.32-2.404-33.584-11.552-38.908-20.657-1.63-2.803-1.88-5.353-.743-7.59 1.9-3.74 6.345-4.203 10.643-4.65 1.726-.18 4.786-.498 5.954-1.1-.742-1.843-4.203-5.736-6.562-8.39-6.865-7.72-15.408-17.328-12.95-27.633a16.577 16.577 0 0 1 .912-2.736 11.241 11.241 0 0 1 10.904-7.07c12.78 0 31.34 16.497 45.32 31.17a183.855 183.855 0 0 1 46.464-6.116 160.16 160.16 0 0 1 6.347.125l1.664.067.868.817c5.456-.184 11.29-.277 17.37-.277 23.6 0 44.485 1.407 46.882 1.574l13.996-.517 3.486-.147c.33-3.873.97-10.293 2.106-18.22l-4.956-1.664-.637-6.224.136-.604c.043-.354.115-1.417.178-2.36.36-5.354 1.205-17.89 4.584-30.37l.393-1.444c3.256-11.915 5.95-19.61 8.238-23.528l1.646-2.818 9.527 2.145c4.5-8.576 9.6-15.437 15.187-20.423a38.411 38.411 0 0 1 22.659-10.182 75.31 75.31 0 0 1 6.337-.275c16.498 0 29.892 5.766 39.81 17.137 16.35 18.742 22.106 51.5 16.712 94.894 5.962 2 17.79 6.58 25.746 13.43 27.642 17.557 66.467 59.257 78.247 91.345 4.46 12.212 3.6 24.215-2.488 34.716-7.4 12.79-22.695 23.355-41.334 28.657a85.46 85.46 0 0 1-.316 3.491l-.408 3.66-19.1 1.5c.44 13.918.994 28.076 1.76 34.442.188 1.5.592 3.57 1.232 6.312 3.5 14.68 13 42.753 23.067 72.473 16.637 49.112 33.84 99.895 32.6 114.56a24.085 24.085 0 0 1-1.091 5.268c3.333 18.164 5.66 45.39 6.135 51.218 2.465 4.067 11.587 19.878 11.87 31.615.226 9.338-2.884 31.767-9.635 41.34-2.277 3.18-4.9 4.863-7.82 5.03a18.23 18.23 0 0 1-.894.022z"/><path d="M264.494 8.91c44.365 0 60.612 45.094 51.62 110.703 0 0 17.863 5.01 27.98 13.887 25.417 16.034 64.81 56.817 76.733 89.297 4.35 11.912 2.863 22.283-2.16 30.947-8.01 13.86-25.067 23.298-41.767 27.422-.062 2.09-.21 4.243-.457 6.467l-19.664 1.543c.55 18.07 1.124 32.455 1.92 39.082.222 1.77.678 4.057 1.317 6.793 9.104 38.29 57.474 163.154 55.557 185.642a20.29 20.29 0 0 1-1.248 5.305c3.788 19.916 6.376 52.985 6.376 52.985s11.477 18.092 11.77 30.297c.238 9.822-3.21 30.71-8.823 38.667-1.376 1.92-2.847 3.058-4.433 3.15a13.74 13.74 0 0 1-.641.015c-8.13 0-19.277-6.917-26.063-13.693-6.97-6.925-7.843-36.608-11.912-43.63-2.93-5.125-23.182-31.455-34.017-45.445a36.428 36.428 0 0 1-7.87-5.637c-16.01-15.12-33.245-53.696-50.942-84.234-10.572-18.135-21.29-33.44-32.058-39.323-18.814-1.824-36.152-3.853-51.877-6.13 1.89 6.723 3.347 13.198 4.438 18.708l1.95-1.07.393 1.315 9.214 31.607s9.554 5.267 10.76 10.98c.445 2.16-.28 6.753-1.433 12.37-1.947 9.268-5.124 21.316-6.07 29.37-1.506 12.752-11.682 24.043-16.043 24.043a2.34 2.34 0 0 1-.209-.009c-4.235-.38-8.04-5.883-9.143-22.71-2.565-38.462-36.264-36.97-61.614-67.585l.636.005c.753 0 2.156-.015 4.095-.097-32.012-25.28-50.8-63.556-46.89-89.17a35.065 35.065 0 0 1 1.442-6.208c5.047-23.96 43.66-33.845 69.5-37.8a271.8 271.8 0 0 1 21.737-2.472l1.65-.08s-4.626-49.773-7.45-98.383c-14.45-3.054-43.317-9.696-77.862-20.54a7.03 7.03 0 0 1-4.683 2.028 4.211 4.211 0 0 1-1.74-.33c-.045-.084-.086-.168-.13-.252-3.923-1.793-34.62-16.01-46.64-27.144 0 0-32.343-10.41-37.345-18.964-4.997-8.587 14.272-2.71 16.462-9.76 2.163-7.083-22.96-22.362-19.63-36.31a12.333 12.333 0 0 1 .642-1.947 6.883 6.883 0 0 1 6.84-4.439c8.78 0 24.3 10.756 43.945 31.75a176.176 176.176 0 0 1 47.839-6.695q3.04 0 6.167.122l1 .952a503.37 503.37 0 0 1 19.071-.341c25.103 0 46.782 1.58 46.782 1.58l14.295-.526 7.43-.313s.618-10.678 2.916-25.54l-5.773-1.938-.27-2.646c.362-1.608.503-16.965 4.693-32.44l.392-1.44c2.628-9.614 5.444-18.438 7.787-22.45l9.74 2.185c4.275-8.822 9.46-16.6 15.738-22.205a33.982 33.982 0 0 1 20.068-9.066q3.06-.26 5.962-.26m0-8.91a79.69 79.69 0 0 0-6.716.291c-9.243.78-17.74 4.584-25.253 11.303a73.136 73.136 0 0 0-14.515 18.659l-9.426-2.128-3.29 5.636c-1.586 2.717-4.213 8.222-8.688 24.595l-.395 1.45c-3.497 12.912-4.362 25.757-4.732 31.242l-.14 1.947-.236 1.05 1.004 9.802 4.177 1.403c-.56 4.218-.97 7.9-1.266 10.887l-13.31.49c-3.34-.233-23.528-1.57-46.975-1.57a532.74 532.74 0 0 0-15.664.221l-.734-.69-3.327-.133c-2.143-.086-4.337-.13-6.523-.13a190.151 190.151 0 0 0-45.062 5.601C43.714 99.58 28 89.272 16.703 89.272a15.691 15.691 0 0 0-15.005 9.784 20.774 20.774 0 0 0-1.108 3.303l-.018.07-.017.07c-3 12.564 6.8 23.582 13.953 31.627l1.985 2.25c-4.497.52-9.97 1.602-12.662 6.902-1.05 2.066-2.333 6.35.86 11.838 2.162 3.698 6.924 8.89 24.788 16.42 6.58 2.774 12.756 4.94 15.713 5.942 12.005 10.26 35.586 21.803 44.74 26.1l.07.13 2.525 1.26a12.933 12.933 0 0 0 5.718 1.268 14.865 14.865 0 0 0 5.883-1.233c28.602 8.83 53.074 14.763 68.17 18.112l6.264 82.94a279.11 279.11 0 0 0-15.078 1.917c-31.58 4.823-70.45 16.424-76.733 44.274a44.055 44.055 0 0 0-1.646 7.249c-3.694 24.358 9.603 56.04 32.818 81.305l-1.06-.02 12.356 14.937c10.644 12.855 22.41 20.375 32.788 27.01 15.367 9.824 25.52 16.314 26.798 35.485.48 7.32 1.94 29.62 17.238 30.992a11.33 11.33 0 0 0 1.004.045c7.138 0 13.243-6.79 16.247-10.84a45.401 45.401 0 0 0 8.644-21.067c.596-5.08 2.246-12.257 3.84-19.198l2.1-9.387c1.747-8.517 2.122-12.693 1.44-16-1.443-6.843-7.628-12.08-11.89-14.96l-8.273-28.378-1.66-5.558c10.96 1.397 22.798 2.722 35.375 3.958 9.674 6.297 20.086 22.923 27.206 35.136 5.152 8.9 10.372 18.676 15.42 28.14 12.74 23.884 24.776 46.443 37.1 58.084a45.173 45.173 0 0 0 8.044 6.037c21.56 27.86 30.79 40.48 32.227 42.992v-.002c.947 1.845 2.2 9.27 3.013 14.184 2.556 15.262 4.658 25.69 10.353 31.346 8.11 8.096 21.266 16.28 32.342 16.28a22.53 22.53 0 0 0 1.058-.024l.045-.002.045-.002c2.977-.17 7.33-1.497 11.17-6.856l.02-.027.02-.027c7.412-10.51 10.694-33.885 10.448-44.017-.293-12.15-8.68-27.39-11.97-32.918-.62-7.42-2.816-32.144-5.915-49.547a27.892 27.892 0 0 0 .955-5.133c1.238-14.522-12.187-55.51-32.81-116.387-10.033-29.618-19.5-57.593-22.956-72.088-.588-2.517-.976-4.493-1.144-5.84-.666-5.532-1.174-17.395-1.587-29.758l18.528-1.454.816-7.32q.033-.296.064-.593c18.396-5.874 33.462-16.746 41.02-29.826 6.765-11.67 7.74-24.974 2.814-38.46-5.814-15.836-18.252-34.9-35.03-53.692-14.505-16.248-31.18-31.044-44.748-39.72-7.13-6.042-16.922-10.366-23.563-12.843 4.797-42.938-1.45-75.626-18.194-94.82C296.86 6.28 282.335 0 264.494 0z"/></svg>