<svg xmlns="http://www.w3.org/2000/svg" viewBox="0 0 441.39 660.02" width="441.39" height="660.02"><style><![CDATA[.A{isolation:isolate}.J,.K,.B,.D,.H{mix-blend-mode:multiply}.P{opacity:.4}.Q{fill:#d98609}.R{fill:#d1b7a6}.S{fill:#f3e8e2}.T{fill:#ffaa3f}.U{stroke:#d1b7a6}.V{stroke-linecap:round}.W{stroke-linejoin:round}.X{stroke-width:.6}]]></style><g class="A"><g><g><g><g><path class="B Q" d="M115.67 122.73S72.55 152.68 96.5 197c0 0 19.16 9.58 19.16-74.26"/></g><path d="M190.75 217.84s-40.57-7.37-92.75-24.1c-52.2-16.7-58.16-50.05-29.85-62.2 9.67-4.18 25.97-6.17 43.27-7.03 33.24-1.63 70.1 1.06 70.1 1.06l3.37 33.6z" class="S"/><g class="D P"><path d="M190.75 217.84s-40.57-7.37-92.75-24.1c-52.2-16.7-58.16-50.05-29.85-62.2 9.67-4.18 25.97-6.17 43.27-7.03-4.05 7.83-5.86 16.83-7 25.7-1.33 10.37-1.58 21.84 4.66 30.2a51.88 51.88 0 0 1 7.35-20.63c5.7 13.4 20.78 19.63 31.85 29.12 5.7 4.92 11.23 11.25 18.76 11.9a408.93 408.93 0 0 1-25.65-50.39c8.6 13.03 17.55 26.4 30.6 34.98a183.34 183.34 0 0 1-7.87-56.08 179.55 179.55 0 0 0 20.76 29.86z" class="R"/></g><path d="M96.8 196.93S62.6 181.5 49.73 169.6c0 0-32.34-10.4-37.34-18.96-5-8.6 14.27-2.7 16.46-9.76 2.16-7.08-22.96-22.36-19.63-36.3a12.34 12.34 0 0 1 .64-1.95c4.7-11 23.88-1.45 50.78 27.3a176.16 176.16 0 0 1 54.01-6.57A69.08 69.08 0 0 0 93.73 158c-2.6 10.86-2.65 24 3.06 38.93z" class="T"/><g class="D P"><path d="M96.8 196.93S62.6 181.5 49.73 169.6c0 0-32.34-10.4-37.34-18.96-5-8.6 14.27-2.7 16.46-9.76 2.16-7.08-22.96-22.36-19.63-36.3a12.34 12.34 0 0 1 .64-1.95 67.28 67.28 0 0 0 16.93 20.63c5.32 4.28 11.9 8.86 12.1 15.7.08 2.42-.72 4.76-1.2 7.14s-.63 5 .6 7.1c1.23 2.06 4.32 3.18 6.17 1.66a6.89 6.89 0 0 0 1.79-3.07l5.43-15c1.88 2.97 1.32 6.8 1.02 10.3s.06 7.6 2.93 9.62l3.87-16.8 2.4 11.5a6.08 6.08 0 0 0 1.23 3.03 5.76 5.76 0 0 0 2.96 1.48c8.97 2.4 18.28 2.3 27.65 2.13-2.6 10.86-2.65 24 3.06 38.93z" class="Q"/></g><path d="M423.65 647.94c-1.38 1.92-2.85 3.06-4.43 3.15-8.18.38-19.74-6.72-26.7-13.68-6.97-6.92-7.84-36.6-11.9-43.63-4.03-7.05-40.83-54.2-40.83-54.2-3.55-48.63 68.3-38.53 72.93-20.96.27 1.07.57 2.2.8 3.44 4.22 19.1 7.18 56.93 7.18 56.93s11.48 18.1 11.77 30.3c.24 9.82-3.2 30.7-8.82 38.67z" class="T"/><g class="D P"><path d="M423.65 647.94c-1.38 1.92-2.85 3.06-4.43 3.15-8.18.38-19.74-6.72-26.7-13.68-6.97-6.92-7.84-36.6-11.9-43.63-4.03-7.05-40.83-54.2-40.83-54.2-3.55-48.63 68.3-38.53 72.93-20.96.27 1.07.57 2.2.8 3.44a59.3 59.3 0 0 1-13.17 23.84c-7.04 7.5-16.76 12.72-27.03 13.34a98.32 98.32 0 0 0 26.33 2.33 45.77 45.77 0 0 1-16.62 13.26 29.49 29.49 0 0 0 18.15.82 20.71 20.71 0 0 1-6.93 14.8 14.19 14.19 0 0 1 5.54-1.49c1.9.06 3.96 1.1 4.55 2.93.56 1.83-.42 3.68-1 5.5-2.04 6.53 1.22 13.4 4.38 19.5l11.25 21.62c1.63 3.12 3.27 6.25 4.7 9.47z" class="Q"/></g><g class="S"><path d="M255.72 419.15c-18.8-1.82-36.15-3.85-51.88-6.13-28.1-4.1-51.1-9.02-68.64-15.15-9.5-3.3-17.4-6.94-23.58-11.05-10.6-6.88-16.35-14.98-16.86-24.53a28 28 0 0 1 .6-7.73c5.05-23.96 43.66-33.85 69.5-37.8 10.2-1.6 18.4-2.22 21.74-2.47l1.65-.08 2.86 4.45z"/><path d="M412.9 529.2c-10.84 20.18-51.7 34.73-74.17 13.5-16-15.12-33.24-53.7-50.94-84.23-10.57-18.13-21.3-33.44-32.06-39.32-28.9-15.68-67.48-104.92-67.48-104.92s-15.92-171.24-6.72-188.67l21.72-.84s4.56-79.1 35.22-106.47a33.98 33.98 0 0 1 20.07-9.07c48.86-4.15 66.97 41.98 57.58 110.44 0 0 21.46 6 30.66 16.54 2.62 3 4.44 17.8 5.8 38.04 3.37 50.5 3.8 134.86 6.12 154.06.22 1.77.68 4.06 1.32 6.8 9.1 38.3 57.47 163.15 55.56 185.64a21.62 21.62 0 0 1-2.69 8.5z"/></g><g class="R"><path class="H P" d="M412.9 529.2c-10.84 20.18-51.7 34.73-74.17 13.5-16-15.12-33.24-53.7-50.94-84.23 3.3 2.82 6.65 5.6 10.05 8.27 21.55 16.9 45.95 30.74 72.56 37.22a251.81 251.81 0 0 1-45.84-8.31c11.9 5.56 22.08 14.87 34.7 18.56 16.56 4.82 35.76-1.73 45.92-15.67.35 10.68-7.85 20.13-17.56 24.56-9.72 4.46-20.7 4.9-31.37 5.27 5.53 7.5 15.53 10.26 24.83 10.3a58.69 58.69 0 0 0 31.84-9.46zM292.28 125.84a157.97 157.97 0 0 1-76.56 5.06 82.02 82.02 0 0 1-19.91-5.89l7.43-.3s4.56-79.1 35.22-106.47c-9.4 18.27-16.13 38.04-14.8 58.34.3 4.44 1.02 9 3.03 12.94 2.76 5.43 7.66 9.38 12.8 12.54a73.51 73.51 0 0 0 16.96 7.61c-12.75 5.14-27.2.6-40.87 1.98 6.97 5.77 15.86 8.65 24.67 10.68a164.91 164.91 0 0 0 52.02 3.52zm65.6 191.92c-23.5-4.9-41.63-.4-54.36-.8-13.17-.44-12.7-3.35-13.84-11.55s-14.66-9.67-13.78-16.55c.87-6.85-5.3-10.37-3.72-16.88a152.9 152.9 0 0 1 2.96-10.36l.06-.06q1.24-.32 2.47-.66c28.98-7.97 46.8-36.3 42.96-66.1a107.28 107.28 0 0 1-.53-22.51l3.38-.24c9.76-1.24 19.52-.1 29.12 2.15 2.94 43.98 3.66 113.6 5.3 143.57z"/></g><g fill="none" class="U V W X"><path d="M307.32 119.57s-15.97 8.45-55.42 9.54M206 125a118.29 118.29 0 0 0 18.35 3.98m-32.4-1.4s-21.2 38.28-10.74 86.1m107.75 244.8s38.05 34.4 81.42 45.5m-64.46-15.55s17.3 28 56.58 44.12"/></g><path class="H P R" d="M376.74 461.37c3.66 12-1.02 24.08-10.45 26.96s-20.06-4.53-23.72-16.54 1.02-24.08 10.45-26.96 20.06 4.53 23.72 16.54z"/><path d="M418.67 253.74c-9.88 17.1-33.53 27.47-53.3 29.43-29.8 2.94-47.93-30.2-47.93-30.2l27.85-28.2s-25.67-17-31.6-44.4c-.16-.8-.35-1.6-.47-2.42-4.87-28.77 24.43-48.12 24.43-48.12 24.6 12.37 70.2 57.62 83.17 93 4.35 11.9 2.86 22.28-2.16 30.95z" class="S"/><path class="H P R" d="M418.67 253.74c-9.88 17.1-33.53 27.47-53.3 29.43-29.8 2.94-47.93-30.2-47.93-30.2l27.85-28.2s-25.67-17-31.6-44.4q23.5 17.6 48.14 33.6a21.36 21.36 0 0 0 5.11 2.67 23.38 23.38 0 0 0 6.77.54 75.46 75.46 0 0 1 43.04 13.59q-19.4-2.82-38.87-5.62a40.26 40.26 0 0 1 22.36 16.1 125.02 125.02 0 0 0-72.55 2.52c7.3 4.38 15.8 6.24 24.18 7.62a266.22 266.22 0 0 0 66.8 2.37z"/><g fill="none" class="U V W X"><path d="M345.3 224.76s-27.2-18.04-32.05-46.83c-3.5-20.7 10.65-36.52 18.88-43.78m17.12 89.3s16.9-11.4 33.94-7.22"/></g><path d="M376.44 287.63l-40.55 3.18s-20.4 13.08-28.47 13.55-7.82-7.2-13.7-8.93c-5.9-1.74-11.56-3.22-11.82-10.96-.26-7.77-10.86-7.47-5.3-16.3 5.57-8.86-3.55-14.25 1.35-20.62a5.3 5.3 0 0 1 2.51-1.61c9.4-3.32 37.2 2.5 37.2 2.5l17.87-25.7s41.37 12.25 41.38 56.3a79.33 79.33 0 0 1-.49 8.61z" class="T"/><g class="D P"><path d="M376.44 287.63l-40.55 3.18s-20.4 13.08-28.47 13.55-7.82-7.2-13.7-8.93c-5.9-1.74-11.56-3.22-11.82-10.96-.26-7.77-10.86-7.47-5.3-16.3 5.57-8.86-3.55-14.25 1.35-20.62a5.3 5.3 0 0 1 2.51-1.61 14.98 14.98 0 0 1 4.09 11.36c-.15 1.7-.58 3.5.13 5.02 1.17 2.6 4.58 2.97 7.38 3.3a3.41 3.41 0 0 1 2.32.9 3.18 3.18 0 0 1 .43 2.44c-.32 2.35-1.36 4.55-1.62 6.9-.26 2.36.56 5.13 2.76 6 2.18.8 5-.42 6.7 1.14 1.17 1.1 1.12 2.94 1.8 4.37 1.42 3.03 5.78 3.42 8.86 2.1 4.94-2.14 8.07-7.3 9-12.56.94-5.3-.02-10.75-1.38-15.9 1.47-.37 2.75 1.03 3.63 2.3q4.98 7.13 9.5 14.62a64.28 64.28 0 0 0-3.51-18.57q6.14 7.37 12.35 14.74a7.69 7.69 0 0 0 2.52 2.21 7.89 7.89 0 0 0 2.23.47c9.7 1 19.5 2 29.26 2.27a79.33 79.33 0 0 1-.49 8.61z" class="Q"/></g><path class="J" d="M275.4 245.76l-1.68-21.27a9.91 9.91 0 0 0-8.91-9.08l-9.85-.97a9.91 9.91 0 0 1-8.91-9.04l-1.4-17a9.91 9.91 0 0 0-9.1-9.06L218.32 178a9.91 9.91 0 0 0-10.64 10.81l.88 9.22a9.91 9.91 0 0 1-10.83 10.8l-1.98-.2a9.91 9.91 0 0 0-10.81 10.99l2.26 19.6a9.91 9.91 0 0 0 8.63 8.7l9.8 1.2c4.6.57 5.54 4.27 5.98 8.9l.82 13.97c.44 4.66 6.76 8.37 11.4 8.9l16.3 1.86a9.91 9.91 0 0 0 11-10.66h0c-.5-6.13-3.25-19 8.97-18.7.5.01 2.37.06 2.88.13l1.34.16c6.22.77 11.58-1.7 11.1-7.94z" fill="#61d159"/><path d="M210.95 447.87L155.48 460c-40.78-24.02-66.04-69.92-61.55-99.23a35.06 35.06 0 0 1 1.44-6.21c6.34-19 38.9-12.08 64.85 1.8 13.65 7.3 25.44 16.5 30.63 24.88a96.44 96.44 0 0 1 6.14 11.95l1.03 2.5a168.16 168.16 0 0 1 5.83 17.32 255.9 255.9 0 0 1 7.11 34.85z" class="S"/><path class="H P R" d="M203.84 413.02a255.9 255.9 0 0 1 7.11 34.85L155.48 460c-40.78-24.02-66.04-69.92-61.55-99.23a22.2 22.2 0 0 0 .84 1.52 167.36 167.36 0 0 0 16.86 24.53 171.85 171.85 0 0 0 64.03 48.68 328.03 328.03 0 0 1-40.45-37.63q-10.54-11.6-19.98-24.1 34.87 15.24 69.7 30.43a242.4 242.4 0 0 0-66.01-43.29c14.64.9 28.18 7.64 41.27 14.22 12.82 6.45 25.67 12.93 37.82 20.58l4 2.55q-2.52-2.53-5.03-5.06-18.42-18.4-36.77-36.83-13.82-13.88-27.6-27.68c10.87 3.33 20.44 9.82 29.84 16.22q25.78 17.53 51.53 35.03c-18.35-19.42-36.24-39.82-49.13-63.15 10.2-1.6 18.4-2.22 21.74-2.47l4.5 4.37 64.62 100.48c-18.8-1.82-36.15-3.85-51.88-6.13z"/><g fill="none" class="U V W X"><path d="M190.08 318.35s17.2 44.64 45.45 81.2"/><path d="M171.27 327.5s28.16 42.18 64.26 72.04m-34.83 12.3S167.32 385.1 131 371.1m-.8 14.5s32.8 18.3 70.5 26.26"/></g><path d="M229.16 486.93c-1.95 9.27-5.12 21.32-6.07 29.37-1.53 12.96-12.02 24.4-16.25 24.03s-8.04-5.88-9.14-22.7c-2.57-38.46-36.26-36.97-61.6-67.6 0 0 38.57.85 74.15-19.38l.4 1.32 9.2 31.6s9.55 5.27 10.76 10.98c.45 2.16-.28 6.75-1.43 12.37z" class="T"/><path class="K P Q" d="M223.1 516.3c-1.53 12.96-12.02 24.4-16.25 24.03s-8.04-5.88-9.14-22.7c-2.57-38.46-36.26-36.97-61.6-67.6 0 0 38.57.85 74.15-19.38l.4 1.32c-6.64 10.3-17.35 22.73-26.53 29.14a56.17 56.17 0 0 0 23.64-11.46c-.86 9.3-9.65 15.73-13.3 24.3a48.53 48.53 0 0 0 16.57-6.95q-2.27 9.4-4.54 18.78c-.3 1.17-.47 2.68.5 3.42 1.08.82 2.63.02 3.72-.8l12.95-9.44c.7-.53 1.58-1.05 2.4-.7a2.51 2.51 0 0 1 1.15 1.6 70.07 70.07 0 0 1 2.01 7.07c-1.95 9.27-5.12 21.32-6.07 29.37z"/><path d="M281.13 52.9l-1.98 7.88-8.44 31.87c-4.84 17.13-17.58 16.36-32.7 14.18a170.51 170.51 0 0 1-22.88-4.73c-1.6-.46-15.1-4.6-14.9-5.87l.02-.12c.36-1.6.36-18.5 4.55-33.97 2.74-10.16 5.72-19.68 8.18-23.9l20.94 4.68 47.2 9.97z" fill="#67a4c3"/><g fill="#fff"><path d="M269.15 50.48l-68.9 44.44c.36-1.6.36-18.5 4.55-33.97l29.12-18.02 35.22 7.55z" opacity=".5"/><path d="M279.15 59.6l-8.44 31.87-30.88 15.24c-8.4-1.96-17.77-2.27-26.04-5.02z" opacity=".2"/></g><path d="M231.94 111.03s-18.42 202.9 13 294.65" fill="none" class="U V W X"/><g><path d="M264.5 8.9c44.36 0 60.6 45.1 51.62 110.7 0 0 17.86 5 27.98 13.9 25.42 16.03 64.8 56.82 76.73 89.3 4.35 11.9 2.86 22.28-2.16 30.95-8 13.86-25.07 23.3-41.77 27.42-.06 2.1-.2 4.24-.46 6.47l-19.66 1.54c.55 18.07 1.12 32.46 1.92 39.08.22 1.77.68 4.06 1.32 6.8 9.1 38.3 57.47 163.15 55.56 185.64a20.29 20.29 0 0 1-1.25 5.3c3.8 19.92 6.38 53 6.38 53s11.48 18.1 11.77 30.3c.24 9.82-3.2 30.7-8.82 38.67-1.38 1.92-2.85 3.06-4.43 3.15q-.32.01-.64.01c-8.13 0-19.28-6.92-26.06-13.7-6.97-6.92-7.84-36.6-11.9-43.63-2.93-5.12-23.18-31.46-34.02-45.44a36.44 36.44 0 0 1-7.87-5.64c-16-15.12-33.24-53.7-50.94-84.23-10.57-18.13-21.3-33.44-32.06-39.32-18.8-1.82-36.15-3.85-51.88-6.13 1.9 6.72 3.35 13.2 4.44 18.7l1.95-1.07.4 1.32 9.2 31.6s9.55 5.27 10.76 10.98c.45 2.16-.28 6.75-1.43 12.37-1.95 9.27-5.12 21.32-6.07 29.37-1.5 12.75-11.68 24.04-16.04 24.04-.07 0-.14 0-.2-.01-4.24-.38-8.04-5.88-9.14-22.7-2.57-38.46-36.26-36.97-61.6-67.6h.64a98.4 98.4 0 0 0 4.09-.1c-32-25.28-50.8-63.56-46.9-89.17a35.07 35.07 0 0 1 1.44-6.21c5.05-23.96 43.66-33.85 69.5-37.8a271.8 271.8 0 0 1 21.74-2.47l1.65-.08-7.45-98.38c-14.45-3.05-43.32-9.7-77.86-20.54a7.03 7.03 0 0 1-4.68 2.03 4.21 4.21 0 0 1-1.74-.33l-.13-.25c-3.92-1.8-34.62-16-46.64-27.14 0 0-32.34-10.4-37.34-18.96-5-8.6 14.27-2.7 16.46-9.76 2.16-7.08-22.96-22.36-19.63-36.3a12.33 12.33 0 0 1 .64-1.95 6.88 6.88 0 0 1 6.84-4.44c8.78 0 24.3 10.76 43.94 31.75a176.18 176.18 0 0 1 47.84-6.7q3.04 0 6.17.12l1 .95c6.38-.24 12.83-.34 19.07-.34 25.1 0 46.78 1.58 46.78 1.58l21.72-.84s.62-10.68 2.92-25.54l-5.77-1.94-.27-2.65c.36-1.6.5-16.97 4.7-32.44l.4-1.44c2.63-9.6 5.44-18.44 7.8-22.45l9.74 2.2c4.28-8.82 9.46-16.6 15.74-22.2a33.98 33.98 0 0 1 20.07-9.07q3.06-.26 5.96-.26m0-8.9a79.7 79.7 0 0 0-6.72.29c-9.24.78-17.74 4.58-25.25 11.3a73.13 73.13 0 0 0-14.51 18.66l-9.43-2.13-3.3 5.64c-1.6 2.72-4.2 8.22-8.7 24.6l-.4 1.45c-3.5 12.9-4.36 25.76-4.73 31.24l-.14 1.95-.24 1.05 1 9.8 4.18 1.4-1.27 10.9-13.3.5c-3.34-.23-23.53-1.57-46.98-1.57l-15.66.22-.73-.7-3.33-.13a164 164 0 0 0-6.52-.13 190.14 190.14 0 0 0-45.06 5.6C43.7 99.58 28 89.27 16.7 89.27a15.69 15.69 0 0 0-15 9.78 20.77 20.77 0 0 0-1.11 3.3l-.02.07-.02.07c-3 12.56 6.8 23.58 13.95 31.63l1.98 2.25c-4.5.52-9.97 1.6-12.66 6.9-1.05 2.07-2.33 6.35.86 11.84 2.16 3.7 6.92 8.9 24.8 16.42 6.58 2.77 12.76 4.94 15.7 5.94 12 10.26 35.6 21.8 44.74 26.1l.07.13 2.53 1.26a12.93 12.93 0 0 0 5.72 1.27 14.87 14.87 0 0 0 5.88-1.23 885 885 0 0 0 68.17 18.11l6.26 82.94c-4.02.4-9.24 1-15.08 1.92-31.58 4.82-70.45 16.42-76.73 44.27a44.05 44.05 0 0 0-1.65 7.25c-3.7 24.36 9.6 56.04 32.82 81.3l-1.06-.02 12.36 14.94c10.64 12.85 22.4 20.38 32.8 27 15.37 9.82 25.52 16.3 26.8 35.5.48 7.32 1.94 29.62 17.24 31 .33.03.67.04 1 .04 7.14 0 13.24-6.8 16.25-10.84a45.4 45.4 0 0 0 8.64-21.07c.6-5.08 2.25-12.26 3.84-19.2l2.1-9.4c1.75-8.52 2.12-12.7 1.44-16-1.44-6.84-7.63-12.08-11.9-14.96l-8.67-29.7-1.27-4.24c10.96 1.4 22.8 2.72 35.37 3.96 9.67 6.3 20.1 22.92 27.2 35.14 5.15 8.9 10.37 18.68 15.42 28.14 12.74 23.88 24.78 46.44 37.1 58.08a45.18 45.18 0 0 0 8.04 6.04c21.56 27.86 30.8 40.48 32.23 43h0c.95 1.85 2.2 9.27 3 14.18 2.56 15.26 4.66 25.7 10.35 31.35 8.1 8.1 21.27 16.28 32.34 16.28.36 0 .7-.01 1.06-.02h.1c2.98-.17 7.33-1.5 11.17-6.86l.04-.05c7.4-10.5 10.7-33.88 10.45-44.02-.3-12.15-8.68-27.4-11.97-32.92-.62-7.42-2.82-32.14-5.9-49.55a27.89 27.89 0 0 0 .95-5.13c1.24-14.52-12.2-55.5-32.8-116.4-10.03-29.62-19.5-57.6-22.96-72.1a61.9 61.9 0 0 1-1.14-5.84c-.67-5.53-1.17-17.4-1.6-29.76l18.53-1.45.82-7.32q.03-.3.06-.6c18.4-5.87 33.46-16.75 41.02-29.83 6.77-11.67 7.74-24.97 2.8-38.46-5.8-15.84-18.25-34.9-35.03-53.7-14.5-16.25-31.18-31.04-44.75-39.72-7.13-6.04-16.92-10.37-23.56-12.84 4.8-42.94-1.45-75.63-18.2-94.82C296.86 6.28 282.34 0 264.5 0z" fill="#111"/></g></g></g></g></g></svg>