<svg xmlns="http://www.w3.org/2000/svg" width="566.6" height="566.6"><path style="mix-blend-mode:multiply" d="M0 0h566.6v566.6H0z" fill="#61d159"/><path d="M416 457l-2.3 16.7c-4 29.7-31.6 63.6-84 56.3l-1.3-.2c-33.7-4.7-70.5-39.6-65.3-77l30.6-186.5-9.8-1.4-30.6 186.5C246.6 499 288 533.6 327 539l1.3.2c56.8 8 90-29.4 95-64.2l2.3-16.7z" fill="#e8e8e8"/><path d="M415.5 457l-1 6.4c-2 14-4.2 21-15.5 38.3l12.6 8.8c11.2-12.8 17-28.5 19.3-44.8l1-6.4zm-95.2-211a28.6 28.6 0 1 1-24.4-32.4 28.7 28.7 0 0 1 24.4 32.4z" fill="#101418"/><path d="M308 244.3a16.1 16.1 0 1 1-13.7-18.2 16.1 16.1 0 0 1 13.7 18.2z" fill="#b6e0ef"/><path d="M385.2 360.8a329 329 0 0 1 .1-122.8 13 13 0 0 1 8.7-9.7c13.5-5 39.5 4 48.3 7.8l3.5-6c-1.4-.6-35.6-15.3-55.4-8-7 2.5-11.3 7.3-13 14-4.4 17.5-10.8 77-.6 123.4z" fill="#f2f2f2"/><path d="M453.6 236.3s5.5-11.3-8.5-10.6c-11.2.6-15.8-3-15.8-3l-4 8.5s6.2.3 13.7 7.5c9.5 9 14.6-2.4 14.6-2.4z" fill="#101418"/><path d="M517.2 245.5a13 13 0 0 1 5.7 11.7 329 329 0 0 1-33.4 118.2l8.4 1.2c22.5-41.8 32.6-100.8 33-118.8.2-7-2.7-12.8-8.7-17-17-12.4-54-7.6-55.5-7.4l1.7 6.6c9.6-1.3 37-2.7 48.6 5.7z" fill="#f2f2f2"/><path d="M457.7 237s-2.2-12.4 11-7.8c10.6 3.6 16 1.5 16 1.5l1.5 9.2s-6-1.4-15.2 3.4c-11.6 6-13.4-6.3-13.4-6.3z" fill="#101418"/><path d="M433 447c.5-2.2 1-4.4 1.3-6.6l3-22.6-12-1.7-3 22.6a59.2 59.2 0 0 1-1.3 6.6z" fill="#2f8bc5"/><path d="M420.8 418.8l-2.7 19.5a46.7 46.7 0 0 1-1.5 6.5l16.7 2.3a77 77 0 0 0 1.2-6.6l2.7-19c28.8.1 51.3-22 68.2-51.7l-16.8-2.3C473.7 393 462 406.2 439.2 407l-16.4-2.2c-20.4-7.8-27.5-23.8-34.5-51.5l-16.8-2.3c8 32.3 23 59.2 49.4 67.7z" fill="#101418"/><path d="M469 277.8a26.1 26.1 0 0 0-20.4 9.7 26.1 26.1 0 0 0-17-14.9c-11.5-3.5-32.4-2-35.8 22.6-4.8 34.3 42.3 67.6 42.3 67.6s54.4-19.2 59.2-53.5c3.4-24.7-16.3-31.7-28.3-31.5z" fill="#f81a14"/><path d="M88.3 421.3v-14a3.1 3.1 0 0 1 3.1-3.1H132a3.1 3.1 0 0 1 3.1 3.1v14h9.3v-20.6a5.7 5.7 0 0 0-5.7-5.7H84.6a5.7 5.7 0 0 0-5.7 5.7v20.6z" fill="#101418"/><path d="M189.6 539.3H34a7.9 7.9 0 0 1-7.9-7.9V426.8a7.9 7.9 0 0 1 7.9-7.9h155.6a7.9 7.9 0 0 1 7.9 7.9v104.6a7.9 7.9 0 0 1-7.9 7.9z" fill="#f81a14"/><path d="M142.5 465.7h-20.2v-20.2h-21v20.2H81v21h20.2V507h21v-20.2h20.2v-21zM45.7 159.5l-.4-.4a27.4 27.4 0 0 1-3.6-38.6l55.4-67a27.4 27.4 0 0 1 38.6-3.7l.4.4a27.4 27.4 0 0 1 3.7 38.6l-55.4 67a27.4 27.4 0 0 1-38.6 3.6z" fill="#fff"/><path d="M70 86.3l-28.3 34.2a27.4 27.4 0 0 0 3.6 38.6l.4.4a27.4 27.4 0 0 0 38.6-3.6l28.3-34.2z" fill="#f81a14"/><path d="M505 92.2a42.6 42.6 0 1 1-42.6-42.6 42.6 42.6 0 0 1 42.6 42.6z" fill="#fff"/><path d="M504.5 99a41.5 41.5 0 0 0 .6-6.7 41.8 41.8 0 0 0-.6-6.4h-84a43 43 0 0 0-.6 6.4 41.3 41.3 0 0 0 .6 6.7z" fill="#c1c1c1"/><path style="mix-blend-mode:multiply" d="M182.7 259.4H150v-32.8h-12.3v32.8H105v12.3h32.8v32.8H150v-32.8h32.8v-12.3zm163.8-201h-22v-22h-8.2v22h-22v8.2h22v22h8.2v-22h22v-8.2zm187.7 448.4h-22v-22H504v22h-22v8.2h22v22h8.2v-22h22v-8.2z" fill="#61d159"/></svg>