<?xml version="1.0" encoding="UTF-8" standalone="no"?>
<svg
   xmlns:dc="http://purl.org/dc/elements/1.1/"
   xmlns:cc="http://creativecommons.org/ns#"
   xmlns:rdf="http://www.w3.org/1999/02/22-rdf-syntax-ns#"
   xmlns:svg="http://www.w3.org/2000/svg"
   xmlns="http://www.w3.org/2000/svg"
   xmlns:sodipodi="http://sodipodi.sourceforge.net/DTD/sodipodi-0.dtd"
   xmlns:inkscape="http://www.inkscape.org/namespaces/inkscape"
   viewBox="0 0 394.38085 445.25743"
   version="1.1"
   id="svg192"
   sodipodi:docname="dogeSkin.svg"
   width="394.38086"
   height="445.25742"
   inkscape:version="1.0.2-2 (e86c870879, 2021-01-15)">
  <metadata
     id="metadata196">
    <rdf:RDF>
      <cc:Work
         rdf:about="">
        <dc:format>image/svg+xml</dc:format>
        <dc:type
           rdf:resource="http://purl.org/dc/dcmitype/StillImage" />
      </cc:Work>
    </rdf:RDF>
  </metadata>
  <sodipodi:namedview
     pagecolor="#ffffff"
     bordercolor="#666666"
     borderopacity="1"
     objecttolerance="10"
     gridtolerance="10"
     guidetolerance="10"
     inkscape:pageopacity="0"
     inkscape:pageshadow="2"
     inkscape:window-width="1710"
     inkscape:window-height="1030"
     id="namedview194"
     showgrid="false"
     inkscape:zoom="1.7989085"
     inkscape:cx="197.15366"
     inkscape:cy="222.63135"
     inkscape:window-x="140"
     inkscape:window-y="41"
     inkscape:window-maximized="0"
     inkscape:current-layer="svg192" />
  <defs
     id="defs106">
    <style
       id="style104">.cls-1{fill:#f0a00a;}.cls-2{fill:#aa6521;}.cls-2,.cls-3{opacity:0.73;}.cls-3{fill:#cf7208;}.cls-4{fill:#ffeec0;}.cls-5{fill:#784913;}.cls-6{fill:#fbf6fc;}.cls-7{fill:#1c1d1b;}.cls-14,.cls-18,.cls-8{fill:none;}.cls-14,.cls-8{stroke:#1c1d1b;}.cls-11,.cls-14,.cls-8{stroke-miterlimit:10;}.cls-8{stroke-width:4.99px;}.cls-11,.cls-9{fill:#463324;}.cls-10{fill:#0a0c06;}.cls-11{stroke:#463324;stroke-width:3px;}.cls-12{fill:#fff0b0;opacity:0.54;}.cls-13{fill:#343533;}.cls-14{stroke-width:3.33px;}.cls-15{fill:#514234;}.cls-16{opacity:0.4;}.cls-17{fill:#42342a;}.cls-18{stroke:#000;stroke-linecap:round;stroke-linejoin:round;stroke-width:9.11px;}</style>
  </defs>
  <g
     id="Слой_2"
     data-name="Слой 2"
     transform="translate(-0.00634338,-0.00364842)">
    <g
       id="Слой_47"
       data-name="Слой 47">
      <g
         id="Слой_4"
         data-name="Слой 4">
        <path
           class="cls-1"
           d="m 122.65,6.61 c 13.7,-9.53 24.3,22.22 27.11,28.53 0,0 18.23,41 38,42.52 0,0 -64.65,40.52 -84.71,31.65 3.57,-8.24 6.75,-16.7 9.5,-25.24 2,-6.33 -0.19,-13.1 0.49,-19.75 0.91,-8.91 2.25,-17.48 1.35,-26.31 a 52.53,52.53 0 0 1 3.38,-24.44 14.93,14.93 0 0 1 4,-6.23 c 0.23,-0.27 0.56,-0.51 0.88,-0.73 z"
           id="path108" />
        <g
           id="Слой_15"
           data-name="Слой 15">
          <path
             class="cls-2"
             d="m 103,109.31 21.36,-23.18 c 18.34,-19.9 2.92,-46 11.42,-68.18 4.09,3.6 7.28,9.41 10.6,13.93 l 15.52,32 25.81,13.76 c 0,0 -64.85,42.47 -84.71,31.67"
             id="path110" />
        </g>
        <path
           class="cls-1"
           d="m 186.85,77.66 c -12.23,-1.5 -24.61,-1.29 -36.9,-1.09 -3.78,0.07 -7.62,0.14 -11.21,1.3 -6.24,2 -9,8.15 -13.63,12.38 -17.42,16 -30,24.74 -49,38.62 -17,12.44 -32.05,27.8 -40.61,47.1 -5.23,11.78 -13.26,22 -15.48,34.33 a 165.81,165.81 0 0 1 -9.6,33.11 c -17.33,42.65 -1.09,92.31 29.13,126.71 -25.35,-29.46 139.69,126.23 255.56,41.52 0,0 79.8,-58.94 85.59,-128.43 1.26,-10.07 -3.43,-26.25 -3.85,-36.37 -0.36,-8.7 1.3,-31.59 -0.88,-40.05 -1.91,-7.42 -7.58,-13.69 -5.28,-21.69 1.51,-5.25 4.85,-9.78 6.83,-14.87 3.79,-9.8 2.7,-7.44 3.95,-17.82 1.51,-12.54 3.63,-25 5,-37.55 2.51,-23 2.1,-54.09 -9.8,-74.85 -8.33,-14.54 -19.86,-14.74 -32.77,-7 -23.66,14.16 -33.23,30.9 -58.3,46 -14,8.43 -19.38,6.13 -33.1,3.81 a 89.13,89.13 0 0 0 -32.92,1 c -8.75,1.85 -22.43,-4.67 -31.17,-5.86 z"
           id="path113" />
        <g
           id="Слой_29"
           data-name="Слой 29">
          <path
             class="cls-3"
             d="m 274.7,103 11.79,10.09 a 8.89,8.89 0 0 0 11.25,0.25 c 13.19,-10.26 45.12,-38.54 60.74,-82.3 a 7.84,7.84 0 0 1 0.5,-1.15 c 1.39,-2.57 6.66,-13.78 -22.82,12.24 -8.17,7.21 -31.3,32.39 -51,43.23 a 19.16,19.16 0 0 1 -6,2.12 8.89,8.89 0 0 0 -4.46,15.52 z"
             id="path115" />
        </g>
      </g>
      <g
         id="Слой_6"
         data-name="Слой 6">
        <path
           class="cls-4"
           d="m 358.39,248.41 c 0,0 -41.6,-76.68 -113,-19.58 0,0 -21.25,45.09 -74.4,1.51 0,0 -61.62,4.16 -68,18.62 0,0 -53.47,7 -44.36,-15.58 0,0 14.72,-21.13 9.1,-40.56 -2.21,-7.66 4,-13.81 -0.8,-19.43 -6.09,-7.12 -5.56,-2.92 -11.72,1.52 C 38.48,187 19.12,204.18 16.53,225 c 0,0 -38.43,73 22.31,143.59 0,0 70,98.12 178.49,57.62 -4.82,0 95.8,-8.28 136.22,-75.4 0,0.04 43.56,-47.02 4.84,-102.4 z"
           id="path119" />
      </g>
      <g
         id="Слой_34"
         data-name="Слой 34">
        <path
           class="cls-4"
           d="M 363.54,245.76 A 51.63,51.63 0 0 0 352.32,228.9 c -8.19,-8.2 -18.89,-13.41 -29.77,-17.42 -27.95,-10.29 -54.17,-0.69 -76.71,17.35 0,0 -21.26,45.09 -74.41,1.51 0,0 -61.61,4.16 -68,18.62 0,0 -53.46,7 -44.35,-15.58 2.17,-5.39 5.76,-10.07 7.64,-15.74 2.39,-7.15 2.54,-14.81 2.38,-22.29 -0.13,-6.71 3.09,-25.31 -7.5,-26.19 -3.47,-0.28 -11,3.16 -13.61,5.55 -6.14,5.56 -8.32,7 -13.66,13.92 -5.55,7.22 -9.72,15.52 -13.49,23.77 -1.77,3.88 -2,9.07 -3.88,12.64 0,0 -38.44,73 22.3,143.59 0,0 70.7,85.33 174.46,68.9 2.61,-0.41 5.15,-1.26 7.79,-1.44 12.26,-0.82 92,-18.66 129.46,-85.24 5.88,-10.45 13.35,-19.78 18.37,-30.68 5.13,-11.16 5.07,-23.13 2.83,-35 -2.59,-13.73 -3.54,-27.24 -8.63,-39.41 z"
           id="path122" />
      </g>
      <g
         id="Слой_12"
         data-name="Слой 12">
        <path
           class="cls-1"
           d="m 242.39,228.83 c 1.23,1.17 -9,11.36 -9.8,12 -18,14.87 -47,6.81 -63.09,-6.53 L 108.59,250.77 87.68,235.43 184.34,178 c 0,0 57.94,50.72 58.05,50.83 z"
           id="path125" />
      </g>
      <g
         id="Слой_5"
         data-name="Слой 5">
        <path
           class="cls-5"
           d="m 317.2,158.38 c 0,0 53.53,40.72 48.19,-71.61 0,0 -66,26.3 -48.19,71.61 z"
           id="path128" />
      </g>
      <g
         id="Слой_50"
         data-name="Слой 50">
        <path
           class="cls-6"
           d="m 77.32,174.13 c 0.37,-0.64 0.76,-1.27 1.19,-1.89 6.22,-9 17.18,-13.18 26.42,-5.77 7.92,6.34 10.11,18.47 4.37,27 -4.64,6.86 -21.41,11.33 -28.27,5.84 -8.24,-6.6 -8.6,-16.69 -3.71,-25.18 z"
           id="path131" />
        <path
           class="cls-7"
           d="m 114.3,189.32 c 0,13.32 -3,15 -15,15 -12,0 -18.3,-4.18 -18.3,-17.5 0,-13.32 9.68,-24.12 21.62,-24.12 11.94,0 11.68,13.3 11.68,26.62 z"
           id="path133" />
        <path
           class="cls-8"
           d="m 77.32,174.13 c 0.37,-0.64 0.76,-1.27 1.19,-1.89 6.22,-9 17.18,-13.18 26.42,-5.77 7.92,6.34 10.11,18.47 4.37,27 -4.64,6.86 -21.41,11.33 -28.27,5.84 -8.24,-6.6 -8.6,-16.69 -3.71,-25.18 z"
           id="path135" />
        <circle
           class="cls-6"
           cx="91.839996"
           cy="173.50999"
           r="4.1599998"
           id="circle137" />
      </g>
      <g
         id="Слой_22"
         data-name="Слой 22">
        <path
           class="cls-1"
           d="m 152.4,156.37 -45.16,12.4 c 0,0 11.15,28.81 -38.84,58.82 l -9.75,6.48 c 0,0 10.58,21.7 35.28,19.58 0,0 23.18,-11.23 67.22,-24.9 0,0 24,-38 43.13,-45.55 z"
           id="path140" />
      </g>
      <g
         id="Слой_10"
         data-name="Слой 10">
        <path
           class="cls-9"
           d="m 102.69,162.7 a 9.2,9.2 0 0 1 7.41,3.3 15.32,15.32 0 0 1 3.34,7.61 32.35,32.35 0 0 1 -1.54,15.37 66.72,66.72 0 0 1 -10.61,19.52 27.38,27.38 0 0 1 -2.66,2.91 l -0.4,0.36 -0.35,0.3 -0.69,0.59 -1.4,1.16 c -7.53,6.08 -15.64,11 -23.57,16.08 -7.93,5.08 -15.79,10.05 -22.77,16 a 71.34,71.34 0 0 0 -9.55,9.73 36.18,36.18 0 0 0 -6.33,11.61 c -2.84,8.49 -3,17.85 -1.59,26.87 a 90.41,90.41 0 0 0 8.51,26.14 97.29,97.29 0 0 0 15.65,22.75 l -2.57,2.42 A 101.44,101.44 0 0 1 37,322 95,95 0 0 1 27.78,294.79 c -1.58,-9.5 -1.6,-19.51 1.42,-29 a 41.11,41.11 0 0 1 7,-13.12 77,77 0 0 1 10.06,-10.51 c 14.57,-12.68 31.85,-21 46,-32.69 0.45,-0.36 0.88,-0.73 1.31,-1.11 l 0.64,-0.56 0.32,-0.28 0.25,-0.24 a 22,22 0 0 0 2,-2.35 43.32,43.32 0 0 0 3.55,-5.61 62.49,62.49 0 0 0 5,-12.37 35.15,35.15 0 0 0 1.57,-12.45 21.78,21.78 0 0 0 -1.4,-5.57 52.71,52.71 0 0 0 -2.81,-6.23 z"
           id="path143" />
      </g>
      <g
         id="Слой_3"
         data-name="Слой 3">
        <polygon
           class="cls-10"
           points="80.11,286.66 81.22,313.2 69.48,313.82 67.79,287.31 "
           id="polygon146" />
        <path
           class="cls-11"
           d="M 48.85,336.7 A 180.81,180.81 0 0 0 81,360.45 c 34.81,19.85 79.34,10.4 114.31,-4.9 0,0 -82.86,68.6 -146.46,-18.85 z"
           id="path148" />
        <path
           class="cls-12"
           d="m 123.67,123.66 a 19.9,19.9 0 0 1 13.32,-0.11 c 10,3.82 11.5,16.66 9.74,27.15 -2.17,12.91 -8.41,22.66 -17.36,30.51 -2.7,2.36 -6.5,5.27 -10.07,4.12 -5.58,-1.8 -6.09,-10.36 -5.32,-15.78 0.47,-3.33 5.56,-12.29 0.57,-14.47 a 4.19,4.19 0 0 0 -1.65,-0.24 55.25,55.25 0 0 1 -10.32,-1.12 6.39,6.39 0 0 1 -3,-1.22 c -1.59,-1.37 -2,-4 -1.44,-6.25 1.23,-5.12 5.5,-9 8.91,-12.19 a 49.56,49.56 0 0 1 16.62,-10.4 z"
           id="path150" />
        <path
           class="cls-12"
           d="m 168.06,185.49 a 15.34,15.34 0 0 1 -0.3,-1.92 c -0.93,-10.09 0,-20.56 4,-29.95 3.76,-8.77 11.73,-19.7 21.68,-21.76 7.61,-1.58 16,0.28 23.07,3.17 17,7 31.47,20.06 42.17,34.83 2.14,2.95 4.22,6.64 2.92,10 a 8.76,8.76 0 0 1 -4.8,4.46 c -5.54,2.51 -12.11,1.89 -17.73,-0.42 -5.62,-2.31 -10.46,-6.17 -15,-10.16 -4,-3.42 -8.6,-4.19 -13.74,-3.26 -7.5,1.35 -7.87,6.17 -11.29,11.32 -3.81,5.74 -11.76,11.79 -18.53,13.14 -6.77,1.35 -11.21,-3.63 -12.45,-9.45 z"
           id="path152" />
        <path
           class="cls-4"
           d="m 78.87,291.85 0.48,16 a 3.32,3.32 0 0 0 1.88,3 l 38.45,15.16 c 3.29,1.6 3.74,1.35 4.16,-2.28 l 2.51,-21.67 a 5.3,5.3 0 0 0 -5.37,-5.92 l -36.32,-6.65 c -1.26,0.07 -5.79,1.1 -5.79,2.36 z"
           id="path154" />
        <path
           class="cls-4"
           d="M 44.9,316.77 69.09,312 c 1.58,-0.35 3.57,-3.92 3.21,-5.49 l -2,-11.69 C 70,293.42 68.73,291 67.34,291 l -21.48,5.57 a 2.9,2.9 0 0 0 -2.73,3.6 l 3,12.2 c 0.41,1.53 -2.77,4.74 -1.23,4.4 z"
           id="path156" />
        <path
           class="cls-13"
           d="m 46,256.11 c 3,-30.63 60.64,-26.88 68.4,-1 2.79,9.31 -4.28,17.08 -11.51,22.63 C 95.25,283.62 85.59,291 76,293.58 67.85,295.8 59.6,285.24 55.21,279.58 49.56,272.35 45.15,265 46,256.11 Z"
           id="path158" />
        <path
           class="cls-10"
           d="m 109.57,268.44 c -0.55,-0.21 -1.19,0.64 -2.18,1.24 a 11.11,11.11 0 0 1 -4.71,1.61 c -2.53,0.22 -7.76,-1.09 -7.65,-4.44 a 13.87,13.87 0 0 1 0.42,-2.19 c 1.37,-6.5 -3.91,-12.26 -10.35,-9.57 -4.54,1.91 -5.66,4.82 -4.15,9.35 0,0 3,9.11 16.7,10.62 a 15.22,15.22 0 0 0 9.55,-2.54 c 1.3,-0.83 2.32,-1.45 2.61,-3.06 0.12,-0.64 0,-0.92 -0.24,-1.02 z"
           id="path160" />
        <path
           class="cls-10"
           d="m 50.07,257.36 a 8.93,8.93 0 0 1 1.52,-4.5 c 2.12,-3.33 6.8,-6.11 9.66,-2 2.39,3.48 4.09,10.22 1.09,13.81 a 16.62,16.62 0 0 1 -6.16,4.05 7.27,7.27 0 0 1 -2.91,0.58 14.51,14.51 0 0 1 -3.21,-1.3 c 1.93,-1.31 3.72,-3.38 2.32,-5.76 -0.56,-1 -1.39,-1.76 -1.87,-2.76 a 4.68,4.68 0 0 1 -0.44,-2.12 z"
           id="path162" />
      </g>
      <g
         id="Слой_49"
         data-name="Слой 49">
        <path
           class="cls-7"
           d="m 176.13,218 c 0,0 11.68,-31.61 39.93,-31.61 0,0 21.62,3.33 29.94,23.29 2.77,6.69 -13.18,17.48 -17.82,19.72 a 40.64,40.64 0 0 1 -31.79,1.2 C 194,229.72 173.88,221.28 176.13,218 Z"
           id="path165" />
        <path
           class="cls-6"
           d="m 198.49,230.3 a 25.08,25.08 0 0 1 -6.15,-5.71 c -6.69,-8.55 -5.79,-17.35 1.46,-24.7 7.07,-7.18 19.22,-9 28.91,-8.51 0,0 18.3,6.66 20,20 0,0 -7.61,15 -20.44,20 -8.6,3.25 -16.91,3.34 -23.78,-1.08 z"
           id="path167" />
        <path
           class="cls-14"
           d="m 198.49,230.3 a 25.08,25.08 0 0 1 -6.15,-5.71 c -6.69,-8.55 -4.12,-20.68 3.12,-28 7.07,-7.17 17.56,-5.64 27.25,-5.18 0,0 18.3,6.66 20,20 0,0 -7.61,15 -20.44,20 -8.6,3.22 -16.91,3.31 -23.78,-1.11 z"
           id="path169" />
        <path
           class="cls-7"
           d="m 204.41,217.17 c 0,-15.16 10.8,-25 24.12,-25 3.33,0 4.86,5.81 6.65,6.66 5.39,2.53 5,0 7.49,12.47 1.63,8.15 -6.82,12.8 -10.81,15.81 -3.3,2.47 -3.33,3.32 -9.15,4.15 -13.19,1.93 -18.3,1.06 -18.3,-14.09 z"
           id="path171" />
        <path
           class="cls-6"
           d="m 221.05,202.19 c 0,2.3 -3.36,2.5 -7.49,2.5 -4.13,0 -7.49,-0.2 -7.49,-2.5 0,-2.3 3.36,-4.15 7.49,-4.15 4.13,0 7.49,1.86 7.49,4.15 z"
           id="path173" />
      </g>
      <g
         id="Слой_26"
         data-name="Слой 26">
        <path
           class="cls-15"
           d="m 60.26,321.27 c 0,0 1.56,12.64 21.22,15.41 0,0 10,2.29 26.11,-7.16 l -32.72,-13.3 z"
           id="path176" />
      </g>
      <g
         id="Слой_25"
         data-name="Слой 25">
        <path
           class="cls-10"
           d="m 38.45,316.28 c 3.18,1.39 5.89,0.57 8.68,-0.24 1.4,-0.43 2.81,-1 4.32,-1.49 l 2.23,-0.74 2.09,-0.74 c 2.76,-1 5.62,-1.33 8.38,-2.22 1.4,-0.44 2.7,-0.92 4.13,-1.49 a 17.07,17.07 0 0 1 6.37,-1.55 11.63,11.63 0 0 1 3.92,0.71 15.5,15.5 0 0 1 3,1.5 c 0.84,0.53 1.56,1.07 2.19,1.53 0.63,0.46 1.17,0.87 1.78,1.28 a 86.52,86.52 0 0 0 7.81,4.6 l 16.63,9 4.16,2.26 c 1.38,0.74 2.65,1.37 4,2 a 48.87,48.87 0 0 0 26.44,3.5 l 2.24,-0.38 2.24,-0.47 4.62,-1.11 9.23,-2.22 c 6.15,-1.47 12.3,-2.95 18.43,-4.51 l 0.61,2.39 c -6.08,1.71 -12.15,3.49 -18.2,5.29 l -9.1,2.68 -4.54,1.34 -2.36,0.68 -2.4,0.57 a 54.19,54.19 0 0 1 -29.49,-1.93 c -1.56,-0.55 -3.17,-1.22 -4.63,-1.87 l -4.32,-2 -17.32,-7.91 a 82.38,82.38 0 0 1 -8.82,-4.48 c -0.73,-0.43 -1.5,-0.92 -2.16,-1.36 -0.66,-0.44 -1.25,-0.8 -1.77,-1.09 a 3.45,3.45 0 0 0 -2,-0.62 10.37,10.37 0 0 0 -2.68,1 c -1.47,0.7 -3.11,1.41 -4.69,2 -3.2,1.2 -6.48,2.43 -10,2.58 -0.86,0 -1.73,0 -2.59,0 l -1.29,-0.06 -1.19,-0.1 c -1.62,-0.15 -3.36,-0.31 -5.12,-0.65 a 25.13,25.13 0 0 1 -2.65,-0.68 17.23,17.23 0 0 1 -2.57,-1.12 8.14,8.14 0 0 1 -3.61,-3.88 z"
           id="path179" />
      </g>
      <g
         id="Слой_35"
         data-name="Слой 35">
        <g
           class="cls-16"
           id="g184">
          <path
             class="cls-17"
             d="m 158.87,150.79 a 33.67,33.67 0 0 1 2.39,-12.61 48.78,48.78 0 0 1 15.05,-20.68 42.54,42.54 0 0 1 5.28,-3.67 24.8,24.8 0 0 1 2.85,-1.48 c 1,-0.46 1.94,-0.9 2.94,-1.28 -1.36,1.7 -2.87,3.12 -4.25,4.68 -1.38,1.56 -2.82,3 -4.11,4.59 -2.72,3 -5.16,6.22 -7.57,9.43 a 120.51,120.51 0 0 0 -6.65,10.1 c -2.09,3.49 -4.05,7.13 -5.93,10.92 z"
             id="path182" />
        </g>
      </g>
      <g
         id="Слой_13"
         data-name="Слой 13">
        <path
           class="cls-18"
           d="M 381.17,54 A 145.32,145.32 0 0 0 374.8,37.85 c -10.3,-22.06 -27,-10 -40.26,2.4 -20.92,19.51 -46.39,43.4 -57.63,46 -3,0.68 -6,0.24 -9,-0.17 -23.13,-3.11 -48.1,0.07 -70.59,-5.56 C 171.2,74 162.44,62.62 152.13,38.09 148,28.29 126.79,-15.4 116.75,15.37 c -1.33,4.07 -1.53,8.42 -1.73,12.71 -0.73,16.06 0.65,32.17 -1.27,48.19 -0.77,6.37 -1.14,13.07 -3.7,19 -2.79,6.5 -7.46,12.06 -12.36,17.08 C 83,127.44 65.34,139.1 51.41,155.19 37.63,171.12 28.8,189.69 20.94,209 12.79,229.1 6,250.07 4.76,271.83 c -2,35.84 11.25,71.45 34.83,98.29 32.82,37.35 66.1,61.13 117,68.13 54.83,7.56 109.27,-1.64 151.12,-36.67 29.12,-24.37 54.29,-56 66.4,-92.73 a 155.61,155.61 0 0 0 7.6,-57.87 c -1.18,-19.84 -2.22,-44.55 -12.51,-62 -2.5,-4.43 4.23,-11.88 6.14,-15.45 C 393.8,138.92 393.17,90.6 381.17,54 Z"
           id="path187" />
      </g>
    </g>
  </g>
</svg>
