<?xml version="1.0" encoding="UTF-8" standalone="no"?>
<svg
   xmlns:dc="http://purl.org/dc/elements/1.1/"
   xmlns:cc="http://creativecommons.org/ns#"
   xmlns:rdf="http://www.w3.org/1999/02/22-rdf-syntax-ns#"
   xmlns:svg="http://www.w3.org/2000/svg"
   xmlns="http://www.w3.org/2000/svg"
   xmlns:sodipodi="http://sodipodi.sourceforge.net/DTD/sodipodi-0.dtd"
   xmlns:inkscape="http://www.inkscape.org/namespaces/inkscape"
   version="1.1"
   id="Слой_1"
   x="0px"
   y="0px"
   viewBox="0 0 386.38621 436.02824"
   xml:space="preserve"
   sodipodi:docname="dogeSkinBack.svg"
   width="386.3862"
   height="436.02823"
   inkscape:version="1.0.2-2 (e86c870879, 2021-01-15)"><metadata
   id="metadata218"><rdf:RDF><cc:Work
       rdf:about=""><dc:format>image/svg+xml</dc:format><dc:type
         rdf:resource="http://purl.org/dc/dcmitype/StillImage" /></cc:Work></rdf:RDF></metadata><defs
   id="defs216" /><sodipodi:namedview
   pagecolor="#ffffff"
   bordercolor="#666666"
   borderopacity="1"
   objecttolerance="10"
   gridtolerance="10"
   guidetolerance="10"
   inkscape:pageopacity="0"
   inkscape:pageshadow="2"
   inkscape:window-width="1920"
   inkscape:window-height="1001"
   id="namedview214"
   showgrid="false"
   inkscape:zoom="1.863912"
   inkscape:cx="193.83127"
   inkscape:cy="218.13021"
   inkscape:window-x="-9"
   inkscape:window-y="-9"
   inkscape:window-maximized="1"
   inkscape:current-layer="Слой_1" />
<style
   type="text/css"
   id="style209">
	.st0{fill:#343533;}
</style>
<path
   class="st0"
   d="m 378.38128,246.48022 c -1.1,-19.1 -2.2,-42.7 -11.4,-60 -0.3,-1.9 -0.2,-3.8 0.4,-5.9 1.5,-5.3 4.9,-9.8 6.8,-14.9 1.2,-3 1.9,-4.9 2.3,-6.3 10.6,-25.9 12.1,-57.4 7.3,-85.700004 -1.2,-13.8 -4.3,-27.4 -10.4,-38.2 -1,-1.7 -2,-3.3 -3.1,-4.6 -3.9,-7 -8.5,-9.7 -13.5,-9.8 -0.3,-0.4 -1.1,-0.5 -2.6,0.2 -5.8,0.9 -12,5 -17.7,9.8 -20.8,13.6 -30.7,29.2 -54.2,43.4 -14,8.4 -19.4,6.1 -33.1,3.8 -10.8,-1.7 -21.8,-1.4 -32.5,0.9 -5.8,-0.4 -11.5,-1 -17.2,-2 -5,-1.4 -9.9,-3 -13.9,-3.7 -0.5,-0.2 -0.9,-0.3 -1.4,-0.5 l -14.3,-7.6 c -0.5,-0.4 -0.9,-0.7 -1.4,-1.1 -5.6,-5.6 -10.6,-12.8 -14.4,-19.2 -1.8,-3.5 -3.5,-7.3 -5.3,-11.5 -1.2,-2.8 -3.8,-8.5 -7.2,-14.4 -4,-8.7 -9.9,-18.59999957 -16.9,-18.89999957 -4.2,-1.2 -8.2,1.29999997 -11.3,10.49999957 -0.5,1.7 -0.9,3.4 -1.1,5.1 -1.4,5.7 -1.8,11.7 -1.2,17.6 0.9,8.8 -0.4,17.4 -1.3,26.3 -0.5,5.4 0.8,10.8 0.2,16 0,0.1 0,0.2 0,0.2 -0.1,1.2 -0.4,2.3 -0.7,3.5 -2,6.3 -4.3,12.6 -6.8,18.8 -2.4,3.400004 -5.200004,6.600004 -8.100004,9.500004 -0.9,0.9 -1.8,1.8 -2.7,2.7 -5.8,4.3 -11.9,8.7 -18.9,13.8 -17,12.4 -32,27.8 -40.6,47.1 -5.2,11.8 -13.3,22 -15.5,34.3 -0.1,0.6 -0.3,1.3 -0.4,1.9 -5.2,13.1 -9.6999999,26.6 -12.3999999,40.4 -11.7,40.4 4.2,85.5 32.2999999,117.5 -0.5,-0.6 -1,-1.2 -1.4,-1.6 0.5,0.5 0.9,1.1 1.4,1.6 1.4,1.6 2.8,3.2 4.3,4.7 5,5.9 13.7,15.3 25.7,24.9 24.3,20.3 51.300004,33.5 87.100004,38.5 29.3,4 58.5,3.3 85.7,-3.6 18.2,-3.5 36,-10.7 52.8,-23 0,0 2.9,-2.1 7.6,-6.1 1.7,-1.3 3.4,-2.6 5,-4 12.5,-10.4 24.2,-22.2 34.5,-35.1 3.9,-4.6 7.6,-9.5 10.8,-14.9 0.2,-0.3 0.5,-0.7 0.7,-1 1.4,-1.6 9.8,-11.5 15.5,-26.6 6,-12.9 10.3,-26.6 11.4,-40.7 0.2,-1.5 0.2,-3.2 0.2,-4.9 1.2,-9 1.4,-18.1 0.9,-27.2 z"
   id="path211" />
</svg>
