<?xml version="1.0" encoding="UTF-8" standalone="no"?>
<!-- Generator: Adobe Illustrator 16.0.0, SVG Export Plug-In . SVG Version: 6.00 Build 0)  -->

<svg
   xmlns:dc="http://purl.org/dc/elements/1.1/"
   xmlns:cc="http://creativecommons.org/ns#"
   xmlns:rdf="http://www.w3.org/1999/02/22-rdf-syntax-ns#"
   xmlns:svg="http://www.w3.org/2000/svg"
   xmlns="http://www.w3.org/2000/svg"
   xmlns:sodipodi="http://sodipodi.sourceforge.net/DTD/sodipodi-0.dtd"
   xmlns:inkscape="http://www.inkscape.org/namespaces/inkscape"
   version="1.1"
   id="Layer_1"
   x="0px"
   y="0px"
   width="427.112"
   height="427.112"
   viewBox="0 0 427.112 427.112"
   enable-background="new 0 0 1000 1000"
   xml:space="preserve"
   sodipodi:docname="eyePattern.svg"
   inkscape:version="0.92.4 (5da689c313, 2019-01-14)"><metadata
   id="metadata322"><rdf:RDF><cc:Work
       rdf:about=""><dc:format>image/svg+xml</dc:format><dc:type
         rdf:resource="http://purl.org/dc/dcmitype/StillImage" /></cc:Work></rdf:RDF></metadata><defs
   id="defs320" /><sodipodi:namedview
   pagecolor="#ffffff"
   bordercolor="#666666"
   borderopacity="1"
   objecttolerance="10"
   gridtolerance="10"
   guidetolerance="10"
   inkscape:pageopacity="0"
   inkscape:pageshadow="2"
   inkscape:window-width="640"
   inkscape:window-height="480"
   id="namedview318"
   showgrid="false"
   inkscape:zoom="0.236"
   inkscape:cx="213.20801"
   inkscape:cy="214.112"
   inkscape:window-x="0"
   inkscape:window-y="0"
   inkscape:window-maximized="0"
   inkscape:current-layer="Layer_1" />
<rect
   x="0"
   y="0"
   width="427.112"
   height="427.112"
   id="rect277"
   style="fill:#309c8a" />
<g
   id="g285"
   transform="translate(-286.79199,-287)">
	<path
   d="m 559.354,621.186 c 9.129,30.057 85.032,64.297 100.624,54.186 15.595,-10.111 -5.149,-87.264 -16.85,-102.493 -28.401,-36.961 -92.899,18.25 -83.774,48.307 z"
   id="path279"
   inkscape:connector-curvature="0"
   style="fill:#fbac27" />
	<path
   d="m 613.765,666.436 c 19.896,9.027 39.183,13.496 46.213,8.932 7.885,-5.109 6.474,-27.352 1.647,-50.068 -22.734,5.395 -42.45,19.12 -47.86,41.136 z"
   id="path281"
   inkscape:connector-curvature="0"
   style="fill:#ffffff" />
	<path
   d="m 580.458,646.748 c 9.748,7.537 21.632,14.397 33.307,19.688 5.41,-22.016 25.126,-35.74 47.86,-41.137 -2.951,-13.898 -7.181,-27.972 -11.354,-38.407 -31.748,5.413 -60.417,28.989 -69.813,59.856 z"
   id="path283"
   inkscape:connector-curvature="0"
   style="fill:#ec4b03" />
</g>
<g
   id="g311"
   transform="translate(-286.79199,-287)">
	<g
   id="g305">
		<path
   d="m 633.47,424.335 c 0,0 0.459,21.858 8.069,43.724 7.618,21.867 15.423,27.166 15.423,27.166 0,0 22.633,-10.956 36.219,-29.056 19.975,-26.613 11.588,-47.493 11.588,-47.493 0,0 -16.125,-3.824 -36.388,-1.324 -20.262,2.495 -34.911,6.983 -34.911,6.983 z"
   id="path287"
   inkscape:connector-curvature="0"
   style="fill:#ec034d" />
		<path
   d="m 559.815,381.005 c 0,0 -1.111,-21.832 -9.379,-43.461 -8.27,-21.629 -16.232,-26.692 -16.232,-26.692 0,0 -22.295,11.636 -35.325,30.133 -19.173,27.197 -10.161,47.815 -10.161,47.815 0,0 16.232,3.341 36.41,0.236 20.178,-3.105 34.687,-8.031 34.687,-8.031 z"
   id="path289"
   inkscape:connector-curvature="0"
   style="fill:#ec034d" />
		<path
   d="m 555.05,375.519 c -3.833,-15.087 -9.005,-34.418 -20.566,-45.593 -0.593,-0.574 -1.385,0.239 -1.182,0.886 2.445,7.742 7.296,14.823 10.703,22.202 3.468,7.511 6.485,15.149 9.008,23.026 0.363,1.129 2.331,0.649 2.037,-0.521 z"
   id="path291"
   inkscape:connector-curvature="0"
   style="fill:#fbecb2" />
		<path
   d="m 556.002,375.263 c -8.966,1.744 -17.353,3.39 -26.574,3.084 -7.588,-0.252 -15.42,-2.21 -22.98,-1.42 -0.464,0.048 -0.563,0.731 -0.123,0.902 7.412,2.895 16.415,3.042 24.289,3.131 8.652,0.1 17.904,-0.477 25.648,-4.68 0.482,-0.26 0.387,-1.142 -0.26,-1.017 z"
   id="path293"
   inkscape:connector-curvature="0"
   style="fill:#fbecb2" />
		<path
   d="m 554.448,377.08 c -5.439,-0.354 -13.839,-10.937 -17.376,-14.415 -5.131,-5.045 -9.935,-10.546 -15.654,-14.935 -0.818,-0.627 -1.768,0.401 -1.246,1.224 5.09,8.047 12.724,14.541 19.879,20.724 3.824,3.305 8.773,9.716 14.39,8.685 0.681,-0.126 0.781,-1.234 0.007,-1.283 z"
   id="path295"
   inkscape:connector-curvature="0"
   style="fill:#fbecb2" />
		<path
   d="m 641.025,428.17 c 15.401,0.758 31.254,4.311 46.62,3.774 0.455,-0.018 0.566,-0.773 0.122,-0.903 -14.585,-4.349 -31.651,-3.384 -46.737,-3.454 -0.333,0.001 -0.338,0.568 -0.005,0.583 z"
   id="path297"
   inkscape:connector-curvature="0"
   style="fill:#fbecb2" />
		<path
   d="m 635.038,428.752 c 14.295,6.913 26.82,17.285 41.02,24.002 0.666,0.315 1.4,-0.593 0.907,-1.163 -10.099,-11.691 -27.234,-18.881 -41.299,-24.363 -0.987,-0.39 -1.581,1.061 -0.628,1.524 z"
   id="path299"
   inkscape:connector-curvature="0"
   style="fill:#fbecb2" />
		<path
   d="m 631.688,432.259 c 5.808,6.81 11.189,13.904 16.217,21.307 4.961,7.308 8.654,15.823 14.298,22.567 0.651,0.778 1.715,0.089 1.478,-0.823 -4.307,-16.522 -18.696,-32.271 -30.009,-44.525 -1.061,-1.144 -3.028,0.249 -1.984,1.474 z"
   id="path301"
   inkscape:connector-curvature="0"
   style="fill:#fbecb2" />
		<path
   d="m 560.638,363.401 c -16.617,15.432 -21.843,41.852 -12.354,62.449 9.487,20.596 32.969,33.792 55.493,31.189 22.524,-2.6 42.378,-20.806 46.922,-43.021 10.286,-50.297 -52.442,-85.552 -90.061,-50.617 z"
   id="path303"
   inkscape:connector-curvature="0"
   style="fill:#ec034d" />
	</g>
	<path
   d="m 603.805,349.952 c -14.75,24.739 -36.401,39.08 -60.094,50.357 -0.465,7.45 0.623,14.938 3.195,21.936 29.615,-16.089 55.865,-36.241 79.442,-63.783 -6.829,-4.343 -14.531,-7.332 -22.543,-8.51 z"
   id="path307"
   inkscape:connector-curvature="0"
   style="fill:#fbecb2" />
	<path
   d="m 641.899,373.032 c -20.842,30.234 -47.807,55.211 -78.471,71.883 5.842,4.67 12.626,8.173 19.799,10.258 25.948,-13.781 48.618,-33.423 68.363,-55.973 -0.765,-9.805 -4.263,-18.706 -9.691,-26.168 z"
   id="path309"
   inkscape:connector-curvature="0"
   style="fill:#fbecb2" />
</g>
<polygon
   points="352.325,337.977 357.339,377.563 317.352,391.362 359.424,397.927 374.409,440.155 380.491,402.627 418.605,409.838 392.09,386.531 410.096,349.909 377.008,368.681 "
   id="polygon313"
   style="fill:#fbf6ce"
   transform="translate(-286.79199,-287)" />
<polygon
   points="363.249,605.805 390.371,617.823 383.797,648.576 404.134,624.315 436.771,631.004 415.219,612.714 434.453,591.219 409.433,599.15 393.038,573.619 392.276,601.891 "
   id="polygon315"
   style="fill:#ec4b03"
   transform="translate(-286.79199,-287)" />
</svg>