<?xml version="1.0" encoding="UTF-8" standalone="no"?>
<!-- Generator: Adobe Illustrator 16.0.0, SVG Export Plug-In . SVG Version: 6.00 Build 0)  -->

<svg
   xmlns:dc="http://purl.org/dc/elements/1.1/"
   xmlns:cc="http://creativecommons.org/ns#"
   xmlns:rdf="http://www.w3.org/1999/02/22-rdf-syntax-ns#"
   xmlns:svg="http://www.w3.org/2000/svg"
   xmlns="http://www.w3.org/2000/svg"
   xmlns:sodipodi="http://sodipodi.sourceforge.net/DTD/sodipodi-0.dtd"
   xmlns:inkscape="http://www.inkscape.org/namespaces/inkscape"
   version="1.1"
   id="Layer_3"
   x="0px"
   y="0px"
   width="344.49261"
   height="344.57132"
   viewBox="0 0 344.49261 344.57132"
   enable-background="new 0 0 1000 1000"
   xml:space="preserve"
   sodipodi:docname="eyeSkin.svg"
   inkscape:version="0.92.4 (5da689c313, 2019-01-14)"><metadata
   id="metadata228"><rdf:RDF><cc:Work
       rdf:about=""><dc:format>image/svg+xml</dc:format><dc:type
         rdf:resource="http://purl.org/dc/dcmitype/StillImage" /></cc:Work></rdf:RDF></metadata><defs
   id="defs226" /><sodipodi:namedview
   pagecolor="#ffffff"
   bordercolor="#666666"
   borderopacity="1"
   objecttolerance="10"
   gridtolerance="10"
   guidetolerance="10"
   inkscape:pageopacity="0"
   inkscape:pageshadow="2"
   inkscape:window-width="640"
   inkscape:window-height="480"
   id="namedview224"
   showgrid="false"
   inkscape:zoom="0.236"
   inkscape:cx="172.33402"
   inkscape:cy="171.53498"
   inkscape:window-x="0"
   inkscape:window-y="0"
   inkscape:window-maximized="0"
   inkscape:current-layer="Layer_3" />
<g
   id="g221"
   transform="translate(-327.66598,-326.96365)">
	<g
   id="g207">
		<path
   d="m 657.138,556.696 c 31.695,-86.757 -13.004,-182.915 -99.748,-214.625 -86.763,-31.702 -182.936,12.996 -214.629,99.758 -31.703,86.746 12.994,182.93 99.749,214.618 86.753,31.703 182.927,-13.005 214.628,-99.751"
   id="path185"
   inkscape:connector-curvature="0"
   style="fill:#ffffff" />
		<path
   d="m 442.463,656.571 c 63.099,23.043 133.64,6.29 179.678,-42.729 15.531,-16.518 27.311,-35.734 35.14,-57.13 17.184,-47.087 11.833,-97.032 -10.541,-137.911 0.205,0.502 0.407,1.019 0.596,1.538 2.337,6.117 4.266,12.376 5.569,18.807 1.27,6.275 2.07,12.707 2.29,19.122 0.376,13.522 -1.57,27.06 -5.445,39.985 -2.085,7.059 -4.656,13.945 -7.623,20.644 -3.467,7.765 -7.277,15.388 -11.827,22.572 -4.36,6.898 -9.302,13.534 -14.949,19.464 -5.239,5.491 -10.98,10.478 -17.302,14.729 -6.291,4.251 -13.035,7.857 -20.078,10.681 -7.153,2.855 -14.51,5.085 -22.025,6.667 -8.061,1.695 -16.203,2.794 -24.406,3.422 -2.463,0.187 -4.949,0.36 -7.42,0.472 -1.145,0.061 -2.353,0.106 -3.514,0.123 -1.781,0 -3.601,-0.046 -5.373,-0.111 -11.114,-0.375 -22.251,-0.859 -33.342,0.298 0.142,0 0.283,-0.014 0.433,-0.014 -4.511,0.501 -8.975,1.271 -13.247,2.839 -0.023,0.016 -0.039,0.031 -0.08,0.047 0.041,-0.016 0.057,-0.031 0.08,-0.047 -0.08,0.031 -0.15,0.047 -0.229,0.079 -1.521,0.644 -2.995,1.38 -4.351,2.322 -0.801,0.611 -1.531,1.239 -2.206,2.007 -0.046,0.03 -0.085,0.109 -0.133,0.157 l 0.024,-0.016 -0.024,0.016 c -0.384,0.534 -0.714,1.097 -1.044,1.694 -0.313,0.752 -0.51,1.536 -0.667,2.335 -0.086,0.848 -0.07,1.681 -0.008,2.541 0.174,1.21 0.463,2.354 0.848,3.5 0,-0.018 0,-0.03 0,-0.03 0.392,0.939 0.854,1.818 1.421,2.665 0.83,1.099 1.741,2.054 2.769,2.95 0.871,0.707 1.788,1.363 2.744,1.945 1.061,0.595 2.078,1.129 3.192,1.63 4.91,2.102 10.103,3.279 15.373,4.126 h -0.062 c 6.508,0.942 13.089,1.317 19.637,1.537 0.761,0.032 1.413,0.55 1.586,1.285 0.165,0.739 -0.156,1.524 -0.825,1.867 -4.392,2.228 -9.072,3.984 -13.89,5.004 -4.571,0.958 -9.254,1.459 -13.937,1.413 -10.235,-0.063 -20.416,-2.165 -30.063,-5.474 -10.251,-3.517 -20.047,-8.189 -29.381,-13.664 -8.918,-5.224 -17.5,-11.122 -25.594,-17.585 -4.689,-3.702 -9.247,-7.561 -13.599,-11.688 -5.374,-5.049 -10.447,-10.367 -15.232,-15.969 -10.069,-11.858 -19.02,-24.72 -26.258,-38.456 -1.476,-2.811 -2.887,-5.649 -4.22,-8.504 9.945,57.096 49.279,107.544 107.515,128.845"
   id="path187"
   inkscape:connector-curvature="0"
   style="fill:#ecebea" />
		<path
   d="m 464.832,602.188 c -0.04,0.031 -0.08,0.063 -0.118,0.078 0.038,-0.016 0.078,-0.047 0.118,-0.078"
   id="path189"
   inkscape:connector-curvature="0"
   style="fill:#ecebea" />
		<path
   d="m 462.949,617.669 c -0.087,-0.156 -0.165,-0.249 -0.235,-0.377 0.055,0.141 0.141,0.252 0.235,0.377"
   id="path191"
   inkscape:connector-curvature="0"
   style="fill:#ecebea" />
		<path
   d="m 500.377,632.07 c -0.07,0 -0.15,0.047 -0.22,0.078 0.07,-0.031 0.126,-0.064 0.22,-0.078"
   id="path193"
   inkscape:connector-curvature="0"
   style="fill:#ecebea" />
		<path
   d="m 482.643,539.712 -0.188,0.221 c -0.839,1.004 -1.186,2.081 -1.216,3.729 -0.048,4.877 0.753,9.254 2.407,13.019 1.569,3.563 4.087,6.871 7.468,9.805 2.8,2.385 6.132,4.235 9.301,5.912 0.824,0.455 1.68,0.911 2.52,1.351 l 0.893,0.472 0.786,0.39 c 1.794,0.941 3.575,1.883 5.302,2.966 1.881,1.285 3.37,2.479 4.665,3.796 0.832,1.051 1.561,2.087 2.229,3.248 0.501,1.161 0.917,2.321 1.198,3.545 l 0.132,1.021 c -0.148,0.343 -0.352,0.72 -0.57,1.111 -0.675,0.926 -1.404,1.806 -2.127,2.698 l -0.57,0.69 -0.504,0.566 c -1.811,2.243 -3.324,4.424 -4.62,6.664 -2.933,5.086 -3.222,11.327 -0.752,17.101 2.173,5.144 6.321,9.821 12.706,14.305 4.831,3.403 10.4,6.291 16.518,8.534 1.521,0.579 2.667,0.658 3.859,0.236 0.784,-0.298 1.52,-0.786 2.055,-1.367 0.391,-0.406 0.705,-0.876 0.91,-1.331 0.58,-1.289 0.58,-2.888 0,-4.284 -0.534,-1.256 -1.428,-2.148 -2.526,-2.524 -4.502,-1.678 -8.8,-3.747 -12.752,-6.165 -3.317,-2.164 -5.898,-4.268 -8.109,-6.573 -1.153,-1.347 -2.096,-2.651 -2.88,-4.045 -0.4,-0.896 -0.752,-1.806 -1.026,-2.763 -0.087,-0.69 -0.165,-1.397 -0.181,-2.149 0.055,-0.735 0.202,-1.491 0.394,-2.26 0.445,-1.112 0.979,-2.178 1.582,-3.243 0.911,-1.272 1.938,-2.529 2.98,-3.769 1.82,-2.227 3.672,-4.471 4.902,-7.058 1.021,-2.085 1.224,-4.361 0.627,-7.169 -0.549,-2.871 -1.552,-5.489 -3.152,-8.25 -1.309,-2.354 -3.309,-4.33 -5.074,-5.961 -1.922,-1.727 -4.15,-3.075 -6.493,-4.471 -1.702,-1.021 -3.452,-1.962 -5.211,-2.887 l -1.018,-0.534 c -2.258,-1.174 -4.534,-2.322 -6.691,-3.687 -1.826,-1.255 -3.38,-2.524 -4.736,-3.905 -0.848,-1.065 -1.624,-2.133 -2.299,-3.31 -0.612,-1.35 -1.084,-2.729 -1.451,-4.188 -0.345,-2.102 -0.479,-4.188 -0.445,-6.354 0,-1.172 -0.503,-2.301 -1.436,-3.18 -1.132,-1.051 -2.667,-1.615 -4.103,-1.521 -1.281,0.109 -2.449,0.673 -3.304,1.568"
   id="path195"
   inkscape:connector-curvature="0"
   style="fill:#eb9091" />
		<path
   d="m 366.454,569.089 c -0.792,0.83 -1.303,1.74 -1.75,2.604 -1.27,2.182 -1.294,5.082 -1.207,7.656 0.124,3.623 1.223,7.402 2.086,10.447 0.386,1.347 1.726,2.413 2.809,2.855 1.175,0.532 2.588,0.55 3.852,0.013 0.728,-0.281 1.355,-0.689 1.858,-1.236 0.431,-0.458 0.769,-0.99 0.98,-1.54 0.627,-1.472 0.384,-2.775 0.054,-3.859 -0.211,-0.623 -0.376,-1.253 -0.524,-1.88 -0.575,-2.604 -0.855,-4.533 -0.934,-6.226 0.048,-0.74 0.078,-1.148 0.156,-1.604 0.8,0.157 1.413,0.252 2.048,0.377 5.294,1.569 10.266,4.457 15.074,7.246 l 1.31,0.771 c 1.302,0.782 2.941,1.786 4.55,2.776 5.02,3.041 10.689,6.479 16.439,9.145 7.779,3.655 13.436,3.686 16.814,0.077 0.322,-0.345 0.659,-0.734 0.95,-1.144 4.345,-6.59 1.96,-14.635 -1.264,-22.354 -1.247,-3.011 -2.649,-5.914 -4.069,-8.849 l -0.291,-0.611 c -2.172,-4.438 -4.399,-9.051 -6.071,-13.819 -0.344,-0.956 -0.643,-1.913 -0.894,-2.902 -0.234,-1.254 -0.431,-2.511 -0.479,-3.842 0.024,-0.565 0.07,-1.162 0.196,-1.738 l 0.267,-0.815 c 0.078,-0.063 0.164,-0.157 0.235,-0.236 0.141,-0.141 0.306,-0.328 0.431,-0.502 0.385,-0.298 0.755,-0.579 1.176,-0.83 0.794,-0.361 1.625,-0.675 2.463,-0.925 2.111,-0.487 4.582,-0.755 7.759,-0.817 l 2.776,0.08 c 1.552,0.093 2.681,-0.205 3.749,-0.958 0.242,-0.173 0.438,-0.376 0.643,-0.597 0.761,-0.799 1.255,-1.834 1.372,-2.838 0.204,-1.365 -0.281,-2.949 -1.255,-4.142 -0.84,-0.987 -1.953,-1.585 -3.136,-1.647 -4.291,-0.188 -8.855,-0.251 -13.271,0.752 -3.938,0.864 -6.762,2.165 -8.862,4.064 -0.298,0.281 -0.611,0.596 -0.88,0.893 -0.877,0.927 -1.583,1.899 -2.235,3.092 -0.743,1.301 -1.12,2.791 -1.411,4.062 -0.502,2.335 -0.385,5.11 0.361,8.515 1.411,6.322 4.289,12.281 7.073,18.023 l 1.139,2.352 c 2.432,5.036 4.712,9.805 6.077,14.746 0.244,1.209 0.449,2.449 0.502,3.702 -0.039,0.486 -0.077,0.958 -0.156,1.429 -0.533,0.203 -1.012,0.124 -1.505,0.017 -4.668,-1.445 -9.021,-4.003 -13.25,-6.479 l -1.292,-0.755 1.082,0.911 c -1.859,-1.396 -3.859,-2.59 -5.851,-3.781 l -1.678,-1.004 c -2.863,-1.709 -5.733,-3.419 -8.675,-5.034 -4.503,-2.541 -9.404,-5.066 -14.684,-6.228 -2.242,-0.487 -4.518,-0.409 -6.956,0.265 -0.84,0.205 -1.78,0.69 -2.784,1.475 -0.36,0.28 -0.65,0.549 -0.917,0.847"
   id="path197"
   inkscape:connector-curvature="0"
   style="fill:#eb9091" />
		<path
   d="m 351.215,480.229 c -0.251,0.283 -0.472,0.535 -0.707,0.816 -0.862,1.052 -1.566,1.992 -2.179,3.074 -0.472,0.769 -0.849,1.632 -1.225,2.479 l -0.321,0.785 c -0.981,2.243 -1.404,4.706 -1.686,6.838 -0.627,4.486 -0.408,9.333 0.704,14.808 0.941,4.831 2.762,9.679 5.247,14.024 1.421,2.51 4.464,3.467 6.919,2.148 0.519,-0.268 0.964,-0.596 1.334,-0.988 1.543,-1.646 1.89,-4.078 0.838,-5.929 -1.097,-1.93 -2.039,-3.969 -2.902,-6.212 -1.034,-3.217 -1.748,-6.447 -2.117,-9.555 -0.188,-2.667 -0.125,-5.175 0.188,-7.623 0.281,-1.522 0.714,-3.012 1.271,-4.487 0.455,-0.878 0.987,-1.725 1.545,-2.525 0.501,-0.549 1.033,-1.035 1.6,-1.522 0.595,-0.376 1.24,-0.722 1.937,-1.05 0.88,-0.252 1.741,-0.439 2.637,-0.566 1.066,-0.047 2.163,-0.047 3.261,0.079 0.684,0.157 1.367,0.361 2.058,0.612 1.426,0.722 2.805,1.615 4.21,2.761 2.212,1.898 4.243,3.983 6.267,6.086 l 1.521,1.584 c 2.661,2.651 5.805,5.599 9.538,7.529 4.142,2.118 8.579,2.684 12.855,1.631 6.251,-1.458 11.379,-6.101 15.159,-9.96 2.009,-2.132 2.095,-5.27 0.221,-7.293 -0.918,-0.973 -2.353,-1.569 -3.82,-1.584 -1.372,0 -2.61,0.486 -3.474,1.38 -1.97,2.056 -3.733,3.639 -5.545,4.989 -1.335,0.926 -2.659,1.662 -4.069,2.258 -0.707,0.205 -1.389,0.361 -2.088,0.472 -0.611,0.015 -1.217,0.015 -1.805,-0.047 -0.713,-0.125 -1.41,-0.36 -2.109,-0.611 -1.271,-0.645 -2.415,-1.444 -3.568,-2.306 -1.913,-1.616 -3.701,-3.421 -5.475,-5.224 l -0.486,-0.486 c -1.804,-1.868 -3.639,-3.735 -5.6,-5.444 -2.871,-2.479 -5.476,-4.173 -8.204,-5.302 -3.907,-1.632 -7.97,-1.475 -11.066,-1.161 -2.057,0.235 -4.339,1.004 -6.597,2.243 -1.538,0.817 -3.012,1.946 -4.267,3.279"
   id="path199"
   inkscape:connector-curvature="0"
   style="fill:#eb9091" />
		<path
   d="m 387.278,385.075 c -0.958,1.021 -1.49,2.401 -1.459,3.765 0.094,2.776 2.376,4.911 5.277,4.974 0.494,0.015 0.995,0 1.499,0.045 1.24,0.142 2.501,0.393 3.748,0.769 0.926,0.393 1.789,0.848 2.652,1.413 1.05,0.847 2.022,1.789 2.892,2.838 1.248,1.57 2.378,3.264 3.5,4.958 l 0.408,0.628 c 0.885,1.363 1.818,2.729 2.761,4.093 1.576,2.165 3.215,4.142 4.87,5.852 2.328,2.463 5.121,4.423 7.286,5.851 1.146,0.752 2.776,0.738 3.867,0.393 0.917,-0.283 1.71,-0.769 2.297,-1.396 0.299,-0.33 0.566,-0.706 0.801,-1.161 0.627,-1.177 0.769,-2.572 0.376,-3.843 -0.445,-1.537 -1.521,-2.384 -2.508,-3.06 l -1.084,-0.627 c -2.117,-1.742 -4.079,-3.639 -5.937,-5.836 -1.373,-1.757 -2.619,-3.608 -3.883,-5.506 -2.033,-3.058 -3.984,-5.991 -6.392,-8.642 -1.892,-2.087 -4.393,-3.859 -7.044,-5.005 -2.878,-1.301 -6.103,-1.944 -10.408,-2.039 -1.276,-0.032 -2.564,0.516 -3.519,1.536"
   id="path201"
   inkscape:connector-curvature="0"
   style="fill:#eb9091" />
		<path
   d="m 608.417,467.146 c -0.534,0.581 -0.943,1.272 -1.161,2.008 -0.394,1.302 -0.236,2.683 0.409,3.875 0.643,1.207 1.738,2.086 3.057,2.494 1.381,0.424 2.763,0.911 4.094,1.46 1.79,0.83 3.249,1.708 4.471,2.634 0.612,0.518 1.178,1.129 1.68,1.757 0.298,0.455 0.564,0.957 0.8,1.49 0.173,0.549 0.282,1.097 0.346,1.693 0.047,0.911 0,1.789 -0.095,2.684 -0.376,1.93 -1.036,3.936 -1.976,6.132 -2.746,5.71 -6.353,11.092 -9.868,16.283 l -2.447,3.656 c -4.36,6.619 -9.192,13.944 -11.543,22.022 -1.068,3.64 -1.352,7.322 -0.863,10.992 0.579,4.016 2.807,8.079 5.99,10.841 3.231,2.79 7.296,4.69 13.192,6.179 1.24,0.314 2.513,0.598 3.751,0.879 2.541,0.55 5.442,1.207 8.094,2.243 0.533,0.252 1.066,0.58 1.521,0.909 l 0.472,0.534 0.252,0.722 c -0.078,0.455 -0.096,0.909 -0.128,1.334 -0.344,1.489 -0.847,2.902 -1.396,4.314 -1.726,3.606 -3.481,6.573 -5.381,9.035 -0.454,0.579 -0.972,1.112 -1.475,1.646 -2.306,2.479 -5.004,4.896 -8.219,7.42 -2.007,2.148 -2.086,5.317 -0.234,7.28 0.926,0.971 2.193,1.552 3.591,1.599 1.256,0.063 2.369,-0.36 3.672,-1.364 3.215,-2.557 5.944,-5.036 8.345,-7.609 l 1.003,-1.066 c 2.763,-3.058 5.178,-6.839 7.419,-11.527 3.5,-7.201 3.938,-12.787 1.334,-17.068 -2.65,-4.36 -7.465,-6.117 -11.828,-7.279 -1.395,-0.392 -2.806,-0.705 -4.203,-1.02 -2.98,-0.673 -6.385,-1.427 -9.489,-2.65 -1.145,-0.565 -2.213,-1.191 -3.247,-1.977 -0.518,-0.471 -1.021,-0.988 -1.476,-1.537 -0.392,-0.643 -0.735,-1.318 -1.098,-2.07 -0.188,-0.721 -0.329,-1.443 -0.423,-2.182 -0.048,-1.081 -0.016,-2.145 0.094,-3.164 0.393,-2.181 1.113,-4.502 2.307,-7.311 2.886,-6.117 6.743,-11.857 10.462,-17.395 4.268,-6.338 8.424,-12.503 11.389,-19.217 1.38,-3.09 2.212,-5.992 2.635,-9.145 0.282,-1.663 0.173,-3.262 0.016,-4.737 -0.219,-1.646 -0.722,-3.105 -1.224,-4.439 -1.238,-3.295 -3.874,-5.726 -6.321,-7.656 -1.238,-0.925 -2.667,-1.74 -4.503,-2.62 -1.976,-0.957 -4.202,-1.804 -6.571,-2.524 -1.823,-0.549 -3.878,0.016 -5.227,1.442"
   id="path203"
   inkscape:connector-curvature="0"
   style="fill:#eb9091" />
		<path
   d="m 380.722,459.946 c 0.43,14.306 4.18,28.174 11.113,41.209 28.046,52.826 100.519,75.619 161.539,50.757 44.376,-18.098 72.204,-57.252 70.871,-99.777 -0.439,-14.307 -4.189,-28.173 -11.106,-41.192 -28.063,-52.848 -100.535,-75.617 -161.555,-50.762 -44.385,18.087 -72.197,57.255 -70.862,99.765"
   id="path205"
   inkscape:connector-curvature="0"
   style="fill:#c02900" />
	</g>
	<g
   id="g213">
		<g
   id="g211">
			<path
   d="m 661.978,558.03 c 15.441,-42.817 13.138,-89.878 -5.688,-131.225 -18.762,-41.208 -54.093,-73.078 -96.233,-89.082 -42.459,-16.125 -90.09,-13.76 -131.367,4.645 -41.33,18.43 -73.438,53.488 -89.772,95.47 -16.485,42.372 -14.496,90.016 3.604,131.478 18.093,41.447 52.868,73.794 94.682,90.463 42.276,16.854 89.953,15.224 131.591,-2.567 41.563,-17.761 74.143,-52.254 91.154,-93.896 0.711,-1.748 1.374,-3.515 2.029,-5.286 2.253,-6.084 -7.453,-8.685 -9.68,-2.668 -15.743,42.527 -49.029,77.028 -91.023,94.2 -42.295,17.296 -90.581,15.668 -131.762,-4.016 -40.617,-19.413 -71.372,-55.759 -84.726,-98.628 -13.669,-43.883 -7.348,-92.063 16.093,-131.445 22.915,-38.502 61.897,-65.504 105.481,-75.04 45.005,-9.846 92.722,1.128 129.852,28.044 28.023,20.314 48.634,50.2 58.892,83.126 10.563,33.906 9.208,70.439 -2.807,103.757 -2.202,6.107 7.501,8.712 9.68,2.67 z"
   id="path209"
   inkscape:connector-curvature="0"
   style="fill:#843d3d" />
		</g>
	</g>
	<path
   d="m 404.721,452.135 c 0.345,11.373 3.325,22.4 8.839,32.768 22.299,42.009 79.914,60.107 128.424,40.346 35.28,-14.384 57.396,-45.506 56.331,-79.311 -0.33,-11.372 -3.31,-22.399 -8.816,-32.751 -22.32,-42.01 -79.929,-60.111 -128.44,-40.362 -35.287,14.384 -57.39,45.522 -56.338,79.31"
   id="path215"
   inkscape:connector-curvature="0"
   style="fill:#e96c38" />
	<path
   d="m 455.498,408.448 c -9.311,9.914 -14.211,22.402 -13.82,35.185 0.25,7.152 2.102,14.07 5.546,20.548 14.008,26.354 50.143,37.726 80.557,25.319 8.307,-3.373 15.758,-8.424 21.529,-14.589 9.318,-9.897 14.229,-22.383 13.836,-35.168 -0.252,-7.168 -2.117,-14.07 -5.536,-20.548 -14.024,-26.37 -50.166,-37.743 -80.575,-25.335 -8.306,3.388 -15.742,8.424 -21.537,14.588"
   id="path217"
   inkscape:connector-curvature="0"
   style="fill:#1f1e1e" />
	<path
   d="m 464.267,493.688 c 0,-19.717 15.978,-35.686 35.686,-35.686 19.712,0 35.695,15.968 35.695,35.686 0,19.703 -15.983,35.687 -35.695,35.687 -19.709,0 -35.686,-15.984 -35.686,-35.687 z"
   id="path219"
   inkscape:connector-curvature="0"
   style="fill:#ffffff" />
</g>
</svg>