<?xml version="1.0" encoding="UTF-8" standalone="no"?>
<!-- Generator: Adobe Illustrator 16.0.0, SVG Export Plug-In . SVG Version: 6.00 Build 0)  -->

<svg
   xmlns:dc="http://purl.org/dc/elements/1.1/"
   xmlns:cc="http://creativecommons.org/ns#"
   xmlns:rdf="http://www.w3.org/1999/02/22-rdf-syntax-ns#"
   xmlns:svg="http://www.w3.org/2000/svg"
   xmlns="http://www.w3.org/2000/svg"
   xmlns:sodipodi="http://sodipodi.sourceforge.net/DTD/sodipodi-0.dtd"
   xmlns:inkscape="http://www.inkscape.org/namespaces/inkscape"
   version="1.1"
   id="Layer_1"
   x="0px"
   y="0px"
   width="427.112"
   height="427.112"
   viewBox="0 0 427.112 427.112"
   enable-background="new 0 0 1000 1000"
   xml:space="preserve"
   sodipodi:docname="frankiePattern.svg"
   inkscape:version="0.92.4 (5da689c313, 2019-01-14)"><metadata
   id="metadata1054"><rdf:RDF><cc:Work
       rdf:about=""><dc:format>image/svg+xml</dc:format><dc:type
         rdf:resource="http://purl.org/dc/dcmitype/StillImage" /></cc:Work></rdf:RDF></metadata><defs
   id="defs1052" /><sodipodi:namedview
   pagecolor="#ffffff"
   bordercolor="#666666"
   borderopacity="1"
   objecttolerance="10"
   gridtolerance="10"
   guidetolerance="10"
   inkscape:pageopacity="0"
   inkscape:pageshadow="2"
   inkscape:window-width="640"
   inkscape:window-height="480"
   id="namedview1050"
   showgrid="false"
   inkscape:zoom="0.236"
   inkscape:cx="217.20801"
   inkscape:cy="214.112"
   inkscape:window-x="0"
   inkscape:window-y="0"
   inkscape:window-maximized="0"
   inkscape:current-layer="Layer_1" />
<rect
   x="0"
   y="0"
   width="427.112"
   height="427.112"
   id="rect1005"
   style="fill:#7f309c" />
<g
   id="g1013"
   transform="translate(-282.79199,-287)">
	<path
   d="m 636.78,568.73 c -10.525,29.922 -34.031,60.428 -68.969,60.223 -19.556,-0.117 -33.32,-13.379 -42.955,-29.664 -8.071,-13.646 -9.518,-37.58 -23.085,-47.127 -27.137,-19.086 -75.079,26.305 -105.678,24.039 -33.802,-2.502 -50.827,-36.697 -44.426,-67.268 7.478,-35.724 47.418,-47.721 79.347,-47.325 12.863,0.159 28.898,5.853 41.489,3.039 14.302,-3.195 22.167,-16.986 30.379,-27.984 19.079,-25.561 43.24,-52.208 76.592,-56.932 36.935,-5.231 55.513,11.757 60.242,45.548 6.118,43.756 79.252,16.253 65.008,71.217 -5.412,20.875 -18.524,37.708 -38.233,46.997 -13.011,6.131 -31.458,0.91 -32.644,19.367"
   id="path1007"
   inkscape:connector-curvature="0"
   style="fill:#742d88" />
	<path
   d="m 567.812,628.953 c -19.556,-0.117 -33.32,-13.379 -42.955,-29.664 -8.071,-13.646 -9.518,-37.58 -23.085,-47.127 -27.137,-19.086 -75.079,26.305 -105.678,24.039 -33.802,-2.502 -50.827,-36.697 -44.426,-67.268 7.478,-35.724 47.418,-47.721 79.347,-47.325 12.863,0.159 28.898,5.853 41.489,3.039 14.302,-3.195 22.167,-16.986 30.379,-27.984 19.079,-25.561 43.24,-52.208 76.592,-56.932 36.935,-5.231 55.513,11.757 60.242,45.548 6.118,43.756 79.252,16.253 65.008,71.217 -5.41,20.869 -18.516,37.698 -38.217,46.987 -8.172,3.855 -21.95,1.857 -28.339,8.867 -6.371,6.992 -3.448,16.498 -5.639,24.748 -2.53,9.533 -7.319,16.93 -13.625,24.715 -12.763,15.755 -30.22,27.265 -51.093,27.14 z"
   id="path1009"
   inkscape:connector-curvature="0"
   style="opacity:0.3;fill:#742d88" />
	<path
   d="m 556.537,593.133 c -13.952,-0.084 -23.777,-9.547 -30.649,-21.17 -5.763,-9.736 -6.794,-26.816 -16.477,-33.629 -19.361,-13.619 -53.577,18.771 -75.416,17.154 -24.121,-1.785 -36.267,-26.188 -31.699,-48.004 5.336,-25.493 33.837,-34.052 56.622,-33.77 9.181,0.112 20.622,4.177 29.607,2.168 10.206,-2.282 15.821,-12.123 21.679,-19.971 13.613,-18.241 30.856,-37.257 54.656,-40.626 26.358,-3.734 39.617,8.388 42.99,32.502 4.368,31.224 56.554,11.6 46.39,50.821 -3.861,14.897 -13.219,26.907 -27.284,33.538 -5.728,2.699 -13.584,1.498 -18.756,5.238 -5.26,3.801 -5.813,12.426 -6.663,18.307 -1.03,7.125 -3.933,12.23 -8.453,17.963 -8.95,11.358 -21.723,19.567 -36.547,19.479 z"
   id="path1011"
   inkscape:connector-curvature="0"
   style="opacity:0.3;fill:#742d88" />
</g>
<g
   id="g1017"
   transform="translate(-282.79199,-287)">
	<path
   d="m 387.457,403.106 c -0.685,-2.183 -1.829,-4.071 -3.232,-5.7 l 59.72,-33.344 c 2.748,8.621 11.941,13.389 20.558,10.652 8.625,-2.741 13.392,-11.943 10.657,-20.566 -2.475,-7.775 -10.228,-12.377 -18.053,-11.178 4.29,-5.063 5.257,-12.399 1.846,-18.537 -4.42,-7.9 -14.395,-10.73 -22.284,-6.311 -7.903,4.397 -10.732,14.381 -6.321,22.266 0.556,0.991 1.222,1.877 1.924,2.688 l -59.749,33.35 c -0.322,-1.019 -0.717,-2.044 -1.277,-3.033 -4.405,-7.898 -14.379,-10.729 -22.273,-6.317 -7.899,4.414 -10.724,14.378 -6.32,22.286 3.419,6.115 10.171,9.13 16.724,8.159 -3.508,4.149 -4.891,9.934 -3.13,15.499 2.744,8.622 11.944,13.386 20.565,10.647 8.62,-2.74 13.387,-11.942 10.645,-20.561 z"
   id="path1015"
   inkscape:connector-curvature="0"
   style="opacity:0.5;fill:#8942a0" />
</g>
<g
   id="g1021"
   transform="translate(-282.79199,-287)">
	<path
   d="m 425.419,643.475 c 1.15,-1.666 1.846,-3.492 2.218,-5.357 l 55.769,23.521 c -4.52,6.609 -2.842,15.619 3.757,20.143 6.605,4.525 15.621,2.843 20.149,-3.758 4.079,-5.959 3.069,-13.873 -2.025,-18.68 5.867,0.236 11.513,-3.08 13.938,-8.802 3.107,-7.384 -0.347,-15.884 -7.725,-18.983 -7.369,-3.121 -15.876,0.338 -18.977,7.708 -0.389,0.928 -0.645,1.874 -0.828,2.806 l -55.789,-23.539 c 0.536,-0.778 1.037,-1.613 1.421,-2.541 3.114,-7.373 -0.34,-15.873 -7.715,-18.979 -7.379,-3.108 -15.869,0.343 -18.989,7.72 -2.406,5.713 -0.834,12.065 3.409,16.109 -4.805,-0.189 -9.593,1.993 -12.517,6.251 -4.523,6.607 -2.84,15.62 3.763,20.144 6.605,4.524 15.62,2.841 20.141,-3.763 z"
   id="path1019"
   inkscape:connector-curvature="0"
   style="opacity:0.5;fill:#b662d1" />
</g>
<g
   id="g1025"
   transform="translate(-282.79199,-287)">
	<path
   d="m 605.638,341.188 c 0.952,-1.049 1.603,-2.252 2.032,-3.511 l 36.51,21.464 c -3.745,4.167 -3.414,10.571 0.746,14.318 4.163,3.749 10.571,3.415 14.322,-0.746 3.379,-3.756 3.41,-9.339 0.32,-13.144 4.047,0.706 8.27,-1.073 10.48,-4.817 2.837,-4.834 1.227,-11.049 -3.604,-13.88 -4.824,-2.846 -11.043,-1.232 -13.874,3.594 -0.355,0.607 -0.621,1.24 -0.834,1.87 l -36.521,-21.479 c 0.442,-0.49 0.867,-1.022 1.22,-1.631 2.841,-4.826 1.23,-11.04 -3.598,-13.876 -4.831,-2.838 -11.039,-1.228 -13.884,3.601 -2.196,3.741 -1.693,8.292 0.877,11.488 -3.315,-0.575 -6.839,0.497 -9.26,3.18 -3.748,4.165 -3.412,10.572 0.75,14.319 4.162,3.747 10.573,3.414 14.318,-0.75 z"
   id="path1023"
   inkscape:connector-curvature="0"
   style="opacity:0.5;fill:#742d88" />
</g>
<path
   d="m 70.707008,53.38 c 2.63,-9.565 -2.647,-23.129 -8.681,-30.225 -3.608,-4.243 -8.006,-6.734 -12.754,-6.735 -21.254,-0.002 -37.207,21.962 -37.207,42.148 0,8.671 1.775,16.647 4.753,22.973 3.208,6.812 10.943,21.327 19.469,21.913 12.302,0.846 17.479,-21.372 20.754,-30.03 2.927,-7.734 11.223,-11.827 13.568,-19.706 0.035,-0.112 0.067,-0.225 0.098,-0.338 z"
   id="path1027"
   inkscape:connector-curvature="0"
   style="opacity:0.3;fill:#742d88" />
<path
   d="m 46.036008,72.374 c 0.015,-9.561 9.403,-20.504 8.092,-29.27 -1.378,-9.214 -13.096,-13.88 -21.205,-11.126 -10.325,3.507 -12.715,16.22 -12.715,26.147 0,5.281 4.626,33.976 12.914,33.977 7.129,0 12.909,-5.451 12.914,-19.728 z"
   id="path1029"
   inkscape:connector-curvature="0"
   style="opacity:0.3;fill:#742d88" />
<circle
   cx="353.146"
   cy="301"
   r="30"
   id="circle1031"
   style="fill:#a5c61e" />
<circle
   cx="344.84302"
   cy="291.36499"
   r="9.6350002"
   id="circle1033"
   style="fill:#efe1c5" />
<path
   d="m 364.14501,282.918 c 2.224,3.536 3.529,7.708 3.529,12.194 0,12.679 -10.278,22.958 -22.958,22.958 -3.194,0 -6.235,-0.656 -8.999,-1.835 4.097,5.788 10.829,9.577 18.46,9.577 12.491,0 22.615,-10.125 22.615,-22.615 0,-8.909 -5.162,-16.592 -12.647,-20.279 z"
   id="path1035"
   inkscape:connector-curvature="0"
   style="opacity:0.6;fill:#6e8412" />
<circle
   cx="54.253021"
   cy="308.86902"
   r="20"
   id="circle1037"
   style="fill:#a5c61e" />
<circle
   cx="48.71701"
   cy="302.44598"
   r="6.4229999"
   id="circle1039"
   style="fill:#efe1c5" />
<path
   d="m 61.585008,296.814 c 1.482,2.357 2.353,5.139 2.353,8.13 0,8.452 -6.853,15.306 -15.306,15.306 -2.129,0 -4.157,-0.438 -5.999,-1.224 2.731,3.858 7.219,6.385 12.307,6.385 8.327,0 15.077,-6.75 15.077,-15.077 0,-5.939 -3.442,-11.061 -8.432,-13.52 z"
   id="path1041"
   inkscape:connector-curvature="0"
   style="opacity:0.6;fill:#6e8412" />
<circle
   cx="214.146"
   cy="159"
   r="30"
   id="circle1043"
   style="fill:#a5c61e" />
<circle
   cx="205.84302"
   cy="149.36499"
   r="9.6350002"
   id="circle1045"
   style="fill:#efe1c5" />
<path
   d="m 225.14501,140.918 c 2.224,3.536 3.529,7.708 3.529,12.194 0,12.679 -10.278,22.958 -22.958,22.958 -3.194,0 -6.235,-0.656 -8.999,-1.835 4.097,5.788 10.829,9.577 18.46,9.577 12.491,0 22.615,-10.125 22.615,-22.615 0,-8.909 -5.162,-16.592 -12.647,-20.279 z"
   id="path1047"
   inkscape:connector-curvature="0"
   style="opacity:0.6;fill:#6e8412" />
</svg>