<?xml version="1.0" encoding="UTF-8" standalone="no"?>
<!-- Generator: Adobe Illustrator 16.0.0, SVG Export Plug-In . SVG Version: 6.00 Build 0)  -->

<svg
   xmlns:dc="http://purl.org/dc/elements/1.1/"
   xmlns:cc="http://creativecommons.org/ns#"
   xmlns:rdf="http://www.w3.org/1999/02/22-rdf-syntax-ns#"
   xmlns:svg="http://www.w3.org/2000/svg"
   xmlns="http://www.w3.org/2000/svg"
   xmlns:sodipodi="http://sodipodi.sourceforge.net/DTD/sodipodi-0.dtd"
   xmlns:inkscape="http://www.inkscape.org/namespaces/inkscape"
   version="1.1"
   id="Layer_1"
   x="0px"
   y="0px"
   width="380.18106"
   height="332.17633"
   viewBox="0 0 380.18106 332.17633"
   enable-background="new 0 0 1000 1000"
   xml:space="preserve"
   sodipodi:docname="frankieBack.svg"
   inkscape:version="0.92.4 (5da689c313, 2019-01-14)"><metadata
   id="metadata386"><rdf:RDF><cc:Work
       rdf:about=""><dc:format>image/svg+xml</dc:format><dc:type
         rdf:resource="http://purl.org/dc/dcmitype/StillImage" /></cc:Work></rdf:RDF></metadata><defs
   id="defs384" /><sodipodi:namedview
   pagecolor="#ffffff"
   bordercolor="#666666"
   borderopacity="1"
   objecttolerance="10"
   gridtolerance="10"
   guidetolerance="10"
   inkscape:pageopacity="0"
   inkscape:pageshadow="2"
   inkscape:window-width="640"
   inkscape:window-height="480"
   id="namedview382"
   showgrid="false"
   inkscape:zoom="0.236"
   inkscape:cx="188.67545"
   inkscape:cy="167.03779"
   inkscape:window-x="0"
   inkscape:window-y="0"
   inkscape:window-maximized="0"
   inkscape:current-layer="Layer_1" />
<path
   d="m 379.99645,210.38554 c -1.051,-11.694 -7.479,-23.977 -18.714,-27.399 -10.321,-3.143 -21.373,1.998 -29.927,8.571 -3.351,2.577 -6.503,5.408 -9.45,8.438 0.904,-7.488 1.677,-14.969 2.216,-22.408 0.006,-0.086 0.014,-0.171 0.02,-0.257 0.09,-1.257 0.17,-2.512 0.245,-3.767 0.043,-0.702 0.083,-1.404 0.12,-2.105 0.053,-0.979 0.102,-1.955 0.144,-2.932 0.046,-1.057 0.081,-2.112 0.115,-3.167 0.022,-0.723 0.05,-1.447 0.066,-2.169 0.042,-1.822 0.069,-3.642 0.069,-5.455 3.558,-34.452 9.609,-72.340996 -4.831,-105.417996 -2.162,-4.943 -4.962,-9.387 -8.548,-13.137 -19.184,-20.03 -55.522,-22.117 -80.503,-30.1930003 -36.253,-11.715 -77.479,-9.61400003 -115.075,-6.745 -14.823,1.132 -31.188005,4 -40.274005,15.7680003 -5.309,6.877 -7.199,15.715 -8.943,24.223 -4.255,20.75 -8.512,41.547 -12.41,62.399996 -0.077,0.414 -0.155,0.827 -0.232,1.24 -0.271,1.456 -0.539,2.912 -0.807,4.368 -0.119,0.65 -0.239,1.3 -0.358,1.951 -0.241,1.323 -0.479,2.646 -0.717,3.969 -0.142,0.789 -0.284,1.579 -0.424,2.368 -0.219,1.23 -0.436,2.461 -0.652,3.692 -0.155,0.881 -0.309,1.761 -0.462,2.643 -0.203,1.172 -0.405,2.345 -0.605,3.518 -0.161,0.943 -0.321,1.886 -0.48,2.829 -0.188,1.12 -0.376,2.239 -0.562,3.359 -0.167,1.004 -0.331,2.008 -0.495,3.012 -0.175,1.072 -0.35,2.145 -0.521,3.217 -0.171,1.065 -0.339,2.131 -0.507,3.196 -0.16,1.016 -0.321,2.031 -0.478,3.046 -0.176,1.137 -0.348,2.274 -0.52,3.411 -0.145,0.956 -0.291,1.911 -0.433,2.867 -0.178,1.197 -0.351,2.395 -0.524,3.592 -3.858,-3.763 -8.473,-6.745 -13.536,-8.599 -2.309,-0.845 -4.743,-1.475 -7.199,-1.378 -7.162,0.275 -12.638,6.455 -16.2169995,12.67 -10.786,18.742 -12.008,43.521 -0.246,61.666 6.6349995,10.237 17.6459995,17.537 29.4659995,20.238 -0.012,0.436 -0.024,0.872 -0.036,1.308 -0.017,0.67 -0.039,1.341 -0.054,2.011 -0.046,2.091 -0.082,4.182 -0.104,6.273 0,0.035 -10e-4,0.069 -0.002,0.104 -0.132,12.09 0.507,25.234 8.292,34.487 0.689,0.819 1.437,1.577 2.208,2.311 3.659,3.483 8.141,6.086 12.638,8.453 0.199,0.104 0.401,0.202 0.601,0.306 40.208005,20.984 85.540005,28.729 130.202005,33.348 31.271,3.235 64.849,4.328 93.973,-9.461 21.075,-9.977 25.663,-31.766 28.031,-52.787 3.104,0.068 6.275,-0.199 9.245,-0.568 9.229,-1.144 18.584,-2.432 27.108,-6.146 19.259,-8.394 31.971,-29.838 30.087,-50.762 z"
   id="path379"
   inkscape:connector-curvature="0"
   style="fill:#332929" />
</svg>