<?xml version="1.0" encoding="UTF-8" standalone="no"?>
<!-- Generator: Adobe Illustrator 16.0.0, SVG Export Plug-In . SVG Version: 6.00 Build 0)  -->

<svg
   xmlns:dc="http://purl.org/dc/elements/1.1/"
   xmlns:cc="http://creativecommons.org/ns#"
   xmlns:rdf="http://www.w3.org/1999/02/22-rdf-syntax-ns#"
   xmlns:svg="http://www.w3.org/2000/svg"
   xmlns="http://www.w3.org/2000/svg"
   xmlns:sodipodi="http://sodipodi.sourceforge.net/DTD/sodipodi-0.dtd"
   xmlns:inkscape="http://www.inkscape.org/namespaces/inkscape"
   version="1.1"
   id="Layer_1"
   x="0px"
   y="0px"
   width="385.04175"
   height="337.25284"
   viewBox="0 0 385.04175 337.25284"
   enable-background="new 0 0 1000 1000"
   xml:space="preserve"
   sodipodi:docname="frankieSkin.svg"
   inkscape:version="0.92.4 (5da689c313, 2019-01-14)"><metadata
   id="metadata556"><rdf:RDF><cc:Work
       rdf:about=""><dc:format>image/svg+xml</dc:format><dc:type
         rdf:resource="http://purl.org/dc/dcmitype/StillImage" /></cc:Work></rdf:RDF></metadata><defs
   id="defs554" /><sodipodi:namedview
   pagecolor="#ffffff"
   bordercolor="#666666"
   borderopacity="1"
   objecttolerance="10"
   gridtolerance="10"
   guidetolerance="10"
   inkscape:pageopacity="0"
   inkscape:pageshadow="2"
   inkscape:window-width="640"
   inkscape:window-height="480"
   id="namedview552"
   showgrid="false"
   inkscape:zoom="0.236"
   inkscape:cx="191.08102"
   inkscape:cy="169.55086"
   inkscape:window-x="0"
   inkscape:window-y="0"
   inkscape:window-maximized="0"
   inkscape:current-layer="Layer_1" />
<path
   d="m 310.53602,220.95798 c 5.832,-10.385 13.783,-19.574 23.226,-26.837 8.554,-6.573 19.605,-11.714 29.927,-8.571 11.234,3.423 17.663,15.705 18.714,27.399 1.884,20.924 -10.828,42.368 -30.088,50.761 -8.524,3.715 -17.879,5.003 -27.108,6.146 -8.875,1.104 -19.567,1.369 -24.804,-5.88"
   id="path473"
   inkscape:connector-curvature="0"
   style="fill:#a5c61e" />
<g
   id="g479"
   style="opacity:0.26000001"
   transform="translate(-308.91898,-332.29802)">
	<g
   id="g477">
		<path
   d="m 680.113,551.115 c -1.618,-7.444 -10.398,-7.051 -16.558,-5.962 -6.728,1.193 -13.295,4.196 -18.729,8.321 -8.729,6.635 -14.741,16.55 -17.351,27.201 -0.536,2.187 -0.937,4.499 -0.362,6.677 0.705,2.672 2.84,4.817 5.341,5.995 2.503,1.178 5.34,1.476 8.1,1.367 4.99,-0.201 9.923,-1.694 14.177,-4.305 2.221,-1.356 4.249,-3 6.22,-4.697 8.213,-7.067 15.835,-15.562 18.64,-26.028 0.749,-2.789 1.135,-5.745 0.522,-8.569"
   id="path475"
   inkscape:connector-curvature="0"
   style="fill:#6e8412" />
	</g>
</g>
<path
   d="m 58.441016,177.30098 c -3.138,-11.974 -12.409,-22.168 -24.034,-26.424 -2.309,-0.845 -4.743,-1.475 -7.199,-1.378 -7.162,0.275 -12.638,6.455 -16.217,12.67 -10.78600044,18.742 -12.0080004,43.521 -0.246,61.666 11.762,18.148 37.276,27.071 56.665,17.492"
   id="path481"
   inkscape:connector-curvature="0"
   style="fill:#a5c61e" />
<g
   id="g487"
   style="opacity:0.26000001"
   transform="translate(-308.91898,-332.29802)">
	<g
   id="g485">
		<path
   d="m 338.724,497.404 c -1.974,-3.84 -7.999,-3.714 -11.152,-0.766 -3.154,2.948 -4.12,7.508 -4.719,11.783 -2.026,14.488 -1.554,29.795 4.748,43 2.552,5.35 6.392,10.546 11.994,12.489 1.42,0.492 2.966,0.757 4.426,0.406 2.558,-0.612 4.32,-2.948 5.5,-5.297 3.929,-7.805 3.787,-17.003 2.755,-25.678 -0.887,-7.471 -2.394,-14.955 -5.566,-21.774 -3.175,-6.824 -8.136,-12.987 -14.736,-16.597"
   id="path483"
   inkscape:connector-curvature="0"
   style="fill:#6e8412" />
	</g>
</g>
<path
   d="m 314.47802,267.47298 c 4.038,-25.91 19.96,-59.767 52.047,-53.209 1.757,0.359 2.507,-2.335 0.741,-2.694 -33.595,-6.868 -51.173,27.507 -55.479,55.159 -0.277,1.763 2.417,2.52 2.691,0.744"
   id="path489"
   inkscape:connector-curvature="0"
   style="fill:#576313" />
<path
   d="m 323.53202,238.20898 c 7.673,-0.984 15.529,-0.417 21.224,5.382 1.265,1.287 3.238,-0.691 1.977,-1.978 -6.206,-6.317 -14.762,-7.284 -23.2,-6.199 -1.761,0.225 -1.784,3.024 -0.001,2.795"
   id="path491"
   inkscape:connector-curvature="0"
   style="fill:#576313" />
<path
   d="m 22.292016,162.93398 c 21.057,11.835 23.075,37.234 21.397,58.852 -0.141,1.797 2.657,1.784 2.794,0 1.758,-22.637 -0.871,-48.951 -22.779,-61.264 -1.573,-0.887 -2.982,1.528 -1.412,2.412"
   id="path493"
   inkscape:connector-curvature="0"
   style="fill:#576313" />
<path
   d="m 19.088016,199.86098 c 7.927,-6.59 18.356,-7.962 27.81,-4.011 1.66,0.693 2.38,-2.012 0.741,-2.694 -10.419,-4.354 -21.885,-2.454 -30.528,4.729 -1.388,1.15 0.602,3.119 1.977,1.976"
   id="path495"
   inkscape:connector-curvature="0"
   style="fill:#576313" />
<path
   d="m 322.47602,54.88198 c -2.162,-4.943 -4.962,-9.387 -8.548,-13.137 -19.184,-20.03 -55.522,-22.117 -80.503,-30.193 -36.253,-11.71499976 -77.479,-9.6139998 -115.075,-6.7449998 -14.823,1.132 -31.188004,4 -40.274004,15.7679998 -5.309,6.877 -7.199,15.715 -8.943,24.223 -14.15,69.01 -28.356,138.533 -29.116,208.971 -0.132,12.09 0.507,25.234 8.292,34.487 3.961,4.705 9.402,7.898 14.847,10.761 40.356004,21.221 85.919004,29.014 130.803004,33.656 31.271,3.235 64.849,4.328 93.973,-9.461 25.648,-12.142 26.881,-41.778 29.407,-66.236 3.265,-31.65 9.97,-64.878 9.97,-96.676 3.555,-34.452 9.607,-72.341 -4.833,-105.418"
   id="path497"
   inkscape:connector-curvature="0"
   style="fill:#a5c61e" />
<path
   d="m 71.534016,163.80898 c -2.909,11.976 0.243,25.569 9.109,34.131 8.867,8.561 23.443004,11.075 34.096004,4.876 10.061,-5.86 14.977,-17.557 18.573,-28.633 -20.586,-2.575 -41.092004,-5.803 -61.476004,-9.669"
   id="path499"
   inkscape:connector-curvature="0"
   style="fill:#efe1c5" />
<path
   d="m 111.84502,277.62798 c -6.526,-3.029 -11.971004,-8.719 -11.963004,-16.035 0.008,-9.819 0.530004,-19.293 6.352004,-27.258 6.028,-8.242 11.493,-15.647 20.429,-21.06 16.162,-9.793 36.994,-11.184 54.527,-4.133 4.494,1.809 8.857,4.19 12.18,7.72 3.169,3.359 5.241,7.587 7.038,11.841 3.082,7.291 5.519,15.144 4.687,23.013 -0.833,7.869 -5.613,15.744 -13.132,18.217 -11.324,3.727 -22.777,-5.519 -34.679,-6.178 -2.471,-0.135 -5.027,0.127 -7.212,1.288 -2.468,1.306 -4.216,3.612 -6.155,5.621 -8.11,8.392 -21.488,11.884 -32.072,6.964"
   id="path501"
   inkscape:connector-curvature="0"
   style="fill:#54600d" />
<path
   d="m 256.31402,189.68698 c -17.802,-1.203 -35.598,-2.459 -53.422,-3.296 -0.073,6.36 1.148,13.348 3.373,19.081 3.727,9.605 12.557,15.701 22.163,18.528 4.932,1.454 10.012,2.581 15.15,2.525 9.706,-0.098 19.28,-4.652 25.481,-12.121 5.334,-6.426 8.068,-14.911 7.659,-23.241 -6.783,-0.393 -13.575,-1.014 -20.404,-1.476"
   id="path503"
   inkscape:connector-curvature="0"
   style="fill:#efe1c5" />
<path
   d="m 181.38002,249.33498 c -4.663,-5.278 -11.828,-7.851 -18.861,-8.181 -11.4,-0.535 -22.931,4.6 -30.159,13.438 -5.724,7.004 -8.579,16.196 -8.148,25.219 7.318,-0.493 14.567,-3.832 19.705,-9.146 1.939,-2.009 3.689,-4.315 6.155,-5.621 2.185,-1.161 4.744,-1.423 7.212,-1.288 10.728,0.597 21.088,8.128 31.319,6.891 0.019,-2.449 -0.313,-4.945 -0.834,-7.323 -1.112,-5.063 -2.96,-10.104 -6.389,-13.989"
   id="path505"
   inkscape:connector-curvature="0"
   style="fill:#f4a61e" />
<path
   d="m 116.38002,239.52798 c 1.199,-2.729 0.526,-5.882 -0.288,-8.748 -0.601,-2.116 -1.332,-4.233 -2.351,-6.17 -2.594,3.048 -5.009,6.308 -7.508,9.725 -1.688,2.313 -2.895,4.758 -3.808,7.297 0.167,0.129 0.311,0.277 0.482,0.4 4.269,3.018 11.373,2.286 13.473,-2.504"
   id="path507"
   inkscape:connector-curvature="0"
   style="fill:#efe1c5" />
<path
   d="m 133.97502,218.32098 c 1.505,1.516 3.305,3.066 5.439,3.032 2.27,-0.042 4.117,-1.902 5.183,-3.911 1.882,-3.545 2.054,-7.544 1.536,-11.582 -6.006,1.155 -11.823,3.209 -17.193,6.13 1.391,2.304 3.174,4.449 5.035,6.331"
   id="path509"
   inkscape:connector-curvature="0"
   style="fill:#efe1c5" />
<path
   d="m 181.18702,209.14198 c -5.362,-2.158 -11.037,-3.515 -16.79,-4.093 -0.705,1.998 -1.188,4.051 -1.209,6.176 -0.05,4.518 2.621,9.41 7.047,10.328 3.787,0.79 7.669,-1.572 9.849,-4.771 1.404,-2.064 2.225,-4.432 2.858,-6.864 -0.584,-0.258 -1.161,-0.537 -1.755,-0.776"
   id="path511"
   inkscape:connector-curvature="0"
   style="fill:#efe1c5" />
<path
   d="m 200.40702,228.70298 c -0.758,-1.797 -1.592,-3.573 -2.51,-5.297 -1.594,1.663 -3.088,3.426 -4.465,5.273 -1.336,1.792 -2.61,3.792 -2.709,6.022 -0.16,3.628 3.07,6.818 6.651,7.41 2.396,0.396 4.826,-0.188 7.001,-1.319 -0.877,-4.132 -2.321,-8.191 -3.968,-12.089"
   id="path513"
   inkscape:connector-curvature="0"
   style="fill:#efe1c5" />
<path
   d="m 221.55402,185.70598 c -1.955,4.465 -1.558,9.783 0.609,14.15 2.17,4.367 5.978,7.801 10.332,9.988 3.866,1.942 8.403,2.953 12.551,1.726 4.506,-1.333 7.954,-5.161 9.82,-9.474 1.86,-4.314 2.333,-9.094 2.486,-13.789 h -36.055"
   id="path515"
   inkscape:connector-curvature="0"
   style="fill:#f4a61e" />
<path
   d="m 88.977016,163.32098 c -4.212,7.666 -2.542,18.099 3.855,24.065 2.185,2.04 4.898,3.598 7.854004,4.051 5.32,0.821 10.74,-2.124 13.929,-6.46 3.185,-4.334 4.415,-9.836 4.639,-15.215 -9.735,-2.091 -19.476004,-4.188 -29.211004,-6.285"
   id="path517"
   inkscape:connector-curvature="0"
   style="fill:#f4a61e" />
<path
   d="m 199.65502,192.50398 c 28.712,0.586 57.397,1.786 86.063,3.595 10.442,0.659 10.382,-15.557 0,-16.215 -28.666,-1.808 -57.352,-3.008 -86.063,-3.594 -10.462,-0.214 -10.44,16.001 0,16.214"
   id="path519"
   inkscape:connector-curvature="0"
   style="fill:#332929" />
<path
   d="m 68.361016,168.94598 c 21.21,4.127 42.419004,8.254 63.632004,12.384 10.211,1.987 14.565,-13.638 4.31,-15.636 -21.21,-4.127 -42.422004,-8.254 -63.632004,-12.385 -10.214,-1.987 -14.57,13.639 -4.31,15.637"
   id="path521"
   inkscape:connector-curvature="0"
   style="fill:#332929" />
<path
   d="m 189.13402,169.19098 c -0.539,-17.803 -2.426,-35.562 -5.632,-53.084 -1.406,-7.687 -2.479,-37.202 -15.062,-28.633 -11.139,7.585 -2.527,29.763 -1.694,40.507 0.338,4.335 -1.235,49.148 -3.462,48.354 -4.323,-1.541 -6.889,-5.864 -10.284,-8.955 -3.394,-3.087 -9.504,-4.607 -12.085,-0.815 -0.839,1.235 -1.083,2.771 -1.259,4.252 -1.023,8.575 -0.574,17.329 1.315,25.759 1.422,6.347 3.907,12.862 9.059,16.839 9.821,7.585 25.237,2.043 32.107,-8.289 6.87,-10.331 7.374,-23.532 6.997,-35.935"
   id="path523"
   inkscape:connector-curvature="0"
   style="fill:#6e8412" />
<path
   d="m 207.62002,325.74198 c 21.555,-31.895 54.754,-54.467 92.299,-62.9 1.702,-0.385 0.982,-2.99 -0.715,-2.608 -38.242,8.591 -71.977,31.683 -93.914,64.146 -0.982,1.447 1.36,2.798 2.33,1.362"
   id="path525"
   inkscape:connector-curvature="0"
   style="fill:#332929" />
<path
   d="m 208.18002,303.15498 c 1.079,6.359 2.388,12.667 3.929,18.932 0.415,1.692 3.021,0.972 2.604,-0.72 -1.538,-6.263 -2.85,-12.57 -3.929,-18.93 -0.294,-1.714 -2.895,-0.987 -2.604,0.718"
   id="path527"
   inkscape:connector-curvature="0"
   style="fill:#332929" />
<path
   d="m 240.46502,275.60398 c -4.156,8.59 -7.295,17.51 -9.385,26.825 -0.382,1.697 2.223,2.418 2.604,0.718 2.041,-9.086 5.058,-17.795 9.113,-26.179 0.756,-1.562 -1.571,-2.932 -2.332,-1.364"
   id="path529"
   inkscape:connector-curvature="0"
   style="fill:#332929" />
<path
   d="m 227.10802,291.83098 c 6.521,2.565 13.045,5.131 19.566,7.695 1.623,0.641 2.319,-1.974 0.718,-2.604 -6.523,-2.565 -13.046,-5.13 -19.566,-7.695 -1.622,-0.642 -2.319,1.974 -0.718,2.604"
   id="path531"
   inkscape:connector-curvature="0"
   style="fill:#332929" />
<path
   d="m 255.23502,267.63398 c 1.575,5.608 3.663,11.01 6.241,16.229 0.771,1.563 3.101,0.196 2.331,-1.363 -2.477,-5.015 -4.45,-10.2 -5.967,-15.584 -0.47,-1.676 -3.077,-0.963 -2.605,0.718"
   id="path533"
   inkscape:connector-curvature="0"
   style="fill:#332929" />
<path
   d="m 268.00902,264.39298 c 5.57,2.874 10.669,6.412 15.287,10.656 1.279,1.175 3.195,-0.731 1.911,-1.911 -4.782,-4.394 -10.063,-8.102 -15.835,-11.075 -1.546,-0.799 -2.913,1.531 -1.363,2.33"
   id="path535"
   inkscape:connector-curvature="0"
   style="fill:#332929" />
<g
   id="g541"
   transform="translate(-308.91898,-332.29802)">
	<g
   id="g539">
		<path
   d="m 370.29,625.702 c -3.797,-5.555 -4.911,-11.857 -5.938,-18.378 -7.102,-45.18 5.241,-87.547 14.575,-131.276 1.346,-6.299 19.384,-75.381 13.493,-77.75 -5.715,-2.291 -11.563,-4.254 -17.499,-5.896 -13.045,63.983 -25.284,128.428 -25.986,193.667 -0.129,12.087 0.509,25.234 8.294,34.484 3.959,4.708 9.4,7.898 14.845,10.764 2.884,1.513 5.798,2.942 8.73,4.323 -3.975,-2.805 -7.728,-5.861 -10.514,-9.938"
   id="path537"
   inkscape:connector-curvature="0"
   style="fill:#88a911" />
	</g>
</g>
<path
   d="m 322.47602,54.88198 c -2.162,-4.943 -4.962,-9.387 -8.548,-13.137 -19.184,-20.03 -55.522,-22.117 -80.503,-30.193 -36.253,-11.71499976 -77.479,-9.6139998 -115.075,-6.7449998 -14.823,1.132 -31.188004,4 -40.274004,15.7679998 -5.309,6.877 -7.199,15.715 -8.943,24.223 -2.853,13.9 -5.698,27.821 -8.439,41.763 3.726,3.55 10.046,4.259 14.979,2.201 5.929,-2.473 10.142,-7.82 13.611,-13.232 -0.208,9.906 7.437,19.407 17.159004,21.321 9.722,1.913 20.396,-3.983 23.96,-13.23 0.854,10.147 9.038,19.371 19.099,20.935 10.063,1.563 20.903,-5.096 23.592,-14.918 -1.047,11.385 8.791,22.334 20.176,23.364 12.923,1.167 22.382,-8.466 26.667,-19.544 1.409,13.372 4.148,27.826 20.841,29.388 10.757,1.005 21.65,-6.795 24.168,-17.301 -1.095,9.749 6.049,19.444 15.433,22.305 9.382,2.86 20.096,-0.657 26.828,-7.79 2.057,-2.177 4.027,-4.813 6.957,-5.45 0.11,25.489 0.225,50.974 0.335,76.461 0.011,1.944 0.037,3.975 0.922,5.708 1.633,3.209 5.652,4.035 9.199,3.051 1.547,-13.276 2.688,-26.522 2.688,-39.527 3.556,-34.455 9.608,-72.344 -4.832,-105.421"
   id="path543"
   inkscape:connector-curvature="0"
   style="fill:#332929" />
<g
   id="g549"
   transform="translate(-308.91898,-332.29802)">
	<g
   id="g547">
		<path
   d="m 693.821,545.247 c -1.383,-12.796 -7.729,-25.431 -20.549,-29.811 -15.511,-5.298 -31.69,7.448 -41.81,17.653 1.423,0.589 2.845,1.179 4.268,1.768 1.603,-13.437 2.808,-26.908 2.986,-40.444 0.191,-14.484 3.131,-29.08 3.966,-43.574 1.478,-25.633 0.344,-58.521 -18.068,-78.564 -15.403,-16.77 -41.131,-20.954 -62.216,-25.763 -12.261,-2.796 -24.148,-6.939 -36.444,-9.546 -14.229,-3.017 -28.833,-4.177 -43.351,-4.526 -21.191,-0.51 -43.021,0.318 -64.051,3.069 -17.515,2.291 -32.672,9.342 -39.248,26.66 -3.811,10.036 -5.114,21.307 -7.247,31.782 -2.513,12.342 -4.979,24.693 -7.35,37.064 -3.823,19.959 -7.336,39.982 -10.256,60.095 1.393,-0.368 2.786,-0.735 4.178,-1.103 -8.636,-8.09 -22.669,-15.456 -33.175,-6.332 -9.472,8.228 -14.469,21.98 -16.019,34.139 -3.518,27.604 11.111,54.116 39.029,60.968 -0.612,-0.804 -1.224,-1.607 -1.835,-2.411 -0.322,11.831 -0.958,24.084 2.883,35.458 4.255,12.601 15.522,18.84 26.748,24.409 26.617,13.204 55.663,20.759 84.839,25.721 28.47,4.843 58.038,8.667 86.955,7.318 23.879,-1.113 54.144,-6.3 68.282,-27.771 7.471,-11.345 9.524,-25.581 11.042,-38.783 -0.833,0.833 -1.667,1.667 -2.5,2.5 17.903,0.024 37.503,-3.865 51.213,-15.977 12.277,-10.845 18.936,-27.75 17.73,-43.999 -0.237,-3.195 -5.239,-3.218 -5,0 1.104,14.879 -4.661,29.054 -15.222,39.489 -12.284,12.138 -32.082,15.51 -48.72,15.486 -1.48,-0.002 -2.345,1.148 -2.5,2.5 -1.344,11.688 -3.314,23.555 -9.008,34.004 -6.724,12.339 -18.938,17.973 -31.813,22.002 -28.205,8.826 -58.75,6.021 -87.622,2.773 -30.222,-3.399 -60.359,-8.708 -89.147,-18.727 -13.756,-4.787 -28.156,-10.511 -40.188,-18.856 -12.337,-8.557 -13.42,-24.24 -13.164,-37.957 0.06,-3.197 0.107,-6.395 0.194,-9.592 0.029,-1.084 -0.781,-2.152 -1.835,-2.411 -22.833,-5.604 -36.067,-25.461 -35.963,-48.437 0.049,-10.89 3.421,-21.73 8.978,-31.036 2.923,-4.895 7.347,-9.632 13.317,-10.191 6.793,-0.636 14.327,4.898 18.968,9.245 1.226,1.149 3.892,0.869 4.178,-1.103 4.063,-27.989 9.303,-55.788 14.85,-83.516 3.005,-15.027 5.009,-30.905 10.003,-45.424 4.766,-13.857 17.229,-19.791 30.723,-22.382 13.826,-2.655 28.477,-2.779 42.509,-3.371 15.006,-0.632 30.047,-0.545 45.015,0.781 14.771,1.309 28.779,4.661 42.949,8.851 11.145,3.295 22.627,5.372 33.892,8.204 14.236,3.58 28.925,8.315 39.987,18.376 13.754,12.509 17.304,34.639 18.52,52.249 1.293,18.723 -0.867,37.545 -2.895,56.135 -1.905,17.462 -2.01,35.03 -4.096,52.518 -0.27,2.258 2.861,3.186 4.268,1.768 8.736,-8.809 19.823,-17.725 32.927,-17.155 12.858,0.558 19.694,14.651 20.896,25.777 0.342,3.171 5.346,3.204 4.999,0 z"
   id="path545"
   inkscape:connector-curvature="0"
   style="fill:#332929" />
	</g>
</g>
</svg>