<svg xmlns="http://www.w3.org/2000/svg" xmlns:xlink="http://www.w3.org/1999/xlink" viewBox="0 0 507.45 567.24" width="135" height="135"><style>.A{isolation:isolate}.M,.N,.D{mix-blend-mode:multiply}</style><g class="A"><g><g><g><g><path d="M340.58 242.18a11.27 11.27 0 0 1-1.53-.1c-15.4-1.86-31.8-10.27-46.24-17.7-5.87-3.02-11.42-5.87-16.1-7.82l-.55-.23-.04-.2c-1.53-.76-8.36-2.7-13.9-4.3-10.43-2.98-17.4-5.03-19.33-6.3l-.55-.37 7.86-86.43 16.14-.83 23.4-.93c20.06 0 26.57 4.15 53.97 21.64l17.14 10.86c25.7 15.56 38.93 32.53 35.34 45.4-2.08 7.47-9.62 11.93-20.15 11.93h0c-8.4 0-17.75-2.82-27.06-8.15-8.84-5.64-23.84-18.24-32.8-25.77l-7.32-6.05-49.14-6.42c2.92 3.27 20.06 7.15 29.72 9.33 8.96 2.02 16.7 3.77 19.75 5.47 46.33 24.5 52.95 42.2 50.33 52.73-2.3 9.27-12.47 14.2-18.93 14.2z" fill="#e89528"/><path d="M289.72 118.1c23.34 0 28.1 5.76 70.52 32.33 48.26 29.2 40.6 55.28 15.78 55.28-7.6 0-16.8-2.45-26.5-8-13.06-8.33-39.72-32.04-40.5-32.04-.03 0-.02.03.02.1l-50.84-6.65c-1.45 7.2 42.55 12.72 50.44 17.1 77.67 41.08 45.64 64.85 31.95 64.85a10.09 10.09 0 0 1-1.38-.09c-21.7-2.6-46.22-18.83-62.07-25.44-.24-1.27-29.93-8.46-33.64-10.92l7.7-84.8c17.76-.85 29.52-1.7 38.53-1.7m0-2.23v2.23-2.23c-6.2 0-13.83.4-23.48.93l-17.1.88-8 88.06 1.1.73c2.06 1.36 9.1 3.44 19.64 6.45l13.23 4.02.04.2 1.1.46c4.65 1.93 10.17 4.77 16.03 7.78 14.54 7.47 31 15.93 46.64 17.8a12.18 12.18 0 0 0 1.65.11c6.82 0 17.57-5.23 20-15.06 1.8-7.23-.5-17.66-15.92-31.1 1.3.92 2.52 1.75 3.65 2.46l.04.03.05.03c9.48 5.43 19.03 8.3 27.62 8.3 10.9 0 19.03-4.88 21.22-12.74 3.73-13.38-9.67-30.82-35.85-46.66l-17.1-10.84c-27.62-17.63-34.18-21.8-54.56-21.8zm42.54 71.78a238.42 238.42 0 0 0-22.59-13.42c-3.16-1.75-10.97-3.52-20-5.56-6.9-1.56-14.02-3.17-19.74-4.92a67.7 67.7 0 0 1-4.19-1.42l42.67 5.58a331.6 331.6 0 0 1 7.04 5.84l16.82 13.9z"/></g><g><g><path d="M395 127.2h-41.02V78.52H395z" fill="#315e7a"/><path class="D" d="M368.14 127.2h-14.16V78.52h14.16zm16.92 0h-7.08V78.52h7.08z" opacity=".1"/><path d="M325.66 162.97c.03-.02 96.34.01 97.65 0 1 .14 1.6-1.83 1.38-2.6-.9-29.44 2.72-48.23-3.5-47.2h-92.45c-3.97-.27-4.85 1.86-4.44 9.05.87 14.37-1.9 40.44 1.37 40.77z" fill="#407ca1"/><path class="D" d="M330.37 113.92c2.3 22.3 18.46 11.98 46.98 14.24 26.5-1.12 39.62 5.68 41.24-14.24 7.37 3.95 5.93 9.3 6.08 14.7-1 47.46 10.13 31.66-51.64 34.34-59-1.17-47.6 7.35-48.75-24 .37-14.37-2.17-20.85 6.08-25.06z" opacity=".1"/><path d="M286.64 562.8c-17.18 0-19.5 0-19.73 0a4.57 4.57 0 0 1-.47-.03c-16.2-1.85-15.18-16.7-14.57-25.57a40.57 40.57 0 0 0 .08-8.33 4.46 4.46 0 0 1-.06-.73l-.08-176.9c-.37-48.65-.6-78.05 5.15-94.16 17-54.52 64.15-89.74 120.17-89.74 49.95 0 93.9 28.64 114.73 74.74 12.23 24.64 11.6 64.84 10.7 120.47-.4 24.48-.83 52.22-.15 82.22 0 .05 0 .1 0 .14l.13 64.3c.23 22.02.36 34.14-1.07 41.34-1.85 9.34-6.82 11.65-13.73 12.24q-.2.02-.38.02a5.4 5.4 0 0 1-.09 0H455.8z" fill="#fefeff"/><path d="M377.14 171.78c44.4 0 88.9 23.84 110.7 72.2 17.16 34.46 7.96 104.9 10.13 200.88-.95 103.66 4.73 112.16-10.6 113.48 0-.01-12.3-.01-31.1-.01l-169.02.01c-12.25 0-19.9 0-20.32 0-16.44-1.88-8.98-20.48-10.6-30.2V425.85c.88-93.67-3.1-145.25 4.85-167.37 17.88-57.5 66.84-86.7 115.95-86.7m.01-8.9v8.9-8.9a129.37 129.37 0 0 0-74.81 23.41c-23.4 16.45-40.56 40.44-49.6 69.38-5.98 16.86-5.75 46.54-5.38 95.6l.08 176.87a8.91 8.91 0 0 0 .12 1.47 39.62 39.62 0 0 1-.13 7.29c-.36 5.24-.78 11.18.98 16.7 2.48 7.77 8.7 12.6 17.52 13.6a8.91 8.91 0 0 0 .94.06h220.5q.38 0 .76-.03c6.9-.6 15.17-2.92 17.72-15.8 1.5-7.64 1.4-19.2 1.15-42.25l-.13-64.2q0-.14 0-.28c-.68-29.9-.24-57.6.15-82.05.9-56.2 1.54-96.84-11.13-122.45-11.06-24.44-28.43-44.5-50.24-58a130 130 0 0 0-68.5-19.3z"/><path d="M329.1 203.2h96.55a32.99 32.99 0 0 1 22.31 8.73 107.09 107.09 0 0 1 34.65 79.14v248.47a9.29 9.29 0 0 1-9.22 9.35H281.38a9.29 9.29 0 0 1-9.22-9.35V291.06a107.09 107.09 0 0 1 34.66-79.14 32.99 32.99 0 0 1 22.31-8.73z" fill="#4e96c2" opacity=".25"/><path d="M468.36 258.7c15.4 49.97 4.98 51.38 7.9 135.1-1.05 73.26 2.48 144.55-2.13 147.02.3 7.06-91.86 1.35-146.83 3.06-27.34-.94-46.4 3.64-48.4-6.33-1-173.94-3.3-275.84 8.37-278.85h181.1z" fill="#74c8e3"/><path d="M501.53 460.25H252.08V326.32h249.45z" fill="#fefeff" stroke="#000" stroke-linejoin="round" stroke-width="8.91"/><path d="M486.82 295.22c-.88 22.73 2.82 52.85-3.8 53.04-56.72-1.54-103.74-110.77-103.58-142.02-2.63-13.76 17.35-8.56 26.43-7.87 46.2 7.72 80.8 48.1 80.95 96.85z" fill="#fff" opacity=".2"/><path d="M342.63 376.55c11.43.9 17.78-1.52 18.02-10.1-4.94-26.7 30.9-17.88 32.16-12.78 4.2 22-1.8 22.58 21.9 23.24 9.92 2.7 6.5 13.58 7.08 23.2.32 6.1-5.74 10.5-10.63 9.95-36.83-1.45 4.32 32.2-39.73 27.67-18.75-.66-4.76-20.76-15.56-26.35-6.44-3.7-15.9 1.73-20.88-5.07-4.4-8.18-4.08-30.56 7.64-29.73z" fill="#74c8e3"/><path class="D" d="M377.4 175.17a126.83 126.83 0 0 1 12.7.7c-57.6 6.27-101.03 53.84-100.9 111.58l.4 197.83c.05 26.84 21.68 50.8 48.67 53.57l154.36 15.8a10.23 10.23 0 0 1-7.59 3.38H269.77a10.41 10.41 0 0 1-10.34-10.48V294.8c0-66.07 52.8-119.63 117.96-119.63z" opacity=".1"/><path d="M425.64 264.55c56.78 92.14 48.37-3.4 33.87-20.9-12.32-19.73-31.7-28.57-42.6-28.64-16.93-.6-11.7 18.75 8.74 49.54z" fill="#fff" opacity=".2"/><path d="M501.2 37.8c-20.73 30.66-6.43 4.53-69.17 22.3-17.88 5.32-22.67 16.42-29.5 18.55.98 8.64-4.72 8.13-6.1 8.14-49.77-.66-53.77 3.62-52.7-8.85-9.22-.82-18.88-12.33-28.22-16.84.02-9.2-.84-22.66.6-21.04 8.06-3.36 87.03-34.38 185.08-2.25z" fill="#ebf0f7"/><path class="D" d="M317.42 57.4c8.8 3.93 20.57 14.04 29.27 15.6-3 12.9 34.85 4.73 46.16 6.88 1.73.6 6.1-1.43 5.9-6.67 7.52-2.73 17.83-13.96 29.7-16.24 41.1-13.3 60 4.2 72.78-19.14-20.73 30.66-6.43 4.53-69.17 22.3-17.88 5.32-22.67 16.42-29.5 18.55.98 8.64-4.72 8.13-6.1 8.14-49.77-.66-53.77 3.62-52.7-8.85-9.7-1.06-16.66-10.88-27.7-16.5-1.6 1.42-.1-11.04-.57-12.36z" opacity=".1"/><path d="M386.1 49.68c-22.12 0-42.72-2.42-60.05-6.56 20.6-5.1 69.43-13.93 130.6-2.84-19.2 5.87-43.78 9.4-70.55 9.4z" fill="#fff" opacity=".2"/><path d="M315.58 195.07c.02-.02 115.23.01 117.77 0 1.15.02 2.1-1.93 1.73-2.97-.83-44.25 2.8-60.77-4.1-60H319.32c-5.78-.17-5.65 2.7-5.43 12.54.88 18.8-2.05 51.28 1.7 50.42z" fill="#4e96c2"/><g class="M" opacity=".1"><path d="M377.98 189.13h0c2.28.68.7-15.94 1.14-29.37-.65-12.97 1.47-20.46-1.14-21.7-2.28-.63-.7 15.9-1.14 29.37.65 12.96-1.47 20.46 1.14 21.7zm7 0h0c2.28.68.7-15.94 1.14-29.37-.65-12.97 1.47-20.46-1.14-21.7-2.28-.63-.7 15.9-1.14 29.37.65 12.96-1.47 20.46 1.14 21.7zm7 0h0c2.28.68.7-15.94 1.14-29.37-.65-12.97 1.47-20.46-1.14-21.7-2.28-.63-.7 15.9-1.14 29.37.65 12.96-1.47 20.46 1.14 21.7zm7 0h0c2.28.68.7-15.94 1.14-29.37-.65-12.97 1.47-20.46-1.14-21.7-2.28-.63-.7 15.9-1.14 29.37.65 12.96-1.47 20.46 1.14 21.7zm7 0h0c2.28.68.7-15.94 1.14-29.37-.65-12.97 1.47-20.46-1.14-21.7-2.28-.63-.7 15.9-1.14 29.37.65 12.96-1.47 20.46 1.14 21.7zm7 0h0c2.28.68.7-15.94 1.14-29.37-.65-12.97 1.47-20.46-1.14-21.7-2.28-.63-.7 15.9-1.14 29.37.65 12.96-1.47 20.46 1.14 21.7zm7 0h0c2.28.68.7-15.94 1.14-29.37-.65-12.97 1.47-20.46-1.14-21.7-2.28-.63-.7 15.9-1.14 29.37.65 12.96-1.47 20.46 1.14 21.7zm6.98 0h0c2.25.63.7-14.92 1.14-27.3-.64-11.97 1.44-18.4-1.14-19.67-2.26-.6-.7 14.9-1.14 27.3.64 11.97-1.44 18.42 1.14 19.67zm-62.9 0h0c2.28.68.7-15.94 1.14-29.37-.65-12.97 1.47-20.46-1.14-21.7-2.28-.63-.7 15.9-1.14 29.37.65 12.96-1.47 20.46 1.14 21.7zm7 0h0c2.28.68.7-15.94 1.14-29.37-.65-12.97 1.47-20.46-1.14-21.7-2.28-.63-.7 15.9-1.14 29.37.65 12.96-1.47 20.46 1.14 21.7zm-20.98 0h0c2.28.68.7-15.94 1.14-29.37-.65-12.97 1.47-20.46-1.14-21.7-2.28-.63-.7 15.9-1.14 29.37.65 12.96-1.47 20.46 1.14 21.7zm6.98 0h0c2.28.68.7-15.94 1.14-29.37-.65-12.97 1.47-20.46-1.14-21.7-2.28-.63-.7 15.9-1.14 29.37.65 12.96-1.47 20.46 1.14 21.7zm-20.95 0h0c2.28.68.7-15.94 1.14-29.37-.65-12.97 1.47-20.46-1.14-21.7-2.28-.63-.7 15.9-1.14 29.37.65 12.96-1.47 20.46 1.14 21.7zm7 0h0c2.28.68.7-15.94 1.14-29.37-.65-12.97 1.47-20.46-1.14-21.7-2.28-.63-.7 15.9-1.14 29.37.65 12.96-1.47 20.46 1.14 21.7zm-20.97 0h0c2.25.64.7-14.92 1.14-27.3-.64-11.97 1.44-18.4-1.14-19.67-2.26-.6-.7 14.9-1.14 27.3.64 11.97-1.44 18.42 1.14 19.67zm7 0h0c2.28.68.7-15.94 1.14-29.37-.65-12.97 1.47-20.46-1.14-21.7-2.28-.63-.7 15.9-1.14 29.37.65 12.96-1.47 20.46 1.14 21.7z"/></g><path class="D" d="M316.2 137.2c9.72 59.04-9.5 43.36 59.25 45.52 68.9-1.2 47.18 10.5 57.33-45.52 3.72 7 1.86 7.3 2.3 15.16-1.46 58.2 13 39.68-61.08 42.7-75.9-2.07-57.85 12.97-60.12-43.45.3-7.04-1.16-8.3 2.3-14.42z" opacity=".1"/></g><g><path class="N" d="M418.5 114.44c-2.98-2.25-19.9-.98-23.5-1.3V86.8c6.84.94 8-3.43 7.56-8.42 6.42-1.38 11.82-11.53 20.65-14.6 25.64-12.77 64.5-10.3 66.42-10.2-1.07 1.76 11.32-15.48 11.6-15.75-97.78-32.1-177.15-1.14-185.08 2.25-.9-1.7-1.82 16.12.3 21.64 16.46 9.76 20.47 16.55 27.3 16.24-1.1 9.73 4.13 8.93 10.24 8.85v26.36c-17.68.5-31.6-4.63-29.7 19.34-14 6.94-9.74 12.45-10.4 33.15.67 18.75-2.95 29.77 6.17 29.43H427.2c8.88.18 8-2.9 7.88-17.72 3.43-57.75-11.3-36.53-10.4-48.28-.4-8.64 1.6-7.8-6.2-14.64z" stroke="#000" stroke-linejoin="round" stroke-width="8.91" fill="none"/></g></g><g><g><path d="M186.12 560.33c-9.87 0-84.84-37.9-93.35-42.2-22.48-11.4-43.15-22.38-58.2-30.9-18.38-10.4-25.1-15.22-27.77-17.87H6.3l-.87-1.6a5.7 5.7 0 0 1-.41-.75V467c-1.4-2.62-.88-3.47 5.7-13.92L26.1 429.2l120.74-185.24c7.36-13.62 18.47-36.13 29.2-57.9 15.18-30.77 28.33-57.43 33.35-64.43 11.28-24.14 18.96-42.35 24.57-55.67 13.76-32.64 17.5-41.5 36.84-49.07 14.04-7.1 43.38-12.44 68.43-12.44 22.07 0 35.75 3.85 40.67 11.43 1.7 2.63 3.18 7.02.5 12.98-5 10.9-17.96 13.45-28.36 15.5a59.84 59.84 0 0 0-9.11 2.22l-.16.06c-7.36 2.6-20.45 8.62-36.94 17.02l-1.54 5.23c-2.14 7.38-5.36 18.52-8.5 25-4.9 10.9-5.22 13.08-6.62 22.15a456.2 456.2 0 0 1-2.86 16.78c-3.65 17.46-3.47 18.05 1 33.1l4.08 14.2c2.95 10.82 8.7 15.64 18.66 15.64 10.8 0 25.02-5.6 38.77-11.02 14.4-5.67 29.32-11.54 41.6-11.54a31.91 31.91 0 0 1 8.05.97c8.97 2 15.45 7 17.78 13.74 2.2 6.37.54 13.4-4.7 19.76-10.8 13.23-22.3 22.62-33.44 31.7-12.44 10.16-24.2 19.75-33.8 33.83l-.1.13-.1.13a234.2 234.2 0 0 0-13.26 18.47c-4.55 6.9-8.15 12.33-15.68 18.85-27.3 24.5-43.9 36.74-53.84 44.05-7.95 5.86-11.95 8.8-14.3 12.65-2.43 3.97-3.78 9.83-6.47 21.5-3.04 13.2-7.63 33.14-17.33 65.86-24.57 89.53-30.42 100.37-32.75 103.2a4.93 4.93 0 0 1-4.38 2.29z" fill="#fbb03b"/><use xlink:href="#B"/></g><g><path d="M56.86 391l157.32 80.66-27.45 86.62c-61.2-23.1-123.35-60.27-181.46-91.4z" fill="#e56f17"/></g><g><use xlink:href="#B"/></g></g></g></g></g></g><defs ><path id="B" d="M339.25 8.9c23.94 0 43 5.02 37.1 18.14-5.65 12.3-26.03 11.84-35.04 15.4-12 4.22-33.8 15.37-38.78 17.92-.01-.12-.04-.18-.07-.18-.7 0-5.9 22.04-10.7 31.83-7.37 16.45-5.05 14.8-9.83 40-4.8 22.93-3.07 19.3 5.15 49.3 3.84 14.1 12.22 18.9 22.95 18.9 23.2 0 57.42-22.56 80.38-22.56a27.23 27.23 0 0 1 7 .84c14.92 3.3 19.85 15.2 10.7 26.35-22.6 27.66-48.8 38.48-67.48 65.84-15.36 19.3-16.3 26.27-28.37 36.73-96.7 86.8-54.75 16.1-93.3 146.16-13.02 47.45-27.4 96.8-32.23 102-.01.22-.22.32-.63.32-11.4 0-173.12-80.96-177.14-90.98h-.01c-2.22 0 129.78-197.5 141.77-218.74 17.43-32.23 54.63-111.82 62.52-122.23 38.42-82.17 34.1-93.12 59.4-102.96 13.67-7 42.6-12.06 66.6-12.06m0-8.9C313.3 0 283.88 5.38 269 12.83c-20.92 8.25-25.2 18.37-39.12 51.42-5.57 13.22-13.2 31.27-24.34 55.16-5.03 7.25-16.14 29.56-33.47 64.7l-29.13 57.75c-5.8 10.23-40 62.25-73.1 112.56l-67.2 103.3c-1.8 3.02-4.02 6.8-1.54 11.4l2.52 4.68h1.43a70.95 70.95 0 0 0 7.32 5.33c4.8 3.16 11.53 7.2 19.98 11.97 15.12 8.55 35.86 19.56 58.4 31 21.66 11 42.87 21.32 59.72 29.07 29.6 13.62 33.23 13.62 35.64 13.62a9.49 9.49 0 0 0 8.09-4.25c2.97-3.88 9.4-17.3 33.34-104.53 9.72-32.8 14.33-52.8 17.38-66.04 2.5-10.85 3.87-16.82 5.93-20.17 1.82-2.98 5.14-5.5 13.14-11.38 9.98-7.35 26.7-19.66 54.18-44.33 7.95-6.9 11.7-12.55 16.42-19.7 3.24-4.9 6.9-10.45 13.03-18.15l.2-.25.18-.27c9.25-13.55 20.76-22.94 32.95-32.9 11.3-9.22 22.98-18.76 34.07-32.34 6.14-7.5 8.13-16.25 5.44-24.03-2.84-8.2-10.47-14.26-20.94-16.6a36.41 36.41 0 0 0-9.1-1.09c-13.14 0-28.44 6.02-43.24 11.85-13.37 5.26-27.2 10.7-37.14 10.7-6.6 0-11.56-2.1-14.36-12.34l-4.1-14.3c-4.32-14.55-4.32-14.55-.92-30.83l.02-.08.02-.08c1.46-7.7 2.3-13.04 2.9-16.93 1.36-8.78 1.64-10.64 6.26-20.95 3.3-6.83 6.45-17.7 8.76-25.65l.98-3.36c20.78-10.54 30.62-14.5 34.7-15.93l.16-.06.16-.06a58.18 58.18 0 0 1 8.33-2c10.8-2.12 25.6-5.03 31.54-17.97l.02-.04.02-.04c2.72-6.08 2.43-12.2-.83-17.23C377.8 4.4 363.26 0 339.25 0z"/></defs></svg>