<svg xmlns="http://www.w3.org/2000/svg" viewBox="0 0 503.68 558.67" width="503.68" height="558.67"><path d="M187.365 548.14c64.624-194.25 42.85-188.293 67.134-195.068l.7 190.164c2.054 16.866 20.98 8.755 33.514 10.604h102.14c95.72-1.043 105.854 5.224 105.974-12.04V323c2.355-59.86-4.24-105.994-62.887-141.1v-49.814c-1.533-10.368-12.692 1.586-10.396-9.458-.354-9.455 1.756-13.87-4.307-13.97-7.66.02-18.257-.013-25.317 0-.285.303.018-3.22-.068-8.34V82.304c2.486.14 5.185.203 6.923-2.3 9.122-27.3 62.2-32.767 86.566-30.995 21.697-19.552 10.687-15.736-8.904-21.873-77.38-18.2-104.79.167-102.326-9.387-.07-6.444-4-7.63-10.325-10.042-35.19-7.75-73.224-.29-92.91 8.18C244.702 26.34 245.37 48.87 229.28 81.072c-16.635 40.445-21.378 44.567-32.057 65.003-20.805 42.333-49.615 102.3-55.6 108.343L4.455 461.9c50.363 26.867 118.232 72.422 182.9 86.242zm125.374-373.78c-17.986-9.97-32.23-4.144-32.108-16.646l2.55.333c24.003 3.62 31.276.4 29.558 16.313zM300.425 56.357c1.258.368 11.49-7.98 13.877-5.66.226 5.625-.878 5.667 1.618 6.922 18.717 11.27 17.63 14.47 25.564 15.83 2.747 15.732 12.08 4.91 11.344 10.454l-.07 24.755c-7.324-.03-17.688.022-25.317 0-9.268-1.782-.477 19.026-5.994 14.034-33.57-20.928-41.862 4.772-36.208-22.093 2.22-5.197 14.735-34.902 15.185-44.244z" stroke="#000" stroke-linejoin="round" stroke-width="8.909"/></svg>