<svg xmlns="http://www.w3.org/2000/svg" width="374.28" height="518.58"><path fill="#741710" d="M363.93 372.03l-9.8-103.54 1.66-4.33c2.23-6.37 3-13.3 3.23-20 .46-14-2.84-28.13-7.2-41.32-1.16-3.52-3.28-6.82-3.53-10.4l-.76-10.8c-.43-6.14-.67-12.34-1.32-18.46-1.44-13.48-1.54-27.06-3.18-40.55-1.56-12.83-3.9-25.57-7.5-38-6.6-22.66-18.32-44.4-37.5-58.77-22.8-17.1-50.62-22.9-78.5-24.83-21.3-1.48-43.02-1.36-64.33.13-10.15.7-20.27 2.03-30.23 4.1-4.87 1.02-9.66 2.34-14.4 3.85-3.9 1.24-8.26 4.08-12.23 4.72a3.8 3.8 0 0 0-1.77.8C77.63 23.53 62.43 37.14 51.64 55c-.96.82-1.6 1.98-1.75 3.25-.12.08-.4.44-.9 1.4a120.2 120.2 0 0 0-2.19 4.31 155.5 155.5 0 0 0-3.84 8.65C40.13 79.36 37.92 86.35 36 93.4c-3.85 14.13-6 28.7-7.5 43.25-.37 3.6-.65 7.23-.9 10.85-.2 2.84.08 6.1-.65 8.87l-2.2 8.46-5.18 21.35C10.3 226.33 3.04 267.28.74 308.48-.93 338.54-.8 372.2 12.67 399.9l-1.34 22.52c-.03.5-.2 1.83.1-.35l-.43 3.08c-.25 1.8-.52 3.54-.46 5.36.2 6.43.9 12.4 1.8 18.8 3.42 24.2 12.93 54.7 39.17 62.33 1.75.5 3.33-.06 4.5-1.13 2.8-1.78 3.77-6.08-.01-8.35-4.6-2.76-6.82-7.06-7.7-11.93 4.62 5.63 10.82 9.52 19.15 9.9 4 .18 5.95-4.32 4.32-7.52-.8-1.56-1.52-3.2-2.2-4.86.1.08.18.17.27.25 4.88 4.24 11.3-2.2 7.07-7.07 1.17 1.34.43-.26.46-1.4.04-1.42.32-2.82.57-4.2.13.14.25.3.38.46 1.44 1.7 4.24 1.85 6.06.78 2.3-1.34 3.25-4.53 1.8-6.84l-.32-.5c.2-1.26.9-2.34 1.75-3.35a24.5 24.5 0 0 1 6.25-5.4 72.3 72.3 0 0 1-.99 5.76 77.3 77.3 0 0 0-1.49 12.79c-.4 10.6 2.3 21.03 7.25 30.35 2.52 4.73 8.9 2.1 9.32-2.52.85-9.68 3.98-20.2 8.6-29.82 1.42 9.85 4.3 19.84 11.37 25.52 3.96 3.18 9.28.25 8.36-4.86-.44-2.45-.48-5.98-.34-9.38 6.27-.74 12.13-3.8 17.52-7.22 1.5-.95 2.95-2 4.4-3.03.7-.5-1.63-.4-.62-.52 1.23-.16 2.2-.35 3.34-.82 3.55-1.48 6.6-3.84 9.34-6.5l14.53 13.7c3.8 3.58 9.3-.02 8.36-4.86 0 0-.12-2.4.01-3.96a7.6 7.6 0 0 1 .61-2.39c2.38 10.9 6.2 21.9 14.05 29.83 4.18 4.2 10.26-1.1 7.85-6.06a63.5 63.5 0 0 1-3-8.88 69.3 69.3 0 0 1-1.58-7.6c.14.56.27 1.13.37 1.72.35 2.06 2.8 3.8 4.82 3.67 5.23-.36 9.94-3.43 14.04-7.44-.12.37-.23.75-.36 1.12-1.84 5.1 4.9 7.85 8.36 4.86a36.8 36.8 0 0 0 4.06-4.15l-3.07 9.13c-1.77 5.07 4.88 7.92 8.36 4.86 3-2.63 5.7-5.62 8.2-8.77 1.72 6.68 2.2 13.56-.5 20.17-1.02 2.5.56 4.77 2.74 5.75-1.9 3.52 1.1 9.14 5.6 7.36.4-.16.8-.34 1.2-.5 9.2-3.98 15.68-10.95 20.33-19.72 4.85-2.04 9.26-4.83 13.2-8.23l.43 1.74c.62 2.52 3.63 4.36 6.15 3.5 3.87-1.34 7.48-3.43 10.82-5.94-.7 2.64-1.6 5.15-2.78 7.34l-.02.03a5.6 5.6 0 0 0-.46 1.17c-.01 0-.02-.01-.02-.01a106.7 106.7 0 0 1-2.86 6.67 5 5 0 0 0 6.84 6.84c6.27-2.86 11.98-7.13 17.1-12.17 1.07.67 2.42.98 3.88.67 11.27-2.4 20.9-12.2 26.63-21.62 7.02-11.56 9.63-25.33 10.3-38.66 1.14-22.7-3.85-45.67-10.18-67.32z"/><g fill="#85c15a"><path d="M340.94 188.52l.12-7.47c0-56.7-5.6-119.16-44.12-149.74C267.22 7.73 229.2 5.2 187.78 5.2c-42.3 0-81.03 3.1-111.02 27.62-8.7 7.1-15.76 15.9-21.53 25.9l-.4.1v.57C36.06 92.43 31.5 138.5 31.5 181.05c0 26.6 4.3 51.86 12.36 74.63 6.62 64.85 19.22 131.77-8.9 193.83 37.7-37.62 41.9-100.28 42.04-136.3 27.02 30.8 64.95 49.7 110.78 49.7 76.42 0 128.96-52.54 146.68-125.26-.25 27.7-4.93 51.7-4.93 51.7 35.1-21.13 26.48-66.44 11.4-100.8z"/><path d="M335.36 134.28s-13.74 271.08 5.7 286.53c0 0 18.96 50-5.2 74 0 0 55.73-11.67 23.2-121.68l-23.68-238.85z"/><path d="M360.5 436.26c0 14.42-11.2 26.1-25 26.1l-148.82-23-146.16 23c-13.8 0-25-11.7-25-26.1l16-269.4c0-14.42 38.2-105.1 52-105.1l220.98-2c13.8 0 37 92.7 37 107.1l19 269.4z"/></g><g fill="#5aa13e"><path d="M81.45 471.56a3.4 3.4 0 0 0 .42.67l-.42-.67z"/><path d="M349.94 347.6s-23.16-70.56-19.3-132.7c0 0-50.65 115.95-49.93 184.3-2.3-7.4-4.27-14.98-4.92-23.22-.6-7.6-.32-36.82 6.43-41.85-12.15 9.05-27.65 26.15-34.43 44.28-29.65-4.07-90.56-8.78-116.2 16 11.7-18.2 21.35-15.76 21.35-15.76l-18.3-17.8a142 142 0 0 0-13.56 17.41c-1.42-14.86-8.24-30.4-14.7-39.9 3.93 5.8-3.8 28.77-6.35 34.57-6.7 15.32-18.43 25.5-26.23 39.28-.65 1.16-1.28 2.35-1.88 3.56-12.22 8.36-22.85 19.4-31.25 33.74 0 0 1.4 45.34 26.77 45.6 0 0-11.4-22.05-4.25-38.94-.18 11.06 2.16 21.73 10.2 28.28-2.48-2.02-.05-12.75 2.52-21.68l5.55 8.8c-1.08-2.16-2.56-9.47 17.8-19.95a141 141 0 0 0 .26 8.71c-3.4 11.2-6.13 29.3 3.45 46.5 0 0 2.1-25.2 17.1-45.62 1.2 16.44 4.28 32.58 11.4 37.8 0 0-1.2-6.36-.18-15.57 4.47.74 12.36-.8 25.62-10.87 0 0 4.48.07 12.86-9.37l18.22 17.2s-2.68-12.95 8.75-16.88c2.33 14.02 6.57 28.13 14.28 35.5 0 0-7.3-14.8-6.08-36.12 2.25 1.82 9.87 8.58 11 17.5 0 0 8.62-.42 21.37-19.98.02 7.56-.76 14.6-2.87 19.98 0 0 7.25-6.13 14.67-22.63 6.94 11.88 17.46 33.82 10.76 48.73 0 0 2.75-1.62 6.63-5.08-.9 6.27-2.3 11.26-4.45 12.04 8.9-3.25 15-10.5 19.25-19.32 3.94-1.37 12.1-5.1 19.55-14.13l2.5 10.23s9.48-3.15 19.74-15.23c-1.48 10.56-4.4 21.37-9.42 31.84 0 0 72.5-32.5 36.26-159.2zm-217.7 129.92a63.8 63.8 0 0 1 9.44-22.79c.1 7.74-1.6 17.45-9.44 22.8zm149.72 15.24c4.73-10.44 7-22.88 8.27-33.57.97-4.68 1.6-9.74 1.83-15.2 0 .01.01.03.01.04l.87 3.55c3.5 15.56 3.55 34.2-10.98 45.18zm34.24-62.96c.13-9.02-.6-19.26-2.5-30.9 0 0 5.67 13.68 8.74 33.48l-6.24-2.57z"/><path d="M15.5 428.8s.5 68 37.34 78c0 0-30.85-12 7-78L85.7 166.1 67.12 55.48 15.5 428.8z"/></g><path d="M313.7 240.65a805.5 805.5 0 0 0 5.03 54.72c1.78 14.27 3.2 29.34 7.1 43.2 7.63 27.02 19.53 44.63 18.8 73.64-.82 32.76-12.4 58.53-27.6 86.75.01-.02 40.7-75.6-8.32-177.87-49.03-102.3 0 0 0 0s-9.4-27.7 4.97-80.46zM243.8 490.2s46.93-40.55 27.43-109.05l-22.67 4.95s28.8 8.37-4.76 104.1zM62.2 259.8a292.5 292.5 0 0 1 4.76 30.64c-2.72 43.18-16.37 82.7-16.37 82.7-6.08 19.85-9.16 36.53-10.25 50.5-1.94 3-3.15 4.52-3.15 4.52-19.28 62.98 16.27 78.3 16.27 78.3-16.06-9-9.18-33-9.18-33l1.5-3c5.9 14.72 14.05 19.74 14.05 19.74-6.92-7.7-10.07-16.8-11.28-25.36C108.87 339.78 62.2 259.8 62.2 259.8z" fill="#3f7526"/><path fill="#d8f49d" d="M305.02 303.17s29.3 89.6 10.78 135.15c0 0-6.98 25.53-31 42.03 0 0 55.76-70.32 12.12-143.15l8.1-34.03z"/><g fill="#1f3a13"><path d="M304.88 145.83s4.62-95.6-40.28-78.32"/><path opacity=".5" d="M264.6 67.52s44.9-40.1 54.9 29.3c0 0 .57 26.05-14.62 49.02s0 0 0 0"/></g><path fill="#dfdcc0" d="M186.77 449.35h-41.38l-76.54-91.98-9-78-7-33 7-25.5 2-52.52 6-81.92H305.7l6 81.92 2 52.52 7 25.5-7 30-9 81-79.46 91.98z"/><path d="M144.6 61.2s1.03-22.64-44.94-42.5c0 0 49.03-8 68.53 41.06V78.2l-23.6-3.8V61.2zm75.07 14.95s-12.03-36.57 38-57.96l6.94-4.13-6.94-2.1s-60.6 10.3-52.62 66.25" fill="#aed566"/><path fill="#d8f49d" d="M160.92 77.03s.7-54.5-61.26-58.36c0 0 53.36 12.8 49.36 55.47"/><path opacity=".5" fill="#1f3a13" d="M62.9 105.38C48 58.9 76.77 48.2 76.77 48.2c16.1-4.06 28.07-.45 36.4 4.84 10.52 6.68 15.25 16.06 15.25 16.06s-69.64 5.53-65.52 36.3"/><path fill="#5aa13e" d="M35.03 145.83S-18.46 328.9 17.73 398.9"/><path fill="#d8f49d" d="M310.8 128s34.3-9.25 32.03 81.7c0 0 4.96-79.16-31.76-74.36"/><path fill="#de8d5e" d="M63.67 80.22l20.1-15.42 102.9 16.33L288.93 64.8l20.1 15.42 4.65 125.65-16.76-114.25-110.26 1H76.77L59.84 205.87z"/><path fill="#8b9070" d="M129.96 373.13l-10-7.4-63.3-101.9 82.02 66.23z"/><path d="M211.8 230.8l36.7 64.72 36.7-64.72-36.7-64.72zm-117.03 2.16l36.7 64.72 36.7-64.72-36.7-64.72z" fill="#0ca8c7"/><ellipse fill="#dfdcc0" cx="131.42" cy="232.52" rx="37.49" ry="21.5"/><path d="M211.9 312.33a13.1 13.1 0 0 0 0-18.95l-14.48-14.02a14.2 14.2 0 0 0-19.58 0l-14.48 14.02a13.1 13.1 0 0 0 0 18.95s22.26 19.75 48.54 0zm17.2 34.3h-88.83l-63.5-50.34v5.08l43.08 69.23 42.94 26.37 23.98 1.9 23.97-.9" fill="#88172b"/><path fill="#8b9070" d="M243.74 373.13l10-7.4 63.3-101.9L235 330.08z"/><path fill="#88172b" d="M144.6 346.64h88.83l63.5-50.34v5.08l-43.08 69.23-42.94 26.37-23.98 1.9-23.97-.9"/><path fill="#cd2429" d="M158 365.77h57.96l-7 7.36H165z"/><path fill="#6d7462" d="M156.92 232.95c0-9.97-12.76-18.05-28.5-18.05s-28.5 8.08-28.5 18.05 12.76 7.4 28.5 7.4 28.5 2.56 28.5-7.4z"/><ellipse fill="#dfdcc0" cx="248.52" cy="231.2" rx="37.49" ry="21.5"/><path fill="#5b081a" d="M158 366.7c19.36-1.25 38.6-1.3 57.96 0 1.58.1 1.57-2.35 0-2.46a437.5 437.5 0 0 0-57.96 0c-1.57.1-1.58 2.56 0 2.46z"/><path fill="#8b9070" d="M155.6 235.08c0 3.85-3.22 11.8-7.2 11.8h-37.95c-3.98 0-7.2-7.96-7.2-11.8s3.22-2.13 7.2-2.13h37.95c3.98 0 7.2-1.72 7.2 2.13z"/><path fill="#0ca8c7" d="M251.3 275.53v117.93c0 3-1.24 5.43-2.77 5.43s-2.77-2.43-2.77-5.43V275.53"/><path fill="#6d7462" d="M220.8 232.95c0-9.97 12.76-18.05 28.5-18.05s28.5 8.08 28.5 18.05-12.76 7.4-28.5 7.4-28.5 2.56-28.5-7.4z"/><path opacity=".8" fill="#3b0200" d="M154.4 366.2h64.57l-5.57-5.1h-53.43z"/><path fill="#8b9070" d="M222.57 235.3c0 3.85 3.22 11.8 7.2 11.8h37.95c3.98 0 7.2-7.96 7.2-11.8s-3.22-2.13-7.2-2.13h-37.95c-3.98 0-7.2-1.72-7.2 2.13z"/><path fill="#741710" d="M150.7 150.66c.01.02-.06-.1-.05-.1l-.01-.05-.1-.16c-.15-.25-.4-.64-.77-1.15-.74-1.02-1.95-2.47-3.62-4a29.4 29.4 0 0 0-2.88-2.26c-1.1-.7-2.27-1.44-3.58-2.02-1.3-.6-2.7-1.12-4.2-1.48-1.48-.4-3.06-.6-4.66-.73a29.1 29.1 0 0 0-4.86.15l-2.42.36-2.36.53c-1.56.37-3.03.9-4.44 1.4l-3.9 1.7-1.7.83-2.84 1.57-3.2 2-.63-.77 2.78-2.64 2.55-2.18 1.57-1.2c1.1-.87 2.35-1.7 3.7-2.6l4.46-2.5c.8-.42 1.64-.78 2.5-1.13a26.9 26.9 0 0 1 2.67-.98c1.82-.62 3.77-1.05 5.75-1.37a33 33 0 0 1 6.06-.31c2.03.06 4.03.36 5.94.78 1.92.4 3.72 1.04 5.4 1.7a39.8 39.8 0 0 1 4.57 2.24 38.7 38.7 0 0 1 6.24 4.5l1.65 1.58.26.27.38.43-10.24 7.6z"/><path opacity=".5" fill="#bcbda4" d="M187.63 230.8l60.9-36 48.4 38-43.26 34.9-49.36-13.7h-35.4l-45.72 13.14-48.37-31.43 59.1-40.92z"/><path d="M99.66 230.8l4.8 9.84 50.32-.16 4.12-8.94zm179.24 0l-4.8 9.84-50.32-.16-4.12-8.94z" fill="#5b081a"/><path fill="#741710" d="M220.65 143.06l.38-.43.26-.27a28.4 28.4 0 0 1 1.65-1.58 38.7 38.7 0 0 1 6.25-4.5c1.37-.78 2.9-1.56 4.57-2.24 1.7-.66 3.48-1.28 5.4-1.7 1.9-.42 3.9-.73 5.94-.78 2.02-.1 4.07.05 6.06.3 1.98.32 3.93.75 5.75 1.37l2.67.98 2.5 1.13c1.62.76 3.1 1.66 4.46 2.5l3.7 2.6 1.57 1.2 2.55 2.18 2.78 2.64-.63.77-2.1-1.3-1.1-.68-2.84-1.57-1.7-.83c-1.18-.6-2.5-1.12-3.9-1.7l-4.44-1.4a22.6 22.6 0 0 0-2.36-.53 21.7 21.7 0 0 0-2.42-.36 29 29 0 0 0-4.86-.15 25.4 25.4 0 0 0-4.65.73c-1.5.35-2.9.9-4.2 1.48-1.3.58-2.5 1.3-3.58 2.02-1.08.74-2.04 1.5-2.88 2.26a26.8 26.8 0 0 0-3.62 3.99l-.87 1.3-.01.05c.01 0-.07.12-.05.1l-10.23-7.6z"/></svg>