<svg xmlns="http://www.w3.org/2000/svg" width="369.29" height="513.5"><path fill="#50594b" d="M359 370.04l-10.23-103.2c-.18-1.83 1.5-4.02 2.13-5.85 2.16-6.18 2.93-12.83 3.14-19.34.46-13.78-2.8-27.66-7.1-40.65-1.2-3.66-3.35-7.23-3.62-11.06l-.76-10.8c-.43-6.14-.67-12.34-1.32-18.46-1.44-13.48-1.55-27.06-3.18-40.55-1.53-12.6-3.87-25.12-7.42-37.32-6.4-21.98-17.73-43.32-36.34-57.27-22.45-16.84-49.76-22.6-77.25-24.5C195.72-.43 174-.3 152.7 1.18c-9.93.7-19.82 1.98-29.57 4.02-4.87 1.02-9.66 2.34-14.4 3.85-3.9 1.24-8.25 4.08-12.23 4.72a1.9 1.9 0 0 0-.91.41c-9.8 4.57-18.87 10.4-26.9 17.67-3.74 3.4-7.06 7.22-10.16 11.2a109.2 109.2 0 0 0-4.34 6.04c-.44.66-2.96 4.93-2.5 4.8-1.07.3-1.84 1.3-1.84 2.4 0 1.5-2.64 4.9-3.4 6.42a147 147 0 0 0-3.59 8.06c-2.82 6.74-5.03 13.73-6.95 20.77-3.8 13.9-5.94 28.25-7.4 42.58-.66 6.5.02 14.1-1.65 20.38l-2.2 8.46-5.18 21.35C10.26 224.28 3.04 265 .75 305.98-.9 335.82-.93 369.48 12.7 396.9l-1.37 23.02c-.01.18-.12 1.34.02.32l-.42 3.08c-.22 1.6-.42 3.08-.37 4.7.2 6.2.83 11.95 1.7 18.13 3.28 23.2 12.12 53.23 37.43 60.6.88.26 1.68-.04 2.25-.58 1.62-.76 2.3-3.12.3-4.33-.03-.02-.06-.04-.1-.06-6.7-4.08-9.1-11.07-9.3-18.62-.04-1.4-.06-3 .03-4.64 4.36 8.9 11.2 16.14 22.1 16.62 2 .1 2.98-2.16 2.16-3.76a57.7 57.7 0 0 1-5.92-19.05 28.9 28.9 0 0 0 7.93 11.42c2.44 2.12 5.66-1.1 3.53-3.53 0-.01-.01-.02-.02-.03-1.28-1.53.13-6.46.4-8a79.7 79.7 0 0 1 1.27-5.74l2.45 3.88c.01.02.01.03.02.05a6.3 6.3 0 0 0 .81 1.17c.72.85 2.12.93 3.03.4 1.15-.67 1.62-2.27.9-3.42l-.12-.2c.12.14.01-.01-.12-.2l-.17-.27c-.01-.02-.01-.02-.01-.02 0-.01 0-.02-.01-.02-.8-1.77.92-4.6 2.25-6.2 2.87-3.46 6.66-6.3 10.87-7.75-.15 3.57-.66 6.83-1.43 10.53-.83 3.98-1.24 8.06-1.4 12.12-.4 10.16 2.15 20.15 6.9 29.1 1.26 2.37 4.46 1.05 4.66-1.26 1.16-13.2 5.8-26.6 12.68-38.1.97 11.47 3 25.15 11.57 32.03 1.98 1.6 4.64.13 4.18-2.43-.72-4.02-.63-8.22-.3-12.3 6.72-.1 13.07-3.58 18.65-7.1 1.16-.73 4.14-3.78 5.03-3.9.95-.12 1.78-.36 2.67-.74 3.86-1.6 7.08-4.53 9.96-7.56l16.34 15.42c1.9 1.8 4.65-.01 4.18-2.43-.94-4.82.67-9.67 4.48-12.42 2.2 11.94 5.68 24.72 14.37 33.48 2.1 2.1 5.13-.55 3.93-3.03-4.28-8.8-5.78-19.2-5.85-29.1 3.1 3.5 5.4 7.63 6.2 12.4.17 1.03 1.4 1.9 2.4 1.83 7.25-.5 13.6-7.28 18.42-13.8a45.3 45.3 0 0 1-2.33 10.64c-.92 2.55 2.45 3.93 4.18 2.43 5.7-4.92 9.8-12.13 13.13-19.03.12.42.16.8.07 1.15a363.8 363.8 0 0 1-2.32 7.92 445.3 445.3 0 0 1-5.71 17.38c-.88 2.53 2.44 3.96 4.18 2.43 4.13-3.62 7.7-7.94 10.98-12.4 2.84 8.53 4.42 17.65.93 26.22-.86 2.1 1.94 3.88 3.67 2.82a32 32 0 0 0 1.91-1.26c-.46 1.74-1.14 3.27-2.25 3.9-2.4 1.38-.76 5.63 1.93 4.57 9.18-3.63 15.5-10.48 20.06-19.1.83-1.57 5.74-3.14 7.7-4.33 3.33-2.02 6.33-4.53 9.05-7.3l1.4 5.76c.3 1.26 1.8 2.18 3.07 1.75 5.75-2 10.92-5.83 15.42-10.15-.92 5.37-2.2 10.88-4.57 15.26-.1.2-.17.38-.22.57a125.5 125.5 0 0 1-3.13 7.26c-1.1 2.34 1.1 4.48 3.42 3.42 6.88-3.13 13.06-8 18.47-13.7a2.6 2.6 0 0 0 3.1 1.96c10.65-2.27 19.72-11.57 25.13-20.47 6.8-11.18 9.3-24.5 9.97-37.4 1.14-22.54-3.84-45.3-10.13-66.8z"/></svg>