<?xml version="1.0" encoding="UTF-8" standalone="no"?>
<!-- Generator: Adobe Illustrator 16.0.0, SVG Export Plug-In . SVG Version: 6.00 Build 0)  -->

<svg
   xmlns:dc="http://purl.org/dc/elements/1.1/"
   xmlns:cc="http://creativecommons.org/ns#"
   xmlns:rdf="http://www.w3.org/1999/02/22-rdf-syntax-ns#"
   xmlns:svg="http://www.w3.org/2000/svg"
   xmlns="http://www.w3.org/2000/svg"
   xmlns:sodipodi="http://sodipodi.sourceforge.net/DTD/sodipodi-0.dtd"
   xmlns:inkscape="http://www.inkscape.org/namespaces/inkscape"
   version="1.1"
   x="0px"
   y="0px"
   width="408.875"
   height="408.871"
   viewBox="0 0 408.875 408.871"
   enable-background="new 0 0 1000 1000"
   xml:space="preserve"
   id="svg546"
   sodipodi:docname="knitPattern.svg"
   inkscape:version="0.92.4 (5da689c313, 2019-01-14)"><metadata
   id="metadata552"><rdf:RDF><cc:Work
       rdf:about=""><dc:format>image/svg+xml</dc:format><dc:type
         rdf:resource="http://purl.org/dc/dcmitype/StillImage" /></cc:Work></rdf:RDF></metadata><defs
   id="defs550" /><sodipodi:namedview
   pagecolor="#ffffff"
   bordercolor="#666666"
   borderopacity="1"
   objecttolerance="10"
   gridtolerance="10"
   guidetolerance="10"
   inkscape:pageopacity="0"
   inkscape:pageshadow="2"
   inkscape:window-width="640"
   inkscape:window-height="480"
   id="namedview548"
   showgrid="false"
   inkscape:zoom="0.236"
   inkscape:cx="256.931"
   inkscape:cy="28.875"
   inkscape:window-x="0"
   inkscape:window-y="0"
   inkscape:window-maximized="0"
   inkscape:current-layer="svg546" />
<g
   id="Layer_3"
   transform="translate(-243.069,-120.004)">
	<rect
   x="243.069"
   y="120.004"
   width="408.875"
   height="408.871"
   id="rect482"
   style="fill:#830000" />
</g>
<g
   id="Layer_1"
   transform="translate(-243.069,-120.004)">
	<path
   d="m 278.131,236.673 c 7.176,20.053 7.272,38.986 0.219,42.292 -7.047,3.307 -18.578,-10.27 -25.75,-30.313 -7.171,-20.053 -7.271,-38.988 -0.221,-42.293 7.054,-3.306 18.58,10.27 25.752,30.314 z m 11.647,0 c -7.175,20.053 -7.271,38.986 -0.219,42.292 7.047,3.307 18.579,-10.27 25.75,-30.313 7.171,-20.053 7.272,-38.988 0.219,-42.293 -7.05,-3.306 -18.579,10.27 -25.75,30.314 z"
   id="path485"
   inkscape:connector-curvature="0"
   style="fill:#cc0000" />
	<path
   d="m 359.906,236.673 c 7.175,20.053 7.27,38.986 0.22,42.292 -7.048,3.307 -18.58,-10.27 -25.751,-30.313 -7.171,-20.053 -7.272,-38.988 -0.219,-42.293 7.051,-3.306 18.578,10.27 25.75,30.314 z m 11.647,0 c -7.175,20.053 -7.271,38.986 -0.219,42.292 7.047,3.307 18.579,-10.27 25.751,-30.313 7.169,-20.053 7.27,-38.988 0.219,-42.293 -7.052,-3.306 -18.579,10.27 -25.751,30.314 z"
   id="path487"
   inkscape:connector-curvature="0"
   style="fill:#cc0000" />
	<path
   d="m 441.68,236.673 c 7.176,20.053 7.272,38.986 0.219,42.292 -7.047,3.307 -18.579,-10.27 -25.75,-30.313 -7.171,-20.053 -7.271,-38.988 -0.219,-42.293 7.052,-3.306 18.579,10.27 25.75,30.314 z m 11.649,0 c -7.175,20.053 -7.272,38.986 -0.216,42.292 7.044,3.307 18.576,-10.27 25.746,-30.313 7.172,-20.053 7.268,-38.988 0.225,-42.293 -7.062,-3.306 -18.586,10.27 -25.755,30.314 z"
   id="path489"
   inkscape:connector-curvature="0"
   style="fill:#cc0000" />
	<path
   d="m 523.452,236.673 c 7.179,20.053 7.274,38.986 0.224,42.292 -7.044,3.307 -18.576,-10.27 -25.747,-30.313 -7.171,-20.053 -7.275,-38.988 -0.224,-42.293 7.052,-3.306 18.576,10.27 25.747,30.314 z m 11.65,0 c -7.178,20.053 -7.274,38.986 -0.215,42.292 7.045,3.307 18.575,-10.27 25.748,-30.313 7.17,-20.053 7.266,-38.988 0.223,-42.293 -7.061,-3.306 -18.584,10.27 -25.756,30.314 z"
   id="path491"
   inkscape:connector-curvature="0"
   style="fill:#cc0000" />
	<path
   d="m 605.227,236.673 c 7.179,20.053 7.274,38.986 0.222,42.292 -7.04,3.307 -18.572,-10.27 -25.745,-30.313 -7.171,-20.053 -7.275,-38.988 -0.222,-42.293 7.049,-3.306 18.572,10.27 25.745,30.314 z m 11.65,0 c -7.178,20.053 -7.273,38.986 -0.216,42.292 7.045,3.307 18.576,-10.27 25.746,-30.313 7.172,-20.053 7.269,-38.988 0.226,-42.293 -7.06,-3.306 -18.585,10.27 -25.756,30.314 z"
   id="path493"
   inkscape:connector-curvature="0"
   style="fill:#cc0000" />
	<path
   d="m 359.906,154.899 c 7.175,20.053 7.27,38.986 0.22,42.293 -7.048,3.306 -18.58,-10.271 -25.751,-30.315 -7.171,-20.052 -7.272,-38.987 -0.219,-42.292 7.051,-3.307 18.578,10.269 25.75,30.314 z m 11.647,0 c -7.175,20.053 -7.271,38.986 -0.219,42.293 7.047,3.306 18.579,-10.271 25.751,-30.315 7.169,-20.052 7.27,-38.987 0.219,-42.292 -7.052,-3.307 -18.579,10.269 -25.751,30.314 z"
   id="path495"
   inkscape:connector-curvature="0"
   style="fill:#cc0000" />
	<path
   d="m 441.68,154.899 c 7.176,20.053 7.272,38.986 0.219,42.293 -7.047,3.306 -18.579,-10.271 -25.75,-30.315 -7.171,-20.052 -7.271,-38.987 -0.219,-42.292 7.052,-3.307 18.579,10.269 25.75,30.314 z m 11.649,0 c -7.175,20.053 -7.272,38.986 -0.216,42.293 7.044,3.306 18.576,-10.271 25.746,-30.315 7.172,-20.052 7.268,-38.987 0.225,-42.292 -7.062,-3.307 -18.586,10.269 -25.755,30.314 z"
   id="path497"
   inkscape:connector-curvature="0"
   style="fill:#cc0000" />
	<path
   d="m 523.452,154.899 c 7.179,20.053 7.274,38.986 0.224,42.293 -7.044,3.306 -18.576,-10.271 -25.747,-30.315 -7.171,-20.052 -7.275,-38.987 -0.224,-42.292 7.052,-3.307 18.576,10.269 25.747,30.314 z m 11.65,0 c -7.178,20.053 -7.274,38.986 -0.215,42.293 7.045,3.306 18.575,-10.271 25.748,-30.315 7.17,-20.052 7.266,-38.987 0.223,-42.292 -7.061,-3.307 -18.584,10.269 -25.756,30.314 z"
   id="path499"
   inkscape:connector-curvature="0"
   style="fill:#cc0000" />
	<path
   d="m 278.131,318.448 c 7.176,20.053 7.272,38.986 0.219,42.293 -7.047,3.306 -18.578,-10.27 -25.75,-30.314 -7.171,-20.053 -7.271,-38.986 -0.221,-42.293 7.054,-3.307 18.58,10.268 25.752,30.314 z m 11.647,0 c -7.175,20.053 -7.271,38.986 -0.219,42.293 7.047,3.306 18.579,-10.27 25.75,-30.314 7.171,-20.053 7.272,-38.986 0.219,-42.293 -7.05,-3.307 -18.579,10.268 -25.75,30.314 z"
   id="path501"
   inkscape:connector-curvature="0"
   style="fill:#cc0000" />
	<path
   d="m 359.906,318.448 c 7.175,20.053 7.27,38.986 0.22,42.293 -7.048,3.306 -18.58,-10.27 -25.751,-30.314 -7.171,-20.053 -7.272,-38.986 -0.219,-42.293 7.051,-3.307 18.578,10.268 25.75,30.314 z m 11.647,0 c -7.175,20.053 -7.271,38.986 -0.219,42.293 7.047,3.306 18.579,-10.27 25.751,-30.314 7.169,-20.053 7.27,-38.986 0.219,-42.293 -7.052,-3.307 -18.579,10.268 -25.751,30.314 z"
   id="path503"
   inkscape:connector-curvature="0"
   style="fill:#cc0000" />
	<path
   d="m 523.452,318.448 c 7.179,20.053 7.274,38.986 0.224,42.293 -7.044,3.306 -18.576,-10.27 -25.747,-30.314 -7.171,-20.053 -7.275,-38.986 -0.224,-42.293 7.052,-3.307 18.576,10.268 25.747,30.314 z m 11.65,0 c -7.178,20.053 -7.274,38.986 -0.215,42.293 7.045,3.306 18.575,-10.27 25.748,-30.314 7.17,-20.053 7.266,-38.986 0.223,-42.293 -7.061,-3.307 -18.584,10.268 -25.756,30.314 z"
   id="path505"
   inkscape:connector-curvature="0"
   style="fill:#cc0000" />
	<path
   d="m 605.227,318.448 c 7.179,20.053 7.274,38.986 0.222,42.293 -7.04,3.306 -18.572,-10.27 -25.745,-30.314 -7.171,-20.053 -7.275,-38.986 -0.222,-42.293 7.049,-3.307 18.572,10.268 25.745,30.314 z m 11.65,0 c -7.178,20.053 -7.273,38.986 -0.216,42.293 7.045,3.306 18.576,-10.27 25.746,-30.314 7.172,-20.053 7.269,-38.986 0.226,-42.293 -7.06,-3.307 -18.585,10.268 -25.756,30.314 z"
   id="path507"
   inkscape:connector-curvature="0"
   style="fill:#cc0000" />
	<path
   d="m 278.131,400.222 c 7.176,20.053 7.272,38.988 0.219,42.295 -7.047,3.304 -18.578,-10.271 -25.75,-30.316 -7.171,-20.053 -7.271,-38.986 -0.221,-42.292 7.054,-3.307 18.58,10.27 25.752,30.313 z m 11.647,0 c -7.175,20.053 -7.271,38.988 -0.219,42.295 7.047,3.304 18.579,-10.271 25.75,-30.316 7.171,-20.053 7.272,-38.986 0.219,-42.292 -7.05,-3.307 -18.579,10.27 -25.75,30.313 z"
   id="path509"
   inkscape:connector-curvature="0"
   style="fill:#cc0000" />
	<path
   d="m 359.906,400.222 c 7.175,20.053 7.27,38.988 0.22,42.295 -7.048,3.304 -18.58,-10.271 -25.751,-30.316 -7.171,-20.053 -7.272,-38.986 -0.219,-42.292 7.051,-3.307 18.578,10.27 25.75,30.313 z m 11.647,0 c -7.175,20.053 -7.271,38.988 -0.219,42.295 7.047,3.304 18.579,-10.271 25.751,-30.316 7.169,-20.053 7.27,-38.986 0.219,-42.292 -7.052,-3.307 -18.579,10.27 -25.751,30.313 z"
   id="path511"
   inkscape:connector-curvature="0"
   style="fill:#cc0000" />
	<path
   d="m 441.68,400.222 c 7.176,20.053 7.272,38.988 0.219,42.295 -7.047,3.304 -18.579,-10.271 -25.75,-30.316 -7.171,-20.053 -7.271,-38.986 -0.219,-42.292 7.052,-3.307 18.579,10.27 25.75,30.313 z m 11.649,0 c -7.175,20.053 -7.272,38.988 -0.216,42.295 7.044,3.304 18.576,-10.271 25.746,-30.316 7.172,-20.053 7.268,-38.986 0.225,-42.292 -7.062,-3.307 -18.586,10.27 -25.755,30.313 z"
   id="path513"
   inkscape:connector-curvature="0"
   style="fill:#cc0000" />
	<path
   d="m 523.452,400.222 c 7.179,20.053 7.274,38.988 0.224,42.295 -7.044,3.304 -18.576,-10.271 -25.747,-30.316 -7.171,-20.053 -7.275,-38.986 -0.224,-42.292 7.052,-3.307 18.576,10.27 25.747,30.313 z m 11.65,0 c -7.178,20.053 -7.274,38.988 -0.215,42.295 7.045,3.304 18.575,-10.271 25.748,-30.316 7.17,-20.053 7.266,-38.986 0.223,-42.292 -7.061,-3.307 -18.584,10.27 -25.756,30.313 z"
   id="path515"
   inkscape:connector-curvature="0"
   style="fill:#cc0000" />
	<path
   d="m 605.227,400.222 c 7.179,20.053 7.274,38.988 0.222,42.295 -7.04,3.304 -18.572,-10.271 -25.745,-30.316 -7.171,-20.053 -7.275,-38.986 -0.222,-42.292 7.049,-3.307 18.572,10.27 25.745,30.313 z m 11.65,0 c -7.178,20.053 -7.273,38.988 -0.216,42.295 7.045,3.304 18.576,-10.271 25.746,-30.316 7.172,-20.053 7.269,-38.986 0.226,-42.292 -7.06,-3.307 -18.585,10.27 -25.756,30.313 z"
   id="path517"
   inkscape:connector-curvature="0"
   style="fill:#cc0000" />
	<path
   d="m 359.906,481.998 c 7.175,20.054 7.27,38.986 0.22,42.292 -7.048,3.308 -18.58,-10.269 -25.751,-30.314 -7.171,-20.051 -7.272,-38.986 -0.219,-42.293 7.051,-3.305 18.578,10.269 25.75,30.315 z m 11.647,0 c -7.175,20.054 -7.271,38.986 -0.219,42.292 7.047,3.308 18.579,-10.269 25.751,-30.314 7.169,-20.051 7.27,-38.986 0.219,-42.293 -7.052,-3.305 -18.579,10.269 -25.751,30.315 z"
   id="path519"
   inkscape:connector-curvature="0"
   style="fill:#cc0000" />
	<path
   d="m 441.68,481.998 c 7.176,20.054 7.272,38.986 0.219,42.292 -7.047,3.308 -18.579,-10.269 -25.75,-30.314 -7.171,-20.051 -7.271,-38.986 -0.219,-42.293 7.052,-3.305 18.579,10.269 25.75,30.315 z m 11.649,0 c -7.175,20.054 -7.272,38.986 -0.216,42.292 7.044,3.308 18.576,-10.269 25.746,-30.314 7.172,-20.051 7.268,-38.986 0.225,-42.293 -7.062,-3.305 -18.586,10.269 -25.755,30.315 z"
   id="path521"
   inkscape:connector-curvature="0"
   style="fill:#cc0000" />
	<path
   d="m 523.452,481.998 c 7.179,20.054 7.274,38.986 0.224,42.292 -7.044,3.308 -18.576,-10.269 -25.747,-30.314 -7.171,-20.051 -7.275,-38.986 -0.224,-42.293 7.052,-3.305 18.576,10.269 25.747,30.315 z m 11.65,0 c -7.178,20.054 -7.274,38.986 -0.215,42.292 7.045,3.308 18.575,-10.269 25.748,-30.314 7.17,-20.051 7.266,-38.986 0.223,-42.293 -7.061,-3.305 -18.584,10.269 -25.756,30.315 z"
   id="path523"
   inkscape:connector-curvature="0"
   style="fill:#cc0000" />
</g>
<g
   id="Layer_2"
   transform="translate(-243.069,-120.004)">
	<path
   d="m 605.227,154.899 c 7.179,20.053 7.274,38.986 0.222,42.293 -7.04,3.306 -18.572,-10.271 -25.745,-30.315 -7.171,-20.052 -7.275,-38.987 -0.222,-42.292 7.049,-3.307 18.572,10.269 25.745,30.314 z m 11.65,0 c -7.178,20.053 -7.273,38.986 -0.216,42.293 7.045,3.306 18.576,-10.271 25.746,-30.315 7.172,-20.052 7.269,-38.987 0.226,-42.292 -7.06,-3.307 -18.585,10.269 -25.756,30.314 z"
   id="path526"
   inkscape:connector-curvature="0"
   style="fill:#cc0000" />
	<path
   d="m 278.126,154.899 c 7.18,20.053 7.276,38.986 0.224,42.293 -7.042,3.306 -18.578,-10.271 -25.75,-30.315 -7.171,-20.052 -7.271,-38.987 -0.221,-42.292 7.054,-3.307 18.577,10.269 25.747,30.314 z m 11.652,0 c -7.18,20.053 -7.275,38.986 -0.214,42.293 7.042,3.306 18.574,-10.271 25.745,-30.315 7.171,-20.052 7.268,-38.987 0.224,-42.292 -7.059,-3.307 -18.584,10.269 -25.755,30.314 z"
   id="path528"
   inkscape:connector-curvature="0"
   style="fill:#cc0000" />
	<path
   d="m 278.126,481.998 c 7.18,20.054 7.276,38.986 0.224,42.292 -7.042,3.308 -18.578,-10.269 -25.75,-30.314 -7.171,-20.051 -7.271,-38.986 -0.221,-42.293 7.054,-3.305 18.577,10.269 25.747,30.315 z m 11.652,0 c -7.18,20.054 -7.275,38.986 -0.214,42.292 7.042,3.308 18.574,-10.269 25.745,-30.314 7.171,-20.051 7.268,-38.986 0.224,-42.293 -7.059,-3.305 -18.584,10.269 -25.755,30.315 z"
   id="path530"
   inkscape:connector-curvature="0"
   style="fill:#cc0000" />
	<path
   d="m 605.227,481.998 c 7.179,20.054 7.274,38.986 0.222,42.292 -7.04,3.308 -18.572,-10.269 -25.745,-30.314 -7.171,-20.051 -7.275,-38.986 -0.222,-42.293 7.049,-3.305 18.572,10.269 25.745,30.315 z m 11.65,0 c -7.178,20.054 -7.273,38.986 -0.216,42.292 7.045,3.308 18.576,-10.269 25.746,-30.314 7.172,-20.051 7.269,-38.986 0.226,-42.293 -7.06,-3.305 -18.585,10.269 -25.756,30.315 z"
   id="path532"
   inkscape:connector-curvature="0"
   style="fill:#cc0000" />
	<path
   d="m 441.673,318.448 c 7.178,20.053 7.275,38.986 0.224,42.293 -7.044,3.306 -18.576,-10.27 -25.747,-30.314 -7.171,-20.053 -7.274,-38.986 -0.223,-42.293 7.051,-3.307 18.575,10.268 25.746,30.314 z m 11.647,0 c -7.175,20.053 -7.272,38.986 -0.208,42.293 7.044,3.306 18.576,-10.27 25.746,-30.314 7.172,-20.053 7.268,-38.986 0.225,-42.293 -7.061,-3.307 -18.592,10.268 -25.763,30.314 z"
   id="path534"
   inkscape:connector-curvature="0"
   style="fill:#cc0000" />
</g>
<g
   id="Layer_4"
   transform="translate(-243.069,-120.004)">
	<path
   d="m 523.452,318.448 c 7.179,20.06 7.274,38.986 0.224,42.293 -7.044,3.306 -18.576,-10.27 -25.747,-30.314 -7.171,-20.044 -7.275,-38.986 -0.224,-42.293 7.052,-3.307 18.576,10.268 25.747,30.314 z m 11.65,0 c -7.178,20.06 -7.274,38.986 -0.215,42.293 7.045,3.306 18.575,-10.27 25.748,-30.314 7.17,-20.044 7.266,-38.986 0.223,-42.293 -7.061,-3.307 -18.584,10.268 -25.756,30.314 z"
   id="path537"
   inkscape:connector-curvature="0"
   style="fill:#ffffff" />
	<path
   d="m 441.678,236.673 c 7.178,20.053 7.274,38.986 0.222,42.292 -7.042,3.307 -18.579,-10.27 -25.75,-30.313 -7.171,-20.053 -7.271,-38.988 -0.219,-42.293 7.051,-3.306 18.574,10.27 25.747,30.314 z m 11.651,0 c -7.18,20.053 -7.276,38.986 -0.216,42.292 7.044,3.307 18.576,-10.27 25.746,-30.313 7.172,-20.053 7.268,-38.988 0.225,-42.293 -7.062,-3.306 -18.586,10.27 -25.755,30.314 z"
   id="path539"
   inkscape:connector-curvature="0"
   style="fill:#ffffff" />
	<path
   d="m 359.901,318.448 c 7.18,20.053 7.275,38.986 0.225,42.293 -7.043,3.306 -18.58,-10.27 -25.751,-30.314 -7.171,-20.053 -7.272,-38.986 -0.219,-42.293 7.051,-3.307 18.574,10.268 25.745,30.314 z m 11.652,0 c -7.178,20.053 -7.275,38.986 -0.215,42.293 7.042,3.306 18.574,-10.27 25.747,-30.314 7.169,-20.053 7.266,-38.986 0.222,-42.293 -7.059,-3.307 -18.582,10.268 -25.754,30.314 z"
   id="path541"
   inkscape:connector-curvature="0"
   style="fill:#ffffff" />
	<path
   d="m 441.678,400.222 c 7.178,20.053 7.274,38.988 0.222,42.295 -7.042,3.304 -18.579,-10.271 -25.75,-30.316 -7.171,-20.053 -7.271,-38.986 -0.219,-42.292 7.051,-3.307 18.574,10.27 25.747,30.313 z m 11.651,0 c -7.18,20.053 -7.276,38.988 -0.216,42.295 7.044,3.304 18.576,-10.271 25.746,-30.316 7.172,-20.053 7.268,-38.986 0.225,-42.292 -7.062,-3.307 -18.586,10.27 -25.755,30.313 z"
   id="path543"
   inkscape:connector-curvature="0"
   style="fill:#ffffff" />
</g>
</svg>