<svg xmlns="http://www.w3.org/2000/svg" width="928.526" height="928.526" xmlns:v="https://vecta.io/nano"><style><![CDATA[.N{stroke:#37435d}.O{stroke-miterlimit:10}.P{fill-rule:evenodd}.Q{stroke-width:14.344}]]></style><g class="P"><circle cx="464.263" cy="464.263" r="454.7" fill="#f9e7aa" stroke-width="19.126" class="N"/><g fill="#e29897"><ellipse cx="160.963" cy="470.863" rx="97.4" ry="65"/><ellipse cx="755.263" cy="477.463" rx="97.4" ry="65"/></g><g fill="#37435d"><path d="M464.963 557.063c-24.5-.6-48.9-3.4-72.9-8.5-1.4-.3-2.7-.6-4.1-1l-173.7-51.9c-8.3-2.5-17.2-2-24.9 1.8-2.3 1.1-4.3 2.4-5.6 3.8-6.9 7.2-11.3 16.3-13.2 26.1l-21 107.7c-1.8 9.3-1.1 19 2 28l1.5 4.4c1.6 4.6 3.6 9 5.9 13.3 56.1 100.3 107.8 141.3 107.8 141.3 56.8 48.7 123.4 77.6 198.1 80v-345z"/><path d="M464.963 557.063c24.5-.6 48.9-3.4 72.9-8.5 1.4-.3 2.7-.6 4.1-1l173.7-51.9c8.3-2.5 17.2-2 24.9 1.8 2.3 1.1 4.3 2.4 5.6 3.8 6.9 7.2 11.3 16.3 13.2 26.1l21 107.7c1.8 9.3 1.1 19-2 28l-1.5 4.4c-1.6 4.6-3.6 9-5.9 13.3-56.3 100.4-108 141.5-108 141.5-56.8 48.7-123.4 77.6-198.1 80v-345.2z"/></g></g><path d="M225.463 474.563c-34.6-10.3-56.8-59.5-77.5-85.2-11.1-13.8-25.8-28-45.1-30.7-15.7-2.2-31 4.2-40.7 13.9-29.8 29.9-23.5 77.6-10.5 113.3 14.2 38.9 38 73.6 68.4 99.4 14.4 12.2 39.8 27.5 52.1 42.4m528.5-152.6c34.6-10.3 56.8-59.5 77.5-85.2 11.1-13.8 25.8-28 45.1-30.7 15.7-2.2 31 4.2 40.7 13.9 29.8 29.9 23.5 77.6 10.5 113.3-14.2 38.9-38 73.6-68.4 99.4-14.4 12.2-39.8 27.5-52.1 42.4" fill="none" stroke-width="16.735" class="N O"/><g class="P"><g fill="#5777b8"><path d="M464.963 509.263c-24.5-.6-48.9-3.4-72.9-8.5-1.4-.3-2.7-.6-4.1-1l-173.7-51.8c-8.3-2.5-17.2-2-24.9 1.8-2.3 1.1-4.3 2.4-5.6 3.8-6.9 7.2-11.3 16.3-13.2 26.1l-21 107.7c-1.8 9.3-1.1 19 2 28l1.5 4.4c1.6 4.6 3.6 9 5.9 13.3 56.1 100.3 107.8 141.3 107.8 141.3 56.8 48.7 123.4 77.6 198.1 80v-345.1z"/><path d="M464.963 509.263c24.5-.6 48.9-3.4 72.9-8.5 1.4-.3 2.7-.6 4.1-1l173.7-51.8c8.3-2.5 17.2-2 24.9 1.8 2.3 1.1 4.3 2.4 5.6 3.8 6.9 7.2 11.3 16.3 13.2 26.1l21 107.7c1.8 9.3 1.1 19-2 28l-1.5 4.4c-1.6 4.6-3.6 9-5.9 13.3-56.3 100.3-108 141.4-108 141.4-56.8 48.7-123.4 77.6-198.1 80v-345.2z"/></g><g class="N"><path d="M671.663 420.863c44.8 0 81.2-36.5 81.2-81.2s-36.5-81.2-81.2-81.2-81.2 36.5-81.2 81.2 36.5 81.2 81.2 81.2zm-414.4 0c44.7 0 81.2-36.5 81.2-81.2s-36.5-81.2-81.2-81.2c-44.8 0-81.2 36.5-81.2 81.2s36.4 81.2 81.2 81.2z" fill="#fff" stroke-width="14.818" class="O"/><g fill="#37435d" stroke-width="5.226"><circle cx="257.263" cy="339.563" r="53.6"/><circle cx="671.663" cy="341.763" r="53.6"/></g></g></g><path d="M176.563 225.963c22.7-18.3 50.7-30.5 79.7-33.8 30.7-3.5 56.5 4.6 83 19.2m412.6 14.6c-22.7-18.3-50.7-30.5-79.7-33.8-30.7-3.5-56.5 4.6-83 19.2" fill="none" stroke-width="28.743" stroke-linecap="round" class="O N"/><g fill="#fff" stroke="#fff" stroke-width="9.563" class="P"><circle cx="229.663" cy="311.663" r="18.1"/><circle cx="647.763" cy="311.663" r="18.1"/></g><g fill="none" class="O"><path d="M780.263 587.363l-21-107.7c-1.9-9.7-6.3-18.9-13.2-26.1-1.3-1.4-3.3-2.7-5.6-3.8-7.7-3.8-16.7-4.3-24.9-1.8l-173.6 51.8c-1.3.4-2.7.7-4.1 1-24.1 5.1-48.5 7.9-72.9 8.5-24.5-.6-48.9-3.4-72.9-8.5-1.4-.3-2.7-.6-4.1-1l-173.7-51.8c-8.3-2.5-17.2-2-24.9 1.8-2.3 1.1-4.3 2.4-5.6 3.8-6.9 7.2-11.3 16.3-13.2 26.1l-21 107.7c-1.8 9.3-1.1 19 2 28l1.5 4.4c1.6 4.6 3.6 9 5.9 13.3 56.1 100.3 107.8 141.3 107.8 141.3 56.8 48.7 123.4 77.6 198.1 80 74.7-2.4 141.3-31.3 198.1-80 0 0 51.6-41.1 107.8-141.3 2.4-4.2 4.3-8.7 5.9-13.3l1.5-4.4c3.2-8.9 3.9-18.6 2.1-28z" class="N Q"/><g stroke="#fff" stroke-width="7.172"><path d="M200.863 486.363l.1-.8c.6-3.1 1.7-5.8 3.2-8.1.4 0 .7.1 1.1.2l8.1 2.4"/><path d="M231.863 485.663l147.5 44 6.2 1.6c25.8 5.4 52.2 8.5 78.6 9.2h1.6c26.4-.7 52.8-3.7 78.6-9.2 2-.4 4.1-1 6.2-1.6l156.7-46.8" stroke-dasharray="19.2264, 19.2264"/><path d="M716.463 480.163l8.1-2.4c.4-.1.7-.2 1.1-.2 1.5 2.3 2.6 5 3.2 8.1l.1.8"/><path d="M732.563 504.863l17.2 88.5c.8 3.9.5 8-.8 11.8l-1.5 4.4c-1 3-2.3 5.8-3.7 8.3-51.9 92.6-99.6 131.9-100.1 132.3l-.7.7c-53.5 45.8-113.3 70.2-177.9 72.5-64.5-2.3-124.4-26.7-177.9-72.5l-.8-.8c-.4-.3-48.1-39.5-100-132.2-1.4-2.5-2.7-5.3-3.7-8.3l-1.5-4.4c-1.3-3.8-1.6-7.9-.8-11.8l19-97.7" stroke-dasharray="18.8003, 18.8003"/></g><path d="M204.063 519.763s270.1 249.8 524 0m11.3 50.9s-245.2 348.5-554.9 0" class="N Q"/></g></svg>