<?xml version="1.0" encoding="utf-8"?>
<!-- Generator: Adobe Illustrator 23.1.0, SVG Export Plug-In . SVG Version: 6.00 Build 0)  -->
<svg version="1.1" id="Слой_1" xmlns="http://www.w3.org/2000/svg" xmlns:xlink="http://www.w3.org/1999/xlink" x="0px" y="0px"
	 viewBox="0 0 1030 1030" style="enable-background:new 0 0 1030 1030;" xml:space="preserve">
<style type="text/css">
	.st0{fill:#F2DE73;}
	.st1{fill:#EBF5FD;}
	.st2{fill:#DFEFFB;}
	.st3{fill:#F1F8FD;}
	.st4{fill:#E7F0FA;}
</style>
<rect class="st0" width="1030" height="1030"/>
<g>
	<g>
		<g>
			<g>
				<path class="st1" d="M459.2,175.6l-28.7,106.8l-0.3,1.2c-1.7,6.2-8.3,9.5-14.2,7.2c-23.6-9.2-80-30.9-123.2-45.3
					c-2.2-0.7-4.4-1.4-6.4-2c-21.1-5.9-33.5-3.6-54.3-8.3c-41.9-9.4-65.2-17.7-76.4-18.2c-61.8-2.4-86.6,0.3-88.2-17
					c0-0.1,0-0.2,0-0.3c-1.5-18.9,80.7-5.5,81.1-15.7c0.3-8-109-6.2-106.6-36.6c1.6-20.6,71.3-4.4,99.9-2.5c7.2,0.5,11.7,0.1,12-2
					c0.2-1.6-2.6-3.3-7.6-4.9c-26.9-9-115.3-19.8-108.3-45.2c7.5-27.3,123.1,21.6,125.9,13.6c2.8-8-96.2-37.9-87.4-59.8
					c10.9-27.2,159.9,60.7,167.4,45.1c4-8.3-15.5-24.3-32.1-46.2c-13.2-17.5-4.7-32.1,5.1-33.7c2.5-0.4,5.1,0,7.4,1.4
					c13.2,8.1,31.8,36.6,60.3,61.6c0,0,0,0,0,0c1.7,1.5,3.3,3,4.8,4.5c0.7,0.7,1.4,1.4,2,2.1c22.7,24,29.2,52.9,68.5,63.3
					c19.8,5.3,68.5,13.8,90.9,17.6C456.9,163.4,460.8,169.5,459.2,175.6z"/>
			</g>
		</g>
	</g>
	<path class="st2" d="M459.2,175.6l-28.7,106.8l-0.3,1.2c-1.7,6.2-8.3,9.5-14.2,7.2c-23.6-9.2-80-30.9-123.2-45.3
		c-2.2-0.7-4.4-1.4-6.4-2c9.7-3.3,22.8-9.8,32.3-21.8c2.4-3,4.5-6.5,6.3-10.3c13.1-27.9,10.6-47.9-3.9-78.3
		c-9.4-19.7-16.8-33.2-31.8-53.8c0.7,0.7,1.4,1.4,2,2.1c22.7,24,29.2,52.9,68.5,63.3c19.8,5.3,68.5,13.8,90.9,17.6
		C456.9,163.4,460.8,169.5,459.2,175.6z"/>
</g>
<g>
	<g>
		<g>
			<g>
				<path class="st3" d="M725,928.4l-48.7,87.8c-2.8,5-9.3,6.5-13.9,3.2c-18.6-13.1-63-44.2-97.6-66.1c-1.8-1.1-3.5-2.2-5.2-3.1
					c-17.1-9.7-28.4-10.4-45.5-19c-34.5-17.3-53-29.6-62.6-32.4c-53.6-15.5-75.7-18.5-73.1-34.1c2.8-16.8,71.6,12.7,74.1,3.8
					c2-6.9-93.7-28.9-85-55c7.3-22,95,29,98.5,20.3c3.6-8.9-103.9-44.3-90.1-68.8c12.5-22.2,102.6,45.5,106.8,39.1
					c4.2-6.4-75.6-53.8-63.3-71c15.4-21.4,126.2,87.5,136.1,75.5c5.3-6.3-8.2-24.5-18-47.2c-7.7-18.1,2.8-29,11.7-28.3
					c2.3,0.2,4.4,1.1,6.1,2.8c9.8,9.9,19.8,38.8,39.2,66.8c0,0,0,0,0,0c1.1,1.6,2.2,3.3,3.2,4.9c0.4,0.8,0.9,1.5,1.3,2.3
					c14.6,25.8,14,52.4,46,70c16.1,8.9,56.8,26.8,75.4,35C725.7,917.2,727.8,923.4,725,928.4z"/>
			</g>
		</g>
	</g>
	<path class="st4" d="M725,928.4l-48.7,87.8c-2.8,5-9.3,6.5-13.9,3.2c-18.6-13.1-63-44.2-97.6-66.1c-1.8-1.1-3.5-2.2-5.2-3.1
		c11.5-1,28.8-5.1,40.6-19.6c17.4-21.5,19.6-39.5,13.5-69.1c-3.9-19.2-7.5-32.6-16-53.8c0.4,0.8,0.9,1.5,1.3,2.3
		c14.6,25.8,14,52.4,46,70c16.1,8.9,56.8,26.8,75.4,35C725.7,917.2,727.8,923.4,725,928.4z"/>
</g>
<g>
	<g>
		<g>
			<g>
				<path class="st1" d="M914.5,480.8l75.8,81.5l0.8,0.9c4.4,4.7,3.7,12.1-1.4,16c-20.4,15.2-69,51.8-104.3,81
					c-1.8,1.5-3.5,3-5.1,4.4c-16.2,14.8-21,26.7-36.1,41.9c-30.4,30.7-49.9,46.2-56.2,55.5c-35,51.5-45.9,74-61.5,66.2
					c-0.1,0-0.2-0.1-0.2-0.1c-17-8.8,38.3-71.8,29.8-77.6c-6.7-4.5-63.4,89.8-88.1,71.4c-16.7-12.3,34.2-63.2,51.1-86.6
					c4.2-5.8,6.3-10,4.7-11.3c-1.3-1.1-4.2,0.5-8.3,3.9c-22.1,18.1-78.4,87.9-96.3,68.3c-19.3-21,84.1-93.5,78.7-100.2
					c-5.4-6.6-83.6,61.9-97.6,42.7c-17.4-23.8,137-104,127.8-118.8c-4.9-7.8-29,0.3-56.6,2.8c-22,1.9-29.9-13.1-26.1-22.3
					c1-2.3,2.7-4.3,5.1-5.5c14-7,48.2-7.6,84.8-18.6c0,0,0,0,0,0c2.2-0.6,4.3-1.2,6.4-1.7c1-0.2,1.9-0.4,2.9-0.6
					c32.6-6.5,60.7,3.2,90.6-24.7c15.1-14.1,48.3-51.1,63.5-68.2C902.8,476.2,910.2,476.1,914.5,480.8z"/>
			</g>
		</g>
	</g>
	<path class="st2" d="M914.5,480.8l75.8,81.5l0.8,0.9c4.4,4.7,3.7,12.1-1.4,16c-20.4,15.2-69,51.8-104.3,81c-1.8,1.5-3.5,3-5.1,4.4
		c2.3-10,3.9-24.7-1.4-39.2c-1.3-3.7-3.1-7.3-5.4-10.9c-16.9-26-35.2-34.6-68.9-38.4c-21.8-2.5-37.3-3.3-62.9-1.6
		c1-0.2,1.9-0.4,2.9-0.6c32.6-6.5,60.7,3.2,90.6-24.7c15.1-14.1,48.3-51.1,63.5-68.2C902.8,476.2,910.2,476.1,914.5,480.8z"/>
</g>
<g>
	<g>
		<g>
			<g>
				<path class="st3" d="M924.2,444.2l-102,51.9c-5.8,3-12.9,0.2-15.2-5.9c-9.2-24.2-31.3-82-50-124.8c-1-2.2-1.9-4.3-2.9-6.2
					c-10-20.1-20.2-28-30.9-47c-21.5-38.3-31.2-61.8-38.5-70.6c-40.8-48.9-59.7-65.8-47.3-78.9c13.4-14.1,59.5,57.6,67.5,50.9
					c6.3-5.3-70-87.2-45.2-106.2c20.9-16.1,71.2,88.1,80.1,82.1c9-6.1-69.9-108.2-41.2-122.5c25.9-13,67.9,108.4,75.9,105.1
					c8-3.4-37.1-99.2-14.4-107.5c28.2-10.4,63.3,163.2,80.4,158.3c9-2.6,7.9-28.4,13.2-56.1c4.3-22.1,21.2-25.5,29.1-19.2
					c2,1.6,3.5,3.8,4,6.6c2.9,15.6-6.1,49.3-5.6,88.1c0,0,0,0.1,0,0.1c0,2.3,0,4.5-0.1,6.7c-0.1,1-0.1,2-0.2,3
					c-2.8,33.7-20.2,58.5-1.2,95.5c9.6,18.7,36.5,61.6,48.9,81.2C932,434,930,441.2,924.2,444.2z"/>
			</g>
		</g>
	</g>
	<path class="st4" d="M924.2,444.2l-102,51.9c-5.8,3-12.9,0.2-15.2-5.9c-9.2-24.2-31.3-82-50-124.8c-1-2.2-1.9-4.3-2.9-6.2
		c11.5,6.4,30.4,13.6,50.9,7.4c30.2-9.2,43.7-24.8,56.9-56.6c8.6-20.6,13.7-35.5,19.2-61c-0.1,1-0.1,2-0.2,3
		c-2.8,33.7-20.2,58.5-1.2,95.5c9.6,18.7,36.5,61.6,48.9,81.2C932,434,930,441.2,924.2,444.2z"/>
</g>
<g>
	<g>
		<g>
			<g>
				<path class="st1" d="M325.1,940.2l-93,59.8l-1,0.6c-5.4,3.4-12.5,1.5-15.4-4.2c-11.3-22.6-38.5-76.6-60.9-116.3
					c-1.2-2.1-2.3-4-3.4-5.8c-11.7-18.5-22.4-25.2-34.7-42.6C92,796.6,80.3,774.8,72.3,767C28.1,723.8,8,709.1,18.4,695.2
					c0-0.1,0.1-0.1,0.2-0.2c11.6-15.1,63.5,50.1,70.7,42.8c5.6-5.8-76.7-77.8-54.4-98.7c15-14.1,55.8,44.6,75.7,65.2
					c5,5.2,8.6,8,10.3,6.6c1.3-1.1,0.2-4.2-2.3-8.8c-13.9-24.8-72.2-92.1-49.8-106.2c23.9-15.2,76.7,98.7,84.1,94.6
					c7.4-4.1-45.8-92.7-24.6-103c26.4-12.9,77.7,152.3,93.7,145.8c8.5-3.4,4.8-28.4,7.2-55.8c2-21.9,18.1-26.9,26.4-21.6
					c2.1,1.4,3.8,3.4,4.5,6c4.3,14.9-1,48.5,3.3,86.2c0,0,0,0.1,0,0.1c0.3,2.2,0.4,4.4,0.5,6.5c0,1,0.1,1.9,0.1,2.9
					c0.7,33-13.8,58.8,8.2,92.9c11.1,17.2,41.5,56.2,55.6,74.1C331.6,929.5,330.4,936.7,325.1,940.2z"/>
			</g>
		</g>
	</g>
	<path class="st2" d="M325.1,940.2l-93,59.8l-1,0.6c-5.4,3.4-12.5,1.5-15.4-4.2c-11.3-22.6-38.5-76.6-60.9-116.3
		c-1.2-2.1-2.3-4-3.4-5.8c9.4,4,23.5,8.1,38.6,5.5c3.8-0.7,7.7-1.7,11.6-3.4c28.4-11.9,40-28.4,49.7-60.6
		c6.3-20.9,9.8-35.9,12.6-61.2c0,1,0.1,1.9,0.1,2.9c0.7,33-13.8,58.8,8.2,92.9c11.1,17.2,41.5,56.2,55.6,74.1
		C331.6,929.5,330.4,936.7,325.1,940.2z"/>
</g>
<g>
	<g>
		<g>
			<g>
				<path class="st1" d="M533,299.1l75.8,81.5l0.8,0.9c4.4,4.7,3.7,12.1-1.4,16c-20.4,15.2-69,51.8-104.3,81c-1.8,1.5-3.5,3-5.1,4.4
					c-16.2,14.8-21,26.7-36.1,41.9c-30.4,30.7-49.9,46.2-56.2,55.5c-35,51.5-45.9,74-61.5,66.2c-0.1,0-0.2-0.1-0.2-0.1
					c-17-8.8,38.3-71.8,29.8-77.6c-6.7-4.5-63.4,89.8-88.1,71.4c-16.7-12.3,34.2-63.2,51.1-86.6c4.2-5.8,6.3-10,4.7-11.3
					c-1.3-1.1-4.2,0.5-8.3,3.9c-22.1,18.1-78.4,87.9-96.3,68.3c-19.3-21,84.1-93.5,78.7-100.2c-5.4-6.6-83.6,61.9-97.6,42.7
					c-17.4-23.8,137-104,127.8-118.8c-4.9-7.8-29,0.3-56.6,2.8c-22,1.9-29.9-13.1-26.1-22.3c1-2.3,2.7-4.3,5.1-5.5
					c14-7,48.2-7.6,84.8-18.6c0,0,0,0,0,0c2.2-0.6,4.3-1.2,6.4-1.7c1-0.2,1.9-0.4,2.9-0.6c32.6-6.5,60.7,3.2,90.6-24.7
					c15.1-14.1,48.3-51.1,63.5-68.2C521.4,294.5,528.7,294.4,533,299.1z"/>
			</g>
		</g>
	</g>
	<path class="st2" d="M533,299.1l75.8,81.5l0.8,0.9c4.4,4.7,3.7,12.1-1.4,16c-20.4,15.2-69,51.8-104.3,81c-1.8,1.5-3.5,3-5.1,4.4
		c2.3-10,3.9-24.7-1.4-39.2c-1.3-3.7-3.1-7.3-5.4-10.9c-16.9-26-35.2-34.6-68.9-38.4c-21.8-2.5-37.3-3.3-62.9-1.6
		c1-0.2,1.9-0.4,2.9-0.6c32.6-6.5,60.7,3.2,90.6-24.7c15.1-14.1,48.3-51.1,63.5-68.2C521.4,294.5,528.7,294.4,533,299.1z"/>
</g>
</svg>
