<svg xmlns="http://www.w3.org/2000/svg" xmlns:xlink="http://www.w3.org/1999/xlink" viewBox="0 0 512 512"><defs><style>.cls-1{fill:#032610;}.cls-2{fill:#061;}.cls-3{fill:url(#linear-gradient);}.cls-4{fill:url(#linear-gradient-2);}.cls-5{fill:url(#linear-gradient-3);}.cls-6{fill:url(#linear-gradient-4);}.cls-7{fill:url(#linear-gradient-5);}.cls-8{fill:url(#linear-gradient-6);}.cls-9{fill:url(#linear-gradient-7);}.cls-10{fill:url(#linear-gradient-8);}.cls-11{fill:url(#linear-gradient-9);}.cls-12{fill:url(#linear-gradient-10);}.cls-13{fill:url(#linear-gradient-11);}.cls-14{fill:url(#linear-gradient-12);}.cls-15{fill:url(#linear-gradient-13);}.cls-16{fill:url(#linear-gradient-14);}.cls-17{fill:url(#linear-gradient-15);}.cls-18{fill:url(#linear-gradient-16);}.cls-19{fill:url(#linear-gradient-17);}.cls-20{fill:url(#linear-gradient-18);}.cls-21{fill:url(#linear-gradient-19);}.cls-22{fill:url(#linear-gradient-20);}.cls-23{fill:url(#linear-gradient-21);}.cls-24{fill:url(#linear-gradient-22);}.cls-25{fill:url(#linear-gradient-23);}.cls-26{fill:url(#linear-gradient-24);}.cls-27{fill:url(#linear-gradient-25);}.cls-28{fill:url(#linear-gradient-26);}.cls-29{fill:#0d7219;}.cls-30,.cls-31,.cls-32,.cls-33,.cls-47,.cls-52{fill:#00a821;}.cls-31{opacity:0.32;}.cls-32{opacity:0.66;}.cls-33{opacity:0.65;}.cls-34,.cls-48{opacity:0.28;}.cls-35,.cls-48{fill:#1d6d2b;}.cls-36{fill:url(#linear-gradient-27);}.cls-37{fill:url(#linear-gradient-28);}.cls-38{fill:url(#linear-gradient-29);}.cls-39{fill:url(#linear-gradient-30);}.cls-40{fill:url(#linear-gradient-31);}.cls-41{fill:url(#linear-gradient-32);}.cls-42{fill:url(#linear-gradient-33);}.cls-43{fill:url(#linear-gradient-34);}.cls-44{fill:url(#linear-gradient-35);}.cls-45{fill:url(#linear-gradient-36);}.cls-46{fill:url(#linear-gradient-37);}.cls-47{opacity:0.68;}.cls-49{fill:#73f482;opacity:0.67;}.cls-50{fill:url(#linear-gradient-38);}.cls-51{fill:url(#linear-gradient-39);}.cls-52{opacity:0.11;}.cls-53{fill:#0d8c1f;}</style><linearGradient id="linear-gradient" x1="129.48" y1="-258.4" x2="134.14" y2="565.2" gradientUnits="userSpaceOnUse"><stop offset="0.03" stop-color="#007321"/><stop offset="0.38" stop-color="#00a821"/><stop offset="0.48" stop-color="#04a929"/><stop offset="0.64" stop-color="#0eaa40"/><stop offset="0.68" stop-color="#11ab47"/><stop offset="0.7" stop-color="#11a63f"/><stop offset="0.8" stop-color="#129727"/><stop offset="0.89" stop-color="#138d18"/><stop offset="0.97" stop-color="#138a13"/></linearGradient><linearGradient id="linear-gradient-2" x1="129.29" y1="-258.5" x2="133.94" y2="565.36" xlink:href="#linear-gradient"/><linearGradient id="linear-gradient-3" x1="127.37" y1="-258.24" x2="132.03" y2="565.22" xlink:href="#linear-gradient"/><linearGradient id="linear-gradient-4" x1="127.11" y1="-258.34" x2="131.76" y2="565.25" xlink:href="#linear-gradient"/><linearGradient id="linear-gradient-5" x1="126.91" y1="-258.39" x2="131.57" y2="565.26" xlink:href="#linear-gradient"/><linearGradient id="linear-gradient-6" x1="129.07" y1="-258.41" x2="133.73" y2="565.23" xlink:href="#linear-gradient"/><linearGradient id="linear-gradient-7" x1="128.85" y1="-258.43" x2="133.51" y2="565.24" xlink:href="#linear-gradient"/><linearGradient id="linear-gradient-8" x1="127.56" y1="-258.35" x2="132.21" y2="565.24" xlink:href="#linear-gradient"/><linearGradient id="linear-gradient-9" x1="128.62" y1="-258.43" x2="133.27" y2="565.26" xlink:href="#linear-gradient"/><linearGradient id="linear-gradient-10" x1="128.4" y1="-258.41" x2="133.06" y2="565.25" xlink:href="#linear-gradient"/><linearGradient id="linear-gradient-11" x1="128.27" y1="-258.45" x2="132.93" y2="565.27" xlink:href="#linear-gradient"/><linearGradient id="linear-gradient-12" x1="128.06" y1="-258.37" x2="132.71" y2="565.23" xlink:href="#linear-gradient"/><linearGradient id="linear-gradient-13" x1="127.77" y1="-258.52" x2="132.43" y2="565.3" xlink:href="#linear-gradient"/><linearGradient id="linear-gradient-14" x1="61.73" y1="-142.68" x2="58.24" y2="1166.15" gradientUnits="userSpaceOnUse"><stop offset="0" stop-color="#008b21"/><stop offset="0.13" stop-color="#3b9644"/><stop offset="0.28" stop-color="#11ab47"/><stop offset="0.34" stop-color="#129e32"/><stop offset="0.43" stop-color="#138f1b"/><stop offset="0.48" stop-color="#138a13"/><stop offset="0.73" stop-color="#006921"/><stop offset="0.87" stop-color="#204f25"/><stop offset="0.97" stop-color="#007321"/></linearGradient><linearGradient id="linear-gradient-15" x1="61.82" y1="-142.67" x2="58.33" y2="1166.1" xlink:href="#linear-gradient-14"/><linearGradient id="linear-gradient-16" x1="61.92" y1="-142.71" x2="58.43" y2="1166.25" xlink:href="#linear-gradient-14"/><linearGradient id="linear-gradient-17" x1="62.02" y1="-142.71" x2="58.53" y2="1166.24" xlink:href="#linear-gradient-14"/><linearGradient id="linear-gradient-18" x1="62.12" y1="-142.64" x2="58.63" y2="1166.03" xlink:href="#linear-gradient-14"/><linearGradient id="linear-gradient-19" x1="62.24" y1="-142.74" x2="58.75" y2="1166.3" xlink:href="#linear-gradient-14"/><linearGradient id="linear-gradient-20" x1="62.35" y1="-142.64" x2="58.86" y2="1166.04" xlink:href="#linear-gradient-14"/><linearGradient id="linear-gradient-21" x1="62.96" y1="-142.61" x2="59.47" y2="1166.07" xlink:href="#linear-gradient-14"/><linearGradient id="linear-gradient-22" x1="62.44" y1="-142.66" x2="58.95" y2="1166.1" xlink:href="#linear-gradient-14"/><linearGradient id="linear-gradient-23" x1="62.53" y1="-142.72" x2="59.04" y2="1166.2" xlink:href="#linear-gradient-14"/><linearGradient id="linear-gradient-24" x1="62.67" y1="-142.7" x2="59.18" y2="1166.16" xlink:href="#linear-gradient-14"/><linearGradient id="linear-gradient-25" x1="62.75" y1="-142.7" x2="59.26" y2="1166.16" xlink:href="#linear-gradient-14"/><linearGradient id="linear-gradient-26" x1="62.85" y1="-142.65" x2="59.36" y2="1166.1" xlink:href="#linear-gradient-14"/><linearGradient id="linear-gradient-27" x1="415.9" y1="461.16" x2="413.71" y2="-105.26" xlink:href="#linear-gradient"/><linearGradient id="linear-gradient-28" x1="415.76" y1="461.22" x2="413.56" y2="-105.28" xlink:href="#linear-gradient"/><linearGradient id="linear-gradient-29" x1="415.58" y1="461.23" x2="413.38" y2="-105.28" xlink:href="#linear-gradient"/><linearGradient id="linear-gradient-30" x1="415.39" y1="461.24" x2="413.2" y2="-105.29" xlink:href="#linear-gradient"/><linearGradient id="linear-gradient-31" x1="415.25" y1="461.23" x2="413.06" y2="-105.29" xlink:href="#linear-gradient"/><linearGradient id="linear-gradient-32" x1="415.15" y1="461.22" x2="412.95" y2="-105.29" xlink:href="#linear-gradient"/><linearGradient id="linear-gradient-33" x1="414.98" y1="461.19" x2="412.79" y2="-105.22" xlink:href="#linear-gradient"/><linearGradient id="linear-gradient-34" x1="414.82" y1="461.22" x2="412.62" y2="-105.27" xlink:href="#linear-gradient"/><linearGradient id="linear-gradient-35" x1="414.61" y1="461.22" x2="412.41" y2="-105.28" xlink:href="#linear-gradient"/><linearGradient id="linear-gradient-36" x1="414.34" y1="461.24" x2="412.15" y2="-105.42" xlink:href="#linear-gradient"/><linearGradient id="linear-gradient-37" x1="414.31" y1="461.21" x2="412.11" y2="-105.11" xlink:href="#linear-gradient"/><linearGradient id="linear-gradient-38" x1="92.6" y1="423.79" x2="96.99" y2="46.15" gradientUnits="userSpaceOnUse"><stop offset="0.03" stop-color="#d7ffd7"/><stop offset="0.08" stop-color="#d2ffd3"/><stop offset="0.13" stop-color="#c3ffc8"/><stop offset="0.19" stop-color="#aaffb5"/><stop offset="0.25" stop-color="#88ff9b"/><stop offset="0.32" stop-color="#5dff7a"/><stop offset="0.32" stop-color="#5cff7a"/><stop offset="0.38" stop-color="#45e963"/><stop offset="0.48" stop-color="#1fc63f"/><stop offset="0.57" stop-color="#08b029"/><stop offset="0.62" stop-color="#00a821"/><stop offset="0.97" stop-color="#007321"/></linearGradient><linearGradient id="linear-gradient-39" x1="93.09" y1="423.8" x2="97.48" y2="46.15" xlink:href="#linear-gradient-38"/></defs><g id="Слой_2" data-name="Слой 2"><g id="Слой_1-2" data-name="Слой 1"><rect class="cls-1" width="512" height="512"/></g><g id="Слой_3" data-name="Слой 3"><path class="cls-2" d="M108.87,287.07H97.79l-1.12,7.46a15.32,15.32,0,0,1,2.36-.18,12.47,12.47,0,0,1,6.27,1.56,8.28,8.28,0,0,1,4.15,7.47c0,5.68-4.51,9.93-10.81,9.93a14.29,14.29,0,0,1-7.25-1.79l1-3a13.11,13.11,0,0,0,6.22,1.6c3.71,0,6.89-2.41,6.89-6.3s-2.55-6.44-8.36-6.44a30.82,30.82,0,0,0-4,.31L95,283.75h13.91Z"/><path class="cls-2" d="M110.27,336.15c0,9.88-3.66,15.32-10.1,15.32-5.68,0-9.52-5.32-9.61-14.93s4.2-15.1,10.1-15.1C106.78,321.44,110.27,326.89,110.27,336.15Zm-15.78.44c0,7.56,2.33,11.85,5.9,11.85,4,0,6-4.7,6-12.12,0-7.15-1.83-11.85-5.9-11.85C97,324.47,94.49,328.68,94.49,336.59Z"/><path class="cls-2" d="M103.28,389.16v-7.91H89.78v-2.59l13-18.56H107v18.06h4.08v3.09H107v7.91Zm0-11v-9.7c0-1.52,0-3,.14-4.56h-.14c-.89,1.7-1.61,3-2.41,4.29l-7.11,9.88v.09Z"/><path class="cls-2" d="M108.87,401.59H97.78l-1.11,7.46a17,17,0,0,1,2.36-.17,12.36,12.36,0,0,1,6.27,1.55,8.31,8.31,0,0,1,4.15,7.48c0,5.67-4.52,9.92-10.81,9.92A14.29,14.29,0,0,1,91.39,426l1-3a13,13,0,0,0,6.22,1.61c3.71,0,6.89-2.41,6.89-6.29s-2.55-6.45-8.37-6.45a30.79,30.79,0,0,0-4,.31l1.87-14h13.91Z"/><path class="cls-2" d="M91.15,465.5v-2.4l3.08-3C101.64,453,105,449.27,105,444.9c0-2.95-1.43-5.68-5.76-5.68a9.93,9.93,0,0,0-6.17,2.45l-1.25-2.76a12.73,12.73,0,0,1,8.22-3c6.27,0,8.9,4.29,8.9,8.46,0,5.34-3.88,9.7-10,15.59l-2.33,2.15v.09H109.7v3.25Z"/><path class="cls-2" d="M91.15,503.68v-2.41l3.08-3c7.41-7,10.78-10.82,10.82-15.2,0-2.95-1.44-5.68-5.76-5.68a9.83,9.83,0,0,0-6.18,2.47l-1.25-2.79a12.86,12.86,0,0,1,8.22-2.94c6.27,0,8.9,4.3,8.9,8.46,0,5.36-3.88,9.68-10,15.59l-2.33,2.15v.09H109.7v3.26Z"/><path class="cls-3" d="M121.87,38.58V36.17l3.09-3c7.42-7.07,10.77-10.83,10.82-15.21,0-2.94-1.43-5.68-5.77-5.68a9.91,9.91,0,0,0-6.17,2.47L122.59,12a12.75,12.75,0,0,1,8.22-3c6.27,0,8.9,4.29,8.9,8.44,0,5.36-3.89,9.7-10,15.6l-2.33,2.15v.09h13v3.26Z"/><path class="cls-4" d="M139.6,51H128.51l-1.11,7.45a15.32,15.32,0,0,1,2.36-.18A12.21,12.21,0,0,1,136,59.86a8.25,8.25,0,0,1,4.16,7.46c0,5.68-4.52,9.93-10.82,9.93a14.36,14.36,0,0,1-7.24-1.78l1-3a13,13,0,0,0,6.21,1.61c3.71,0,6.88-2.42,6.88-6.3s-2.54-6.45-8.36-6.45a33,33,0,0,0-4,.31L125.7,47.7h13.9Z"/><path class="cls-5" d="M134,420.33v-7.92h-13.5v-2.59l13-18.55h4.25v18.05h4.07v3.09h-4.07v7.92Zm0-11v-9.7c0-1.51,0-3,.14-4.55H134c-.89,1.68-1.61,2.94-2.41,4.29l-7.11,9.89v.07Z"/><path class="cls-6" d="M121.87,458.49v-2.4l3.09-3c7.42-7.06,10.77-10.83,10.81-15.2,0-2.94-1.43-5.68-5.76-5.68a9.86,9.86,0,0,0-6.17,2.47l-1.25-2.77a12.68,12.68,0,0,1,8.22-3c6.27,0,8.9,4.29,8.9,8.45,0,5.36-3.89,9.69-10,15.6l-2.33,2.15v.08h13v3.26Z"/><path class="cls-7" d="M139.6,470.93H128.51l-1.11,7.46a14,14,0,0,1,2.36-.19,12.31,12.31,0,0,1,6.26,1.57,8.27,8.27,0,0,1,4.16,7.47c0,5.67-4.52,9.93-10.82,9.93a14.35,14.35,0,0,1-7.24-1.79l1-3a12.8,12.8,0,0,0,6.21,1.61c3.71,0,6.88-2.41,6.88-6.29s-2.54-6.46-8.36-6.46a32.74,32.74,0,0,0-4,.32l1.89-13.93h13.9Z"/><path class="cls-8" d="M139.6,89.19H128.52l-1.12,7.46a15.13,15.13,0,0,1,2.36-.19A12.31,12.31,0,0,1,136,98a8.29,8.29,0,0,1,4.16,7.48c0,5.66-4.51,9.91-10.82,9.91a14.29,14.29,0,0,1-7.24-1.78l1-3a13.15,13.15,0,0,0,6.21,1.6c3.71,0,6.89-2.41,6.89-6.3s-2.55-6.44-8.37-6.44a30.79,30.79,0,0,0-4,.31l1.88-13.95h13.9Z"/><path class="cls-9" d="M139.6,127.36H128.52l-1.12,7.46a16.71,16.71,0,0,1,2.36-.18,12.21,12.21,0,0,1,6.26,1.57,8.25,8.25,0,0,1,4.15,7.46c0,5.68-4.51,9.93-10.81,9.93a14.15,14.15,0,0,1-7.24-1.79l1-3a13,13,0,0,0,6.2,1.61c3.72,0,6.9-2.42,6.9-6.31s-2.55-6.44-8.37-6.44a30.79,30.79,0,0,0-4,.31l1.88-14h13.9Z"/><path class="cls-10" d="M139.6,356.4H128.52l-1.12,7.47a15.32,15.32,0,0,1,2.36-.18,12.31,12.31,0,0,1,6.26,1.56,8.26,8.26,0,0,1,4.15,7.47c0,5.67-4.51,9.93-10.81,9.93a14.25,14.25,0,0,1-7.24-1.79l1-3a13,13,0,0,0,6.2,1.61c3.72,0,6.9-2.41,6.9-6.3s-2.55-6.44-8.37-6.44a32.92,32.92,0,0,0-4,.3l1.88-13.94h13.9Z"/><path class="cls-11" d="M121.87,191.28v-2.41l3.09-3c7.42-7.06,10.77-10.82,10.82-15.2,0-2.95-1.43-5.67-5.76-5.67a10,10,0,0,0-6.18,2.45l-1.25-2.78a12.86,12.86,0,0,1,8.23-2.94c6.26,0,8.89,4.29,8.89,8.45,0,5.36-3.89,9.7-10,15.6l-2.33,2.16V188h13v3.26Z"/><path class="cls-12" d="M121.87,229.46v-2.41l3.09-3c7.42-7.06,10.77-10.82,10.82-15.2,0-2.95-1.43-5.69-5.76-5.69a9.91,9.91,0,0,0-6.18,2.47l-1.25-2.78a12.76,12.76,0,0,1,8.23-2.95c6.26,0,8.89,4.3,8.89,8.45,0,5.36-3.89,9.7-10,15.6l-2.33,2.15v.09h13v3.27Z"/><path class="cls-13" d="M123.84,264.85a15.93,15.93,0,0,0,3.18-.13,10.89,10.89,0,0,0,6.07-2.81,12.74,12.74,0,0,0,3.84-7.73h-.12A8.57,8.57,0,0,1,130,257.3c-5.23,0-8.59-3.94-8.59-8.89,0-5.5,4-10.34,9.93-10.34s9.61,4.84,9.61,12.26c0,6.39-2.14,10.86-5,13.64a14.55,14.55,0,0,1-8.45,3.88,18.24,18.24,0,0,1-3.62.23Zm1.43-16.71c0,3.62,2.19,6.17,5.59,6.17a6.5,6.5,0,0,0,5.72-3.05,2.48,2.48,0,0,0,.35-1.42c0-5-1.83-8.77-5.94-8.77C127.64,241.07,125.27,244,125.27,248.14Z"/><path class="cls-14" d="M123.84,303a16.73,16.73,0,0,0,3.18-.13,11,11,0,0,0,6.07-2.82,12.71,12.71,0,0,0,3.84-7.73h-.12a8.55,8.55,0,0,1-6.85,3.13c-5.23,0-8.59-3.94-8.59-8.9,0-5.51,4-10.33,9.93-10.33s9.61,4.82,9.61,12.26c0,6.38-2.14,10.87-5,13.63a14.49,14.49,0,0,1-8.45,3.88,18.24,18.24,0,0,1-3.62.23Zm1.43-16.72c0,3.62,2.19,6.17,5.59,6.17a6.5,6.5,0,0,0,5.72-3,2.54,2.54,0,0,0,.35-1.43c0-5-1.83-8.76-5.94-8.76C127.64,279.25,125.27,282.19,125.27,286.31Z"/><path class="cls-15" d="M139.6,318.22H128.51l-1.12,7.47a15.58,15.58,0,0,1,2.37-.18,12.24,12.24,0,0,1,6.26,1.57,8.27,8.27,0,0,1,4.16,7.46c0,5.68-4.52,9.94-10.82,9.94a14,14,0,0,1-7.24-1.81l1-3a13.13,13.13,0,0,0,6.2,1.61c3.72,0,6.9-2.43,6.9-6.31s-2.55-6.44-8.37-6.44a30.79,30.79,0,0,0-4,.31l1.88-13.95h13.9Z"/><path class="cls-16" d="M69.7,23.66H58.6l-1.11,7.47A15.32,15.32,0,0,1,59.85,31a12.24,12.24,0,0,1,6.26,1.57A8.26,8.26,0,0,1,70.26,40c0,5.68-4.51,9.92-10.81,9.92a14.26,14.26,0,0,1-7.24-1.78l1-3a12.94,12.94,0,0,0,6.21,1.61c3.72,0,6.9-2.41,6.9-6.3S63.75,34,57.92,34a31.09,31.09,0,0,0-4,.31l1.89-13.95H69.7Z"/><path class="cls-17" d="M68.35,61.3a14.48,14.48,0,0,0-2.95.18A11.83,11.83,0,0,0,55.29,71.8h.14a8.69,8.69,0,0,1,7-3.35c5.14,0,8.75,3.71,8.75,9.38,0,5.33-3.61,10.25-9.65,10.25-6.21,0-10.28-4.83-10.28-12.39A18.3,18.3,0,0,1,56.19,62.6a15.76,15.76,0,0,1,9.3-4.3,18.59,18.59,0,0,1,2.86-.22ZM67.24,78.06c0-4.16-2.38-6.66-6-6.66A6.47,6.47,0,0,0,55.61,75a3.29,3.29,0,0,0-.45,1.74c.1,4.79,2.27,8.32,6.39,8.32C65,85,67.24,82.22,67.24,78.06Z"/><path class="cls-18" d="M68.34,99.47a14.39,14.39,0,0,0-2.94.18A11.8,11.8,0,0,0,55.29,110h.14a8.61,8.61,0,0,1,7-3.35c5.15,0,8.76,3.71,8.76,9.38,0,5.33-3.61,10.24-9.65,10.24-6.21,0-10.28-4.83-10.28-12.38a18.35,18.35,0,0,1,4.91-13.1,15.84,15.84,0,0,1,9.3-4.29,19,19,0,0,1,2.86-.23Zm-1.11,16.76c0-4.15-2.37-6.66-6-6.66a6.44,6.44,0,0,0-5.63,3.58,3.35,3.35,0,0,0-.45,1.75c.1,4.78,2.27,8.31,6.39,8.31C65,123.21,67.23,120.39,67.23,116.23Z"/><path class="cls-19" d="M71.09,149.09c0,9.88-3.66,15.33-10.1,15.33-5.67,0-9.51-5.32-9.61-14.93s4.2-15.11,10.1-15.11C67.6,134.38,71.09,139.84,71.09,149.09Zm-15.77.45c0,7.55,2.32,11.85,5.89,11.85,4,0,6-4.7,6-12.12,0-7.15-1.84-11.85-5.9-11.85C57.82,137.42,55.32,141.62,55.32,149.54Z"/><path class="cls-20" d="M53.93,199.34a17.58,17.58,0,0,0,3.18-.13,11,11,0,0,0,6.08-2.83A12.77,12.77,0,0,0,67,188.66h-.15a8.52,8.52,0,0,1-6.84,3.12c-5.21,0-8.57-3.93-8.57-8.9,0-5.5,4-10.32,9.93-10.32s9.6,4.82,9.6,12.25c0,6.39-2.15,10.87-5,13.63a14.53,14.53,0,0,1-8.44,3.89,18.23,18.23,0,0,1-3.63.22Zm1.43-16.73c0,3.63,2.2,6.18,5.59,6.18a6.46,6.46,0,0,0,5.71-3,2.51,2.51,0,0,0,.38-1.43c0-5-1.85-8.76-6-8.76C57.74,175.55,55.36,178.51,55.36,182.61Z"/><path class="cls-21" d="M64.1,240.29v-7.92H50.6v-2.59l13-18.56h4.24v18.06h4.08v3.09H67.81v7.92Zm0-11v-9.69c0-1.53,0-3.05.14-4.57H64.1c-.89,1.7-1.61,2.95-2.41,4.3l-7.1,9.87v.09Z"/><path class="cls-22" d="M69.7,252.71H58.6l-1.11,7.46a15.32,15.32,0,0,1,2.36-.18,12.3,12.3,0,0,1,6.27,1.57A8.28,8.28,0,0,1,70.28,269c0,5.68-4.53,9.93-10.83,9.93a14.25,14.25,0,0,1-7.24-1.79l1-3a13,13,0,0,0,6.22,1.61c3.71,0,6.89-2.41,6.89-6.3S63.75,263,57.92,263a31.09,31.09,0,0,0-4,.31l1.89-13.95H69.7Z"/><path class="cls-23" d="M69.7,481.75H58.6l-1.11,7.46a15.32,15.32,0,0,1,2.36-.18,12.4,12.4,0,0,1,6.27,1.57,8.3,8.3,0,0,1,4.16,7.47c0,5.67-4.53,9.92-10.83,9.92a14.36,14.36,0,0,1-7.24-1.78l1-3a13.18,13.18,0,0,0,6.22,1.61c3.71,0,6.89-2.42,6.89-6.3s-2.55-6.44-8.38-6.44a29.4,29.4,0,0,0-4,.31l1.89-13.95H69.7Z"/><path class="cls-24" d="M51.42,309.25c0-3.66,2.2-6.26,5.77-7.78l0-.13c-3.22-1.52-4.61-4-4.61-6.53,0-4.6,3.89-7.73,9-7.73,5.64,0,8.46,3.53,8.46,7.15,0,2.45-1.22,5.1-4.79,6.79v.14c3.63,1.43,5.86,4,5.86,7.51,0,5.05-4.33,8.45-9.88,8.45C55.09,317.12,51.42,313.5,51.42,309.25Zm15.65-.17c0-3.54-2.45-5.23-6.39-6.35-3.39,1-5.23,3.21-5.23,6-.14,2.95,2.09,5.54,5.82,5.54C64.79,314.26,67.07,312.07,67.07,309.08ZM56.25,294.54c0,2.91,2.2,4.47,5.54,5.37,2.51-.85,4.43-2.64,4.43-5.28a4.52,4.52,0,0,0-4.92-4.74C58.05,289.89,56.25,292,56.25,294.54Z"/><path class="cls-25" d="M71.09,340c0,9.88-3.66,15.33-10.1,15.33-5.67,0-9.51-5.32-9.61-14.93s4.2-15.11,10.1-15.11C67.6,325.25,71.09,330.71,71.09,340Zm-15.77.45c0,7.56,2.32,11.85,5.89,11.85,4,0,6-4.7,6-12.12,0-7.15-1.84-11.84-5.9-11.84C57.82,328.3,55.32,332.5,55.32,340.41Z"/><path class="cls-26" d="M52,393v-2.41l3.08-3c7.42-7.06,10.77-10.82,10.83-15.2,0-2.95-1.44-5.69-5.78-5.69a9.83,9.83,0,0,0-6.17,2.47l-1.25-2.77a12.75,12.75,0,0,1,8.22-2.95c6.27,0,8.9,4.29,8.9,8.44,0,5.37-3.89,9.71-10,15.62l-2.32,2.14v.09H70.53V393Z"/><path class="cls-27" d="M69.7,405.4H58.59l-1.11,7.47a15.47,15.47,0,0,1,2.37-.18,12.23,12.23,0,0,1,6.26,1.56,8.3,8.3,0,0,1,4.15,7.46c0,5.69-4.51,9.93-10.81,9.93a14.15,14.15,0,0,1-7.24-1.79l1-3a13.06,13.06,0,0,0,6.21,1.61c3.72,0,6.88-2.42,6.88-6.31s-2.54-6.43-8.36-6.43a29.4,29.4,0,0,0-4,.31l1.89-14H69.7Z"/><path class="cls-28" d="M51.42,462c0-3.67,2.2-6.27,5.77-7.78l0-.13c-3.22-1.53-4.61-4-4.61-6.53,0-4.61,3.9-7.74,9-7.74,5.64,0,8.46,3.53,8.46,7.16,0,2.46-1.2,5.09-4.79,6.79v.13c3.63,1.43,5.86,4,5.86,7.52,0,5.05-4.33,8.45-9.88,8.45C55.09,469.82,51.42,466.2,51.42,462Zm15.65-.18c0-3.53-2.45-5.23-6.39-6.35-3.39,1-5.23,3.22-5.23,6-.14,2.95,2.09,5.54,5.82,5.54C64.79,467,67.07,464.76,67.07,461.77ZM56.26,447.24c0,2.91,2.19,4.47,5.53,5.37,2.51-.86,4.44-2.65,4.44-5.28a4.53,4.53,0,0,0-4.93-4.74C58.05,442.59,56.26,444.73,56.26,447.24Z"/><path class="cls-29" d="M249.17,43.42a16.06,16.06,0,0,0,3.18-.14,11,11,0,0,0,6.08-2.81,12.85,12.85,0,0,0,3.85-7.73h-.15a8.52,8.52,0,0,1-6.83,3.12c-5.24,0-8.58-3.93-8.58-8.89,0-5.5,4-10.33,9.91-10.33s9.63,4.83,9.63,12.25c0,6.4-2.16,10.87-5,13.63a14.48,14.48,0,0,1-8.45,3.9,18.87,18.87,0,0,1-3.62.22Zm1.44-16.71c0,3.61,2.18,6.16,5.58,6.16a6.49,6.49,0,0,0,5.71-3,2.56,2.56,0,0,0,.38-1.43c0-5-1.84-8.76-5.95-8.76C253,19.64,250.61,22.58,250.61,26.71Z"/><path class="cls-29" d="M257.53,59h-.08l-5.06,2.73-.77-3L258,55.3h3.35V84.36h-3.8Z"/><path class="cls-29" d="M264.94,402.18H253.85l-1.12,7.46a17.11,17.11,0,0,1,2.37-.17,12.23,12.23,0,0,1,6.26,1.56,8.28,8.28,0,0,1,4.16,7.47c0,5.67-4.53,9.92-10.83,9.92a14.29,14.29,0,0,1-7.24-1.78l1-3a13.15,13.15,0,0,0,6.23,1.61c3.7,0,6.88-2.42,6.88-6.31s-2.55-6.44-8.36-6.44a29.25,29.25,0,0,0-4,.32L251,398.87h13.91Z"/><path class="cls-29" d="M264.94,440.36H253.85l-1.12,7.45a17.11,17.11,0,0,1,2.37-.17,12.28,12.28,0,0,1,6.26,1.56,8.3,8.3,0,0,1,4.16,7.47c0,5.68-4.53,9.92-10.83,9.92a14.18,14.18,0,0,1-7.24-1.79l1-3a13.24,13.24,0,0,0,6.23,1.6c3.7,0,6.88-2.42,6.88-6.31s-2.55-6.43-8.36-6.43a29.45,29.45,0,0,0-4,.31L251,437h13.91Z"/><path class="cls-29" d="M257.53,478.88h-.08l-5.06,2.74-.77-3,6.36-3.38h3.35v29h-3.8Z"/><path class="cls-29" d="M257.53,97.15h-.08l-5.06,2.73-.77-3,6.36-3.4h3.35v29.06h-3.8Z"/><path class="cls-29" d="M247.21,160.72V158.3l3.08-3c7.42-7.06,10.77-10.81,10.81-15.2,0-2.94-1.42-5.67-5.75-5.67a9.93,9.93,0,0,0-6.18,2.45l-1.25-2.77a12.81,12.81,0,0,1,8.22-3c6.27,0,8.91,4.29,8.91,8.45,0,5.37-3.89,9.71-10,15.6l-2.32,2.15v.09h13.06v3.27Z"/><path class="cls-29" d="M247.21,389.76v-2.41l3.08-3c7.42-7.06,10.77-10.82,10.81-15.2,0-2.95-1.42-5.68-5.75-5.68a9.88,9.88,0,0,0-6.18,2.46l-1.25-2.78a12.8,12.8,0,0,1,8.22-2.94c6.27,0,8.91,4.29,8.91,8.44,0,5.37-3.89,9.71-10,15.61l-2.32,2.15v.08h13.06v3.27Z"/><path class="cls-29" d="M248.48,194.37a13.24,13.24,0,0,0,6.44,1.84c5.05,0,6.62-3.23,6.58-5.63-.05-4.07-3.72-5.82-7.51-5.82h-2.2v-2.95H254c2.86,0,6.47-1.47,6.47-4.93,0-2.31-1.47-4.37-5.1-4.37a10.67,10.67,0,0,0-5.8,1.92l-1-2.86a13.76,13.76,0,0,1,7.59-2.23c5.73,0,8.33,3.4,8.33,6.93,0,3-1.79,5.54-5.37,6.84v.09c3.58.71,6.48,3.39,6.48,7.46,0,4.65-3.63,8.72-10.59,8.72a14.79,14.79,0,0,1-7.56-2Z"/><path class="cls-29" d="M264.94,211.31H253.85l-1.12,7.46a17.07,17.07,0,0,1,2.36-.17,12.25,12.25,0,0,1,6.27,1.57,8.27,8.27,0,0,1,4.16,7.46c0,5.67-4.53,9.92-10.83,9.92a14.26,14.26,0,0,1-7.24-1.78l1-3a13,13,0,0,0,6.23,1.61c3.7,0,6.88-2.41,6.88-6.3s-2.55-6.44-8.36-6.44a30.5,30.5,0,0,0-4,.31L251,208h13.91Z"/><path class="cls-29" d="M246.67,267.86c0-3.67,2.19-6.25,5.78-7.78l-.06-.13c-3.22-1.52-4.61-4-4.61-6.53,0-4.6,3.9-7.73,9-7.73,5.63,0,8.44,3.53,8.44,7.15,0,2.45-1.2,5.09-4.78,6.79v.14c3.62,1.43,5.86,4,5.86,7.51,0,5.05-4.34,8.44-9.89,8.44C250.33,275.72,246.67,272.11,246.67,267.86Zm15.65-.18c0-3.54-2.45-5.23-6.39-6.35-3.4,1-5.23,3.22-5.23,6-.13,2.95,2.1,5.55,5.81,5.55C260,272.87,262.32,270.67,262.32,267.68ZM251.5,253.15c0,2.9,2.19,4.47,5.54,5.36,2.51-.84,4.43-2.63,4.43-5.27a4.52,4.52,0,0,0-4.92-4.74C253.29,248.5,251.5,250.65,251.5,253.15Z"/><path class="cls-29" d="M257.53,288h-.08l-5.06,2.72-.77-3,6.36-3.4h3.35v29.07h-3.8Z"/><path class="cls-29" d="M249.17,348.81a16.73,16.73,0,0,0,3.18-.13,11,11,0,0,0,6.08-2.82,12.8,12.8,0,0,0,3.85-7.73h-.15a8.52,8.52,0,0,1-6.83,3.13c-5.24,0-8.58-3.93-8.58-8.9,0-5.51,4-10.33,9.93-10.33s9.61,4.82,9.61,12.25c0,6.39-2.16,10.87-5,13.64a14.46,14.46,0,0,1-8.44,3.88,17.6,17.6,0,0,1-3.63.23Zm1.44-16.72c0,3.62,2.19,6.18,5.58,6.18a6.5,6.5,0,0,0,5.71-3,2.53,2.53,0,0,0,.38-1.43c0-5-1.84-8.76-5.95-8.76C253,325,250.61,328,250.61,332.09Z"/><path class="cls-30" d="M386,55.91V48H372.5V45.4l13-18.55h4.27V44.91h4V48h-4v7.92Zm0-11V35.2c0-1.52.05-3,.13-4.55H386c-.9,1.7-1.62,3-2.41,4.28l-7.12,9.88v.1Z"/><path class="cls-30" d="M384.2,68.69h-.1l-5,2.73-.76-3,6.35-3.4H388V94.08h-3.8Z"/><path class="cls-30" d="M386,132.25v-7.91H372.5v-2.59l13-18.56h4.27v18.07h4v3.08h-4v7.91Zm0-11v-9.71c0-1.52.05-3,.13-4.56H386c-.9,1.7-1.61,3-2.41,4.29l-7.12,9.88v.1Z"/><path class="cls-30" d="M373.33,163.05c0-3.67,2.2-6.26,5.77-7.78l-.06-.13c-3.21-1.52-4.59-4-4.59-6.54,0-4.6,3.89-7.73,9-7.73,5.63,0,8.45,3.54,8.45,7.16,0,2.46-1.21,5.09-4.79,6.79V155c3.64,1.43,5.86,4,5.86,7.51,0,5.05-4.34,8.44-9.88,8.44C377,170.91,373.33,167.3,373.33,163.05Zm15.65-.18c0-3.53-2.46-5.23-6.39-6.35-3.4,1-5.23,3.22-5.23,6-.14,3,2.09,5.54,5.81,5.54C386.7,168.05,389,165.87,389,162.87Zm-10.82-14.53c0,2.91,2.2,4.47,5.55,5.36,2.49-.85,4.41-2.64,4.41-5.27a4.51,4.51,0,0,0-4.9-4.74C379.94,143.69,378.16,145.84,378.16,148.34Z"/><path class="cls-30" d="M390.26,182.31a13.77,13.77,0,0,0-2.95.18,11.8,11.8,0,0,0-10.11,10.32h.13a8.67,8.67,0,0,1,7-3.34c5.14,0,8.77,3.7,8.77,9.38,0,5.33-3.63,10.24-9.67,10.24-6.21,0-10.26-4.83-10.26-12.39,0-5.72,2-10.23,4.9-13.09a15.78,15.78,0,0,1,9.3-4.29,19,19,0,0,1,2.87-.23Zm-1.13,16.76c0-4.15-2.36-6.66-6-6.66a6.46,6.46,0,0,0-5.63,3.58,3.25,3.25,0,0,0-.45,1.74c.08,4.79,2.27,8.32,6.38,8.32C386.85,206.05,389.13,203.23,389.13,199.07Z"/><path class="cls-30" d="M386,246.77v-7.92H372.5v-2.58l13-18.55h4.27v18.05h4v3.08h-4v7.92Zm0-11v-9.69c0-1.52.06-3.05.14-4.57H386c-.89,1.71-1.61,3-2.41,4.3l-7.11,9.88v.08Z"/><path class="cls-30" d="M390.26,258.66a14.45,14.45,0,0,0-2.95.18,11.82,11.82,0,0,0-10.11,10.32h.13a8.67,8.67,0,0,1,7-3.35c5.14,0,8.77,3.71,8.77,9.39,0,5.32-3.63,10.23-9.65,10.23-6.23,0-10.3-4.82-10.3-12.37,0-5.73,2.06-10.25,4.92-13.1a15.82,15.82,0,0,1,9.3-4.3,20.27,20.27,0,0,1,2.87-.22Zm-1.13,16.77c0-4.17-2.36-6.67-6-6.67a6.46,6.46,0,0,0-5.63,3.58,3.25,3.25,0,0,0-.45,1.74c.08,4.79,2.27,8.32,6.4,8.32C386.85,282.4,389.13,279.58,389.13,275.43Z"/><path class="cls-30" d="M390.26,296.84a14.62,14.62,0,0,0-3,.17,11.81,11.81,0,0,0-10.09,10.33h.13a8.65,8.65,0,0,1,7-3.36c5.14,0,8.77,3.72,8.77,9.4,0,5.31-3.63,10.23-9.67,10.23-6.21,0-10.28-4.83-10.28-12.38,0-5.73,2.06-10.24,4.92-13.1a15.91,15.91,0,0,1,9.3-4.3,19.93,19.93,0,0,1,2.87-.21Zm-1.13,16.75c0-4.15-2.36-6.66-6-6.66a6.46,6.46,0,0,0-5.63,3.58,3.28,3.28,0,0,0-.45,1.75c.08,4.78,2.27,8.31,6.38,8.31C386.85,320.57,389.13,317.75,389.13,313.59Z"/><path class="cls-30" d="M391.59,335.54H380.51L379.39,343a15.36,15.36,0,0,1,2.37-.18A12.21,12.21,0,0,1,388,344.4a8.3,8.3,0,0,1,4.16,7.47c0,5.67-4.52,9.92-10.81,9.92a14.33,14.33,0,0,1-7.26-1.79l1-3a12.9,12.9,0,0,0,6.2,1.61c3.72,0,6.88-2.41,6.88-6.3s-2.54-6.44-8.35-6.44a31,31,0,0,0-4,.31l1.89-13.95h13.89Z"/><path class="cls-30" d="M375.15,395a13.29,13.29,0,0,0,6.43,1.82c5.05,0,6.61-3.21,6.58-5.63-.05-4.06-3.72-5.8-7.52-5.8h-2.19v-3h2.19c2.87,0,6.48-1.48,6.48-4.92,0-2.32-1.47-4.38-5.09-4.38a10.66,10.66,0,0,0-5.82,1.93l-1-2.88a13.85,13.85,0,0,1,7.6-2.23c5.72,0,8.31,3.41,8.31,6.94,0,3-1.79,5.54-5.36,6.83v.1c3.57.71,6.48,3.4,6.48,7.46,0,4.66-3.62,8.72-10.6,8.72a14.74,14.74,0,0,1-7.55-2Z"/><path class="cls-30" d="M390.26,411.35a14.45,14.45,0,0,0-2.95.18,11.81,11.81,0,0,0-10.11,10.33h.13a8.68,8.68,0,0,1,7-3.36c5.14,0,8.77,3.72,8.77,9.39,0,5.33-3.63,10.25-9.65,10.25-6.23,0-10.28-4.83-10.28-12.38,0-5.73,2-10.24,4.9-13.1a15.79,15.79,0,0,1,9.3-4.3,18.87,18.87,0,0,1,2.87-.22Zm-1.13,16.77c0-4.16-2.36-6.66-6-6.66a6.47,6.47,0,0,0-5.63,3.57,3.28,3.28,0,0,0-.45,1.75c.08,4.78,2.27,8.31,6.4,8.31C386.85,435.09,389.13,432.27,389.13,428.12Z"/><path class="cls-30" d="M390.26,449.52a13.22,13.22,0,0,0-2.95.19A11.8,11.8,0,0,0,377.2,460h.13a8.67,8.67,0,0,1,7-3.35c5.14,0,8.77,3.71,8.77,9.39,0,5.32-3.63,10.23-9.65,10.23-6.23,0-10.28-4.82-10.28-12.37,0-5.73,2-10.24,4.9-13.1a15.91,15.91,0,0,1,9.3-4.3,18.65,18.65,0,0,1,2.87-.21Zm-1.13,16.78c0-4.17-2.36-6.67-6-6.67a6.46,6.46,0,0,0-5.63,3.58,3.22,3.22,0,0,0-.45,1.74c.08,4.78,2.27,8.32,6.4,8.32C386.85,473.27,389.13,470.45,389.13,466.3Z"/><path class="cls-30" d="M216.61,37V29.12H203.1v-2.6L216.07,8h4.25V26h4.06v3.08h-4.06V37Zm0-11V16.33c0-1.52,0-3,.12-4.56h-.12c-.9,1.7-1.62,3-2.41,4.3l-7.12,9.87V26Z"/><path class="cls-30" d="M214.8,49.82h-.1l-5,2.73-.76-3,6.34-3.4h3.36V75.2h-3.8Z"/><path class="cls-30" d="M216.61,113.38v-7.91H203.1v-2.6l13-18.55h4.25v18.07h4.06v3.08h-4.06v7.91Zm0-11V92.68c0-1.52,0-3,.12-4.56h-.12c-.9,1.7-1.61,2.94-2.41,4.29l-7.12,9.88v.1Z"/><path class="cls-30" d="M203.93,144.17c0-3.66,2.2-6.25,5.77-7.77l-.06-.13c-3.21-1.53-4.59-4-4.59-6.54,0-4.6,3.89-7.73,9-7.73,5.63,0,8.45,3.53,8.45,7.15,0,2.46-1.21,5.1-4.79,6.8v.13c3.64,1.44,5.86,4,5.86,7.52,0,5.05-4.34,8.44-9.88,8.44C207.6,152,203.93,148.42,203.93,144.17Zm15.65-.17c0-3.53-2.46-5.23-6.39-6.35-3.4,1-5.24,3.22-5.24,6-.13,3,2.1,5.54,5.82,5.54C217.3,149.18,219.58,147,219.58,144Zm-10.82-14.53c0,2.91,2.19,4.47,5.55,5.36,2.49-.85,4.41-2.64,4.41-5.27a4.5,4.5,0,0,0-4.9-4.74C210.54,124.82,208.76,127,208.76,129.47Z"/><path class="cls-30" d="M220.85,163.44a13.68,13.68,0,0,0-2.94.18A11.78,11.78,0,0,0,207.81,174h.12a8.65,8.65,0,0,1,7-3.36c5.14,0,8.76,3.72,8.76,9.39,0,5.32-3.62,10.24-9.66,10.24-6.21,0-10.27-4.83-10.27-12.39,0-5.72,2.05-10.23,4.91-13.1a15.8,15.8,0,0,1,9.3-4.28,18.89,18.89,0,0,1,2.86-.23Zm-1.11,16.76c0-4.15-2.38-6.66-6-6.66a6.46,6.46,0,0,0-5.63,3.58,3.22,3.22,0,0,0-.45,1.74c.09,4.79,2.27,8.32,6.38,8.32C217.46,187.18,219.74,184.36,219.74,180.2Z"/><path class="cls-30" d="M216.6,227.9V220H203.1V217.4l13-18.56h4.25V216.9h4.06V220h-4.06v7.91Zm0-11v-9.69c0-1.53.06-3.05.13-4.57h-.13c-.89,1.7-1.61,3-2.41,4.3l-7.11,9.87v.09Z"/><path class="cls-30" d="M220.85,239.78a15.1,15.1,0,0,0-2.94.18,11.8,11.8,0,0,0-10.1,10.33h.12a8.67,8.67,0,0,1,7-3.34c5.14,0,8.76,3.7,8.76,9.38,0,5.32-3.62,10.24-9.64,10.24-6.23,0-10.3-4.83-10.3-12.38,0-5.73,2.06-10.24,4.92-13.1a15.85,15.85,0,0,1,9.3-4.3,18.76,18.76,0,0,1,2.86-.22Zm-1.11,16.77c0-4.15-2.38-6.66-6-6.66a6.46,6.46,0,0,0-5.63,3.58,3.23,3.23,0,0,0-.45,1.75c.09,4.77,2.27,8.31,6.4,8.31C217.46,263.53,219.74,260.71,219.74,256.55Z"/><path class="cls-30" d="M220.85,278a14.62,14.62,0,0,0-3,.18,11.79,11.79,0,0,0-10.08,10.32h.12a8.67,8.67,0,0,1,7-3.35c5.14,0,8.76,3.71,8.76,9.4,0,5.31-3.62,10.23-9.66,10.23-6.21,0-10.28-4.83-10.28-12.39,0-5.72,2.06-10.23,4.92-13.09A15.82,15.82,0,0,1,218,275a19.8,19.8,0,0,1,2.86-.21Zm-1.11,16.76c0-4.15-2.38-6.66-6-6.66a6.46,6.46,0,0,0-5.63,3.58,3.22,3.22,0,0,0-.45,1.74c.09,4.79,2.27,8.32,6.38,8.32C217.46,301.7,219.74,298.88,219.74,294.72Z"/><path class="cls-30" d="M222.19,316.68H211.1L210,324.14a15.36,15.36,0,0,1,2.37-.18,12.33,12.33,0,0,1,6.26,1.56,8.31,8.31,0,0,1,4.16,7.47c0,5.68-4.51,9.93-10.81,9.93a14.33,14.33,0,0,1-7.26-1.79l1-3a12.86,12.86,0,0,0,6.2,1.61c3.72,0,6.89-2.41,6.89-6.31s-2.56-6.43-8.36-6.43a31,31,0,0,0-4,.31l1.89-13.95h13.89Z"/><path class="cls-30" d="M205.75,376.09a13.33,13.33,0,0,0,6.43,1.82c5,0,6.62-3.22,6.57-5.63,0-4.07-3.71-5.8-7.51-5.8H209v-3h2.2c2.86,0,6.48-1.48,6.48-4.92,0-2.32-1.48-4.38-5.09-4.38a10.66,10.66,0,0,0-5.82,1.93l-1-2.87a13.75,13.75,0,0,1,7.59-2.24c5.73,0,8.32,3.4,8.32,6.94,0,3-1.79,5.54-5.36,6.83v.1c3.57.71,6.47,3.4,6.47,7.46,0,4.66-3.61,8.72-10.59,8.72a14.74,14.74,0,0,1-7.55-2Z"/><path class="cls-30" d="M220.85,392.48a14.35,14.35,0,0,0-2.94.18A11.79,11.79,0,0,0,207.81,403h.12a8.7,8.7,0,0,1,7-3.35c5.14,0,8.76,3.71,8.76,9.4,0,5.32-3.62,10.23-9.64,10.23-6.23,0-10.29-4.82-10.29-12.37,0-5.73,2.05-10.25,4.91-13.11a15.81,15.81,0,0,1,9.3-4.29,18.76,18.76,0,0,1,2.86-.22Zm-1.11,16.77c0-4.16-2.38-6.66-6-6.66a6.45,6.45,0,0,0-5.63,3.57,3.28,3.28,0,0,0-.45,1.75c.09,4.78,2.27,8.31,6.4,8.31C217.46,416.22,219.74,413.4,219.74,409.25Z"/><path class="cls-30" d="M220.85,430.66a13.68,13.68,0,0,0-2.94.18,11.78,11.78,0,0,0-10.1,10.32h.12a8.67,8.67,0,0,1,7-3.35c5.14,0,8.76,3.71,8.76,9.39,0,5.32-3.62,10.24-9.64,10.24-6.23,0-10.29-4.83-10.29-12.38,0-5.73,2.05-10.24,4.91-13.1a15.76,15.76,0,0,1,9.3-4.3,18.54,18.54,0,0,1,2.86-.21Zm-1.11,16.76c0-4.16-2.38-6.66-6-6.66a6.46,6.46,0,0,0-5.63,3.58,3.25,3.25,0,0,0-.45,1.74c.09,4.79,2.27,8.32,6.4,8.32C217.46,454.4,219.74,451.58,219.74,447.42Z"/><path class="cls-30" d="M206.43,492.35a16.81,16.81,0,0,0,3.18-.14,10.8,10.8,0,0,0,6.08-2.82,12.68,12.68,0,0,0,3.84-7.72h-.14a8.53,8.53,0,0,1-6.82,3.13c-5.24,0-8.59-3.93-8.59-8.9,0-5.51,4-10.33,9.92-10.33s9.61,4.82,9.61,12.25c0,6.39-2.14,10.87-5,13.64a14.55,14.55,0,0,1-8.46,3.88,18.24,18.24,0,0,1-3.62.23Zm1.43-16.73c0,3.64,2.19,6.18,5.59,6.18a6.5,6.5,0,0,0,5.73-3.05,2.7,2.7,0,0,0,.35-1.42c0-5-1.83-8.76-5.94-8.76C210.23,468.57,207.86,471.51,207.86,475.62Z"/><path class="cls-31" d="M252.86,150a5.49,5.49,0,0,1,1.47,3.49c0,3.16-2.39,4.76-5.31,4.76h-9.26a6.25,6.25,0,0,1-4.26-1.34,5.36,5.36,0,0,1-2-3.92,2.27,2.27,0,0,1,2.23-2.52,2,2,0,0,1,2,2.14c0,1.26.67,1.43,1.85,1.43h9.14c.33,0,1.39.13,1.39-.5,0-.34-.59-1-.76-1.23l-14.45-18.57a5.06,5.06,0,0,1-1.38-3.45,4.7,4.7,0,0,1,2.23-4.05,5.61,5.61,0,0,1,3.5-.76h8.93a6,6,0,0,1,4.16,1.39,5.75,5.75,0,0,1,2,4,2.14,2.14,0,0,1-2.18,2.44,1.87,1.87,0,0,1-2-2c0-1.44-.72-1.65-2-1.65h-8.92c-.46,0-1.43-.12-1.43.6,0,.38.46.88.64,1.14Z"/><path class="cls-31" d="M248,167.59a2,2,0,0,1,2.1,2.11v12.18a4.36,4.36,0,0,1,3.08,1.17,4.05,4.05,0,0,1,1.13,3.08v10a3.92,3.92,0,0,1-4.21,4.22H237.74a3.92,3.92,0,0,1-4.21-4.22v-10a4.09,4.09,0,0,1,1.13-3.08,4.36,4.36,0,0,1,3.08-1.17V169.7a2,2,0,0,1,2.1-2.11Zm2.1,28.56V186.09H237.74v10.06Zm-4.21-14.27V171.81h-4v10.07Z"/><path class="cls-31" d="M248,227.56V215.38a2.11,2.11,0,1,1,4.21,0v12.18a2.1,2.1,0,1,1,0,4.2v8.6a2.11,2.11,0,0,1-4.21,0v-8.6H235.63v-20a2.11,2.11,0,0,1,4.21,0v15.76Z"/><path class="cls-31" d="M241.91,266.07h7.75a4.34,4.34,0,0,1,3.37,1.18,4.15,4.15,0,0,1,1.3,3.58v9a4.45,4.45,0,0,1-1,3.29,4.09,4.09,0,0,1-3.66,1.43h-9.35a6.14,6.14,0,0,1-2.78-.76l-1.6-.71c-1.14-.51-2.4-.89-2.4-2.36a2.13,2.13,0,0,1,2-2.11,3,3,0,0,1,1.35.34l1.26.54a7,7,0,0,0,2.23.85h9.73V270.28H237.7V251.79h14.53a2.11,2.11,0,0,1,0,4.21H241.91Z"/><path class="cls-31" d="M249.06,293.89h5.27v30.66a2.11,2.11,0,1,1-4.21,0V299.7H250l-4,5.94v.68c0,1.3-.51,2.52-2.11,2.52s-2.1-1.22-2.1-2.52v-.68l-4-5.94h-.08v24.85a2.11,2.11,0,1,1-4.21,0V293.89h5.26l5.14,7.41Z"/><path class="cls-31" d="M244.85,368.76c-3.15,0-5-1.27-6.31-4l-3.88-7.84a9.52,9.52,0,0,1-1.13-4.42,9.16,9.16,0,0,1,1.18-4.68l3.87-7.79c1.43-2.9,3.25-4,6.48-4h7.17a2.11,2.11,0,0,1,0,4.21h-7c-1.82,0-2.11.17-2.91,1.77l-3.67,7.33a6.49,6.49,0,0,0-.88,3.2,5.87,5.87,0,0,0,.88,2.9l3.58,7.29c.85,1.73,1.27,1.86,3.16,1.86h6.87a2,2,0,0,1,2.1,2.09,2,2,0,0,1-2.1,2.12Z"/><path class="cls-31" d="M253.24,389.92a9.67,9.67,0,0,1,1.09,4.67,10.3,10.3,0,0,1-1.39,5l-3.88,7.76a5.52,5.52,0,0,1-10.27,0l-3.88-7.76a10.4,10.4,0,0,1-1.38-5,9.55,9.55,0,0,1,1.09-4.67l4.21-8.38a5.48,5.48,0,0,1,10.19,0Zm-7.88-6.37c-.33-.66-.54-1.26-1.43-1.26s-1.1.6-1.43,1.26l-3.79,7.64a6.39,6.39,0,0,0-1,3.4,5.7,5.7,0,0,0,.71,2.79l4.05,8c.3.59.59,1.26,1.43,1.26s1.13-.67,1.43-1.26l4-8a5.6,5.6,0,0,0,.72-2.79,6.48,6.48,0,0,0-1-3.4Z"/><path class="cls-31" d="M241.53,436.57,234,423.68a2.73,2.73,0,0,1-.5-1.52,2.07,2.07,0,0,1,2.06-2c1.39,0,1.85,1.06,2.44,2.07l5.9,10.07,5.89-10.07c.6-1,1.06-2.07,2.45-2.07a2.08,2.08,0,0,1,2.06,2,2.67,2.67,0,0,1-.51,1.52l-7.49,12.89,7.49,12.89a2.69,2.69,0,0,1,.51,1.52,2.08,2.08,0,0,1-2.06,2c-1.39,0-1.85-1-2.45-2.07l-5.89-10.07L238,450.89c-.59,1-1.05,2.07-2.44,2.07a2.07,2.07,0,0,1-2.06-2,2.76,2.76,0,0,1,.5-1.52Z"/><path class="cls-31" d="M237.74,492.94a2.11,2.11,0,0,1-4.21,0V462.29h14a6.17,6.17,0,0,1,4.84,1.71c1.82,1.7,2,3.24,2,5.53v5.72c0,2.15-.16,3.67-1.72,5.39-1.64,1.87-3.37,2-5.65,2h-9.22Zm0-14.49h9.35c2.48,0,3-.62,3-3v-5.9c0-2.41-.55-3-3-3h-9.35Z"/><path class="cls-30" d="M25.07,31.25h7c1.24,0,2.37.51,2.37,1.79S33.28,34.83,32,34.83H13.37c-1.24,0-2.37-.5-2.37-1.79s1.13-1.79,2.37-1.79h7V10.57h-7c-1.24,0-2.37-.49-2.37-1.78S12.13,7,13.37,7H32c1.24,0,2.37.5,2.37,1.79S33.28,10.57,32,10.57h-7Z"/><path class="cls-30" d="M15.74,67.16H32c1.24,0,2.37.5,2.37,1.79S33.28,70.74,32,70.74H11V59.07c0-2.68,1.8-4,5.36-4H29.67V46.49H13.37C12.13,46.49,11,46,11,44.7s1.13-1.8,2.37-1.8H29.11a6,6,0,0,1,3.83,1,3.26,3.26,0,0,1,1.47,3.18v7.33a3.28,3.28,0,0,1-1.47,3.19,6.07,6.07,0,0,1-3.83,1H15.74Z"/><path class="cls-30" d="M27.3,78.81c1.61,0,2.37.86,2.37,1.79V90.94a5.87,5.87,0,0,1,3.46,1,3.07,3.07,0,0,1,1.28,2.62v8.51c0,2.18-1.8,3.58-4.74,3.58H15.74c-2.94,0-4.74-1.4-4.74-3.58V94.56a3,3,0,0,1,1.28-2.62,5.87,5.87,0,0,1,3.46-1V80.6c0-.93.75-1.79,2.37-1.79Zm2.37,24.26V94.52H15.74v8.55ZM24.94,90.94V82.39H20.48v8.55Z"/><path class="cls-30" d="M24.12,139.3l-3.12,2a7,7,0,0,1-4.26,1.24,6.52,6.52,0,0,1-4.17-1.35A3.89,3.89,0,0,1,11,137.69v-9.38c0-2.6,1.24-4.25,3.79-5.9l9.67-6.22a6.76,6.76,0,0,1,4-1.47c3.6,0,5.92,2,5.92,4.65v9.48c0,2.76-.95,4.33-3.75,6.16l-2.79,1.82L29.06,139h2.8c1.42,0,2.55.64,2.55,1.79,0,1.5-1.47,1.78-3.13,1.78H25.83Zm1.95-6,1.09-.69c2.18-1.36,2.51-1.85,2.51-4v-8.91c0-.58.1-1.43-1-1.43-.56,0-.9.36-1.32.6l-9.53,6.23c-1.61,1-2.13,1.72-2.13,3.33v9.26c0,.58-.05,1.26,1,1.26a2.84,2.84,0,0,0,1.42-.54l4.07-2.69L21,133.39a4.13,4.13,0,0,1-.66-1.68c0-1,1.14-1.71,2.37-1.71,1.85,0,2.14,1.21,2.75,2.29Z"/><path class="cls-30" d="M32,172.38a4.78,4.78,0,0,1-.9,3.43c-1.62,2-4,2.65-6.92,2.65H21.48c-2.66,0-4.93-.36-6.64-2.08a4.47,4.47,0,0,1-1.47-3.61v-5.18c0-1.15.67-1.8,2.37-1.8s2.37.65,2.37,1.8v4.65c0,2.07.57,2.64,3.37,2.64h2.59c2,0,3.23-.21,3.23-1.93V152.42c0-1.14.67-1.79,2.37-1.79s2.37.65,2.37,1.79Z"/><path class="cls-30" d="M32.75,207.36a4.15,4.15,0,0,1,1.66,3c0,2.68-2.71,4-6,4H18a8.55,8.55,0,0,1-4.79-1.15A4.26,4.26,0,0,1,11,209.9a2.21,2.21,0,0,1,2.51-2.15,2,2,0,0,1,2.23,1.83c0,1.07.75,1.21,2.08,1.21H28.11c.38,0,1.56.11,1.56-.43,0-.28-.67-.82-.85-1L12.57,193.55A3.82,3.82,0,0,1,11,190.61a3.89,3.89,0,0,1,2.51-3.43,8,8,0,0,1,3.94-.65h10a8.23,8.23,0,0,1,4.69,1.18,4.6,4.6,0,0,1,2.23,3.4c0,1.15-.76,2.08-2.47,2.08-1.41,0-2.27-.68-2.27-1.68,0-1.22-.8-1.39-2.27-1.39h-10c-.52,0-1.61-.11-1.61.49,0,.32.52.76.71,1Z"/><path class="cls-30" d="M28.49,222.44h5.92v26.05c0,1.14-.67,1.79-2.37,1.79s-2.37-.65-2.37-1.79V227.38h-.09l-4.51,5V233c0,1.11-.56,2.14-2.36,2.14A2.09,2.09,0,0,1,20.33,233v-.58l-4.5-5h-.09v21.11c0,1.14-.66,1.79-2.37,1.79S11,249.63,11,248.49V222.44h5.92l5.79,6.3Z"/><path class="cls-30" d="M29.67,258.35c2.61,0,4.74,1.61,4.74,3.58V282.6c0,2-2,3.59-4.74,3.59H15.74c-2.71,0-4.74-1.58-4.74-3.59V261.93c0-2,2.13-3.58,4.74-3.58Zm0,24.25V261.93H15.74V282.6Z"/><path class="cls-30" d="M20,308.18l-8.43-10.95a1.93,1.93,0,0,1-.57-1.29c0-.93,1.13-1.68,2.33-1.68,1.55,0,2.07.9,2.74,1.75l6.64,8.55L29.34,296c.66-.85,1.19-1.75,2.75-1.75,1.19,0,2.32.75,2.32,1.68a2,2,0,0,1-.57,1.29l-8.43,10.95,8.43,10.95a1.93,1.93,0,0,1,.57,1.28c0,.93-1.13,1.68-2.32,1.68-1.56,0-2.09-.89-2.75-1.75l-6.63-8.55-6.64,8.55c-.67.86-1.19,1.75-2.74,1.75-1.2,0-2.33-.75-2.33-1.68a1.89,1.89,0,0,1,.57-1.28Z"/><path class="cls-30" d="M29.67,342.91H13.37A2.17,2.17,0,0,1,11,341.12V332a2.17,2.17,0,0,1,2.37-1.79H32A2.17,2.17,0,0,1,34.41,332v24.25c0,1-.95,1.79-2.37,1.79H29.67c-1.42,0-2.37-.82-2.37-1.79s1-1.79,2.37-1.79Zm0-3.58v-5.59H15.74v5.59Z"/><path class="cls-30" d="M13.37,369.66c-1.24,0-2.37-.51-2.37-1.8s1.13-1.79,2.37-1.79h16.3c2.7,0,4.74,1.54,4.74,3.59v6.86A3.69,3.69,0,0,1,32.57,380a3.72,3.72,0,0,1,1.84,3.47v6.87c0,2-2,3.58-4.74,3.58H13.37c-1.24,0-2.37-.51-2.37-1.79s1.13-1.79,2.37-1.79h16.3v-5.94c0-2-1-2.61-2.37-2.61H18c-1.23,0-2.37-.5-2.37-1.79s1.14-1.79,2.37-1.79H27.3c1.33,0,2.37-.6,2.37-2.61v-5.93Z"/><path class="cls-30" d="M18.06,413.14c-1.23,0-2.37-.5-2.37-1.79s1.14-1.78,2.37-1.78h8.82a3,3,0,0,1,2.08.5,1.76,1.76,0,0,1,.76,1.79v8.58c0,1.15-.66,1.79-2.37,1.79S25,421.59,25,420.44v-7.3Z"/><path class="cls-30" d="M15.74,462.15H32c1.24,0,2.37.5,2.37,1.79s-1.13,1.79-2.37,1.79H11V454.07c0-2.7,1.8-4.05,5.36-4.05H29.67v-8.55H13.37c-1.24,0-2.37-.5-2.37-1.79s1.13-1.79,2.37-1.79H29.11a6.07,6.07,0,0,1,3.83,1,3.28,3.28,0,0,1,1.47,3.19v7.33a3.28,3.28,0,0,1-1.47,3.19,6.06,6.06,0,0,1-3.83,1H15.74Z"/><path class="cls-30" d="M20.43,485.93h8.73a5.91,5.91,0,0,1,3.78,1,3.08,3.08,0,0,1,1.47,3v7.65a3.23,3.23,0,0,1-1.13,2.8c-1.19,1.07-2.42,1.21-4.12,1.21H18.63A8.75,8.75,0,0,1,15.5,501l-1.8-.62c-1.28-.42-2.7-.74-2.7-2a2.14,2.14,0,0,1,2.28-1.79,4.54,4.54,0,0,1,1.51.28l1.42.46a9.27,9.27,0,0,0,2.52.73H29.67V489.5h-14V473.8H32c1.24,0,2.37.5,2.37,1.79s-1.13,1.79-2.37,1.79H20.43Z"/><path class="cls-30" d="M162.51,11.71a3.71,3.71,0,0,1,6.64,0l12.44,27.34c.46,1-1.28,2-3.08,2a3.56,3.56,0,0,1-3.48-2l-2.39-4.85H158.91l-2.45,4.85a3.59,3.59,0,0,1-3.49,2c-1.8,0-3.55-1-3.09-2Zm3.36,7.52h-.12L160.7,30.17h10.13Z"/><path class="cls-30" d="M178.51,74.56a4.71,4.71,0,0,1-1.24,3.88c-2.18,2.3-5.41,3-9.4,3h-3.75c-3.6,0-6.7-.41-9-2.35a4.64,4.64,0,0,1-2-4.07V69.16c0-1.3.91-2,3.23-2s3.23.73,3.23,2V74.4c0,2.34.76,3,4.56,3h3.56c2.7,0,4.38-.24,4.38-2.18V52c0-1.29.9-2,3.22-2s3.23.73,3.23,2Z"/><path class="cls-30" d="M178.51,117.75c1.66,0,3.21.56,3.21,2s-1.55,2-3.21,2H149.88V90.37h28.63c1.66,0,3.21.57,3.21,2s-1.55,2-3.21,2H156.33v9.65h9.47c1.68,0,3.22.56,3.22,2s-1.54,2-3.22,2h-9.47v9.66Z"/><path class="cls-30" d="M175.35,132.78c0-1.29.89-2,3.21-2s3.23.72,3.23,2v29.4h-8.52L156.46,138v-.05h-.13v22.22c0,1.29-.91,2-3.23,2s-3.22-.72-3.22-2v-29.4h8.5l16.82,24.51h.08Z"/><path class="cls-30" d="M156.2,175.12h-2.38c-2.14,0-3.94-.49-3.94-2s1.73-2,3.74-2h10.77c5,0,7.53,1.29,9.73,4l5.66,7.11c1.3,1.65,1.94,2.83,1.94,4.68a7,7,0,0,1-1.87,4.44L174,198.7c-2.25,2.87-5.15,3.8-10.18,3.8H153.1c-1.67,0-3.22-.57-3.22-2s1.55-2,3.22-2h3.1Zm6.45,23.34h1.22c2.7,0,3.35-.2,4.51-1.7l5.67-7.18a4.26,4.26,0,0,0,1.23-2.63c0-1.37-.71-2.14-1.62-3.31l-5.35-6.82c-1.35-1.74-1.93-1.7-4.9-1.7h-.76Z"/><path class="cls-30" d="M172.06,211.44c2.19,0,3.22,1,3.22,2v11.67a9.22,9.22,0,0,1,4.71,1.13,3.29,3.29,0,0,1,1.73,3v9.61c0,2.46-2.45,4-6.44,4H156.33c-4,0-6.45-1.58-6.45-4v-9.61a3.29,3.29,0,0,1,1.73-3,9.26,9.26,0,0,1,4.72-1.13V213.46c0-1.05,1-2,3.23-2Zm3.22,27.38v-9.65H156.33v9.65Zm-6.45-13.69v-9.65h-6.06v9.65Z"/><path class="cls-30" d="M172.06,268.92V257.25c0-1,.76-2,3.22-2s3.23,1,3.23,2v11.67c1.66,0,3.21.56,3.21,2s-1.55,2-3.21,2v8.24c0,1.29-.92,2-3.23,2s-3.22-.73-3.22-2V273h-19V253.82c0-1,.78-2,3.23-2s3.23,1,3.23,2v15.1Z"/><path class="cls-30" d="M156.33,309.28h21.52c3.23,0,3.87.84,3.87,2.7v9c0,1.9-1.28,2.55-4.19,2.55H154.08c-3,0-4.2-.69-4.2-2.55V294.18c0-.93.51-2,2.77-2h3.86c1.68,0,3.05,1,3.05,2,0,1.21-1.37,2-3.23,2Zm0,4v6.22h18.95v-6.22Z"/><path class="cls-30" d="M149.88,332.51h18.05c9.47,0,13.79,3.63,13.79,9.33,0,2.34-.83,4.48-4.25,6.38,3.67,2.18,4.25,4.32,4.25,7.31,0,5.29-5.61,8.4-13.79,8.4H149.88Zm6.45,13.69h11.6c4.64,0,7.35-1.29,7.35-4.36,0-3.4-1.48-5.29-7.35-5.29h-11.6Zm0,13.69h11.6c4.64,0,7.35-1.29,7.35-4.36,0-3.4-1.48-5.29-7.35-5.29h-11.6Z"/><path class="cls-30" d="M175.35,374.93c0-1.29.89-2,3.21-2s3.23.73,3.23,2v29.39h-8.52L156.46,380.1v0h-.13v22.21c0,1.29-.91,2-3.23,2s-3.22-.73-3.22-2v-29.4h8.5l16.82,24.51h.08Z"/><path class="cls-30" d="M178.51,440.6c1.66,0,3.21.57,3.21,2s-1.55,2-3.21,2H149.88V413.22h28.63c1.66,0,3.21.57,3.21,2s-1.55,2-3.21,2H156.33v9.65h9.47c1.68,0,3.22.57,3.22,2s-1.54,2-3.22,2h-9.47v9.64Z"/><path class="cls-30" d="M180.06,464.93a6.62,6.62,0,0,1,1.66,4.48c0,1.94-.83,3.15-2.12,4.8l-5.94,7.44c-1.54,1.93-4.12,3.35-7.86,3.35s-6.32-1.42-7.86-3.35L152,474.21c-1.29-1.65-2.13-2.86-2.13-4.8a6.6,6.6,0,0,1,1.68-4.48l6.44-8a10.82,10.82,0,0,1,15.6,0ZM168,458.83a2.34,2.34,0,0,0-2.2-1.21,2.3,2.3,0,0,0-2.19,1.21l-5.81,7.31a4.76,4.76,0,0,0-1.47,3.27,4,4,0,0,0,1.09,2.67l6.19,7.67a2.6,2.6,0,0,0,4.39,0l6.18-7.67a4.05,4.05,0,0,0,1.1-2.67,4.73,4.73,0,0,0-1.48-3.27Z"/><path class="cls-32" d="M459.6,34.91a5.9,5.9,0,0,1,1.58,3.74c0,3.39-2.57,5.1-5.69,5.1h-9.93A6.67,6.67,0,0,1,441,42.32a5.71,5.71,0,0,1-2.13-4.21,2.44,2.44,0,0,1,2.39-2.71,2.17,2.17,0,0,1,2.12,2.31c0,1.35.73,1.53,2,1.53h9.79c.36,0,1.49.14,1.49-.54,0-.36-.63-1-.81-1.31l-15.48-19.9a5.45,5.45,0,0,1-1.49-3.71,5,5,0,0,1,2.39-4.33A6.05,6.05,0,0,1,445,8.64h9.57a6.4,6.4,0,0,1,4.47,1.49,6.13,6.13,0,0,1,2.12,4.29c0,1.44-.72,2.62-2.36,2.62a2,2,0,0,1-2.16-2.13c0-1.53-.76-1.76-2.16-1.76h-9.57c-.5,0-1.54-.13-1.54.63,0,.41.5,1,.68,1.22Z"/><path class="cls-32" d="M454.41,53.76A2.12,2.12,0,0,1,456.66,56v13a4.64,4.64,0,0,1,3.3,1.27,4.35,4.35,0,0,1,1.22,3.29V84.35a4.21,4.21,0,0,1-4.52,4.52H443.39a4.2,4.2,0,0,1-4.51-4.52V73.61a4.31,4.31,0,0,1,1.22-3.29,4.65,4.65,0,0,1,3.29-1.27V56a2.13,2.13,0,0,1,2.26-2.25Zm2.25,30.59V73.56H443.39V84.35Zm-4.51-15.3V58.27H447.9V69.05Z"/><path class="cls-32" d="M453.58,118V105a2.26,2.26,0,1,1,4.51,0v13a2.26,2.26,0,1,1,0,4.52v9.21a2.26,2.26,0,1,1-4.51,0v-9.21H440.31V101.13a2.26,2.26,0,1,1,4.51,0V118Z"/><path class="cls-32" d="M447,159.28h8.31a4.63,4.63,0,0,1,3.61,1.26,4.48,4.48,0,0,1,1.41,3.85V174a4.81,4.81,0,0,1-1.09,3.52c-1.14,1.36-2.3,1.54-3.93,1.54h-10a6.63,6.63,0,0,1-3-.81l-1.71-.77c-1.23-.54-2.58-1-2.58-2.53a2.28,2.28,0,0,1,2.17-2.25,3.17,3.17,0,0,1,1.44.36l1.35.58a7.87,7.87,0,0,0,2.4.91h10.43V163.8H442.52V144h15.57a2.26,2.26,0,1,1,0,4.51H447Z"/><path class="cls-32" d="M454.71,189.09h5.65V222a2.26,2.26,0,1,1-4.52,0V195.33h-.09l-4.29,6.36v.72c0,1.39-.55,2.71-2.26,2.71S447,203.8,447,202.41v-.72l-4.3-6.36h-.09V222a2.26,2.26,0,1,1-4.51,0V189.09h5.65l5.5,7.95Z"/><path class="cls-32" d="M450.19,269.33c-3.38,0-5.32-1.36-6.77-4.29l-4.14-8.4a10.13,10.13,0,0,1-1.23-4.74,9.79,9.79,0,0,1,1.27-5l4.15-8.35c1.53-3.12,3.48-4.33,6.95-4.33h7.67a2.12,2.12,0,0,1,2.27,2.25,2.15,2.15,0,0,1-2.27,2.26h-7.53c-1.94,0-2.26.19-3.12,1.9l-3.93,7.85a7.07,7.07,0,0,0-.95,3.43,6.37,6.37,0,0,0,.95,3.12l3.84,7.8c.9,1.86,1.35,2,3.39,2h7.35a2.12,2.12,0,0,1,2.27,2.25,2.16,2.16,0,0,1-2.27,2.27Z"/><path class="cls-32" d="M459.17,292a10.24,10.24,0,0,1,1.19,5,11,11,0,0,1-1.5,5.37l-4.15,8.3a5.92,5.92,0,0,1-11,0l-4.16-8.3a11.07,11.07,0,0,1-1.49-5.37,10.23,10.23,0,0,1,1.18-5l4.51-9a5.88,5.88,0,0,1,10.92,0Zm-8.43-6.81c-.36-.72-.59-1.35-1.54-1.35s-1.17.63-1.54,1.35l-4.06,8.17a7.06,7.06,0,0,0-1,3.66,6.14,6.14,0,0,0,.77,3l4.33,8.58c.33.64.64,1.35,1.54,1.35s1.22-.71,1.54-1.35l4.33-8.58a6.14,6.14,0,0,0,.77-3,7,7,0,0,0-1-3.66Z"/><path class="cls-32" d="M446.63,342l-8-13.81a2.89,2.89,0,0,1-.55-1.62,2.24,2.24,0,0,1,2.22-2.13c1.48,0,2,1.13,2.61,2.22l6.32,10.78,6.32-10.78c.63-1.09,1.13-2.22,2.61-2.22a2.25,2.25,0,0,1,2.23,2.13,3,3,0,0,1-.55,1.62l-8,13.81,8,13.82a2.94,2.94,0,0,1,.55,1.62,2.24,2.24,0,0,1-2.23,2.12c-1.48,0-2-1.13-2.61-2.21l-6.32-10.79-6.32,10.79c-.63,1.08-1.13,2.21-2.61,2.21a2.24,2.24,0,0,1-2.22-2.12,2.87,2.87,0,0,1,.55-1.62Z"/><path class="cls-32" d="M442.56,402.41a2.26,2.26,0,1,1-4.51,0V369.55h15a6.61,6.61,0,0,1,5.19,1.85c1.95,1.81,2.13,3.47,2.13,5.92v6.13c0,2.31-.18,3.93-1.86,5.78s-3.62,2.16-6.05,2.16h-9.89Zm0-15.53h10c2.66,0,3.25-.67,3.25-3.24v-6.32c0-2.57-.59-3.26-3.25-3.26h-10Z"/><path class="cls-32" d="M455.84,445.26v-9.11a2.26,2.26,0,1,1,4.52,0v11.38a2.09,2.09,0,0,1-2.27,2.26H440.31a2.27,2.27,0,0,1,0-4.53H447V419.18h-6.64a2.26,2.26,0,0,1,0-4.52h11.15v30.6Z"/><path class="cls-32" d="M454.71,459.78h5.65v32.86a2.26,2.26,0,1,1-4.52,0V466h-.09l-4.29,6.37v.73c0,1.4-.55,2.7-2.26,2.7s-2.25-1.3-2.25-2.7v-.73l-4.3-6.37h-.09v26.64a2.26,2.26,0,1,1-4.51,0V459.78h5.65l5.5,7.94Z"/><path class="cls-33" d="M480.3,429.11a2.11,2.11,0,1,1,0-4.21h14.49a4.12,4.12,0,0,1,4.21,4.21v8.09a4.89,4.89,0,0,1-1.65,4.09,4.87,4.87,0,0,1,1.65,4.08v8.09a4.11,4.11,0,0,1-4.21,4.21H480.3a2.11,2.11,0,1,1,0-4.21h14.49v-7c0-2.36-.93-3.07-2.11-3.07h-8.26a2.1,2.1,0,0,1,0-4.2h8.26c1.18,0,2.11-.73,2.11-3.09v-7Z"/><path class="cls-33" d="M478.19,467.27h18.7a2.11,2.11,0,1,1,0,4.22H482.4V478h10.37a2.12,2.12,0,0,1,0,4.23H482.4v15.73c0,1.35-.58,2.12-2.1,2.12a1.85,1.85,0,0,1-2.11-2.12Z"/><g class="cls-34"><path class="cls-35" d="M496.58,117.84v-7.52c0-.65.57-1.3,2.4-1.3s2.39.65,2.39,1.3v7.52c1.26,0,2.4.37,2.4,1.31s-1.14,1.3-2.4,1.3v5.31c0,.83-.67,1.3-2.39,1.3s-2.4-.47-2.4-1.3v-5.31H482.46V108.11c0-.65.57-1.3,2.4-1.3s2.4.65,2.4,1.3v9.73Z"/><path class="cls-35" d="M497.77,133c1.63,0,2.4.63,2.4,1.3v7.53a7.65,7.65,0,0,1,3.51.73,2.08,2.08,0,0,1,1.29,1.9v6.2c0,1.58-1.82,2.6-4.8,2.6H486.06c-3,0-4.8-1-4.8-2.6v-6.2a2.08,2.08,0,0,1,1.29-1.9,7.71,7.71,0,0,1,3.51-.73v-7.53c0-.67.76-1.3,2.4-1.3Zm2.4,17.66v-6.23H486.06v6.23Zm-4.8-8.83V135.6h-4.51v6.22Z"/><path class="cls-35" d="M500.17,168.45H483.66c-1.34,0-2.4-.63-2.4-1.3v-6.67c0-.67,1.06-1.3,2.4-1.3h18.92c1.34,0,2.39.63,2.39,1.3v17.66c0,.7-1,1.3-2.39,1.3h-2.41c-1.44,0-2.4-.6-2.4-1.3s1-1.31,2.4-1.31Zm0-2.6v-4.06H486.06v4.06Z"/><path class="cls-35" d="M502.58,201.2a2.81,2.81,0,0,1-.91,2.5c-1.64,1.49-4,1.93-7,1.93h-2.79c-2.7,0-5-.26-6.72-1.51a2.86,2.86,0,0,1-1.49-2.63v-3.78c0-.83.67-1.3,2.4-1.3s2.4.47,2.4,1.3v3.39c0,1.51.58,1.92,3.41,1.92h2.63c2,0,3.27-.15,3.27-1.4v-15c0-.83.67-1.3,2.4-1.3s2.41.47,2.41,1.3Z"/><path class="cls-35" d="M495.51,230.51c0,.83-.66,1.3-2.39,1.3s-2.41-.47-2.41-1.3v-8.33l-9.45-6.67v-2.65c0-.83.67-1.3,2.4-1.3s2.4.47,2.4,1.3v1.77l7.06,5,7.05-5v-1.77c0-.83.68-1.3,2.41-1.3s2.39.47,2.39,1.3v2.65l-9.46,6.67Z"/><path class="cls-35" d="M486.06,249.18v7.52c0,.83-.67,1.3-2.4,1.3s-2.4-.47-2.4-1.3V239.05c0-.83.67-1.3,2.4-1.3s2.4.47,2.4,1.3v7.52h14.11v-7.52c0-.83.68-1.3,2.41-1.3s2.39.47,2.39,1.3V256.7c0,.83-.66,1.3-2.39,1.3s-2.41-.47-2.41-1.3v-7.52Z"/><path class="cls-35" d="M503.3,279.09c1,.68,1.67,1.27,1.67,2.16,0,1.95-2.73,2.94-6,2.94H488.36a11.54,11.54,0,0,1-4.85-.83c-1.29-.57-2.25-1.51-2.25-2.42s.86-1.56,2.54-1.56c1.39,0,2.26.62,2.26,1.32s.76.89,2.11.89h10.42c.38,0,1.58.08,1.58-.31,0-.21-.67-.6-.87-.76L482.84,269c-1-.7-1.58-1.22-1.58-2.14s.91-1.92,2.54-2.5a11.29,11.29,0,0,1,4-.46H498a11,11,0,0,1,4.76.86c1.25.6,2.25,1.56,2.25,2.47s-.76,1.51-2.49,1.51c-1.44,0-2.31-.49-2.31-1.22,0-.89-.82-1-2.3-1H487.69c-.53,0-1.63-.08-1.63.36,0,.24.53.55.72.71Z"/><path class="cls-35" d="M486,292.73h-1.78c-1.59,0-2.92-.31-2.92-1.3s1.29-1.31,2.78-1.31h8c3.75,0,5.61.84,7.24,2.61l4.24,4.58a3.78,3.78,0,0,1,0,5.89l-4.36,4.74c-1.69,1.84-3.85,2.44-7.6,2.44h-8c-1.25,0-2.4-.37-2.4-1.3s1.15-1.3,2.4-1.3H486Zm4.8,15h.91c2,0,2.51-.13,3.37-1.1l4.23-4.63a2.61,2.61,0,0,0,.9-1.69c0-.89-.52-1.38-1.2-2.13l-4-4.41c-1-1.12-1.42-1.09-3.63-1.09h-.59Z"/><path class="cls-35" d="M500.2,317.63c0-.83.67-1.3,2.39-1.3s2.41.47,2.41,1.3v19h-6.34L486.12,321v0H486v14.31c0,.84-.68,1.31-2.41,1.31s-2.39-.47-2.39-1.31V316.3h6.33l12.53,15.8h0Z"/><path class="cls-35" d="M486.06,57V58c0,.83-.67,1.3-2.4,1.3s-2.4-.47-2.4-1.3V54.43H505V58c0,.83-.66,1.3-2.39,1.3s-2.41-.47-2.41-1.3V57h-4.66V73.38c0,.84-.66,1.3-2.39,1.3s-2.41-.46-2.41-1.3V57Z"/><path class="cls-35" d="M481.26,80.62h21.32c1.25,0,2.39.36,2.39,1.3s-1.14,1.3-2.39,1.3H486.06v4h11.81c1.24,0,2.4.36,2.4,1.3s-1.16,1.3-2.4,1.3H486.06v9.74c0,.83-.67,1.3-2.4,1.3s-2.4-.47-2.4-1.3Z"/></g><path class="cls-30" d="M296.44,490.16c0,1.82-.8,2.86-2.85,2.86s-2.86-1-2.86-2.86v-18.3l-11.27-14.63V451.4c0-1.83.81-2.86,2.86-2.86s2.86,1,2.86,2.86v3.89l8.41,10.91,8.4-10.91V451.4c0-1.83.8-2.86,2.86-2.86s2.86,1,2.86,2.86v5.83l-11.27,14.63Z"/><path class="cls-36" d="M408,35.22a2.11,2.11,0,0,1-4.21,0V4.55H418c3.33,0,6.66,2.36,6.66,6.11v2.9c0,4-3.29,6-6.66,6h-3.87l9.47,13.56a4.24,4.24,0,0,1,1.06,2.24,2,2,0,0,1-2.15,2,2.23,2.23,0,0,1-1.85-1.18L409,19.54h-1Zm0-19.88h9.35c1.19,0,3-.09,3-1.78v-2.9c0-1.69-1.73-1.9-3-1.9H408Z"/><path class="cls-37" d="M416.31,68.72a2.11,2.11,0,1,1,0-4.21h8.3v8.3c0,4.08-2.73,6.61-6.74,6.61h-7.24a6.42,6.42,0,0,1-4.85-1.69c-1.69-1.51-2-3.07-2-5.18V62A8.57,8.57,0,0,1,406,55.87l5-6.36a6.44,6.44,0,0,1,5.9-2.86h5.64a2.11,2.11,0,1,1,0,4.21h-5.05c-2.32,0-2.15,0-3.54,1.73l-4.59,5.85C408,60.08,408,61.86,408,63.92v8.25c0,2.32.51,3,2.9,3h6.71c1.51,0,2.78-.34,2.78-2.19v-4.3Z"/><path class="cls-38" d="M408,117.31H422.5a2.11,2.11,0,1,1,0,4.21H403.8V107.79c0-3.16,1.6-4.76,4.76-4.76H420.4V93H405.9a2.11,2.11,0,0,1,0-4.21h14a4.45,4.45,0,0,1,3.42,1.18c1.18,1.09,1.3,2.23,1.3,3.74v8.64c0,1.52-.12,2.66-1.3,3.75a4.45,4.45,0,0,1-3.42,1.18H408Z"/><path class="cls-39" d="M418.29,130.85a2,2,0,0,1,2.11,2.1v12.18a4.35,4.35,0,0,1,3.07,1.17,4.07,4.07,0,0,1,1.14,3.08v10a3.92,3.92,0,0,1-4.21,4.22H408a3.92,3.92,0,0,1-4.21-4.22v-10a4.07,4.07,0,0,1,1.14-3.08,4.33,4.33,0,0,1,3.07-1.17V133a2,2,0,0,1,2.11-2.1Zm2.11,28.55V149.33H408V159.4Zm-4.21-14.27V135.06h-4v10.07Z"/><path class="cls-40" d="M405.9,177.15a2.11,2.11,0,0,1,0-4.21h14.5a4.12,4.12,0,0,1,4.21,4.21v8.09a4.87,4.87,0,0,1-1.64,4.09,4.87,4.87,0,0,1,1.64,4.09v8.08a4.12,4.12,0,0,1-4.21,4.21H405.9a2.11,2.11,0,0,1,0-4.21h14.5v-7c0-2.37-.93-3.08-2.11-3.08H410a2.11,2.11,0,1,1,0-4.22h8.26c1.18,0,2.11-.71,2.11-3.07v-7Z"/><path class="cls-41" d="M408,219.25a2.11,2.11,0,1,1-4.21,0v-2.1a2.13,2.13,0,0,1,2.1-2.11h18.71v12.21c0,1.48.05,1.65-1.14,2.66l-5.89,5.1c-1.1,1-1.18,1.05-1.18,2.53v8.17a2.11,2.11,0,0,1-4.22,0V235.56a2.3,2.3,0,0,1,1.1-2.45l5.81-5c1.39-1.22,1.31-1.18,1.31-3v-5.82Z"/><path class="cls-42" d="M408,261.35v1.52c0,1.35-.58,2.1-2.11,2.1a1.83,1.83,0,0,1-2.1-2.1v-5.73h20.81v5.73a2.11,2.11,0,0,1-4.21,0v-1.52h-4.09v26.46a2.11,2.11,0,0,1-4.21,0V261.35Z"/><path class="cls-43" d="M416.31,329.9c0,1.36-.58,2.11-2.11,2.11a1.84,1.84,0,0,1-2.1-2.11V316.42l-8.3-10.78v-4.29a2.11,2.11,0,1,1,4.21,0v2.86l6.19,8,6.2-8v-2.86a2.11,2.11,0,1,1,4.21,0v4.29l-8.3,10.78Z"/><path class="cls-44" d="M416.31,369.89h6.19a2.11,2.11,0,1,1,0,4.22H405.9a2.11,2.11,0,0,1,0-4.22h6.2V345.55h-6.2a2.11,2.11,0,0,1,0-4.21h16.6a2.11,2.11,0,1,1,0,4.21h-6.19Z"/><path class="cls-45" d="M412.06,385.58c.33-1.13.8-2.15,2.14-2.15s1.9,1.05,2.2,2.15l8.13,28.52c.29,1-.85,2.11-2,2.11a2.51,2.51,0,0,1-2.27-2.11l-1.56-5.05h-9l-1.6,5.05a2.52,2.52,0,0,1-2.28,2.11c-1.18,0-2.32-1.1-2-2.11Zm2.19,7.84h-.08l-3.29,11.41h6.61Z"/><path class="cls-46" d="M415.13,458.3c-3.16,0-5-1.26-6.32-4l-3.87-7.83A9.44,9.44,0,0,1,403.8,442a9.19,9.19,0,0,1,1.18-4.67l3.87-7.79c1.44-2.9,3.25-4,6.49-4h7.16a2,2,0,0,1,2.11,2.09,2,2,0,0,1-2.11,2.12h-7c-1.81,0-2.11.17-2.91,1.76l-3.66,7.33A6.53,6.53,0,0,0,408,442a5.91,5.91,0,0,0,.89,2.91l3.58,7.3c.84,1.72,1.26,1.84,3.16,1.84h6.86a2.11,2.11,0,1,1,0,4.21Z"/><path class="cls-30" d="M420.4,467.63a4.23,4.23,0,0,1,4.21,4.22v24.34a4.14,4.14,0,0,1-4.21,4.21H408a4.14,4.14,0,0,1-4.21-4.21V471.85a4.23,4.23,0,0,1,4.21-4.22Zm0,28.56V471.85H408v24.34Z"/><path class="cls-47" d="M298.11,53.91a2.11,2.11,0,0,1,0,4.21H279.4V25.35h18.71a1.94,1.94,0,0,1,2.1,2.11,2,2,0,0,1-2.1,2.11h-14.5V39.63h6.19a2.11,2.11,0,1,1,0,4.21h-6.19V53.91Z"/><path class="cls-47" d="M291.91,98.12a2.11,2.11,0,0,1-4.21,0V84.63l-8.3-10.78v-4.3a2.11,2.11,0,0,1,4.21,0v2.87l6.19,8,6.2-8V69.55a2.11,2.11,0,0,1,4.21,0v4.3l-8.3,10.78Z"/><path class="cls-47" d="M283.61,140.21a2.11,2.11,0,1,1-4.21,0V109.55h14.16c3.32,0,6.65,2.36,6.65,6.11v2.9c0,4-3.28,6-6.65,6h-3.88l9.47,13.56a4.24,4.24,0,0,1,1.06,2.24,2,2,0,0,1-2.15,2,2.27,2.27,0,0,1-1.86-1.18l-11.62-16.6h-1Zm0-19.88H293c1.18,0,3-.08,3-1.77v-2.9c0-1.69-1.73-1.9-3-1.9h-9.4Z"/><path class="cls-47" d="M291.91,173.72a2.11,2.11,0,1,1,0-4.21h8.3v8.29c0,4.09-2.74,6.62-6.74,6.62h-7.25a6.37,6.37,0,0,1-4.84-1.69c-1.68-1.52-2-3.07-2-5.18V167a8.6,8.6,0,0,1,2.19-6.15l5-6.35a6.42,6.42,0,0,1,5.9-2.87h5.65a2.11,2.11,0,0,1,0,4.21h-5.06c-2.32,0-2.15,0-3.54,1.73l-4.59,5.85c-1.31,1.64-1.31,3.42-1.31,5.48v8.25c0,2.32.51,3,2.91,3h6.69c1.52,0,2.79-.34,2.79-2.2v-4.29Z"/><path class="cls-47" d="M283.61,222.31h14.5a2.11,2.11,0,0,1,0,4.21H279.4V212.79c0-3.17,1.6-4.76,4.76-4.76H296V198H281.5a2.11,2.11,0,0,1,0-4.21h14a4.35,4.35,0,0,1,4.72,4.93v8.63c0,1.52-.13,2.66-1.31,3.74a4.44,4.44,0,0,1-3.41,1.19H283.61Z"/><path class="cls-47" d="M293.89,235.85A2,2,0,0,1,296,238v12.18a4.36,4.36,0,0,1,3.08,1.18,4,4,0,0,1,1.13,3.07v10a3.92,3.92,0,0,1-4.21,4.21H283.61a3.92,3.92,0,0,1-4.21-4.21v-10a4,4,0,0,1,1.13-3.07,4.34,4.34,0,0,1,3.08-1.18V238a2,2,0,0,1,2.1-2.1ZM296,264.41V254.34H283.61v10.07Zm-4.22-14.28V240.06h-4v10.07Z"/><path class="cls-47" d="M334.52,59.77a1.52,1.52,0,0,1,1.6,1.61v9.27a3.29,3.29,0,0,1,2.35.91,3.06,3.06,0,0,1,.86,2.33v7.64a3,3,0,0,1-3.21,3.21h-9.43a3,3,0,0,1-3.21-3.21V73.89a3.06,3.06,0,0,1,.86-2.33,3.26,3.26,0,0,1,2.35-.91V61.38a1.52,1.52,0,0,1,1.6-1.61Zm1.6,21.76V73.86h-9.43v7.67Zm-3.21-10.88V63h-3v7.67Z"/><path class="cls-47" d="M325.08,95a1.6,1.6,0,1,1,0-3.2h11a3.13,3.13,0,0,1,3.21,3.2v6.17a3.73,3.73,0,0,1-1.25,3.11,3.73,3.73,0,0,1,1.25,3.11v6.17a3.13,3.13,0,0,1-3.21,3.19h-11a1.6,1.6,0,1,1,0-3.19h11v-5.34c0-1.79-.7-2.33-1.6-2.33h-6.29a1.61,1.61,0,0,1,0-3.22h6.29c.9,0,1.6-.54,1.6-2.34V95Z"/><path class="cls-47" d="M326.69,127.1a1.61,1.61,0,1,1-3.21,0v-1.59a1.63,1.63,0,0,1,1.6-1.61h14.25v9.3c0,1.13,0,1.26-.86,2l-4.5,3.89c-.84.74-.9.81-.9,1.92v6.23a1.6,1.6,0,1,1-3.2,0v-7.73c0-1.06,0-1.16.83-1.86l4.42-3.81c1.07-.94,1-.91,1-2.31V127.1Z"/><path class="cls-47" d="M326.69,159.17v1.16a1.61,1.61,0,1,1-3.21,0V156h15.85v4.37a1.61,1.61,0,1,1-3.21,0v-1.16H333v20.14a1.41,1.41,0,0,1-1.61,1.62c-1.15,0-1.6-.58-1.6-1.62V159.17Z"/><path class="cls-47" d="M333,211.39a1.61,1.61,0,0,1-3.21,0V201.12l-6.32-8.21v-3.27c0-1,.45-1.61,1.6-1.61a1.4,1.4,0,0,1,1.61,1.61v2.19L331.4,198l4.72-6.12v-2.19a1.4,1.4,0,0,1,1.61-1.61c1.15,0,1.6.57,1.6,1.61v3.27L333,201.12Z"/><path class="cls-47" d="M333,241.85h4.72a1.61,1.61,0,0,1,0,3.21H325.08a1.61,1.61,0,0,1,0-3.21h4.72V223.31h-4.72a1.61,1.61,0,0,1,0-3.21h12.65a1.61,1.61,0,0,1,0,3.21H333Z"/><path class="cls-47" d="M329.76,253.8c.27-.86.62-1.64,1.64-1.64s1.44.81,1.67,1.64l6.2,21.72c.22.77-.65,1.61-1.54,1.61a1.92,1.92,0,0,1-1.74-1.61l-1.18-3.86H328l-1.23,3.86a1.92,1.92,0,0,1-1.73,1.61c-.9,0-1.76-.84-1.54-1.61Zm1.68,6h-.07l-2.5,8.71h5Z"/><path class="cls-47" d="M332.11,309.2a4.81,4.81,0,0,1-4.81-3.06l-3-6a7.26,7.26,0,0,1-.86-3.36,6.92,6.92,0,0,1,.9-3.57l2.94-5.94a4.84,4.84,0,0,1,4.95-3.08h5.46a1.5,1.5,0,0,1,1.6,1.6,1.53,1.53,0,0,1-1.6,1.62h-5.36c-1.38,0-1.6.13-2.22,1.34l-2.78,5.59a4.92,4.92,0,0,0-.68,2.44,4.35,4.35,0,0,0,.68,2.21l2.72,5.54c.64,1.32,1,1.41,2.4,1.41h5.24a1.51,1.51,0,0,1,1.6,1.61,1.54,1.54,0,0,1-1.6,1.62Z"/><path class="cls-47" d="M336.12,316.3a3.22,3.22,0,0,1,3.21,3.19v18.56a3.16,3.16,0,0,1-3.21,3.2h-9.43a3.16,3.16,0,0,1-3.21-3.2V319.49a3.21,3.21,0,0,1,3.21-3.19Zm0,21.75V319.49h-9.43v18.56Z"/><path class="cls-47" d="M326.69,370.11h11a1.61,1.61,0,0,1,0,3.21H323.48V362.86c0-2.41,1.22-3.63,3.63-3.63h9v-7.66h-11a1.61,1.61,0,0,1,0-3.22h10.66a3.33,3.33,0,0,1,3.59,3.76v6.58a3.32,3.32,0,0,1-3.59,3.75h-9.05Z"/><path class="cls-47" d="M336.12,402.17v-6.48a1.61,1.61,0,0,1,3.21,0v8.09a1.47,1.47,0,0,1-1.6,1.59H325.08a1.6,1.6,0,1,1,0-3.2h4.72V383.63h-4.72a1.6,1.6,0,1,1,0-3.2H333v21.74Z"/><path class="cls-47" d="M336.12,423.9h-11a1.62,1.62,0,0,1-1.6-1.59V414.1a1.63,1.63,0,0,1,1.6-1.62h12.65a1.64,1.64,0,0,1,1.6,1.62v21.74a1.55,1.55,0,0,1-1.6,1.59h-1.61a1.6,1.6,0,1,1,0-3.2Zm0-3.21v-5h-9.43v5Z"/><path class="cls-47" d="M334.52,444.55a1.51,1.51,0,0,1,1.6,1.61v9.26a3.34,3.34,0,0,1,2.35.91,3.11,3.11,0,0,1,.86,2.35v7.62a3,3,0,0,1-3.21,3.21h-9.43a3,3,0,0,1-3.21-3.21v-7.62a3.11,3.11,0,0,1,.86-2.35,3.3,3.3,0,0,1,2.35-.91v-9.26a1.51,1.51,0,0,1,1.6-1.61Zm1.6,21.75v-7.68h-9.43v7.68Zm-3.21-10.88v-7.66h-3v7.66Z"/><path class="cls-47" d="M325.08,479.83a1.48,1.48,0,0,1-1.6-1.61,1.5,1.5,0,0,1,1.6-1.62h11a3.15,3.15,0,0,1,3.21,3.23V486a3.7,3.7,0,0,1-1.25,3.1,3.81,3.81,0,0,1,1.25,3.14v6.14a3.14,3.14,0,0,1-3.21,3.21h-11a1.61,1.61,0,0,1,0-3.21h11v-5.31c0-1.8-.7-2.35-1.6-2.35h-6.29a1.61,1.61,0,1,1,0-3.21h6.29c.9,0,1.6-.54,1.6-2.33v-5.33Z"/><path class="cls-48" d="M200.15,18.92c.34-1.14.8-2.15,2.15-2.15s1.9,1.05,2.19,2.15l8.12,28.51c.31,1-.83,2.11-2,2.11a2.52,2.52,0,0,1-2.28-2.11l-1.56-5h-9l-1.6,5a2.52,2.52,0,0,1-2.27,2.11c-1.18,0-2.32-1.1-2-2.11Zm2.19,7.83h-.09L199,38.17h6.62Z"/><path class="cls-48" d="M203.22,91.64c-3.15,0-5-1.26-6.31-4L193,79.8a9.52,9.52,0,0,1-1.14-4.42,9.26,9.26,0,0,1,1.18-4.68L197,62.91c1.43-2.9,3.25-4,6.48-4h7.17A2,2,0,0,1,212.7,61a2,2,0,0,1-2.1,2.1h-7c-1.81,0-2.1.17-2.9,1.77L197,72.17a6.57,6.57,0,0,0-.89,3.21,6,6,0,0,0,.89,2.91l3.58,7.28c.84,1.73,1.26,1.86,3.16,1.86h6.87a2.11,2.11,0,0,1,0,4.21Z"/><path class="cls-48" d="M210.6,129.52a2.11,2.11,0,0,1,0,4.21H191.89V101H210.6a2.11,2.11,0,0,1,0,4.22H196.1v10.06h6.2a2.11,2.11,0,1,1,0,4.22h-6.2v10.06Z"/><path class="cls-48" d="M204.41,173.73a1.85,1.85,0,0,1-2.11,2.11c-1.53,0-2.1-.76-2.1-2.11V160.25l-8.31-10.78v-4.29a1.85,1.85,0,0,1,2.11-2.12c1.52,0,2.1.76,2.1,2.12V148l6.2,8,6.19-8v-2.86a1.85,1.85,0,0,1,2.11-2.12c1.51,0,2.1.76,2.1,2.12v4.29l-8.29,10.78Z"/><path class="cls-48" d="M196.1,215.83a2.11,2.11,0,0,1-4.21,0V185.17h14.16c3.33,0,6.65,2.35,6.65,6.1v2.91c0,4-3.28,6-6.65,6h-3.88l9.49,13.56a4.3,4.3,0,0,1,1,2.23,2,2,0,0,1-2.14,2,2.24,2.24,0,0,1-1.86-1.17l-11.63-16.6h-1Zm0-19.89h9.36c1.18,0,3-.07,3-1.76v-2.91c0-1.68-1.73-1.89-3-1.89h-9.4Z"/><path class="cls-48" d="M204.41,249.34a2.11,2.11,0,1,1,0-4.21h8.29v8.29c0,4.08-2.74,6.62-6.74,6.62h-7.24a6.46,6.46,0,0,1-4.85-1.69c-1.68-1.52-2-3.08-2-5.19V242.64a8.63,8.63,0,0,1,2.19-6.15l5-6.36a6.45,6.45,0,0,1,5.91-2.86h5.64a2.11,2.11,0,0,1,0,4.21h-5.06c-2.32,0-2.15,0-3.53,1.72l-4.6,5.86c-1.31,1.64-1.31,3.41-1.31,5.47v8.26c0,2.32.51,3,2.91,3h6.7c1.52,0,2.78-.33,2.78-2.19v-4.29Z"/><path class="cls-48" d="M196.1,297.92h14.5a2.11,2.11,0,0,1,0,4.21H191.89V288.4c0-3.17,1.61-4.76,4.76-4.76h11.84V273.57H194a2.11,2.11,0,1,1,0-4.21h14a4.34,4.34,0,0,1,4.72,4.93v8.64a4.33,4.33,0,0,1-4.72,4.92H196.1Z"/><path class="cls-30" d="M233.57,85.68c.37-1.26.89-2.38,2.38-2.38s2.09,1.16,2.42,2.38l9,31.54c.32,1.12-.94,2.34-2.24,2.34a2.79,2.79,0,0,1-2.52-2.34l-1.73-5.59H231l-1.77,5.59a2.79,2.79,0,0,1-2.52,2.34c-1.3,0-2.56-1.22-2.23-2.34ZM236,94.35h-.09L232.26,107h7.32Z"/></g><g id="Слой_4" data-name="Слой 4"><path class="cls-49" d="M490.16,34.51a1.57,1.57,0,0,1,0,3.14H476.24V13.26h13.92a1.44,1.44,0,0,1,1.57,1.56,1.44,1.44,0,0,1-1.57,1.57H479.38v7.49H484a1.45,1.45,0,0,1,1.57,1.57A1.45,1.45,0,0,1,484,27h-4.61v7.49Z"/><path class="cls-49" d="M485.56,67.42a1.57,1.57,0,0,1-3.14,0v-10l-6.18-8v-3.2a1.57,1.57,0,0,1,3.14,0v2.13l4.61,6,4.61-6V46.16a1.57,1.57,0,1,1,3.13,0v3.2l-6.17,8Z"/><path class="cls-49" d="M479.38,98.75a1.57,1.57,0,0,1-3.14,0V75.93h10.54a4.73,4.73,0,0,1,5,4.55v2.16c0,3-2.44,4.45-5,4.45H483.9L491,97.19a3.16,3.16,0,0,1,.78,1.66,1.5,1.5,0,0,1-1.6,1.47,1.67,1.67,0,0,1-1.38-.88L480.1,87.09h-.72Zm0-14.79h7c.88,0,2.26-.07,2.26-1.32V80.48c0-1.26-1.29-1.42-2.23-1.42h-7Z"/><path class="cls-49" d="M485.56,123.69a1.57,1.57,0,1,1,0-3.13h6.17v6.18a4.66,4.66,0,0,1-5,4.92h-5.39a4.75,4.75,0,0,1-3.6-1.26,4.51,4.51,0,0,1-1.48-3.85v-7.84a6.38,6.38,0,0,1,1.63-4.57l3.71-4.74a4.77,4.77,0,0,1,4.38-2.13h4.2a1.57,1.57,0,1,1,0,3.13H486.4c-1.72,0-1.59,0-2.63,1.29L480.35,116c-1,1.23-1,2.54-1,4.08v6.15c0,1.72.38,2.25,2.16,2.25h5c1.13,0,2.07-.25,2.07-1.63v-3.2Z"/><path class="cls-49" d="M479.38,159.86h10.78a1.57,1.57,0,1,1,0,3.13H476.24V152.77c0-2.35,1.19-3.54,3.54-3.54h8.82v-7.49H477.81a1.57,1.57,0,1,1,0-3.14h10.41a3.23,3.23,0,0,1,3.51,3.67v6.43a3.29,3.29,0,0,1-1,2.79,3.33,3.33,0,0,1-2.54.88h-8.84Z"/><path class="cls-49" d="M487,169.94a1.48,1.48,0,0,1,1.57,1.57v9.06a3.21,3.21,0,0,1,2.29.88,3,3,0,0,1,.84,2.28v7.46a2.91,2.91,0,0,1-3.13,3.14h-9.22a2.92,2.92,0,0,1-3.14-3.14v-7.46a3,3,0,0,1,.85-2.28,3.21,3.21,0,0,1,2.29-.88v-9.06a1.48,1.48,0,0,1,1.57-1.57Zm1.57,21.25v-7.5h-9.22v7.5Zm-3.14-10.62v-7.5h-2.95v7.5Z"/><path class="cls-49" d="M477.81,204.4a1.56,1.56,0,1,1,0-3.12H488.6a3.06,3.06,0,0,1,3.13,3.12v6a3.63,3.63,0,0,1-1.22,3,3.65,3.65,0,0,1,1.22,3v6a3.06,3.06,0,0,1-3.13,3.12H477.81a1.56,1.56,0,1,1,0-3.12H488.6v-5.22c0-1.76-.69-2.28-1.57-2.28h-6.15a1.57,1.57,0,0,1,0-3.13H487c.88,0,1.57-.54,1.57-2.29V204.4Z"/><path class="cls-49" d="M479.38,235.75a1.57,1.57,0,0,1-3.14,0v-1.57a1.59,1.59,0,0,1,1.57-1.57h13.92v9.09c0,1.1,0,1.23-.84,2l-4.4,3.79c-.81.73-.87.79-.87,1.88v6.09a1.36,1.36,0,0,1-1.56,1.56c-1.14,0-1.58-.56-1.58-1.56v-7.56a1.71,1.71,0,0,1,.82-1.82l4.33-3.74c1-.89,1-.87,1-2.24v-4.33Z"/><path class="cls-30" d="M100.89,3.05A2,2,0,0,1,103,5.16V17.33a4.38,4.38,0,0,1,3.08,1.17,4.12,4.12,0,0,1,1.13,3.08v10A3.92,3.92,0,0,1,103,35.82H90.61a3.92,3.92,0,0,1-4.21-4.21v-10a4.09,4.09,0,0,1,1.14-3.08,4.35,4.35,0,0,1,3.07-1.17V5.16a2,2,0,0,1,2.11-2.11ZM103,31.61V21.54H90.61V31.61ZM98.79,17.33V7.26h-4V17.33Z"/><path class="cls-50" d="M90.61,73.89h14.5a2.11,2.11,0,0,1,0,4.21H86.4V64.37c0-3.17,1.61-4.77,4.76-4.77H103V49.54H88.51a2.11,2.11,0,1,1,0-4.21h14a4.4,4.4,0,0,1,3.4,1.17c1.19,1.1,1.31,2.23,1.31,3.75v8.64c0,1.51-.12,2.66-1.31,3.76a4.47,4.47,0,0,1-3.4,1.17H90.61Z"/><path class="cls-51" d="M106.11,99.45a9.38,9.38,0,0,1,1.1,4.67,10.29,10.29,0,0,1-1.39,5L102,116.88a5.53,5.53,0,0,1-10.28,0l-3.87-7.76a10.19,10.19,0,0,1-1.4-5,9.49,9.49,0,0,1,1.1-4.67l4.21-8.4a5.49,5.49,0,0,1,10.19,0Zm-7.87-6.37c-.34-.67-.55-1.26-1.43-1.26s-1.1.59-1.43,1.26l-3.8,7.62a6.55,6.55,0,0,0-1,3.42,5.56,5.56,0,0,0,.73,2.77l4,8c.3.6.59,1.27,1.43,1.27s1.14-.67,1.43-1.27l4-8a5.66,5.66,0,0,0,.72-2.77,6.64,6.64,0,0,0-1-3.42Z"/><path class="cls-52" d="M285.61,231.69a4,4,0,0,0-3.69,4.21v24.35c0,2.36,1.58,4.21,3.69,4.21h10.84c2.1,0,3.68-1.85,3.68-4.21V235.9a4,4,0,0,0-3.68-4.21Zm0,28.56V235.9h10.84v24.35Z"/><path class="cls-52" d="M293.13,290.36l6.56-12.89a3,3,0,0,0,.44-1.52,2,2,0,0,0-1.8-2c-1.23,0-1.63,1-2.14,2.06L291,286.1,285.87,276c-.52-1-.92-2.06-2.14-2.06a2,2,0,0,0-1.81,2,3.1,3.1,0,0,0,.44,1.52l6.56,12.89-6.56,12.89a3,3,0,0,0-.44,1.51,2,2,0,0,0,1.81,2c1.22,0,1.62-1.05,2.14-2.07L291,294.61l5.16,10.06c.51,1,.91,2.07,2.14,2.07a2,2,0,0,0,1.8-2,2.91,2.91,0,0,0-.44-1.51Z"/><path class="cls-52" d="M285.61,331.24h12.68a2,2,0,0,0,1.84-2.11V318.35a2,2,0,0,0-1.84-2.11H283.77a2,2,0,0,0-1.85,2.11v28.56a2,2,0,0,0,1.85,2.11h1.84a1.94,1.94,0,0,0,1.84-2.11,1.9,1.9,0,0,0-1.84-2.11Zm0-4.21v-6.57h10.84V327Z"/><path class="cls-52" d="M298.29,362.73c.95,0,1.84-.58,1.84-2.09s-.89-2.12-1.84-2.12H285.61c-2.11,0-3.69,1.82-3.69,4.21v8.09a5.27,5.27,0,0,0,1.44,4.09,5.26,5.26,0,0,0-1.44,4.08v8.09c0,2.4,1.58,4.21,3.69,4.21h12.68c.95,0,1.84-.58,1.84-2.1s-.89-2.11-1.84-2.11H285.61v-7c0-2.36.81-3.07,1.84-3.07h7.23c1,0,1.83-.6,1.83-2.11s-.87-2.11-1.83-2.11h-7.23c-1,0-1.84-.72-1.84-3.07v-7Z"/><path class="cls-52" d="M294.64,413.94c1,0,1.85-.59,1.85-2.1s-.89-2.1-1.85-2.1h-6.85a1.82,1.82,0,0,0-1.63.58,2.62,2.62,0,0,0-.59,2.11v10.11c0,1.35.52,2.1,1.84,2.1s1.85-.75,1.85-2.1v-8.6Z"/><path class="cls-52" d="M296.45,471.63H283.77c-1,0-1.85.6-1.85,2.11s.89,2.11,1.85,2.11h16.36V462.12c0-3.16-1.4-4.76-4.16-4.76H285.61V447.29h12.68c.95,0,1.84-.59,1.84-2.1s-.89-2.11-1.84-2.11H286.06a3.62,3.62,0,0,0-3,1.18,4.82,4.82,0,0,0-1.14,3.75v8.63a4.82,4.82,0,0,0,1.14,3.75,3.62,3.62,0,0,0,3,1.18h10.39Z"/><path class="cls-30" d="M359.73,28.65h11.9v3.19h-11.9q0,10.15-9.14,15.23l-2.32-2.32q8.26-4.64,8.13-12.91H341.89V28.65H356.4V23.14q-4.06.43-10.59.72l-1.31-3.05q14.07-.28,21.62-2.61l1.59,3.05c.29.68-.14.77-1.3.29a60.3,60.3,0,0,1-6.68,1.16Z"/><path class="cls-30" d="M373.23,69.18l-13.5,1.45,2.76,11.75-3.19.72-2.76-12-14.8,1.74-.43-3,14.51-1.6-1.45-6.82L344.5,62.5l-.58-3,9.57-1L352,51.77l3-.58c.87-.1,1,.24.44,1L356.69,58l10.59-1.45.58,3-10.3,1.31L359,67.73l13.63-1.6Z"/><path class="cls-30" d="M372.79,96.69q-7.69,16-25.82,16.83c-.49,1.26-1,1.35-1.45.29L344.35,110q18.87-.44,25.39-15.53Zm-27.85-6,2.46-3a53.58,53.58,0,0,1,7.69,6.24l-2.76,2.76A60.39,60.39,0,0,0,344.94,90.74Z"/><path class="cls-30" d="M371.48,143.4l-2.9,2.47a106.32,106.32,0,0,0-11.75-10.74A70.32,70.32,0,0,1,343.92,146l-2.76-2.46q15.38-10,19.73-20l-15.81,1-.43-3.48,16.82-.72,1.74-.44,2.33,2.32c.67.68.48,1.12-.58,1.31a88.52,88.52,0,0,1-5.81,8.85A116.58,116.58,0,0,1,371.48,143.4Z"/><path class="cls-30" d="M358.57,151.38V183h-3.33V150.22h3.19C359.39,150.42,359.44,150.8,358.57,151.38Z"/><path class="cls-30" d="M344.5,195.63v-3.19H366l3.77,2.76q-.72,17.55-19.87,22.92l-2.61-3.19q18.14-4.22,19-19.3Zm23.07-3a4.06,4.06,0,0,1,2.9-7,4.06,4.06,0,1,1,0,8.12A3.9,3.9,0,0,1,367.57,192.58Zm4.78-1a2.67,2.67,0,1,0-4.49-1.89,2.67,2.67,0,0,0,4.49,1.89Z"/><path class="cls-30" d="M275.49,347.73a51.54,51.54,0,0,1,4.59,3.18c-.23.24-.65.75-1.27,1.55q-1.76-1.5-4.47-3.39Zm2.17,6.76c.66.3,1.3.57,1.93.82-.74,2.56-1.66,5.58-2.75,9l-2-.75A82.52,82.52,0,0,0,277.66,354.49Zm-1.2-12.64q2.61,1.78,4.64,3.39c-.51.58-.94,1.09-1.32,1.53-1.74-1.49-3.23-2.69-4.47-3.58Zm15.4,2.73h-9.54v-1.7h13v1.72L285,350.44H296.8q-.21,5.7-.45,9.16a6.36,6.36,0,0,1-.94,3.53,3.73,3.73,0,0,1-3,1c-.66,0-1.62,0-2.87-.07-.11-.67-.26-1.36-.43-2.05a22.39,22.39,0,0,0,3.34.26c1.21,0,1.87-.67,2-2,.21-2.17.36-4.88.47-8.12H292q-1.26,8.43-7.61,12.5a9.36,9.36,0,0,0-1.25-1.56,14.71,14.71,0,0,0,7-10.94h-3a15.92,15.92,0,0,1-6.92,9.79c-.38-.47-.8-1-1.27-1.46a14.45,14.45,0,0,0,6.37-8.33h-3.59v-1.79Z"/><path class="cls-30" d="M278.56,322.28q1.53,2.28,3.15,4.75a28.77,28.77,0,0,0,1.63-6.68h-6.45v-1.68h8.21v1.68a30.75,30.75,0,0,1-2.23,8.47q1.42,2.24,3,4.61l-1.55,1.06q-1.2-2-2.31-3.81a26,26,0,0,1-4.42,6.1,9.7,9.7,0,0,0-1.09-1.51,23.47,23.47,0,0,0,4.43-6.33c-1.37-2.18-2.63-4.11-3.79-5.77Zm7.86,10H296v1.6h-9.61Zm2.47-12.29V328H299q-.07,4.1-.23,6.8c-.13,2.5-1.5,3.74-4.13,3.74h-4.35a15.35,15.35,0,0,0-.4-1.93,43.9,43.9,0,0,0,4.64.17c1.55,0,2.38-.68,2.49-2,.13-1.55.21-3.25.24-5.11H287.2V318.3h2.63a18.57,18.57,0,0,0,.85-2.55l1.89.5c-.24.56-.55,1.25-.92,2.05h6.1c0,2.05-.05,3.86-.1,5.41-.06,2.07-1,3.11-2.89,3.11-1,0-2,0-3.16-.05-.09-.63-.22-1.28-.38-2a20.24,20.24,0,0,0,3.23.29c.94,0,1.44-.51,1.48-1.53s.1-2.32.1-3.61Zm1.42,1.79,1.22-1.08c.57.52,1.35,1.3,2.35,2.33l-1.36,1.13C291.66,323.11,290.92,322.31,290.31,321.73Z"/><path class="cls-53" d="M110.65,185.11v2.32H95.06v9h-2.5v-9H77.32v-2.32H92.56v-4.68H81.2V164.76h25.28v15.67H95.75c-.07.18-.29.33-.69.4v4.28ZM83.6,167v4.54H104V167Zm0,6.64v4.57H104v-4.57Z"/><path class="cls-53" d="M94,228.36h16.47v2.47h-33v-2.47h14V199.45l3.3.22c0,.26-.25.44-.76.51v10.74H107.9v2.46H94Z"/><path class="cls-53" d="M89.65,242.71l1.38.36-.21.51c-.51,6.42-1.67,11.57-3.49,15.6a25.6,25.6,0,0,1,4.28,3.95l-1.48,2a26.16,26.16,0,0,0-3.89-3.78,19.49,19.49,0,0,1-7.18,7.58,9.91,9.91,0,0,0-1.52-2,17.14,17.14,0,0,0,6.82-7.07,48.58,48.58,0,0,0-4.14-2.8l-.43,1.6-2.07-1.09c.91-3.19,2-7.8,3.08-12.48H77.18v-2.28h4.13c.58-2.72,1.09-5.33,1.53-7.65l3,.36c0,.25-.25.4-.73.43-.39,2.07-.9,4.43-1.45,6.86h5.59Zm-6.52,2.39c-.77,3.38-1.6,6.79-2.36,9.76,1.52.84,3.08,1.85,4.6,2.87a42.51,42.51,0,0,0,3-12.63Zm27.67,6.24v2.36h-8.74v12c0,2.8-1.09,3.23-7.51,3.16a12,12,0,0,0-.91-2.43c1.75,0,3.34.08,4.36.08,1.23,0,1.59,0,1.59-.77v-12H90.71v-2.36h8.88v-6.16l1.2.07a36.89,36.89,0,0,0,5.37-5.91h-14v-2.29H108l.47-.14,1.92,1.19a1.07,1.07,0,0,1-.58.37,46.5,46.5,0,0,1-7.76,8.37v4.5Z"/></g></g></svg>