<?xml version="1.0" encoding="UTF-8" standalone="no"?>
<svg
   xmlns:dc="http://purl.org/dc/elements/1.1/"
   xmlns:cc="http://creativecommons.org/ns#"
   xmlns:rdf="http://www.w3.org/1999/02/22-rdf-syntax-ns#"
   xmlns:svg="http://www.w3.org/2000/svg"
   xmlns="http://www.w3.org/2000/svg"
   xmlns:sodipodi="http://sodipodi.sourceforge.net/DTD/sodipodi-0.dtd"
   xmlns:inkscape="http://www.inkscape.org/namespaces/inkscape"
   version="1.1"
   id="Слой_1"
   x="0px"
   y="0px"
   viewBox="0 0 200.00003 307.68732"
   xml:space="preserve"
   sodipodi:docname="matrixHeadBack.svg"
   width="200.00003"
   height="307.68732"
   inkscape:version="1.0.2-2 (e86c870879, 2021-01-15)"><metadata
   id="metadata1073"><rdf:RDF><cc:Work
       rdf:about=""><dc:format>image/svg+xml</dc:format><dc:type
         rdf:resource="http://purl.org/dc/dcmitype/StillImage" /></cc:Work></rdf:RDF></metadata><defs
   id="defs1071" /><sodipodi:namedview
   pagecolor="#ffffff"
   bordercolor="#666666"
   borderopacity="1"
   objecttolerance="10"
   gridtolerance="10"
   guidetolerance="10"
   inkscape:pageopacity="0"
   inkscape:pageshadow="2"
   inkscape:window-width="3840"
   inkscape:window-height="2050"
   id="namedview1069"
   showgrid="false"
   inkscape:zoom="2.1252372"
   inkscape:cx="154.00001"
   inkscape:cy="237.14999"
   inkscape:window-x="-12"
   inkscape:window-y="-12"
   inkscape:window-maximized="1"
   inkscape:current-layer="Слой_1"
   inkscape:document-rotation="0" />
<style
   type="text/css"
   id="style1064">
	.st0{fill:#020001;}
</style>
<path
   class="st0"
   d="m 198.70256,151.92994 c -0.77846,-2.01103 -2.01103,-3.95719 -4.08693,-4.80052 -1.62179,-0.51898 -3.30846,-0.38923 -4.86539,0.32436 -0.32436,0.12974 -0.58384,0.25949 -0.84333,0.4541 l 1.16769,-6.87642 v -1.88128 C 202.40026,82.517029 185.72819,50.08109 185.72819,50.08109 165.29355,0.19461563 91.339604,0 91.339604,0 77.067791,6.6818034 68.958806,14.077198 64.482647,19.656179 63.833928,19.915667 63.185209,20.175154 62.53649,20.434642 57.995459,18.747973 50.859552,16.607201 46.448265,17.839766 l -32.890042,26.59747 c 0,0 -7.5251383,39.831334 -3.373338,71.553684 l -0.583847,25.17029 1.751541,8.10898 c -1.232566,-0.58385 -2.5948755,-0.9082 -3.9571849,-0.97308 -2.0759001,0.12975 -3.9571846,1.23257 -5.0600065,2.98411 C 1.621797,152.38404 1.03795,153.61661 0.71359066,154.91404 0.32435939,155.95199 0.06487188,157.05482 0,158.15764 c 0,0.51897 0.12974376,1.03795 0.19461563,1.55692 0.38923127,2.91924 0.77846254,5.7736 1.29743757,8.62796 1.4920532,8.82258 3.5679533,17.64515 7.2007785,25.75414 1.6866683,3.76257 3.7625693,7.52514 6.6818033,10.44437 1.232566,1.29744 2.724619,2.33539 4.346416,3.11385 0.454103,0.19462 1.03795,0.51898 1.621797,0.64872 1.167694,7.20078 2.270516,14.46643 3.438209,21.66721 0.06487,0.32436 0.129744,0.64872 0.129744,0.97308 0,0.12974 0.06487,0.32436 0.06487,0.4541 0.06487,0.51897 0.129744,0.97308 0.194616,1.49205 0.129743,0.97308 0.324359,1.94616 0.583847,2.85436 1.362309,5.12488 3.178722,10.05515 5.384365,14.85566 2.335388,5.25463 5.124879,10.24976 8.238729,15.05028 2.984106,4.54103 6.616932,8.62796 10.249757,12.65002 4.346416,4.80052 8.822575,9.47129 13.428478,13.94745 3.308466,3.24359 6.746676,6.55206 10.768732,9.08206 3.632825,2.27052 7.784626,3.56796 11.936426,4.54103 2.011028,0.58385 4.086928,0.97308 6.2277,1.23257 l 5.124878,0.32436 3.503081,0.25949 c 0.32436,0 0.58385,-0.0649 0.77847,-0.12975 2.59487,-0.19461 5.25462,-0.32436 7.84949,-0.51897 2.14077,-0.25949 4.28155,-0.71359 6.42232,-1.29744 2.20564,-0.51897 4.34641,-1.16769 6.42231,-1.94616 3.82745,-1.55692 7.33053,-3.69769 10.3795,-6.42231 4.41129,-3.89231 8.56309,-7.97924 12.58515,-12.26079 4.34642,-4.54103 8.62796,-9.14693 12.58514,-14.01232 3.2436,-4.08693 6.09796,-8.43335 8.49822,-13.03925 2.72462,-5.06001 5.12488,-10.31463 7.13591,-15.69899 0.84333,-2.27052 1.55692,-4.60591 2.14077,-6.94129 0.19461,-0.84334 0.38923,-1.75155 0.51897,-2.59488 0.0649,-0.51897 0.12975,-0.97308 0.19462,-1.49205 0,-0.25949 0.0649,-0.64872 0.0649,-0.51898 1.23257,-8.88745 2.72462,-17.71002 4.1518,-26.5326 0.64872,0.12975 1.36231,-0.0649 2.01103,-0.32436 1.68667,-0.64871 3.24359,-1.55692 4.6059,-2.78949 2.78949,-2.53 4.73565,-5.90334 6.2277,-9.34155 3.37334,-7.71975 4.93027,-16.15309 5.90334,-24.45669 0.32436,-2.7895 0.58385,-5.64386 0.77847,-8.49822 0.0649,-0.64872 0.12974,-1.36231 0.12974,-2.01103 -0.19462,-1.68667 -0.64872,-3.37334 -1.29744,-4.93026 z"
   id="path1066"
   style="stroke-width:0.648719" />
</svg>
