<?xml version="1.0" encoding="UTF-8" standalone="no"?>
<svg
   xmlns:dc="http://purl.org/dc/elements/1.1/"
   xmlns:cc="http://creativecommons.org/ns#"
   xmlns:rdf="http://www.w3.org/1999/02/22-rdf-syntax-ns#"
   xmlns:svg="http://www.w3.org/2000/svg"
   xmlns="http://www.w3.org/2000/svg"
   xmlns:sodipodi="http://sodipodi.sourceforge.net/DTD/sodipodi-0.dtd"
   xmlns:inkscape="http://www.inkscape.org/namespaces/inkscape"
   viewBox="0 0 200 307.78885"
   version="1.1"
   id="svg1231"
   sodipodi:docname="matrixHead.svg"
   width="200"
   height="307.78885"
   inkscape:version="1.0.2-2 (e86c870879, 2021-01-15)">
  <metadata
     id="metadata1235">
    <rdf:RDF>
      <cc:Work
         rdf:about="">
        <dc:format>image/svg+xml</dc:format>
        <dc:type
           rdf:resource="http://purl.org/dc/dcmitype/StillImage" />
      </cc:Work>
    </rdf:RDF>
  </metadata>
  <sodipodi:namedview
     pagecolor="#ffffff"
     bordercolor="#666666"
     borderopacity="1"
     objecttolerance="10"
     gridtolerance="10"
     guidetolerance="10"
     inkscape:pageopacity="0"
     inkscape:pageshadow="2"
     inkscape:window-width="3840"
     inkscape:window-height="2050"
     id="namedview1233"
     showgrid="false"
     inkscape:zoom="2.1251924"
     inkscape:cx="154.08"
     inkscape:cy="237.155"
     inkscape:window-x="-12"
     inkscape:window-y="-12"
     inkscape:window-maximized="1"
     inkscape:current-layer="svg1231" />
  <defs
     id="defs1158">
    <style
       id="style1156">.cls-1{fill:#ebd0b5;}.cls-2{fill:#231f20;}.cls-3{fill:#b8a091;}.cls-4,.cls-7,.cls-8{fill:none;}.cls-4{stroke:#231f20;stroke-linecap:round;stroke-linejoin:round;stroke-width:3.94px;}.cls-5{fill:#020202;}.cls-6{fill:#020001;}.cls-7,.cls-8{stroke:#020001;stroke-miterlimit:10;}.cls-7{stroke-width:5.91px;}.cls-8{stroke-width:7.88px;}</style>
  </defs>
  <g
     id="Слой_2"
     data-name="Слой 2"
     transform="scale(0.64895032)">
    <g
       id="Слой_6"
       data-name="Слой 6">
      <path
         class="cls-1"
         d="m 284.39,237.3 c 0,0 16.69,-22.1 21.32,3.91 0,0 -1.91,64.62 -27,71.16 -1.22,0.32 -0.31,-6.28 -0.2,-7.39 0.44,-4.13 0.44,-8.34 0.78,-12.49 1,-12.17 1.71,-24.36 2.94,-36.51 0.64,-6.24 1.28,-12.47 2.19,-18.68"
         id="path1160" />
      <path
         class="cls-2"
         d="m 286.51,238.54 c 0.17,-0.22 -0.53,0.66 -0.24,0.32 0.14,-0.16 0.27,-0.33 0.4,-0.5 0.42,-0.5 0.86,-1 1.3,-1.49 0.65,-0.7 1.33,-1.38 2,-2 0.36,-0.33 0.72,-0.65 1.08,-1 l 0.61,-0.5 c -0.51,0.41 0.19,-0.13 0.34,-0.24 a 17.91,17.91 0 0 1 2.83,-1.66 c -0.49,0.22 -0.06,0 0.19,-0.07 0.25,-0.07 0.46,-0.16 0.7,-0.22 0.24,-0.06 0.48,-0.09 0.7,-0.16 0.38,-0.13 -0.1,0 -0.18,0 h 0.46 0.7 c 0.54,0 -0.45,-0.17 0.19,0 l 0.68,0.19 c 0.18,0.05 0.47,0.25 -0.06,0 a 4.64,4.64 0 0 1 0.44,0.23 c 0.19,0.12 0.39,0.24 0.57,0.38 -0.51,-0.37 0.15,0.15 0.27,0.27 a 7.68,7.68 0 0 1 0.61,0.67 c -0.3,-0.36 0.28,0.41 0.39,0.58 a 16.12,16.12 0 0 1 1.92,4.58 c 0.31,1.1 0.52,2.22 0.78,3.34 0.14,0.6 0,-0.27 0,0.05 0,0.71 -0.06,1.42 -0.1,2.12 -0.19,3.67 -0.5,7.33 -0.88,11 q -0.43,4.08 -0.92,7.4 c -0.42,2.92 -0.9,5.82 -1.46,8.72 a 126,126 0 0 1 -4.7,17.92 59.8,59.8 0 0 1 -3.28,7.79 c -0.63,1.25 -1.3,2.46 -2,3.65 -0.32,0.52 -0.66,1 -1,1.55 -0.2,0.3 -0.4,0.59 -0.61,0.88 -0.21,0.29 -0.68,0.9 -0.37,0.51 a 27.73,27.73 0 0 1 -2.5,2.81 c -0.4,0.39 -0.8,0.76 -1.23,1.12 -0.24,0.21 -0.49,0.42 -0.74,0.61 0.46,-0.35 -0.28,0.19 -0.42,0.3 a 20.63,20.63 0 0 1 -2.93,1.66 c -0.55,0.26 0.35,-0.13 0,0 l -0.43,0.16 -0.7,0.25 c -1.55,0.5 0,-0.43 1.53,1.22 0,0 0.28,0.65 0.11,0.25 -0.17,-0.4 0,0.52 0,0 0,-3.37 0.5,-6.68 0.7,-10 0.35,-6 0.75,-12 1.2,-18 0.91,-12.17 1.83,-24.34 3.21,-36.48 0.32,-2.9 0.68,-5.79 1.1,-8.67 a 2.54,2.54 0 0 0 -1.72,-3 2.47,2.47 0 0 0 -3,1.72 c -1.88,12.95 -3,26 -3.94,39.06 -0.48,6.39 -1.08,12.78 -1.44,19.18 -0.18,3.13 -0.24,6.26 -0.54,9.38 -0.13,1.43 -0.33,2.86 -0.43,4.3 -0.1,1.44 -0.29,3.49 0.54,4.88 1.09,1.84 3.06,1.42 4.73,0.79 a 22.18,22.18 0 0 0 7.07,-4.32 c 4.34,-3.86 7.35,-9.12 9.64,-14.38 5.18,-11.9 7.58,-24.87 9.15,-37.68 0.53,-4.35 0.94,-8.72 1.2,-13.1 0.07,-1 0.15,-2.09 0.16,-3.13 a 21,21 0 0 0 -1.83,-7.61 c -1.24,-3.1 -3.1,-6.12 -6.33,-7.39 a 9.64,9.64 0 0 0 -7.46,0.53 c -3.72,1.64 -6.9,4.73 -9.44,7.84 -0.28,0.35 -0.56,0.7 -0.83,1.06 a 2.48,2.48 0 0 0 0.88,3.37 2.52,2.52 0 0 0 3.37,-0.89 z"
         id="path1162" />
      <path
         class="cls-1"
         d="m 25.72,239.85 c 0,0 -18.64,-22.11 -23.26,3.91 0,0 6.76,68.62 31.88,75.16 1.22,0.32 0.31,-10.28 0.19,-11.39 -0.44,-4.14 -2.37,-8.34 -2.71,-12.49 -1,-12.17 -2.69,-24.36 -3.92,-36.52 -0.63,-6.23 -1.28,-12.47 -2.18,-18.67"
         id="path1164" />
      <path
         class="cls-2"
         d="m 27.46,238.11 a 34,34 0 0 0 -8.24,-7.11 14.57,14.57 0 0 0 -7.76,-2.41 9.88,9.88 0 0 0 -7.82,4.59 19.77,19.77 0 0 0 -2.54,5.57 18,18 0 0 0 -1.1,5 c 0,0.79 0.18,1.62 0.27,2.41 q 0.83,6.69 2,13.33 c 2.33,13.59 5.55,27.15 11.13,39.71 2.58,5.8 5.79,11.56 10.32,16.06 a 23.33,23.33 0 0 0 6.7,4.83 c 1.28,0.59 3.23,1.61 4.68,1.21 1.88,-0.53 2.18,-2.54 2.29,-4.19 A 58.39,58.39 0 0 0 37,308 a 44.66,44.66 0 0 0 -1.65,-7.76 54.53,54.53 0 0 1 -1.5,-9.59 c -1.29,-13.66 -2.93,-27.3 -4.46,-40.93 -0.39,-3.5 -0.83,-7 -1.34,-10.48 a 2.48,2.48 0 0 0 -3,-1.72 2.53,2.53 0 0 0 -1.72,3 c 0.94,6.48 1.57,13 2.25,19.5 0.68,6.5 1.49,13.16 2.23,19.74 0.37,3.29 0.73,6.58 1.05,9.87 A 71,71 0 0 0 30,299 c 0.66,2.83 1.74,5.62 2.07,8.52 0.12,1 0.18,2.06 0.25,3.1 0.1,1.64 0.19,3.29 0.18,4.94 a 20,20 0 0 1 -0.09,2 c 0.08,-0.78 0,0.13 0,0.12 0.13,0 -0.76,1 0.13,-0.27 a 1.32,1.32 0 0 1 1.31,-0.69 q 1.61,-0.19 0.84,-0.36 a 13.81,13.81 0 0 0 -1.68,-0.58 c 0.51,0.21 0,0 -0.23,-0.11 -0.23,-0.11 -0.64,-0.31 -1,-0.49 a 15,15 0 0 1 -1.48,-0.9 l -0.69,-0.47 c -0.08,-0.06 -0.59,-0.45 -0.1,-0.07 l -0.44,-0.36 a 27.88,27.88 0 0 1 -2.84,-2.7 c -0.42,-0.46 -0.82,-0.93 -1.21,-1.4 -0.1,-0.12 -0.71,-0.89 -0.4,-0.49 -0.24,-0.31 -0.47,-0.63 -0.7,-0.95 a 56.11,56.11 0 0 1 -4.61,-7.71 108,108 0 0 1 -7,-18.42 C 10.51,275.53 9.05,269.25 7.83,262.93 Q 6.44,255.69 5.44,248.37 c 0.13,0.92 -0.05,-0.42 -0.09,-0.67 -0.04,-0.25 -0.09,-0.77 -0.14,-1.16 -0.07,-0.56 -0.14,-1.13 -0.2,-1.7 0,-0.31 -0.08,-0.63 -0.11,-1 0,-0.06 0,-0.13 0,-0.19 0,-0.06 0,0 0,0.22 a 15.35,15.35 0 0 1 0.4,-1.88 19.89,19.89 0 0 1 2,-5.41 c 0.19,-0.35 0.41,-0.68 0.63,-1 0.39,-0.59 -0.18,0.2 0.08,-0.12 0.11,-0.13 0.22,-0.27 0.34,-0.39 0.12,-0.12 0.42,-0.42 0.63,-0.63 0.21,-0.21 0.46,-0.37 0,0 l 0.45,-0.3 a 7,7 0 0 1 0.76,-0.42 c -0.62,0.31 0.16,0 0.35,-0.1 l 0.71,-0.16 c 0.35,-0.07 -0.63,0 -0.09,0 h 0.49 c 0.28,0 0.55,0 0.82,0 0.27,0 0.47,0.08 -0.16,0 l 0.42,0.07 a 14.86,14.86 0 0 1 1.73,0.5 l 0.33,0.12 c 0.57,0.22 -0.49,-0.23 0.06,0 l 0.73,0.35 c 0.56,0.29 1.11,0.61 1.64,1 0.53,0.39 0.91,0.6 1.34,0.92 0.13,0.09 0.88,0.67 0.35,0.25 l 0.8,0.65 a 38.63,38.63 0 0 1 3.73,3.68 q 0.27,0.28 0.54,0.6 a 2.47,2.47 0 0 0 3.48,0 2.51,2.51 0 0 0 0,-3.48 z"
         id="path1166" />
      <path
         class="cls-1"
         d="m 152.18,68.65 c 27.75,-1.17 52.47,1.61 74.78,17.6 4.48,3.22 8.06,7 12.1,10.53 0,0 40.83,30.78 48.7,99.49 1.79,15.62 -2.35,31 -2.67,46.57 -0.3,15 -5.37,29.79 -5.77,44.9 -0.54,20.28 -6.55,39.95 -8.39,60.1 -1.81,20 -9,35.32 -17.7,53.71 -5.81,12.23 -15.44,18.16 -23.89,28.76 -10.37,13 -22.77,21.49 -36.52,30.79 -13.3,9 -23.41,10.62 -39,11.23"
         id="path1168" />
      <path
         class="cls-1"
         d="m 157.65,68.82 c -27.75,-1.17 -52.47,1.61 -74.78,17.6 -4.48,3.22 -8.06,7 -12.1,10.53 0,0 -40.83,30.78 -48.7,99.49 -1.79,15.62 2.35,31 2.67,46.58 0.3,15 5.37,29.79 5.77,44.89 0.54,20.28 6.55,39.95 8.39,60.1 1.81,20 9,35.32 17.7,53.71 5.81,12.28 17.4,18.16 25.83,28.76 10.37,13 20.83,21.49 34.58,30.79 13.3,9 23.41,10.62 39,11.23"
         id="path1170" />
      <path
         class="cls-3"
         d="m 52.22,252.48 c 0,0 -6.22,19.84 23.51,28.63 0,0 28.1,6.75 47.52,-16.32 0,0 -47.1,8.7 -71.03,-12.31 z"
         id="path1172" />
      <polygon
         class="cls-3"
         points="176.34,425.53 133.49,425.71 143.76,410.04 166.07,409.86 "
         id="polygon1174" />
      <path
         class="cls-3"
         d="m 118.4,273.36 a 79.63,79.63 0 0 0 15.44,-27.44 c 0,0 -70.84,-44.56 -98.5,-22.53 0,0 -2.7,18.82 9.11,31.09 0,0 50.98,36.52 73.95,18.88 z"
         id="path1176" />
      <path
         class="cls-2"
         d="m 41,238.17 c 0,0 11.17,-16.58 33.86,-8.82 20.41,7 41.9,13.15 57.34,21.62 0,0 3.22,-1.81 3.26,-10.7 a 10.28,10.28 0 0 0 -8.41,-10.44 h -0.16 c -21.69,-3.42 -47.44,-22.16 -69.65,-15 -3.41,1.09 -6.91,6.22 -9.45,9.18 -0.62,0.66 -7.6,14.32 -6.79,14.16 z"
         id="path1178" />
      <path
         class="cls-3"
         d="m 59,354.09 c -4.33,-7.91 -9,-15.67 -14,-23.2 -2,-3.08 -4.14,-6.12 -6.38,-9.06 a 2.55,2.55 0 0 0 -3.37,-0.88 2.47,2.47 0 0 0 -0.88,3.37 c 7.08,9.29 13.11,19.43 18.84,29.6 0.5,0.88 1,1.77 1.49,2.66 1.52,2.78 5.78,0.29 4.25,-2.49 z"
         id="path1180" />
      <path
         class="cls-3"
         d="m 46.74,199.48 15.57,-27.73 -6.79,-20.89 c 0,0 -12.95,31.14 -8.78,48.62 z"
         id="path1182" />
      <path
         class="cls-3"
         d="m 257.61,252.3 c 0,0 6.2,19.85 -23.51,28.64 0,0 -28.1,6.74 -47.52,-16.32 0,0 47.1,8.7 71.03,-12.32 z"
         id="path1184" />
      <path
         class="cls-3"
         d="M 191.43,273.19 A 79.76,79.76 0 0 1 176,245.75 c 0,0 70.87,-44.57 98.5,-22.54 0,0 2.7,18.82 -9.11,31.09 -0.01,0 -50.99,36.5 -73.96,18.89 z"
         id="path1186" />
      <path
         class="cls-2"
         d="m 268.28,242.24 c 0,0 -10.08,-17.3 -33.22,-11.12 -20.81,5.57 -42.66,10.26 -58.6,17.66 0,0 -3.1,-2 -2.56,-10.9 a 10.22,10.22 0 0 1 9,-9.84 h 0.16 c 21.87,-1.93 48.77,-18.86 70.48,-10.24 3.33,1.32 6.49,6.67 8.83,9.8 0.63,0.75 6.71,14.85 5.91,14.64 z"
         id="path1188" />
      <path
         class="cls-3"
         d="m 255.05,356.4 c 4.33,-7.91 9,-15.67 13.95,-23.19 2,-3.09 4.14,-6.13 6.39,-9.07 a 2.49,2.49 0 0 0 -0.89,-3.37 2.53,2.53 0 0 0 -3.37,0.89 c -7.08,9.29 -13.11,19.43 -18.85,29.59 -0.5,0.89 -1,1.77 -1.48,2.66 -1.53,2.79 2.73,5.28 4.25,2.49 z"
         id="path1190" />
      <path
         class="cls-3"
         d="m 263.09,199.3 -15.57,-27.72 6.79,-20.89 c 0,0 12.95,31.13 8.78,48.61 z"
         id="path1192" />
      <path
         class="cls-2"
         d="m 152.07,108.11 a 2.94,2.94 0 0 0 -0.13,4.2 c 1.61,1.63 4.67,1.35 6.74,1.25 a 156.29,156.29 0 0 0 19.86,-2.65 c 14.64,-2.56 29.18,-5.73 43.68,-9 l 3.45,-0.78 c 0.88,-0.2 2.82,-0.31 3.56,-0.81 -0.15,0.1 -0.86,-0.28 -0.34,-0.11 0.52,0.17 1.13,0.38 1.69,0.6 0.17,0.06 -0.52,-0.25 0.13,0 l 0.65,0.31 c 0.59,0.28 1.16,0.59 1.73,0.91 0.57,0.32 1.21,0.72 1.8,1.12 0.59,0.4 1.53,1.07 1.77,1.26 8.69,6.84 13.82,17.23 16.83,27.65 1.28,4.44 1.87,9 3.06,13.45 q 1.33,4.93 2.62,9.89 c 2.7,10.35 5.31,20.72 7.57,31.17 0.52,2.44 1,4.89 1.49,7.35 0.18,1 0.35,1.95 0.52,2.93 l 0.21,1.34 c 0,0.24 0.2,1.43 0.16,1.09 a 40.54,40.54 0 0 1 0.29,4.12 c 0,0.21 -0.08,1 0,0.07 a 8.35,8.35 0 0 0 -0.16,1 4.13,4.13 0 0 0 0.63,1.83 c 2,4.07 4,8.11 6,12.16 l 2.57,5.18 c 0.08,0.17 0.16,0.36 0.26,0.54 0.25,0.4 -0.16,0 -0.14,-0.37 a 6.09,6.09 0 0 0 0.33,1.51 l 3,13.68 a 9.5,9.5 0 0 0 0.35,1.6 c 0.09,0.24 0.1,-0.89 -0.08,-0.16 a 21.12,21.12 0 0 0 -0.31,3.37 l -2.63,28.57 -0.47,5.1 c 0,0.42 -0.39,2.55 -0.07,1.08 -0.32,1.49 -0.48,3 -0.71,4.52 q -2,12.57 -4,25.15 c -2.45,15.52 -5.19,31 -7.33,46.59 -1.71,12.39 -6.6,24 -12.19,35.15 a 160.54,160.54 0 0 1 -11.25,19.28 c -4.2,6.07 -9.27,11.53 -14.22,17 q -8.72,9.65 -18,18.77 c -4.74,4.71 -9.53,9.56 -15,13.42 a 48,48 0 0 1 -13.99,6.78 73.32,73.32 0 0 1 -15.5,3.25 l -11.66,0.8 c -3.11,0.21 -3.13,5.08 0,4.86 4.49,-0.3 9,-0.56 13.49,-0.92 a 66.77,66.77 0 0 0 9.87,-1.95 75.7,75.7 0 0 0 9.9,-3 55.48,55.48 0 0 0 16,-9.86 267.26,267.26 0 0 0 19.37,-18.86 c 6.69,-7 13.3,-14.14 19.44,-21.62 a 125.93,125.93 0 0 0 13.09,-20.11 186,186 0 0 0 11,-24.22 95.57,95.57 0 0 0 3.32,-10.72 c 0.31,-1.33 0.59,-2.67 0.79,-4 0.12,-0.76 0.22,-1.53 0.3,-2.3 0.06,-0.58 0.14,-1.39 0,-0.35 2.61,-18.58 5.83,-37.1 8.76,-55.64 1.08,-6.84 2.22,-13.67 3.23,-20.51 1.21,-8.16 1.56,-16.52 2.31,-24.72 L 287,241.47 c 0.28,-3 -0.88,-6.06 -1.51,-8.95 l -1.78,-8.17 a 12.74,12.74 0 0 0 -1,-3.08 l -7.07,-14.27 -1.83,-3.7 0.25,1.87 c 0.59,-2.3 0.06,-4.93 -0.26,-7.23 -0.54,-3.82 -1.31,-7.62 -2.11,-11.4 -1.95,-9.17 -4.2,-18.28 -6.53,-27.37 -1.39,-5.45 -3,-10.87 -4.3,-16.35 -1.3,-5.48 -2.22,-11.16 -4.15,-16.61 a 65.67,65.67 0 0 0 -7.26,-14.84 c -3.81,-5.68 -8.79,-10.87 -14.92,-14.06 a 20.41,20.41 0 0 0 -4.26,-1.78 c -1.37,-0.36 -2.77,0.18 -4.13,0.49 q -6.19,1.41 -12.4,2.78 c -11.89,2.61 -23.81,5.14 -35.8,7.26 a 169.43,169.43 0 0 1 -17.69,2.5 32.12,32.12 0 0 1 -4.16,0.12 h -0.66 c -0.76,0 0.41,0.14 0,0 a 4,4 0 0 0 -0.75,-0.2 1.81,1.81 0 0 1 1.26,1.79 c 0,0.77 -0.37,0.93 -0.52,1.33 l 0.06,-0.06 c 2.4,-2 -1,-5.44 -3.44,-3.44 z"
         id="path1194" />
      <path
         class="cls-2"
         d="m 176.66,335.61 a 16.52,16.52 0 0 1 1.9,1.84 c 0.48,0.56 -0.22,-0.34 0.18,0.25 0.11,0.15 0.21,0.31 0.31,0.46 0.19,0.31 0.34,0.62 0.5,0.94 0.16,0.32 -0.11,-0.38 0,0.06 l 0.15,0.46 c 0,0.16 0.07,0.31 0.11,0.47 0.15,0.57 0,-0.33 0,0 0,0.33 0,0.67 0,1 v 0.36 c 0,0.6 0.13,-0.51 0,0.07 a 8.93,8.93 0 0 1 -0.23,0.89 3.26,3.26 0 0 1 -0.15,0.44 c -0.09,0.27 -0.13,0.3 0,0 a 13.84,13.84 0 0 1 -0.94,1.68 c -0.12,0.17 -0.24,0.32 -0.35,0.49 0.12,-0.18 0.18,-0.22 0,0 -0.18,0.22 -0.48,0.58 -0.73,0.85 -0.5,0.53 -1,1 -1.59,1.51 a 2.46,2.46 0 0 0 0,3.48 2.52,2.52 0 0 0 3.48,0 c 2.49,-2.13 4.81,-5.05 5.31,-8.38 0.62,-4.14 -1.35,-7.74 -4.5,-10.34 a 2.4607316,2.4607316 0 1 0 -3.48,3.48 z"
         id="path1196" />
      <path
         class="cls-3"
         d="m 176.1,246.13 -3.31,-15.13 -0.47,-2.15 a 2.463666,2.463666 0 1 0 -4.75,1.31 l 3.31,15.12 0.47,2.16 a 2.49,2.49 0 0 0 3,1.72 2.52,2.52 0 0 0 1.72,-3 z"
         id="path1198" />
      <path
         class="cls-3"
         d="m 165.66,337.34 0.35,-8.62 0.85,-20.83 1,-25.09 0.89,-21.82 c 0.14,-3.51 0.47,-7.07 0.43,-10.58 a 0.81,0.81 0 0 1 0,-0.16 c 0.13,-3.17 -4.8,-3.17 -4.93,0 l -0.35,8.61 -0.85,20.83 -1,25.1 -0.89,21.81 c -0.14,3.51 -0.47,7.07 -0.43,10.59 a 0.86,0.86 0 0 1 0,0.16 c -0.13,3.17 4.8,3.16 4.93,0 z"
         id="path1200" />
      <path
         class="cls-4"
         d="m 142.11,349.34 c 0,0 12.85,12.16 25.61,-0.18"
         id="path1202" />
      <path
         class="cls-2"
         d="m 111,397.76 c 7.74,-1.59 15.62,-2.68 23.47,-3.61 3.23,-0.38 6.59,-1 9.85,-0.57 3.26,0.43 6.13,1.46 9.25,1.94 a 17.57,17.57 0 0 0 2.5,0.29 6.64,6.64 0 0 0 2.2,-0.49 35.32,35.32 0 0 1 5.29,-1.13 72.59,72.59 0 0 1 10.41,-1 c 7.93,0 15.64,1.84 23.33,3.53 3.09,0.68 4.41,-4.07 1.31,-4.75 -7.15,-1.58 -14.34,-3.27 -21.69,-3.64 a 60.15,60.15 0 0 0 -11.06,0.58 c -1.57,0.21 -3.13,0.4 -4.69,0.66 -0.86,0.14 -1.71,0.31 -2.56,0.51 -0.85,0.2 -1.71,0.64 -2.54,0.76 a 12,12 0 0 1 -3.93,-0.64 c -1.63,-0.37 -3.25,-0.79 -4.88,-1.11 a 29.57,29.57 0 0 0 -4.68,-0.63 40.11,40.11 0 0 0 -5.79,0.46 q -9.37,1.05 -18.7,2.55 c -2.81,0.46 -5.62,0.93 -8.4,1.5 a 2.463666,2.463666 0 1 0 1.31,4.75 z"
         id="path1204" />
      <path
         class="cls-2"
         d="m 154.32,111.72 c 0.38,0.32 -0.36,-0.55 -0.2,-0.27 a 2.1,2.1 0 0 1 0.34,-2.42 1.05,1.05 0 0 1 0.64,-0.36 5,5 0 0 0 -0.76,0.19 c -0.28,0.09 0.76,0 0.09,0 -0.24,0 -0.48,0 -0.73,0.05 -0.59,0 -1.19,0 -1.78,0 -1.86,-0.05 -3.72,-0.23 -5.57,-0.43 -3,-0.34 -5.38,-0.69 -8.65,-1.22 -10.37,-1.66 -20.68,-3.76 -30.95,-5.94 Q 95,98.82 83.33,96.15 c -2.26,-0.52 -3.31,-0.66 -5.27,0.11 a 36.26,36.26 0 0 0 -13.69,10.1 c -7.42,8.52 -11.71,19.35 -14.15,30.27 -0.62,2.78 -1,5.58 -1.77,8.32 -0.77,2.74 -1.53,5.76 -2.29,8.64 -2.3,8.85 -4.54,17.71 -6.57,26.62 -1.66,7.27 -3.73,14.87 -4,22.36 a 9.49,9.49 0 0 0 0.22,2.81 l 0.24,-1.87 -5.93,12 c -1.51,3.06 -3.27,5.95 -4,9.29 -1.06,4.87 -2.24,9.73 -3.19,14.62 -0.51,2.55 0.25,5.55 0.48,8.11 l 2.84,30.85 c 0.46,5 1.49,10 2.27,14.93 q 4.83,30.63 9.64,61.25 c 0.1,0.62 0.21,1.25 0.3,1.88 -0.19,-1.32 0,-0.08 0,0.32 0.08,0.77 0.18,1.54 0.3,2.3 0.22,1.48 0.53,3 0.89,4.41 a 129.94,129.94 0 0 0 8.35,22.86 176.72,176.72 0 0 0 12.7,23.24 c 4.6,7 10.16,13.25 15.76,19.47 q 10,11.08 20.66,21.53 c 5.14,5 10.43,10.14 16.58,13.95 5.63,3.48 12,5.51 18.37,7 a 61.38,61.38 0 0 0 9.58,1.85 l 7.94,0.55 5.38,0.36 c 3.13,0.22 3.11,-4.65 0,-4.86 l -12.08,-0.83 c -5.17,-0.35 -10.73,-1.87 -15.86,-3.45 a 47.28,47.28 0 0 1 -13.94,-6.9 c -5.47,-4 -10.27,-8.87 -15,-13.61 q -9.12,-9.07 -17.74,-18.6 C 75.44,420.59 70.43,415.16 66.28,409.1 A 163.14,163.14 0 0 1 46.28,368.82 80.87,80.87 0 0 1 43.1,355 c -0.25,-1.75 -0.54,-3.5 -0.82,-5.25 q -2,-12.94 -4.07,-25.89 l -4.8,-30.44 c -0.77,-4.86 -1.34,-9.8 -2.31,-14.63 0.24,1.18 0.07,0.54 0,0.2 0,-0.54 -0.1,-1.08 -0.15,-1.61 l -0.47,-5 -1.38,-15 -1.25,-13.6 a 14.19,14.19 0 0 0 -0.28,-3.13 c -0.21,-0.59 -0.24,0.74 -0.07,0.22 a 20.22,20.22 0 0 0 0.45,-2 l 3,-13.6 a 6.14,6.14 0 0 0 0.25,-1.11 c 0,0.57 -0.37,0.73 -0.15,0.38 0.22,-0.35 0.25,-0.52 0.38,-0.77 l 2.68,-5.42 c 1.95,-3.94 3.95,-7.85 5.85,-11.81 a 4.56,4.56 0 0 0 0.48,-2.35 c 0,-0.19 -0.07,-0.87 0,0 0,-0.26 0,-0.52 0,-0.78 0,-0.57 0,-1.14 0.07,-1.7 0,-0.34 0.06,-0.68 0.1,-1 0.04,-0.32 0.16,-1.32 0.11,-0.95 1.34,-10 3.93,-20 6.35,-29.77 q 3,-12.21 6.29,-24.36 c 1.23,-4.56 1.82,-9.25 3.17,-13.79 a 64.08,64.08 0 0 1 8.05,-17.84 41.2,41.2 0 0 1 8.74,-9.5 31.79,31.79 0 0 1 3.66,-2.4 q 0.76,-0.44 1.56,-0.81 c 0.23,-0.12 0.47,-0.22 0.71,-0.33 0.55,-0.26 -0.49,0.17 0.21,-0.09 0.5,-0.19 1,-0.35 1.52,-0.52 h 0.15 c -0.84,0.12 -0.5,0 0.19,0.32 a 19.15,19.15 0 0 0 3.54,0.81 l 4.1,0.92 c 8.27,1.85 16.56,3.65 24.86,5.34 10,2 20,4 30.17,5.3 3.71,0.48 7.87,1.24 11.62,0.52 2.1,-0.41 4,-2.33 2.73,-4.54 a 3,3 0 0 0 -0.58,-0.74 c -2.38,-2 -5.84,1.43 -3.44,3.44 z"
         id="path1206" />
      <path
         class="cls-2"
         d="m 129.69,332.3 c -3.14,2.59 -5.14,6.22 -4.5,10.35 0.52,3.33 2.81,6.24 5.31,8.38 a 2.52,2.52 0 0 0 3.48,0 2.49,2.49 0 0 0 0,-3.49 18.64,18.64 0 0 1 -1.52,-1.43 c -0.25,-0.27 -0.5,-0.56 -0.74,-0.84 -0.07,-0.09 -0.34,-0.48 -0.05,-0.06 l -0.29,-0.4 c -0.37,-0.54 -0.61,-1.14 -1,-1.68 -0.16,-0.24 0.14,0.42 0,0 -0.06,-0.17 -0.13,-0.34 -0.18,-0.52 -0.05,-0.18 -0.15,-0.59 -0.23,-0.89 -0.11,-0.46 0,0.32 0,0 0,-0.32 0,-0.31 0,-0.45 0,-0.31 0,-0.61 0,-0.92 0,-0.47 -0.1,0.29 0,0 a 4,4 0 0 0 0.11,-0.47 c 0,-0.15 0.09,-0.31 0.14,-0.46 0.05,-0.15 0.14,-0.37 0,-0.07 a 8.17,8.17 0 0 1 0.48,-0.93 l 0.37,-0.56 c 0.23,-0.35 -0.06,0.06 0.11,-0.15 a 15,15 0 0 1 2,-1.93 2.47,2.47 0 0 0 0,-3.49 2.54,2.54 0 0 0 -3.48,0 z"
         id="path1208" />
      <path
         class="cls-3"
         d="m 138.48,247.62 3.31,-15.13 0.47,-2.16 a 2.52,2.52 0 0 0 -1.72,-3 2.49,2.49 0 0 0 -3,1.72 l -3.31,15.13 -0.47,2.16 a 2.53,2.53 0 0 0 1.72,3 2.49,2.49 0 0 0 3,-1.72 z"
         id="path1210" />
      <path
         class="cls-3"
         d="m 149.1,337.5 -0.36,-8.62 -0.85,-20.82 -1,-25.1 -0.89,-21.82 c -0.15,-3.52 -0.19,-7.06 -0.43,-10.58 a 0.86,0.86 0 0 1 0,-0.16 c -0.13,-3.16 -5.06,-3.18 -4.93,0 l 0.36,8.6 0.85,20.82 1,25.1 0.89,21.82 c 0.15,3.52 0.19,7.06 0.43,10.58 a 0.86,0.86 0 0 1 0,0.16 c 0.13,3.16 5.06,3.18 4.93,0 z"
         id="path1212" />
      <path
         class="cls-5"
         d="M 286.28,77.16 C 254.85,0.33 140.88,0 140.88,0 c -22,10.32 -34.5,21.7 -41.41,30.3 -1,0.39 -2,0.78 -3,1.18 -7,-2.62 -18,-5.89 -24.82,-4 l -50.71,41 c 0,0 -11.56,61.43 -5.21,110.28 l -0.92,38.77 8.31,37.95 15,-44.21 11.63,-61.11 C 56.57,130.55 62.34,99.92 86.34,102 c 16.39,1.38 31.31,8.54 47.45,11.12 L 154,131.5 174,113.19 c 16.92,-2.27 32.4,-10 49.47,-11.42 21.75,-1.84 28.52,23.15 34.68,42.45 l 13.54,66.87 15,44.21 6.3,-37.94 v -2.87 C 312,127.16 286.28,77.16 286.28,77.16 Z"
         id="path1214" />
      <g
         id="Слой_8"
         data-name="Слой 8">
        <path
           class="cls-6"
           d="m 139.22,258 c -1.47,22.32 -12,33.76 -44,31.52 -32,-2.24 -65.22,-27.4 -63.77,-49.72 1.45,-22.32 17.19,-28.2 49.21,-26 18.51,1.3 39.56,5.38 50.47,15.44 7.97,7.39 8.72,19.33 8.09,28.76 z"
           id="path1216" />
        <path
           class="cls-7"
           d="m 132.63,252.5 c 0,0 22.33,-18 45,0.09"
           id="path1218" />
        <line
           class="cls-8"
           x1="32.759998"
           y1="235.41"
           x2="19.059999"
           y2="228.5"
           id="line1220" />
        <path
           class="cls-6"
           d="m 170,258 c 1.48,22.32 12,33.76 44,31.52 32,-2.24 65.23,-27.39 63.76,-49.71 -1.47,-22.32 -17.2,-28.2 -49.22,-26 -18.5,1.3 -39.55,5.38 -50.46,15.44 -7.93,7.38 -8.68,19.32 -8.08,28.75 z"
           id="path1222" />
        <path
           class="cls-7"
           d="m 176.62,252.5 c 0,0 -22.33,-18 -45,0.09"
           id="path1224" />
        <line
           class="cls-8"
           x1="276.48999"
           y1="235.41"
           x2="290.19"
           y2="228.5"
           id="line1226" />
      </g>
    </g>
  </g>
</svg>
