<?xml version="1.0" encoding="UTF-8" standalone="no"?>
<svg
   xmlns:dc="http://purl.org/dc/elements/1.1/"
   xmlns:cc="http://creativecommons.org/ns#"
   xmlns:rdf="http://www.w3.org/1999/02/22-rdf-syntax-ns#"
   xmlns:svg="http://www.w3.org/2000/svg"
   xmlns="http://www.w3.org/2000/svg"
   xmlns:sodipodi="http://sodipodi.sourceforge.net/DTD/sodipodi-0.dtd"
   xmlns:inkscape="http://www.inkscape.org/namespaces/inkscape"
   viewBox="0 0 542.43629 661.50969"
   version="1.1"
   id="svg426"
   sodipodi:docname="moneyHeistSkin.svg"
   width="542.43628"
   height="661.5097"
   inkscape:version="1.0.2-2 (e86c870879, 2021-01-15)">
  <metadata
     id="metadata430">
    <rdf:RDF>
      <cc:Work
         rdf:about="">
        <dc:format>image/svg+xml</dc:format>
        <dc:type
           rdf:resource="http://purl.org/dc/dcmitype/StillImage" />
      </cc:Work>
    </rdf:RDF>
  </metadata>
  <sodipodi:namedview
     pagecolor="#ffffff"
     bordercolor="#666666"
     borderopacity="1"
     objecttolerance="10"
     gridtolerance="10"
     guidetolerance="10"
     inkscape:pageopacity="0"
     inkscape:pageshadow="2"
     inkscape:window-width="1920"
     inkscape:window-height="1001"
     id="namedview428"
     showgrid="false"
     inkscape:zoom="1.2547051"
     inkscape:cx="271.21813"
     inkscape:cy="330.7547"
     inkscape:window-x="-9"
     inkscape:window-y="-9"
     inkscape:window-maximized="1"
     inkscape:current-layer="svg426" />
  <defs
     id="defs341">
    <style
       id="style339">.cls-1{fill:#df1217;}.cls-2{fill:#56040d;}.cls-3{fill:#040203;}.cls-4{fill:#e6c48e;}.cls-5{fill:#ba765c;}.cls-6{fill:#070504;}.cls-7{fill:#e5a77d;}.cls-8{fill:#080605;}.cls-9{fill:#ba4b3d;}.cls-10{fill:#dc8363;}.cls-11{fill:#dd8b66;}.cls-12{fill:#bd705d;}.cls-13{fill:#e3a87d;}.cls-14{fill:#f0e1da;}</style>
  </defs>
  <g
     id="Слой_2"
     data-name="Слой 2"
     transform="translate(0.00313827,-3.0884639e-4)">
    <g
       id="Слой_5"
       data-name="Слой 5">
      <path
         class="cls-1"
         d="m 533,384.51 c -23,-62 -66,-178 -66,-178 C 413.28,-0.15 292.44,-1.26 271.22,0.2 250,-1.26 129.15,-0.15 75.43,206.51 c 0,0 -43,116 -66,178 0,0 -30,89 17,136 0,0 75,76 109,95 0,0 37,39.57 112.59,45.31 v 0.69 h 46.43 v -0.69 C 370,655.08 407,615.51 407,615.51 c 34,-19 109,-95 109,-95 47,-47 17,-136 17,-136 z"
         id="path343" />
    </g>
    <g
       id="Слой_4"
       data-name="Слой 4">
      <path
         class="cls-2"
         d="m 456.87,295.66 c -10,-16 -19.46,-32.24 -26.12,-50.08 C 416.46,207.35 407.55,168 383,134.66 370.84,118.17 357.75,101 340.68,89.66 317.75,74.39 304.49,85.51 279.57,89.05 c 0.63,-0.19 -5.53,-0.38 -4.89,-0.57 -9.63,3 -30.48,-2.47 -40.32,-4.94 -29.3,-7.36 -59.56,32.4 -74.87,53.15 -29.76,40.36 -42.39,93 -59.17,139.89 C 95.83,289 88.41,295 80.79,304.87 c -8.75,11.42 -15.35,24.21 -22.17,36.9 -9.24,17.21 -21,38.39 -20.39,58.74 1,34 2.91,45 2.91,45 8.65,49 61.66,76 87.32,114.46 18,26.89 37.36,46.56 65.57,61.81 a 139.73,139.73 0 0 0 35.87,13.91 c 2.85,0.63 33,6.28 40.56,4.89 9.78,0.27 39.35,-6.28 42.08,-6.89 A 139.52,139.52 0 0 0 348.4,619.78 C 376.62,604.53 396,584.86 414,558 c 25.66,-38.41 78.66,-65.42 87.31,-114.46 0,0 1.95,-11 2.92,-45 0.52,-18.29 -9.25,-37.18 -17.31,-52.86 -8.92,-17.34 -19.75,-33.53 -30.05,-50.02 z"
         id="path346" />
    </g>
    <g
       id="Слой_6"
       data-name="Слой 6">
      <path
         class="cls-3"
         d="m 391.74,134.66 c 13.5,20.75 22.86,44.68 31.81,67.37 7.19,18.23 14.67,36.65 16.86,56.12 1.34,12 0.63,24.16 -0.09,36.24 l -0.88,14.83 c -0.15,2.62 -0.64,5.74 -3,6.82 -9.83,-20.26 -13.2,-43 -15.75,-65.35 -2.55,-22.35 -4.45,-45.07 -11.67,-66.4 -7.22,-21.33 -20.53,-41.58 -40.49,-52 a 23.92,23.92 0 0 0 -8.93,-3 c -10.44,-0.86 -18.73,8.7 -28.69,10.64 -7.53,1.46 -13.46,-2.4 -20.42,2 -7.63,4.79 -15.8,8.63 -23.91,12.49 -10.78,5.15 -22.33,4.69 -33.1,-0.19 -8.87,-4 -15.34,-12.93 -25.3,-14.59 -4,-0.66 -8,0 -12.07,-0.21 -14.81,-0.81 -25.61,-15.86 -40.44,-8.17 -7.76,4 -14.2,10.21 -19.82,16.91 -16,19.06 -24.66,41.92 -28.28,66.33 C 124,238.41 124,263 116.94,286.37 a 182.71,182.71 0 0 1 -9,24.93 c -0.71,1.54 -2.69,3.27 -3.75,1.93 a 2.52,2.52 0 0 1 -0.39,-1.46 l -1,-16.56 c -0.8,-13.46 -1.59,-27 0.19,-40.4 3.34,-25.21 15.45,-48 25.69,-70.89 9.85,-22 22.08,-43.08 38.1,-61.3 q 4.62,-5.27 9.64,-10.16 c 8.19,-8 17.79,-15 27.11,-21.66 a 33.52,33.52 0 0 1 15.8,-6.3 1.34,1.34 0 0 0 1.54,-0.43 l 1.41,-0.15 c 1.65,-0.93 7.23,-0.59 9.19,-0.65 a 49.6,49.6 0 0 1 11.64,1.32 c 7.83,1.64 15.49,4.34 23.53,4.73 6.69,0.33 13.35,-1 19.92,-2.31 8.19,-1.64 17.43,-4.85 25.58,-3.85 15.49,1.91 28.45,4.26 41.86,12.84 15.78,10 27.86,23.49 37.74,38.66 z"
         id="path349" />
      <path
         class="cls-4"
         d="m 130.41,272.34 c 0.72,-3.95 4.15,-7 3.79,-11.32 a 2.06,2.06 0 0 1 0.36,-1 c 1.74,-1.11 3.07,-2.43 3,-4.75 -0.05,-1.28 0.81,-2.28 1.46,-3.35 3.34,-5.47 6.52,-11 10.52,-16.09 a 2.29,2.29 0 0 1 2.16,-1.58 c 0.71,-0.05 1.46,0.25 2.14,-0.22 4.82,-3.32 10.59,-3.61 16,-5 a 3.12,3.12 0 0 1 1.7,0.29 c 1,1.15 2.41,1.45 3.83,1.84 1.42,0.39 3,0.48 3,2.54 -1.14,1.61 -2.75,0.8 -4.15,0.74 -9.93,-0.42 -17.78,4.4 -21.63,13.59 -4.1,9.78 -5.44,20.23 -7.07,30.59 a 3.74,3.74 0 0 0 0.56,3 c 1.48,0.89 2.75,-0.19 4.13,-0.62 12.63,-4 25.3,-7.75 38.69,-8.2 12.91,-0.44 23.78,4.56 33.89,12 13.51,10 19.89,23.89 22.68,39.94 a 136.25,136.25 0 0 1 2,20.47 c 0.16,7.32 -1.18,14.38 -2.36,21.54 -2.57,15.52 -6.48,30.77 -9.19,46.24 -1.67,9.56 -0.31,19.4 -0.39,29.12 1.27,-5.83 4.39,-11.06 5.31,-17 6,-20.76 11.73,-41.58 14.48,-63.1 1,-7.92 2.24,-15.85 2.57,-23.82 0.46,-10.83 -1.79,-21.11 -8.49,-30 -3.58,-3.89 -4.45,-8.58 -4.33,-13.69 a 7.39,7.39 0 0 0 -5.27,-7.68 c -1.27,-0.47 -3,-1 -2.74,-3 a 1.52,1.52 0 0 1 1.61,-0.72 c 3.09,0.46 5.83,0 7.22,-3.2"
         id="path351" />
      <path
         class="cls-4"
         d="m 381.13,397.12 a 215.71,215.71 0 0 1 5.48,28.29 c 0.71,6.58 0.9,13.19 1.54,19.77 1.16,12 0.2,23.77 -4.44,34.94 -5,12.17 -13.65,20.67 -26.76,24.16 -10.29,2.74 -20.58,1.76 -30.87,0.56 -12.9,-1.51 -25.59,-4.45 -38.49,-6"
         id="path353" />
      <path
         class="cls-4"
         d="m 435.91,315.33 c -0.85,-2.82 -1.71,-5.63 -2.55,-8.44 -6.49,-21.67 -11.72,-44.49 -13,-67.13 a 218.73,218.73 0 0 0 -6.61,-44 138.43,138.43 0 0 0 -13.94,-34.24 c -7.55,-13 -18.66,-22.64 -31,-31 -5.84,-4 -11.5,-4.25 -17.29,0.1 a 6.67,6.67 0 0 1 -4.09,1.41 10.48,10.48 0 0 0 -6.64,2 q -2.82,1.83 -5.63,3.69 a 11.86,11.86 0 0 1 -9.35,1.5 25.72,25.72 0 0 1 -3.65,-0.79 c -4,-1.49 -7.5,-0.19 -11,1.73 -9,4.87 -18.09,9.57 -27.15,14.32 a 11.86,11.86 0 0 1 -2.45,0.92 c -9.9,2.55 -19.53,2.26 -28.63,-2.93 -2.5,-1.42 -4.93,-3 -7.32,-4.55 -3.53,-2.35 -7,-4.82 -10.5,-7.2 -3.07,-2.08 -6.32,-3.4 -10.19,-2.9 -3.58,0.46 -7.19,0.6 -10.79,0.88 -1.15,1 -1.79,2.4 -3.05,3.28 -8.28,5.87 -15.33,13.14 -22.7,20 -13.79,12.93 -25.79,27.5 -37.49,42.27 -4.52,5.71 -8.56,11.88 -12.56,18 -2.11,3.26 -2.82,6.86 -4.15,10.32 a 136.18,136.18 0 0 0 -7.77,27.6 c -0.52,3.31 -0.46,6.67 -1.35,10 a 9,9 0 0 0 1.28,7.88 l -0.85,5.91 c -1.41,9.43 6.12,16.85 15.46,15.25 1.87,-0.32 3.64,-1.17 6.06,-1.55 -4.14,6.85 -7.89,13.17 -11.6,19.5 a 32.94,32.94 0 0 0 -4.9,16.64 c -0.22,19.07 5.19,36.62 13.39,53.58 6.39,13.21 10.12,27.06 8.55,41.95 a 36.66,36.66 0 0 0 0,7.48 l 1.26,14 c -2.31,-1.17 -2.53,0.6 -2.71,2.07 -0.34,2.72 -0.06,5.48 -0.33,8.22 -1.06,10.68 -2.52,21.3 -4,31.92 a 21.26,21.26 0 0 0 0.31,8.18 81.19,81.19 0 0 0 7.2,18.83 390.09,390.09 0 0 0 26.67,43.74 c 8.27,11.56 15.06,24.09 23.46,35.56 a 34.5,34.5 0 0 1 -3.27,-3.56 c -5.86,-7 -11.41,-14.21 -17.62,-20.89 -15.24,-16.37 -29,-33.74 -36.41,-55.26 -3.28,-9.45 -6.93,-18.81 -4.68,-29.15 a 12.68,12.68 0 0 0 0.08,-2.62 c 0.06,-18.41 -5.31,-35.72 -10.85,-53 -3.77,-11.77 -8.56,-23.19 -12.44,-34.92 a 327.28,327.28 0 0 1 -10.86,-41.63 57.74,57.74 0 0 1 0.23,-24.86 c 1,-4.08 1.75,-17.84 1.63,-21.77 -6.78,1.38 -8.61,18.44 -9.07,24.32 -1.64,21.06 5.42,41.82 11.79,61.57 6.5,20.13 13.57,40.09 19.71,60.35 a 50,50 0 0 1 2.54,15.8 c -0.5,22.71 2.22,43.7 13.09,64 11.29,21.09 28.53,37 43.25,55.5 3.8,4.78 7.36,9.81 12,13.81 8.72,7.42 19,11.85 29.75,15.39 20.64,6.8 43.35,8.72 64.56,3.47 a 86.8,86.8 0 0 0 29.37,-13.22 c 9.51,-6.73 15.84,-15.79 23.74,-24.11 a 542.14,542.14 0 0 0 39.87,-48 c 24.29,-32.42 7.64,-72.29 21.19,-108 9.23,-24.38 24.57,-51.91 28.88,-77.85 2.29,-13.48 -1.03,-26.5 -4.88,-39.37 z"
         id="path355" />
      <g
         id="Слой_8"
         data-name="Слой 8">
        <path
           class="cls-5"
           d="m 145.33,352.51 a 31.78,31.78 0 0 0 5,8.95 29.11,29.11 0 0 0 7.4,6.4 42.59,42.59 0 0 0 18.54,5.73 53.42,53.42 0 0 0 19.62,-1.91 39.14,39.14 0 0 0 17.4,-10.17 25.6,25.6 0 0 1 -6.44,8.69 35.16,35.16 0 0 1 -9.32,5.91 44.83,44.83 0 0 1 -21.78,3.46 38.6,38.6 0 0 1 -20.75,-7.89 26.71,26.71 0 0 1 -7.12,-8.64 23.38,23.38 0 0 1 -2.55,-10.53 z"
           id="path357" />
        <path
           class="cls-5"
           d="m 398.35,351.75 a 23.69,23.69 0 0 1 -2.58,10.54 26.85,26.85 0 0 1 -7.13,8.64 38.53,38.53 0 0 1 -20.75,7.88 44.72,44.72 0 0 1 -21.78,-3.46 35.21,35.21 0 0 1 -9.33,-5.91 25.44,25.44 0 0 1 -6.43,-8.69 39.19,39.19 0 0 0 17.39,10.18 53.7,53.7 0 0 0 19.63,1.91 42.77,42.77 0 0 0 18.54,-5.74 28.91,28.91 0 0 0 7.4,-6.4 31.78,31.78 0 0 0 5.04,-8.95 z"
           id="path359" />
      </g>
      <path
         class="cls-4"
         d="m 126.53,282.31 c -0.77,5 1,9.42 3.42,13.08 2.42,3.66 7,3.87 11.22,2.83 2.46,-0.61 4.82,-1.63 7.61,-2.6 a 14.3,14.3 0 0 1 -2,4.81 c -3,4.52 -5.61,9.28 -8.41,13.93 -2.49,4.13 -5.07,8.21 -6.13,13 a 10.35,10.35 0 0 0 -0.55,1.75 c -0.16,6.72 -0.24,13.45 1,20.08 1,5.69 2.18,11.35 3.57,17 a 55.52,55.52 0 0 0 3.2,8.65 c 3,6.92 6.39,13.68 9.11,20.7 2.65,6.86 4,14.06 5.08,21.41 1,6.56 -0.84,12.86 -0.19,19.27 a 25.3,25.3 0 0 0 0.81,3.39 c 1.39,3.84 2.27,7.66 -0.56,11.29 -1.64,-0.18 -1.73,0.85 -1.78,2.1 -0.15,3.34 -0.45,6.67 -0.59,10 A 64.11,64.11 0 0 1 149.86,476.16 49.56,49.56 0 0 0 149,482 c -0.55,4.4 -1.22,8.8 -1.64,13.21 -0.48,5.09 1.44,9.76 3.15,14.37 a 143.17,143.17 0 0 0 5.91,13.15 c 1.29,2.64 2.94,5.09 4.43,7.63 4.08,6.9 8.06,13.87 12.28,20.69 2.63,4.25 5.65,8.25 8.47,12.39 3.8,5.59 7.61,11.17 11.33,16.82 q 5.89,8.94 11.59,18 a 19.24,19.24 0 0 1 1.3,3.32 c -1.52,-1.17 -3.29,-2.13 -4.52,-3.55 -3.16,-3.65 -6.05,-7.53 -9.12,-11.26 -2.68,-3.25 -5.26,-6.62 -8.21,-9.61 A 241.16,241.16 0 0 1 163.13,552.4 108.08,108.08 0 0 1 147.4,523.51 c -2.33,-6.62 -4.79,-13.23 -6.51,-20 -0.83,-3.27 -0.08,-6.93 -0.07,-10.41 0,-4.94 0.33,-9.91 -0.08,-14.82 a 109.41,109.41 0 0 0 -2.45,-14.57 c -1.56,-7 -3.35,-13.9 -5.25,-20.78 -1.32,-4.75 -2.87,-9.44 -4.53,-14.08 -1.93,-5.4 -4.24,-10.66 -6.13,-16.08 -2.34,-6.71 -4.5,-13.49 -6.59,-20.29 -1.91,-6.19 -3.82,-12.4 -5.4,-18.68 -1.63,-6.44 -3.56,-12.92 -4.11,-19.49 -0.63,-7.49 -0.89,-15.12 1.44,-22.58 a 42.43,42.43 0 0 0 1.47,-11.84 c -1.27,2.66 -2.48,5.34 -3.84,7.95 -0.33,0.63 -1.12,1 -1.7,1.53 v -1.55 a 8.82,8.82 0 0 0 0.18,-2.29 q 0.81,-6 1.63,-11.92 c 4.46,-7.57 7,-15.91 9.54,-24.23 4.32,-14.25 6.48,-28.92 8.07,-43.67 1.4,-13 2.54,-26.06 3.94,-39.07 a 80.23,80.23 0 0 1 6.78,-23.64 151.36,151.36 0 0 1 27.37,-42.6 c 6,-6.46 13.78,-10.15 21.91,-13.13 a 7.42,7.42 0 0 1 8.55,2 c 2.2,2.31 4.46,4.27 8.09,3.69 1.07,-0.17 2.42,0.6 3.45,1.25 a 31.36,31.36 0 0 0 11,4.56 c 0.38,2 -1,3 -2.21,4 -3.18,2.54 -6.68,4.74 -9.61,7.54 -8.47,8.09 -16.78,16.35 -25,24.67 -3.56,3.59 -6.85,7.46 -10.15,11.3 -5.31,6.17 -10.66,12.32 -15.72,18.69 -2.26,2.84 -3.8,6.24 -5.83,9.28 -1,1.51 -2.59,2.65 -3.53,4.19 -2.42,3.93 -5.74,7.41 -6.09,12.44 -0.11,1.44 -1.75,2.73 -2,4.2 -0.77,5 -3.72,9.36 -4,14.51 -0.1,1.57 -1.49,3 -1.9,4.63 a 37.9,37.9 0 0 0 -0.87,6.21 17.46,17.46 0 0 0 0,5.59 c 0.5,1.91 -2.46,2.79 -1,4.68"
         id="path362" />
      <path
         class="cls-6"
         d="m 153.63,450.88 0.56,-11.29 c 0.43,-3.81 1,-7.62 1.25,-11.45 0.7,-10.6 3.14,-20.85 5.82,-31.07 a 50,50 0 0 0 0.35,-23.12 c -1.87,-9.25 -6,-19.64 -1.78,-28.83 0.5,-1.08 2,-3.57 3.68,-3 1.28,0.47 1.69,7.62 2,9.08 a 111.32,111.32 0 0 0 6.36,20.08 20.68,20.68 0 0 1 1.57,4.56 c 1,5.81 -1.3,13.53 -2,19.39 q -1.35,11.07 -3,22.08 c -1.63,10.59 -3.86,21.1 -4.23,31.84 a 129.19,129.19 0 0 0 0.58,17.15 11.82,11.82 0 0 0 7.58,10 43.61,43.61 0 0 0 11.12,2.9 c 7,0.88 13.91,-0.73 20.83,-1.64 9.89,-1.29 19.79,-2.61 29.81,-2.14 1.73,0.08 3.45,0.39 5.18,0.6 2.61,-0.58 4.18,1.23 5.86,2.65 a 57.42,57.42 0 0 0 16,10.16 c 9.76,3.84 19,2.73 27.83,-2.82 4.42,-2.79 8.57,-6 12.78,-9.08 1.36,-1 2.67,-2.38 4.68,-1.56 14.15,-0.37 28.1,1.47 42.05,3.58 a 41.26,41.26 0 0 0 19.62,-1.35 c 7,-2.36 10.52,-7.26 10.95,-14.48 a 141.29,141.29 0 0 0 -1.46,-29.49 q -3.64,-24 -7.19,-48.06 a 29.56,29.56 0 0 1 2.17,-17.25 c 0.81,-1.89 8.75,-26.64 8.94,-26.58 2.11,0.7 2.34,2.27 2.72,3.86 1.73,7.37 0.81,15 -0.77,22.31 -1.56,7.14 -4.52,13.64 -3.06,21 1.38,7 3.32,13.84 4.69,20.81 1.18,6 2.18,12 2.77,18.11 0.8,8.31 1.41,16.67 1.63,25 0.29,11.52 -1.68,22.64 -7.38,32.84 -6.66,11.94 -16.83,18.72 -30.38,20.62 -8.77,1.23 -17.47,0.61 -26.13,-0.59 -11,-1.53 -21.91,-3.59 -32.89,-5.2 a 176.53,176.53 0 0 0 -20.46,-2.25 94.53,94.53 0 0 0 -16.75,1.46 c -12.46,1.85 -24.85,4.15 -37.32,5.94 -8.65,1.24 -17.36,1.87 -26.12,0.71 -17.23,-2.28 -28.41,-12 -34.19,-28 -1.81,-5 -2.64,-10.36 -3.92,-15.56 a 2.1,2.1 0 0 1 -0.11,-1.44 z"
         id="path364" />
      <path
         class="cls-7"
         d="m 393.63,235.34 c -0.63,1.64 0.18,3 1.12,4.12 5,6.11 8.43,13 11.37,20.28 1.48,3.65 3,7.3 4.48,10.93 a 30.6,30.6 0 0 1 2.33,10.43 50.34,50.34 0 0 0 0.82,6.23 88.74,88.74 0 0 1 1.34,19.25 c 0,0.22 -0.22,0.42 -0.53,1 a 10.34,10.34 0 0 1 -1.47,-1.94 c -3.42,-8.08 -7.31,-16 -12.82,-22.78 a 67.26,67.26 0 0 0 -14.59,-13.71 c -5.55,-3.68 -12,-6.72 -19.14,-5.78 -5.76,0.76 -11.55,1.75 -15.85,6.3 a 10,10 0 0 0 -0.89,1.39 8.51,8.51 0 0 0 5.39,0.7 c 4.37,-0.94 8.69,0.64 12.63,2.24 5,2 9.91,4.75 13.37,9.1 3.67,4.62 7.67,9.11 9.64,14.86 a 16.73,16.73 0 0 1 0.35,2.32 c -2.27,-1.27 -3.92,-2.6 -5.8,-3.16 -4.93,-1.45 -9.94,-2.66 -15,-3.76 a 49.55,49.55 0 0 0 -9.49,-1.41 c -7.84,-0.15 -15.44,0.89 -21,7.3 -1.05,1.22 -1.39,3 -2.05,4.6 a 19.17,19.17 0 0 1 -9,7.5 c -0.83,-1.27 -1.93,-0.84 -3,-0.41 -8.51,3.53 -16.61,7.74 -22.93,14.68 a 35,35 0 0 0 -6.51,10.66 c -3.14,7.78 -2.89,15.77 -2.86,23.83 0,0.62 0,1.25 0,1.87 0,0.22 -0.18,0.42 -0.4,0.9 a 50.05,50.05 0 0 1 -1.1,-15.11 28.17,28.17 0 0 0 0,-4.5 c -0.57,-8 0.86,-15.76 3.24,-23.37 A 152.67,152.67 0 0 1 302,303 c 2.21,-4.9 5.94,-8.4 9.1,-12.41 a 89.69,89.69 0 0 1 11.9,-12.78 118.14,118.14 0 0 0 9.64,-9.61 c 7.66,-8.17 15.35,-16.32 23,-24.51 2.89,-3.09 5.53,-6.41 8.54,-9.36 a 12.52,12.52 0 0 1 5.28,-3.11 c 2.58,-0.7 5.09,-3 8,-1.09 5.68,-0.88 10.25,1.46 14.45,4.94 0.39,0.32 1.15,0.17 1.74,0.25 z"
         id="path366" />
      <path
         class="cls-7"
         d="m 241.88,425.33 a 59.74,59.74 0 0 1 -3.47,11.45 58.27,58.27 0 0 1 -3.33,8.37 58.22,58.22 0 0 1 -0.68,-6 c -0.09,-6 0.17,-12 -0.09,-18 -0.26,-6 1.25,-11.74 2.57,-17.54 1.69,-7.42 2.83,-15 4.27,-22.43 0.33,-1.69 1.09,-3.29 1.42,-5 0.83,-4.35 1.34,-8.77 2.33,-13.08 1.7,-7.36 1.69,-14.81 1.4,-22.24 -0.2,-5 -1.3,-10 -1.62,-15.09 -0.32,-5.09 -2.35,-9.8 -3.73,-14.63 a 47.23,47.23 0 0 0 -3.91,-8.69 c -5.47,-10.29 -14.07,-17.24 -24.11,-22.77 a 43.56,43.56 0 0 0 -11.44,-4.63 61.71,61.71 0 0 0 -19.53,-0.81 c -7.08,0.68 -13.73,3 -20.62,4.28 a 35.21,35.21 0 0 0 -11.4,3.82 c -1.45,0.86 -3.41,0.86 -5.24,1.27 -0.92,-4.5 0.12,-8.36 0.86,-12.21 1,-5.44 2,-10.9 3.35,-16.27 2.05,-8.27 5.67,-15.84 13.61,-19.83 a 20.25,20.25 0 0 1 14.11,-1.67 c 0.45,0.11 1,-0.24 1.54,-0.38 3.51,-1.21 5.84,1.38 8.33,2.89 9.1,5.47 17.12,12.4 24.72,19.76 4.45,4.31 8.45,9.08 12.56,13.74 3.88,4.4 7.1,9.68 12.69,12.39 a 1.57,1.57 0 0 1 1,1.21 c 0.18,0.54 0.2,1.27 0.57,1.58 a 5.46,5.46 0 0 0 2.26,1.15 c 5.48,1.19 5.72,5.56 6.07,9.87 a 6.66,6.66 0 0 1 0,1.48 c -0.39,3.38 0.07,6.39 3.13,8.53 0.4,0.28 0.43,1.09 0.64,1.66 a 1.89,1.89 0 0 1 -0.87,0.54 c -1.89,-0.08 -1.91,1 -1.56,2.41 1.24,5 3.21,9.6 7.2,13.1 2,3 2,6.47 1.87,9.76 a 257.48,257.48 0 0 1 -4.36,37.11 c -3.22,16.5 -6.44,33 -9.76,49.5 -0.37,1.79 -1.66,3.45 -0.78,5.4 z"
         id="path368" />
      <path
         class="cls-8"
         d="m 393.65,235.32 a 28.43,28.43 0 0 0 -11.78,-10.6 c -4.84,-2.4 -9.52,-1.3 -14,1.14 -6.72,3.69 -12.46,8.71 -18.12,13.82 -8.3,7.48 -15,16.38 -21.9,25 q -5.75,7.17 -11.79,14.07 a 16.22,16.22 0 0 1 -4.62,3.71 8.82,8.82 0 0 1 -10.81,-2.4 c -2.32,-2.93 -2.27,-7.67 0.49,-11.15 2.76,-3.48 5.78,-6.89 8.87,-10.16 11.4,-12.07 22.78,-24.16 34.37,-36.05 a 94.89,94.89 0 0 1 17.94,-14.68 38.41,38.41 0 0 1 14.7,-5.22 15.69,15.69 0 0 1 13.47,4.2 c 4.92,4.44 8.3,10 11.09,15.86 5.47,11.58 8.83,23.84 11.19,36.38 1,5.11 1.65,10.26 2.42,15.4 0.07,0.43 -0.22,0.91 -0.54,2.06 -0.53,-1.15 -0.83,-1.7 -1,-2.28 -4.36,-12.54 -9.54,-24.69 -17.05,-35.72 a 35.32,35.32 0 0 0 -2.92,-3.33 z"
         id="path370" />
      <path
         class="cls-8"
         d="m 237.46,283.28 -0.33,-0.67 c -5.46,-2.31 -8.28,-7.42 -11.88,-11.59 -14,-16.19 -30.21,-35.13 -52,-40.52 -28,-6.94 -33.86,26.86 -44.3,43.77 a 13.06,13.06 0 0 1 -0.3,-5.55 c 2,-14.69 4.71,-29.2 11.57,-42.57 a 47.87,47.87 0 0 1 10.23,-13.72 c 7,-6.41 15,-7.32 23.71,-4.59 6.14,1.92 11.3,5.71 16.8,8.89 18.27,10.59 32.09,26 45.73,41.61 3.11,3.57 6.07,7.28 9.15,10.88 2.47,2.87 2.51,6.29 1.68,9.55 -1.22,4.84 -4.91,6.3 -10.06,4.51 z"
         id="path372" />
      <path
         class="cls-9"
         d="m 319.88,534.86 q -12.78,-2.29 -25.57,-4.58 c -6.45,-1.16 -12.79,-0.32 -19.23,0.55 -4.1,0.56 -8.44,0 -12.59,-0.67 a 46.69,46.69 0 0 0 -15.2,0.25 q -12.24,2.13 -24.46,4.44 c -2.91,0.56 -5.76,1.43 -8.64,2.16 -1.06,-1.41 0,-2.4 0.82,-3.23 10.71,-10.62 22.93,-18.08 38.63,-17.92 a 42.13,42.13 0 0 1 13.28,1.89 15.35,15.35 0 0 0 9.15,0 c 12.82,-3.36 25.21,-2.47 36.91,4.22 5.46,3.12 10.12,7.27 14.74,11.47 1,0.89 2.08,1.93 1.16,3.54 l -8.05,-1.62 a 1.52,1.52 0 0 1 -0.95,-0.5 z"
         id="path374" />
      <path
         class="cls-10"
         d="m 306.44,475.36 c -2.19,1.4 -4.42,2.74 -6.57,4.21 -3.59,2.47 -7,5.19 -10.73,7.5 -11.71,7.3 -23.45,6.46 -34.92,-0.57 -3.59,-2.2 -6.81,-5 -10.25,-7.49 -1.5,-1.08 -3.11,-2 -4.68,-3 0.18,-0.18 0.53,-0.49 0.52,-0.5 -1.86,-2.19 -3.52,-4.58 -6.66,-5.17 -5.15,-1 -8.15,-4.58 -10.27,-8.94 -1.84,-3.78 0.51,-7.38 4.68,-7.6 7,-0.38 11,3.32 11.33,10.26 a 10.35,10.35 0 0 0 4.76,8.74 62.45,62.45 0 0 0 17.24,8.52 39.67,39.67 0 0 0 26.2,-0.95 51.29,51.29 0 0 0 12.28,-6.88 15.1,15.1 0 0 0 6.3,-10.08 c 0.59,-4 1.91,-7.65 6.23,-8.86 a 19.36,19.36 0 0 1 7,-0.59 c 2.1,0.19 3,2.22 3.21,4.1 a 8.06,8.06 0 0 1 -2,6.53 19.43,19.43 0 0 1 -9.84,6.42 c -2.27,0.58 -3.87,1.79 -3.83,4.35 z"
         id="path376" />
      <path
         class="cls-5"
         d="m 328.9,311.33 9,-7.5 a 7.16,7.16 0 0 0 1.69,-0.66 40.38,40.38 0 0 1 22.93,-8.5 33.91,33.91 0 0 1 13.38,1.55 c 6.42,2.31 10.85,7 14,12.77 1.79,3.34 2.76,7.13 3.93,10.77 a 5.32,5.32 0 0 1 -0.35,2.82 c -2.46,8.4 -7.7,14.55 -15.28,18.82 a 39,39 0 0 1 -19.44,5.29 83.1,83.1 0 0 1 -25,-3.21 c -5.42,-1.67 -10.61,-4.07 -15.9,-6.17 -2.3,-0.91 -4.59,-1.83 -6.87,-2.81 a 2.62,2.62 0 0 1 -0.77,-4.45 c 4.78,-4.9 9.51,-9.84 14.31,-14.72 1.39,-1.4 2.92,-2.67 4.37,-4 z"
         id="path378" />
      <path
         class="cls-5"
         d="m 188.72,346.44 c -7.83,0.93 -15,-1 -21.66,-4.48 a 32.28,32.28 0 0 1 -16.47,-19.79 c -0.8,-2.58 0.42,-4.86 1.22,-7.2 2.49,-7.23 6.7,-13.2 13.31,-17.16 a 18,18 0 0 1 7.59,-2.75 c 6.65,-0.44 13.27,-0.75 19.88,1.59 9,3.2 16.42,8.64 23.14,15.17 6,5.79 11.74,11.72 17.61,17.59 a 10.61,10.61 0 0 1 1.06,1.06 c 1.33,1.75 0.94,3.2 -1.11,4.06 -2.05,0.86 -3.9,1.6 -5.87,2.34 -6.11,2.32 -11.78,5.72 -18.32,7 -6.8,1.33 -13.48,3.46 -20.38,2.57 z"
         id="path380" />
      <path
         class="cls-11"
         d="m 302.92,433.19 c -1.57,-6.18 -3.2,-12.34 -4.7,-18.53 -1.54,-6.34 -3.07,-12.69 -4.4,-19.08 -1.67,-8 -3.32,-15.93 -4.63,-23.95 -1.26,-7.79 -2.32,-15.63 -3,-23.49 a 145.15,145.15 0 0 1 -0.64,-20.1 c 0.3,-5.71 2,-11.28 6.43,-15.77 a 9.4,9.4 0 0 1 0,3.05 57.38,57.38 0 0 0 -3.45,24.46 c 0.49,6.64 1.44,13.25 2.39,19.85 0.75,5.11 1.82,10.18 2.76,15.27 1.12,6.06 2.22,12.12 3.4,18.17 1.83,9.43 3.84,18.82 5.52,28.28 0.69,3.85 0.7,7.83 1,11.75 z"
         id="path382" />
      <path
         class="cls-11"
         d="m 241.88,425.33 c -0.22,-1 -0.77,-2.09 -0.61,-3 q 1.68,-9.84 3.62,-19.61 c 1.5,-7.62 3.19,-15.19 4.68,-22.81 0.81,-4.1 1.37,-8.25 2.07,-12.38 0.51,-3 1.14,-6.05 1.57,-9.1 0.55,-3.78 1,-7.58 1.41,-11.38 0.49,-4.54 1.35,-9.1 1.19,-13.63 -0.11,-3.33 0.22,-7 -1.9,-10 -1.88,-4.24 -3,-8.76 -4.89,-13 a 2.63,2.63 0 0 1 0.27,-2.78 h 0.84 a 36.81,36.81 0 0 1 7.39,15.2 c 1.24,6.27 2.3,12.6 1.07,19.09 -0.61,3.26 -0.57,6.65 -1,10 -0.75,6.12 -1.52,12.23 -2.45,18.32 -0.8,5.23 -1.79,10.42 -2.81,15.61 -0.79,4 -1.61,8 -2.67,11.86 -2.5,9.13 -5.17,18.36 -7.78,27.61 z"
         id="path384" />
      <path
         class="cls-11"
         d="m 157.68,295.5 c 0.5,-3.15 3.07,-4.21 5.06,-5.68 a 44.06,44.06 0 0 1 29.74,-8.49 c 4.25,0.27 8.16,1.91 12,3.51 7.53,3.12 13.91,8 19.67,13.7 5,4.89 7.11,8.21 8.58,12.74 -0.75,-0.32 -1.4,-0.39 -1.67,-0.74 -6.92,-9.23 -16.43,-14.94 -26.78,-19.37 a 79.63,79.63 0 0 0 -12.72,-3.91 34.17,34.17 0 0 0 -17.27,0.44 50.53,50.53 0 0 0 -15.43,7.17 9.89,9.89 0 0 1 -1.18,0.63 z"
         id="path386" />
      <path
         class="cls-12"
         d="m 213.32,534.11 c 3.71,-3.08 7.28,-6.36 11.17,-9.21 8.17,-6 17.14,-9.83 27.55,-9.6 5.71,0.13 11.34,0.33 16.89,2.09 1.85,0.59 4.21,0.14 6.2,-0.38 a 56.59,56.59 0 0 1 20.69,-1.52 44.93,44.93 0 0 1 22.42,9.15 c 3.14,2.41 6.09,5.07 9.17,7.56 a 12,12 0 0 0 2.23,1.15 c 1.59,1.29 -0.13,2.84 0.33,4.22 l -1.09,-0.54 c -1.27,-1.61 -2.33,-3.48 -3.86,-4.78 -5.38,-4.61 -10.75,-9.33 -17.53,-11.8 A 74.18,74.18 0 0 0 296.8,517.6 c -8.11,-1.62 -16,-0.12 -23.86,1.93 -1.85,0.48 -4.12,-0.3 -6.13,-0.8 -15.19,-3.84 -29.28,-1.82 -41.88,7.89 -3.25,2.5 -6.32,5.22 -9.38,8 a 8.82,8.82 0 0 0 -1.36,2.44 c -1.89,-0.6 -2,-0.97 -0.87,-2.95 z"
         id="path388" />
      <path
         class="cls-5"
         d="m 333,449.88 c 1.29,6.29 2.49,12.51 -1.59,18.43 -1.74,2.53 -4.29,3.68 -6.86,4.82 a 10.23,10.23 0 0 1 -4.43,0.57 c 4.53,-2.18 8.41,-4.86 10.83,-9.44 2.42,-4.58 1.3,-9.6 2.05,-14.38 z"
         id="path390" />
      <path
         class="cls-5"
         d="m 213,450.61 c -0.51,10.34 2.21,18.74 13.63,22.81 a 12.44,12.44 0 0 1 -12,-5.38 c -3.54,-5.43 -3.24,-11.38 -1.63,-17.43 z"
         id="path392" />
      <path
         class="cls-5"
         d="m 212.63,361.57 0.84,-0.71 0.24,0.47 -1.1,0.22 z"
         id="path394" />
      <path
         class="cls-5"
         d="m 332.53,362.91 -0.29,0.57 c -0.08,-0.08 -0.24,-0.19 -0.22,-0.25 a 2.76,2.76 0 0 1 0.27,-0.58 z"
         id="path396" />
      <path
         class="cls-13"
         d="m 153.85,461.36 0.11,1.44 z"
         id="path398" />
      <path
         class="cls-12"
         d="m 319.88,534.86 c 0.32,0.18 0.64,0.36 0.95,0.55 -0.31,-0.19 -0.63,-0.41 -0.95,-0.55 z"
         id="path400" />
      <path
         class="cls-5"
         d="m 334.14,364.56 -0.52,-0.29 z"
         id="path402" />
      <path
         class="cls-5"
         d="m 334.89,365.31 -0.75,-0.75 v 0 z"
         id="path404" />
      <polygon
         class="cls-5"
         points="330.87,361.9 330.75,362.07 330.68,361.87 "
         id="polygon406" />
      <polygon
         class="cls-11"
         points="154.53,297.53 154.36,297.41 154.56,297.34 "
         id="polygon408" />
      <path
         class="cls-11"
         d="m 308.6,314.3 c 3.43,-9.62 10,-16.55 17.82,-22.38 a 53.46,53.46 0 0 1 21.58,-10.1 38.14,38.14 0 0 1 15.85,0.52 c 7.9,1.77 14.6,5.91 20.79,10.94 a 2.75,2.75 0 0 1 0.83,2.16 10,10 0 0 1 -2.5,-1 c -5.3,-4.15 -11.54,-6.36 -17.93,-7.53 a 38.83,38.83 0 0 0 -17,0.89 74.76,74.76 0 0 0 -19.47,8.2 c -7.25,4.39 -14.31,9.49 -18.72,17.22 -0.21,0.43 -0.85,0.71 -1.25,1.08 z"
         id="path410" />
      <path
         class="cls-4"
         d="m 249.29,307.56 c 0.87,2.42 1.85,4.8 2.56,7.27 0.81,2.8 1.38,5.67 2.06,8.51 -1.36,-1.33 -3.24,-2.41 -4,-4 -1.67,-3.67 -3.49,-7.39 -3.54,-11.59 a 9,9 0 0 1 0.29,-1.52 z"
         id="path412" />
      <path
         class="cls-14"
         d="m 315.9,330.66 c 3.64,-3.85 7,-7.86 10.83,-11.34 4.88,-4.43 10.08,-8.5 15.26,-12.58 a 33.81,33.81 0 0 1 18.4,-7.47 62.54,62.54 0 0 1 9.58,-0.06 c 6.44,0.49 10.54,4.88 14.09,9.56 1.91,2.52 2.82,5.8 4.19,8.72 a 6.8,6.8 0 0 1 -0.37,6.43 c -5.54,10.56 -14,16.74 -26,18.28 -16.32,2.09 -31,-2.53 -44.86,-10.57 a 10.18,10.18 0 0 1 -1.12,-0.97 z"
         id="path414" />
      <path
         class="cls-14"
         d="m 228.56,330.74 c -4.45,3.6 -9.37,5.52 -14.23,7.26 -8.79,3.15 -17.9,5.24 -27.36,4.8 -8.95,-0.42 -17.24,-3 -23.67,-9.45 -2.84,-2.87 -4.89,-6.55 -7.12,-10 a 5.41,5.41 0 0 1 -0.57,-3.23 c 0.88,-9.31 10.13,-21 21.09,-21.51 a 39.2,39.2 0 0 1 16.05,2.76 c 5.65,2.18 10.5,5.62 15.1,9.43 3.83,3.17 7.66,6.38 11.25,9.81 3.23,3.12 6.13,6.55 9.46,10.13 z"
         id="path416" />
      <path
         class="cls-8"
         d="m 207.57,318.53 a 15.38,15.38 0 0 0 -17,-8.74 c -6.62,1.25 -13.12,7.7 -12.36,15.75 0.36,10.62 10.29,17.65 20.25,14.14 5.42,-1.92 9.27,-5.46 9.9,-11.61 1.51,-3.33 0.57,-6.53 -0.79,-9.54 z"
         id="path418" />
      <path
         class="cls-8"
         d="m 366.21,318.53 a 15.39,15.39 0 0 0 -17,-8.74 c -6.62,1.25 -13.11,7.7 -12.35,15.75 0.36,10.62 10.29,17.65 20.25,14.14 5.42,-1.92 9.27,-5.46 9.9,-11.61 1.49,-3.33 0.56,-6.53 -0.8,-9.54 z"
         id="path420" />
      <path
         class="cls-5"
         d="m 254.33,550.51 a 24.54,24.54 0 0 1 8.59,-5.73 28.56,28.56 0 0 1 15.6,-1.69 26.54,26.54 0 0 1 5.07,1.54 l 1.21,0.52 a 5.84,5.84 0 0 1 1.17,0.59 c 0.76,0.45 1.5,0.91 2.23,1.38 a 14.21,14.21 0 0 1 2,1.61 c 0.64,0.58 1.27,1.16 1.86,1.78 -0.84,-0.25 -1.64,-0.54 -2.42,-0.83 a 19.67,19.67 0 0 0 -2.34,-0.82 c -0.8,-0.22 -1.57,-0.46 -2.34,-0.7 -0.77,-0.24 -1.58,-0.35 -2.34,-0.55 a 44.64,44.64 0 0 0 -4.67,-0.79 c -0.79,-0.06 -1.57,-0.09 -2.35,-0.14 a 16.76,16.76 0 0 0 -2.35,0 47.55,47.55 0 0 0 -9.43,1.1 80,80 0 0 0 -9.49,2.73 z"
         id="path422" />
    </g>
  </g>
</svg>
