<svg xmlns="http://www.w3.org/2000/svg" width="356" height="569" viewBox="0 0 355.879 568.6"><path d="M177.94 0l-.193 17.604h-71.17V35.4h-16.89v35.963h16.89v18h-71.17v17.217H17.61v17.875L0 124.557v302.497l17.66-.127.138-269.207-.138 269.467h.255v17.54h17.54v.255h.263v17.872H159.64v17.708h-17.393v17.75h-17.245V568.6h53.284v-16.917h16.484c2.27-6.253-.643-12.417 2.012-17.526 5.8-1.17 11.434.96 16.234-1.24 1.424-5.916-.81-11.56 1.446-16.42 5.852-1.347 11.48.787 16.527-1.448 1.1-11.78-.694-23.174.976-34.143 6.102-1.253 11.713.668 16.727-1.355 1.205-5.834-.71-11.44 1.518-17.077 11.613.742 22.94-.754 34.012.845 1.273 5.996-.64 11.61 1.45 17.014h16.72l.003-27.436-.003 27.643h.213v17.7h53.273v-71.176h-16.803c-2.063-5.445-.287-10.99-1.293-16.743-5.155-2.605-11.24.213-17.055-1.84v-17.005h35.15v-53.382l-17.61-.184v.19l-.19-.193h.19v-16.56c-5.684-2.107-11.253-.323-17.26-1.476V231.57h17.26V213.7l-.19.002.19-.192v.2l17.61-.183v-53.382h-35.166V142.45h17.266v-17.79h.21v-.206l17.69.102V88.97l-17.69.102v-.206h-.21V72.31c-5.35-2.662-11.405.1-17.57-2.03V53.172h-17.723V35.4H284.9V17.903h-17.857l-.001-.23-.236.003-35.4.478 35.4-.478L266.9.002 177.94 0zm-58.55 213.458l.516-.026c-.173.013-.343.016-.516.026zm2.217-.198c.188-.02.374-.032.562-.058-.19.026-.375.037-.562.058zm-4.264.3c.105-.003.21-.002.315-.004l-.315.004zm17.71-17.792l.404-.006-.404.006zm2.062-.09l.587-.03c-.197.016-.39.02-.587.03zm2.24-.2l.61-.063c-.204.027-.405.04-.61.063zm13.47-17.47l.255-.001c-.085.002-.17 0-.255.001zm1.918-.073l.48-.02c-.16.01-.32.012-.48.02zm2.05-.175c.182-.02.366-.03.548-.055-.182.025-.366.035-.548.055zm-14.28.078c-.023 0-.047-.001-.07-.001l.07.001zm-35.594 35.595h-.063.063zm-.267.197l.003 17.443-.003-17.443zm70.95 37.89c.032.22.045.438.073.656-.028-.218-.042-.435-.073-.656zm.247 2.264c.016.2.02.4.032.602l-.032-.602zm.12 2.248l.004.37-.004-.37zm-.133 10.77v.024-.024zm-35.64-159.873l-45.22-.03 45.22.03-.213 17.657.213-17.657zM17.898 124.64l-.042 11.502.042-11.502zm266.586 142.164l.37-17.564-.37 17.564zM284.7 35.6l-17.57-.198 17.57.198z" fill="#231f20" fill-rule="evenodd"/></svg>