<svg xmlns="http://www.w3.org/2000/svg" width="214" height="144" viewBox="0 0 213.806 143.446"><path d="M201.123 100.3c1.908 5.03-36.796 22.48-40.104 23.7-31.4 11.573-60.215 9.623-86.825-11.677-7.998-6.4-38.734-69.026-61.687-81.086 0-14.535 140.442-57.215 188.616 69.063z" fill="#abd830"/><path d="M189.07 103.633l.01-5.86c1.178-2.428 1.438-3.11.78-2.054 2.042-3.15 1.555-1.967.636-1.09-.607.58-2.438 1.932.538-.328l-1.87 1.316c-3.384 2.307-7.003 4.276-10.607 6.21-6.713 3.6-13.604 6.895-20.562 9.992l-1.482.65c-1.86.808 3.174-1.32 1.597-.674-2.27.933-4.645 1.652-6.982 2.396-6.277 1.997-12.974 3.496-19.088 4.053-12.1 1.104-23.46-.565-34.43-5.77-5.14-2.44-10.45-5.498-14.81-9.178-.62-.524-1.144-1.176-1.66-1.8-1.366-1.654 2.003 2.66.62.788-.517-.7-1-1.418-1.503-2.135-4.47-6.492-8.476-13.315-12.622-20.016-10.54-17.03-21.323-34.648-35.362-49.068-3.948-4.055-8.475-7.9-13.457-10.612l6.19 10.793c-.093 2.75-.152 2.334-1.377 5.018.48-1.05 2.142-2.73-1.143 1.31.322-.396.694-.75 1.068-1.097 2.03-1.872-3.012 2.14-.594.438 1.248-.88 2.585-1.63 3.936-2.34.79-.415 1.595-.798 2.403-1.173 3.256-1.513-2.84 1.104.64-.284 4.582-1.827 9.333-3.22 14.12-4.398 2.67-.656 5.368-1.2 8.073-1.708 1.43-.264 2.867-.495 4.304-.716.82-.126 3.533-.495-.363.027l3.027-.368c6.707-.766 13.464-1.048 20.21-.945 3.44.053 6.878.25 10.307.534 1.754.146 3.505.338 5.253.546 3.083.368-2.88-.416.207.03a140.79 140.79 0 0 1 3.548.569c7.603 1.292 15.077 3.285 22.34 5.864 1.797.638 3.572 1.337 5.338 2.056-2.977-1.212 2.356 1.09 3.194 1.486 3.872 1.832 7.62 3.915 11.274 6.15 10.21 6.248 18.06 13.16 27.044 23.928.273.327 3.086 3.917 1.64 2.018 1.2 1.575 2.344 3.192 3.474 4.818 2.1 3.038 4.06 6.185 5.927 9.375 4.256 7.268 7.584 14.448 10.21 21.25 2.45 6.35 8.31 10.674 15.377 8.73 6.075-1.672 11.187-9.012 8.73-15.377-8-20.73-18.935-39.94-34.425-56.016-12.95-13.44-28.66-23.332-45.8-30.466C105.157-1.068 73.424-2.38 44.09 3.168c-9.885 1.87-19.575 4.852-28.644 9.236-7.62 3.684-15.13 9.7-15.44 18.843-.144 4.256 2.456 8.76 6.19 10.793 1.396.76 2.715 1.613 4.005 2.543-2.885-2.08 1.568 1.435 2.3 2.104 3.33 3.084 6.315 6.536 9.194 10.037 2.3 2.785 4.143 5.31 7.26 9.725 3.07 4.347 6 8.8 8.888 13.258 8.605 13.317 15.864 28.63 26.51 40.494 3.576 3.985 8.926 7.08 13.446 9.908 6.34 3.966 13.362 6.984 20.443 9.343 13.453 4.48 27.94 4.827 41.855 2.832 18.294-2.622 34.91-10.293 51.085-18.87 9.8-5.19 25.328-12.86 22.004-26.427-3.835-15.653-27.944-9.01-24.107 6.647z" fill="#96c22d"/></svg>