<svg xmlns="http://www.w3.org/2000/svg" width="532" height="506" viewBox="0 0 531.167 505.246" fill="#f67443"><path d="M516.167 269.984c0 121.404-98.416 219.82-219.82 219.82h-61.526C113.418 489.805 15 391.388 15 269.984v-35.146c0-121.404 98.417-219.822 219.82-219.822h61.526c121.403 0 219.82 98.417 219.82 219.822z"/><path d="M501.167 269.984a243.47 243.47 0 0 1-.631 16.783l-.78 8.266-.153 1.473-.82 5.417c-1.793 11.124-4.548 22.082-8.033 32.792-1.65 5.074-3.533 10.07-5.552 15.008 1.27-3.11-.42.952-.57 1.302l-1.638 3.624c-1.288 2.805-2.66 5.57-4.065 8.316-4.993 9.762-10.804 19.095-17.193 28l-2.33 3.168c-2.6 3.488 1.832-2.304-.848 1.12a217.77 217.77 0 0 1-4.97 6.085c-3.65 4.34-7.507 8.504-11.48 12.548-3.67 3.734-7.5 7.304-11.424 10.768-1.963 1.733-3.972 3.413-5.994 5.075l-3.14 2.517-2.098 1.572c-8.79 6.548-18.116 12.354-27.777 17.52-4.667 2.494-9.445 4.776-14.28 6.927l-1.302.57-3.703 1.487c-2.896 1.143-5.826 2.196-8.768 3.214-10.63 3.677-21.57 6.428-32.636 8.424-2.694.486-5.4.896-8.1 1.28 3.448-.49-1.083.107-1.472.153l-4.122.428c-6.018.588-12.063.87-18.107.966-11.686.184-23.384.018-35.07.018-12.094 0-24.216.23-36.307-.1-21.797-.616-41.38-4.353-64.014-12.492-2.507-.902-4.99-1.872-7.46-2.865-4.094-1.644 2.73 1.198-1.317-.543l-3.635-1.616c-5.22-2.358-10.322-4.97-15.34-7.73-4.612-2.537-9.108-5.28-13.525-8.142-2.204-1.428-4.37-2.913-6.52-4.42l-3.197-2.294c-.454-.33-4.802-3.614-2.196-1.6-8.63-6.672-16.7-14.055-24.25-21.924-3.625-3.778-7.08-7.716-10.427-11.74l-2.476-3.05-.872-1.1c-1.857-2.433-3.642-4.92-5.396-7.426-6.292-8.992-11.825-18.503-16.702-28.33-1.177-2.372-2.3-4.775-3.38-7.188L45.5 348.6c1.33 3.092-.373-.98-.514-1.332-2.157-5.372-4.05-10.847-5.774-16.372-3.364-10.785-5.783-21.852-7.44-33.02-.67-4.506.37 3.07-.186-1.462l-.454-4.114c-.287-2.76-.496-5.526-.68-8.295-.315-4.77-.44-9.554-.44-14.334v-34.82c0-5.602.227-11.197.63-16.783.2-2.76.477-5.515.78-8.266.042-.388.62-4.924.153-1.472.245-1.8.53-3.614.82-5.417 1.793-11.124 4.548-22.082 8.033-32.792 1.65-5.074 3.534-10.07 5.552-15.007-1.27 3.11.42-.953.572-1.302l1.638-3.624c1.288-2.805 2.66-5.57 4.065-8.317 4.993-9.762 10.803-19.095 17.193-28l2.33-3.168c2.6-3.488-1.832 2.304.848-1.12 1.614-2.063 3.283-4.082 4.97-6.085 3.652-4.34 7.507-8.503 11.48-12.548 3.668-3.734 7.5-7.304 11.424-10.768 1.963-1.733 3.972-3.413 5.995-5.075l3.14-2.517 2.098-1.573c8.788-6.547 18.116-12.354 27.777-17.518 4.667-2.495 9.446-4.777 14.28-6.927l1.302-.572 3.703-1.487c2.896-1.143 5.826-2.196 8.768-3.214 10.63-3.677 21.57-6.428 32.637-8.425 2.693-.486 5.4-.896 8.11-1.28-3.448.5 1.083-.107 1.472-.153l4.122-.428c6.02-.587 12.063-.87 18.108-.966 23.743-.373 47.64-.58 71.377.093 21.797.616 41.38 4.353 64.014 12.493 2.507.902 4.988 1.872 7.46 2.865 4.093 1.644-2.73-1.198 1.316.543l3.636 1.616c5.22 2.36 10.32 4.97 15.34 7.73 4.612 2.537 9.108 5.28 13.525 8.142 2.204 1.427 4.37 2.914 6.52 4.42l3.196 2.294c.454.33 4.802 3.615 2.196 1.6 8.63 6.672 16.7 14.055 24.25 21.924 3.625 3.778 7.08 7.715 10.427 11.74l2.477 3.05.872 1.1c1.856 2.432 3.642 4.92 5.396 7.426 6.292 8.992 11.824 18.502 16.702 28.33 1.177 2.372 2.3 4.776 3.38 7.188l1.595 3.647c-1.33-3.09.373.98.515 1.332 2.157 5.372 4.05 10.847 5.773 16.373 3.363 10.785 5.783 21.85 7.44 33.02.668 4.505-.37-3.07.186 1.46l.454 4.114c.286 2.76.495 5.527.678 8.295.315 4.77.44 9.554.44 14.334l-.003 34.82c0 19.346 30 19.346 30 0v-34.82c0-22.465-3.203-45.064-9.494-66.63-12.77-43.77-38.9-83.646-73.76-112.985-36.41-30.642-80.676-49.065-127.888-54.27-13.766-1.518-27.6-1.26-41.42-1.26h-41.803c-43.198 0-85.628 11.2-122.763 33.404-38.94 23.283-70.965 58.35-90.636 99.216C13.3 153.624 6.25 175.94 2.83 198.984.2 216.63 0 234.142 0 251.914c0 17.662.254 35.008 2.636 52.566 3.138 23.132 10.35 45.396 20.2 66.51 19.2 41.174 51.474 76.017 90.078 99.73 37.006 22.732 80.216 34.086 123.524 34.086 27.25 0 55.053 1.533 82.212-1.117 47.375-4.624 91.537-23.41 128.255-53.577 53.323-43.808 84.045-111.4 84.26-180.127.062-19.348-29.938-19.342-30 0z"/></svg>