<svg xmlns="http://www.w3.org/2000/svg" width="229" height="273" viewBox="0 0 228.161 272.361"><path d="M167.982 201.273c-2.15 6.513-54.474-7.278-58.726-8.726C68.9 178.8 41.92 153.74 32.67 111.296 29.89 98.54 30.826 14.8 12.243 12.58c.016.003 209.404 25.007 155.74 188.692z" fill="#b4e935"/><g fill="#96c22d"><path d="M157.19 194.965c.05-.116 2.68-2.99 3.554-3.513 2.896-1.726 2.93-1.103 1.525-.778-2.03.47 3.584-.367 1.3-.204-.613.044-1.23.04-1.845.04-1.472.001-2.944-.12-4.41-.247l-2.505-.268c-1.383-.175-1.164-.143.655.095l-1.854-.275c-8.308-1.26-16.533-3.097-24.702-5.04-16.16-3.845-29.265-8.29-43.293-16.9-16.87-10.367-29.93-26.4-36.6-44.775-1.82-5.01-3.275-10.203-4.355-15.424-.676-3.27.182 1.75.03.477-.155-1.308-.266-2.62-.375-3.934-.576-6.89-.9-13.804-1.35-20.705-1.08-16.878-2.372-33.897-5.73-50.5C34.867 21.296 29.727 2.717 15.568.53l-3.323 24.554c2.218.267-4.783-.686-.784-.096 2.253.332 4.5.71 6.742 1.113 7.838 1.406 15.613 3.167 23.315 5.188 10.77 2.825 21.387 6.244 31.774 10.255l4.116 1.635 2.07.853c2.522 1.047-2.735-1.167-.215-.085 3.048 1.307 6.063 2.688 9.056 4.12 5.915 2.828 11.695 5.935 17.326 9.292a178.57 178.57 0 0 1 15.981 10.747c2.287 1.72-2.226-1.747.027.02l1.894 1.518a149.95 149.95 0 0 1 3.718 3.129c2.456 2.124 4.822 4.35 7.126 6.638 2.312 2.297 4.518 4.698 6.65 7.163 1.07 1.236 2.103 2.505 3.122 3.783 1.802 2.26-1.696-2.243.045.07l1.455 2c3.895 5.406 7.25 11.188 10.104 17.207l1.053 2.316c1.213 2.727-1.063-2.613.065.162.65 1.598 1.24 3.22 1.813 4.848 1.168 3.332 2.127 6.734 2.958 10.164.428 1.763.788 3.54 1.128 5.32.177.93 1.024 6.675.555 3.09.5 3.82.76 7.667.888 11.515.135 4.064.02 8.134-.225 12.19-.128 2.123-.33 4.24-.554 6.355-.043.4-.498 4.008-.093 1.012l-.495 3.303c-1.5 9.528-3.957 18.9-6.932 28.057-5 15.38 19.153 21.913 24.107 6.646 11.333-34.926 13.158-72.05-1.975-106.057C166.294 72.1 143.943 51.5 119.628 36.595 87.615 16.973 49.61 4.8 12.383.102l-.14-.018C-1.715-1.596-4.954 22.493 8.92 24.638c3.25.502-2.37-1.553-.13-.203 1.733 1.044-2.578-2.188-1.044-.76.38.354.714.76 1.048 1.157-2.86-3.416-.313-.138.28.97.316.592.593 1.205.87 1.815-1.683-3.692-.222-.43.083.416 2.58 7.164 3.843 14.825 4.942 22.33.505 3.448-.34-2.7.113.793l.385 3.137.69 6.355c.463 4.576.836 9.162 1.18 13.75l1.517 23.395c1.164 18.04 5.697 34.802 14.457 50.79 10.99 20.06 28.815 35.684 48.973 46.11 15.23 7.875 31.12 12.292 47.73 15.974 9.007 1.997 18.113 3.704 27.302 4.6 7.278.71 17.988.216 21.46-7.68 2.744-6.237 1.89-13.37-4.484-17.102-5.366-3.148-14.358-1.76-17.102 4.48z"/><path d="M177.343 195.802c-8.964-17.057-19.995-33.192-31.065-48.918-29.125-41.372-62.31-79.902-98.285-115.45-9.16-9.05-18.542-17.872-28.083-26.518C9.578-4.447-5.802 10.84 4.58 20.247c40.36 36.576 78 77.064 110.492 120.4 15.384 20.52 30.166 41.816 42.576 64.298l.976 1.8c6.505 12.38 25.217 1.42 18.72-10.943z"/></g><path d="M218.526 238.944c0 13.138-10.65 23.79-23.79 23.79h-15.222c-13.14 0-23.79-10.652-23.79-23.79v-15.222c0-13.14 10.65-23.79 23.79-23.79h15.222c13.14 0 23.79 10.65 23.79 23.79z" fill="#d3f850"/><path d="M209 238.944c-.23 7.994-6.28 14.042-14.273 14.275-5.064.146-10.154 0-15.222 0-7.996 0-14.047-6.457-14.273-14.275-.146-5.065 0-10.154 0-15.222 0-7.996 6.455-14.047 14.273-14.273 5.066-.146 10.154 0 15.222 0 7.996 0 14.047 6.455 14.273 14.273.147 5.066 0 10.155 0 15.222 0 12.273 19.03 12.273 19.03 0 0-5.968.357-12.047-.16-17.996-1.182-13.6-10.152-23.95-22.592-28.804-7.22-2.817-16.32-1.727-23.93-1.727-11.468 0-21.616 4.383-28.625 13.623-6.086 8.022-6.525 17.202-6.525 26.797 0 9.504.163 18.5 5.735 26.747 6.52 9.652 17.3 14.666 28.8 14.666 7.7 0 15.775.676 23.287-1.313 14.37-3.807 23.604-17.6 24.02-31.994.355-12.28-18.678-12.244-19.032.001z" fill="#96c22d"/></svg>