<svg xmlns="http://www.w3.org/2000/svg" width="532" height="506" viewBox="0 0 531.167 505.246"><path d="M516.167 269.984c0 121.404-98.416 219.82-219.82 219.82h-61.525C113.418 489.805 15 391.388 15 269.984v-35.146c0-121.404 98.417-219.822 219.82-219.822h61.525c121.404 0 219.82 98.417 219.82 219.822z" fill="#ffbf3f"/><path d="M501.167 269.984a243.47 243.47 0 0 1-.631 16.783l-.78 8.266-.153 1.473-.82 5.417c-1.793 11.124-4.548 22.082-8.032 32.792-1.65 5.074-3.534 10.07-5.553 15.008 1.27-3.11-.42.952-.57 1.302l-1.638 3.624c-1.288 2.805-2.66 5.57-4.065 8.316-4.993 9.762-10.804 19.095-17.193 28l-2.33 3.168c-2.6 3.488 1.832-2.304-.848 1.12a217.77 217.77 0 0 1-4.97 6.085c-3.65 4.34-7.507 8.504-11.48 12.548-3.67 3.734-7.5 7.304-11.424 10.768-1.963 1.733-3.972 3.413-5.995 5.075l-3.14 2.517-2.098 1.572c-8.788 6.548-18.115 12.354-27.776 17.52-4.667 2.494-9.445 4.776-14.28 6.927l-1.303.57-3.703 1.487c-2.896 1.143-5.825 2.196-8.767 3.214-10.632 3.677-21.57 6.428-32.637 8.424-2.693.486-5.4.896-8.11 1.28 3.447-.49-1.084.107-1.473.153l-4.122.428c-6.018.588-12.063.87-18.107.966-11.686.184-23.384.018-35.07.018-12.094 0-24.215.23-36.306-.1-21.797-.616-41.38-4.353-64.014-12.492-2.507-.902-4.99-1.872-7.46-2.865-4.094-1.644 2.73 1.198-1.317-.543l-3.635-1.616c-5.22-2.358-10.322-4.97-15.34-7.73-4.612-2.537-9.108-5.28-13.525-8.142-2.204-1.428-4.37-2.913-6.52-4.42l-3.197-2.294c-.454-.33-4.802-3.614-2.196-1.6-8.63-6.672-16.7-14.055-24.25-21.924-3.625-3.778-7.08-7.716-10.427-11.74l-2.476-3.05-.872-1.1c-1.857-2.433-3.642-4.92-5.396-7.426-6.292-8.992-11.825-18.503-16.702-28.33-1.177-2.372-2.3-4.775-3.38-7.188L45.5 348.6c1.33 3.092-.373-.98-.514-1.332-2.157-5.372-4.05-10.847-5.774-16.372-3.364-10.785-5.783-21.852-7.44-33.02-.67-4.506.37 3.07-.186-1.462l-.454-4.114c-.287-2.76-.496-5.526-.68-8.295-.315-4.77-.44-9.554-.44-14.334v-34.82c0-5.602.227-11.197.63-16.783.2-2.76.477-5.515.78-8.266.042-.388.62-4.924.153-1.472.245-1.8.53-3.614.82-5.417 1.793-11.124 4.548-22.082 8.033-32.792 1.65-5.074 3.534-10.07 5.552-15.007-1.27 3.11.42-.953.572-1.302l1.638-3.624c1.288-2.805 2.66-5.57 4.065-8.317 4.993-9.762 10.803-19.095 17.193-28l2.33-3.168c2.6-3.488-1.832 2.304.848-1.12 1.614-2.063 3.283-4.082 4.97-6.085 3.652-4.34 7.507-8.503 11.48-12.548 3.668-3.734 7.5-7.304 11.424-10.768 1.963-1.733 3.972-3.413 5.995-5.075l3.14-2.517 2.098-1.573c8.788-6.547 18.116-12.354 27.777-17.518 4.667-2.495 9.446-4.777 14.28-6.927l1.302-.572 3.703-1.487c2.896-1.143 5.826-2.196 8.768-3.214 10.63-3.677 21.57-6.428 32.637-8.425 2.693-.486 5.4-.896 8.11-1.28-3.448.5 1.083-.107 1.472-.153l4.122-.428c6.02-.587 12.063-.87 18.108-.966 23.743-.373 47.638-.58 71.376.093 21.797.616 41.38 4.353 64.014 12.493 2.507.902 4.99 1.872 7.46 2.865 4.094 1.644-2.73-1.198 1.317.543l3.635 1.616c5.22 2.36 10.322 4.97 15.34 7.73 4.612 2.537 9.108 5.28 13.525 8.142 2.204 1.427 4.37 2.914 6.52 4.42l3.197 2.294c.454.33 4.802 3.615 2.196 1.6 8.63 6.672 16.7 14.055 24.25 21.924 3.625 3.778 7.08 7.715 10.427 11.74l2.477 3.05.872 1.1c1.856 2.432 3.642 4.92 5.396 7.426 6.292 8.992 11.824 18.502 16.702 28.33 1.177 2.372 2.29 4.776 3.38 7.188l1.595 3.647c-1.33-3.09.373.98.515 1.332 2.157 5.372 4.05 10.847 5.773 16.373 3.363 10.785 5.783 21.85 7.44 33.02.668 4.505-.37-3.07.186 1.46l.454 4.114c.286 2.76.495 5.527.678 8.295.315 4.77.44 9.554.44 14.334l-.003 34.82c0 19.346 30 19.346 30 0v-34.82c0-22.465-3.203-45.064-9.494-66.63-12.77-43.77-38.9-83.646-73.76-112.985-36.4-30.642-80.676-49.065-127.89-54.27-13.766-1.518-27.598-1.26-41.42-1.26h-41.802c-43.198 0-85.628 11.2-122.763 33.404-38.94 23.283-70.965 58.35-90.636 99.216C13.3 153.624 6.25 175.94 2.83 198.984.2 216.63 0 234.142 0 251.914c0 17.662.254 35.008 2.636 52.566 3.138 23.132 10.35 45.396 20.2 66.51 19.2 41.174 51.474 76.017 90.078 99.73 37.006 22.732 80.216 34.086 123.524 34.086 27.25 0 55.053 1.533 82.21-1.117 47.375-4.624 91.537-23.41 128.256-53.577 53.323-43.808 84.045-111.4 84.26-180.127.06-19.35-29.94-19.343-30 0z" fill="#f67443"/><g fill="#ffa835"><circle cx="230.795" cy="446.754" r="11.476"/><circle cx="155.148" cy="423.802" r="11.476"/><circle cx="76.374" cy="321.779" r="9.364"/><circle cx="153.749" cy="345.444" r="10.077"/><circle cx="203.767" cy="386.456" r="5.619"/><circle cx="89.962" cy="380.836" r="11.476"/><circle cx="128.119" cy="283.812" r="5.619"/><circle cx="133.739" cy="386.456" r="5.619"/><circle cx="262.212" cy="373.007" r="7.101"/><circle cx="310.378" cy="448.814" r="13.648"/><circle cx="56.206" cy="257.888" r="8.828"/><circle cx="466.068" cy="253.264" r="11.476"/><circle cx="451.078" cy="330.883" r="11.476"/><circle cx="357.765" cy="419.803" r="9.364"/><circle cx="373.286" cy="340.392" r="10.078"/><circle cx="408.895" cy="286.394" r="5.619"/><circle cx="415.096" cy="400.169" r="11.476"/><circle cx="314.641" cy="372.269" r="5.619"/><circle cx="416.151" cy="356.045" r="5.62"/><circle cx="389.463" cy="229.657" r="7.101"/><circle cx="363.208" cy="68.985" r="13.649"/><circle cx="427.835" cy="218.52" r="5.619"/><circle cx="172.243" cy="137.779" r="5.619"/><circle cx="246.259" cy="101.215" r="7.101"/><circle cx="289.336" cy="64.702" r="10.077"/><circle cx="329.646" cy="101.214" r="5.619"/><circle cx="69.392" cy="184.367" r="11.476"/><circle cx="209.386" cy="64.702" r="9.364"/><circle cx="143.672" cy="184.367" r="10.077"/><circle cx="104.188" cy="206.129" r="5.619"/><circle cx="133.593" cy="95.594" r="11.476"/><circle cx="122.52" cy="138.543" r="5.62"/><circle cx="398.148" cy="143.781" r="5.619"/><circle cx="348.425" cy="144.546" r="5.62"/></g><path d="M390.22 122.614c1.917.833 3.74 1.914 5.524 2.995l5.766 3.86 1.827 1.363c-3.723-2.823-1.236-.938-.46-.308l4.113 3.545c2.84 2.555 5.51 5.294 8.077 8.12 1.578 1.738 3.08 3.544 4.553 5.37 2.586 3.204-1.826-2.463.697.935.777 1.047 1.522 2.118 2.268 3.188 6.53 9.38 11.598 19.685 14.98 28.937 2.804 7.672 10.08 12.78 18.45 10.477 7.396-2.035 13.286-10.766 10.477-18.452-8.117-22.205-20.17-42.917-37.58-59.138-6.83-6.365-14.864-13.024-23.553-16.797-7.5-3.257-16.028-2.29-20.522 5.38-3.757 6.414-2.122 17.263 5.382 20.522z" fill="#fce798"/></svg>