<svg xmlns="http://www.w3.org/2000/svg" xmlns:xlink="http://www.w3.org/1999/xlink" viewBox="0 0 400 400"><defs><style>.cls-1{fill:#ffc649;}.cls-2{fill:#2b0000;}.cls-3{isolation:isolate;}.cls-4{fill:#c97418;}.cls-5{clip-path:url(#clip-path);}.cls-6{fill:#fffbd4;}</style><clipPath id="clip-path"><path class="cls-1" d="M202.47,135.58c34.37,0,62.23,28.85,62.23,64.43s-27.86,64.41-62.23,64.41S140.25,235.59,140.25,200,168.1,135.58,202.47,135.58Z"/></clipPath></defs><g id="Слой_2" data-name="Слой 2"><g id="Слой_2-2" data-name="Слой 2"><rect class="cls-2" width="400" height="400"/></g><g id="Слой_11" data-name="Слой 11"><g class="cls-3"><g class="cls-3"><path class="cls-1" d="M198.85,264.31c1.2.07,2.41.11,3.62.11h-4.95c-1.22,0-2.42,0-3.62-.11h4.95"/><path class="cls-4" d="M194.6,263.91c1.4.18,2.82.32,4.25.4H193.9c-1.43-.08-2.85-.22-4.26-.4h5"/><path class="cls-1" d="M190.44,263.21c1.37.28,2.76.51,4.16.7h-5c-1.4-.19-2.78-.42-4.15-.7h4.95"/><path class="cls-4" d="M186.38,262.24c1.34.37,2.69.7,4.06,1h-4.95c-1.38-.27-2.73-.6-4.07-1h5"/><path class="cls-1" d="M182.42,261c1.3.46,2.62.87,4,1.24h-5c-1.33-.37-2.65-.78-3.95-1.24h4.95"/><path class="cls-4" d="M178.58,259.5q1.89.81,3.84,1.5h-4.95c-1.3-.46-2.59-1-3.85-1.5h5"/><path class="cls-1" d="M174.86,257.75c1.22.62,2.46,1.2,3.72,1.75h-5c-1.26-.55-2.5-1.13-3.71-1.75h5"/><path class="cls-4" d="M171.29,255.76c1.16.7,2.36,1.36,3.57,2h-5c-1.22-.63-2.41-1.29-3.58-2h5"/><path class="cls-1" d="M167.85,253.54c1.12.77,2.27,1.51,3.44,2.22h-5c-1.17-.71-2.31-1.45-3.43-2.22h4.95"/><path class="cls-4" d="M164.57,251.09c1.06.85,2.16,1.67,3.28,2.45H162.9c-1.12-.78-2.22-1.6-3.29-2.45h5"/><path class="cls-1" d="M161.45,248.44c1,.92,2.05,1.8,3.12,2.65h-5c-1.07-.85-2.1-1.73-3.11-2.65h4.95"/><path class="cls-4" d="M158.51,245.59q1.43,1.47,2.94,2.85H156.5q-1.51-1.38-2.94-2.85h4.95"/><path class="cls-1" d="M155.75,242.55c.89,1,1.81,2.06,2.76,3h-4.95c-.95-1-1.87-2-2.76-3h4.95"/><path class="cls-4" d="M153.18,239.32c.83,1.11,1.68,2.18,2.57,3.23H150.8c-.89-1.05-1.75-2.12-2.57-3.23h5"/><path class="cls-1" d="M150.82,235.93c.75,1.16,1.54,2.29,2.36,3.39h-5c-.82-1.1-1.61-2.23-2.36-3.39h4.95"/><path class="cls-4" d="M148.67,232.38c.68,1.21,1.4,2.4,2.15,3.55h-4.95c-.76-1.15-1.47-2.34-2.15-3.55h4.95"/><path class="cls-1" d="M146.74,228.68c.61,1.26,1.25,2.49,1.93,3.7h-4.95c-.68-1.21-1.33-2.44-1.93-3.7h5"/><path class="cls-4" d="M145,224.83c.53,1.31,1.1,2.59,1.7,3.85h-5c-.61-1.26-1.18-2.54-1.7-3.85H145"/><path class="cls-1" d="M143.59,220.86c.44,1.34.93,2.67,1.45,4h-4.95c-.53-1.3-1-2.63-1.46-4h5"/><path class="cls-4" d="M142.38,216.77c.36,1.38.76,2.75,1.21,4.09h-5c-.44-1.34-.84-2.71-1.2-4.09h4.95"/><path class="cls-1" d="M141.44,212.57c.27,1.42.58,2.82.94,4.2h-4.95c-.36-1.38-.68-2.78-1-4.2h5"/><path class="cls-4" d="M140.76,208.25c.18,1.46.41,2.9.68,4.32h-5c-.27-1.42-.5-2.86-.68-4.32h5"/><path class="cls-1" d="M140.36,203.86c.09,1.48.22,2.94.4,4.39h-5c-.17-1.45-.31-2.91-.39-4.39h5"/><path class="cls-4" d="M140.26,199.39c0,.2,0,.41,0,.62,0,1.29,0,2.58.11,3.85h-5c-.07-1.27-.11-2.56-.11-3.85v-.62h5"/><path class="cls-1" d="M140.44,194.94c-.11,1.47-.17,2.95-.18,4.45h-5c0-1.5.08-3,.19-4.45h4.95"/><path class="cls-4" d="M140.92,190.56c-.21,1.44-.36,2.9-.48,4.38h-4.95c.11-1.48.27-2.94.47-4.38h5"/><path class="cls-1" d="M141.67,186.28c-.3,1.41-.55,2.84-.75,4.28h-5c.21-1.44.46-2.87.75-4.28h5"/><path class="cls-4" d="M142.69,182.11q-.58,2.05-1,4.17h-5q.45-2.11,1-4.17h5"/><path class="cls-1" d="M144,178.05c-.47,1.33-.89,2.69-1.27,4.06h-5c.38-1.37.81-2.73,1.28-4.06h5"/><path class="cls-4" d="M145.48,174.11c-.54,1.29-1,2.61-1.52,3.94h-5c.46-1.33,1-2.65,1.52-3.94h4.95"/><path class="cls-1" d="M147.25,170.3q-.94,1.88-1.77,3.81h-4.95c.55-1.29,1.14-2.56,1.76-3.81h5"/><path class="cls-4" d="M149.24,166.64c-.7,1.19-1.37,2.41-2,3.66h-5c.63-1.25,1.29-2.47,2-3.66h5"/><path class="cls-1" d="M151.45,163.13c-.77,1.14-1.51,2.31-2.21,3.51h-5c.7-1.2,1.44-2.37,2.21-3.51h5"/><path class="cls-4" d="M153.87,159.78c-.84,1.09-1.65,2.21-2.42,3.35h-5c.78-1.14,1.58-2.26,2.43-3.35h5"/><path class="cls-1" d="M156.49,156.61c-.91,1-1.78,2.08-2.62,3.17h-5c.84-1.09,1.71-2.15,2.61-3.17h5"/><path class="cls-4" d="M159.3,153.62c-1,1-1.91,2-2.81,3h-5c.91-1,1.85-2,2.81-3h5"/><path class="cls-1" d="M162.29,150.82c-1,.9-2,1.83-3,2.8h-5c1-1,2-1.9,3-2.8h5"/><path class="cls-4" d="M165.45,148.23c-1.09.83-2.14,1.69-3.16,2.59h-5c1-.9,2.08-1.76,3.16-2.59h5"/><path class="cls-1" d="M168.78,145.84c-1.14.76-2.25,1.55-3.33,2.39h-5c1.08-.84,2.19-1.63,3.33-2.39h5"/><path class="cls-4" d="M172.25,143.68c-1.18.68-2.34,1.4-3.47,2.16h-5c1.13-.76,2.29-1.48,3.47-2.16h5"/><path class="cls-1" d="M175.86,141.75c-1.22.61-2.43,1.25-3.61,1.93h-5c1.19-.68,2.39-1.32,3.62-1.93h5"/><path class="cls-4" d="M179.61,140.07q-1.91.78-3.75,1.68h-5q1.84-.9,3.75-1.68h5"/><path class="cls-1" d="M183.49,138.63c-1.31.44-2.6.92-3.88,1.44h-5c1.27-.52,2.56-1,3.88-1.44h5"/><path class="cls-4" d="M187.48,137.47c-1.35.34-2.68.73-4,1.16h-5c1.31-.43,2.64-.82,4-1.16h5"/><path class="cls-1" d="M191.57,136.57c-1.38.25-2.75.55-4.09.9h-5c1.35-.35,2.71-.65,4.09-.9h5"/><path class="cls-4" d="M195.75,136c-1.41.16-2.81.37-4.18.62h-5c1.38-.25,2.77-.46,4.18-.62h5"/><path class="cls-1" d="M200,135.63c-1.44.06-2.87.17-4.28.32h-5c1.41-.15,2.84-.26,4.28-.32h5"/><path class="cls-4" d="M202.47,135.58c-.82,0-1.63,0-2.44,0h-5c.81,0,1.63,0,2.45,0h4.95"/></g><g class="cls-3"><path class="cls-1" d="M202.47,135.58c34.37,0,62.23,28.85,62.23,64.43s-27.86,64.41-62.23,64.41S140.25,235.59,140.25,200,168.1,135.58,202.47,135.58Z"/><g class="cls-5"><path class="cls-1" d="M202.48,254.85c28.84,0,52.27-23.85,52.94-53.54,0,.73,0,1.45,0,2.17v.23c0,.17,0,.33,0,.5a1.55,1.55,0,0,0,0,.22c0,.16,0,.33,0,.49a55.52,55.52,0,0,1-13.32,34.15l0,0-.34.39-.09.11a3.33,3.33,0,0,0-.25.28l-.19.21-.15.17-.3.32,0,.05a52,52,0,0,1-36.82,16.83h-.12l-1.26,0h-1.55l-.52,0-1.23-.07h-.13a51.33,51.33,0,0,1-12.44-2.4h0l-.61-.2h0l-.5-.17-.13,0-.34-.13-.28-.1-.22-.08-.4-.15-.14-.06-.48-.18h0c-19.34-7.72-33.29-26.84-33.9-49.62,0-1,0-1.92,0-2.89.67,29.69,24.11,53.54,52.95,53.54m32-42.71a3.72,3.72,0,0,1-2.64-1.11l-8.19-8.22a4,4,0,0,1-.09-5.53,3.71,3.71,0,0,1,2.72-1.2,3.75,3.75,0,0,1,2.64,1.1l8.19,8.23a4,4,0,0,1,.09,5.54,3.72,3.72,0,0,1-2.72,1.19m4.91-11.79a3.67,3.67,0,0,1-2.62-1.1l-31.7-31.8a4,4,0,0,1-.08-5.54,3.69,3.69,0,0,1,5.35-.08L242,193.62a4,4,0,0,1,.07,5.54,3.72,3.72,0,0,1-2.72,1.19m-16.34-32a3.68,3.68,0,0,1-2.63-1.11l-8.2-8.23a4,4,0,0,1-.08-5.53,3.72,3.72,0,0,1,2.72-1.19,3.64,3.64,0,0,1,2.63,1.11l8.2,8.21a4,4,0,0,1,.08,5.54,3.71,3.71,0,0,1-2.72,1.2m-20.56-25.79,1.26,0h.12c25,.66,45.85,19.3,50.57,44.11h0c0,.23.09.45.13.68h0c.07.4.14.81.2,1.23l0,.15c0,.16.05.33.07.49l0,.2c0,.18.05.36.07.54s0,.11,0,.16c.15,1.13.26,2.28.33,3.44,0,0,0,.06,0,.09.06.93.1,1.87.11,2.82v0c0,.72,0,1.45,0,2.18-.67-29.69-24.1-53.55-52.94-53.55S150.2,169,149.53,198.7c0-1,0-1.94,0-2.9,0-.16,0-.33,0-.5s0-.14,0-.21,0-.34,0-.51a1.48,1.48,0,0,0,0-.21c0-.2,0-.39,0-.58v-.13a55.56,55.56,0,0,1,13.25-32.72l0,0,.36-.41.08-.09c.08-.09.15-.18.24-.27l.2-.23.09-.1a52.14,52.14,0,0,1,36.54-17.24l.52,0h1.55m0-6.54c-34.14,0-61.82,28.66-61.82,64s27.68,64,61.82,64,61.81-28.64,61.81-64-27.67-64-61.81-64"/><path class="cls-6" d="M255.42,201.31c-.67,29.69-24.1,53.54-52.94,53.54S150.2,231,149.53,201.31c0,1,0,1.93,0,2.89.61,22.75,14.55,41.9,33.9,49.62h0l.48.18.14.06.4.15.22.08.28.1.34.13.13,0,.5.17h0l.61.2h0a51.33,51.33,0,0,0,12.44,2.4h.13l1.23.07.52,0h1.55l1.26,0h.12a52,52,0,0,0,36.82-16.83l0-.05.3-.32.15-.17.19-.21a3.33,3.33,0,0,1,.25-.28l.09-.11.34-.39,0,0a55.52,55.52,0,0,0,13.32-34.15c0-.16,0-.33,0-.49a1.55,1.55,0,0,1,0-.22c0-.17,0-.33,0-.5v-.23c0-.72,0-1.44,0-2.17"/><path class="cls-4" d="M202.48,142.54h-1.55l-.52,0a52.16,52.16,0,0,0-36.54,17.24l-.09.1-.2.23c-.09.09-.16.18-.24.27l-.08.09-.36.41,0,0a55.56,55.56,0,0,0-13.25,32.72v.13c0,.19,0,.38,0,.58a1.48,1.48,0,0,1,0,.21c0,.17,0,.33,0,.51s0,.14,0,.21,0,.34,0,.5c0,1,0,1.93,0,2.9.67-29.69,24.11-53.55,52.95-53.55S254.75,169,255.42,198.7c0-.73,0-1.46,0-2.18v0c0-.95-.05-1.89-.11-2.82,0,0,0-.06,0-.09-.07-1.16-.18-2.31-.33-3.44,0,0,0-.11,0-.16s-.05-.36-.07-.54l0-.2c0-.16-.05-.33-.07-.49l0-.15c-.06-.42-.13-.83-.2-1.23h0c0-.23-.08-.45-.13-.68h0c-4.72-24.81-25.57-43.45-50.57-44.11h-.12l-1.26,0"/><path class="cls-6" d="M207.7,160.72a3.72,3.72,0,0,0-2.72,1.19,4,4,0,0,0,.08,5.54l31.7,31.8a3.67,3.67,0,0,0,2.62,1.1,3.72,3.72,0,0,0,2.72-1.19,4,4,0,0,0-.07-5.54l-31.7-31.79a3.7,3.7,0,0,0-2.63-1.11"/><path class="cls-6" d="M214.85,152.27a3.72,3.72,0,0,0-2.72,1.19,4,4,0,0,0,.08,5.53l8.2,8.23a3.68,3.68,0,0,0,5.35-.09,4,4,0,0,0-.08-5.54l-8.2-8.21a3.64,3.64,0,0,0-2.63-1.11"/><path class="cls-6" d="M226.27,196.08a3.71,3.71,0,0,0-2.72,1.2,4,4,0,0,0,.09,5.53l8.19,8.22a3.7,3.7,0,0,0,5.36-.08,4,4,0,0,0-.09-5.54l-8.19-8.23a3.75,3.75,0,0,0-2.64-1.1"/></g></g></g></g></g></svg>