<?xml version="1.0" encoding="UTF-8" standalone="no"?>
<svg
   xmlns:dc="http://purl.org/dc/elements/1.1/"
   xmlns:cc="http://creativecommons.org/ns#"
   xmlns:rdf="http://www.w3.org/1999/02/22-rdf-syntax-ns#"
   xmlns:svg="http://www.w3.org/2000/svg"
   xmlns="http://www.w3.org/2000/svg"
   xmlns:sodipodi="http://sodipodi.sourceforge.net/DTD/sodipodi-0.dtd"
   xmlns:inkscape="http://www.inkscape.org/namespaces/inkscape"
   viewBox="0 0 303 303"
   version="1.1"
   id="svg73"
   sodipodi:docname="patternVenom.svg"
   width="303"
   height="303"
   inkscape:version="1.0.2-2 (e86c870879, 2021-01-15)">
  <metadata
     id="metadata77">
    <rdf:RDF>
      <cc:Work
         rdf:about="">
        <dc:format>image/svg+xml</dc:format>
        <dc:type
           rdf:resource="http://purl.org/dc/dcmitype/StillImage" />
      </cc:Work>
    </rdf:RDF>
  </metadata>
  <sodipodi:namedview
     pagecolor="#ffffff"
     bordercolor="#666666"
     borderopacity="1"
     objecttolerance="10"
     gridtolerance="10"
     guidetolerance="10"
     inkscape:pageopacity="0"
     inkscape:pageshadow="2"
     inkscape:window-width="750"
     inkscape:window-height="480"
     id="namedview75"
     showgrid="false"
     inkscape:zoom="2.7392739"
     inkscape:cx="151.5"
     inkscape:cy="151.5"
     inkscape:window-x="0"
     inkscape:window-y="0"
     inkscape:window-maximized="0"
     inkscape:current-layer="svg73" />
  <defs
     id="defs64">
    <style
       id="style62">.cls-1{fill:#30008e;}.cls-2{fill:#ddcfff;}</style>
  </defs>
  <g
     id="Слой_2"
     data-name="Слой 2">
    <g
       id="Слой_15"
       data-name="Слой 15">
      <rect
         class="cls-1"
         width="303"
         height="303"
         id="rect66"
         x="0"
         y="0" />
    </g>
    <g
       id="Слой_16"
       data-name="Слой 16">
      <path
         class="cls-2"
         d="m 99,151.09 c -1.43,-1.06 -2.72,-2 -4,-3 -3,-2.09 -5.9,-4.09 -8.77,-6.27 -3.54,-2.65 -7,-5.4 -10.55,-8.06 a 61.08,61.08 0 0 1 -5.75,-5.27 14.22,14.22 0 0 1 -2.83,-3.8 c -0.39,-0.75 -0.41,-0.75 -1.21,-0.38 a 34.45,34.45 0 0 0 -8.78,5.86 64,64 0 0 0 -11.69,14.6 c -2.73,4.53 -5.3,9.15 -8,13.72 -1.78,3.06 -3.6,6.09 -5.41,9.14 -0.16,0.27 -0.36,0.52 -0.63,0.9 a 7.18,7.18 0 0 1 0.2,-3.29 85.63,85.63 0 0 1 3.74,-14.53 106.94,106.94 0 0 1 7.65,-17 74.09,74.09 0 0 1 6.33,-9.7 c 1.17,-1.51 2.4,-3 3.71,-4.36 a 50.56,50.56 0 0 1 6.52,-6.06 39.5,39.5 0 0 1 8,-4.73 c 0.3,0.76 0.55,1.48 0.85,2.19 a 39.55,39.55 0 0 0 5.62,8.84 81.24,81.24 0 0 0 8.61,9 c 2.91,2.7 6.11,5.1 9.19,7.61 1.7,1.39 3.42,2.74 5.13,4.11 0.69,0.55 0.75,0.56 1.25,-0.12 a 79.91,79.91 0 0 1 6.85,-8.08 c 2.41,-2.53 4.85,-5 7.29,-7.55 a 29.35,29.35 0 0 1 5.11,-4.13 6.23,6.23 0 0 1 1.08,-0.58 1.6,1.6 0 0 1 1.71,0.23 26.68,26.68 0 0 0 10.3,4.84 c 0.89,0.24 1.77,0.56 2.64,0.84 0.7,-1.34 0.67,-1.49 -0.47,-2.21 q -6.6,-4.17 -13.2,-8.34 a 1.73,1.73 0 0 0 -1.5,-0.21 15.31,15.31 0 0 0 -5.33,2.87 c -2,1.58 -4,3.19 -5.89,4.92 -2.6,2.39 -5.12,4.88 -7.62,7.39 -1,1 -1.83,2.17 -2.82,3.37 -0.32,-0.32 -0.63,-0.61 -0.91,-0.93 -1,-1.1 -1.89,-2.24 -2.88,-3.31 -2.52,-2.71 -5.07,-5.39 -7.59,-8.1 -1.71,-1.85 -3.42,-3.7 -5.08,-5.59 a 102.93,102.93 0 0 1 -7.48,-9.31 19.85,19.85 0 0 1 -2.76,-5 c -0.34,-1 -0.59,-2.11 -0.9,-3.24 a 10,10 0 0 0 -3.15,1.05 49.15,49.15 0 0 0 -9.92,5.47 c -2.07,1.49 -4.08,3.09 -6,4.72 a 59.77,59.77 0 0 0 -4.79,4.33 c -2.06,2.13 -4,4.36 -5.93,6.63 -2.73,3.22 -5.37,6.51 -8,9.78 -1,1.26 -2,2.53 -3.07,3.79 a 9,9 0 0 1 -0.92,0.83 7.8,7.8 0 0 1 0.17,-1.29 c 0.76,-2.14 1.43,-4.34 2.37,-6.4 a 81.1,81.1 0 0 1 5.92,-10.67 102.46,102.46 0 0 1 7.18,-9.85 89.2,89.2 0 0 1 8.09,-8.63 71.9,71.9 0 0 1 8.67,-6.9 49.23,49.23 0 0 1 13.1,-6.42 5.2,5.2 0 0 1 0.52,-0.11 c 0.47,1.39 0.91,2.77 1.41,4.13 a 56.35,56.35 0 0 0 4.54,9.46 c 1.92,3.26 3.87,6.51 6,9.63 2.46,3.58 5.14,7 7.75,10.49 1.09,1.59 2.33,3.04 3.55,4.59 0.38,0.47 0.82,0.89 1.21,1.32 1.79,-2 3.43,-4 5.18,-5.83 1.48,-1.56 3.09,-3 4.64,-4.5 0.47,-0.45 0.93,-0.92 1.41,-1.36 a 50.27,50.27 0 0 1 7.26,-5.73 10,10 0 0 1 1.08,-0.56 c 1.78,-0.83 2.37,-0.69 3.77,0.65 a 66.21,66.21 0 0 0 7.36,6 c 2,1.41 4,2.8 6,4.2 0.7,0.5 0.8,0.47 1.11,-0.33 a 7.49,7.49 0 0 1 0.48,-1.38 c 0.56,-0.9 0.23,-1.49 -0.48,-2.09 -1.4,-1.17 -2.77,-2.38 -4.15,-3.58 l -2.78,-2.37 -4.53,-3.88 a 22.28,22.28 0 0 1 -2.45,-2.18 2.83,2.83 0 0 0 -3.1,-0.85 28.17,28.17 0 0 0 -4.29,1.37 56.82,56.82 0 0 0 -12.63,7.78 31.3,31.3 0 0 0 -5.12,4.84 c -0.41,0.51 -0.73,0.19 -1,-0.13 -0.74,-0.92 -1.46,-1.85 -2.16,-2.8 a 82.57,82.57 0 0 1 -5.46,-9 114.4,114.4 0 0 1 -7.66,-17.29 c -0.89,-2.57 -1.6,-5.21 -2.28,-7.84 a 27.43,27.43 0 0 1 -0.46,-3.59 3.21,3.21 0 0 0 -0.71,0.08 159,159 0 0 0 -17.13,6.05 72.51,72.51 0 0 0 -13,7 c -2.07,1.43 -4,3 -6,4.64 -2.36,2 -4.57,4.16 -6.93,6.14 -2,1.65 -4,3.14 -6.07,4.69 -0.15,0.12 -0.33,0.19 -0.61,0.36 a 8.78,8.78 0 0 1 1.26,-3.28 60.91,60.91 0 0 1 6.24,-8.55 138.62,138.62 0 0 1 9.7,-10.14 c 1.62,-1.59 3.38,-3 5.14,-4.48 2.59,-2.09 5.18,-4.19 7.9,-6.11 2.72,-1.92 5.68,-3.8 8.62,-5.54 2.2,-1.31 4.51,-2.43 6.81,-3.56 A 61.45,61.45 0 0 1 82.9,57.22 l 0.36,-0.09 c 1,-0.23 1.12,-0.15 1.27,0.83 A 108.35,108.35 0 0 0 88,73.29 c 1.54,5.07 3.18,10.1 4.79,15.15 q 2.11,6.63 4.24,13.27 c 0.31,1 0.54,2 0.84,2.93 0.3,0.93 0.63,1.14 1.49,0.55 1.6,-1.12 3.15,-2.31 4.73,-3.44 3.67,-2.63 7.3,-5.31 11,-7.85 A 19.54,19.54 0 0 1 121,91 a 2.07,2.07 0 0 1 2.44,0.82 c 3.48,4.4 7,8.77 10.46,13.17 1,1.3 2,2.63 3,4 a 0.86,0.86 0 0 0 0.07,0.1 c 0.87,1.06 1,1 1.77,-0.14 0.52,-0.86 1.06,-1.72 1.65,-2.68 -0.38,-0.16 -0.71,-0.28 -1,-0.44 a 17.41,17.41 0 0 1 -2,-1.1 1.89,1.89 0 0 1 -0.57,-2.59 8,8 0 0 1 1,-1.38 33.76,33.76 0 0 1 6.41,-4.63 l -0.94,2 c -0.39,0.85 -0.77,1.7 -1.17,2.54 a 3,3 0 0 0 1.06,3.37 0.92,0.92 0 0 0 1.23,0.12 8.51,8.51 0 0 1 5.35,-1.28 c 1.42,0.07 2.85,0.06 4.28,0 a 7.85,7.85 0 0 1 4.18,1.11 c 0.89,0.5 1.09,0.48 1.78,-0.25 a 3.09,3.09 0 0 0 0.51,-3.72 c -0.37,-0.81 -0.8,-1.6 -1.19,-2.41 -0.18,-0.35 -0.33,-0.72 -0.6,-1.32 0.43,0.19 0.64,0.25 0.82,0.36 1.53,1.07 3.1,2.09 4.58,3.24 a 8,8 0 0 1 1.76,2 c 0.82,1.27 0.56,2.27 -0.76,3.1 a 29.09,29.09 0 0 1 -2.63,1.34 l 2.28,3.87 a 15.28,15.28 0 0 0 2.33,-2.68 c 2.33,-2.92 4.64,-5.86 7,-8.79 l 5,-6.42 c 0.18,-0.22 0.38,-0.42 0.55,-0.65 a 1.69,1.69 0 0 1 2.06,-0.62 25.43,25.43 0 0 1 2.84,1.06 57.64,57.64 0 0 1 8.63,5.51 l 9,6.7 c 0.43,0.32 0.87,0.61 1.32,0.89 0.95,0.59 1.24,0.48 1.58,-0.57 1.84,-5.78 3.7,-11.56 5.52,-17.35 1.68,-5.36 3.39,-10.71 4.93,-16.11 a 89,89 0 0 0 2.88,-13.22 c 0.12,-0.9 0.29,-1.07 1.2,-0.78 2.86,0.94 5.76,1.79 8.53,2.95 a 92.57,92.57 0 0 1 18.1,10.3 c 3.34,2.39 6.51,5 9.68,7.59 1.28,1.06 2.47,2.23 3.66,3.4 1.58,1.53 3.11,3.11 4.67,4.66 1.94,1.92 3.68,4 5.43,6.1 a 64.59,64.59 0 0 1 4.63,6.43 13,13 0 0 1 1.87,4.25 11.64,11.64 0 0 1 -2.77,-1.81 c -1.72,-1.37 -3.37,-2.81 -5,-4.24 -3.05,-2.62 -6,-5.35 -9.15,-7.86 a 55.32,55.32 0 0 0 -8.62,-5.51 135,135 0 0 0 -22.42,-8.94 c -0.73,-0.23 -1.47,-0.43 -2.32,-0.68 -0.13,0.89 -0.28,1.67 -0.37,2.46 a 38.89,38.89 0 0 1 -2.44,9.18 c -1,2.67 -2,5.33 -3.19,7.92 -1.45,3.19 -3,6.33 -4.62,9.43 -1.06,2.06 -2.24,4.07 -3.49,6 -1.25,1.93 -2.57,3.66 -3.89,5.46 -0.52,0.7 -0.72,0.65 -1.28,0 a 38.06,38.06 0 0 0 -5.27,-4.88 70.1,70.1 0 0 0 -10.47,-6.69 22.46,22.46 0 0 0 -6,-2.14 3.37,3.37 0 0 0 -3.34,0.9 c -1.35,1.33 -2.89,2.48 -4.33,3.73 -1.44,1.25 -2.88,2.51 -4.32,3.76 l -4.77,4.06 c -0.21,0.19 -0.41,0.4 -0.63,0.58 a 1.13,1.13 0 0 0 -0.34,1.6 c 0.28,0.53 0.4,1.15 0.63,1.71 0.23,0.56 0.42,0.72 1,0.33 3.55,-2.57 7.12,-5.12 10.63,-7.75 a 29.93,29.93 0 0 0 3.32,-3 1.87,1.87 0 0 1 2.1,-0.55 13.56,13.56 0 0 1 2.53,1.18 31.17,31.17 0 0 1 5.23,4 c 2.3,2.18 4.7,4.26 6.93,6.51 1.88,1.9 3.59,4 5.36,6 0.53,0.61 0.7,0.68 1.24,0.08 1,-1.12 2,-2.26 2.92,-3.44 1.88,-2.4 3.75,-4.8 5.57,-7.25 a 122.46,122.46 0 0 0 8.32,-12.48 c 1.65,-2.9 3.22,-5.85 4.65,-8.86 a 55.66,55.66 0 0 0 2.16,-5.83 c 0.35,-1.05 0.42,-1.13 1.44,-0.82 a 37.84,37.84 0 0 1 8.66,3.89 c 2.08,1.27 4.17,2.54 6.15,4 1.74,1.25 3.37,2.67 5,4.09 1.37,1.2 2.69,2.47 4,3.75 a 98.09,98.09 0 0 1 18.46,26.21 26.45,26.45 0 0 1 2.68,8.16 c -0.4,-0.42 -0.85,-0.8 -1.21,-1.25 -2.85,-3.54 -5.63,-7.14 -8.53,-10.65 -2,-2.38 -4.08,-4.63 -6.13,-6.93 -0.81,-0.91 -1.59,-1.86 -2.47,-2.7 A 75.08,75.08 0 0 0 244,102.69 57.3,57.3 0 0 0 235.88,98.76 c -0.49,-0.19 -1,-0.31 -1.59,-0.5 a 7.43,7.43 0 0 0 -0.22,0.83 18.19,18.19 0 0 1 -3.72,7.87 c -1.69,2.28 -3.48,4.5 -5.26,6.71 -0.71,0.89 -1.49,1.72 -2.26,2.55 -2.47,2.65 -4.95,5.28 -7.42,7.93 -1.88,2 -3.75,4.06 -5.6,6.11 -0.79,0.87 -1.52,1.8 -2.27,2.71 -0.75,0.91 -1,0.83 -1.59,0 a 84.94,84.94 0 0 0 -8.95,-9.34 55.52,55.52 0 0 0 -8.17,-6.54 12.73,12.73 0 0 0 -3.71,-1.79 1.66,1.66 0 0 0 -1.48,0.19 c -1.7,1.11 -3.45,2.15 -5.17,3.23 -2.79,1.76 -5.57,3.53 -8.36,5.28 -0.4,0.25 -0.75,0.47 -0.75,1 0,0.81 0.36,1.1 1.14,0.83 2.62,-0.88 5.28,-1.67 7.82,-2.73 a 21.62,21.62 0 0 0 4.25,-2.6 1.88,1.88 0 0 1 2.35,-0.17 22.5,22.5 0 0 1 3.29,2.3 c 2.86,2.66 5.7,5.36 8.4,8.17 2.16,2.26 4.12,4.7 6.16,7.08 0.73,0.86 1.41,1.78 2.12,2.67 0.43,0.53 0.56,0.54 1.08,0.13 3.12,-2.48 6.25,-4.93 9.34,-7.43 1.45,-1.18 2.85,-2.42 4.21,-3.7 2.17,-2 4.34,-4.06 6.41,-6.18 a 41.38,41.38 0 0 0 7.35,-9.84 c 0.67,-1.29 1.21,-2.65 1.82,-4 0.09,-0.21 0.2,-0.43 0.33,-0.7 a 37,37 0 0 1 5,2.64 48.07,48.07 0 0 1 10.38,9 70.06,70.06 0 0 1 9.09,13 110.21,110.21 0 0 1 6.55,13.91 93.82,93.82 0 0 1 4.73,16.41 c 0.29,1.5 0.42,3 0.63,4.56 l -0.26,0.11 c -0.48,-0.71 -1,-1.39 -1.45,-2.13 q -3,-5.3 -6.05,-10.6 c -2.82,-5 -5.6,-10 -8.89,-14.74 a 75,75 0 0 0 -6.22,-7.81 40.13,40.13 0 0 0 -7.54,-6.49 45.25,45.25 0 0 0 -4.26,-2.36 c -0.79,-0.41 -0.84,-0.38 -1.21,0.36 a 16.64,16.64 0 0 1 -2.83,3.8 89.4,89.4 0 0 1 -11.9,10.07 q -8,5.92 -16.12,11.82 c -0.29,0.21 -0.61,0.4 -1,0.65 -0.32,-0.54 -0.6,-1.06 -0.93,-1.55 -1.18,-1.8 -2.31,-3.64 -3.59,-5.37 -1.4,-1.89 -2.88,-3.74 -4.44,-5.5 -1.78,-2 -3.65,-3.94 -5.56,-5.82 -1.27,-1.25 -2.67,-2.38 -4,-3.53 a 6.58,6.58 0 0 0 -1.12,-0.74 2.77,2.77 0 0 0 -2.75,-0.23 42.71,42.71 0 0 1 -9.53,2.48 c -0.79,0.15 -1.59,0.3 -2.38,0.48 a 1.38,1.38 0 0 0 -0.94,1.59 0.65,0.65 0 0 0 0.45,0.33 15.44,15.44 0 0 0 10,-0.81 2.59,2.59 0 0 1 2.84,0.31 28,28 0 0 1 4.61,4.15 c 1,1.08 1.94,2.19 2.87,3.32 q 2.85,3.48 5.66,7 a 83,83 0 0 1 6.11,8.67 c 0.23,0.38 0.47,0.36 0.81,0.22 0.83,-0.33 1.66,-0.68 2.5,-1 a 108.47,108.47 0 0 0 15.76,-6.56 44.62,44.62 0 0 0 7.92,-5.22 28.13,28.13 0 0 0 6.63,-7.58 c 0.66,-1.17 0.82,-1.17 1.92,-0.29 a 38.9,38.9 0 0 1 8.9,10.43 85.62,85.62 0 0 1 8.18,19.31 145.08,145.08 0 0 1 3.46,14.22 c 0.48,2.43 0.75,4.89 1.12,7.34 a 47.92,47.92 0 0 1 0.7,8.37 1.44,1.44 0 0 1 -0.2,0.81 c -0.24,-0.39 -0.52,-0.76 -0.72,-1.16 -2.46,-4.79 -4.73,-9.65 -6.75,-14.64 -1.86,-4.6 -3.86,-9.15 -5.83,-13.71 a 66.79,66.79 0 0 0 -5.81,-11 19.21,19.21 0 0 0 -4.62,-5.14 c -0.61,-0.44 -0.86,-0.5 -1.2,0.07 -1.31,2.2 -3.41,3.46 -5.5,4.71 A 75.15,75.15 0 0 1 218,160.14 c -5.54,2.24 -11.09,4.46 -16.63,6.71 -1.46,0.6 -2.88,1.31 -4.41,2 -0.16,-0.33 -0.34,-0.63 -0.48,-1 a 91,91 0 0 0 -4.61,-9.28 156.08,156.08 0 0 0 -8.16,-13.32 36.15,36.15 0 0 0 -4.44,-5.49 c -0.38,-0.37 -0.82,-0.67 -1.23,-1 a 1.75,1.75 0 0 0 -1.93,-0.22 9.42,9.42 0 0 1 -5.49,0.38 c -1.22,-0.24 -2.49,-0.28 -3.74,-0.4 a 1.55,1.55 0 0 0 -1.4,0.58 3.89,3.89 0 0 1 -2.13,1.35 0.67,0.67 0 0 0 -0.58,0.67 c -0.05,0.4 -0.16,0.79 -0.21,1.2 a 2.23,2.23 0 0 0 0.59,2.12 c 0.82,0.78 1.53,1.68 2.3,2.52 2.41,2.58 4.84,5.16 7.24,7.75 1.69,1.82 3.31,3.7 5,5.48 a 4.16,4.16 0 0 1 1.47,3.06 c 0,2.39 0.37,4.78 0.4,7.17 0.03,2.39 -0.1,5 -0.23,7.56 -0.11,2.27 -0.28,4.53 -0.49,6.8 -0.18,2 -0.46,4 -0.69,6 -0.17,1.53 -0.32,3.07 -0.5,4.6 -0.25,2.13 -0.48,4.27 -0.8,6.4 -0.42,2.85 -0.89,5.7 -1.39,8.53 -0.58,3.28 -1.18,6.56 -1.84,9.83 a 142.41,142.41 0 0 1 -3.92,15.37 43.58,43.58 0 0 1 -4.38,10.31 c -0.65,1 -1.46,1.93 -2.2,2.89 l -0.24,-0.13 a 14.49,14.49 0 0 0 0.43,-2.12 c 0.1,-1.95 0.12,-3.91 0.16,-5.86 0,-0.5 -0.36,-0.72 -0.77,-0.81 -1.23,-0.27 -2.46,-0.59 -3.7,-0.74 a 92,92 0 0 0 -12.31,-0.23 37.7,37.7 0 0 0 -5.66,0.76 c -1.49,0.25 -1.72,0.62 -1.74,2.14 a 27.16,27.16 0 0 0 0.63,6.17 0.72,0.72 0 0 1 -0.16,0.58 22.11,22.11 0 0 1 -1.55,-1.81 32.62,32.62 0 0 1 -3.54,-7.21 100.21,100.21 0 0 1 -4,-13.59 c -0.78,-3.49 -1.56,-7 -2.25,-10.49 -0.6,-3.07 -1.11,-6.16 -1.6,-9.24 -0.52,-3.25 -1,-6.5 -1.43,-9.76 -0.24,-1.73 -0.36,-3.47 -0.55,-5.21 -0.22,-2.09 -0.47,-4.19 -0.68,-6.29 -0.12,-1.21 -0.23,-2.42 -0.28,-3.64 -0.1,-3.05 -0.14,-6.1 -0.27,-9.15 -0.08,-1.82 0,-3.64 0,-5.46 a 42.73,42.73 0 0 1 0.27,-4.38 2.68,2.68 0 0 1 0.71,-1.36 c 1.56,-1.71 3.19,-3.37 4.77,-5.06 q 3.16,-3.39 6.3,-6.8 c 1.43,-1.56 2.8,-3.16 4.24,-4.71 a 1.75,1.75 0 0 0 0.54,-1.54 15.31,15.31 0 0 0 -0.27,-1.8 0.9,0.9 0 0 0 -0.55,-0.53 4.49,4.49 0 0 1 -2.12,-1.37 1.53,1.53 0 0 0 -1.4,-0.59 c -1.21,0.11 -2.42,0.21 -3.63,0.35 a 14.76,14.76 0 0 1 -2.52,0.33 11.62,11.62 0 0 1 -3.08,-0.67 1.73,1.73 0 0 0 -1.92,0.23 20.7,20.7 0 0 0 -2.34,2.14 82.6,82.6 0 0 0 -7.2,10.27 c -2.62,4.27 -5.09,8.62 -7.35,13.09 -0.73,1.45 -1.33,3 -2,4.53 -1,-0.45 -2.07,-0.92 -3.11,-1.35 -3.83,-1.58 -7.67,-3.16 -11.51,-4.71 A 161.36,161.36 0 0 1 76.17,156 27.17,27.17 0 0 1 70.42,152.14 12.64,12.64 0 0 1 69,150.39 c -0.49,-0.63 -0.65,-0.65 -1.27,-0.19 a 22,22 0 0 0 -5.48,6.47 97.82,97.82 0 0 0 -6.63,13.47 c -2.09,5 -4.14,10.09 -6.34,15.08 -1.46,3.32 -3.14,6.54 -4.73,9.79 a 10.46,10.46 0 0 1 -0.7,1 29.19,29.19 0 0 1 0,-4.29 c 0.08,-1.13 0.3,-2.25 0.42,-3.38 A 132.61,132.61 0 0 1 50.64,160.2 74,74 0 0 1 58.25,144.12 36,36 0 0 1 66,135.5 c 0.19,-0.15 0.39,-0.29 0.59,-0.43 0.72,-0.45 0.74,-0.45 1.2,0.32 a 30.85,30.85 0 0 0 8.76,9.37 58.67,58.67 0 0 0 12.64,6.82 c 3.81,1.53 7.67,2.92 11.5,4.4 0.52,0.2 0.74,0.13 1,-0.37 a 102.7,102.7 0 0 1 7.43,-10.27 c 1.63,-2 3.18,-4.12 4.9,-6.06 a 40.92,40.92 0 0 1 6,-6.05 c 0.42,-0.32 0.87,-0.59 1.32,-0.87 a 2.06,2.06 0 0 1 2.08,-0.11 15.6,15.6 0 0 0 5.17,1.37 22.33,22.33 0 0 0 3.63,-0.26 c 0.32,0 0.63,-0.12 1,-0.15 0.37,-0.03 0.82,0 0.88,-0.6 a 1.13,1.13 0 0 0 -0.74,-1.35 c -0.83,-0.19 -1.67,-0.35 -2.51,-0.5 a 46.24,46.24 0 0 1 -9.88,-2.59 1.9,1.9 0 0 0 -1.74,0 11.39,11.39 0 0 0 -1.78,1.05 55.25,55.25 0 0 0 -8.24,7.94 c -1.5,1.76 -3,3.49 -4.51,5.28 a 45,45 0 0 0 -5.7,8.65 z"
         id="path69" />
    </g>
  </g>
</svg>
