<?xml version="1.0" encoding="UTF-8" standalone="no"?>
<svg
   xmlns:dc="http://purl.org/dc/elements/1.1/"
   xmlns:cc="http://creativecommons.org/ns#"
   xmlns:rdf="http://www.w3.org/1999/02/22-rdf-syntax-ns#"
   xmlns:svg="http://www.w3.org/2000/svg"
   xmlns="http://www.w3.org/2000/svg"
   xmlns:sodipodi="http://sodipodi.sourceforge.net/DTD/sodipodi-0.dtd"
   xmlns:inkscape="http://www.inkscape.org/namespaces/inkscape"
   viewBox="0 0 512 512"
   version="1.1"
   id="svg2613"
   sodipodi:docname="patternGoblin.svg"
   width="512"
   height="512"
   inkscape:version="1.0.2-2 (e86c870879, 2021-01-15)">
  <metadata
     id="metadata2617">
    <rdf:RDF>
      <cc:Work
         rdf:about="">
        <dc:format>image/svg+xml</dc:format>
        <dc:type
           rdf:resource="http://purl.org/dc/dcmitype/StillImage" />
      </cc:Work>
    </rdf:RDF>
  </metadata>
  <sodipodi:namedview
     pagecolor="#ffffff"
     bordercolor="#666666"
     borderopacity="1"
     objecttolerance="10"
     gridtolerance="10"
     guidetolerance="10"
     inkscape:pageopacity="0"
     inkscape:pageshadow="2"
     inkscape:window-width="1920"
     inkscape:window-height="1001"
     id="namedview2615"
     showgrid="false"
     inkscape:zoom="1.6210938"
     inkscape:cx="256"
     inkscape:cy="256"
     inkscape:window-x="-9"
     inkscape:window-y="-9"
     inkscape:window-maximized="1"
     inkscape:current-layer="svg2613" />
  <defs
     id="defs2538">
    <style
       id="style2536">.cls-1{fill:#264a2c;}.cls-2,.cls-4{fill:#d5a95c;}.cls-2{stroke:#000;}.cls-10,.cls-11,.cls-12,.cls-2,.cls-4,.cls-7,.cls-8,.cls-9{stroke-miterlimit:10;}.cls-11,.cls-2,.cls-4{stroke-width:5.83px;}.cls-3{fill:#b78d4b;}.cls-4{stroke:#332f14;}.cls-12,.cls-5{fill:#afff15;}.cls-6{fill:#28280f;}.cls-10,.cls-11,.cls-7,.cls-8,.cls-9{fill:none;}.cls-10,.cls-7,.cls-8,.cls-9{stroke:#afff15;}.cls-7{stroke-width:4.32px;}.cls-8{stroke-width:4.38px;}.cls-9{stroke-width:4.07px;}.cls-10{stroke-width:2.6px;}.cls-11{stroke:#1c331e;}.cls-12{stroke:#222310;stroke-width:8.75px;}</style>
  </defs>
  <g
     id="Слой_2"
     data-name="Слой 2">
    <g
       id="Слой_8"
       data-name="Слой 8">
      <rect
         class="cls-1"
         width="512"
         height="512"
         id="rect2540"
         x="0"
         y="0" />
    </g>
    <g
       id="Слой_11"
       data-name="Слой 11">
      <ellipse
         class="cls-2"
         cx="254.42"
         cy="246.14999"
         rx="107.22"
         ry="102.84"
         id="ellipse2543" />
      <path
         class="cls-3"
         d="m 243.07,269.55 c 0,0 -18.48,48.81 -2.53,77.95 0,0 15.42,4.44 27.55,1.46 0,0 14.07,-23.61 1.24,-79.41 z"
         id="path2545" />
      <path
         class="cls-3"
         d="m 319.32,247.69 c 0,0 24.86,39.36 7.17,74.47 L 300.37,339 c 0,0 14.35,-31.39 -6,-74.84 z"
         id="path2547" />
      <path
         class="cls-3"
         d="m 333.27,206 c 0,0 27,13.69 27,56.4 l -9.51,24.37 c 0,0 9.51,-31.83 -20.86,-66.13 z"
         id="path2549" />
      <path
         class="cls-3"
         d="m 193.75,250.6 c 0,0 -29.23,36.45 -11.55,71.56 L 208.32,339 c 0,0 -14.34,-31.39 6,-74.84 z"
         id="path2551" />
      <path
         class="cls-3"
         d="m 175.42,206 c 0,0 -26.95,13.69 -26.95,56.4 l 9.53,24.4 c 0,0 -9.51,-31.83 20.86,-66.13 z"
         id="path2553" />
      <ellipse
         class="cls-4"
         cx="254.42"
         cy="206.03"
         rx="79"
         ry="64.18"
         id="ellipse2555" />
      <ellipse
         class="cls-5"
         cx="224.59"
         cy="250.60001"
         rx="7.29"
         ry="10.94"
         transform="rotate(-67.18,224.61064,250.60353)"
         id="ellipse2557" />
      <ellipse
         class="cls-5"
         cx="316.04999"
         cy="222.24001"
         rx="10.94"
         ry="7.29"
         transform="rotate(-60,316.05756,222.23225)"
         id="ellipse2559" />
      <ellipse
         class="cls-5"
         cx="316.64999"
         cy="185.16"
         rx="5.4000001"
         ry="8.71"
         transform="rotate(-25.25,316.66282,185.16477)"
         id="ellipse2561" />
      <ellipse
         class="cls-5"
         cx="193.75"
         cy="223.42"
         rx="7.29"
         ry="10.94"
         transform="rotate(-30,193.75568,223.41668)"
         id="ellipse2563" />
      <ellipse
         class="cls-5"
         cx="192.28999"
         cy="184.89"
         rx="8.71"
         ry="5.4000001"
         transform="rotate(-64.75,192.28241,184.88561)"
         id="ellipse2565" />
      <ellipse
         class="cls-5"
         cx="284.39999"
         cy="250.60001"
         rx="10.94"
         ry="7.29"
         transform="rotate(-22.82,284.34143,250.5587)"
         id="ellipse2567" />
      <polygon
         class="cls-6"
         points="222.8,238.39 206.16,222.67 202.37,243.86 "
         id="polygon2569" />
      <polygon
         class="cls-6"
         points="200.06,210.66 198.58,192.47 185.03,203.02 "
         id="polygon2571" />
      <polygon
         class="cls-6"
         points="207.24,177.14 217.27,165.19 202.7,163.47 "
         id="polygon2573" />
      <polygon
         points="257.64,153.07 251.03,153.07 254.44,148.88 "
         id="polygon2575" />
      <polygon
         points="261.9,155.18 254.49,145.48 246.6,155.18 "
         id="polygon2577" />
      <polygon
         class="cls-6"
         points="237.55,242.29 269.33,242.29 254.4,262.43 "
         id="polygon2579" />
      <polygon
         class="cls-6"
         points="286.64,238.39 303.27,222.67 307.06,243.86 "
         id="polygon2581" />
      <polygon
         class="cls-6"
         points="309.37,210.66 310.86,192.47 324.4,203.02 "
         id="polygon2583" />
      <polygon
         class="cls-6"
         points="302.19,177.14 292.17,165.19 306.74,163.47 "
         id="polygon2585" />
      <polygon
         class="cls-6"
         points="247.53,155.18 262.84,155.18 254.94,145.48 "
         id="polygon2587" />
      <path
         class="cls-7"
         d="m 358.72,228.41 c 0,46.82 -46.72,84.78 -104.34,84.78 C 196.76,313.19 150,275.23 150,228.41"
         id="path2589" />
      <path
         class="cls-8"
         d="m 208.26,337.14 c 0,0 -8.19,-25.44 3.19,-64.16 l 24.81,14.28 c 0,0 -7.7,52.74 4.28,60.24"
         id="path2591" />
      <path
         class="cls-9"
         d="m 178.31,317.05 c -11.31,-26.39 7,-58.49 7,-58.49 l -15,-23.19 c -9.75,13.85 -15.42,35.53 -12.35,51.43"
         id="path2593" />
      <path
         class="cls-10"
         d="m 151.27,226.12 c 2.32,-12.3 10.55,-24 18.95,-33.76 l -2.37,18.71 c 0,0 -18.72,23 -19.38,43.9"
         id="path2595" />
      <path
         class="cls-8"
         d="m 300.37,340.06 c 0,0 9.85,-24.15 -0.28,-55.41 l -27.72,-6.14 c 0,0 8.43,56.36 -4.28,70.45"
         id="path2597" />
      <path
         class="cls-9"
         d="m 350.65,288.25 c 3.07,-15.9 -1,-28 -9.43,-45.59 l -19.34,8.61 c 0,0 19.74,40.85 8.44,67.24"
         id="path2599" />
      <path
         class="cls-10"
         d="m 358.81,226.12 c -2.32,-12.3 -12,-22.51 -20.4,-32.31 l 2.37,18.72 c 0,0 18.72,18.65 19.38,39.52"
         id="path2601" />
      <ellipse
         class="cls-11"
         cx="254.42"
         cy="246.14999"
         rx="107.22"
         ry="102.84"
         id="ellipse2603" />
      <ellipse
         class="cls-5"
         cx="280.94"
         cy="153.50999"
         rx="5.1199999"
         ry="9.2600002"
         transform="rotate(-72.64,280.91821,153.51201)"
         id="ellipse2605" />
      <ellipse
         class="cls-5"
         cx="228.87"
         cy="153.24001"
         rx="9.2600002"
         ry="5.1199999"
         transform="rotate(-17.36,228.93682,153.25816)"
         id="ellipse2607" />
      <ellipse
         class="cls-12"
         cx="254.42"
         cy="198.95"
         rx="53.349998"
         ry="43.349998"
         id="ellipse2609" />
    </g>
  </g>
</svg>
