<svg xmlns="http://www.w3.org/2000/svg" viewBox="0 0 500.41 500.25"><defs><style>.cls-1{fill:#4f5a5e;}.cls-2{fill:#515c61;}.cls-3{fill:#3a4143;}.cls-4{fill:#756b50;}</style></defs><g id="Слой_2" data-name="Слой 2"><g id="Слой_4" data-name="Слой 4"><rect class="cls-1" y="0.25" width="500" height="500"/></g><g id="Слой_5" data-name="Слой 5"><rect class="cls-2" x="1.52" y="2.81" width="496.95" height="37.24"/><path class="cls-3" d="M497,4.34V38.53H3.05V4.34H497m3.05-3H0V41.58H500V1.29Z"/><rect class="cls-2" y="4.39" width="500" height="34.09"/><rect class="cls-4" y="10.59" width="500" height="21.69"/></g><g id="Слой_6" data-name="Слой 6"><rect class="cls-2" x="1.52" y="169.13" width="496.95" height="37.24"/><path class="cls-3" d="M497,170.66v34.19H3.05V170.66H497m3.05-3H0V207.9H500V167.61Z"/><rect class="cls-2" y="170.71" width="500" height="34.09"/><rect class="cls-4" y="176.91" width="500" height="21.69"/><rect class="cls-2" x="1.52" y="335.46" width="496.95" height="37.24"/><path class="cls-3" d="M497,337v34.19H3.05V337H497m3.05-3.05H0v40.29H500V333.93Z"/><rect class="cls-2" y="337.03" width="500" height="34.09"/><rect class="cls-4" y="343.23" width="500" height="21.69"/></g><g id="Слой_7" data-name="Слой 7"><rect class="cls-2" x="461.65" y="1.52" width="37.24" height="496.95"/><path class="cls-3" d="M497.36,3.05V497H463.17V3.05h34.19m3.05-3H460.12V500h40.29V0Z"/><rect class="cls-2" x="463.22" width="34.09" height="500"/><rect class="cls-4" x="230.27" y="239.15" width="500" height="21.69" transform="translate(730.27 -230.27) rotate(90)"/><rect class="cls-2" x="212.73" y="1.78" width="37.24" height="496.95"/><path class="cls-3" d="M248.45,3.3V497.21H214.26V3.3h34.19m3.05-3H211.21v500H251.5V.25Z"/><rect class="cls-2" x="214.31" y="0.25" width="34.09" height="500"/><rect class="cls-4" x="-18.65" y="239.41" width="500" height="21.69" transform="translate(481.61 18.9) rotate(90)"/></g><g id="Слой_9" data-name="Слой 9"><rect class="cls-4" x="456" y="10.59" width="35" height="21.69"/><rect class="cls-2" x="211" y="170.71" width="43.51" height="34.09"/><rect class="cls-4" x="211" y="176.91" width="55" height="21.69"/><rect class="cls-4" x="199.51" y="343.41" width="55" height="21.69"/><rect class="cls-4" x="203.85" y="178.7" width="55" height="21.69" transform="translate(420.9 -41.81) rotate(90)"/><rect class="cls-2" x="459.83" y="4.39" width="40.58" height="34.09"/><rect class="cls-4" x="453.48" y="10.58" width="46.93" height="21.69"/><rect class="cls-4" x="457" y="16.61" width="46.53" height="21.69" transform="translate(507.72 -452.81) rotate(90)"/></g><g id="Слой_10" data-name="Слой 10"><rect class="cls-2" x="211" y="4.39" width="43.51" height="34.09"/><rect class="cls-4" x="204.65" y="10.58" width="61.35" height="21.69"/><rect class="cls-4" x="208.09" y="16.61" width="46.53" height="21.69" transform="translate(258.81 -203.9) rotate(90)"/></g><g id="Слой_11" data-name="Слой 11"><rect class="cls-2" x="211" y="337.23" width="43.51" height="34.09"/><rect class="cls-4" x="204.65" y="343.42" width="61.35" height="21.69"/><rect class="cls-4" x="208.09" y="349.45" width="46.53" height="21.69" transform="translate(591.65 128.94) rotate(90)"/></g><g id="Слой_12" data-name="Слой 12"><rect class="cls-2" x="459.83" y="170.76" width="40.58" height="34.09"/><rect class="cls-4" x="453.48" y="176.96" width="46.93" height="21.69"/><rect class="cls-4" x="457" y="182.99" width="46.53" height="21.69" transform="translate(674.1 -286.43) rotate(90)"/></g><g id="Слой_13" data-name="Слой 13"><rect class="cls-2" x="459.79" y="337.08" width="40.62" height="34.09"/><rect class="cls-4" x="453.45" y="343.28" width="46.97" height="21.69"/><rect class="cls-4" x="456.97" y="349.3" width="46.53" height="21.69" transform="translate(840.38 -120.08) rotate(90)"/></g></g></svg>