<svg xmlns="http://www.w3.org/2000/svg" viewBox="0 0 400 400"><defs><style>.cls-1{fill:#e8d78b;}.cls-2{fill:#67bff0;}.cls-3{fill:#e885f2;}.cls-4{fill:#ffff69;}.cls-5{fill:#ff8a8a;}.cls-6{fill:#5cd67f;}</style></defs><g id="Слой_2" data-name="Слой 2"><g id="Слой_39" data-name="Слой 39"><rect class="cls-1" width="400" height="400"/><g id="Слой_48" data-name="Слой 48"><path class="cls-2" d="M66.07,67.66a50.39,50.39,0,0,1,5.07,9.18L69,71.68a55,55,0,0,1,3.67,13.58l-.78-5.74a61.29,61.29,0,0,1,0,16l.77-5.74a65.13,65.13,0,0,1-4.47,16.44l2.18-5.16a62.14,62.14,0,0,1-7.9,13.59l3.37-4.37A55.65,55.65,0,0,1,56.09,120l4.37-3.38a50.34,50.34,0,0,1-10.33,6.13,16.3,16.3,0,0,0-6.06,5.56,16.17,16.17,0,0,0-3.86,7.34,16.38,16.38,0,0,0-.39,8.61,16.17,16.17,0,0,0,2.56,8c3,4.61,7.4,8.67,12.9,9.92L61,163a21.41,21.41,0,0,0,10.9-3,49.83,49.83,0,0,0,8.6-4.85,82.71,82.71,0,0,0,11.58-9.54A90.51,90.51,0,0,0,101.53,134a62.15,62.15,0,0,0,4.94-8.56c3.61-7.61,6.56-15.47,7.74-23.83a97.21,97.21,0,0,0,1.35-15.31,93.72,93.72,0,0,0-1.73-15.22,53.13,53.13,0,0,0-3.11-10.56c-2.1-5.12-4.19-10.08-7.37-14.62a16.3,16.3,0,0,0-5.56-6.06A16.12,16.12,0,0,0,90.45,36a16.38,16.38,0,0,0-8.61-.39,16.1,16.1,0,0,0-8,2.56c-4.61,3-8.67,7.4-9.93,12.9s-1.12,11.92,2.18,16.64Z"/><path class="cls-3" d="M36.81,347.4c.9-.18,1.8-.33,2.71-.46l-5.74.78a45.48,45.48,0,0,1,11.83,0L39.87,347a51.31,51.31,0,0,1,12.71,3.49l-5.15-2.17a56.09,56.09,0,0,1,12.35,7.24l-4.37-3.38A57.26,57.26,0,0,1,65.33,362L62,357.64A52.73,52.73,0,0,1,68.69,369l-2.18-5.16a47.11,47.11,0,0,1,3.26,11.7L69,369.82a46.66,46.66,0,0,1,.39,5.79,16.1,16.1,0,0,0,1.86,8.32,16.2,16.2,0,0,0,4.46,6.95,16.17,16.17,0,0,0,7,4.46A16.27,16.27,0,0,0,91,397.2c5.59-.25,11.38-2.09,15.27-6.32a22.39,22.39,0,0,0,6.32-15.27A73.75,73.75,0,0,0,111,361.4a45.47,45.47,0,0,0-2.48-8.24,83.29,83.29,0,0,0-5.93-12.56,87.63,87.63,0,0,0-8.41-11.23,55.3,55.3,0,0,0-6.19-6.15,94.51,94.51,0,0,0-11.29-8.41,88,88,0,0,0-12.59-6,52.29,52.29,0,0,0-8.39-2.71,76,76,0,0,0-14.94-1.94,70.54,70.54,0,0,0-15.4,1.61A16.27,16.27,0,0,0,18,309.63a16.38,16.38,0,0,0-5.56,6.06,16,16,0,0,0-2.56,8,16.34,16.34,0,0,0,.39,8.6c1.69,5.23,4.92,10.27,9.92,12.91l5.15,2.17a21.71,21.71,0,0,0,11.48,0Z"/><path class="cls-4" d="M373.81,349.89c-.88-.32-1.76-.66-2.62-1l5.15,2.17a50.9,50.9,0,0,1-11.16-6.57l4.37,3.37a56.68,56.68,0,0,1-10-10.07l3.38,4.37a63.61,63.61,0,0,1-8-13.7l2.18,5.16a64.81,64.81,0,0,1-4.47-16.21l.77,5.73a59.82,59.82,0,0,1-.06-15.76l-.77,5.74a52.9,52.9,0,0,1,3.63-13.36l-2.18,5.16a52.39,52.39,0,0,1,3.12-6.11,16,16,0,0,0,2.57-8,19.45,19.45,0,0,0-4.25-15.95,16.38,16.38,0,0,0-6.06-5.56c-5-2.64-11.08-4-16.64-2.17A22.75,22.75,0,0,0,319.9,277a79,79,0,0,0-6.31,13.85,52.48,52.48,0,0,0-2.44,9.55,91.29,91.29,0,0,0-1.44,15.29,97.87,97.87,0,0,0,1.63,15.18,63.54,63.54,0,0,0,2.45,9.68,101.07,101.07,0,0,0,5.95,14.07,62.05,62.05,0,0,0,5.17,8.32,91.07,91.07,0,0,0,9.68,11.59,80.39,80.39,0,0,0,12.83,10.05,75.49,75.49,0,0,0,14.92,6.94,16.35,16.35,0,0,0,8.6.39,16.13,16.13,0,0,0,8-2.56,24.11,24.11,0,0,0,9.92-12.9c1.26-5.53,1-11.73-2.17-16.64l-3.38-4.37a21.63,21.63,0,0,0-9.53-5.55Z"/><path class="cls-5" d="M326.42,97.31c-.13-.3-.26-.59-.38-.89l2.17,5.16a45.28,45.28,0,0,1-3-11.27l.78,5.74A49.66,49.66,0,0,1,326,83.16l-.77,5.74A55.63,55.63,0,0,1,329,75.14l-2.18,5.15a57.31,57.31,0,0,1,7.37-12.64L330.84,72a53.38,53.38,0,0,1,9.37-9.39L335.84,66a47.27,47.27,0,0,1,10.3-6L341,62.16a43.82,43.82,0,0,1,7.26-2.32A16.24,16.24,0,0,0,355.58,56a16.35,16.35,0,0,0,5.56-6,16.07,16.07,0,0,0,2.56-8,16.28,16.28,0,0,0-.38-8.61c-1.69-5.22-4.93-10.26-9.92-12.9l-5.16-2.18a21.92,21.92,0,0,0-11.48,0A72.86,72.86,0,0,0,323.62,23a46.49,46.49,0,0,0-7.54,4.23A83.21,83.21,0,0,0,305.15,36a89.41,89.41,0,0,0-8.89,10.71,75.07,75.07,0,0,0-10.17,20.33,53.89,53.89,0,0,0-2.18,8.46,86.27,86.27,0,0,0-1.53,14.07A75.39,75.39,0,0,0,284,104.74c1,5,3,9.68,5.1,14.36a16.37,16.37,0,0,0,5.56,6.06,19.37,19.37,0,0,0,15.95,4.24,16,16,0,0,0,8-2.56c4.61-3,8.67-7.39,9.93-12.9l.77-5.74a21.58,21.58,0,0,0-2.95-10.89Z"/><path class="cls-6" d="M188.38,242.51a43.42,43.42,0,0,1,1.59-4.44l-2.26,5.35A47.58,47.58,0,0,1,193.82,233l-3.5,4.53a53.5,53.5,0,0,1,9.47-9.43l-4.53,3.5A59.16,59.16,0,0,1,208,224.15l-5.35,2.26a59.2,59.2,0,0,1,14.81-4.07l-5.95.8a53.63,53.63,0,0,1,14,0l-5.94-.8a47.87,47.87,0,0,1,11.68,3.16l-5.35-2.25c1.26.53,2.49,1.12,3.69,1.76a16.68,16.68,0,0,0,8.32,2.65,20.13,20.13,0,0,0,16.54-4.4,16.82,16.82,0,0,0,5.76-6.28c2.75-5.2,4.12-11.49,2.26-17.25-1.75-5.42-5.11-10.63-10.28-13.37-3-1.57-6.1-2.81-9.19-4.08-1.4-.57-2.81-1.08-4.26-1.52a80.5,80.5,0,0,0-14.46-2.54,52.15,52.15,0,0,0-9-.2,94.6,94.6,0,0,0-14.62,2.06,58.9,58.9,0,0,0-8.71,2.7,97.64,97.64,0,0,0-13.26,6.12,93.22,93.22,0,0,0-11.73,8.51,51.68,51.68,0,0,0-6.38,6.17,76.81,76.81,0,0,0-9.15,12.5,48.05,48.05,0,0,0-2.27,4.61,96,96,0,0,0-3.9,9.93,16.86,16.86,0,0,0-.4,8.93,16.68,16.68,0,0,0,2.65,8.32,16.93,16.93,0,0,0,5.77,6.28,16.9,16.9,0,0,0,7.61,4l6,.8a22.27,22.27,0,0,0,11.29-3.05,23.83,23.83,0,0,0,10.29-13.38Z"/></g></g></g></svg>