<svg xmlns="http://www.w3.org/2000/svg" width="482" height="482"><path d="M0 0h482v482H0z" fill="#4a6343"/><path d="M325.6 453.83L96.03 134.88l35.07-26.2 240.66 310.65 4.4 53.44z" fill="#d4d4d4"/><path d="M230.83 237.44c-7.58 6.8-19.02 10.93-34.45.28-15.94-11-54.78-64.9-59.57-83.5-2.93-11.4 2.33-21.17 11.24-23.64l-16.96-21.9-35.07 26.2L253.66 353.9l31.16-46.75z" fill="#c1c1c2"/><path d="M120.06 122.4l-7.75 5.8 241.5 312.24z" fill="#a6a7a7"/><path d="M62.88 13.02c-4.84-6.47-18.44-4.48-30.4 4.44S14.77 38.87 19.6 45.35c3.34 4.47 17.08-.94 29.6 15.84s42.08 72.48 42.08 72.48l35.92-26.83L70.6 47.15c-12.3-16.47-4.37-29.66-7.7-34.13z" fill="#2e2c25"/><path d="M32.5 17.46c8.6-6.42 18.04-9.23 24.47-7.9C41.8 11.04 23.1 25.7 32.5 38.08c10.53 13.9 26.26 2.3 32.1-2.85a35.7 35.7 0 0 0 5.99 11.93c.7.96 2.9 3.4 5.97 6.7-6.02 3.57-17.9 11.86-12.54 19.02 5.52 7.36 19.02-1.78 24.66-6.14l14.2 14.85c-36 27.72-14.74 38.12 13.5 14.03l10.83 11.2-35.92 26.83S61.75 77.97 49.22 61.2 22.94 49.82 19.6 45.35c-4.84-6.47.93-18.96 12.88-27.88z" fill="#24201a"/><path d="M50.5 151.2l109.27-81.62c16.13-12.05 33.37-19.7 44.63-7.33 9.15 10.06 8.65 25.26-10.24 38.83 6.66-11.96 2.36-32.55-21.73-14.56l-109.28 81.6c-15.82 11.82-11.5 29.25 8.13 23.9-16.67 9.33-30.88 4.46-37.76-4.74-8.66-11.6.14-23.53 16.97-36.1z" fill="#2e2c25"/><path d="M69.2 40.87l-25.16 18.7a3.51 3.51 0 0 0 4.2 5.62L73.4 46.5a3.51 3.51 0 1 0-4.2-5.62zm28.6 28.96l-33.72 25.2a3.51 3.51 0 1 0 4.2 5.62L102 75.45a3.51 3.51 0 0 0-4.2-5.62z" fill="#bababa"/><path d="M44.2 174.72c16.93-14.65 111.3-86.25 133.44-102.2 11.24-8.1 22.38-9.37 30.17-5.45 5.2 9.74 2.46 22.46-13.62 34 6.66-11.96 2.36-32.55-21.73-14.56l-109.27 81.6c-15.82 11.82-11.5 29.25 8.13 23.9-16.53 9.26-30.64 4.54-37.57-4.53 1.22-3.45 4.4-7.55 10.46-12.8z" fill="#24201a"/><g fill="#e6e2c7"><path d="M72.47 68.17c-5.46-7.03 3.98-12.2 3.98-12.2l9.78 10.22c-4.58 4-11.34 5.1-13.77 2zm22.13 33.77c-4.46-3.96 8.43-16.86 8.43-16.86l9.78 10.22c-6.06 3.55-13.75 10.6-18.2 6.64z"/><ellipse transform="matrix(-.8313 .5558 -.5558 -.8313 453.786 80.8841)" cx="304.79" cy="278.39" rx="12.06" ry="2.14"/><path d="M55.15 153.24c.7.95 23.34-14.77 50.55-35.1s48.7-37.6 48-38.54c-.7-.94-23.34 14.77-50.55 35.1-27.2 20.33-48.7 37.6-48 38.53z"/></g><path d="M153.94 142.3l66.8 89.53s-55.8-53.72-66.8-89.53zm217.64 313.38l-9.64-30.3-71.63-104.7 76.45 99.18z" fill="#f0f0f0"/><path d="M152.16 453.83l229.57-318.94-35.07-26.2L106 419.35l-4.4 53.44z" fill="#d4d4d4"/><path d="M346.66 108.7l-40.07 51.73c16.14-9.04 11.22 8.43 4.22 32.6 38.86-33.9 36.26-18.02 21.02 11.2l49.9-69.32z" fill="#c1c1c2"/><path d="M357.7 122.4l7.75 5.8-241.5 312.24z" fill="#a6a7a7"/><path d="M414.93 13.02c4.84-6.47 18.44-4.48 30.4 4.44 11.95 8.93 17.72 21.4 12.88 27.88-3.34 4.47-17.08-.94-29.6 15.84s-42.1 72.48-42.1 72.48l-35.9-26.83 56.62-59.68c12.3-16.47 4.37-29.66 7.7-34.13z" fill="#2e2c25"/><path d="M445.32 17.46c-8.6-6.42-18.03-9.23-24.46-7.9C436 11.04 454.7 25.7 445.32 38.08c-10.53 13.9-26.25 2.3-32.1-2.85-1.03 3.7-2.84 7.7-6 11.93-.7.96-2.9 3.4-5.97 6.7 6.02 3.57 17.9 11.86 12.54 19.02-5.52 7.36-19.02-1.78-24.67-6.14l-14.2 14.85c36 27.72 14.74 38.12-13.5 14.03l-10.84 11.2 35.9 26.83s29.56-55.7 42.1-72.48 26.27-11.37 29.6-15.84c4.84-6.47-.94-18.96-12.9-27.88z" fill="#24201a"/><path d="M427.3 151.2L318.02 69.58c-16.13-12.05-33.37-19.7-44.62-7.33-9.15 10.06-8.65 25.26 10.24 38.83-6.66-11.96-2.36-32.55 21.73-14.56l109.28 81.6c15.82 11.82 11.52 29.25-8.13 23.9 16.66 9.33 30.88 4.46 37.76-4.74 8.66-11.6-.14-23.53-16.97-36.1z" fill="#2e2c25"/><path d="M408.62 40.87l25.15 18.68a3.51 3.51 0 0 1-4.2 5.62L404.43 46.5a3.51 3.51 0 1 1 4.19-5.62zm-28.6 28.96l33.72 25.2a3.51 3.51 0 0 1-4.2 5.62l-33.73-25.2a3.51 3.51 0 0 1 4.2-5.62z" fill="#bababa"/><path d="M433.63 174.72c-16.93-14.65-111.3-86.25-133.44-102.2-11.24-8.1-22.38-9.37-30.17-5.45-5.2 9.74-2.46 22.46 13.62 34-6.66-11.96-2.36-32.55 21.73-14.56l109.28 81.6c15.82 11.82 11.52 29.25-8.13 23.9 16.53 9.26 30.64 4.54 37.57-4.53-1.22-3.45-4.4-7.55-10.46-12.8z" fill="#24201a"/><g fill="#e6e2c7"><path d="M405.34 68.17c5.47-7.03-3.98-12.2-3.98-12.2l-9.78 10.22c4.58 4 11.34 5.1 13.76 2zm-22.14 33.77c4.47-3.96-8.43-16.86-8.43-16.86L365 95.3c6.06 3.55 13.75 10.6 18.2 6.64z"/><ellipse transform="matrix(.8313 .5558 -.5558 .8313 12.2099 -596.765)" cx="691.24" cy="278.39" rx="12.06" ry="2.14"/><path d="M422.67 153.24c-.7.95-23.34-14.77-50.55-35.1-27.2-20.34-48.7-37.6-47.98-38.54.7-.94 23.34 14.77 50.55 35.1 27.2 20.33 48.7 37.6 48 38.53z"/></g><path d="M147.97 451.57L263.4 291.22l-122.3 151-34.32 25.58z" fill="#f0f0f0"/><path d="M382.3 284.8c0 80.53-65.28 145.8-145.8 145.8S90.7 365.33 90.7 284.8 155.97 139 236.5 139s145.8 65.28 145.8 145.8z" fill="#899291"/><path d="M379.42 284.8a144.4 144.4 0 0 1-59.75 116.25c-37.63 27.12-87.1 33.68-130.76 18.55-42.7-14.8-76.15-50.55-89.28-93.58-13.55-44.4-3.8-93.78 24.92-130.08 28.5-36.02 73.26-55.84 119-53.9 45.6 1.95 88.04 27 112.93 65 15.1 23.05 22.84 50.25 22.97 77.73.02 3.73 5.8 3.73 5.8 0-.2-44.55-20.27-86.96-54.73-115.23-34.7-28.48-81.13-39.25-124.96-30.23-42.9 8.83-80.12 37.68-100.62 76.18-21.16 39.75-22.33 87.86-4.6 129.03 17.3 40.15 52.96 70.77 94.72 83.1 43.17 12.74 90.93 4.3 127.56-21.6 39.14-27.68 62.4-73.46 62.62-121.25.02-3.74-5.77-3.73-5.8 0z" fill="#393333"/><path d="M372.37 284.36a138.6 138.6 0 0 1-62.67 115.14c-39.25 25.65-90.36 28.7-132.7 8.96-41.28-19.24-70.34-58.96-77.3-103.8-7.15-46.14 10.92-93.3 45.83-123.9 35.24-30.9 85.16-40.9 129.85-27.5 43.74 13.1 78.36 48.76 91.4 92.3 3.77 12.58 5.5 25.7 5.57 38.8.01 2.1 3.3 2.12 3.28 0-.22-43.96-20.86-85.23-55.7-111.95-35.42-27.16-83.02-35.08-125.6-22.32-41.33 12.4-74.8 44.4-90.3 84.47-16.1 41.66-10.33 89.73 14 126.96 23.82 36.45 64.2 59.63 107.47 62.86 44.14 3.3 87.8-15.5 116.56-48.93 21.72-25.24 33.4-57.88 33.57-91.08.01-2.1-3.27-2.1-3.28 0z" fill="#cecccc"/><path d="M137.76 257.8l22.34-4.06 29.45-15.24h9.14s7.1-19.3 32.5-30.46l36.56-11.17s23.36-27.42 34.53-45.7l16.25 32.5-5.08 10.15s57.9 24.37 69.06 80.23c0 0-24.37-30.47-30.46-16.25 0 0 24.38 14.22 24.38 54.84 0 0 6.1 40.63-47.73 91.4 0 0 18.28-35.54 11.17-41.64 0 0-25.4 66-85.3 74.14 0 0 15.23-15.23 24.37-29.45 0 0-32.5-1.02-36.56-3.05 0 0 62.97-22.34 43.67-44.68 0 0-16.25 7.1-21.33 4.06 0 0 22.34-29.45 11.17-46.7 0 0-23.35-6.1-35.54 9.14 0 0-15.24 8.13-16.25 21.33h-16.25l-17.26-14.22h12.18l-5.07-5.08 14.22 2.03-9.14-5.07s15.24 3.04 22.35-4.07c0 0 2.03 2.03 4.06-11.17 0 0-3.05-23.36 5.08-32.5l-12.2-8.13s-17.26-8.13-31.48-3.05c0 0-8.13 7.1-7.1 15.24l-6.1-3.05v9.14l-7.1-4.06 11.17 18.28s-16.25-3.05-24.37-19.3l-5.08 3.05c0 0-3.05-7.1-14.22-27.42z" fill="#60605d"/><path d="M137.76 251.22l22.34-4.06 29.45-15.24h9.14s7.1-19.3 32.5-30.46l36.56-11.17s23.36-27.42 34.53-45.7l16.25 32.5-5.08 10.15s57.9 24.37 69.06 80.23c0 0-20-25.47-30.46-16.25 0 0 24.38 14.22 24.38 54.84 0 0 6.1 40.63-47.73 91.4 0 0 18.28-35.54 11.17-41.64 0 0-25.4 66-85.3 74.14 0 0 15.23-15.23 24.37-29.45 0 0-32.5-1.02-36.56-3.05 0 0 62.97-22.34 43.67-44.68 0 0-16.25 7.1-21.33 4.06 0 0 22.34-29.45 11.17-46.7 0 0-23.35-6.1-35.54 9.14 0 0-15.24 8.13-16.25 21.33h-16.25l-17.26-14.22h12.18l-5.07-5.08 14.22 2.03-9.14-5.07s15.24 3.04 22.35-4.07c0 0 2.03 2.03 4.06-11.17 0 0-3.05-23.36 5.08-32.5l-12.2-8.13s-17.26-8.13-31.48-3.05c0 0-8.13 7.1-7.1 15.24l-6.1-3.05v9.14l-7.1-4.06 11.17 18.28s-16.25-3.05-24.37-19.3l-5.08 3.05c0 0-3.05-7.1-14.22-27.42z" fill="#7c7d78"/><path d="M138.2 252.77c9.44-1.72 19.1-2.35 27.66-6.78l23.34-12.08c.75-.4 1.58-.4.5-.4h9c.76 0 1.3-.5 1.55-1.18 4.15-11.02 14.62-19.97 24.4-25.78 9.56-5.67 21.2-7.9 31.74-11.13l11.66-3.56c2.28-.7 4.5-4.8 5.9-6.5 10.53-12.78 21-25.86 29.73-39.96h-2.77l16.23 32.47c-.62-1.24.23-2.02-.62-.3l-4.44 8.87c-.35.7-.27 1.84.57 2.2 32.72 13.86 61.04 44.23 68.32 79.27l2.68-1.56c-6.34-8.02-21.58-25.16-32.73-16.25-.82.66-.5 2.04.32 2.52 19.1 11.28 23.64 38.36 23.8 57.23.26 33.63-24.53 64.67-47.47 86.5l2.52 1.94c3.3-6.44 6.22-13.1 8.78-19.88 2.17-5.76 7.67-18.26 2.14-23.7-.92-.9-2.25-.4-2.68.7-4.62 11.95-11.9 23.3-19.77 33.3-16.1 20.55-38.2 35.95-64.4 39.7l1.56 2.68c9.06-9.1 17.6-19.02 24.62-29.77.7-1.06-.23-2.37-1.38-2.4l-15.18-.67c-4.12-.23-8.25-.5-12.36-.88-2.6-.24-5.8-.22-8.22-1.27l-.38 2.93c15.2-5.42 62.88-25 44.38-47.36-.5-.6-1.32-.52-1.94-.25-4.97 2.15-14.43 6.64-19.7 4.06l.57 2.2a83.1 83.1 0 0 0 12.37-23.63c2.15-6.47 5.27-24.16-4.46-25.9-11.56-2.08-24.23-.37-32.98 8-3.08 2.94-6.77 5.15-9.94 8.1-4.7 4.4-7.88 9.98-8.6 16.4l1.6-1.6h-15.13c-1.98 0 .8 1.12-1-.36l-16.25-13.4-1.13 2.74h12.18c1.4 0 2.12-1.75 1.13-2.74l-5.07-5.08-1.56 2.68 14.22 2.03c1.68.24 2.95-1.98 1.23-2.93l-9.14-5.08-1.23 2.93c7.96 1.53 17.62 1.22 23.9-4.48h-2.27c4.62 4.07 6.94-11.12 6.77-12.5-1.18-9.66-1.9-23.25 4.63-31.18.68-.82.6-1.9-.32-2.52l-11.57-7.7c-3.42-2.28-8.12-3.25-12.05-4.14-3.87-.9-7.86-1.24-11.82-1.18-2.85.05-8.05.2-10.24 2.18-4.57 4.1-7.9 10.07-7.5 16.3l2.4-1.38-6.1-3.05c-1.07-.53-2.4.1-2.4 1.38v9.14l2.4-1.38-7.1-4.06c-1.37-.78-3.04.8-2.2 2.2l11.17 18.28 1.8-2.35c-10.14-2-18.72-9.64-23.42-18.56-.4-.77-1.47-1-2.2-.58l-5.08 3.05 2.2.57c-4.07-9.42-9.3-18.44-14.22-27.42-1-1.8-3.76-.2-2.77 1.62 4.93 8.98 10.15 18 14.22 27.42.34.8 1.5.98 2.2.57l5.08-3.05-2.2-.58c5.05 9.6 14.43 17.9 25.33 20.03 1.3.26 2.6-1.07 1.8-2.35l-11.17-18.28-2.2 2.2 7.1 4.06c1.05.6 2.4-.16 2.4-1.38v-9.14l-2.4 1.38 6.1 3.05c1 .5 2.5-.1 2.4-1.38-.3-4.57 2.54-12.6 7.4-14.17 7.65-2.48 16.36-.84 23.82 1.5 6.4 2 11.6 6.3 17.13 10l-.32-2.52c-5.62 6.82-6.18 16.55-6.1 25.02a79.5 79.5 0 0 0 .53 8.42c.27 2.3-.95 5.52-1.6 7.75-.2.7-.48 1.35-.83 2-.23.4.64.05 1.14.48-.68-.6-1.6-.62-2.27 0-5.34 4.85-14.02 4.96-20.8 3.65-1.7-.33-2.9 2-1.23 2.93l9.14 5.07 1.23-2.93-14.22-2.03c-1.5-.2-2.8 1.44-1.56 2.68l5.07 5.08 1.13-2.74h-12.18c-1.3 0-2.25 1.8-1.13 2.74l16.88 13.9c1.66 1.37 4.3.78 6.3.78h11.45c.95 0 1.5-.73 1.6-1.6.7-6.36 4.52-11.37 9.17-15.5 2.35-2.08 5.5-3.36 7.5-5.74 7.34-8.68 20.27-9.9 30.8-8.15a30.6 30.6 0 0 1 2.26.46c.44.1 1.75 6.35 1.88 7.56.67 5.83-1.05 11.78-3.07 17.18-2.6 6.93-6.45 13.7-10.9 19.63-.5.66-.15 1.84.58 2.2 6.7 3.28 16.67-1.34 22.94-4.06l-1.94-.25c15.74 19.02-30.27 37.48-42.96 42-1.15.4-1.78 2.32-.38 2.93 5.58 2.42 13.08 2.03 19.02 2.4l18.35.86-1.38-2.4c-6.88 10.52-15.25 20.22-24.12 29.12-1.24 1.24.07 2.9 1.56 2.68 39.6-5.68 72.33-38.8 86.42-75.25l-2.68.7c2.18 2.14 1.04 6.66.5 9.24-.93 4.54-2.55 8.96-4.2 13.27-2.25 5.85-4.86 11.6-7.72 17.2-.83 1.6 1.17 3.23 2.52 1.94 23.76-22.6 48.67-54.4 48.4-89.12-.16-20.9-5.6-47.96-25.37-59.64l.32 2.52c8.88-7.1 23.27 10 28.2 16.25 1.08 1.37 2.97-.15 2.68-1.56-7.43-35.77-36.37-67.04-69.8-81.2l.58 2.2c1.67-3.33 4.25-6.94 5.24-10.54.56-2.02-2.67-6.26-3.5-7.9l-12.92-25.85c-.56-1.12-2.17-.97-2.77 0-8.87 14.37-19.58 27.65-30.32 40.65l-3.6 4.3c-.63.74.12.08.22.05l-1.34.4-15.87 4.85c-11.94 3.65-22.87 6.43-33.2 13.83-8.06 5.77-16.08 14.15-19.65 23.63l1.54-1.18c-4.57 0-8.42-.57-12.47 1.52l-19.8 10.25c-4.6 2.4-6.62 3.5-11.16 4.32l-17.9 3.26c-2.03.38-1.17 3.47.85 3.1z" fill="#393333"/><path d="M268.3 241c-21.33 5-77.72 3.33-77.72 3.33l-28.44 17.84H143.7l-5.93-10.95s15.72-.64 22.34-4.06l29.45-15.24h9.14s8.12-15.23 24.37-14.2c0 0 29.9 14.2 62.8 7.08" fill="#777"/><path d="M267.86 239.46c-16.33 3.7-33.86 3.4-50.5 3.53a824.8 824.8 0 0 1-21.4-.13c-2.26-.04-4.97-.67-6.96.58L162.4 260.1c-.8.5-1.45.46-.37.46h-16.7c-2 0-.94-.43-.33.7l-5.88-10.86-1.38 2.4c6.36-.28 12.85-1 19-2.68 4.5-1.24 8.75-3.97 12.86-6.1l19.93-10.3c1.3-.68-.05-.2.52-.2h8.63a1.6 1.6 0 0 0 1.38-.79c2.4-4.4 6.3-8.06 10.58-10.6 2.5-1.48 9.04-4.22 11.88-2.92 1.62.74 3.27 1.4 4.94 2 18.6 7 39.32 9.1 58.82 5.1 2.02-.4 1.17-3.5-.85-3.1-19.98 4.1-41.25 1.47-60.06-6.26-10.48-4.3-22.93 5.24-27.98 13.98.54-.94 1.76-.64-.5-.64h-5.52c-1.37 0-2.25.03-3.45.65l-28.63 14.8c-6.26 3.24-14.6 3.54-21.53 3.84-1.23.05-1.98 1.32-1.38 2.4l5.93 10.95a1.6 1.6 0 0 0 1.38.79c7.2 0 15.88 1.9 22.1-2l24.82-15.57c.88-.56.77-.24.05-.26 10.84.3 21.7.34 32.55.2 15.05-.2 30.75-.23 45.5-3.58 2.02-.45 1.16-3.54-.85-3.1z" fill="#393333"/><path d="M202.75 234.98h11.17l9.14-12.2c0 0-15.24 2.03-20.3 12.2z" fill="#2d2d2d"/><path d="M270.27 348.24s84.82-80.76-4.55-99.05l-14.22 10.15s-6.1 16.25 18.28 27.93c0 0 9.14 7.62 6.1 22.85 0 0 15.68 7.05-5.6 38.1z" fill="#6c6d68"/><path d="M271.4 349.37c14.13-13.5 27.3-30.5 33.9-49 4.06-11.37 4.54-24.58-3.26-34.5-4.68-5.94-11.23-10.07-18.16-12.94-4.8-2-9.77-3.47-14.83-4.67-3.8-.9-4.18-.44-7.14 1.68l-8.2 5.86c-1.08.77-3.26 1.77-3.75 3.13-1.18 3.27-.83 7.13.01 10.4 2.05 8.05 9.02 13.72 15.88 17.68 2.98 1.72 4.27 2.52 6.1 5.56 3.1 5.14 3.4 11.33 2.4 17.1-.12.66.05 1.5.74 1.8 2.38 1.1 3.73 3.76 4.38 6.16 2.7 10.14-5.28 21.94-10.55 29.76-1.16 1.72 1.62 3.32 2.77 1.62 6-8.92 13.04-20.33 11-31.64-.6-3.32-2.78-7.18-5.98-8.67l.74 1.8c1.45-8.32.26-16.74-5.38-23.28-2.2-2.56-5.85-3.65-8.63-5.5-4.52-3.02-8.35-7.3-10.13-12.5a16.3 16.3 0 0 1-.68-7.63 12 12 0 0 1 .38-1.64c-.15.5-.93.93.62-.18l12.1-8.64c1.28-.9 3.58.44 5.28.86 15.37 3.83 32.45 12.36 34 30 1.17 13.36-5.96 26.63-13 37.45a156.2 156.2 0 0 1-22.83 27.63c-1.5 1.43.77 3.7 2.27 2.27zm1.04-107.34c7.8-10.88 22.6-18.95 36.45-20.14 15.52-1.34 30.28 5.38 42.75 14 11.22 7.76 19.6 17.35 28.3 27.62 1.6 1.88 4.27-.83 2.7-2.7l-9.5-11.23c-5.86-6.94-13.43-12.74-20.88-17.9-12.9-8.93-28.4-14.92-44.3-13.55-14.82 1.28-30.1 9.76-38.82 21.95-1.43 2 1.87 3.9 3.3 1.92zm7.44 160.13a114.7 114.7 0 0 0 29.78-20.98c4.4-4.3 7.63-9.46 11.8-13.94 4.03-4.34 11.3-12 17.9-9.58 2.3.85 3.3-2.83 1-3.67-10.65-3.94-21.67 9.88-27.13 17.4-8.6 11.83-22.2 21.16-35.27 27.48-2.2 1.07-.28 4.35 1.92 3.3zm-.45-155.2c12.9-2 29.62-.46 42.8 4.24 11.7 4.17 21.82 11.85 28.4 22.45 9.48 15.28 10.25 34.35 8.53 51.75-1.23 12.43-5.7 24.34-9.97 36-.85 2.3 2.84 3.3 3.67 1 3.36-9.2 6.62-18.52 8.85-28.08 1.83-7.83 2.06-16.34 1.98-24.35-.16-15.2-3.73-31-13.2-43.22-13.66-17.63-36.24-24.06-57.72-24.34-4.77-.06-9.63.12-14.36.86-2.42.38-1.4 4.05 1 3.67zm8.25-35.4c12.78-18.95 16.92-44.67 16.5-66.97-.05-2.45-3.85-2.46-3.8 0 .4 21.66-3.56 46.63-16 65.05-1.38 2.04 1.92 3.95 3.3 1.92z" fill="#393333"/><path d="M283.47 210.6l-4.54-13.97-9.16-4.37s22.82-27.2 31.03-41.1c0 0 3.82 27.94-17.32 59.45z" fill="#545452"/><path d="M270.4 192.28l31.12-39.65-1.4-.58c-1.68 19.36-6.6 40.8-17.9 56.86-.6.87.8 1.7 1.42.83 11.47-16.32 16.4-38.03 18.12-57.7.06-.68-.96-1.13-1.4-.58l-31.12 39.65c-.64.82.5 2 1.16 1.16z" fill="#cecccc"/><path d="M285.87 211.06s42.92-10.33 92.66 43.7c0 0-6.02-37.72-65.07-67.52l5.08-10.15-14.28-25.94c0 0 .7 35.64-18.38 59.9z" fill="#6c6d68"/><path d="M286.08 211.85c8.58-2.02 18.4-.5 26.78 1.48 25.66 6.03 47.47 23.07 65.08 42.02.6.66 1.5-.05 1.37-.8-.87-5.27-3.37-10.46-5.84-15.12-7.2-13.62-18.22-25-30.22-34.47-2.65-2.1-27.9-19.66-29.05-17.4l3.72-7.43c.37-.74 1.8-2.56 1.3-3.5l-14.26-25.9c-.4-.7-1.54-.4-1.53.4.34 20.6-5.7 43.1-18.27 59.5-.64.84.78 1.65 1.42.83 12.75-16.62 18.84-39.45 18.5-60.32l-1.53.4 14.1 25.6c.4.75.36-.85.01-.15l-4.9 9.8c-.2.38-.12.9.3 1.12 21.02 10.73 40.94 24.93 54.4 44.64 4.47 6.54 9 14.43 10.3 22.4l1.37-.8c-17.73-19.07-39.3-35.63-64.88-42.2-8.9-2.3-19.45-3.86-28.57-1.7-1.03.24-.6 1.82.44 1.58z" fill="#393333"/><g fill="#cecccc"><path d="M139.87 253.24l15.24-1.3c2.94-.25 6.55-3.08 9.12-4.38l18.6-9.4c4.04-2.04 7.13-4.13 10.95-4.13 1.1 0 4.7.7 5.55-.3 1.6-1.87 3.4-3.58 5.22-5.23 5.06-4.58 11.93-9.7 18.76-6.76 17.82 7.64 38.05 9.93 57.1 6.58 1.04-.18.6-1.76-.44-1.58-19.23 3.38-40.1.93-57.88-7.32-4.8-2.22-11.38 2.26-15.06 4.94-2.7 1.97-5.16 4.28-7.48 6.68-.56.58-1.7 1.34-1.02 1.34h-4.77c-3.7 0-5.55 1.2-8.9 2.9l-26.73 13.5c-.63.32-3.2 1.5-2.8 1.48l-15.46 1.3c-1.05.1-1.05 1.73 0 1.64zm61.65 79.3c9.77-3.85 22.05-9.18 28.3-18.02 4-5.66 4.7-13.93 3.45-20.53-1.48-7.8.85-16.23 6.24-22 .26-.28.3-.66.13-1l-2.4-4.48c-1.23-2.28-6.1-4.3-8.3-5.53-6.5-3.64-13.76-5.9-21.04-7.35-4.3-.85-8.7-1.34-13.06-1.4-2.62-.04-5.2 2.28-7.4 3.52-6.4 3.6-12 9.7-17.64 14.37l-1.23 1.02c.01-.01.54-.1-.5-.1h-7.74c-3.35 0-4.42 1.54-7.05 3.74l1.3.17-5.88-11.15c-.5-.94-1.9-.1-1.42.83l5.88 11.15c.26.5.9.5 1.3.17l3.1-2.6c1.18-1 .35-.67 2.04-.67h9.4c1.1 0 2.8-2.07 3.53-2.7l14.94-12.4a36.2 36.2 0 0 1 6.5-3.73c7.02-.15 14.16 1.22 20.88 3.13 6.14 1.74 11.95 4.42 17.34 7.83 2.2 1.4 3.66 2.52 4.87 4.77l1.1 2.05c-.34-.63-2.55 2.6-2.7 2.83-4.43 6.3-4.45 14.2-3.52 21.5 1.1 8.62-1.16 16.42-7.66 22.05-6.57 5.7-15.07 9.8-23.12 12.97-.97.4-.55 1.97.44 1.6zm68.82 23.27c7.18-6.28 13.62-13.56 19.5-21.04 9.84-12.5 19-27.5 20.92-43.6.85-7.1.8-16.66-2.63-23.35-6.78-13.3-24-19.86-37.13-24.3l.2 1.5c2.3-1.5 3.67-3.12 5.9-3.35a103.6 103.6 0 0 1 5.88-.42 130.5 130.5 0 0 1 22.17.88c20.56 2.57 41.32 11.16 52.28 29.68 16.25 27.47 6 64.07-4.26 91.63-.37 1 1.22 1.42 1.58.44 10.78-28.96 20.9-66.94 2.67-95.2-11.04-17.12-31-25.15-50.44-27.94-7.83-1.12-15.77-1.46-23.68-1.14a103.4 103.4 0 0 0-6.34.44c-2.52.26-4.5 2.2-6.58 3.56-.6.4-.48 1.27.2 1.5 13.13 4.43 30.16 11 36.62 24.48.86 1.8 1.47 3.9 1.4 5.9s.67 4.17.84 6.2a47.2 47.2 0 0 1-.86 12.82c-2.98 15.86-12.56 30.24-22.62 42.52-5.12 6.24-10.7 12.3-16.77 17.63-.8.7.37 1.85 1.16 1.16z"/><path d="M271.38 244.9c13.32-12 33.6-24.2 52.1-20.17 2.92.64 6.17 1.12 9.4 2.5 11.28 4.8 21.16 13.3 30.34 21.22.8.7 1.96-.47 1.16-1.16-9.35-8.06-19.3-16.42-30.67-21.48-3.5-1.56-7.3-2.12-10.98-2.92-18.45-4.02-39.35 9-52.5 20.85-.8.7.38 1.87 1.16 1.16zm-6.68 179.96c7-.35 14.28-4.84 19.94-8.52 21.56-14 37.88-35.86 51.8-57.03.58-.9-.84-1.7-1.42-.83-13.72 20.84-29.63 41.88-50.57 56-5.5 3.7-12.85 8.38-19.76 8.73-1.05.05-1.06 1.7 0 1.64z"/><path d="M274.8 307.28c-.33-4.12-.14-8.23-1.64-12.13-1.56-4.06-5.36-7.12-8.76-9.6-2.54-1.84-6.06-2.82-8.15-5.2-2.54-2.9-4.56-6.28-5.98-9.86-1.3-3.26-1.74-6.92-1.03-10.36.38-1.82.27-1.52 1.53-2.44l7.77-5.67c4.32-3.15 7.45-5.1 12.48-6.88 1-.35.56-1.94-.44-1.58-5.24 1.85-8.37 3.76-12.88 7.04-2.73 2-8.5 4.5-9.7 7.87-2.28 6.33.58 13.44 3.9 18.78.9 1.45 3.05 5.1 4.6 5.82a45.9 45.9 0 0 1 9.44 5.72c6.38 5.1 6.63 11.06 7.22 18.5.1 1.05 1.73 1.05 1.64 0z"/></g></svg>