<?xml version="1.0" encoding="UTF-8" standalone="no"?>
<!-- Generator: Adobe Illustrator 16.0.0, SVG Export Plug-In . SVG Version: 6.00 Build 0)  -->

<svg
   xmlns:dc="http://purl.org/dc/elements/1.1/"
   xmlns:cc="http://creativecommons.org/ns#"
   xmlns:rdf="http://www.w3.org/1999/02/22-rdf-syntax-ns#"
   xmlns:svg="http://www.w3.org/2000/svg"
   xmlns="http://www.w3.org/2000/svg"
   xmlns:sodipodi="http://sodipodi.sourceforge.net/DTD/sodipodi-0.dtd"
   xmlns:inkscape="http://www.inkscape.org/namespaces/inkscape"
   version="1.1"
   id="Layer_86"
   x="0px"
   y="0px"
   width="345.12"
   height="484.38318"
   viewBox="0 0 345.11998 484.38318"
   enable-background="new 0 0 595.77 529.763"
   xml:space="preserve"
   sodipodi:docname="pizzaDown.svg"
   inkscape:version="0.92.4 (5da689c313, 2019-01-14)"><metadata
   id="metadata5872"><rdf:RDF><cc:Work
       rdf:about=""><dc:format>image/svg+xml</dc:format><dc:type
         rdf:resource="http://purl.org/dc/dcmitype/StillImage" /></cc:Work></rdf:RDF></metadata><defs
   id="defs5870" /><sodipodi:namedview
   pagecolor="#ffffff"
   bordercolor="#666666"
   borderopacity="1"
   objecttolerance="10"
   gridtolerance="10"
   guidetolerance="10"
   inkscape:pageopacity="0"
   inkscape:pageshadow="2"
   inkscape:window-width="640"
   inkscape:window-height="480"
   id="namedview5868"
   showgrid="false"
   inkscape:zoom="0.44548222"
   inkscape:cx="168.06089"
   inkscape:cy="257.881"
   inkscape:window-x="0"
   inkscape:window-y="0"
   inkscape:window-maximized="0"
   inkscape:current-layer="Layer_86" />
<path
   d="m 330.95988,44.53469 c -92.761,-55.782 -220.326,-61.975 -312.958997,-2.514 -1.277,0.82 -2.537,1.667 -3.797,2.514 -12.9670004,8.717 -18.5950004,25.15 -10.3060004,39.301 5.564,9.499 17.2420004,15.349 28.2100004,14.244 0.041,0.113 0.082,0.226 0.123,0.339 0.537,1.476 1.074,2.952 1.611,4.428 2.235,6.142 4.47,12.283 6.705,18.424 18.855,51.813 37.711,103.627 56.566,155.44 20.164997,55.413 40.329997,110.826 60.495997,166.239 4.654,12.791 9.31,25.581 13.964,38.372 1.485,4.082 6.8,4.082 8.285,0 11.608,-31.898 23.216,-63.797 34.824,-95.695 21.944,-60.302 43.888,-120.604 65.833,-180.906 12.96,-35.615 25.92,-71.23 38.881,-106.845 0.004,-0.012 0.008,-0.023 0.013,-0.034 8.822,-1 17.167,-6.002 21.855,-14.005 7.988,-13.635 3.09,-31.247 -10.304,-39.302 z"
   id="path5865"
   inkscape:connector-curvature="0"
   style="fill:#3d3527" />
</svg>