<?xml version="1.0" encoding="UTF-8" standalone="no"?>
<!-- Generator: Adobe Illustrator 16.0.0, SVG Export Plug-In . SVG Version: 6.00 Build 0)  -->

<svg
   xmlns:dc="http://purl.org/dc/elements/1.1/"
   xmlns:cc="http://creativecommons.org/ns#"
   xmlns:rdf="http://www.w3.org/1999/02/22-rdf-syntax-ns#"
   xmlns:svg="http://www.w3.org/2000/svg"
   xmlns="http://www.w3.org/2000/svg"
   xmlns:sodipodi="http://sodipodi.sourceforge.net/DTD/sodipodi-0.dtd"
   xmlns:inkscape="http://www.inkscape.org/namespaces/inkscape"
   version="1.1"
   id="Layer_1"
   x="0px"
   y="0px"
   width="298.02701"
   height="298.02899"
   viewBox="0 0 298.02701 298.02899"
   enable-background="new 0 0 640 960"
   xml:space="preserve"
   sodipodi:docname="pizzaPattern.svg"
   inkscape:version="0.92.4 (5da689c313, 2019-01-14)"><metadata
   id="metadata149966"><rdf:RDF><cc:Work
       rdf:about=""><dc:format>image/svg+xml</dc:format><dc:type
         rdf:resource="http://purl.org/dc/dcmitype/StillImage" /></cc:Work></rdf:RDF></metadata><defs
   id="defs149964" /><sodipodi:namedview
   pagecolor="#ffffff"
   bordercolor="#666666"
   borderopacity="1"
   objecttolerance="10"
   gridtolerance="10"
   guidetolerance="10"
   inkscape:pageopacity="0"
   inkscape:pageshadow="2"
   inkscape:window-width="640"
   inkscape:window-height="480"
   id="namedview149962"
   showgrid="false"
   inkscape:zoom="0.24583333"
   inkscape:cx="149.01401"
   inkscape:cy="117.74399"
   inkscape:window-x="0"
   inkscape:window-y="0"
   inkscape:window-maximized="0"
   inkscape:current-layer="Layer_1" />
<rect
   x="0"
   y="0"
   width="298.02701"
   height="298.02899"
   id="rect149927"
   style="fill:#ffcb4b" />
<circle
   stroke-miterlimit="10"
   cx="99.446014"
   cy="85.442993"
   r="47.569"
   id="circle149929"
   style="fill:#bf1226;stroke:#770518;stroke-width:4.53049994;stroke-miterlimit:10" />
<g
   id="g149935"
   transform="translate(-170.98599,-299.715)">
	<g
   id="g149933">
		<path
   d="m 243.657,377.132 c 0.054,-0.138 -0.237,0.515 0.218,-0.468 0.436,-0.938 0.928,-1.848 1.437,-2.747 1.621,-2.87 3.614,-5.461 5.898,-7.832 7.946,-8.247 18.952,-10.286 29.857,-7.743 4.136,0.964 5.891,-5.391 1.752,-6.356 -12.493,-2.912 -24.577,-0.793 -34.396,7.663 -4.801,4.134 -8.814,9.814 -11.122,15.732 -1.546,3.965 4.83,5.666 6.356,1.751 z"
   id="path149931"
   inkscape:connector-curvature="0"
   style="fill:#dd4d3a" />
	</g>
</g>
<path
   d="m 214.13401,94.990004 c 0,0 -48.985,-41.449 67.857,-68.606 10e-4,0 -18.873,110.057996 -67.857,68.606 z"
   id="path149937"
   inkscape:connector-curvature="0"
   style="fill:#009246" />
<g
   id="g149945"
   transform="translate(-170.98599,-299.715)">
	<line
   x1="385.12"
   y1="394.70499"
   x2="449.88199"
   y2="330.74301"
   id="line149939"
   style="fill:#005928" />
	<g
   id="g149943">
		<path
   d="m 386.488,396.073 c 21.587,-21.32 43.175,-42.641 64.762,-63.962 1.777,-1.755 -0.96,-4.491 -2.736,-2.736 -21.587,21.32 -43.175,42.642 -64.762,63.962 -1.777,1.756 0.96,4.491 2.736,2.736 z"
   id="path149941"
   inkscape:connector-curvature="0"
   style="fill:#077737" />
	</g>
</g>
<g
   id="g149951"
   transform="translate(-170.98599,-299.715)">
	<g
   id="g149949">
		<path
   d="m 251.652,501.285 c 0.435,-12.351 18.684,-12.353 19.118,0 0.435,12.373 -18.684,12.322 -19.118,0 -0.452,-12.862 -20.458,-12.906 -20.004,0 0.58,16.483 13.082,28.985 29.565,29.564 16.472,0.579 29.013,-13.951 29.562,-29.564 0.579,-16.471 -13.949,-29.011 -29.562,-29.56 -16.47,-0.579 -29.016,13.946 -29.565,29.56 -0.454,12.906 19.552,12.862 20.004,0 z"
   id="path149947"
   inkscape:connector-curvature="0"
   style="fill:#231f20" />
	</g>
</g>
<circle
   stroke-miterlimit="10"
   cx="209.215"
   cy="229.66599"
   r="40.123001"
   id="circle149953"
   style="fill:#bf1226;stroke:#770518;stroke-width:4.5855999;stroke-miterlimit:10" />
<g
   id="g149959"
   transform="translate(-170.98599,-299.715)">
	<g
   id="g149957">
		<path
   d="m 370.6,507.67 c 11.247,-2.419 24.051,0.974 29.95,11.367 2.122,3.74 7.887,0.38 5.76,-3.367 -7.43,-13.092 -23.328,-17.478 -37.483,-14.434 -4.206,0.905 -2.423,7.336 1.773,6.434 z"
   id="path149955"
   inkscape:connector-curvature="0"
   style="fill:#dd4d3a" />
	</g>
</g>
</svg>