<svg xmlns="http://www.w3.org/2000/svg" width="346" height="485" viewBox="0 0 345.118 484.384"><style><![CDATA[.B{fill:#bf1226}.C{stroke:#770518}.D{stroke-width:3.437}]]></style><path d="M327.964 71.254c0-34.637-68.19-62.714-152.307-62.714S23.35 36.617 23.35 71.254c0 8.907 4.54 17.376 12.67 25.05L175.715 480.18 315.468 96.144c8.026-7.632 12.496-16.046 12.496-24.9z" fill="#ffcb4b"/><path d="M332.26 71.254c-.222-15.453-11.3-27.148-23.212-35.566-17.807-12.57-39.835-19.326-60.88-23.994-27.892-6.187-56.762-8.137-85.27-7.233-26.965.855-54.15 4.616-79.98 12.54-28.518 8.75-81.9 34.5-58.083 72.683 1.617 2.6 3.652 4.957 5.7 7.208.586.644 1.758 1.696 1.37.63l.327.897 139.343 382.903c1.485 4.082 6.8 4.082 8.285 0L319.573 97.397c-.36.988 3.22-2.78 3.748-3.414 5.413-6.493 8.702-14.253 8.94-22.73.155-5.543-8.437-5.53-8.592 0-.193 6.88-3.174 12.757-7.524 17.974-1.646 1.973-4 3.5-4.887 5.97L171.574 479.04h8.285L40.163 95.165c-.823-2.262-3.1-3.85-4.685-5.6-2.6-2.845-4.743-6.245-6.185-9.813-3-7.426-1.6-15.06 2.384-21.726 9.1-15.23 28.38-23.783 44.263-29.632 24.908-9.172 51.62-13.318 78.015-14.934 29.138-1.784 58.67-.134 87.32 5.544 20.4 4.045 40.986 10.24 58.868 21.106 11.022 6.697 23.324 17.133 23.525 31.135.08 5.535 8.673 5.543 8.593 0zM160.793 118.57s-31.643-26.775 43.834-44.317c0 0-12.2 71.092-43.834 44.317z" fill="#c48a04"/><path d="M43.2 94.142c7.55-5.075 15.375-9.678 23.468-13.832 4.034-2.07 8.15-3.978 12.3-5.803 4.614-2.03-7.046 2.865.114-.01 2.34-.94 4.702-1.82 7.07-2.684 17.13-6.253 35-10.382 53.054-12.836l-7.636 1.026c25.396-3.307 51.075-3.11 76.45.293l-7.636-1.026c18.74 2.612 37.164 6.946 55.09 13.01 4.326 1.463 8.604 3.063 12.853 4.73l2.818 1.133c5.353 2.168-6.572-2.825-1.272-.542a276.69 276.69 0 0 1 6.898 3.105c8.64 4.004 17.034 8.53 25.193 13.436 13.426 8.074 31.468 3.067 39.3-10.305 7.987-13.634 3.1-31.247-10.305-39.3C238.198-11.247 110.633-17.44 18 42.02l-3.796 2.514C1.237 53.252-4.39 69.685 3.9 83.836c7.536 12.866 26.29 19.054 39.3 10.306z" fill="#ee8600"/><circle cx="116.939" cy="151.656" r="36.085" class="B C D"/><circle cx="204.626" cy="259.729" r="37.623" fill="#8c031a"/><circle cx="250.11" cy="121.585" r="30.071" class="B C D"/><path d="M170.92 175.138c.428-7.95 11.887-7.95 12.315 0 .43 7.96-11.9 7.913-12.315 0-.445-8.265-13.335-8.308-12.888 0 .58 10.76 8.287 18.467 19.046 19.046 10.735.578 18.512-9.157 19.044-19.046.578-10.734-9.156-18.5-19.044-19.044-10.734-.578-18.514 9.155-19.046 19.044-.447 8.3 12.443 8.266 12.888 0zm-25.8 144.916c.35-6.518 9.746-6.52 10.097 0 .352 6.526-9.747 6.5-10.097 0-.386-7.163-11.557-7.2-11.17 0 .493 9.162 7.057 15.726 16.22 16.22 9.14.492 15.763-7.8 16.216-16.22.492-9.14-7.796-15.763-16.216-16.216-9.14-.493-15.765 7.795-16.22 16.216-.388 7.2 10.784 7.163 11.17 0z" fill="#231f20"/><path stroke-miterlimit="10" d="M144.773 404.21c15.38-.84 27.602-13.542 27.602-29.13 0-16.133-13.08-29.212-29.21-29.212-6.57 0-12.612 2.195-17.49 5.856z" class="B C D"/><path d="M150.16 259.73s-43.84 5.336-20.5-51.37c0 .001 47.4 22.55 20.5 51.37zm10.633-144.16s-31.643-26.775 43.834-44.317c0 0-12.2 71.092-43.834 44.317zm53.557 242.393s-8.4 30.06-41.984-20.07c0 0 50.374-9.992 41.984 20.07z" fill="#009246"/><circle cx="204.626" cy="256.292" r="37.623" class="B C D"/><path d="M28.653 66.206l1.686-1.572 2.273-1.95 1.32-1.076.733-.582c1.357-1.073-1.36 1.037.092-.072 7.035-5.37 14.64-9.976 22.46-14.1 28.208-14.874 60.17-22.153 91.806-24.45 9.588-.696 9.656-15.7 0-15-34.165 2.48-67.93 10.326-98.5 26.048C39.13 39.303 27.14 46.427 18.046 55.6c-6.815 6.873 3.8 17.482 10.607 10.607zM204.627 25.5c20.987.054 42.973 6.844 62.105 14.935 3.766 1.592 8 1.17 10.262-2.7 1.864-3.182 1.078-8.668-2.7-10.262-21.607-9.138-45.906-16.92-69.676-16.983-9.675-.025-9.673 14.975-.001 15zm101.6 33.832l.564.208c1.774.67-1.313-.592.274.108 2.17.957 4.247 2.107 6.268 3.344 5.062 3.098 9.675 7.55 11.656 13.255 3.152 9.08 17.645 5.176 14.464-3.987-4.6-13.223-16.217-22.85-29.238-27.392-9.16-3.193-13.06 11.3-3.988 14.464z" fill="#ffcb4b"/><path d="M96.63 145.567c4.163-10.624 16.2-17.03 28.378-14.254 3.14.716 4.472-4.105 1.33-4.82-14.622-3.333-28.973 3.57-34.528 17.746-1.178 3.006 3.658 4.296 4.82 1.33zm146.284-40.254c8.482-1.805 17.944.746 22.445 8.52 1.615 2.8 5.936.272 4.317-2.523-5.67-9.8-17.408-13.1-28.092-10.817-3.153.67-1.815 5.5 1.33 4.82zm-45.092 131.2c3.752-1.558 7.98-2.002 11.996-1.663 11.505.975 16.78 12.14 19 22.098.698 3.147 5.52 1.813 4.82-1.33-2.504-11.286-8.33-22.3-20.34-25.227-5.328-1.302-11.708-.815-16.798 1.3-2.932 1.22-1.647 6.06 1.33 4.822zM136.987 358.67c-.925.744.573-.302.854-.45 1.03-.55 2.266-.842 3.416-.986 5.1-.64 9.885 2 13.914 4.83 2.648 1.854 5.144-2.483 2.523-4.317-6.73-4.7-16.96-8.46-24.243-2.6-2.513 2.02 1.05 5.533 3.536 3.534z" fill="#dd4d3a"/><path d="M159.793 114.57l41.834-41.317" fill="#005928"/><path d="M160.677 115.455l41.834-41.317c1.148-1.134-.62-2.9-1.768-1.768l-41.834 41.317c-1.148 1.135.62 2.9 1.768 1.768zm-6.574 150.817c-3.673-6.734-7.1-13.6-10.395-20.536-5.2-10.938-11.515-23.148-12.786-35.375-.165-1.587-2.667-1.603-2.5 0 1.2 11.634 6.82 22.992 11.653 33.487 3.7 8.016 7.643 15.937 11.87 23.686.772 1.415 2.93.153 2.16-1.262zm63.747 91.55c-6.06-3.594-12.24-6.998-18.484-10.262-7.305-3.82-16.5-9.627-25-9.917-1.613-.055-1.607 2.445 0 2.5 8.376.286 17.502 6.316 24.7 10.085a375.45 375.45 0 0 1 17.511 9.753c1.4.824 2.647-1.337 1.262-2.16z" fill="#077737"/></svg>