<svg xmlns="http://www.w3.org/2000/svg" width="508" height="242" viewBox="0 0 507.399 241.945"><g fill="#fffe13"><path d="M191.6 96.05l218.967 77.53-1.488 68.364-228.786-81.37z"/><path d="M194.586 66.44l229.032-33.573 34.324 59.148-271.912 38.192M464.435 45.6L507.4 61.853l-49.457 30.16-34.324-59.148L469.673 0zm-25.66 160.104l28.217 36.24H409.07l1.488-68.364 56.435-4.083z"/></g><path d="M0 77.674h323.223v71.36H0z" fill="#ffc11d"/><g fill="#fbff2f"><path d="M0 33.623h323.223v71.36H0zm11.542 83.952h100.745v20.962H11.542z"/><path d="M215.13 117.575h100.746v20.962H215.13zm-79.753-60.863h62.966v79.73h-62.966z"/></g><path d="M105.468 33.623h25.186v62.953h-25.186zm185.22 0h25.187v62.953h-25.187z" fill="#fffef0"/></svg>