<svg xmlns="http://www.w3.org/2000/svg" width="260" height="490" viewBox="0 0 259.447 489.883"><path d="M22.932 79.58S76.84-7.267 258.25 38.06c0 0-116.46-91.73-252.2 9.64z" fill="#b7b7b7"/><path d="M10.53 38.948l248.917 445.026-10.538 5.91L0 44.835z" fill="#704636"/><path d="M77.368 39.8L95.026 5.05 122.33 0l-13.152 30.13s-23.93 6.225-31.8 9.658zM144.222 0l-11.4 26.416-11.397 1.48L133.875 0z" fill="#e0e0e0"/><path d="M126.157 281.55l17.254-10.004 2.903 5.007-17.254 10.004zm4.435 7.508l17.253-10 2.9 5.012-17.252 10.008zm4.395 7.506l17.254-10 2.904 5.014-17.253 10zm3.927 7.51l17.25-10 2.908 5-17.25 10zm17.65-17.52l-9.598-17.483 5.075-2.785 9.6 17.486z" fill="#e2e4e3"/></svg>