<svg xmlns="http://www.w3.org/2000/svg" width="198" height="403" viewBox="0 0 197.396 402.541"><path d="M195.23 280.344c-.523-58.32-7.86-117.29-12.012-175.3L181.846 85.8c0-48.002-31.957-83.436-79.96-83.436h-4.632C49.25 2.364 17.29 37.798 17.29 85.8L3.806 273.464l-.708.076s-7.818 62.573 24.627 79.96c0 0-19.433-29.165 0-39.98 0 0 20.19 54.823.005 86.807 1.504-2.4 24.177-6.773 29.06-10.16 16.44-11.385 28.87-59.302 50.234-59.098 18.576.174-.398 22.942-5.2 30.124 1.557-2.326 27.655-6.162 32.47-9.408 10.658-7.187 17.087-17.078 22.518-28.276 10.172-20.972 27.96-6.056 36.684 7.713-3.154-4.978 1.587-27.45 1.68-33.242l.056-17.636z" fill="#191714"/><g fill="#e2e4e3"><path d="M131.495 104.063c0-9.324-16.643-16.88-31.926-16.88s-31.923 7.557-31.923 16.88l4.255 32.825c0 .723.1-2.998.25-2.297.033 2.457.428 5.445.635 6.256.715 2.794 3.35 16.155 7.29 16.155 2.334 0 4.262-.547 4.995-1.308v-7.87c0-.996.774-1.807 1.728-1.807s1.73.81 1.73 1.807v8.795c.68.833 2.63 1.45 5.03 1.45 1.828 0 3.342-.373 4.28-.912v-9.333c0-.996.776-1.807 1.73-1.807s1.73.81 1.73 1.807v9.333c.938.54 2.45.912 4.28.912 2.4 0 4.356-.616 5.026-1.45v-8.795c0-.996.774-1.807 1.73-1.807s1.73.81 1.73 1.807v5.927c.012 0 .018 0 .023-.007v1.316c0 1.074 2.398 1.94 5.353 1.94 3.94 0 6.568-13.36 7.292-16.155.284-1.096.884-1.653.507-4.037z"/><path d="M161.657 87.223c0 13.54-9.7 21.49-18.648 31.146-11.38 12.317-24.227 24.62-43.44 24.62s-32.07-12.307-43.452-24.626c-8.93-9.656-18.63-17.607-18.63-31.14 0-30.793 27.797-55.76 62.083-55.76s62.088 24.967 62.088 55.76z"/></g><path d="M53.096 96.505c0-9.967 7.657-13.346 17.098-13.346s21.992 9.53 17.103 18.062c-7.657 13.352-7.657 13.352-17.103 13.352s-17.098-8.1-17.098-18.068zm54.932 31.82c0-5.375-8.46-22.243-8.46-22.243s-8.46 16.87-8.46 22.243 3.8 4.172 8.46 4.172 8.46 1.202 8.46-4.172zm38.016-31.82c0-9.967-7.655-13.346-17.097-13.346s-21.994 9.53-17.104 18.062c7.66 13.352 7.66 13.352 17.104 13.352s17.097-8.1 17.097-18.068z" fill="#6c7772"/><path d="M68.672 101.22c-5.518 0-10.402 1.544-13.75 3.94 2.908 5.582 8.463 9.4 14.918 9.4 8.022 0 9.25-.034 14.12-8.2-3.26-3.1-8.882-5.143-15.286-5.143zm61.504 0c5.513 0 10.4 1.544 13.75 3.94-2.907 5.582-8.464 9.4-14.925 9.4-8.018 0-9.24-.034-14.106-8.2 3.256-3.1 8.873-5.143 15.282-5.143z" opacity=".4" fill="#191714"/><path d="M48.232 79.264c7.9.133 17.134 2.924 24.03 6.675 4.03 2.2 15.292 15.855 19.393 12.708 2.542-1.95 4.095-14.35 4.824-17.895-15.878-3-32.205-1.216-48.248-1.488zm103.058 0c-7.898.133-17.133 2.924-24.03 6.675-4.024 2.2-15.292 15.855-19.393 12.708-2.534-1.95-4.095-14.35-4.82-17.895 15.876-3 32.205-1.216 48.244-1.488z" fill="#e2e4e3"/><path d="M197.323 280.352c-.606-32.96-4.092-65.784-6.405-98.647l-3.553-49.578c-1.144-15.8-3.25-31.886-3.354-47.735-.136-20.73-6.813-41.22-20.2-57.163C150.705 11.62 131.54 2.918 111.54.685 91.89-1.51 71.3 1.437 54.093 11.453c-17.26 10.047-29.187 27.03-34.97 45.92-3.37 11-3.558 22.24-4.373 33.576L1.634 273.465l2.173-2.173-.708.076c-1.295.14-2.015.894-2.173 2.173-1.44 11.698-1.117 23.827.402 35.485 2.31 17.74 8.725 37.145 25.3 46.35 1.82 1.012 4.22-1.083 2.973-2.973-6.82-10.326-14.33-28.927-.78-37.008l-3.192-1.3c3.42 9.34 5.628 19.226 7.213 29.02 3.007 18.58 3.135 39.568-6.99 56.11-1.27 2.077 1.786 4.53 3.413 2.633 1.107-1.3 3.978-1.713 5.523-2.192 3.167-.98 6.375-1.836 9.564-2.74 5.23-1.48 10.863-2.757 15.214-6.16 9.83-7.686 15.414-21.342 21.48-31.87 5.37-9.322 13.422-25.42 25.977-25.656 14.466-.272-3.892 22.164-7.077 26.854-1.394 2.052 1.758 4.443 3.412 2.633 1.37-1.498 5.8-1.884 7.73-2.35l12.868-2.966c3.357-.802 6.85-1.58 10.01-3.015 4.71-2.14 8.83-6.46 12.24-10.23 3.824-4.23 6.907-9.1 9.667-14.08 3.016-5.43 5.16-12.486 11.7-14.535 9.68-3.03 19.658 10.01 24.035 16.765 1.337 2.063 4.57.76 3.97-1.674-.542-2.197.686-6.468.845-8.73.308-4.366.49-8.74.645-13.114.334-9.48.384-18.966.243-28.45-.042-2.8-4.388-2.804-4.346 0a603.56 603.56 0 0 1-.245 28.447c-.16 5-.425 9.995-.775 14.984-.185 2.615-1.2 5.414-.558 8.014l3.97-1.674c-5.275-8.14-12.942-17.147-22.993-18.994-12.295-2.26-16.91 10.997-21.753 19.413-3.702 6.432-8.373 12.124-14.063 16.886-3.868 3.237-7.908 4.34-12.712 5.54-4.94 1.235-9.932 2.262-14.883 3.454-2.6.626-6.75 1.122-8.68 3.233l3.412 2.633c4.7-6.934 18.964-21.945 11.5-30.736-3.438-4.048-11.293-3-15.5-1.03-6.136 2.872-10.577 8.224-14.476 13.6-9.23 12.726-14.788 28.056-25.084 40.014-4.555 5.3-10.43 6.742-16.94 8.604l-11.35 3.304c-1.825.586-4.35 1.224-5.656 2.747l3.413 2.633c10.06-16.437 10.456-36.704 8.032-55.28-1.46-11.202-3.925-22.567-7.818-33.2-.473-1.293-1.91-2.064-3.192-1.3-15.902 9.483-9.052 30.43-.78 42.953l2.973-2.973c-16.455-9.14-21.773-29.185-23.625-46.63-1.098-10.35-1.2-21.103.074-31.453l-2.173 2.173.708-.076c1.246-.134 2.08-.892 2.173-2.173L18.957 92.86c.738-10.278.867-20.51 3.328-30.595 5.073-20.787 18.3-38.675 37.19-48.847 18.312-9.865 41.844-11.207 61.92-6.732 18.822 4.196 35.06 15.76 45.448 31.94 12.194 18.996 12.33 40.302 13.902 62.025l6.384 88.972c2.14 30.234 5.29 60.403 5.848 90.73.05 2.798 4.396 2.803 4.345-.001z" fill="#fff"/></svg>