<svg xmlns="http://www.w3.org/2000/svg" width="312" height="312"><path fill="#51504f" d="M0,0h312v312H0V0z"/><path d="M287.996 300.752c-.154.686-1.025.648-.72 1.803 1.4.384 1.776-1.8.72-1.803zM204.014 116.24c1.346.177 4.824.287 6.45-3.942-3.4-.863-5.55.45-6.45 3.942zm100.71-62.823c14.973-10.6-12.156-63.87-8.61 1.556 18.51 2.663 14.58-.25 8.61-1.556zm-110.027-32.14c-1.584.146-4.26-1.707-7.166-1.434-.075 2.5 7.04 2.617 7.166 1.434zm90.67 147.277c2.902.345 7-1.08 7.527-4.3-3.765.18-5.986 1.9-7.527 4.3zM205.807 11.96c-2.936-15.592-15.018 6.966 0 0zm64.5 73.814c.234 1.3-.775 1.374-.72 2.507.897.064 2.25-2.44.72-2.507zm-143.352-74.9c-3.52-.4-5.155-2.692-7.884 0 2.105 1.533 6.765.906 7.884 0zm161.543 269.7c1.742-14.205-27.008-24.823-11.94 12.56 4.803-4.646 16.2-10.843 10.285-8 5.453-8.763 3.684-7.324 1.654-4.563v.002zm-9.834-124.508c3.06.146 4.36-1.403 3.906-4.652-2.55-1.385-3.85.167-3.906 4.652zm9.47 134.785c-3 1.913-8.387 1.514-6.857 8.004 6.1 1.612 11.255-6.26 6.857-8.004zm-4.367-29.8l-.45.284c-1.502.985-1.156 1.627 1.084 1.9l-.53-1.85c.254-.132.37-.3-.102-.346v.013zM149.186 8.36l21.572 3.764c-3.05-.843-13.045-6.988-21.572-3.764zm21.572 3.764a2.25 2.25 0 0 0 .572.098l-.572-.098zm.572.1c-2.11.04-7.223 2.425 0 0zM117.245 31.04c8.974 7.106 55.42 6.12 65.63 7.306-21-12.447-43.218-15.218-66.636-8.315 4.34 6.272 2.447 2.906 1.007 1.008v.001zm123.703 212.038l-.102.068.56-.063-.457-.005zm-100.84 1.702a.47.47 0 0 0 .132-.118c.008-.01.016-.016.02-.022.53-.64.402-2.262-.15.14h-.003zM16.5 58.5c.81-2.376-.44-.475-.127-.073-.002.03.026.062.127.073zm39.36 118.404c-.15.1.1.082 0 0zM28.228 57.934c-11.98-16.575-52.42.24-.302 24.763.516-9.536 6.434-27.104 3-18.377-2.802-14.48-3.26-11.253-2.7-6.388l.002.002z"/><path d="M72.75 127.553c-.044.006.006.075.102.172-.065-.13-.102-.195-.102-.172zm40.154-4.453l.15.026c-.063-.036-.117-.053-.15-.026zM90 12.47c-4.54.763-11.524.432-18.655 2.27h-.001C85.632 25.358 76.58 19.16 90 12.47zm187.626 103.195c1.734-.687 3.777-3.858-.277-2.475 10.2-3.67 25.367-42.458-3.745-22.804.655-4.793.365-2.86-.04.027a90.15 90.15 0 0 0-2.77 1.95c-1.114 17.706 2.273 22.354 6.543 20.83a13.82 13.82 0 0 0-1.255.5 4.93 4.93 0 0 0-.025.529c0 .108.005.183.013.242s.005.12.01.17c-6.6-4.605-11.113-10.757-9.467-20.304-2.794.236-4.25 12.112-5 15.792-11.103-6.236 14.343-43.443 10.228-45.885 8.4 4.992 6.455 14.708 13.04 19.332 4.26-6.233 3.95-71.32-6.8-76.688-18.344 13.5-38.2 13.892-60.328 13.896.504-1.5-.193-2.178-2.085-2.057-.662.8-.673 1.484-.426 2.056-4.063-.001-8.198 0-12.416.082 3.48 27.767-6.135-.083-7.16 11.292 5.142 4.17 10.993 6.855 17.555 8.057-11 12.336-54.052-5.387-58.4 10.034-.95-.912 30.938 31.753 18.545 28.266-4.138-1.17-15.267-26.187-18.272-25.62.313 1.755 5.2 27.86 2.864 29.274-.89-10.037-18.583-6.376-17.704-.824 8.342.63 11.942 22.435 1.888 24.955-7.606-7.152-.944-33.56-3.34-47.664.557-2.912.86-6.408.898-10.5.164.405-17 2.334-33.998 4.087-7.688-19.2-94.198-50.568-95.07-38.67-.33.165 34.342 60.03 38.063 62.275-22.38-2.358-29.17 12.095-42.777 28.245 19.067-.28 6.215 1.133 9.455 2.302-16.668 23.05 43.138 13.27 50.35 12.67.886 2.878 1.912 5.7 3.075 8.488-1.35-4.708-.7-10.284 1.23-16.222 15.68 4.796 32.566 8.92 48.045 4.112 1.792 5.376 2.56 9.235-5.007 7.74 1.304.744 8.826 14.214 12.7 14.214-3.962-11.288 7.96-2.1 11.052-1.487.2-.17 1.203-1.665 2.74-3.858 4.23 15.332-5.005 20.518-9.393 40.498-5.066-7.93-4.764-19.555-15.093-21.226-10.9-1.766-40.282-21.575-42.22-23.55 1.2 2.385 12.486 28.367 6.248 11.283 2.963 2.294 4.576 5.302 4.84 9.02-4.713 5.094-12.61-6.336-13.612-7.055-2.897 3.366 2.52 7.336-3.998 2.278-5.874 1.378-11.373-7.027-17.914-6.18-1.774 3.15 12.612 22.912 12.267 26.104-1.978 2.076-17.506 17.19-19.995 21.345 4.742-.142 5.665 1.896 2.77 6.114 1.315.533 18.705-1.416 17.402 3.957a52.99 52.99 0 0 1-12.563 6.296c5.05 2.215 12.16-1.164 16.846-.998 6.427.228-7.28 7.3-9.43 8.052a33.45 33.45 0 0 1 10.288-.025c9.1 3.88-3.68 10.33-5.992 10.9 17.755 12.784 16.812 2.274 13.147 21.4 20.046 9.97-15.378-3.15-25.03-9.07-22.38-13.748-10.217-49.33-17.06-64.82 8.93-11.165 4.832-17.82 2.82-19.18 2.868-6.44.607-9.048-6.783-7.828-5.308 2.78-4.53 13.48-1.586 20.985-.813-.395-1.705-.7-2.69-.938C6.993 155.726 10.753 270 10.198 274.422c11.684 1.367 15.875 40.488 40.465 23.053 8.82-6.254 107.547-33.2 58.48-57.2 8.113-9.918 27.98 10.492 28.316 10.63-3.028-9.87 24.343 27.034 34.74 42.495 3.235-7.313 30.03-12.797 37.7-12.3 1.22-3.145 8.3-9.053 3.255-11.408 3.02-2.77 14.2-13.782 22.583-19.447-.27.027-.54.06-.815.074.3-.084.608-.132.92-.144 3.166-2.13 5.926-3.487 7.68-3.327a13.72 13.72 0 0 1-7.222 3.332c5.44.286 12.874 9.713 4.996 12.12 19.354.225 20.478 5.43 38.423 2.354.588.14 1.164.322 1.724.55-.162-.532.422-1.483.783-1.436.875.2.465 1.442-.097 1.728 9.05 4.1 17.025 17.547 18.426-3.073l-.002.004-12.62-.66c-6.862-24.537 8.162-31.363 7.56-53.867-.317-11.83-9-27.08-23.675-30.72-.692.38-4.007 20.097-5.104-5.182-13.68-3.654-16.7 21.985-1.518 14.63-11.392 25.563-17.325 20.02-21.792 11.404 3.898-18.582 6.618-32.815 8.216-49.486 21.215 12.128 55.8 12.938 55.15-7.782v.003c6.564-13.06-14.983-16.1-29.124-25.102l-.02.002zm-198.957 23.5c-.282-.18-.155-.477.01-.78.266.186.001.52-.01.78zm-25.172 49.76c-1.336.414.5-.86 0 0zm5.85-3.532c.408.44-9.84 6.275 0 0zm.062.066l.095.104c-.035-.04-.067-.074-.095-.104zm.184.198l.055.06c-.015-.017-.033-.035-.055-.06zm.073 21.427c-.146-.205.362-.43.604-.31-.176.196-.417.15-.604.31zm2.088-.908c-.005.001-.02-.006-.055-.03-.17-.86.582.356.055.03zm4.27-28.446c-3.673 3.074.148-2.592 5.478-5.407a7.76 7.76 0 0 1-.327-.093c-1.487-.7-.06-.18.414.045 1.294-.674 2.674-1.18 4.056-1.346 3.933 3.44-11.907 8.715-9.62 6.8v.002zm-17.222 60.857c-3.558-2.196.42-4.493 0 0zm-.574-.355c-.03-.017-.026-.015 0 0zm.072.045l.185.113-.185-.113zm.248.153l.124.077-.124-.077zm.187.115l.02.012c-.01-.004-.014-.008-.02-.012zm29.416 5.923c.117.04-.132.12 0 0zm207.927 19.782c-2.143-.143-.823-7.366 0 0zm-.073-.005c-.638-.042-.188-.013 0 0zm-5.618-46.68l-.117.013.117-.013c6.382-.64 4.468.76 0 0zm-.278.032l-.357.034.357-.034zm-.418.04l-.127.014.127-.014zm-.444 21.267c-10.182-1.65 5.403-9.463 0 0zm-62.36-216.434c.005-.007.007-.013.012-.02.012.014.014.023-.012.02zm-49.416 91.426c1.197 2.864 3 4.995 4.924 6.6l-16.247-7.715c4.676-3.562 8.995-4.463 11.323 1.106v.01zM79.508 51.9a1.75 1.75 0 0 1 .396.044c1.156.188.927 1.135-.686 2.852l-.258.023.46-2.465c-.055-.075-.05-.214.088-.454zm-18.45 13.32C53.9 49.156 78.8 61.096 77.315 61.33c-2.33 9.215-13.813 15.736-21.472 15.2 3.665-35.503 3.48-5.277 5.214-11.33l.001.02zm62.76 65c-1.987.322-1.944-5.052 0 0zm-.7 1.706c.524-.122.04.088 0 0zm-7.45-30.8c-1.2 4.124.692 9.276 2.16 13.596l-45.217-10.1c5.115-11.368 13.7-23.368 21.2-32.878 16.165 9.58 17.38-13.088 20.83-10.682 1.164 1.016 2.363 1.99 3.594 2.924-2.84 3.604-5.197 6.85-6.194 8.194-12.134 16.362 12.385 23.046 16.753 32.47-7.488 9.595-9.226-3.523-13.135-3.523l.01-.001zm27.97 53.457c2.665.198-2.157 2.198 0 0zm-18.068 24.373c.008-.001.024.005.06.03-.25.446-.404-.2-.06-.03zm-6.16 28.308c.183-.115.414.44-.04.028.022-.032.034-.034.04-.028zm-9.743-16.3c.437.265-.02.202-.023.06-.006-.013-.002-.032.023-.06zm-5.54 7.57c1.245-4.235 2.776 5.263 0 0 .305-1.037 0 0 0 0zM79.947 157.5c-.033-.02-.035-.035-.03-.043-.06-.133.24-.323.03.043zm1.607 84.854l.23-.24-.23.24zm-.144.15l.134-.14-.134.14zm4.32-29.828c.84.12-.303 1.467 0 0zm29.003 17.678c-.28.44.04.486.962.135.072 2.2.2 4.772.306 5.37-5.773 1.867-6.2.027-1.268-5.506zm55.105 44.97c-.3-.902.078-2.293.473.56-.466-.1-.543-.393-.473-.56zm29.462-59.98c.63.662-3.442-.574-8.544-2.434 6.138-.213 12.746-.017 8.544 2.434zm5.22-.544c-8.993-9.962-.03.718 5.837-8.054-6.884 44.486-5.204-.26-5.837 8.054zm37.025 25.764c1.776.586 2.086 2.32 2.534 3.944-.76-1.38-3.145-1.494-2.534-3.944zm9.335-26.363c-.524 2.824 4.085 8.828 5.9 11.014h-.01c-4.8 2.176-9.144 4.355-12.84 1.127-1.25-6.378 1.065-10.424 6.95-12.14zm-9.395-4.786c-4.547-4.31 6.33-2.783 0 0zm14.766-107.7c-1.8-2.388-2.708-2.593-2.754-.615-.954-1.2-1.22-2.454-.807-3.73-3.003 2.878-13.045 9.537-12.415 7.405-2.22-.513-15.043-17.96-27.538-26.34-.066-.318-.3-.55-.548-.362-7.206-4.68-14.248-6.214-19.022.406 1.275-1.77 20.57 36.483 20.73 40.2 11.938-3.703 17.855 1.3 22.067 7.8-3.845 1.208-8.6 3.83-13.45 1.44l-.018-.004c.603-.542-.356 29.144-.43 24.348-4.557 5.56-6.7-6.37-14.54-6.2 6.976 12.46-13.507 21.458-11.087 32.248 3.05.236 6.072.653 9.07 1.226-1.444-.515-2.27-1.77-2.43-3.8 7.465-7.898 40.297-.772 39.078-12.795-4.833-.684-9.53-.2-14.1 1.494-5.098-11.724 8.077-20.76 13.216-28.414 2.152 3.85 4.426 7.024 7.772 7.925-1.876 17-6.256 33.187-6.838 51.677-2.227-4.7-4.146-9.56-6.335-10.5-14-6.024-18.4 17.6-24.192 20.532 7.56-14.5-19.13-2.713-21.396-.314 1.586-6.975 8.435-21.052 4.674-21.275 3.4.203-3.482-1.866-1.763-10.45-1.966 6.34-6.313 15.4-12.167 10.44 4.12-3 4.36-3.897.718-2.662-1.873 1.45-2.124 5.424-1.388 6.308-3.12-2.2-8.35-1.222-9.43 2.22 1.415 5.55 17.565 9.104 13.17 20.395-2.883-1.166-5.612-2.356-7.627-3.375.35 1.12-.613 2.047-2.9 2.78-5.903-.674-8.466-19.753-12.315-17.945-7.257 3.404 11.824 15.295 7.282 20.313-.672.04-32.597 4.574-41.96 8.416-4.235-3.82-27.173-14.36-24.367-15.27 10.806-3.518 3.937-4.857 6.157-6.018 10.915 24.553 37.815-12.193 13.636-12.964.65-1.467 1.753-5.502 2.106-7.172 4.053 1.8 7.757 1.278 11.104-1.56-1.795-1.07-3.2-2.442-4.335-3.992 16.074 10.02 33.36-18.125 37.66-20.013-.506 4.274 1.216 6.608 5.168 7 1.306-7.28 6.724-13.423 14.604-15.97-1.82-1.004-3.487-2.26-4.957-3.73-.367-1.418-.542-2.25-1.018-3.208.036.758-.02 1.586.127 2.258-1.73-1.97-3.077-4.26-4.026-6.88 2.146 2.138 12.887 5.614 12.017-3.346-.33-.265-2.27-1.3-5.185-2.782 6.34-2.77 17.67-13.392 17.813-13.57C213.94 99.77 189.46 83.53 188.432 89.652a147.4 147.4 0 0 0 .894-19.773c11.293 1.96 25.036 3.507 32.16 3.5.73.7 2.483 1.037 4.614-.585-5.8-2.46-24.443-7.37-36.947-7.53l-.045-.93c-10.92-1.835-2.3-7.493-15.145-14.502 9.725.744 18.848 10.683 28.76 15.202.88-7.15-1.33-12.8-6.6-16.96 16.954 1.88 49.768 6.035 32.166 14.763 2.05-7.154-.6-10.623-7.943-10.406-10.624.906 1.325 12.16 10.058 19.227-1.08.85-1.764 2.685-1.406 3.293l3.2-1.864c2.542 1.998 4.597 3.5 5.375 4.032 18.197-2.315 23.523 5.312 18.693 24.586l-.013.01zm-18.5 16.228c7.828-4.797 1.35.656 0 0z"/><path d="M96.403 35.337l.02.008c5.458 2.374 16.495-5.9 12.318-8.595-.697-18.674-22.763 3.918-12.37 8.572-2.26-.997-6.26-2.763.03.015h.002zM246.208 200.62c.4.457 2.284.905 2.42 0-.487-.585-2.086-.647-2.42 0zm-179.47-71.76c.77.338 1.505 3.38 2.46 1.75-.84-.244-1.822-2.938-2.46-1.75zm-11.025 79.08l-.275.035c-.038.057.067.04.275-.035zm2.952-34.76c-.024-.018-.042-.02-.063-.027-.02.006.034.08.063.027zM132.2 302.6c1.27.037 3.3-2.32 2.98-2.05-1.073.58-2.117 1.198-2.98 2.05zM52.3 185.814c.664-.162-.425-.18 0 0zm36.2-51.094c-1.604-3.293-4.76-7.177-7.653-6.93 2.96 1.734 5.145 4.563 7.653 6.93zm105.276 154.36l6.407 4.428c-1.688-1.65-3.96-4.27-6.407-4.428zm59.95 2c.001 6.24 2.598.897 0 0zm-1.062 8.65c1.12-2.84-.95-8.393.5-11.44a46.24 46.24 0 0 1-7.903-16.099c-5.302 3.36-16.7-1.27-18.354-1.383-.5 1.504-.658 2.22-.696 2.48.004-.47-.25-2.1-3.357-1.47 6.407 9.035 13.138 24.117 14.77 28.468 3.2-.563 28.435.005 15.04-.554zm-11.7-37.46c-.728-.477-.814-.768-1.748-.52-.268.962 1.56 1.466 1.748.52zm-30.65-186l.082.07-.082-.07zm.786 110.35a1.55 1.55 0 0 0 .264-.009c.68-3.675-3.4.127-.264.01zm9.155-5.856c-4.1 5.95-2.513 5.92-2.343 6.663 3.92-1.206 5.185-3.48 2.343-6.663zm-10.277-2.5c1.86-.514 1.34-4.103-.7-4.02-1.034 1.337-.94 3.416.7 4.02zm-78.965 16.977c7.466-.648 11.72-3.256 10.97-8.9-3.4 3.27-7.07 6.244-10.97 8.9zm74.5-15.7c.415.147.874.244 1.393.268l-1.393-.268zM123.6 296.45c.042-3.337.412-5.498 1.037-6.95 1.232.123 2.848-.174 2.82-.474l-2.28-.526c1.97-2.902 5.578-1.74 9.64-4.502-6.75.66-30.403-8.33-11.218 12.453z"/></svg>