<svg xmlns="http://www.w3.org/2000/svg" width="193" height="398" viewBox="0 0 192.995 397.961"><path d="M192.966 277.978c-.518-57.293-7.684-115.248-11.778-172.128l-1.612-22.415C179.576 35.433 147.62 0 99.616 0h-4.632C46.98 0 15.02 35.433 15.02 83.435L1.535 271.1l-.708.076s-7.818 62.575 24.627 79.96c0 0-19.433-29.163 0-39.98 0 0 20.19 54.823.005 86.807 1.504-2.4 24.177-6.773 29.06-10.156 16.44-11.386 28.87-59.305 50.234-59.1 18.576.174-.398 22.944-5.2 30.126 1.557-2.328 27.655-6.164 32.47-9.408 10.658-7.187 17.087-17.08 22.518-28.276 10.172-20.972 27.96-6.058 36.684 7.713-2.515-3.97 1.382-21.21 1.514-25.87.236-8.32.302-16.66.227-25z"/></svg>