<?xml version="1.0" encoding="UTF-8" standalone="no"?>
<!-- Generator: Adobe Illustrator 16.0.0, SVG Export Plug-In . SVG Version: 6.00 Build 0)  -->

<svg
   xmlns:dc="http://purl.org/dc/elements/1.1/"
   xmlns:cc="http://creativecommons.org/ns#"
   xmlns:rdf="http://www.w3.org/1999/02/22-rdf-syntax-ns#"
   xmlns:svg="http://www.w3.org/2000/svg"
   xmlns="http://www.w3.org/2000/svg"
   xmlns:sodipodi="http://sodipodi.sourceforge.net/DTD/sodipodi-0.dtd"
   xmlns:inkscape="http://www.inkscape.org/namespaces/inkscape"
   version="1.1"
   id="Layer_1"
   x="0px"
   y="0px"
   width="319.69446"
   height="340.92352"
   viewBox="0 0 319.69446 340.92352"
   enable-background="new 0 0 1000 1000"
   xml:space="preserve"
   sodipodi:docname="rndeerFront.svg"
   inkscape:version="0.92.4 (5da689c313, 2019-01-14)"><metadata
   id="metadata224"><rdf:RDF><cc:Work
       rdf:about=""><dc:format>image/svg+xml</dc:format><dc:type
         rdf:resource="http://purl.org/dc/dcmitype/StillImage" /></cc:Work></rdf:RDF></metadata><defs
   id="defs222" /><sodipodi:namedview
   pagecolor="#ffffff"
   bordercolor="#666666"
   borderopacity="1"
   objecttolerance="10"
   gridtolerance="10"
   guidetolerance="10"
   inkscape:pageopacity="0"
   inkscape:pageshadow="2"
   inkscape:window-width="640"
   inkscape:window-height="480"
   id="namedview220"
   showgrid="false"
   inkscape:zoom="0.236"
   inkscape:cx="159.42953"
   inkscape:cy="150.47842"
   inkscape:window-x="0"
   inkscape:window-y="0"
   inkscape:window-maximized="0"
   inkscape:current-layer="Layer_1" />
<g
   id="g181"
   transform="translate(-340.57047,-309.5549)">
	<g
   id="g131">
		<path
   d="m 421.83,476.121 c -13.716,4.725 -27.629,3.991 -42.669,-1.681 -11.665,-4.165 -31.47,-18.832 -34.053,-33.358 -4.861,-32.678 73.86,-8.61 83.943,17.444"
   id="path129"
   inkscape:connector-curvature="0"
   style="fill:#a87d57" />
	</g>
	<path
   stroke-miterlimit="10"
   d="m 482.827,432.776 c -15.597,-30.628 -39.632,-23.725 -33.251,-64.61 4.877,-31.393 7.994,-56.078 -11.896,-48.96 -19.862,7.094 7.411,51.262 -12.229,47.281 -19.62,-3.969 -32.626,-45.928 -37.079,-50.918 -4.426,-4.982 -28.864,-1.412 -10.06,26.643 18.799,28.016 44.346,45.644 48.686,56.985 5.169,13.532 -32.126,4.812 -26.123,23.717 6.011,18.89 34.924,-3.086 45.838,2.185 10.944,5.273 16.479,11.237 16.479,11.237 z"
   id="path133"
   inkscape:connector-curvature="0"
   style="fill:#ffcfa9;stroke:#847266;stroke-width:7.00990009;stroke-miterlimit:10" />
	<g
   id="g137">
		<path
   d="m 578.314,477.774 c 13.612,5.009 27.55,4.571 42.695,-0.786 11.765,-3.909 31.874,-18.158 34.745,-32.629 5.559,-32.558 -73.651,-10.161 -84.286,15.673"
   id="path135"
   inkscape:connector-curvature="0"
   style="fill:#a87d57" />
	</g>
	<path
   stroke-miterlimit="10"
   d="m 518.244,433.154 c 16.244,-30.306 40.139,-22.888 34.632,-63.902 -4.24,-31.487 -6.833,-56.226 12.903,-48.691 19.723,7.511 -8.488,51.099 11.221,47.536 19.705,-3.561 33.595,-45.227 38.161,-50.132 4.535,-4.891 28.895,-0.797 9.508,26.845 -19.387,27.619 -45.308,44.698 -49.877,55.947 -5.459,13.424 32.007,5.502 25.593,24.264 -6.4,18.764 -34.842,-3.816 -45.862,1.215 -11.046,5.033 -16.718,10.89 -16.718,10.89 z"
   id="path139"
   inkscape:connector-curvature="0"
   style="fill:#ffcfa9;stroke:#847266;stroke-width:7.00990009;stroke-miterlimit:10" />
	<path
   d="m 496.991,416.856 c -70.499,2.158 -74.019,36.336 -104.642,117.753 -53.222,141.475 269.074,157.109 219.508,-4.47 C 578.602,421.758 545.15,415.375 496.991,416.856 Z"
   id="path141"
   inkscape:connector-curvature="0"
   style="fill:#a87d57" />
	<path
   d="m 448.727,504.436 c -17.566,5.29 -2.338,40.21 10.155,36.514 12.493,-3.698 5.226,-41.141 -10.155,-36.514 z"
   id="path143"
   inkscape:connector-curvature="0" />
	<path
   d="m 553.129,505.538 c 17.453,5.659 1.486,40.265 -10.932,36.294 -12.411,-3.971 -4.347,-41.239 10.932,-36.294 z"
   id="path145"
   inkscape:connector-curvature="0" />
	<path
   d="m 469.332,559.254 c -41.053,19.675 -23.939,81.171 42.713,75.174 66.666,-6.011 61.497,-105.692 -42.713,-75.174 z"
   id="path147"
   inkscape:connector-curvature="0"
   style="fill:#ffcfa9" />
	<path
   d="m 540.068,556.242 c -2.732,-51.293 -80.813,-50.409 -76.001,4.442 4.806,54.842 78.67,45.813 76.001,-4.442 z"
   id="path149"
   inkscape:connector-curvature="0"
   style="fill:#ad181e" />
	<g
   id="g157">
		<g
   id="g155">
			<g
   id="g153">
				<path
   d="m 523.018,605.841 c 0.516,0.24 0.694,1.108 0.491,2.556 -0.275,1.403 -0.958,3.403 -2.481,5.55 -1.508,2.14 -3.89,4.383 -7.052,6.056 -1.589,0.804 -3.346,1.491 -5.232,1.938 -1.887,0.433 -3.887,0.658 -5.927,0.633 -4.083,-0.072 -7.91,-1.126 -11.015,-2.797 -3.134,-1.624 -5.511,-3.898 -7.05,-6.063 -1.531,-2.2 -2.213,-4.293 -2.327,-5.774 -0.132,-1.484 0.204,-2.35 0.729,-2.515 1.173,-0.363 2.73,2.013 5.89,4.279 1.597,1.117 3.552,2.285 5.935,3.109 2.353,0.864 5.1,1.402 7.967,1.456 1.435,0.016 2.826,-0.094 4.154,-0.298 1.325,-0.219 2.568,-0.564 3.744,-0.951 2.321,-0.839 4.312,-1.961 5.933,-3.125 3.224,-2.348 5.147,-4.571 6.241,-4.054 z"
   id="path151"
   inkscape:connector-curvature="0"
   style="fill:#241609" />
			</g>
		</g>
	</g>
	<g
   id="g165">
		<g
   id="g163">
			<g
   id="g161">
				<path
   d="m 564.724,465.718 c -0.69,0.913 -2.359,0.933 -4.43,0.264 -2.074,-0.664 -4.497,-1.962 -6.851,-3.346 -1.183,-0.683 -2.246,-1.301 -3.208,-1.885 -0.962,-0.562 -1.828,-1.088 -2.606,-1.568 -1.531,-0.971 -2.801,-1.852 -2.913,-3.02 -0.116,-1.1 1.174,-2.37 3.729,-2.796 1.263,-0.213 2.789,-0.161 4.392,0.187 1.588,0.361 3.242,1.01 4.778,1.9 3.061,1.809 5.118,4.041 6.291,5.898 1.168,1.87 1.51,3.45 0.818,4.366 z"
   id="path159"
   inkscape:connector-curvature="0"
   style="fill:#805b3a" />
			</g>
		</g>
	</g>
	<g
   id="g173">
		<g
   id="g171">
			<g
   id="g169">
				<path
   d="m 432.542,464.312 c -0.669,-0.929 -0.29,-2.499 0.918,-4.342 1.214,-1.832 3.319,-4.018 6.417,-5.76 1.555,-0.857 3.223,-1.47 4.818,-1.798 1.609,-0.314 3.136,-0.334 4.395,-0.095 2.547,0.479 3.811,1.775 3.672,2.867 -0.137,1.169 -1.425,2.025 -2.977,2.965 -0.788,0.464 -1.665,0.972 -2.64,1.514 -0.975,0.564 -2.053,1.16 -3.25,1.818 -2.385,1.334 -4.836,2.582 -6.925,3.199 -2.086,0.622 -3.756,0.564 -4.428,-0.368 z"
   id="path167"
   inkscape:connector-curvature="0"
   style="fill:#805b3a" />
			</g>
		</g>
	</g>
	<g
   id="g179">
		<g
   id="g177">
			<path
   d="m 581.248,449.327 c -9.847,-13.879 -21.887,-25.245 -37.881,-31.53 -14.6,-5.737 -30.937,-5.772 -46.376,-5.321 -16.048,0.469 -32.364,2.631 -46.883,9.847 -12.241,6.083 -21.433,16.456 -28.391,28.008 2.294,-0.295 4.587,-0.591 6.881,-0.887 -9.392,-11.752 -24.464,-18.867 -38.382,-23.632 -12.443,-4.26 -28.928,-8.08 -41.342,-1.794 -15.955,8.079 -5.513,28.022 3.079,37.19 15.779,16.837 39.734,25.046 62.453,21.326 -1.796,-1.796 -3.593,-3.593 -5.389,-5.389 -4.88,12.203 -9.268,24.597 -13.755,36.948 -3.618,9.958 -7.871,19.807 -10.528,30.082 -2.976,11.51 -3.577,23.532 -1.236,35.205 4.321,21.552 19.802,38.582 38.05,49.839 20.63,12.726 45.085,18.808 69.06,20.691 24.407,1.919 49.827,-0.933 72.697,-9.898 20.902,-8.194 40.058,-22.175 50.223,-42.657 13.647,-27.5 6.691,-56.89 -2.648,-84.495 -3.893,-11.506 -8.278,-22.847 -13.252,-33.929 -1.261,2.198 -2.522,4.395 -3.783,6.593 21.066,1.175 41.582,-7.53 56.096,-22.667 8.944,-9.329 16.381,-26.209 3.096,-35.222 -10.617,-7.202 -27.408,-3.557 -38.725,-0.473 -14.36,3.914 -29.259,10.688 -39.943,21.279 -4.018,3.982 2.18,10.176 6.195,6.196 8.663,-8.587 20.354,-13.988 31.81,-17.745 10.283,-3.372 22.94,-6.443 33.595,-3 12.063,3.899 1.93,18.436 -3.194,23.78 -12.584,13.125 -30.841,20.097 -48.929,19.087 -3.631,-0.203 -5.037,3.798 -3.783,6.593 5.668,12.627 10.387,25.645 14.683,38.796 2.83,8.665 5.463,17.337 6.899,26.352 1.894,11.876 1.332,24.184 -2.218,35.691 -6.494,21.052 -23.678,35.993 -43.112,45.075 -21.749,10.164 -46.672,13.286 -70.46,12.206 -23.6,-1.072 -47.644,-6.814 -68.155,-18.785 -17.15,-10.009 -31.239,-25.24 -35.62,-45.019 -2.334,-10.538 -1.381,-21.545 1.3,-31.915 2.589,-10.014 6.805,-19.632 10.334,-29.332 4.493,-12.35 8.875,-24.745 13.755,-36.949 1.377,-3.444 -2.504,-5.862 -5.389,-5.389 -19.51,3.194 -38.987,-4.506 -52.91,-18.037 -6.316,-6.138 -16.679,-21.534 -3.123,-25.501 11.07,-3.24 24.555,1.027 34.929,4.805 11.518,4.195 23.649,10.554 31.428,20.288 1.812,2.267 5.549,1.325 6.881,-0.887 6.106,-10.139 13.781,-18.668 24.269,-24.357 13.117,-7.114 28.794,-8.652 43.439,-9.158 13.639,-0.471 27.457,-0.297 40.594,3.795 15.245,4.749 27.033,15.94 36.097,28.716 3.238,4.57 10.841,0.2 7.564,-4.42 z"
   id="path175"
   inkscape:connector-curvature="0"
   style="fill:#664024" />
		</g>
	</g>
</g>
<g
   id="g187"
   transform="translate(-340.57047,-309.5549)">
	<g
   id="g185">
		<path
   d="m 368.926,332.838 c 10.359,-2.632 21.016,-4.371 31.627,-5.563 17.217,-1.934 37.979,-3.419 53.758,5.126 3.97,2.15 7.503,-3.894 3.533,-6.044 -16.369,-8.865 -36.961,-8.066 -54.919,-6.331 -12.024,1.162 -24.142,3.084 -35.861,6.061 -4.372,1.112 -2.516,7.863 1.862,6.751 z"
   id="path183"
   inkscape:connector-curvature="0"
   style="fill:#1aaa2b" />
	</g>
</g>
<g
   id="g193"
   transform="translate(-340.57047,-309.5549)">
	<g
   id="g191">
		<path
   d="m 397.895,382.161 c 9.413,-3.422 18.672,-7.345 27.758,-11.551 11.708,-5.419 26.668,-11.783 34.214,-22.833 2.554,-3.739 -3.515,-7.236 -6.044,-3.533 -3.068,4.493 -8.213,7.592 -12.749,10.387 -6.392,3.938 -13.169,7.257 -19.976,10.408 -8.198,3.794 -16.573,7.285 -25.065,10.372 -4.207,1.53 -2.391,8.296 1.862,6.75 z"
   id="path189"
   inkscape:connector-curvature="0"
   style="fill:#1aaa2b" />
	</g>
</g>
<g
   id="g199"
   transform="translate(-340.57047,-309.5549)">
	<g
   id="g197">
		<path
   d="m 406.751,429.577 c 9.488,-18.741 34.57,-24.141 53.458,-23.231 4.514,0.217 4.493,-6.784 0,-7 -21.272,-1.024 -48.922,5.799 -59.502,26.698 -2.033,4.017 4.005,7.561 6.044,3.533 z"
   id="path195"
   inkscape:connector-curvature="0"
   style="fill:#1aaa2b" />
	</g>
</g>
<g
   id="g205"
   transform="translate(-340.57047,-309.5549)">
	<g
   id="g203">
		<path
   d="m 632.141,324.79 c -11.761,-1.852 -23.748,-2.662 -35.642,-2.8 -18.083,-0.21 -39.244,0.837 -54.765,11.217 -3.731,2.495 -0.231,8.562 3.533,6.044 14.874,-9.948 35.107,-10.448 52.388,-10.247 10.822,0.125 22.175,0.891 32.624,2.536 4.415,0.695 6.311,-6.05 1.862,-6.75 z"
   id="path201"
   inkscape:connector-curvature="0"
   style="fill:#1aaa2b" />
	</g>
</g>
<g
   id="g211"
   transform="translate(-340.57047,-309.5549)">
	<g
   id="g209">
		<path
   d="m 607.863,376.578 c -8.677,-2.271 -17.255,-4.976 -25.727,-7.913 -7.163,-2.483 -14.244,-5.229 -21.073,-8.531 -5.112,-2.473 -10.63,-5.302 -14.314,-9.749 -2.883,-3.479 -7.807,1.502 -4.949,4.95 8.251,9.957 23.595,14.699 35.294,18.951 9.478,3.444 19.151,6.487 28.908,9.042 4.372,1.145 6.225,-5.607 1.861,-6.75 z"
   id="path207"
   inkscape:connector-curvature="0"
   style="fill:#1aaa2b" />
	</g>
</g>
<g
   id="g217"
   transform="translate(-340.57047,-309.5549)">
	<g
   id="g215">
		<path
   d="m 607.206,426.919 c -21.219,-17.091 -50.945,-24.051 -77.574,-20.3 -4.454,0.627 -2.552,7.372 1.861,6.75 17.261,-2.432 34.826,0.367 50.812,7.182 5.162,2.202 10.137,4.859 14.886,7.844 1.406,0.884 2.78,1.816 4.13,2.784 0.69,0.495 1.433,1.09 0.937,0.69 3.478,2.803 8.465,-2.117 4.948,-4.95 z"
   id="path213"
   inkscape:connector-curvature="0"
   style="fill:#1aaa2b" />
	</g>
</g>
</svg>