<svg xmlns="http://www.w3.org/2000/svg" width="319.695" height="340.924"><path fill="#664024" d="M237.578 141.997c-23.19-33.167-48.614-35.66-80.474-34.682-39.063 1.198-57.553 12.244-71.5 35.685C67.347 119.55.732 101.395 5.216 131.542c2.585 14.528 22.39 29.2 34.062 33.36 11.912 4.49 23.118 5.83 34.078 3.864-6.224 15.48-12.556 34.127-20.896 56.308-53.218 141.474 269.077 157.107 219.514-4.47-5.97-19.456-11.946-35.577-18.016-49.003 8.73.62 17.7-.808 27.163-4.148 11.764-3.912 31.873-18.162 34.75-32.63 4.93-28.904-56.897-14.494-78.292 7.176z"/></svg>