<?xml version="1.0" encoding="UTF-8" standalone="no"?>
<!-- Generator: Adobe Illustrator 16.0.0, SVG Export Plug-In . SVG Version: 6.00 Build 0)  -->

<svg
   xmlns:dc="http://purl.org/dc/elements/1.1/"
   xmlns:cc="http://creativecommons.org/ns#"
   xmlns:rdf="http://www.w3.org/1999/02/22-rdf-syntax-ns#"
   xmlns:svg="http://www.w3.org/2000/svg"
   xmlns="http://www.w3.org/2000/svg"
   xmlns:sodipodi="http://sodipodi.sourceforge.net/DTD/sodipodi-0.dtd"
   xmlns:inkscape="http://www.inkscape.org/namespaces/inkscape"
   version="1.1"
   id="Layer_2"
   x="0px"
   y="0px"
   width="319.695px"
   height="340.924px"
   viewBox="0 0 319.695 340.924"
   enable-background="new 0 0 319.695 340.924"
   xml:space="preserve"
   sodipodi:docname="rndeerLights.svg"
   inkscape:version="0.92.4 (5da689c313, 2019-01-14)"><metadata
   id="metadata1916"><rdf:RDF><cc:Work
       rdf:about=""><dc:format>image/svg+xml</dc:format><dc:type
         rdf:resource="http://purl.org/dc/dcmitype/StillImage" /></cc:Work></rdf:RDF></metadata><defs
   id="defs1914" /><sodipodi:namedview
   pagecolor="#ffffff"
   bordercolor="#666666"
   borderopacity="1"
   objecttolerance="10"
   gridtolerance="10"
   guidetolerance="10"
   inkscape:pageopacity="0"
   inkscape:pageshadow="2"
   inkscape:window-width="1920"
   inkscape:window-height="1017"
   id="namedview1912"
   showgrid="false"
   inkscape:zoom="0.69223637"
   inkscape:cx="159.8475"
   inkscape:cy="170.46201"
   inkscape:window-x="-8"
   inkscape:window-y="-8"
   inkscape:window-maximized="1"
   inkscape:current-layer="Layer_2" />
<circle
   id="circle257"
   stroke-miterlimit="10"
   cx="37.580002"
   cy="13.828"
   r="11.828"
   style="fill:#f23b48;stroke:#ad181e;stroke-width:3.50500011;stroke-miterlimit:10" />
<path
   id="path259"
   inkscape:connector-curvature="0"
   stroke-miterlimit="10"
   d="m 105.927,44.44 c -0.254,-5.413 3.936,-10.005 9.351,-10.254 5.411,-0.253 10.002,3.933 10.255,9.346 0.253,5.415 -3.933,10.009 -9.348,10.26 -5.415,0.251 -10.009,-3.937 -10.258,-9.352 z"
   style="fill:#fbab27;stroke:#c4790c;stroke-width:3.50500011;stroke-miterlimit:10" />
<path
   id="path261"
   inkscape:connector-curvature="0"
   stroke-miterlimit="10"
   d="M 50.789,71.723 C 50.487,65.198 55.532,59.66 62.06,59.358 68.581,59.055 74.123,64.1 74.423,70.627 74.725,77.151 69.679,82.689 63.152,82.992 56.628,83.294 51.094,78.249 50.789,71.723 Z"
   style="fill:#ff7f15;stroke:#af4f00;stroke-width:3.50500011;stroke-miterlimit:10" />
<circle
   id="circle263"
   stroke-miterlimit="10"
   cx="66.570999"
   cy="113.311"
   r="11.828"
   style="fill:#ffec00;stroke:#b7a500;stroke-width:3.50500011;stroke-miterlimit:10" />
<path
   id="path265"
   inkscape:connector-curvature="0"
   stroke-miterlimit="10"
   d="m 92.167,92.499 c -0.278,-5.957 4.329,-11.015 10.289,-11.291 5.955,-0.275 11.015,4.334 11.291,10.291 0.277,5.959 -4.337,11.014 -10.292,11.289 -5.959,0.28 -11.015,-4.33 -11.288,-10.289 z"
   style="fill:#1cf72c;stroke:#04a30c;stroke-width:3.50500011;stroke-miterlimit:10" />
<path
   id="path267"
   inkscape:connector-curvature="0"
   d="M 94.706,14.413 C 94.46,8.996 98.644,4.404 104.058,4.155 c 5.415,-0.252 10.008,3.933 10.258,9.347 0.251,5.415 -3.933,10.008 -9.347,10.258 -5.415,0.253 -10.009,-3.933 -10.263,-9.347 z"
   style="fill:#d716f9" />
<path
   id="path269"
   inkscape:connector-curvature="0"
   stroke-miterlimit="10"
   d="M 294.377,14.826 C 294.07,8.3 288.537,3.255 282.014,3.556 c -6.531,0.303 -11.572,5.839 -11.271,12.365 0.305,6.525 5.836,11.57 12.361,11.27 6.532,-0.303 11.573,-5.842 11.273,-12.365 z"
   style="fill:#ffec00;stroke:#b7a500;stroke-width:3.50500011;stroke-miterlimit:10" />
<path
   id="path271"
   inkscape:connector-curvature="0"
   stroke-miterlimit="10"
   d="m 210.336,50.502 c -0.252,-5.413 -4.844,-9.6 -10.262,-9.349 -5.414,0.253 -9.598,4.845 -9.344,10.258 0.246,5.415 4.84,9.601 10.254,9.351 5.414,-0.252 9.606,-4.847 9.352,-10.26 z"
   style="fill:#1cf72c;stroke:#04a30c;stroke-width:3.50500011;stroke-miterlimit:10" />
<path
   id="path273"
   inkscape:connector-curvature="0"
   stroke-miterlimit="10"
   d="m 257.42,76.555 c -0.305,-6.526 -5.838,-11.571 -12.361,-11.27 -6.527,0.302 -11.576,5.839 -11.271,12.362 0.301,6.526 5.84,11.573 12.361,11.271 6.528,-0.302 11.573,-5.841 11.271,-12.363 z"
   style="fill:#fbab27;stroke:#c4790c;stroke-width:3.50500011;stroke-miterlimit:10" />
<circle
   id="circle275"
   stroke-miterlimit="10"
   cx="248.89"
   cy="115.761"
   r="11.828"
   style="fill:#f23b48;stroke:#ad181e;stroke-width:3.50500011;stroke-miterlimit:10" />
<path
   id="path277"
   inkscape:connector-curvature="0"
   stroke-miterlimit="10"
   d="m 218.976,98.405 c -0.277,-5.958 -5.338,-10.567 -11.293,-10.288 -5.955,0.274 -10.564,5.33 -10.291,11.287 0.275,5.959 5.336,10.568 11.291,10.293 5.959,-0.278 10.567,-5.333 10.293,-11.292 z"
   style="fill:#ff7f15;stroke:#af4f00;stroke-width:3.50500011;stroke-miterlimit:10" />
<circle
   id="circle279"
   cx="201.92"
   cy="20.344"
   r="9.8170004"
   style="fill:#0b0bff" />
</svg>