<svg xmlns="http://www.w3.org/2000/svg" width="409.37" height="476.91"><path fill="#500" d="M408.835 254.524c-1.655-10.82-7.084-21.438-16.57-27.358-9.348-5.834-22.018-7.35-29.946 1.634l-1.563-3.095c5.478-1.558 10.622-5.536 10.857-11.65 21.125 9.833 27.282-33.68 4.585-36.9 10.8-15.6-15.857-30.27-28.64-24.482 1.708-14.383-16.186-24.128-28.632-22-3.107.534-6.017 1.775-8.457 3.783l-10.813-7.438c-7.255-5.034-14.457-10.146-21.53-15.436-6.586-4.925-13.043-10.03-19.306-15.36a289.92 289.92 0 0 1-8.236-7.275c1.844-2.785 2.79-6.066 2.64-9.404 14.03-3.718 17.582-22.24 4.855-30.012 6.74-7.962 4.003-19.774-4.902-24.706-1.604-.888-3.342-1.53-5.136-1.907-4.05-.852-3.33-.263-4.794-4.14-1.712-4.536-5.222-8.4-9.8-10.14-4.64-1.752-9.867-1.035-13.945 1.765-3.4-4.3-8.125-7.475-13.35-9.106-9.986-3.116-21.375-.48-28.7 7.06a26.01 26.01 0 0 0-3.567 4.599c-1.605 2.636-3.367.93-6.282.93-4.925 0-9.79 1.946-13.223 5.505-2.885 2.992-4.59 7.007-4.59 11.177 0 .87-7.873 6.173-9.136 8.08-5.6 8.435-5.808 20.414-.818 29.168 1.208 2.12 2.744 4.065 4.606 5.647 3.305 2.807 2.075 2.346 2.075 6.72 0 5.335 2.81 10.285 7.136 13.33-18.482 13.957-38.827 27.21-59.076 38.515-3.02 1.686-3.14 1.902-6.142.754-2.345-.91-4.988-1.044-7.467-.847-6.014.532-11.894 2.946-16.87 6.308-9.5 6.305-16.797 18.168-8.77 28.608-3.106 1.23-7.22-6.395-11.75-7.162-5.516-.933-11.198 1.6-15.553 4.796-10.378 7.622-17.377 23.617-3.585 31.763-8.594 3.3-3.996 17.266 1.635 21.084 4.396 2.98 10.048 3.334 15.124 2.305 2.446-.513 4.817-1.462 6.905-2.84 2.05-1.336 3.572-4.928 5.676-3.8a171.98 171.98 0 0 0-8.048 14.154c-18.58-12.902-39.812 8.774-44.21 25.667-4.82 18.613 2.623 44.42 26.09 42.138C23.576 371.66 73.667 442.992 146.1 467.46c69.34 23.427 148.158 1.344 194.695-55.316 27.077-32.967 41.173-75.486 38.728-118.12 22.706 3.652 32.14-20.87 29.322-39.502-1.096-7.164 1.022 6.758 0 0z"/></svg>