<svg xmlns="http://www.w3.org/2000/svg" width="203.16" height="241.03"><path fill="#f9aa88" d="M17.23 113.13c-16.78 0-25.72 33.54-6.86 35.9 17.8 2.24 25.67-35.9 6.86-35.9"/><path fill="#e39877" d="M20.54 131.34l.02.16-.02-.16zm-1.48-5.37l.06.14-.06-.14zm-4.2-4.93l.07.03-.07-.03zm-.13-.06l.07.03-.07-.03zm-2.88-.37l-.05.01.05-.01zm-4.3.55c-.85.5 3.5-.44 4.15-.53 7.04-.8 6.5 6.85 8.54 11.2 2.8 6.02 3.23-3.54 2.08-6.04-2.8-6.06-9.06-8.05-14.77-4.6"/><path fill="#f9aa88" d="M187.98 112.4c16.68 1.7 22.18 36.04 3.2 36.43-17.92.37-21.9-38.32-3.2-36.43"/><path fill="#e39877" d="M182.84 130.18l-.04.16.04-.16zm2.02-5.2l-.07.13.07-.13zm4.7-4.47l-.07.02.07-.02zm.14-.04l-.07.02.07-.02zm2.9-.08h.05-.05zm4.2 1c.42.3-4.62-1.15-5.75-1.1-6 .28-5.62 6.8-8.08 10.6-3.5 5.43-2.58-4.3-1.33-6.4 3.38-5.73 9.84-7.08 15.16-3.1"/><path fill="#f9aa88" d="M100.95 66.16c-31.4 0-60.7 17.74-75.66 45.3-15.12 27.85-14.08 62.97 3.26 89.6 17.35 26.63 48.73 41.36 80.3 38.6a86.5 86.5 0 0 0 71.17-50.74C204.95 132.44 163 66.16 100.95 66.16"/><path fill="#ed9474" d="M100.95 66.1c-29.4 0-57.58 15.6-73.5 40.28a25.9 25.9 0 0 0 16.62.81 15.3 15.3 0 0 0 6.43-3.64c.62-.62 4.04-6.63 3.76-6.7 7.52 2.18 13.53 6.6 21.9 4.9 3.57-.72 7.26-2.8 9.08-6.07 1.97-3.54 2.75.52 4.5 2 5.1 4.4 14.34 4.98 19.25-.1 1.44-1.5 1.96-5.77 4.38-4.92 3.78 1.33 5.9.9 9.33-.78.08-.04 4.7 6.18 5.28 6.77 2.64 2.67 5.85 4.6 9.67 4.8 2.94.16 6.1-1.55 8.9-1.1 3.07.5 4.68 4.77 7.72 5.94 1.68.65 5.73-.14 6.66 1.34 1.26 2.02 1.3 5.04 1.45 7.33.48 6.77.18 13.5-1.62 20.07-4.8 17.54-17.98 32.14-30.42 44.84-12.48 12.73-27.13 23.36-44.67 27.7-18.24 4.52-37.77-.1-54.9-6.9 16.68 24.52 45.4 38.9 75.06 37.26a87.2 87.2 0 0 0 72.86-48.3c27.5-56.3-14.74-125.56-77.74-125.56"/><path fill="#f68a86" d="M154.47 149.9c-13.34 0-17.7-19.05-5.72-24.88a13.2 13.2 0 0 1 12.25.41c2.97 1.7.93 7.2.27 10.26-.65 2.98-2.4 14.22-6.8 14.22"/><path fill="#f68681" d="M155.6 149.86c3.95-7.22 6.53-15.1 6.96-23.36 9.18 7.2 4.6 22.35-6.96 23.36"/><path fill="#f68a86" d="M48.06 150c-16.96 0-16.82-26.2.03-26.2 16.96 0 16.82 26.2-.03 26.2"/><path d="M13.8 147.54c-4.12 59.7 54.58 106.66 111.82 89.7 59.4-17.6 82.34-92.87 41.94-140.3 10.86 39.55-33.64 64.25-67 63.88-33.34-.37-76.75-26.08-64.88-65.2-12.72 14.32-20.55 32.8-21.88 51.92m20.96-45.08" fill="#fff"/><path fill="#eef0f5" d="M168.2 99.76c4.62 23.13 28.66 62.36-6.46 74.24 8.3 9.1 1.9 23.1-5.33 30.68-9.56 10-23.63 9.7-35.26 3.6-1.22 9.56-7.83 18.3-17.02 21.5-11.2 3.85-21.9-.37-30.3-8.08-2.18 8.4-12.1 7.9-18.82 6.24 35.3 21.93 83.32 14.84 111.04-16.04 28.65-31.9 29.3-82.33 1.5-114.98a142.5 142.5 0 0 1 .63 2.86"/><path d="M163.13 129.62c-10.34 17.62-30.15 27.68-49.9 30.36 21.8 16.96 59.58-.84 49.9-30.36m-122.77.88c-1.18 12.54 2.6 26.98 14.13 33.72 11.36 6.6 27.24 4.66 37.02-4-20.06-2.56-40.2-12.12-51.15-29.73" fill="#dbd9de"/><path d="M36.44 182.5l.03.25-.03-.25zm.08-6.36l-.03.23.03-.23zm-2.54-5.26l-.07.03.07-.03zm-6.85-2l.03.04-.03-.04zm-1.62-9.48v.05-.05zm7.53-16.7c-5.13 5.1-8.46 12.2-8.8 19.45-.26 5.84 4 12.77 10.62 10.22-4.34 11.95 1.93 25.06 14.5 28.04 2.78.66 5.82 1.03 8.65.4 1.32-.3 6.66-2.92 3.46-4.72-1.57-.9-6.7 1.65-8.92 1.44a18.8 18.8 0 0 1-8.95-3.27c-4.86-3.42-7.27-9.16-7.25-15 .01-3.07 1.6-6.1 1.54-9.06-.04-1.76-5.23 1.15-6.36 1.1-7-.4-6.75-10-5.54-14.73a31.3 31.3 0 0 1 4.24-9.47c.33-.5 3.34-4.85 2.8-4.4m100.7 46.88c0-.04.01-.1 0 0zm-19.6 8c.02.05-.02-.06 0 0zm8.95 4.2c.03 0 .1-.02 0 0zm-2.84.02h.04-.04zm6.13-.92l-.1.04.1-.04zm.08-.03l-.08.03.08-.03zm5.92-6.32l-.1.22.1-.22zm22.4-22.26c-2.23.62-.84 5.77-.84 7.3 0 3.4-3.1 6.55-5.8 8.18-2.04 1.23-14.14.37-14.36 1.58-.8 6.02-4.4 11.5-10.73 12.46-3.27.47-6.4-.6-8.34-3.28-.38-.52-.93-3.2-1.56-3.03-1.5.45 1.2 4.08 1.58 4.6 1.82 2.4 5.34 3.2 8.2 3.03 6.8-.43 10.78-5.8 12.66-11.85 6.02 3.24 13.84 1 18.27-3.9 2.4-2.65 3.9-6.15 3.8-9.75-.04-1.54-.27-6.1-2.88-5.35" fill="#eef0f5"/><path fill="#dbd9de" d="M91.77 172.77l-.06-.02.06.02zm22.52-1.02l-.04.04.04-.04zm.06-.06c.07-.18-.07.2 0 0zm-3.77-.55l-.18.1.18-.1zm2.22-1.48c-3.7 3.38-9.07 4.3-13.9 4.16-.65-.02-11.02-1.86-10.9-2.17-.82 1.77 11.55 3.5 12.7 3.64 2.96.38 5.54.54 8.47-.4 1.8-.58 3.7-1.5 5.02-2.9 1.14-1.2.03-3.63-1.38-2.33"/><path fill="#f24f80" d="M102.02 155.87c-4.94 0-9.43 3.04-12.03 7.1-2.1 3.3 7.53 4.6 9.4 4.84 2.98.38 13.9.4 13.5-4.62-.33-4.54-6.98-7.32-10.85-7.32"/><g fill="#2f3034"><path d="M99.82 156.94c3.63-.44 8.44.23 10.55 3.64 1.83 2.96-.48 5.55-3.35 6.43-4.3 1.3-9.47.55-13.64-1.02-6.68-2.52 2.94-8.6 6.43-9.05 13.25-1.62-3.94.52 0 0zm1.68-16.72c-7.68 0-17.88 5.3-18.4 13.88-.57 9.26 9.42 14.86 17.47 15.13 7.83.26 18.96-4.26 19.36-13.4.4-9.12-10.33-15.6-18.43-15.6"/><path d="M100.92 140.04c.03.46 1.88 5.34 1.8 2.57-.03-1.6-1.96-4.64-1.8-2.57"/></g><g fill="#fff"><path d="M86.6 122.72c-7.93 0-14.33 4.72-21.22 7.94-3.55 1.66-7.36 2.82-11.32 2.47-2.87-.26-6.34-2.75-9.2-2-8.02 2.13 3.28 23.47 7.04 26.34 12.28 9.37 30.87 7.24 41.8-3.26 5.07-4.9 10.67-13.92 8.72-21.27-1.78-6.7-9.9-8.97-15.82-10.22"/><path d="M116.68 122.2c7.93 0 14.33 4.72 21.22 7.94 3.55 1.66 7.36 2.82 11.3 2.47 2.87-.26 6.34-2.75 9.2-2 8.03 2.14-3.28 23.47-7.04 26.34-12.27 9.38-30.87 7.24-41.8-3.26-5.08-4.9-10.67-13.92-8.72-21.27 1.78-6.7 9.9-8.97 15.82-10.22"/></g><g fill="#eef0f5"><path d="M152.98 136.74s.03-.02 0 0zm-4.58 1.33h-.04.04zm-4.5-.37l.1.02-.1-.02zm-7.76-2.76l.05.03-.05-.03zm-23.38-9.47c-.9.18-1.02 1.84.1 1.8a21.5 21.5 0 0 1 9.44 1.92c4.97 2.1 9.33 5.42 14.32 7.5 3.74 1.56 7.92 2.63 11.96 1.87.57-.1 6.9-1.4 5.86-2.6-15.9 9-26.2-11.96-41.68-10.47m13.6 27.8c.04.02-.13-.07 0 0zm8.6 1.8c.02 0 .1-.01 0 0zm-28.23-22.8c-1.74 1.5 9.03 13.35 10.2 14.7 2.72 3.1 5.78 6 9.7 7.52.87.35 9.14 1.66 8.97.8a184.7 184.7 0 0 1-9.34-2.07c-3.24-1.74-5.15-4.05-7.27-6.9-1-1.37-10.6-15.42-12.26-14.02"/><path d="M129.73 142.2l-.04-.02.04.02zm-9.36-6.66l.03.03-.03-.03zm-9.14-7c.48-.24 19.26 15.4 19.6 14.45 0 0-7.1-5.56-7.8-6.3-3.12-3.4-6.76-8.03-11.8-8.16m-53 9zm6.75-.35zm5.18-1.67l-.13.06.13-.06zm4.8-3.14l-.01.01.01-.01zm12.2-7.13c-8.32.05-13.04 9.7-20.93 11.64a22.1 22.1 0 0 1-10.09.06c-.58-.12-6.8-1.77-7.04-1.34-.4.8 7.04 2.28 7.64 2.4 5 .94 9.9.7 14.65-1.35 4.93-2.13 8.37-6.64 13.35-8.6 1.5-.6 3.25-.12 4.65-.78 2.17-1.02-1.2-2.3-2.23-2.04"/><path d="M89 145.36c.01-.02.1-.15 0 0zM63.95 157H64h-.06zm-7.83-1.75l.04.02-.04-.02zM94.3 133c-2.26 8.95-7.26 17.53-15.97 21.5-4.6 2.15-10.63 3.44-15.66 2.23-.8-.2-7.78-2.4-8.1-1.8-.47.92 8.07 2.36 8.74 2.46 4.66.72 9 .58 13.56-.9a29.4 29.4 0 0 0 15.04-11.24c1.58-2.3 2.8-4.85 3.64-7.5a26 26 0 0 0 .96-4.24c.2-1.42-1.85-1.9-2.2-.47m-2.5-3.87c-5.1 1.43-8.12 5.97-11.45 9.72-1.78 2-3.74 3.8-6.18 4.96-1.4.67-5.28.7-6.1 1.86.15 2.3 11.44-4.37 12.3-5.1 2.48-2.16 4.6-4.8 7.5-6.4 1.13-.63 7.18-3.42 3.93-5.02"/></g><path fill="#f78d8c" d="M100.02 113.57c-6.42-.02-14.5 3.92-14.53 11.28s8.04 11.35 14.46 11.37 14.5-3.92 14.53-11.28-8.05-11.35-14.46-11.37"/><path fill="#f68580" d="M85.47 124.84c-.04 14.7 26.87 15.34 28.95 1.37-9.28 18.65-35.42-6.4-16.32-12.58-5.87.6-12.6 4.64-12.63 11.2"/><g fill="#ea3045"><path d="M102.73 39.05c-6.37 0-12.7 1.4-18.64 3.65.58-.57 2.92-2.8.7-3-1.26.2-2.33 2.28-3.2 3.1-5.66 5.42-12.46 9.44-18.94 13.78-6.1 4.08-12.12 8.32-18.63 11.74-2.06-1.1-7.2 5.46-2.02 2.93C38.3 88.7 80.1 82.8 88.38 81.86a320.1 320.1 0 0 1 37.29-2.14c6.6 0 29.12 1.62 29.12-8.73 1.96 1.13 3.72 2.8 5.95 3.4 3.24.88-.36-2.5-1.18-2.94-7.15-3.96-14.2-7.84-20.9-12.6-5.93-4.23-10.68-8.98-15.7-14.16-2.3-2.37-4.96-1.96-8-2.83-4-1.15-8-2.8-12.25-2.8"/><path d="M121.86 43.77c-1.9 1.9 34.53 29.45 35.65 27.55.4-.7-35.66-27.54-35.65-27.55"/></g><path fill="#fff" d="M124.45 56.14c-4.78 0-12 1.9-11.65 7.96-1.38-.8-4.17-.43-5.15-1.63-1.93-2.34-2.47-4.3-5.78-5.15-4.45-1.13-11.5.28-13.33 5.1-5.15-6.14-18.22-4.38-19.2 4.46-3.35-2.96-8.74-3.8-13-2.75-5.1 1.26-4.55 7.68-8.9 8.32-.07-12.16-30.4-1.9-20 11.87-5.4-3.2-9.6-5.08-14.83-.1-4.23 4.04-6.5 11.33-.5 14.95-4.7 1.84-1.83 9.32 1.5 11.07 5.9 3.2 9.52-2.64 14.63-1.8 7.24 1.18 6.15-5.97 11.44-7.97 5.12-1.93 13-2.34 11.96-10.1 6.64 4.05 16.05 5.3 21.8-.98 3.2 4.36 10.9 3.4 13.77-.82 5.84 9.56 20.35 5.64 21.63-5.16 4 1.55 8.97 2.55 12.72-.16-1.66 11.86 18.2 10.95 24.35 6.1 1.25 7.78 8.5 11.74 15.67 13.1 6.2 1.2 6.13 9.78 14.02 8.7 8.25-1.14 26.38-17.85 10.1-20.6 8.66-5.9-6.6-16.46-13.24-13.4 1.15-9.63-14.9-15.8-20.05-7.26-2.2-4.87-9.3-6.7-13.74-3.85 2.4-7.2-9.26-9.92-14.23-9.92"/><path fill="#eef0f5" d="M128.82 56.93c.86 4.27-.22 9.07-2.4 12.8 6.23-2.88 19.7-1.38 17.15 8.28 5.44-1.1 15.03-.64 19.46 3 3.8 3.13-2.1 5.2-.82 7.88 2.34 4.93-3.17 10.2-7.3 5.72a5.5 5.5 0 0 1-4.38 3.66c3.63 3.53 9 5.06 13.84 3.3.22 3.88 2.85 7.52 6.44 9 5.05 2.08 8.54-1.48 12.97-3.14 4.07-1.53 8.1-3.23 8.53-8.16.36-4.2-2.42-7.98-6.6-8.73 8.1-3.5-5.36-17.04-13.25-13.4 1.44-9.8-14.8-15.5-20.06-7.27-2.12-4.9-9.37-6.7-13.74-3.84 1.4-2.85-1.83-6.08-4.1-7.23-.42-.2-5.85-2.38-5.75-1.9"/><path d="M55.9 86.87c-3.66 1.04-12 4.63-10.5 9.78 1.45 5.14 10.38 3.82 14 2.8 3.68-1.04 12.1-4.6 10.6-9.8-1.46-5.17-10.46-3.8-14.1-2.78m79.87 1.07c-6.5.8-6.63 6.2-2.06 9.93 4.12 3.36 10.22 5.4 15.54 4.76 6.5-.8 6.63-6.2 2.05-9.93-4.14-3.36-10.2-5.4-15.53-4.76" fill="#9e9ea3"/><path fill="#fff" d="M132.1 32.1c0-1.7-.56-3.4-1.56-4.78-2.45-3.4-1.77-1.54-.78-5.6 1-4.04-1.35-8.12-5.13-9.66-2.5-1.02-2.9.27-3.87-2.44a8.8 8.8 0 0 0-4.33-5c-1.7-.82-3.67-.97-5.48-.38-3.5 1.15-3.4-1.17-6.7-2.8a14.1 14.1 0 0 0-13.51.63 13.4 13.4 0 0 0-3.98 3.77c-1.65 2.4-2.6.82-5.36 1.36-3.93.77-7.06 4.2-7.06 8.26 0 .5-3.2 2.36-3.8 3.08-1.56 1.9-2.45 4.27-2.76 6.68-.55 4.24.6 9.15 4 12 2.72 2.3.43 7.47 4.83 10.3 1.47.95 3.2 1.44 4.94 1.44 2.78 0 2.85.32 5.46 1.36 4.98 1.98 7.26-2.34 11.22-2.18 2.46 3.13 6.93 3.77 10 1.13.76-.65 1.53-2.48 2.4-2.75a9.1 9.1 0 0 0 6.23 2.45c4.02 0 7.8-2.73 8.66-6.73.9-4.13 6.6-4.44 6.6-10.13z"/><path d="M55.27 122.8c.4-5.84.98-12.75 8.06-13.28 7.43-.56 9.16 7.03 9.72 12.85m56.18.43c.4-5.84.98-12.75 8.06-13.28 7.43-.56 9.16 7.03 9.72 12.85" fill="none" stroke="#2f3034" stroke-width="4" stroke-miterlimit="10"/></svg>