<?xml version="1.0" encoding="UTF-8" standalone="no"?>
<svg
   xmlns:dc="http://purl.org/dc/elements/1.1/"
   xmlns:cc="http://creativecommons.org/ns#"
   xmlns:rdf="http://www.w3.org/1999/02/22-rdf-syntax-ns#"
   xmlns:svg="http://www.w3.org/2000/svg"
   xmlns="http://www.w3.org/2000/svg"
   xmlns:sodipodi="http://sodipodi.sourceforge.net/DTD/sodipodi-0.dtd"
   xmlns:inkscape="http://www.inkscape.org/namespaces/inkscape"
   viewBox="0 0 477.00002 477.66"
   version="1.1"
   id="svg4091"
   sodipodi:docname="shadowCyber.svg"
   width="477"
   height="477.66"
   inkscape:version="0.92.4 (5da689c313, 2019-01-14)">
  <metadata
     id="metadata4095">
    <rdf:RDF>
      <cc:Work
         rdf:about="">
        <dc:format>image/svg+xml</dc:format>
        <dc:type
           rdf:resource="http://purl.org/dc/dcmitype/StillImage" />
        <dc:title></dc:title>
      </cc:Work>
    </rdf:RDF>
  </metadata>
  <sodipodi:namedview
     pagecolor="#ffffff"
     bordercolor="#666666"
     borderopacity="1"
     objecttolerance="10"
     gridtolerance="10"
     guidetolerance="10"
     inkscape:pageopacity="0"
     inkscape:pageshadow="2"
     inkscape:window-width="1920"
     inkscape:window-height="1017"
     id="namedview4093"
     showgrid="false"
     inkscape:zoom="1.3974559"
     inkscape:cx="161.66499"
     inkscape:cy="267.45344"
     inkscape:window-x="-8"
     inkscape:window-y="-8"
     inkscape:window-maximized="1"
     inkscape:current-layer="Слой_33" />
  <defs
     id="defs3967">
    <style
       id="style3965">.cls-1{fill:#e6c1a1;}.cls-2{fill:#231f20;}.cls-3{fill:#c29a80;}.cls-4{fill:#1c2011;}.cls-5{fill:#5e4636;}.cls-6{fill:#48ddff;}.cls-7{fill:none;stroke:#231f20;stroke-miterlimit:10;stroke-width:4px;}.cls-8{fill:#fff;}.cls-9{fill:#54faff;}.cls-10{fill:#160d08;}.cls-11{fill:#332b2b;opacity:0.71;}</style>
  </defs>
  <g
     id="Слой_2"
     data-name="Слой 2"
     transform="translate(76,-7.3242186e-6)"
     style="fill:#000000">
    <g
       id="Слой_38"
       data-name="Слой 38"
       style="fill:#000000">
      <g
         id="Layer_13"
         data-name="Layer 13"
         style="fill:#000000">
        <path
           class="cls-1"
           d="m 295.89,233.13 c 0,0 20.2,-26.1 25,-0.08 0,0 -5,68.61 -30.84,75.16 -1.25,0.32 -0.32,-6.28 -0.2,-7.39 0.45,-4.14 0.45,-8.34 0.8,-12.5 1,-12.17 1.76,-24.35 3,-36.51 0.65,-6.23 1.32,-12.47 2.25,-18.68"
           id="path3969"
           inkscape:connector-curvature="0"
           style="fill:#000000" />
        <path
           class="cls-2"
           d="m 297.66,234.9 a 45.9,45.9 0 0 1 7.16,-7.32 l 0.32,-0.25 c 0.53,-0.43 -0.41,0.3 0.13,-0.11 l 0.65,-0.48 c 0.57,-0.4 1.16,-0.79 1.76,-1.15 0.6,-0.36 1.07,-0.59 1.63,-0.86 0.56,-0.27 -0.16,0 0.35,-0.15 0.31,-0.1 0.62,-0.22 0.95,-0.31 l 0.77,-0.19 0.42,-0.07 c -0.63,0.1 -0.3,0 -0.15,0 h 0.84 c 0.1,0 0.22,0 0.33,0 0.5,0 -0.45,-0.15 0,0 0.26,0.09 0.54,0.14 0.8,0.21 0.65,0.16 -0.23,-0.21 0.34,0.15 0.2,0.12 0.41,0.24 0.6,0.37 0.51,0.33 -0.38,-0.36 0.08,0.06 l 0.43,0.4 c 0.13,0.13 0.59,0.66 0.48,0.52 -0.11,-0.14 0.35,0.51 0.45,0.67 a 12.7,12.7 0 0 1 1,2 24.73,24.73 0 0 1 0.92,2.92 c 0.13,0.53 0.22,1.08 0.37,1.61 0.27,1 0.05,0 0.05,0.13 0,0.62 -0.1,1.24 -0.16,1.85 -0.13,1.5 -0.29,3 -0.46,4.48 -0.12,1 -0.24,2 -0.37,3 -0.07,0.52 -0.14,1 -0.2,1.56 0.1,-0.74 0,0.29 -0.06,0.43 -0.05,0.31 -0.09,0.63 -0.13,0.94 -1.74,12.21 -4.21,24.47 -8.44,36.08 a 73.51,73.51 0 0 1 -3.56,8.37 53.77,53.77 0 0 1 -4.43,7.45 L 300,298 c 0.32,-0.43 -0.31,0.38 -0.39,0.48 -0.43,0.53 -0.88,1.05 -1.34,1.55 a 28.92,28.92 0 0 1 -2.79,2.63 c -0.12,0.1 -0.24,0.2 -0.37,0.29 0.07,0 0.42,-0.31 0.06,0 l -0.77,0.54 c -0.51,0.34 -1,0.67 -1.58,1 -0.58,0.33 -1,0.5 -1.47,0.72 0.64,-0.28 -0.28,0.1 -0.41,0.15 -0.29,0.1 -0.57,0.2 -0.86,0.28 a 2.18,2.18 0 0 0 -0.53,0.15 l 1.14,0.51 c 0.74,0 1.17,0.31 1.3,0.9 0,0 -0.06,-0.27 -0.08,-0.28 v -0.16 c 0,0.37 0.06,0.4 0,0.1 0.06,-0.8 0,-1.61 0.06,-2.42 0.09,-1.36 0.28,-2.7 0.42,-4.06 0.32,-3.2 0.39,-6.41 0.58,-9.62 0.19,-3.21 0.48,-6.2 0.73,-9.31 1,-12.83 1.95,-25.66 3.43,-38.46 0.36,-3 0.75,-6.11 1.2,-9.15 a 2.59,2.59 0 0 0 -1.74,-3.08 2.53,2.53 0 0 0 -3.08,1.75 c -2,13.44 -3.14,27 -4.17,40.55 -0.51,6.7 -1.18,13.4 -1.5,20.11 -0.13,2.78 -0.24,5.55 -0.58,8.32 a 35.3,35.3 0 0 0 -0.36,4.82 c 0,2 0.61,4.43 3.05,4.45 a 11.44,11.44 0 0 0 4.34,-1.42 23.69,23.69 0 0 0 6.61,-4.76 c 4.4,-4.36 7.52,-9.93 10,-15.55 5.4,-12.33 8.36,-25.67 10.43,-38.92 0.71,-4.57 1.31,-9.16 1.77,-13.76 0.1,-1 0.24,-2 0.27,-3 a 7.94,7.94 0 0 0 -0.21,-1.73 26.91,26.91 0 0 0 -2.2,-6.65 c -1.4,-2.77 -3.78,-5.23 -6.94,-5.79 a 12.78,12.78 0 0 0 -8.4,1.86 40.34,40.34 0 0 0 -10.88,9.63 l -0.58,0.71 a 2.59,2.59 0 0 0 0,3.53 c 0.87,0.86 2.71,1.08 3.54,0 z"
           id="path3971"
           inkscape:connector-curvature="0"
           style="fill:#000000" />
        <path
           class="cls-1"
           d="m 29.42,235.68 c 0,0 -22.19,-26.1 -27,-0.09 0,0 10,72.62 35.84,79.17 1.26,0.31 0.33,-10.29 0.21,-11.4 -0.46,-4.13 -2.45,-8.34 -2.8,-12.49 -1,-12.17 -2.77,-24.36 -4,-36.51 -0.65,-6.24 -1.31,-12.47 -2.25,-18.68"
           id="path3973"
           inkscape:connector-curvature="0"
           style="fill:#000000" />
        <path
           class="cls-2"
           d="m 31.19,233.91 a 49.09,49.09 0 0 0 -9.4,-8.46 c -5,-3.46 -12.12,-6 -17.07,-1 a 15.11,15.11 0 0 0 -3.16,5.11 c -0.79,2 -1.8,4.63 -1.51,6.76 0.1,0.7 0.21,1.39 0.32,2.09 0.67,4.28 1.46,8.54 2.33,12.78 2.9,14.08 6.66,28.16 12.58,41.29 2.78,6.16 6.14,12.22 10.73,17.22 2.27,2.48 13.37,12 15.17,5.09 a 17.81,17.81 0 0 0 0.25,-4.89 c 0,-1.68 -0.16,-3.36 -0.29,-5 a 35.36,35.36 0 0 0 -1,-6.13 A 58.6,58.6 0 0 1 38,288.9 c -0.66,-7.26 -1.54,-14.49 -2.41,-21.72 -0.87,-7.23 -1.57,-14.29 -2.39,-21.43 q -0.62,-5.38 -1.4,-10.73 a 2.52,2.52 0 0 0 -3.08,-1.75 2.57,2.57 0 0 0 -1.72,3.08 c 1.56,10.39 2.44,20.89 3.68,31.32 0.63,5.27 1.27,10.53 1.82,15.8 0.27,2.61 0.45,5.24 0.74,7.85 a 46.38,46.38 0 0 0 1.67,7.36 38,38 0 0 1 1.36,8 c 0.08,1.33 0.15,2.67 0.17,4 0,0.61 0,1.22 0,1.82 0,0.23 0,0.45 0,0.68 0,0.63 0,-0.45 0,0.19 0,0.45 -0.16,0.25 0.08,-0.09 0.54,-0.8 3.24,-0.65 2,-1.11 -0.43,-0.16 -0.88,-0.29 -1.32,-0.44 -0.65,-0.23 0.17,0.09 -0.21,-0.08 l -0.64,-0.3 c -0.43,-0.21 -0.84,-0.43 -1.25,-0.67 -0.41,-0.24 -0.83,-0.51 -1.23,-0.78 l -0.53,-0.37 -0.3,-0.23 c -0.25,-0.17 0.35,0.29 0,0 -0.8,-0.64 -1.57,-1.33 -2.31,-2.05 -0.74,-0.72 -1.51,-1.57 -2.2,-2.4 l -0.54,-0.65 c -0.09,-0.12 -0.57,-0.73 -0.27,-0.33 -0.35,-0.46 -0.69,-0.93 -1,-1.4 A 64.61,64.61 0 0 1 22.85,296.24 101.28,101.28 0 0 1 16.4,282 220.68,220.68 0 0 1 7.94,251.83 c -1.17,-5.53 -2,-11.09 -3,-16.65 a 2.17,2.17 0 0 1 0,-0.25 v 1.33 a 26,26 0 0 1 1.65,-5.7 13.76,13.76 0 0 1 1.17,-2 c 0.06,-0.07 0.3,-0.36 0,0 0.11,-0.13 0.22,-0.27 0.34,-0.4 0.12,-0.13 0.52,-0.51 0.79,-0.75 -0.43,0.37 0.16,-0.09 0.33,-0.2 a 6.85,6.85 0 0 1 0.71,-0.37 c -0.62,0.3 0.19,-0.06 0.38,-0.11 0.19,-0.05 0.55,-0.13 0.84,-0.18 -0.75,0.13 0.17,0 0.36,0 0.19,0 0.47,0 0.7,0 0.73,0 -0.32,-0.1 0.41,0 l 0.89,0.2 a 16.54,16.54 0 0 1 1.72,0.58 c 0.37,0.15 -0.54,-0.25 0,0 l 0.36,0.17 c 0.33,0.16 0.66,0.32 1,0.5 a 29.71,29.71 0 0 1 3.38,2.15 l 0.75,0.56 c 0.32,0.24 -0.46,-0.37 0,0 l 0.32,0.26 q 0.77,0.61 1.5,1.26 c 0.84,0.74 1.65,1.5 2.44,2.28 0.79,0.78 1.82,1.83 2.66,2.81 a 2.51,2.51 0 0 0 3.53,0 2.55,2.55 0 0 0 0,-3.54 z"
           id="path3975"
           inkscape:connector-curvature="0"
           style="fill:#000000" />
      </g>
      <g
         id="Layer_17"
         data-name="Layer 17"
         style="fill:#000000">
        <path
           class="cls-1"
           d="m 159.7,51.49 c 28.58,-1.2 54.05,1.65 77,18.06 4.62,3.3 8.31,7.14 12.47,10.8 0,0 42.06,31.58 50.17,102.07 1.84,16 -2.43,31.8 -2.75,47.77 -0.31,15.41 -5.54,30.57 -5.95,46.07 -0.55,20.79 -6.75,41 -8.64,61.65 -1.87,20.48 -7.23,38.24 -16.23,57.1 -6,12.55 -17.91,22.63 -26.62,33.5 -10.67,13.34 -21.45,24 -35.62,33.54 -13.7,9.23 -26.11,12.94 -42.15,13.57"
           id="path3978"
           inkscape:connector-curvature="0"
           style="fill:#000000" />
      </g>
      <g
         id="Layer_2"
         data-name="Layer 2"
         style="fill:#000000">
        <path
           class="cls-1"
           d="m 165.34,51.66 c -28.59,-1.2 -54.06,1.65 -77,18.06 -4.66,3.28 -8.34,7.14 -12.5,10.8 0,0 -42.07,31.58 -50.17,102.07 -1.84,16 2.42,31.81 2.75,47.78 0.31,15.41 5.53,30.56 5.94,46.06 0.56,20.8 6.75,41 8.64,61.66 1.87,20.48 7.24,38.23 16.24,57.1 6,12.55 17.9,22.63 26.61,33.5 10.68,13.33 21.46,24 35.62,33.54 13.7,9.23 26.12,12.94 42.16,13.57"
           id="path3981"
           inkscape:connector-curvature="0"
           style="fill:#000000" />
        <path
           class="cls-3"
           d="m 56.72,235.31 c 0,0 -6.39,19.85 24.22,28.63 0,0 29,6.75 49,-16.32 -0.04,0 -48.56,8.71 -73.22,-12.31 z"
           id="path3983"
           inkscape:connector-curvature="0"
           style="fill:#000000" />
        <polygon
           class="cls-3"
           points="174.01,398.7 184.59,414.36 140.45,414.54 151.02,398.87 "
           id="polygon3985"
           style="fill:#000000" />
        <path
           class="cls-3"
           d="m 124.9,256.19 a 79.09,79.09 0 0 0 15.9,-27.44 c 0,0 -73,-44.56 -101.46,-22.53 0,0 -2.78,18.82 9.38,31.09 0,0 52.52,36.5 76.18,18.88 z"
           id="path3987"
           inkscape:connector-curvature="0"
           style="fill:#000000" />
        <path
           class="cls-2"
           d="m 45.17,220 c 0,0 11.5,-16.57 34.88,-8.82 21,7 43.17,13.15 59.06,21.63 0,0 3.32,-1.82 3.36,-10.71 a 10.35,10.35 0 0 0 -8.66,-10.43 h -0.16 c -22.35,-3.42 -48.88,-22.15 -71.76,-15 -3.51,1.09 -7.11,6.21 -9.73,9.18 -0.63,0.66 -7.83,14.31 -6.99,14.15 z"
           id="path3989"
           inkscape:connector-curvature="0"
           style="fill:#000000" />
        <path
           class="cls-3"
           d="m 63.71,336.9 c -4.51,-8 -9.35,-15.83 -14.52,-23.42 -2.18,-3.18 -4.43,-6.31 -6.82,-9.34 a 2.51,2.51 0 0 0 -3.53,0 2.56,2.56 0 0 0 0,3.54 c 7.15,9.1 13.23,19.13 19,29.12 0.5,0.88 1,1.75 1.5,2.63 1.58,2.8 5.91,0.28 4.32,-2.53 z"
           id="path3991"
           inkscape:connector-curvature="0"
           style="fill:#000000" />
        <path
           class="cls-3"
           d="m 51.08,182.31 16,-27.72 -7,-20.89 c 0,0 -13.3,31.13 -9,48.61 z"
           id="path3993"
           inkscape:connector-curvature="0"
           style="fill:#000000" />
      </g>
      <g
         id="Слой_33"
         data-name="Слой 33"
         style="fill:#000000">
        <path
           class="cls-3"
           d="m 268.31,235.14 c 0,0 6.39,19.84 -24.22,28.63 0,0 -29,6.74 -49,-16.32 0.05,0 48.56,8.7 73.22,-12.31 z"
           id="path3996"
           inkscape:connector-curvature="0"
           style="fill:#000000" />
        <path
           class="cls-3"
           d="m 200.14,256 a 79,79 0 0 1 -15.91,-27.44 c 0,0 73.01,-44.56 101.46,-22.56 0,0 2.79,18.83 -9.38,31.1 0,0.04 -52.52,36.53 -76.17,18.9 z"
           id="path3998"
           inkscape:connector-curvature="0"
           style="fill:#000000" />
        <path
           class="cls-2"
           d="m 279.29,223.08 c 0,0 -10.37,-17.31 -34.21,-11.08 -21.44,5.56 -44,10.26 -60.37,17.66 0,0 -3.19,-2 -2.64,-10.91 a 10.36,10.36 0 0 1 9.33,-9.84 h 0.16 c 22.53,-1.93 50.24,-18.86 72.6,-10.24 3.43,1.32 6.69,6.67 9.1,9.81 0.59,0.71 6.86,14.81 6.03,14.6 z"
           id="path4000"
           inkscape:connector-curvature="0"
           style="fill:#000000" />
        <path
           class="cls-3"
           d="m 265.64,339.25 c 4.41,-7.83 9.16,-15.51 14.21,-22.95 2,-3 4.11,-5.95 6.35,-8.8 a 2.58,2.58 0 0 0 0,-3.53 2.52,2.52 0 0 0 -3.54,0 259.13,259.13 0 0 0 -19.78,30 c -0.53,0.9 -1.05,1.8 -1.56,2.71 -1.58,2.8 2.74,5.33 4.32,2.52 z"
           id="path4002"
           inkscape:connector-curvature="0"
           style="fill:#000000" />
        <path
           class="cls-3"
           d="m 274,182.14 -16,-27.73 7,-20.89 c 0,0 13.25,31.13 9,48.62 z"
           id="path4004"
           inkscape:connector-curvature="0"
           style="fill:#000000" />
        <path
           class="cls-4"
           d="m 272.48,134.07 c -7.87,-19 -12.72,-54.65 -39.32,-52.47 -23.95,2 -44.84,15.57 -70.61,11.19 V 0 c 75.6,0 115.08,48 115.08,48 16.93,20.72 23.28,30.39 27.22,55.94 l -32.37,30.14"
           id="path4006"
           inkscape:connector-curvature="0"
           style="fill:#000000" />
        <polygon
           class="cls-5"
           points="304.33,94.26 306.85,197.19 298.29,235.14 282.83,190.92 266.18,111.08 282.9,93.52 "
           id="polygon4008"
           style="fill:#000000" />
        <path
           class="cls-2"
           d="m 159.59,92 a 3,3 0 0 0 -0.14,4.31 c 1.66,1.69 4.85,1.39 7,1.29 a 165.46,165.46 0 0 0 20.42,-2.72 c 15,-2.62 29.95,-5.85 44.83,-9.18 l 3.62,-0.82 a 20.21,20.21 0 0 0 3.75,-0.84 c -0.18,0.08 -0.87,-0.28 -0.32,-0.11 0.55,0.17 1.15,0.38 1.71,0.6 0.13,0 -0.43,-0.21 0.15,0.06 l 0.7,0.33 c 0.59,0.28 1.18,0.59 1.75,0.92 a 36.2,36.2 0 0 1 3.8,2.54 c 9.1,7.18 14.39,18.15 17.45,29.09 1.22,4.34 1.8,8.8 3,13.13 q 1.43,5.28 2.8,10.56 c 2.79,10.67 5.49,21.37 7.8,32.16 0.54,2.48 1.05,5 1.5,7.45 0.34,1.86 0.74,4.22 0.89,5.59 a 30.86,30.86 0 0 1 0.19,3.84 c 0,0.66 0,-0.59 0,0 a 3.4,3.4 0 0 0 0.23,2 c 0.15,0.38 0.37,0.74 0.55,1.11 l 6.4,12.86 c 0.8,1.61 1.54,3.26 2.4,4.83 0.45,0.82 0,-0.67 0,0 a 12.34,12.34 0 0 0 0.47,2.17 l 3.07,14 a 5.85,5.85 0 0 0 0.16,0.75 c 0.17,0.49 -0.23,0.14 0,-0.39 a 3.16,3.16 0 0 0 -0.06,0.69 c -0.18,1.34 -0.25,2.7 -0.38,4 l -2.84,29.78 -0.41,4.48 a 7.63,7.63 0 0 0 -0.09,0.95 c 0,0.49 0.17,-0.9 0.06,-0.42 -0.42,1.79 -0.58,3.67 -0.87,5.49 l -4.26,26.89 Q 282.44,315 280,330.65 c -0.8,5.06 -1.83,10.15 -2.39,15.25 -1.47,13.42 -6.65,26.63 -12.26,38.81 a 134,134 0 0 1 -10.69,19.44 c -3.92,5.76 -8.74,11 -13.19,16.3 A 365.2,365.2 0 0 1 210.16,454 c -9.73,9.07 -22.27,16.72 -35.8,17.65 l -12,0.81 c -3.19,0.21 -3.21,5.22 0,5 4.63,-0.32 9.26,-0.58 13.89,-1 a 48.21,48.21 0 0 0 11.57,-2.83 65.13,65.13 0 0 0 12,-5.51 c 7.29,-4.33 13.53,-10.14 19.47,-16.15 6.14,-6.22 12.29,-12.42 18,-19 5.71,-6.58 11.29,-13.5 17,-20.22 a 102.11,102.11 0 0 0 12.92,-20.51 195.63,195.63 0 0 0 10.44,-25.19 c 2.21,-6.59 4.68,-13.87 4.9,-20.88 0,-0.95 -0.17,0.9 0,0 0.07,-0.38 0.12,-0.75 0.18,-1.12 0.21,-1.35 0.42,-2.69 0.64,-4 q 1.06,-6.82 2.15,-13.65 2.91,-18.36 5.81,-36.71 c 1.17,-7.4 2.41,-14.81 3.52,-22.22 1.23,-8.2 1.58,-16.6 2.34,-24.85 L 298.54,229 c 0.29,-3.15 -0.85,-6.3 -1.52,-9.36 l -1.83,-8.32 a 13.74,13.74 0 0 0 -1,-3.15 c -2.37,-4.87 -4.83,-9.7 -7.24,-14.55 l -2,-4 0.25,1.93 c 0.62,-2.4 0.06,-5.14 -0.28,-7.53 -0.55,-3.87 -1.33,-7.72 -2.15,-11.55 -2,-9.46 -4.35,-18.86 -6.76,-28.24 -1.43,-5.55 -3.12,-11.08 -4.4,-16.67 -1.34,-5.79 -2.32,-11.53 -4.32,-17.16 a 66.81,66.81 0 0 0 -7.6,-15.33 c -3.93,-5.76 -9,-11 -15.3,-14.24 a 21.33,21.33 0 0 0 -4.34,-1.79 c -1.62,-0.4 -3.42,0.34 -5,0.7 q -6.3,1.43 -12.61,2.81 c -12.16,2.66 -24.34,5.23 -36.6,7.37 a 174.77,174.77 0 0 1 -17.84,2.55 32.66,32.66 0 0 1 -4.31,0.12 h -0.65 c -0.77,0 0.5,0.23 0,0 a 4.71,4.71 0 0 0 -0.76,-0.2 1.83,1.83 0 0 1 1.3,1.85 c 0,0.79 -0.34,1 -0.52,1.36 a 0.15,0.15 0 0 1 0.06,0 c 2.47,-2.07 -1.08,-5.59 -3.54,-3.54 z"
           id="path4010"
           inkscape:connector-curvature="0"
           style="fill:#000000" />
        <path
           class="cls-6"
           d="m 297.29,230.14 4.64,-28.68 0.83,2.53 v 0 l -12,-10 3.67,-0.52 -11.1,16.36 0.41,-1.72 6.32,49.71 a 3.27,3.27 0 0 1 0,0.54 l -3.15,33.79 a 2.51,2.51 0 0 1 -0.95,1.73 L 262,312.75 a 2.51,2.51 0 0 1 -3.47,-0.36 l -26.34,-31.64 a 2.53,2.53 0 0 1 -0.57,-1.55 L 231.1,249.56 230.83,234.75 229.92,220 a 2.6,2.6 0 0 1 0,-0.56 v -0.07 a 32.11,32.11 0 0 0 0.35,-7.23 51.15,51.15 0 0 0 -1.16,-7.41 70.18,70.18 0 0 0 -2.18,-7.3 68.24,68.24 0 0 0 -2.94,-7 v -0.07 a 2.5,2.5 0 1 1 4.48,-2.22 v 0 a 71.44,71.44 0 0 1 3.19,7.58 75.44,75.44 0 0 1 2.35,7.85 57.14,57.14 0 0 1 1.28,8.2 37.18,37.18 0 0 1 -0.43,8.53 v -0.63 l 1,14.86 0.27,14.86 0.52,29.71 -0.58,-1.56 26.33,31.64 -3.47,-0.37 23.95,-18.81 -0.94,1.73 3.15,-33.79 v 0.55 l -6.32,-49.71 a 2.52,2.52 0 0 1 0.42,-1.72 l 11.09,-16.35 a 2.51,2.51 0 0 1 3.47,-0.67 l 0.2,0.15 12,10 v 0 l 0.31,0.3 a 2.16,2.16 0 0 1 0.51,2.23 z"
           id="path4012"
           inkscape:connector-curvature="0"
           style="fill:#000000" />
        <path
           class="cls-2"
           d="m 175.71,340.32 c 3,0 3,-4.65 0,-4.65 -3,0 -3,4.65 0,4.65 z"
           id="path4014"
           inkscape:connector-curvature="0"
           style="fill:#000000" />
        <path
           class="cls-2"
           d="m 184.94,321.47 a 14.6,14.6 0 0 1 2,1.91 c 0.1,0.13 0.32,0.43 0.11,0.14 0.11,0.15 0.22,0.3 0.32,0.46 0.21,0.33 0.37,0.67 0.56,1 -0.1,-0.17 -0.11,-0.3 0,0 0.11,0.3 0.13,0.37 0.18,0.55 0.05,0.18 0.08,0.31 0.11,0.46 0.08,0.33 0,0.28 0,0 a 6.78,6.78 0 0 1 0,0.9 1.88,1.88 0 0 1 0,0.54 c 0.12,-0.14 0.1,-0.47 0,0 -0.1,0.47 -0.14,0.59 -0.23,0.88 l -0.15,0.44 c -0.19,0.55 0.17,-0.29 0,0 -0.34,0.59 -0.63,1.19 -1,1.75 l -0.16,0.22 c 0.21,-0.27 -0.14,0.17 -0.18,0.22 -0.22,0.26 -0.45,0.51 -0.68,0.76 a 20.93,20.93 0 0 1 -1.69,1.57 2.5,2.5 0 0 0 0,3.53 2.55,2.55 0 0 0 3.53,0 c 2.56,-2.12 4.92,-5 5.46,-8.39 0.67,-4.18 -1.43,-7.82 -4.62,-10.38 a 2.56,2.56 0 0 0 -3.54,0 2.52,2.52 0 0 0 0,3.53 z"
           id="path4016"
           inkscape:connector-curvature="0"
           style="fill:#000000" />
        <path
           class="cls-3"
           d="m 183,228.94 -7,-15.14 -1,-2.14 a 1.35,1.35 0 0 0 -1.83,-0.48 1.38,1.38 0 0 0 -0.48,1.83 l 7,15.14 1,2.14 a 1.34,1.34 0 0 0 1.83,0.48 1.36,1.36 0 0 0 0.48,-1.83 z"
           id="path4018"
           inkscape:connector-curvature="0"
           style="fill:#000000" />
        <path
           class="cls-3"
           d="m 190.06,317.53 9.18,13.16 1.31,1.88 c 0.92,1.31 3.08,0.07 2.16,-1.26 l -9.18,-13.16 -1.32,-1.89 c -0.91,-1.31 -3.08,-0.06 -2.15,1.27 z"
           id="path4020"
           inkscape:connector-curvature="0"
           style="fill:#000000" />
        <path
           class="cls-3"
           d="m 172.3,327.32 0.36,-9.37 0.88,-22.51 1.06,-27.24 0.91,-23.54 c 0.15,-3.78 0.52,-7.63 0.45,-11.42 a 1,1 0 0 1 0,-0.17 c 0.06,-1.61 -2.44,-1.6 -2.5,0 l -0.36,9.38 -0.88,22.55 -1.06,27.23 -0.91,23.54 c -0.15,3.79 -0.52,7.64 -0.45,11.42 a 1,1 0 0 1 0,0.17 c -0.06,1.61 2.44,1.61 2.5,0 z"
           id="path4022"
           inkscape:connector-curvature="0"
           style="fill:#000000" />
      </g>
      <g
         id="Слой_32"
         data-name="Слой 32"
         style="fill:#000000">
        <path
           class="cls-2"
           d="m 117.22,387.63 c 8.5,-1.69 17.14,-2.83 25.75,-3.78 3.6,-0.4 6.95,-0.77 10.53,-0.05 3.27,0.65 6.48,1.62 9.81,1.86 1.69,0.12 3.39,-0.74 5,-1.08 1.61,-0.34 3.51,-0.59 5.27,-0.82 a 31.51,31.51 0 0 1 9.79,0.05 c 7.82,1.43 15,5.13 22.75,6.82 3.14,0.69 4.48,-4.13 1.33,-4.82 -6.95,-1.52 -13.42,-4.61 -20.32,-6.3 a 34.68,34.68 0 0 0 -10.59,-1.08 61.61,61.61 0 0 0 -10.81,1.62 c -0.68,0.17 -1.4,0.53 -2.08,0.63 a 7.94,7.94 0 0 1 -2.16,-0.26 c -1.69,-0.3 -3.36,-0.72 -5,-1.09 a 45.63,45.63 0 0 0 -5.57,-0.95 25.69,25.69 0 0 0 -5.33,0.19 c -6.82,0.7 -13.64,1.59 -20.42,2.64 -3.09,0.49 -6.19,1 -9.27,1.6 a 2.52,2.52 0 0 0 -1.74,3.07 2.55,2.55 0 0 0 3.07,1.75 z"
           id="path4027"
           inkscape:connector-curvature="0"
           style="fill:#000000" />
      </g>
      <g
         id="Слой_31"
         data-name="Слой 31"
         style="fill:#000000">
        <path
           class="cls-4"
           d="m 52.55,134.25 c 7.87,-19 12.73,-54.65 39.33,-52.47 23.94,2 44.84,15.56 70.6,11.19 V 0.18 c -75.59,0 -115.07,48 -115.07,48 -16.94,20.73 -23.29,30.4 -27.22,56 l 32.36,30.14"
           id="path4030"
           inkscape:connector-curvature="0"
           style="fill:#000000" />
        <polygon
           class="cls-5"
           points="20.71,94.44 18.19,197.37 26.74,235.31 42.2,191.1 57.85,111.26 42.13,93.7 "
           id="polygon4032"
           style="fill:#000000" />
        <path
           class="cls-2"
           d="m 161.91,95.68 c 0.39,0.33 -0.42,-0.63 -0.21,-0.28 a 2.19,2.19 0 0 1 0.35,-2.49 1,1 0 0 1 0.66,-0.37 5.25,5.25 0 0 0 -0.78,0.2 c -0.42,0.13 0.79,0 0.08,0 h -0.73 c -0.6,0 -1.2,0 -1.81,0 A 105.76,105.76 0 0 1 145,91.13 c -10.61,-1.69 -21.15,-3.83 -31.66,-6 q -11.93,-2.5 -23.8,-5.22 c -2.45,-0.55 -3.91,-1 -6.09,-0.11 A 37.3,37.3 0 0 0 69.4,90 c -7.69,8.71 -12.16,19.85 -14.69,31.07 -0.66,2.89 -1.08,5.8 -1.85,8.66 -0.77,2.86 -1.54,5.77 -2.3,8.66 -2.41,9.17 -4.73,18.37 -6.85,27.61 -1.71,7.42 -3.8,15.16 -4.14,22.8 a 10.2,10.2 0 0 0 0.22,3 l 0.25,-1.92 -6.14,12.3 c -1.57,3.16 -3.36,6.12 -4.11,9.57 -1.1,5 -2.37,10 -3.31,15.08 a 8.8,8.8 0 0 0 0,2.51 l 0.58,6.27 L 30,267 c 0.5,5.43 1.65,10.86 2.5,16.24 q 4.94,31.11 9.84,62.21 c 0,0.34 0.1,0.68 0.16,1 0.15,0.9 -0.1,-1.12 0,0.29 a 61.22,61.22 0 0 0 1.71,9.78 184.42,184.42 0 0 0 20,47.53 c 4.24,6.75 9.61,12.69 14.7,18.81 5.7,6.85 11.39,13.8 17.68,20.13 6.29,6.33 12.16,12.84 18.94,18.51 a 68.39,68.39 0 0 0 22.17,12.6 46.51,46.51 0 0 0 11.2,2.66 l 8,0.54 5.71,0.39 c 3.21,0.22 3.2,-4.78 0,-5 l -12.52,-0.85 c -6.2,-0.42 -12.66,-2.75 -18.24,-5.49 a 71.87,71.87 0 0 1 -17.36,-12.47 c -5.6,-5.26 -11,-10.83 -16.28,-16.4 -5.28,-5.57 -10.38,-11.71 -15.38,-17.71 -4.31,-5.17 -9,-10.21 -12.71,-15.8 -8.44,-12.55 -14.58,-27 -19,-41.43 a 86.63,86.63 0 0 1 -3.64,-16.43 c -0.18,-1.66 -0.5,-3.3 -0.76,-4.94 q -2,-12.86 -4.06,-25.71 l -5,-31.64 c -0.88,-5.51 -1.48,-11.14 -2.63,-16.6 -0.08,-0.38 0,1 0.06,0.42 a 8.81,8.81 0 0 0 -0.11,-1.13 l -0.44,-4.83 -1.39,-15.1 -1.33,-14.4 c -0.12,-1.3 -0.15,-2.65 -0.37,-3.94 -0.08,-0.49 0.12,-0.88 -0.13,0.12 0.12,-0.47 0.2,-0.95 0.31,-1.43 l 3.09,-14.07 a 6,6 0 0 0 0.38,-1.73 c -0.07,-0.39 -0.16,0.3 -0.2,0.38 l 0.24,-0.47 c 0.85,-1.65 1.65,-3.32 2.47,-5 l 6.37,-12.8 c 0.14,-0.28 0.31,-0.56 0.43,-0.86 a 3.54,3.54 0 0 0 0.21,-2.11 c -0.06,-0.37 0,0.36 0,0.34 0,-0.17 0,-0.34 0,-0.51 a 36.72,36.72 0 0 1 0.27,-4.05 C 46,176.7 48.77,166 51.15,156.31 Q 54.33,143.43 57.8,130.6 C 59,126 59.65,121.33 61,116.77 a 66.24,66.24 0 0 1 8.42,-18.63 43.9,43.9 0 0 1 8.8,-9.63 31,31 0 0 1 4,-2.62 c 0.51,-0.29 1,-0.57 1.57,-0.83 l 0.77,-0.35 c 0.69,-0.32 -0.37,0.13 0.2,-0.08 a 9.57,9.57 0 0 1 1.66,-0.57 0.83,0.83 0 0 1 0.15,0 c -1,0.13 -0.34,0.08 0.23,0.33 a 20.16,20.16 0 0 0 3.71,0.84 l 4.3,1 q 12.73,2.84 25.5,5.45 c 10.35,2.1 20.73,4.12 31.2,5.45 3.77,0.48 8,1.22 11.76,0.51 2.17,-0.41 4.13,-2.38 2.83,-4.67 a 2.92,2.92 0 0 0 -0.6,-0.76 c -2.45,-2 -6,1.47 -3.53,3.54 z"
           id="path4034"
           inkscape:connector-curvature="0"
           style="fill:#000000" />
      </g>
      <g
         id="Слой_30"
         data-name="Слой 30"
         style="fill:#000000">
        <path
           class="cls-6"
           d="m 26.74,230.31 -8.51,-27.53 a 2.15,2.15 0 0 1 0.53,-2.15 l 0.31,-0.3 v 0 l 12,-10 a 2.49,2.49 0 0 1 3.52,0.32 1.25,1.25 0 0 1 0.15,0.19 l 11.1,16.36 a 2.55,2.55 0 0 1 0.41,1.72 l -6.31,49.7 v -0.54 l 3.16,33.78 -1,-1.73 24,18.87 -3.47,0.36 26.37,-31.63 -0.58,1.55 0.51,-29.71 0.27,-14.85 1,-14.87 v 0.63 a 37.09,37.09 0 0 1 -0.43,-8.52 56.93,56.93 0 0 1 1.28,-8.2 74.71,74.71 0 0 1 2.35,-7.85 72.67,72.67 0 0 1 3.19,-7.58 2.502209,2.502209 0 0 1 4.49,2.21 v 0 0.07 a 66.21,66.21 0 0 0 -2.93,7 70.24,70.24 0 0 0 -2.19,7.3 52.65,52.65 0 0 0 -1.16,7.4 32.2,32.2 0 0 0 0.35,7.24 v 0.05 a 2.82,2.82 0 0 1 0,0.58 l -0.94,14.75 -0.27,14.82 -0.51,29.63 a 2.51,2.51 0 0 1 -0.58,1.56 l -26.38,31.62 a 2.5,2.5 0 0 1 -3.46,0.37 L 39.06,294.06 a 2.49,2.49 0 0 1 -0.94,-1.73 L 35,258.54 a 2,2 0 0 1 0,-0.55 l 6.31,-49.7 0.39,1.71 -11.09,-16.35 3.66,0.52 -12,10 v 0 l 0.85,-2.45 z"
           id="path4037"
           inkscape:connector-curvature="0"
           style="fill:#000000" />
      </g>
      <g
         id="Layer_27"
         data-name="Layer 27"
         style="fill:#000000">
        <path
           class="cls-2"
           d="m 149.32,340.5 c 3,0 3,-4.65 0,-4.65 -3,0 -3,4.65 0,4.65 z"
           id="path4040"
           inkscape:connector-curvature="0"
           style="fill:#000000" />
        <path
           class="cls-2"
           d="m 136.56,318.11 c -3.2,2.56 -5.29,6.21 -4.63,10.38 0.54,3.37 2.91,6.27 5.46,8.4 a 2.57,2.57 0 0 0 3.54,0 2.55,2.55 0 0 0 0,-3.54 19.06,19.06 0 0 1 -1.62,-1.49 c -0.24,-0.25 -0.47,-0.5 -0.69,-0.76 l -0.32,-0.39 c 0.37,0.45 0,-0.06 -0.09,-0.13 a 17.22,17.22 0 0 1 -1,-1.66 c -0.21,-0.41 0.09,0.28 0,0 -0.09,-0.28 -0.11,-0.29 -0.16,-0.43 -0.1,-0.32 -0.18,-0.65 -0.25,-1 -0.07,-0.35 -0.19,-0.23 0,0 a 1.13,1.13 0 0 1 0,-0.45 c 0,-0.3 0,-0.61 0,-0.91 0,-0.3 -0.11,0.48 0,0 0,-0.19 0.08,-0.37 0.13,-0.55 0.05,-0.18 0.1,-0.31 0.15,-0.46 0.05,-0.15 0.25,-0.5 0,-0.05 0.16,-0.31 0.31,-0.62 0.5,-0.92 0.19,-0.3 0.2,-0.31 0.3,-0.46 0.1,-0.15 -0.18,0.2 0.11,-0.14 a 15.21,15.21 0 0 1 2.09,-2 2.51,2.51 0 0 0 0,-3.54 2.56,2.56 0 0 0 -3.53,0 z"
           id="path4042"
           inkscape:connector-curvature="0"
           style="fill:#000000" />
      </g>
      <g
         id="Layer_12"
         data-name="Layer 12"
         style="fill:#000000">
        <path
           class="cls-8"
           d="m 62.42,234.11 c 39.84,-9.65 69.91,12.75 69.94,12.76 -0.19,-0.07 -3.91,5.16 -4.29,5.37 -5.86,3.18 -12.17,6.49 -19.59,5.41 -13.21,-1.92 -27.46,-2.9 -37.63,-10.53 -8.41,-6.3 -9.24,-12.81 -8.43,-13.01 z"
           id="path4045"
           inkscape:connector-curvature="0"
           style="fill:#000000" />
        <path
           class="cls-2"
           d="m 63.07,236.46 a 84.76,84.76 0 0 1 39.9,0.16 87.23,87.23 0 0 1 24.03,9.71 c 1.4,0.83 2.74,1.74 4.09,2.64 l 0.59,-4.45 c -1.59,0.34 -2.81,2.75 -3.69,3.9 -0.66,0.87 -0.82,1.06 -1.29,1.68 0,0.07 -0.14,0.13 -0.17,0.2 -0.03,0.07 -0.15,0.63 0.27,-0.16 -0.1,0.19 -0.88,0.47 -1.08,0.58 l -1.27,0.68 a 37.09,37.09 0 0 1 -8.89,3.54 25.07,25.07 0 0 1 -9.34,0 c -11.88,-1.62 -25.6,-2.61 -35.18,-10.68 a 21.75,21.75 0 0 1 -5.69,-6.89 c -0.08,-0.15 -0.15,-0.3 -0.22,-0.46 -0.07,-0.16 -0.13,-0.29 0,-0.07 l -0.15,-0.41 c -0.14,-0.41 -0.25,-0.83 -0.36,-1.25 0,-0.1 0,-0.2 0,-0.3 0.17,0.73 0,0.22 0,0 0,-0.22 0.12,-0.36 -0.06,0.27 a 0.83,0.83 0 0 1 0,-0.15 2.17,2.17 0 0 1 -1.52,1.49 2.51,2.51 0 0 0 1.7,-3 2.45,2.45 0 0 0 -3,-1.69 c -4.49,1.68 -0.57,8.5 1.13,10.81 4.23,5.75 10.38,9.59 17,12 6.62,2.41 13.48,3.39 20.33,4.39 3.6,0.49 7.32,1.31 11,1.34 A 27.15,27.15 0 0 0 121.85,258 c 1.93,-0.8 3.8,-1.71 5.64,-2.69 a 8.49,8.49 0 0 0 2.9,-2 c 0.79,-1 1.54,-2 2.3,-3 l 0.52,-0.68 a 3.15,3.15 0 0 1 0.2,-0.26 3.83,3.83 0 0 0 0.36,-0.44 c 0.35,-0.52 0.65,0 -0.76,0.33 2.18,-0.47 2.21,-3.37 0.58,-4.45 a 86.73,86.73 0 0 0 -12.82,-7.13 94.77,94.77 0 0 0 -33.88,-8.27 88.89,88.89 0 0 0 -25.12,2.4 c -3.04,0.68 -1.77,5.38 1.3,4.65 z"
           id="path4047"
           inkscape:connector-curvature="0"
           style="fill:#000000" />
        <path
           class="cls-9"
           d="m 109.86,243.62 c 0,6.78 -5.75,12.27 -12.84,12.27 A 12.55,12.55 0 0 1 84.19,243.62 12.32,12.32 0 0 1 92.65,232.08 C 97.41,233 102,235 106.2,236 c 2.26,2.18 3.66,4.28 3.66,7.62 z"
           id="path4049"
           inkscape:connector-curvature="0"
           style="fill:#000000" />
        <path
           class="cls-2"
           d="m 108.05,243.62 c -0.09,6.45 -6,11 -12.27,10.41 -6.27,-0.59 -11,-6.54 -9.51,-12.74 a 10.77,10.77 0 0 1 6.87,-7.46 h -1 c 3.92,0.8 7.65,2.22 11.47,3.33 0.41,0.11 0.84,0.27 1.26,0.35 0.42,0.08 0.53,0.17 0.29,0 l 0.26,0.27 a 13.26,13.26 0 0 1 1.46,1.79 7.49,7.49 0 0 1 1.14,4.05 c 0,2.32 3.66,2.33 3.62,0 a 11.8,11.8 0 0 0 -3.17,-7.87 4.94,4.94 0 0 0 -1.82,-1.52 c -0.66,-0.25 -1.4,-0.36 -2.08,-0.56 -1.8,-0.52 -3.59,-1.13 -5.38,-1.69 -1.79,-0.56 -3.42,-1.06 -5.17,-1.45 a 3.7,3.7 0 0 0 -2.37,0 16,16 0 0 0 -2.18,1 14.27,14.27 0 0 0 -5.73,6.09 13.88,13.88 0 0 0 2.36,15.38 15.09,15.09 0 0 0 15.2,4.1 14.35,14.35 0 0 0 10.37,-13.47 c 0.03,-2.34 -3.58,-2.34 -3.62,-0.01 z"
           id="path4051"
           inkscape:connector-curvature="0"
           style="fill:#000000" />
        <circle
           class="cls-10"
           cx="97.57"
           cy="242.41"
           r="6.0900002"
           id="circle4053"
           style="fill:#000000" />
        <path
           class="cls-10"
           d="m 105.83,243.27 c 0,0 -15.4,-7.48 -18.5,-3.74 0,0 3.25,-11.12 18.12,-2.76 0,0 7.19,3.56 2.38,10.5"
           id="path4055"
           inkscape:connector-curvature="0"
           style="fill:#000000" />
        <path
           class="cls-8"
           d="m 86.66,240.33 a 3.29,3.29 0 1 1 3.28,3.56 3.43,3.43 0 0 1 -3.28,-3.56 z"
           id="path4057"
           inkscape:connector-curvature="0"
           style="fill:#000000" />
        <path
           class="cls-2"
           d="m 135.62,244.56 c -9.73,-5.85 -20.14,-10.86 -31.18,-13.65 A 74.79,74.79 0 0 0 76,229.22 82,82 0 0 0 60.78,232.84 c -3,1 -1.74,5.85 1.32,4.82 a 73.73,73.73 0 0 1 26.12,-4.1 79.91,79.91 0 0 1 27.5,6.37 131.09,131.09 0 0 1 17.4,8.95 c 2.77,1.66 5.28,-2.67 2.52,-4.32 z"
           id="path4059"
           inkscape:connector-curvature="0"
           style="fill:#000000" />
        <path
           class="cls-8"
           d="m 262.33,234.11 c -39.84,-9.65 -69.91,12.75 -69.94,12.76 0.2,-0.07 3.91,5.16 4.29,5.37 5.86,3.18 12.17,6.49 19.59,5.41 13.21,-1.92 27.46,-2.9 37.63,-10.53 8.42,-6.3 9.25,-12.81 8.43,-13.01 z"
           id="path4061"
           inkscape:connector-curvature="0"
           style="fill:#000000" />
        <path
           class="cls-2"
           d="m 263,231.77 a 90.11,90.11 0 0 0 -42,0 93.66,93.66 0 0 0 -25.57,10.24 c -1.45,0.85 -2.84,1.79 -4.24,2.72 -1.62,1.08 -1.59,4 0.58,4.45 -0.19,-0.05 -1.09,-0.91 -0.84,-0.42 a 1.69,1.69 0 0 0 0.28,0.32 l 0.34,0.44 c -0.27,-0.35 0.16,0.21 0.24,0.32 0.68,0.89 1.36,1.8 2.05,2.69 a 7,7 0 0 0 1.65,1.77 41.36,41.36 0 0 0 4.77,2.47 33.92,33.92 0 0 0 10.57,3.32 c 3.71,0.46 7.39,-0.32 11.06,-0.81 13.51,-1.83 28.87,-3.79 38.38,-14.72 a 20.14,20.14 0 0 0 4.4,-7.49 c 0.59,-2 0.66,-4.47 -1.66,-5.34 a 2.44,2.44 0 0 0 -3,1.69 2.49,2.49 0 0 0 1.7,3 2.59,2.59 0 0 1 -1.5,-1.42 c 0.1,0.36 -0.13,-0.71 -0.05,-0.3 a 1.29,1.29 0 0 1 0,0.34 c -0.09,0.46 0.1,-0.51 0,-0.17 -0.1,0.34 -0.12,0.61 -0.21,0.91 -0.09,0.3 -0.12,0.38 -0.18,0.57 -0.06,0.19 -0.1,0.28 -0.16,0.41 0.09,-0.19 0.09,-0.2 0,0 a 19.06,19.06 0 0 1 -4.18,5.84 c -4.44,4.39 -10.16,7 -16.11,8.65 a 140.47,140.47 0 0 1 -18.78,3.37 c -3.16,0.43 -6.35,1.09 -9.55,0.67 a 28.79,28.79 0 0 1 -8.7,-2.86 c -0.75,-0.36 -1.49,-0.74 -2.22,-1.13 l -1.1,-0.58 -0.72,-0.39 c -0.5,-0.29 -0.48,-0.25 0,0.12 -0.06,0 -0.49,-0.58 -0.51,-0.61 -0.02,-0.03 -0.44,-0.55 -0.13,-0.15 -0.19,-0.25 -0.38,-0.51 -0.58,-0.76 -0.71,-0.94 -1.41,-1.88 -2.14,-2.81 a 3.68,3.68 0 0 0 -1.92,-1.6 l 0.58,4.45 a 87.15,87.15 0 0 1 12.26,-6.87 92.9,92.9 0 0 1 13.72,-4.92 86.66,86.66 0 0 1 17.88,-2.92 83.9,83.9 0 0 1 24.21,2.2 c 3.11,0.73 4.38,-3.96 1.38,-4.69 z"
           id="path4063"
           inkscape:connector-curvature="0"
           style="fill:#000000" />
        <path
           class="cls-9"
           d="m 214.89,243.62 c 0,6.78 5.75,12.27 12.84,12.27 7.09,0 12.84,-5.49 12.84,-12.27 a 12.33,12.33 0 0 0 -8.47,-11.54 c -4.75,0.94 -9.3,2.88 -13.55,3.89 -2.26,2.21 -3.66,4.31 -3.66,7.65 z"
           id="path4065"
           inkscape:connector-curvature="0"
           style="fill:#000000" />
        <path
           class="cls-2"
           d="m 213.09,243.62 a 14.21,14.21 0 0 0 8.5,12.77 15.24,15.24 0 0 0 15.89,-2.27 13.84,13.84 0 0 0 4.2,-14.79 14.19,14.19 0 0 0 -4.62,-6.54 15,15 0 0 0 -3.6,-2.11 c -1.79,-0.74 -3.69,0 -5.48,0.55 -1.79,0.55 -3.81,1.19 -5.71,1.79 -1.62,0.52 -4,0.75 -5.26,1.94 a 12,12 0 0 0 -3.92,8.66 c 0,2.32 3.57,2.32 3.61,0 a 7.59,7.59 0 0 1 1.15,-4.05 10.64,10.64 0 0 1 1.33,-1.66 l 0.38,-0.4 c -0.23,0.17 -0.14,0.17 0.3,0 a 11.06,11.06 0 0 0 1.25,-0.35 c 3.83,-1.11 7.56,-2.53 11.47,-3.33 h -1 c 6.08,2.2 9.1,9.35 5.66,15 -3.32,5.48 -10.86,6.74 -16.06,3.23 a 10.43,10.43 0 0 1 -4.52,-8.46 c 0.01,-2.31 -3.61,-2.31 -3.57,0.02 z"
           id="path4067"
           inkscape:connector-curvature="0"
           style="fill:#000000" />
        <circle
           class="cls-10"
           cx="226.39"
           cy="242.41"
           r="6.0900002"
           id="circle4069"
           style="fill:#000000" />
        <path
           class="cls-10"
           d="m 218.93,243.27 c 0,0 15.39,-7.48 18.5,-3.74 0,0 -3.25,-11.12 -18.13,-2.76 0,0 -7.18,3.56 -2.37,10.5 z"
           id="path4071"
           inkscape:connector-curvature="0"
           style="fill:#000000" />
        <path
           class="cls-8"
           d="m 237.41,240.33 a 3.28,3.28 0 1 0 -3.27,3.56 3.43,3.43 0 0 0 3.27,-3.56 z"
           id="path4073"
           inkscape:connector-curvature="0"
           style="fill:#000000" />
        <path
           class="cls-2"
           d="m 191.65,248.88 c 17,-10.18 36.08,-17.44 56.14,-14.79 a 79.44,79.44 0 0 1 14.88,3.57 c 3.06,1 4.37,-3.8 1.33,-4.82 a 77.9,77.9 0 0 0 -27.45,-4.28 83.62,83.62 0 0 0 -29.21,6.71 140.48,140.48 0 0 0 -18.21,9.29 c -2.76,1.65 -0.25,6 2.52,4.32 z"
           id="path4075"
           inkscape:connector-curvature="0"
           style="fill:#000000" />
      </g>
      <g
         id="Слой_36"
         data-name="Слой 36"
         style="fill:#000000">
        <path
           class="cls-11"
           d="m 283.86,322 c -7.4,30.83 -38.37,62.18 -38.37,62.18 0,0 -3.52,-7.6 -3.54,-7.62 -21.59,-17.19 -32.55,-31.25 -51.64,-28.26 -8.22,1.29 -21.12,6.72 -27.24,6.28 -20,-1.48 -23.89,-9.65 -38.52,-4.93 -12.33,4 -36.1,15.07 -42.37,26.93 l -3.52,7.6 c 0,0 -30.65,-47.48 -38,-78.31 0,0 -9.26,97.92 97.13,168.12 0,0 13.61,0.46 23.66,1 v 0.09 h 0.67 0.67 v -0.09 c 10,-0.57 23.67,-1 23.67,-1 34.25,-22.5 58.1,-43.88 79.39,-79 C 286.21,361.31 283.86,322 283.86,322 Z m -110,45.44 c 12.29,-8.38 50.07,16.14 50.07,16.14 -4,48.95 -35.72,46.51 -35.72,46.51 -7.7,-10.44 -21.72,-19.9 -26.14,-19.11 -4.41,-0.79 -18.44,8.67 -26.14,19.11 0,0 -31.74,2.44 -35.72,-46.51 0,0 37.78,-24.52 50.07,-16.14 a 23.86,23.86 0 0 0 7.81,5.62 l 4,0.93 a 9.32,9.32 0 0 0 4,-0.66 18.28,18.28 0 0 0 7.77,-5.85 z"
           id="path4078"
           inkscape:connector-curvature="0"
           style="opacity:0.70999995;fill:#000000" />
      </g>
      <g
         id="Layer_10"
         data-name="Layer 10"
         style="fill:#000000">
        <path
           class="cls-3"
           d="m 144.3,230.47 7,-15.15 1,-2.14 a 1.39,1.39 0 0 0 -0.48,-1.83 1.35,1.35 0 0 0 -1.83,0.48 L 143,227 l -1,2.14 a 1.38,1.38 0 0 0 0.48,1.83 1.36,1.36 0 0 0 1.83,-0.48 z"
           id="path4081"
           inkscape:connector-curvature="0"
           style="fill:#000000" />
        <path
           class="cls-3"
           d="m 132.82,316.44 -9.18,13.16 -1.32,1.89 c -0.92,1.32 1.25,2.57 2.16,1.26 l 9.18,-13.16 1.34,-1.89 c 0.92,-1.32 -1.25,-2.57 -2.16,-1.26 z"
           id="path4083"
           inkscape:connector-curvature="0"
           style="fill:#000000" />
      </g>
      <g
         id="Layer_22"
         data-name="Layer 22"
         style="fill:#000000">
        <path
           class="cls-3"
           d="M 155.24,327.5 154.87,318.12 154,295.61 152.94,268.38 152,244.84 c -0.15,-3.8 -0.17,-7.63 -0.44,-11.42 a 1,1 0 0 1 0,-0.17 c -0.06,-1.61 -2.56,-1.61 -2.5,0 l 0.37,9.37 0.87,22.51 1.06,27.24 0.92,23.54 c 0.14,3.8 0.17,7.63 0.44,11.42 a 1,1 0 0 0 0,0.17 c 0.06,1.6 2.56,1.61 2.5,0 z"
           id="path4086"
           inkscape:connector-curvature="0"
           style="fill:#000000" />
      </g>
    </g>
  </g>
</svg>
