<?xml version="1.0" encoding="UTF-8" standalone="no"?>
<!-- Generator: Adobe Illustrator 16.0.0, SVG Export Plug-In . SVG Version: 6.00 Build 0)  -->

<svg
   xmlns:dc="http://purl.org/dc/elements/1.1/"
   xmlns:cc="http://creativecommons.org/ns#"
   xmlns:rdf="http://www.w3.org/1999/02/22-rdf-syntax-ns#"
   xmlns:svg="http://www.w3.org/2000/svg"
   xmlns="http://www.w3.org/2000/svg"
   xmlns:sodipodi="http://sodipodi.sourceforge.net/DTD/sodipodi-0.dtd"
   xmlns:inkscape="http://www.inkscape.org/namespaces/inkscape"
   version="1.1"
   id="Layer_65"
   x="0px"
   y="0px"
   width="316.98251"
   height="429.18008"
   viewBox="0 0 316.9825 429.18008"
   enable-background="new 0 0 595.77 529.763"
   xml:space="preserve"
   sodipodi:docname="snowManScarf.svg"
   inkscape:version="0.92.4 (5da689c313, 2019-01-14)"><metadata
   id="metadata4874"><rdf:RDF><cc:Work
       rdf:about=""><dc:format>image/svg+xml</dc:format><dc:type
         rdf:resource="http://purl.org/dc/dcmitype/StillImage" /></cc:Work></rdf:RDF></metadata><defs
   id="defs4872" /><sodipodi:namedview
   pagecolor="#ffffff"
   bordercolor="#666666"
   borderopacity="1"
   objecttolerance="10"
   gridtolerance="10"
   guidetolerance="10"
   inkscape:pageopacity="0"
   inkscape:pageshadow="2"
   inkscape:window-width="640"
   inkscape:window-height="480"
   id="namedview4870"
   showgrid="false"
   inkscape:zoom="0.44548222"
   inkscape:cx="206.51722"
   inkscape:cy="211.61578"
   inkscape:window-x="0"
   inkscape:window-y="0"
   inkscape:window-maximized="0"
   inkscape:current-layer="Layer_65" />
<g
   id="g4867"
   transform="rotate(-90,180.51657,283.93253)">
	<path
   d="m 305.946,105.916 c -54.862,0 -103.104,28.325 -130.914,71.145 H 37.77 v 62.575 h 113.768 c -1.041,7.278 -1.591,14.714 -1.591,22.28 0,3.221 0.109,6.416 0.302,9.589 H 70.946 v 49.294 h 90.508 c 23.238,56.965 79.172,97.117 144.492,97.117 86.156,0 156,-69.843 156,-156 0,-86.156 -69.843,-156 -156,-156 z"
   id="path4861"
   inkscape:connector-curvature="0"
   style="fill:#fb1311" />
	<g
   id="g4865">
		<path
   d="m 305.946,103.416 c -53.628,0.264 -103.666,27.565 -133.072,72.383 0.719,-0.413 1.438,-0.826 2.158,-1.238 -45.64,0 -91.28,0 -136.92,0 -0.114,0 -0.229,0 -0.343,0 -1.362,0 -2.5,1.137 -2.5,2.5 0,20.858 0,41.717 0,62.575 0,1.363 1.138,2.5 2.5,2.5 37.923,0 75.845,0 113.768,0 -0.804,-1.055 -1.607,-2.11 -2.411,-3.165 -1.483,10.819 -1.98,21.626 -1.378,32.534 0.833,-0.833 1.667,-1.667 2.5,-2.5 -26.434,0 -52.868,0 -79.302,0 -1.363,0 -2.5,1.137 -2.5,2.5 0,16.431 0,32.863 0,49.294 0,1.363 1.137,2.5 2.5,2.5 30.169,0 60.339,0 90.508,0 -0.804,-0.612 -1.607,-1.224 -2.41,-1.835 17.604,42.599 52.702,75.762 96.336,90.71 43.42,14.875 92.34,9.212 131.698,-14.068 37.545,-22.207 64.465,-60.08 73.796,-102.59 9.618,-43.819 -0.463,-90.526 -26.713,-126.781 -29.602,-40.885 -77.875,-65.096 -128.215,-65.319 -3.225,-0.014 -3.224,4.986 0,5 45.928,0.203 89.314,20.803 118.661,56.101 29.714,35.738 40.975,84.365 31.445,129.67 -9.292,44.173 -38.753,82.25 -78.391,103.484 -42.213,22.613 -94.12,23.362 -137.329,3.063 -34.441,-16.18 -61.96,-45.492 -76.469,-80.599 -0.433,-1.047 -1.193,-1.835 -2.41,-1.835 -30.169,0 -60.339,0 -90.508,0 0.833,0.833 1.667,1.667 2.5,2.5 0,-16.431 0,-32.863 0,-49.294 -0.833,0.833 -1.667,1.667 -2.5,2.5 26.434,0 52.868,0 79.302,0 1.306,0 2.575,-1.138 2.5,-2.5 -0.576,-10.437 -0.221,-20.845 1.2,-31.205 0.216,-1.578 -0.624,-3.165 -2.411,-3.165 -37.923,0 -75.845,0 -113.768,0 0.833,0.833 1.667,1.667 2.5,2.5 0,-20.858 0,-41.717 0,-62.575 -0.833,0.833 -1.667,1.667 -2.5,2.5 45.64,0 91.28,0 136.92,0 2.606,0 3.665,-3.014 4.935,-4.873 3.985,-5.833 8.457,-11.313 13.21,-16.534 9.335,-10.253 20.134,-19.088 31.848,-26.482 24.261,-15.314 52.647,-23.115 81.265,-23.256 3.224,-0.016 3.225,-5.016 0,-5 z"
   id="path4863"
   inkscape:connector-curvature="0"
   style="fill:#cc1926" />
	</g>
</g>
</svg>