<svg xmlns="http://www.w3.org/2000/svg" width="374" height="374" viewBox="0 0 373.881 373.824"><circle cx="186.993" cy="186.937" r="176.937" fill="#f2f6f9"/><path d="M186.993 20c43.808.17 85.792 17.333 117.115 47.974 31.168 30.49 48.953 72.647 49.8 116.15.852 43.728-16.064 86.4-46.134 118.056-29.963 31.543-71.745 50.085-115.165 51.607-43.757 1.535-86.808-14.62-118.958-44.274-31.91-29.434-51.204-70.838-53.4-114.166-2.218-43.767 13.177-87.2 42.4-119.822 28.898-32.268 69.926-52.31 113.15-55.175 3.725-.248 7.458-.334 11.2-.35 12.895-.05 12.9-20.05 0-20-46.436.18-90.996 17.504-125.556 48.455C27.214 79.104 6.26 122.06 1.113 167.475-4.06 213.116 9 260.414 36.18 297.325c26.952 36.598 66.7 62.683 111.167 72.32 45.794 9.923 94.39 1.97 134.75-21.738 39.075-22.955 68.465-60.26 82.706-103.147 14.83-44.664 11.085-93.97-8.28-136.59-18.418-40.534-52.6-73.778-93.178-91.85C239.288 5.61 213.328.104 186.992.001c-12.898-.05-12.893 19.95.001 20z" fill="#4fd1cf"/></svg>