<svg xmlns="http://www.w3.org/2000/svg" width="467" height="43" viewBox="0 0 466.891 42.171"><g transform="rotate(270 21.086 21.086)"><path d="M2.5 2.5h37.17v108.404H2.5z" fill="#cf9259"/><path d="M5 110.904V2.5L2.5 5h37.17l-2.5-2.5v108.404l2.5-2.5H2.5c-3.225 0-3.225 5 0 5h37.17c1.362 0 2.5-1.137 2.5-2.5V2.5c0-1.363-1.138-2.5-2.5-2.5H2.5C1.137 0 0 1.137 0 2.5v108.404c0 3.225 5 3.225 5 0z" fill="#ac7e5c"/><path d="M2.5 355.987h37.17V464.39H2.5z" fill="#cf9259"/><path d="M5 464.39V355.987l-2.5 2.5h37.17l-2.5-2.5V464.39l2.5-2.5H2.5c-3.225 0-3.225 5 0 5h37.17c1.362 0 2.5-1.138 2.5-2.5V355.987c0-1.363-1.138-2.5-2.5-2.5H2.5c-1.363 0-2.5 1.137-2.5 2.5V464.39c0 3.224 5 3.224 5 0z" fill="#ac7e5c"/></g></svg>