<svg xmlns="http://www.w3.org/2000/svg" xmlns:xlink="http://www.w3.org/1999/xlink" width="136" height="136"><style><![CDATA[.B{opacity:.2}.C{fill:#ac76f4}.D{fill:#c5abef}.E{opacity:.1}.F{fill:#ddc7ff}.G{clip-path:url(#B)}]]></style><g transform="translate(-241 -205)"><defs><path id="A" d="M241 205h136v136H241z"/></defs><clipPath id="B"><use xlink:href="#A"/></clipPath><g class="G"><path d="M241 205h136v136H241z" fill="#290f4f"/><g class="B"><path d="M293.377 341.496c7.48-9.375 23.533-4.135 30.504-12.008 7.607-8.595-4.833-35.624-12.383-41.646-11.298-9.01-30.453-2.062-41.03 11.204s-28.48 36.45-17.182 45.46c5.76 4.6 13.628 7.736 20.97 8.324 9.916.794 13.455-4.23 19.12-11.335z" fill="#6e0ba3"/><path d="M276.24 353.232a25.01 25.01 0 0 1-2.009-.083c-7.386-.592-15.3-3.73-21.144-8.393-5.045-4.022-4.944-11.266.3-21.528 4.662-9.12 12.577-19.047 16.83-24.38 7.454-9.35 18.81-15.4 28.926-15.4 4.89 0 9.11 1.39 12.552 4.135 5.695 4.542 13.794 20.39 14.777 31.727.404 4.665-.388 8.157-2.354 10.38-3.398 3.838-8.757 4.61-14.43 5.426-6.01.865-12.226 1.76-16.063 6.57l-.692.87c-4.92 6.194-8.48 10.668-16.693 10.668zm22.905-69.136c-9.932 0-21.1 5.946-28.428 15.15-4.238 5.315-12.128 15.2-16.76 24.273-5.088 9.955-5.247 16.933-.47 20.74 5.758 4.588 13.533 7.674 20.797 8.256a24.65 24.65 0 0 0 1.958.081c7.908 0 11.384-4.374 16.195-10.428l.692-.87c3.994-5.008 10.337-5.92 16.47-6.803 5.555-.8 10.802-1.555 14.045-5.218 1.846-2.086 2.585-5.418 2.196-9.902-.97-11.192-8.94-26.816-14.54-31.283-3.324-2.65-7.414-3.995-12.154-3.995z" fill="#231f20"/><path d="M245.28 260.968c.148-3.344 1.753-6.4 5.425-8.734 5.264-3.348 13.96-5.865 20.027-5.865 12.283 0 25.07 1.218 36.98 4.56 4.676 1.312 12.647 3.703 9.56 10.846-2.552 5.904-18.598 7.305-23.36 10.74-9.244 6.672-11.736 16.413-23.305 15.51-9.195-.72-25.84-15.583-25.33-27.056z" fill="#5535ba"/></g><path d="M362.922 274.104c.97 7.65.662 15.498-.797 23.315-2.004 10.727-7.13 34.384-21.736 34.386-19.46.002-40.88-25.958-52.54-38.98-12.323-13.762-18.518-28.43-9.738-46.005 6.838-13.688 19.372-30.368 36.17-30.668 18.212-.325 31.494 18.376 39.834 32.317 4.804 8.03 7.675 16.698 8.808 25.635z" fill="#14052d"/><g class="D"><path d="M362.62 300.874l.162.515c1.65 5.576-1.574 11.305-2.615 16.694-1.203 6.226-3.026 12.23 1.604 17.53 4.277 4.895 7.713 8.716 7.61 15.565-.094 6.376-2.287 12.688-3.692 18.862-1.6 7.014-4.922 15.994-13.255 16.477-10.28.596-19.795-8.15-26.898-14.408-14.806-13.04-48.93-46.89-28.205-67.646 4.784-4.793 11.11-7.168 17.033-10.153 8.387-4.226 17.73-7.49 27.235-6.923 8.258.494 18.142 4.877 21.02 13.487z" class="E"/><path d="M327.668 246.3l.498 1.702-1.7-.5-1.703.5.5-1.702-.5-1.703 1.703.5 1.7-.5zm27.992 64.8l.833 1.115-1.388.1-1.116.834-.1-1.4-.833-1.116 1.388-.1 1.117-.833zm3.436-96.913l.834 1.116-1.4.1-1.115.833-.1-1.388-.834-1.116 1.4-.1 1.116-.833z"/></g><path d="M389.06 271.932l.01 7.096c-.136 6.85.708 23.895-9.987 23.895-8.465 0-16.21-7.87-20.86-14.076-5.562-7.422-12.39-15.796-12.45-25.536-.044-7.127 4.944-17.295 10.325-21.758 8.223-6.82 17.643 2.634 23.94 7.728 7.066 5.714 8.734 14.177 9.025 22.65z" fill="#0d46a0" class="E"/><path d="M253.33 210.106l.782 2.672-2.672-.782-2.672.782.782-2.672-.782-2.672 2.672.782 2.672-.782zm38.77 36.508l1.197.7-1.244.625-.7 1.197-.625-1.244-1.198-.7 1.244-.626.7-1.197zm-27.76 25.806l.57.765-.95.067-.766.572-.068-.952-.57-.765.95-.068.765-.57zm-10.336 59.24l-.655 1.23-.68-1.216-1.228-.655 1.214-.68.656-1.23.68 1.214 1.228.657zm106.71-66.8l.958 1.282-1.597.116-1.283.958-.115-1.597-.958-1.284 1.596-.115 1.284-.958z" class="D"/><path d="M304.437 219.92c1.448 3.313.836 7.928-.032 13.808-.94 6.373-1.84 11.52-8.45 14.073-17.14 6.62-42.92-2.926-51.852-19.315-10.095-18.525 36.5-15.178 44.465-14.77 4.84.246 13.476.733 15.87 6.205z" fill="#0e0219" opacity=".5"/><path d="M304.1 272.39l.644.863-1.075.077-.864.646-.076-1.076-.645-.864 1.074-.076.863-.646z" class="D"/><path d="M306.367 209.916c1.106 1.106 1.106 2.9 0 4.007l-45.5 45.5c-1.106 1.107-2.9 1.107-4.007 0s-1.106-2.9 0-4.007l45.5-45.5c1.107-1.107 2.9-1.107 4.007 0zm-5.93 88c1.106 1.106 1.106 2.9 0 4.007l-26.398 26.398c-1.107 1.106-2.9 1.106-4.007.001s-1.106-2.9 0-4.008l26.398-26.398c1.106-1.107 2.9-1.107 4.007 0zm41.896-1.322c1.105 1.105 1.105 2.9-.001 4.007l-6.6 6.6c-1.107 1.107-2.9 1.107-4.008.001s-1.105-2.9 0-4.007l6.6-6.6a2.83 2.83 0 0 1 4.008 0zM277.174 265.8c1.105 1.106 1.105 2.9 0 4.007l-2.357 2.356c-1.106 1.107-2.9 1.107-4.007.001s-1.106-2.9 0-4.007l2.356-2.357c1.107-1.106 2.9-1.106 4.008 0z" class="B C"/><path d="M268.8 297.85l2.2.593-1.682 1.524-.596 2.2-1.523-1.683-2.2-.595 1.682-1.523.596-2.2zm56.85 1.84l1.004-.53-.096 1.13.53 1.004-1.13-.096-1.005.53.096-1.13-.53-1.004zm23.03 2.64l.876-.08-.405.78.08.875-.78-.404-.875.08.405-.78-.08-.875z" class="D"/><g class="C"><circle cx="250.125" cy="241.22" r="1.782" class="B"/><circle cx="314.308" cy="233.556" r="1.108" class="B"/><circle cx="315.417" cy="257.335" r=".647" class="B"/><circle cx="297.991" cy="281.667" r="1.109" class="B"/><circle cx="320.47" cy="289.502" r=".647" class="B"/></g><circle cx="356.493" cy="238.019" r=".647" class="B F"/><g class="C"><circle cx="337.548" cy="247.685" r="1.108" class="B"/><circle cx="348.556" cy="230.925" r=".647" class="B"/><circle cx="282.267" cy="288.422" r=".647" class="B"/><circle cx="264.841" cy="312.753" r="1.109" class="B"/><circle cx="287.319" cy="320.589" r=".647" class="B"/><circle cx="368.087" cy="271.691" r=".647" class="B"/></g><circle cx="350.662" cy="296.022" r="1.108" class="B F"/><circle cx="373.14" cy="303.858" r=".647" class="B C"/><path d="M285.232 318.94l-3.107 1.2-1.97 2.688-1.2-3.108-2.686-1.97 3.107-1.2 1.97-2.688 1.2 3.1zm58.095-40.932l-.663 1.273.13 1.43-1.273-.663-1.43.13.662-1.274-.13-1.43 1.273.664zm-49.602-60.152l-1.004.388-.637.87-.388-1.005-.868-.636 1.004-.388.637-.87.387 1.005zm28.43 115.814l-.605 1.484.293 1.576-1.485-.605-1.576.292.605-1.483-.3-1.577 1.483.605z" fill="#fff"/><g class="C"><path d="M352.75 219.942c1.106 1.106 1.106 2.9 0 4.007l-26.398 26.398c-1.107 1.106-2.9 1.106-4.007 0s-1.106-2.9 0-4.007l26.398-26.398c1.107-1.106 2.9-1.106 4.007 0z" class="E"/><circle cx="292.538" cy="260.504" r="1.253" class="B"/></g><circle cx="338.409" cy="266.109" r="1.794" class="B F"/><circle cx="249.182" cy="290.26" r=".943" class="B C"/><circle cx="261.301" cy="217.664" r="1.254" class="B F"/><path d="M253.06 271.932l.01 7.096c-.136 6.85.708 23.895-9.987 23.895-8.465 0-16.2-7.87-20.86-14.076-5.562-7.422-12.39-15.796-12.45-25.536-.044-7.127 4.944-17.295 10.325-21.758 8.222-6.82 17.643 2.634 23.94 7.728 7.065 5.714 8.732 14.177 9.024 22.65z" fill="#0d46a0" class="E"/><g class="B"><path d="M293.377 205.496c7.48-9.374 23.533-4.134 30.504-12.008 7.607-8.594-4.833-35.624-12.383-41.645-11.298-9.01-30.453-2.06-41.03 11.205s-28.48 36.45-17.182 45.46c5.76 4.6 13.628 7.736 20.97 8.324 9.916.792 13.455-4.233 19.12-11.337z" fill="#6e0ba3"/><path d="M276.24 217.233a25.48 25.48 0 0 1-2.009-.083c-7.387-.59-15.29-3.73-21.144-8.392-5.045-4.023-4.944-11.266.3-21.528 4.662-9.122 12.578-19.047 16.83-24.38 7.454-9.35 18.81-15.4 28.926-15.4 4.89 0 9.11 1.39 12.552 4.135 5.695 4.542 13.794 20.39 14.777 31.727.404 4.665-.388 8.157-2.354 10.378-3.398 3.84-8.758 4.6-14.432 5.427-6 .865-12.225 1.76-16.062 6.57l-.69.87c-4.92 6.192-8.48 10.668-16.694 10.668zm22.905-69.137c-9.932 0-21.1 5.947-28.428 15.15-4.238 5.315-12.128 15.208-16.76 24.272-5.088 9.955-5.247 16.933-.47 20.74 5.757 4.587 13.533 7.674 20.797 8.255a24.65 24.65 0 0 0 1.958.081c7.908 0 11.385-4.375 16.196-10.43l.69-.87c3.994-5.006 10.336-5.92 16.47-6.802 5.555-.8 10.802-1.555 14.046-5.218 1.846-2.086 2.585-5.417 2.196-9.9-.97-11.192-8.938-26.817-14.54-31.284-3.324-2.65-7.414-3.995-12.154-3.995z" fill="#231f20"/></g><path d="M362.62 164.874l.162.514c1.65 5.577-1.574 11.305-2.615 16.695-1.203 6.226-3.026 12.23 1.604 17.53 4.277 4.894 7.713 8.715 7.61 15.565-.094 6.376-2.287 12.688-3.692 18.862-1.6 7.014-4.922 15.994-13.255 16.477-10.28.596-19.795-8.15-26.898-14.408-14.806-13.04-48.93-46.9-28.205-67.646 4.784-4.793 11.11-7.168 17.033-10.153 8.387-4.225 17.73-7.492 27.235-6.923 8.258.493 18.142 4.876 21.02 13.486z" class="D E"/></g></g></svg>