<?xml version="1.0" encoding="UTF-8" standalone="no"?>
<svg
   xmlns:dc="http://purl.org/dc/elements/1.1/"
   xmlns:cc="http://creativecommons.org/ns#"
   xmlns:rdf="http://www.w3.org/1999/02/22-rdf-syntax-ns#"
   xmlns:svg="http://www.w3.org/2000/svg"
   xmlns="http://www.w3.org/2000/svg"
   xmlns:sodipodi="http://sodipodi.sourceforge.net/DTD/sodipodi-0.dtd"
   xmlns:inkscape="http://www.inkscape.org/namespaces/inkscape"
   version="1.1"
   id="Слой_1"
   x="0px"
   y="0px"
   viewBox="0 0 330.3 404.3"
   xml:space="preserve"
   sodipodi:docname="squidUnit.svg"
   width="330.29999"
   height="404.29999"
   inkscape:version="1.0.2-2 (e86c870879, 2021-01-15)"><metadata
   id="metadata851"><rdf:RDF><cc:Work
       rdf:about=""><dc:format>image/svg+xml</dc:format><dc:type
         rdf:resource="http://purl.org/dc/dcmitype/StillImage" /></cc:Work></rdf:RDF></metadata><defs
   id="defs849" />
<style
   type="text/css"
   id="style833">
	.st0{fill:#FF1973;stroke:#000000;stroke-width:11;stroke-miterlimit:10;}
	.st1{fill:none;stroke:#000000;stroke-width:11;stroke-miterlimit:10;}
	.st2{fill:#AAAAAA;}
	.st3{fill:none;stroke:#000000;stroke-width:6;stroke-linecap:round;stroke-linejoin:round;stroke-miterlimit:10;}
	.st4{fill:none;stroke:#FFFFFF;stroke-width:12;stroke-miterlimit:10;}
	.st5{fill:none;stroke:#353434;stroke-width:5;stroke-miterlimit:10;}
</style>
<sodipodi:namedview
   bordercolor="#666666"
   borderopacity="1"
   gridtolerance="10"
   guidetolerance="10"
   id="namedview70"
   inkscape:current-layer="Слой_1"
   inkscape:cx="264.65556"
   inkscape:cy="201.9"
   inkscape:pageopacity="0"
   inkscape:pageshadow="2"
   inkscape:window-height="1001"
   inkscape:window-maximized="1"
   inkscape:window-width="1920"
   inkscape:window-x="-9"
   inkscape:window-y="-9"
   inkscape:zoom="1.96875"
   objecttolerance="10"
   pagecolor="#ffffff"
   showgrid="false"
   inkscape:document-rotation="0">
	</sodipodi:namedview>
<path
   id="path45"
   class="st0"
   d="m 276.1,360.3 c 0,25.1 -48.6,38.5 -108.5,38.5 -59.9,0 -108.5,-13.4 -108.5,-38.5 0,-25.1 48.6,-45.5 108.5,-45.5 59.9,0 108.5,20.4 108.5,45.5 z" />
<line
   id="line47"
   class="st1"
   x1="166.10001"
   y1="357.79999"
   x2="166.10001"
   y2="398.79999" />
<polygon
   id="polygon49"
   class="st2"
   points="171.2,362.7 160.4,362.7 152.9,384.8 179.8,384.8 " />
<polygon
   id="polygon51"
   class="st3"
   points="171.2,362.7 160.4,362.7 152.9,384.8 179.8,384.8 " />
<path
   id="path53"
   class="st0"
   d="m 324.8,186.4 c 0,51.7 -15.1,98.2 -47.3,130.4 -28.3,28.3 -71.1,40.6 -112.4,40.6 C 121,357.4 76,342.7 47.1,310.9 18.2,279.1 5.5,235.1 5.5,186.5 5.5,152.6 14.2,107.3 29.3,80.4 57.4,30.3 107.8,5.5 165.1,5.5 c 53.9,0 101.5,20.8 130.4,65.9 18.5,28.6 29.3,77.2 29.3,115 z" />
<g
   id="g59"
   transform="translate(-90.9,-54.1)">
	<path
   id="path55"
   d="m 256.1,389.4 c -34.6,0 -70.2,-15.6 -93,-40.6 -21.4,-23.6 -32.8,-57.4 -32.8,-97.6 0,-27.8 7.3,-58.8 18.7,-79 10.8,-19.3 26,-34.2 45,-44.4 18.2,-9.8 39.1,-14.7 62,-14.7 44.8,0 81.3,18.5 102.8,52.1 13.9,21.7 22.9,55.5 22.9,86.1 0,42.5 -12.9,77.9 -37.2,102.2 -22.1,22.1 -56,35.9 -88.4,35.9 z" />
	<path
   id="path57"
   d="m 256.1,117.1 c 41.1,0 77.4,15.9 99.5,50.2 14,21.9 22.3,55.1 22.3,83.9 0,39.4 -11.5,74.8 -36,99.4 -21.6,21.6 -54.2,34.8 -85.7,34.8 -33.6,0 -68,-15 -90,-39.3 -22,-24.3 -31.7,-57.8 -31.7,-94.9 0,-25.9 6.6,-56.6 18.2,-77.1 21.2,-38.1 59.6,-57 103.4,-57 m 0,-8 c -23.6,0 -45.1,5.1 -63.9,15.2 -19.7,10.6 -35.4,26 -46.6,46 -11.6,20.7 -19.2,52.5 -19.2,81 0,41.2 11.7,75.9 33.8,100.2 23.5,25.9 60.2,41.9 95.9,41.9 16.5,0 33.6,-3.4 49.6,-9.9 16,-6.5 30.5,-15.9 41.8,-27.2 25.1,-25.1 38.4,-61.4 38.4,-105.1 0,-31.3 -9.2,-66 -23.5,-88.2 -22.5,-34.8 -60.2,-53.9 -106.3,-53.9 z" />
</g>
<rect
   id="rect61"
   x="109.6"
   y="106.3"
   class="st4"
   width="113"
   height="113" />
<line
   id="line63"
   class="st5"
   x1="47.099998"
   y1="242.5"
   x2="284.10001"
   y2="242.5" />
<line
   id="line65"
   class="st5"
   x1="165.10001"
   y1="242.5"
   x2="165.10001"
   y2="334.79999" />
<path
   id="path67"
   d="m 165.2,63 c 41.1,0 77.4,15.9 99.5,50.2 14,21.9 22.3,55.1 22.3,83.9 0,39.4 -11.5,74.8 -36,99.4 -21.6,21.6 -54.2,34.8 -85.7,34.8 -33.6,0 -68,-15 -90,-39.3 -22,-24.3 -31.7,-57.8 -31.7,-94.9 0,-25.9 6.6,-56.6 18.2,-77.1 C 83,81.9 121.4,63 165.2,63 m 0,-4 c -23,0 -43.8,4.9 -62,14.7 -19,10.2 -34.2,25.1 -45,44.4 -11.3,20.2 -18.7,51.2 -18.7,79 0,40.2 11.3,73.9 32.8,97.6 22.7,25 58.3,40.6 93,40.6 16,0 32.6,-3.3 48,-9.6 15.5,-6.3 29.5,-15.4 40.5,-26.4 C 278.1,275 291,239.6 291,197.1 291,166.5 282,132.7 268.1,111 257,93.7 242.1,80.4 223.9,71.6 206.6,63.2 186.8,59 165.2,59 Z" />
</svg>
