<?xml version="1.0" encoding="UTF-8" standalone="no"?>
<svg
   xmlns:dc="http://purl.org/dc/elements/1.1/"
   xmlns:cc="http://creativecommons.org/ns#"
   xmlns:rdf="http://www.w3.org/1999/02/22-rdf-syntax-ns#"
   xmlns:svg="http://www.w3.org/2000/svg"
   xmlns="http://www.w3.org/2000/svg"
   xmlns:sodipodi="http://sodipodi.sourceforge.net/DTD/sodipodi-0.dtd"
   xmlns:inkscape="http://www.inkscape.org/namespaces/inkscape"
   version="1.1"
   id="Слой_1"
   x="0px"
   y="0px"
   viewBox="0 0 319.20001 393.29999"
   xml:space="preserve"
   sodipodi:docname="squidUnitBack.svg"
   width="319.20001"
   height="393.29999"
   inkscape:version="1.0.2-2 (e86c870879, 2021-01-15)"><metadata
   id="metadata92"><rdf:RDF><cc:Work
       rdf:about=""><dc:format>image/svg+xml</dc:format><dc:type
         rdf:resource="http://purl.org/dc/dcmitype/StillImage" /></cc:Work></rdf:RDF></metadata><defs
   id="defs90" /><sodipodi:namedview
   pagecolor="#ffffff"
   bordercolor="#666666"
   borderopacity="1"
   objecttolerance="10"
   gridtolerance="10"
   guidetolerance="10"
   inkscape:pageopacity="0"
   inkscape:pageshadow="2"
   inkscape:window-width="3840"
   inkscape:window-height="2050"
   id="namedview88"
   showgrid="false"
   inkscape:zoom="1.96875"
   inkscape:cx="8.1349206"
   inkscape:cy="196.5"
   inkscape:window-x="-12"
   inkscape:window-y="-12"
   inkscape:window-maximized="1"
   inkscape:current-layer="Слой_1" />
<path
   d="M 319.2,181 C 319.2,143.2 308.4,94.6 290,65.9 261.1,20.8 213.4,0 159.6,0 102.2,0 51.9,24.8 23.8,74.9 8.7,101.8 0,147 0,181 c 0,48.6 12.7,92.6 41.6,124.4 8.7,9.6 18.9,17.7 30.2,24.2 -11.5,7.2 -18.2,15.9 -18.2,25.2 0,25.1 48.6,38.5 108.5,38.5 59.9,0 108.4,-13.3 108.4,-38.4 0,-9.9 -7.5,-19 -20.2,-26.5 7.9,-4.9 15.2,-10.5 21.7,-17.1 32.1,-32.1 47.2,-78.6 47.2,-130.3 z"
   id="path85" />
</svg>
