<svg xmlns="http://www.w3.org/2000/svg" xmlns:xlink="http://www.w3.org/1999/xlink" width="297" height="473" viewBox="0 0 296.012 472.374"><style><![CDATA[.B{fill:#c90}.C{fill:#960}.D{stroke-miterlimit:10}.E{opacity:.8}.F{fill:#fff}.G{stroke-width:5.227}.H{stroke-width:10.453}.I{stroke-width:8.363}]]></style><g class="B"><path d="M217.6 176.495c0 13.66-10.917 24.732-24.392 24.732s-24.4-11.072-24.4-24.732V41.837c0-13.663 10.915-24.735 24.4-24.735S217.6 28.175 217.6 41.837zm-58.07-12.103c0 14.083-10.918 25.5-24.393 25.5s-24.4-11.427-24.4-25.5V25.5c0-14.087 10.916-25.5 24.4-25.5s24.393 11.423 24.393 25.5zm-56.916-3.272c0 11.55-10.916 20.907-24.4 20.907S53.84 172.67 53.84 161.12V47.3c0-11.546 10.917-20.907 24.392-20.907s24.4 9.36 24.4 20.907zm-54.008 49.5c0 11.542-9.556 20.906-21.343 20.906S5.93 222.16 5.93 210.62V96.787c0-11.545 9.552-20.905 21.343-20.905s21.343 9.36 21.343 20.905zm217.458-40.53c21.866-6.1 29.938 20.675 29.938 36.362 0 0-4.146 74.63-38.12 97.278 0 0-29.828 25.55-51.605 33.4 0 0-31.36-62.258 0-103.432 1.15-1.512 14.945 1.558 17.592-.28 16.178-11.195 17.02-21.73 22.94-38.73 3.016-8.624 7.193-19.75 16.347-23.574a24.98 24.98 0 0 1 2.906-1.014z"/><path d="M5.93 196s24.105-44.55 104.827-40.134c0 0 85.947-7.914 106.854 6.527l10.134 161.44s-66.757 55.97-173.904 21.125c0 0-47.91-13.066-47.91-148.96z"/><path d="M49.088 337.12L19.072 472.374h232.152L213.33 326.666S78.233 293.564 49.088 337.12z"/></g><g class="C"><path d="M110.757 104.2h48.783v61.265h-48.783zM53.84 116.73h48.783v48.745H53.84zm-47.9 27.003h42.686v27.875H5.93zm162.9-34.57h48.782v44.54H168.83zm-58.073-66.48h48.783V54h-48.783zM53.63 65.333h48.782v11.324H53.63zM5.93 105.3h42.686v11.27H5.93zM168.83 54h48.782v11.324H168.83z"/><path d="M221.095 173.324c0-14.684-12.473-26.6-27.868-26.6-15.408 0-27.883 11.906-27.883 26.6 0 14.693 12.475 26.596 27.883 26.596 15.395-.001 27.868-11.904 27.868-26.596z"/></g><path d="M220.225 168.982c0-14.687-12.475-26.594-27.87-26.594-15.408 0-27.883 11.907-27.883 26.594s12.475 26.596 27.883 26.596c15.394 0 27.87-11.9 27.87-26.596z" class="B"/><path d="M163.024 176.57c0-14.688-12.477-26.592-27.87-26.592-15.408 0-27.882 11.905-27.882 26.592s12.475 26.596 27.882 26.596c15.394 0 27.87-11.9 27.87-26.596z" class="C"/><path d="M162.153 172.23c0-14.69-12.475-26.597-27.87-26.597-15.408 0-27.882 11.906-27.882 26.597 0 14.686 12.475 26.596 27.882 26.596 15.396 0 27.87-11.9 27.87-26.596z" class="B"/><path d="M106.77 184.648c0-14.686-12.475-26.588-27.87-26.588-15.408 0-27.882 11.903-27.882 26.588 0 14.694 12.475 26.598 27.882 26.598 15.396-.001 27.87-11.904 27.87-26.598z" class="C"/><path d="M105.898 180.306c0-14.685-12.475-26.592-27.87-26.592-15.408 0-27.882 11.907-27.882 26.592s12.475 26.596 27.882 26.596c15.395 0 27.87-11.908 27.87-26.596z" class="B"/><path d="M54.545 191.903c0-14.14-12.017-25.616-26.848-25.616-14.842 0-26.858 11.475-26.858 25.616 0 14.155 12.016 25.623 26.858 25.623 14.83-.001 26.848-11.468 26.848-25.623z" class="C"/><path d="M53.705 187.724c0-14.148-12.016-25.62-26.844-25.62-14.843 0-26.86 11.47-26.86 25.62s12.018 25.615 26.86 25.615c14.828.001 26.844-11.467 26.844-25.615z" class="B"/><path d="M182.63 269.166c0-32.456-27.576-58.772-61.597-58.772-34.063 0-61.633 26.316-61.633 58.772 0 32.477 27.57 58.787 61.633 58.787 34.02.001 61.597-26.3 61.597-58.787z" class="C"/><path d="M180.705 259.57c0-32.462-27.57-58.786-61.597-58.786-34.055 0-61.633 26.324-61.633 58.786 0 32.456 27.578 58.78 61.633 58.78 34.027 0 61.597-26.323 61.597-58.78z" fill="#dbaa0e"/><path d="M242.323 206.89l48.47 34.872c1.816 2.238-12.02 36.396-13.148 39.76-11.128 33.103-35.137 30.357-33.422 36.83l-22.256-83.94s14.102-10.535 20.357-27.522z" class="C"/><path d="M186.353 345.648l27.87-14.672 19.13 57.41-33.702 16.32" stroke="#960" class="B D H"/><path d="M205.966 472.374l-25.503-129.592 3.52-1.792c18.627-9.486 49.9-26.188 54.488-30.62l7.256 7.525c-6.352 6.125-40.56 23.973-53.482 30.6l25.33 123.868h-11.6zm-149.97 0h-11L66.67 353.587c-6.865-2.837-20.284-9.377-27.54-19.583l8.52-6.057c7.816 10.993 26.382 17.27 26.568 17.333l4.284 1.427-.784 4.447zM250.012 186.73l46 19.723-1.07 11.07-47.8-24.452z" class="C"/><g stroke="#960" class="B D H"><path d="M95.872 367.84h63.668v98.955H95.872zm-32.804 36.867l10.503-54.465-22.554-6.493-15.963 47.788z"/><path d="M64.068 401.707s59.463-35.7 129.15 3l-6.866-59.06s-49.756 19.457-113.783 4.594z"/></g><path d="M273.322 248.6c-13.012-12.292-37.444-7.57-54.574 10.556s-20.458 42.8-7.453 55.1c13.034 12.306 37.472 7.58 54.602-10.542 17.122-18.123 20.456-42.8 7.425-55.104z" class="C"/><path d="M270.102 246.655c-12.345-11.665-35.504-7.173-51.743 10-16.252 17.178-19.402 40.575-7.064 52.233 12.358 11.672 35.525 7.188 51.763-10.005 16.24-17.178 19.397-40.567 7.044-52.238z" class="B"/><path d="M172.85 168.56c0-10.582 8.582-19.165 19.165-19.165a19.17 19.17 0 0 1 19.163 19.165 19.17 19.17 0 0 1-19.163 19.165 19.17 19.17 0 0 1-19.165-19.165z" fill="#f0c" stroke="#9b027e" class="D G"/><path d="M173.416 172.772c-1.15.777-.463-2.762-.463-4.212a19.17 19.17 0 0 1 19.164-19.165c8.87 0 16.334 6.03 18.52 14.205a19.29 19.29 0 0 1 .646 4.96c-.001-.001-18.24-8.998-37.867 4.212z" fill="#909"/><path d="M180.7 162.898a5.66 5.66 0 1 1 11.325 0 5.66 5.66 0 1 1-11.325 0z" class="E F"/><path d="M115.982 172.643a19.17 19.17 0 0 1 19.165-19.163 19.17 19.17 0 0 1 19.165 19.163 19.17 19.17 0 0 1-19.165 19.165c-10.58 0-19.165-8.58-19.165-19.165z" fill="#08f" stroke="#023799" class="D G"/><path d="M116.55 176.856c-1.15.777-.463-2.762-.463-4.212a19.17 19.17 0 0 1 19.165-19.163c8.866 0 16.33 6.03 18.517 14.203a19.29 19.29 0 0 1 .646 4.96c0-.001-18.24-8.998-37.865 4.212z" fill="#002699"/><path d="M123.823 166.982a5.66 5.66 0 1 1 11.324 0 5.66 5.66 0 1 1-11.324 0z" class="E F"/><circle cx="78.232" cy="180.306" r="19.164" fill="#ff1500" stroke="#9b0e02" class="G"/><path d="M59.633 184.52c-1.15.777-.463-2.763-.463-4.213a19.17 19.17 0 0 1 19.165-19.165c8.87 0 16.333 6.03 18.517 14.204.423 1.584.648 3.246.648 4.96 0 .001-18.24-8.996-37.867 4.214z" fill="#900"/><path d="M66.908 174.643a5.66 5.66 0 0 1 11.326 0 5.66 5.66 0 1 1-11.326 0z" class="E F"/><circle cx="26.837" cy="187.724" r="19.165" fill="#fd8a0b" stroke="#b4630b" class="G"/><path d="M8.237 191.937c-1.15.775-.462-2.762-.462-4.212 0-10.582 8.582-19.165 19.164-19.165 8.868 0 16.333 6.03 18.52 14.205.42 1.584.646 3.245.646 4.96 0-.001-18.24-8.998-37.867 4.212z" fill="#e0690a"/><path d="M15.513 182.06a5.66 5.66 0 1 1 11.325 0 5.66 5.66 0 1 1-11.325 0z" class="E F"/><circle cx="26.837" cy="187.724" r="19.165" fill="none" stroke="#b4630b" class="G"/><use xlink:href="#B" fill="#fcbc08" stroke="#7d5c00" class="D I"/><path d="M79.716 268.914c-2.56 1.723-1.027-6.14-1.027-9.356 0-23.5 19.056-42.556 42.555-42.556 19.695 0 36.273 13.386 41.127 31.536a42.79 42.79 0 0 1 1.436 11.02s-40.508-19.982-84.09 9.356z" fill="#cf8f07"/><path d="M95.872 246.987c0-6.955 5.623-12.576 12.57-12.576 6.955 0 12.576 5.62 12.576 12.576s-5.62 12.57-12.576 12.57c-6.948 0-12.57-5.622-12.57-12.57z" class="E F"/><g class="D"><use xlink:href="#B" fill="none" stroke="#7d5c00" class="I"/><path d="M221.966 281.52c0-12.265 9.95-22.215 22.214-22.215a22.22 22.22 0 0 1 22.215 22.215 22.22 22.22 0 0 1-22.215 22.212c-12.264 0-22.214-9.95-22.214-22.212z" fill="#22eb13" stroke="#16870c" stroke-width="6.058"/></g><path d="M222.626 286.4c-1.334.905-.537-3.198-.537-4.88a22.22 22.22 0 0 1 22.215-22.215c10.274 0 18.933 7 21.464 16.463a22.3 22.3 0 0 1 .748 5.752s-21.146-10.428-43.9 4.88z" fill="#29850b"/><path d="M231.058 274.958c0-3.634 2.934-6.566 6.56-6.566s6.562 2.933 6.562 6.566a6.56 6.56 0 1 1-13.122 0z" class="E F"/><defs ><path id="B" d="M78.457 259.558c0-23.5 19.063-42.556 42.562-42.556s42.563 19.056 42.563 42.556c0 23.506-19.063 42.563-42.563 42.563s-42.562-19.057-42.562-42.563z"/></defs></svg>