<?xml version="1.0" encoding="UTF-8" standalone="no"?>
<svg
   xmlns:dc="http://purl.org/dc/elements/1.1/"
   xmlns:cc="http://creativecommons.org/ns#"
   xmlns:rdf="http://www.w3.org/1999/02/22-rdf-syntax-ns#"
   xmlns:svg="http://www.w3.org/2000/svg"
   xmlns="http://www.w3.org/2000/svg"
   xmlns:sodipodi="http://sodipodi.sourceforge.net/DTD/sodipodi-0.dtd"
   xmlns:inkscape="http://www.inkscape.org/namespaces/inkscape"
   viewBox="0 0 262.31007 419.00084"
   version="1.1"
   id="svg1129"
   sodipodi:docname="unitGoblin.svg"
   width="262.31006"
   height="419.00085"
   inkscape:version="1.0.2-2 (e86c870879, 2021-01-15)">
  <metadata
     id="metadata1133">
    <rdf:RDF>
      <cc:Work
         rdf:about="">
        <dc:format>image/svg+xml</dc:format>
        <dc:type
           rdf:resource="http://purl.org/dc/dcmitype/StillImage" />
      </cc:Work>
    </rdf:RDF>
  </metadata>
  <sodipodi:namedview
     pagecolor="#ffffff"
     bordercolor="#666666"
     borderopacity="1"
     objecttolerance="10"
     gridtolerance="10"
     guidetolerance="10"
     inkscape:pageopacity="0"
     inkscape:pageshadow="2"
     inkscape:window-width="1920"
     inkscape:window-height="1001"
     id="namedview1131"
     showgrid="false"
     inkscape:zoom="1.9808596"
     inkscape:cx="230.12859"
     inkscape:cy="209.505"
     inkscape:window-x="-9"
     inkscape:window-y="-9"
     inkscape:window-maximized="1"
     inkscape:current-layer="svg1129" />
  <defs
     id="defs986">
    <style
       id="style984">.cls-1{fill:#15452f;}.cls-12,.cls-2,.cls-6,.cls-7,.cls-8{fill:none;}.cls-2{stroke:#6d905e;stroke-width:5px;}.cls-12,.cls-2,.cls-6,.cls-8{stroke-linecap:round;stroke-linejoin:round;}.cls-3{fill:#6d905e;}.cls-4{fill:#1e2b18;}.cls-5{fill:#d5a95c;}.cls-6{stroke:#000;}.cls-6,.cls-7{stroke-width:2px;}.cls-7{stroke:#1e2b18;stroke-miterlimit:10;}.cls-8{stroke:#15452f;stroke-width:3px;}.cls-9{fill:#a0cc89;}.cls-10{fill:#8eb37c;}.cls-11{fill:#88af6e;}.cls-12{stroke:#fcd79c;stroke-width:6px;}</style>
  </defs>
  <g
     id="Слой_2"
     data-name="Слой 2"
     transform="translate(0.00165084)">
    <g
       id="Слой_12"
       data-name="Слой 12">
      <g
         id="Слой_3"
         data-name="Слой 3">
        <path
           class="cls-1"
           d="m 133.78,10 c 0,0 -109,32 -105,140 l -2,56 103,4 z"
           id="path988" />
        <path
           class="cls-1"
           d="m 133.78,10 c 0,0 109,32 105,140 l 2,56 -103,4 z"
           id="path990" />
      </g>
      <g
         id="Слой_10"
         data-name="Слой 10">
        <path
           class="cls-2"
           d="m 193.85,53.58 c -3.6,8.61 -6.68,14.24 -13.31,20.81 -5.75,5.7 -12,11 -17.32,17 -13.33,15.23 -22.51,32.93 -29.23,51.94 a 56.36,56.36 0 0 0 -1.44,6.1"
           id="path993" />
        <path
           class="cls-2"
           d="m 74.49,52 c 3.07,13.16 11,19.44 19.9,28.8 10.22,10.69 19.12,22.44 25.61,35.76 4.26,8.74 7.77,17.84 11.6,26.79 a 21.2,21.2 0 0 1 0.71,2.35"
           id="path995" />
      </g>
      <g
         id="Слой_2-2"
         data-name="Слой 2">
        <path
           class="cls-3"
           d="M 41.7,276.2 C 31.53,279.5 27.37,276.69 26.41,266.05 25.6,257 25.2,248 24,239 c -0.57,-4.18 -2.43,-8.25 -4.13,-12.18 -1.86,-4.27 -4.74,-7.78 -9.84,-9.19 q 0.54,-11.18 1.09,-22.28 c 1.28,-25.8 6.34,-50.94 12.63,-75.93 3.2,-12.7 5.07,-25.72 2.77,-38.91 C 25.68,75.88 24,71.64 20,68.68 c 1.71,-3.57 4.91,-4.39 8.39,-2 a 18.38,18.38 0 0 1 8.29,14.62 c 0.69,12.27 1.32,24.55 1.32,36.82 0,14.06 1,27.85 6.15,41.13 1.48,3.84 2.21,8 3.61,13.19 l 18,-31.54 12.87,13.1 0.8,-0.47 c -0.4,-1 -0.57,-2.27 -1.27,-3 -2.56,-2.75 -5.5,-5.16 -7.92,-8 -2.42,-2.84 -5,-6 -6.66,-9.44 C 59,123.15 55,113 50.46,103.1 47.31,96.24 48.39,88.94 47.53,81.85 a 1.66,1.66 0 0 1 0.26,-0.89 c 6.4,-11.86 15.06,-21.85 25.35,-30.82 2.71,12 10.43,20.56 18.41,28.91 18.26,19.11 31.83,41 40,66.25 0.4,1.24 0.64,2.52 0.89,3.56 3.41,-7.92 6.54,-16.11 10.37,-24 8.44,-17.25 19.11,-32.88 33.79,-45.59 8.36,-7.24 15.45,-15.59 19.78,-27.51 6.41,8.11 12.23,15.62 18.2,23 5.71,7.07 7.24,15.06 4.53,23.51 -2.67,8.29 -6.05,16.36 -9.33,24.43 -2.22,5.44 -4.14,11.19 -7.41,16 -3.77,5.52 -8.91,10.1 -13.39,15.15 a 31.24,31.24 0 0 0 -2.48,3.72 l 1,0.87 12.5,-14.17 18.14,33.06 c 3.74,-15.21 10.37,-28.41 10,-43.29 -0.19,-6.66 -0.5,-13.35 -0.05,-20 0.72,-10.68 1.73,-21.37 3.21,-32 0.76,-5.38 4.13,-9.62 9.12,-12.18 3.17,-1.64 5.66,-0.73 7.47,2.57 -6.98,5.57 -7.89,13.48 -8.19,21.44 -0.65,16.94 3.22,33.29 6.66,49.72 5.4,25.77 6.23,51.92 5.95,78.21 -7.92,2.46 -11.08,9 -12.95,15.93 -2.14,7.86 -3.08,16.05 -4.39,24.12 -0.53,3.24 -0.37,6.59 -1,9.8 -1.84,9.35 -6.33,11.56 -15.13,7.49 -1.89,5.46 -3.67,10.93 -5.67,16.33 -6.12,16.56 -12.09,33.4 -23,47.43 -14.39,18.52 -25.36,38.76 -34.47,60.2 -0.66,1.57 -3.09,2.87 -5,3.35 -11.06,2.9 -22.34,3.12 -33.61,1.73 a 96.85,96.85 0 0 1 -13.71,-3.06 5.33,5.33 0 0 1 -3.21,-2.73 276.13,276.13 0 0 0 -32.68,-62.25 C 55.73,323.35 50,303.5 44,284 c -0.8,-2.53 -1.51,-5.09 -2.3,-7.8 z"
           id="path998" />
        <path
           class="cls-4"
           d="m 57.63,164.61 c 4.9,3.92 9.49,7.47 13.92,11.21 a 18.1,18.1 0 0 1 4.34,4.91 c 6.16,11.32 17.31,14.41 28.46,17.42 3.36,0.91 6.92,1.11 11.33,1.77 -6.22,-10.37 -12,-19.91 -17.69,-29.45 l 0.29,-0.23 c 0.34,0.38 0.73,0.73 1,1.14 6,8.15 11.89,16.36 18,24.42 a 5.41,5.41 0 0 0 3.78,1.75 c 6.87,0.18 13.76,0.17 20.63,0 a 5.36,5.36 0 0 0 3.64,-1.65 c 6.7,-8.18 13.24,-16.49 20.23,-24.47 l -20.45,29.85 c 6.28,-0.88 11.54,-1.34 16.68,-2.43 3.88,-0.82 7.53,-2.66 11.38,-3.68 6.36,-1.68 9.64,-6.77 13.5,-11.36 5.34,-6.34 11.5,-11.71 19.59,-14.93 3,7.16 6.4,14 8.42,21.25 0.57,2.05 -2.5,6.85 -4.79,7.57 -4.71,1.49 -7.33,3.15 -8.2,8.45 -0.91,5.57 -3.31,10.9 -5.21,16.29 -4.16,11.79 -13.37,16.37 -25.08,17.11 -3.55,0.22 -7.14,0 -11.84,0 6.07,4.06 9.13,10.14 16.91,10.24 4.85,0.06 9.63,2.9 14.49,4.34 a 5.82,5.82 0 0 0 3.82,0 c 12,-5.94 20.46,-15.58 27.61,-26.56 1.5,-2.3 2.82,-4.71 4.19,-7.08 1.7,-3 3.81,-5.92 -1,-8.94 3,-2.37 5.5,-4.67 8.32,-6.37 3.33,-2 5.8,-0.51 5.68,3.41 -0.27,8.92 -3.64,16.86 -9,23.78 -2.52,3.25 -6.24,5.55 -9.33,8.38 a 7.06,7.06 0 0 0 -1.84,2.76 q -17.12,49.53 -34.14,99.1 c -0.12,0.36 -0.25,0.71 -0.81,2.27 -0.49,-6.58 -0.91,-12 -1.31,-17.34 -1.57,-21.19 -3.11,-42.37 -4.77,-63.55 a 5.42,5.42 0 0 0 -1.9,-3 c -6.63,-6.1 -13.34,-12.13 -20.09,-18.24 0.36,-1.22 0.75,-2.39 1,-3.59 1.36,-5.61 -0.24,-8.9 -5.33,-11.56 -1.49,-0.78 -3.39,-1.76 -4,-3.13 -2.19,-5.27 -6.6,-7.29 -11.58,-8.73 -0.23,-1.6 -0.45,-3.16 -0.8,-5.55 v -9.82 H 126 c -0.25,4.05 -0.67,8 -0.68,11.92 0,2.36 -1.25,3.07 -3.14,3.59 -1.39,0.39 -2.72,1 -4.53,1.7 l 0.65,0.37 c -2.49,2.43 -5.18,5.07 -7.89,7.68 a 2.82,2.82 0 0 1 -0.83,0.42 c -6,2.83 -7.55,6.27 -6,12.91 a 4.43,4.43 0 0 1 -1.11,3.63 c -6.2,5.41 -12.62,10.57 -18.82,16 a 7.35,7.35 0 0 0 -2.36,4.23 c -2.82,24.13 -5.5,48.28 -8.22,72.42 -0.21,1.9 -0.44,3.81 -0.8,6.94 -2,-6.65 -3.71,-12.14 -5.36,-17.64 Q 54.11,282 41.27,239.48 a 6.61,6.61 0 0 0 -2.62,-3.25 c -7.89,-5.19 -11.82,-13 -14.47,-21.62 a 40.89,40.89 0 0 1 -1.65,-10.84 c -0.1,-3.86 2.56,-5.24 5.82,-3.1 a 83.32,83.32 0 0 1 7.59,6.32 l -3.37,4.24 c 7.55,16.3 17,31.06 33.31,40.07 a 4.8,4.8 0 0 0 3.16,0 c 5.74,-1.37 11.48,-2.8 17.18,-4.34 a 21.88,21.88 0 0 0 6.24,-2.39 93.09,93.09 0 0 0 7.85,-6.35 C 96,238 92,237.7 88.08,237.25 c -11.67,-1.33 -20,-7 -23.45,-18.63 -1.71,-5.69 -3.64,-11.38 -4.55,-17.22 -0.62,-4 -2.4,-5.66 -6,-6.56 a 7.86,7.86 0 0 1 -5.24,-11.27 c 2.81,-5.95 5.55,-11.93 8.79,-18.96 z"
           id="path1000" />
        <path
           d="m 157.1,332.29 c -1.26,-7.71 -3.64,-13.89 -11.07,-17.78 0.6,5.36 1.13,10.15 1.51,13.56 l -5.65,-5.74 -1.49,1 c -0.34,2.25 -0.68,4.5 -1,6.84 -1.45,-1.87 -2.86,-3.71 -4.89,-6.35 l -4,7.39 -3.86,-7.38 -5,6.28 c -0.31,-2.16 -0.65,-4.44 -1.14,-7.84 l -7.18,6.73 c 0.51,-4.52 1,-9.15 1.63,-14.43 -7.52,3.75 -9.75,10.06 -11.28,18.46 -2.6,-2.91 -5.48,-4.78 -6.29,-7.3 -2.72,-8.53 -5.35,-17.19 -6.79,-26 -1.55,-9.56 -1.61,-19.35 -2.59,-29 -0.27,-2.56 -1.56,-5 -2.71,-8.51 5.32,0 10.53,-0.21 15.71,0 9.7,0.46 19.13,2.22 28.05,6.28 a 4.27,4.27 0 0 0 2.83,-0.14 c 14,-4.91 28.48,-5.62 43,-5.13 -0.57,5.2 -1.21,10.11 -1.63,15 -1.22,14.22 -2.35,28.46 -7.1,42.06 a 34.64,34.64 0 0 1 -4.33,8.26 c -0.98,1.53 -2.89,2.37 -4.73,3.74 z"
           id="path1002" />
        <path
           class="cls-4"
           d="m 156.7,348.93 c 4.59,-8.37 9.72,-16.19 13.22,-24.67 2.1,-5.1 1.72,-11.23 2.37,-16.91 1.16,-10.12 2.24,-20.25 3.37,-30.38 a 3.77,3.77 0 0 1 0.7,-1.74 c -1.65,34.36 -1.08,69 -15.71,102.33 -7.18,-12.39 -16.8,-19.37 -30.46,-19.41 -13.66,-0.04 -23.4,6.82 -30.57,19.19 -2,-4.6 -4,-8.61 -5.36,-12.84 -5.75,-17.66 -7.65,-36 -9,-54.37 Q 84,292.91 84.19,275.59 q 1.25,10.94 2.49,21.88 c 1,8.48 1.82,17 2.95,25.45 0.22,1.69 1.34,3.3 2.2,4.87 3.77,6.95 7.59,13.87 11.56,21.1 a 89.19,89.19 0 0 1 53.31,0.04 z"
           id="path1004" />
        <path
           class="cls-4"
           d="m 43.83,195.27 c 0.69,-7.74 -1.95,-14.24 -7.18,-19.73 -8.58,-9 -11.4,-19.61 -9.94,-31.8 1.9,-15.83 3.42,-31.74 5.22,-48.74 -0.51,12.13 -0.77,23.17 -1.49,34.18 -0.87,13.36 0.38,26 8.46,37.44 A 32.21,32.21 0 0 1 44.39,193 c -0.17,0.78 -0.39,1.52 -0.56,2.27 z"
           id="path1006" />
        <path
           d="m 234.68,99.28 q 1.53,18.72 3.06,37.42 c 0.43,5.15 1,10.29 1.33,15.45 0.72,10.56 -2.93,19.5 -10.22,27.07 -5.28,5.48 -8.5,11.8 -7.53,19.94 -2,-3.2 -2.38,-12.11 -0.15,-17.65 a 96.42,96.42 0 0 1 7.76,-15 40.9,40.9 0 0 0 6.4,-22.28 c 0,-14.1 -0.28,-28.2 -0.42,-42.3 0,-0.91 0.08,-1.83 0.12,-2.74 z"
           id="path1008" />
        <path
           d="m 18.5,172.37 c 6.58,-0.38 14.19,7.44 16.92,16.53 a 54.28,54.28 0 0 0 -5,-5.59 c -2,-1.75 -4.11,-2.1 -5.05,1.31 -0.82,2.94 -1.87,5.81 -2.55,8.78 -0.68,2.97 -1,5.75 -2.36,8.65 -0.64,-9.84 -1.29,-19.67 -1.96,-29.68 z"
           id="path1010" />
        <path
           d="m 227.41,193.1 c 2.57,-8.47 10.66,-16.15 17.29,-15.94 q -1.55,15 -3.1,29.87 l -0.61,-0.09 c -1,-5.14 -1.81,-10.31 -3,-15.41 -0.38,-1.69 -1.58,-3.2 -2.41,-4.79 a 49.16,49.16 0 0 0 -5.33,2.94 c -1.01,0.73 -1.68,2 -2.84,3.42 z"
           id="path1012" />
        <path
           d="m 152.92,246.82 c -4.74,-1.11 -7.86,-3.07 -8.36,-8.09 L 134.48,247 c 3.09,-7.35 6.83,-12.58 13.46,-14.88 4.89,-1.7 8.82,1.94 7.71,7 a 65.4,65.4 0 0 1 -2.73,7.7 z"
           id="path1014" />
        <path
           d="m 125.52,246.28 c -1.89,-2.49 -4.71,-4 -6.74,-6.4 -0.3,-0.35 -2.26,0 -2.31,0.27 -0.84,4.24 -4.29,5 -8.32,6.25 -0.85,-3.28 -2.09,-6.35 -2.34,-9.51 -0.32,-3.95 3.26,-6.62 7.1,-5.45 7.16,2.18 10.62,7.91 13.33,14.23 -0.57,0.54 -0.14,0.07 -0.72,0.61 z"
           id="path1016" />
        <path
           d="M 130.25,267.88 C 129,261 128,255.3 127,249.64 h 7.18 c -1.18,5.62 -2.45,11.36 -3.93,18.24 z"
           id="path1018" />
        <path
           class="cls-5"
           d="m 63.71,195.83 c 1,-3.85 1.72,-8.44 3.39,-12.67 1.67,-4.23 6.06,-4.42 8.3,-0.39 8.08,14.52 21.35,21.25 36.72,24.88 1.58,0.37 3.37,-0.19 5,0 1.44,0.13 4.09,0.74 4.07,1 -0.1,2.09 -0.24,4.5 -1.35,6.12 -1.28,1.86 -3.61,3 -5.43,4.48 -2.77,2.3 -5.56,4.57 -8.2,7 a 13.93,13.93 0 0 0 -3,3.85 c -1.75,3.46 -4.44,4.72 -8.23,4.51 -14.22,-0.78 -24.91,-10 -29,-25.52 C 65,205 64.56,200.8 63.71,195.83 Z"
           id="path1020" />
        <path
           class="cls-5"
           d="m 144.23,217.57 c -3,-1.22 -4.72,-4 -3.83,-7 0.29,-1 2.32,-2.42 3,-2.17 5.44,2.08 10.64,0.13 15.36,-1.57 a 77,77 0 0 0 18,-9.42 c 4,-2.79 6.64,-7.38 10.12,-10.93 1.47,-1.5 3.6,-3.4 5.3,-3.28 1.52,0.1 3.57,2.5 4.16,4.29 3.4,10.26 1.85,20.22 -2.58,29.89 -4.43,9.67 -11.54,16.55 -22.38,18.62 a 17.8,17.8 0 0 1 -7.21,0.29 c -2.11,-0.52 -4.07,-2.14 -5.79,-3.63 a 78.65,78.65 0 0 1 -6.36,-6.42 c -2.06,-2.21 -4,-4.53 -6.11,-6.93 z"
           id="path1022" />
        <path
           class="cls-6"
           d="m 235.14,98.16 1.65,41.41"
           id="path1024" />
        <path
           class="cls-6"
           d="M 221.14,188.28 221,199.8"
           id="path1026" />
        <path
           class="cls-6"
           d="m 31.37,94.87 q -1.31,20.7 -2.59,41.41"
           id="path1028" />
        <path
           class="cls-7"
           d="m 44,185 c -0.07,2 0.27,7.46 -1.36,13.06"
           id="path1030" />
        <path
           class="cls-6"
           d="m 176.32,274.15 q -1.31,15.77 -2.59,31.53"
           id="path1032" />
        <path
           class="cls-6"
           d="m 84.08,274.62 2.58,33.88"
           id="path1034" />
        <path
           class="cls-6"
           d="m 102,233.92 c 1.46,-3.7 3,-7.23 7.5,-8.33 a 5.54,5.54 0 0 0 3.24,-2.77 c 2,-4.46 6.08,-6.43 10,-8.66"
           id="path1036" />
        <path
           class="cls-6"
           d="m 83.37,191.33 c -1.65,-2 -3.28,-3.93 -5,-5.88 -1.94,-2.28 -3.91,-4.55 -5.87,-6.82"
           id="path1038" />
        <path
           class="cls-6"
           d="m 158.9,235.8 c -1.22,-4 -2.75,-7.52 -7.25,-9.07 -1.53,-0.52 -3,-2.34 -3.73,-3.91 -1.88,-3.88 -5.4,-5.68 -8.78,-7.72"
           id="path1040" />
        <path
           class="cls-6"
           d="m 190.2,181.92 c -2.2,2.43 -4.38,4.88 -6.6,7.29 -1.46,1.6 -3,3.14 -4.46,4.71"
           id="path1042" />
        <path
           class="cls-6"
           d="m 185.37,337.91 -1.05,6.36"
           id="path1044" />
        <path
           class="cls-6"
           d="m 71.72,335.56 c 0.2,2 0.39,3.92 0.59,5.88"
           id="path1046" />
        <path
           class="cls-6"
           d="m 98.19,170.16 13.89,21.17"
           id="path1048" />
        <path
           class="cls-6"
           d="M 165.49,171.1 146.43,197"
           id="path1050" />
        <path
           class="cls-6"
           d="m 241.14,199.1 -0.35,8.7"
           id="path1052" />
        <path
           class="cls-6"
           d="m 21.13,194.86 0.35,7.77"
           id="path1054" />
        <path
           class="cls-6"
           d="m 87.13,263.92 -1.64,-0.59"
           id="path1056" />
        <path
           class="cls-6"
           d="m 138,242.63 -3.06,3.76"
           id="path1058" />
        <path
           class="cls-6"
           d="m 126,245.92 -2.82,-3.53"
           id="path1060" />
        <path
           class="cls-6"
           d="m 130.31,261.21 c 0,2 -0.08,3.92 -0.11,5.88"
           id="path1062" />
        <path
           class="cls-6"
           d="m 159.84,237.68 -1.17,2.12"
           id="path1064" />
        <path
           class="cls-6"
           d="m 30,181.22 q 2.83,4.11 5.65,8.23"
           id="path1066" />
        <path
           class="cls-6"
           d="m 232.55,186.16 -4.94,6.59"
           id="path1068" />
        <path
           class="cls-6"
           d="M 147.61,330.15 146,325"
           id="path1070" />
        <path
           class="cls-6"
           d="M 130.67,327.56 V 332"
           id="path1072" />
        <path
           class="cls-6"
           d="m 122.31,326.62 c -0.19,1.33 -0.39,2.67 -0.59,4"
           id="path1074" />
        <path
           class="cls-6"
           d="m 138.55,326.62 c 0.19,1.33 0.39,2.67 0.59,4"
           id="path1076" />
        <path
           class="cls-6"
           d="m 115.14,325.21 -1.42,4.47"
           id="path1078" />
        <path
           class="cls-6"
           d="m 101.72,240.51 1.18,-0.12"
           id="path1080" />
        <path
           class="cls-5"
           d="m 103.78,332 c 0,0 30,8 53,0 v -21 l -52,-2 z"
           id="path1082" />
        <path
           d="m 157.1,332.29 c -1.26,-7.71 -3.64,-13.89 -11.07,-17.78 0.6,5.36 1.13,10.15 1.51,13.56 l -5.65,-5.74 -1.49,1 c -0.34,2.25 -0.68,4.5 -1,6.84 -1.45,-1.87 -2.86,-3.71 -4.89,-6.35 l -4,7.39 -3.86,-7.38 -5,6.28 c -0.31,-2.16 -0.65,-4.44 -1.14,-7.84 l -7.18,6.73 c 0.51,-4.52 1,-9.15 1.63,-14.43 -7.52,3.75 -9.75,10.06 -11.28,18.46 -2.6,-2.91 -5.48,-4.78 -6.29,-7.3 -2.72,-8.53 -5.35,-17.19 -6.79,-26 -1.55,-9.56 -1.61,-19.35 -2.59,-29 -0.27,-2.56 -1.56,-5 -2.71,-8.51 5.32,0 10.53,-0.21 15.71,0 9.7,0.46 19.13,2.22 28.05,6.28 a 4.27,4.27 0 0 0 2.83,-0.14 c 14,-4.91 28.48,-5.62 43,-5.13 -0.57,5.2 -1.21,10.11 -1.63,15 -1.22,14.22 -2.35,28.46 -7.1,42.06 a 34.64,34.64 0 0 1 -4.33,8.26 c -0.98,1.53 -2.89,2.37 -4.73,3.74 z"
           id="path1084" />
        <path
           class="cls-7"
           d="m 31.78,211 c 0,0 11.22,-8.94 11.61,-17"
           id="path1086" />
        <line
           class="cls-7"
           x1="41.779999"
           y1="277"
           x2="32.779999"
           y2="215"
           id="line1088" />
        <path
           class="cls-7"
           d="m 227.39,212 c 0,0 -6.22,-5.94 -6.61,-14"
           id="path1090" />
        <line
           class="cls-7"
           x1="219.39"
           y1="279"
           x2="228.39"
           y2="219"
           id="line1092" />
      </g>
      <g
         id="Слой_7"
         data-name="Слой 7">
        <path
           class="cls-8"
           d="m 201.26,143.81 -14.12,14.58"
           id="path1095" />
        <path
           class="cls-8"
           d="m 78.9,153.69 c -2.43,-2.82 -4.77,-5.73 -7.33,-8.44 -2,-2.1 -4.2,-3.95 -6.32,-5.91"
           id="path1097" />
      </g>
      <g
         id="Слой_6"
         data-name="Слой 6">
        <path
           class="cls-9"
           d="m 125.78,200 h 10 v 41.53 a 4.47,4.47 0 0 1 -4.47,4.47 h -1.06 a 4.47,4.47 0 0 1 -4.47,-4.47 z"
           id="path1100" />
        <path
           class="cls-10"
           d="M 132.73,144.56 C 125.81,119.29 112.1,98.29 94.42,79.67 87.42,72.25 80.64,64.67 76.24,55.28 74.47,51.49 74.4,48.95 78.14,45.77 94.33,32 111.18,19.34 131,11.12 a 8.78,8.78 0 0 1 7.3,0 143.67,143.67 0 0 1 54.6,38.64 4.71,4.71 0 0 1 0.79,4 c -3.65,9.16 -9.8,16.54 -17.25,22.85 -21.1,17.88 -34.38,40.8 -43.23,66.61 -0.13,0.42 -0.3,0.85 -0.48,1.34 z"
           id="path1102" />
        <rect
           class="cls-11"
           x="125.78"
           y="200"
           width="10"
           height="17"
           id="rect1104" />
      </g>
      <g
         id="Слой_4"
         data-name="Слой 4">
        <path
           class="cls-5"
           d="m 105.16,290.54 c -2.71,-5.24 -5.09,-10.66 -7.33,-16.11 -0.41,-1 0.24,-3.5 0.76,-3.61 a 17.1,17.1 0 0 1 5.79,0.11 c 0.58,0.08 1,1.08 1.52,1.63 4.8,-1.31 9.44,-2 13.9,0.45 l 10.34,2.52 10.55,-2.6 c 4.47,-2.37 9.09,-1.78 13.92,-0.43 2.95,-3.6 5.3,-3.83 8.7,-0.77 -1.85,8.81 -4.73,17.13 -13.22,23.72 0.28,-4 0.49,-7.06 0.69,-10 0.07,0 -0.05,0 -0.13,0.09 q -2.22,2.18 -4.43,4.36 a 39.07,39.07 0 0 1 -3.51,-4.46 19.36,19.36 0 0 1 -1.4,-4 c -1.79,2.81 -3.69,5.77 -6.1,9.53 l -5,-6.63 -4.87,6.79 -6.12,-9.52 a 49.42,49.42 0 0 1 -2.54,6 c -1.74,3.1 -4.42,2.89 -6.14,-0.3 -0.33,-0.61 -0.54,-1.27 -0.91,-2.16 0.24,3.28 0.46,7.29 0.68,10.3 0.03,0.01 -2.78,-2.38 -5.15,-4.91 z"
           id="path1107" />
        <path
           class="cls-6"
           d="m 119.37,280.27 0.24,4.71"
           id="path1109" />
        <path
           class="cls-6"
           d="m 141,280.74 -0.24,4.71"
           id="path1111" />
        <path
           class="cls-6"
           d="m 130.2,283.56 v 3.53"
           id="path1113" />
        <path
           class="cls-6"
           d="m 150.9,284.51 q -1.05,2.94 -2.12,5.88"
           id="path1115" />
        <path
           class="cls-6"
           d="m 109.49,284.51 c 1.17,2.66 2.35,5.33 3.53,8"
           id="path1117" />
        <path
           class="cls-12"
           d="m 72.78,191 c 0,0 0.5,10.5 15,15"
           id="path1119" />
        <path
           class="cls-12"
           d="m 189.78,193 c 0,0 -0.5,10.5 -15,15"
           id="path1121" />
      </g>
      <g
         id="Слой_9"
         data-name="Слой 9">
        <path
           d="m 133.78,10 v 0.37 0 V 10 c 0,0 0.38,0.11 1.07,0.34 a 10.09,10.09 0 0 1 3.47,0.78 c 3.56,1.42 7,3 10.4,4.65 22.1,9.86 62.82,33.49 81,79 0.45,-4.25 0.95,-8.49 1.54,-12.71 0.76,-5.38 4.13,-9.62 9.12,-12.18 a 6.32,6.32 0 0 1 2.87,-0.8 c 1.84,0 3.38,1.14 4.6,3.37 -6.94,5.55 -7.85,13.46 -8.15,21.42 -0.65,16.94 3.22,33.29 6.66,49.72 5.4,25.77 6.23,51.92 5.95,78.21 -7.92,2.46 -11.08,9 -12.95,15.93 -2.14,7.86 -3.08,16.05 -4.39,24.12 -0.53,3.24 -0.37,6.59 -1,9.8 -1.25,6.39 -3.75,9.44 -8,9.44 a 17.64,17.64 0 0 1 -7.13,-1.95 c -1.89,5.46 -3.67,10.93 -5.67,16.33 -6.12,16.56 -12.09,33.4 -23,47.43 -14.39,18.52 -25.36,38.76 -34.47,60.2 -0.66,1.57 -3.09,2.87 -5,3.35 a 81,81 0 0 1 -20.6,2.55 106.35,106.35 0 0 1 -12.95,-0.83 96.85,96.85 0 0 1 -13.71,-3.06 5.33,5.33 0 0 1 -3.21,-2.73 276.13,276.13 0 0 0 -32.68,-62.25 C 55.73,323.35 50,303.5 44,284 c -0.78,-2.54 -1.49,-5.1 -2.28,-7.81 a 22.45,22.45 0 0 1 -6.77,1.3 c -5.35,0 -7.81,-3.58 -8.52,-11.45 C 25.6,257 25.2,248 24,239 c -0.57,-4.18 -2.43,-8.25 -4.13,-12.18 -1.86,-4.27 -4.74,-7.78 -9.84,-9.19 q 0.54,-11.18 1.09,-22.28 c 1.28,-25.8 6.34,-50.94 12.63,-75.93 3.2,-12.7 5.07,-25.72 2.77,-38.91 C 25.68,75.88 24,71.64 20,68.68 c 1.06,-2.2 2.68,-3.36 4.58,-3.36 a 6.84,6.84 0 0 1 3.81,1.37 18.38,18.38 0 0 1 8.29,14.62 c 0.26,4.83 0.51,9.67 0.72,14.5 C 62.69,30.88 133.78,10 133.78,10 m 0,-10 A 9.77,9.77 0 0 0 131,0.41 c -0.78,0.23 -19.38,5.78 -41.26,19.72 -19.88,12.66 -36.1,28.27 -47.92,46 a 29.69,29.69 0 0 0 -7.67,-7.61 16.7,16.7 0 0 0 -9.49,-3.15 c -5.8,0 -10.89,3.38 -13.6,9 a 10,10 0 0 0 3,12.32 c 0.92,0.7 2,1.9 2.6,5.57 1.74,10 0.93,20.68 -2.61,34.74 C 8.77,137.84 2.56,165.53 1.1,194.87 q -0.38,7.62 -0.74,15.25 l -0.35,7 a 10,10 0 0 0 7.32,10.12 c 1.08,0.3 2.14,0.8 3.33,3.54 l 0.32,0.73 c 1.41,3.23 2.73,6.27 3.08,8.83 0.78,5.67 1.21,11.38 1.66,17.42 0.22,3 0.45,6.08 0.73,9.14 1.55,17.61 11.89,20.5 18.14,20.6 l 0.76,2.46 c 5.85,19 11.9,38.71 24,55.94 a 264.63,264.63 0 0 1 31.5,60 15.3,15.3 0 0 0 9.92,8.85 105.07,105.07 0 0 0 15.13,3.35 116.51,116.51 0 0 0 14.18,0.9 91.71,91.71 0 0 0 23.2,-2.88 c 2,-0.54 8.92,-2.78 11.61,-9.12 9.67,-22.73 20.51,-41.7 33.16,-58 11.39,-14.66 17.65,-31.61 23.7,-48 l 0.78,-2.1 c 1,-2.62 1.89,-5.26 2.78,-7.86 H 226 c 5.36,0 14.82,-2.28 17.81,-17.51 a 47.51,47.51 0 0 0 0.73,-6.54 c 0.09,-1.32 0.17,-2.57 0.33,-3.59 0.32,-1.94 0.61,-3.89 0.9,-5.84 A 154.16,154.16 0 0 1 249,240.35 c 1.93,-7.11 4.15,-8.35 6.26,-9 a 10,10 0 0 0 7,-9.44 c 0.25,-24 -0.28,-52.3 -6.16,-80.37 -0.3,-1.46 -0.61,-2.92 -0.92,-4.39 -3.13,-14.76 -6.08,-28.7 -5.53,-42.89 0.31,-8.2 1.37,-11.58 4.35,-13.94 a 10,10 0 0 0 2.56,-12.64 c -3,-5.44 -7.85,-8.57 -13.37,-8.57 a 16.09,16.09 0 0 0 -7.4,1.89 28.13,28.13 0 0 0 -8.74,6.91 C 205.39,34.27 172.73,15.56 153,6.72 149.34,4.91 145.66,3.27 142.05,1.83 A 20.35,20.35 0 0 0 136.8,0.47 h -0.15 A 10,10 0 0 0 133.78,0 Z m 0,20 z"
           id="path1124" />
      </g>
    </g>
  </g>
</svg>
