<?xml version="1.0" encoding="UTF-8" standalone="no"?>
<svg
   xmlns:dc="http://purl.org/dc/elements/1.1/"
   xmlns:cc="http://creativecommons.org/ns#"
   xmlns:rdf="http://www.w3.org/1999/02/22-rdf-syntax-ns#"
   xmlns:svg="http://www.w3.org/2000/svg"
   xmlns="http://www.w3.org/2000/svg"
   xmlns:sodipodi="http://sodipodi.sourceforge.net/DTD/sodipodi-0.dtd"
   xmlns:inkscape="http://www.inkscape.org/namespaces/inkscape"
   viewBox="0 0 262.31007 419.00084"
   version="1.1"
   id="svg1157"
   sodipodi:docname="unitGoblinBack.svg"
   width="262.31006"
   height="419.00085"
   inkscape:version="1.0.2-2 (e86c870879, 2021-01-15)">
  <metadata
     id="metadata1163">
    <rdf:RDF>
      <cc:Work
         rdf:about="">
        <dc:format>image/svg+xml</dc:format>
        <dc:type
           rdf:resource="http://purl.org/dc/dcmitype/StillImage" />
      </cc:Work>
    </rdf:RDF>
  </metadata>
  <defs
     id="defs1161" />
  <sodipodi:namedview
     pagecolor="#ffffff"
     bordercolor="#666666"
     borderopacity="1"
     objecttolerance="10"
     gridtolerance="10"
     guidetolerance="10"
     inkscape:pageopacity="0"
     inkscape:pageshadow="2"
     inkscape:window-width="1920"
     inkscape:window-height="1001"
     id="namedview1159"
     showgrid="false"
     inkscape:zoom="1.9808596"
     inkscape:cx="131.18164"
     inkscape:cy="209.505"
     inkscape:window-x="-9"
     inkscape:window-y="-9"
     inkscape:window-maximized="1"
     inkscape:current-layer="svg1157" />
  <g
     id="Слой_2"
     data-name="Слой 2"
     transform="translate(0.00165084)">
    <g
       id="Слой_13"
       data-name="Слой 13">
      <path
         d="m 130.1,414 a 110.42,110.42 0 0 1 -13.56,-0.87 101.67,101.67 0 0 1 -14.43,-3.2 10.3,10.3 0 0 1 -6.56,-5.79 A 269.43,269.43 0 0 0 63.46,343 C 51.8,326.42 45.86,307.13 40.13,288.47 l -0.93,-3 c -0.33,-1.08 -0.65,-2.16 -1,-3.26 a 20.51,20.51 0 0 1 -3.3,0.28 c -8,0 -12.54,-5.38 -13.5,-16 -0.27,-3 -0.5,-6.1 -0.72,-9.07 -0.44,-5.85 -0.89,-11.9 -1.69,-17.73 -0.45,-3.24 -2,-6.75 -3.46,-10.15 l -0.31,-0.72 c -1.55,-3.57 -3.58,-5.53 -6.59,-6.36 A 5,5 0 0 1 5,217.4 c 0,0 0.84,-17.21 1.09,-22.28 1.43,-28.9 7.58,-56.28 12.77,-76.91 3.73,-14.78 4.56,-26.13 2.69,-36.82 -0.73,-4.23 -2.13,-6.91 -4.52,-8.71 a 5,5 0 0 1 -1.51,-6.16 c 1.89,-3.94 5.2,-6.2 9.09,-6.2 a 11.62,11.62 0 0 1 6.65,2.26 23.32,23.32 0 0 1 9.82,14 c 14.37,-25 35.08,-41.95 51.3,-52.29 21.28,-13.56 39.23,-18.92 40,-19.14 a 5.22,5.22 0 0 1 1.41,-0.2 5,5 0 0 1 1.44,0.21 l 0.57,0.18 a 15.11,15.11 0 0 1 4.38,1.09 c 3.52,1.4 7.11,3 10.68,4.76 20.55,9.19 55.55,29.38 76.29,66.55 a 21.45,21.45 0 0 1 10.94,-12.33 11.29,11.29 0 0 1 5.16,-1.35 c 2.13,0 6.14,0.78 9,6 a 5,5 0 0 1 -1.28,6.32 c -4.82,3.82 -5.91,9.15 -6.24,17.66 -0.57,14.81 2.44,29.05 5.63,44.12 l 0.93,4.39 c 5.78,27.6 6.3,55.57 6.05,79.28 a 5,5 0 0 1 -3.52,4.73 c -4.82,1.49 -7.61,5.1 -9.61,12.46 a 156.23,156.23 0 0 0 -3.38,17.82 c -0.29,1.94 -0.58,3.87 -0.9,5.79 -0.2,1.26 -0.29,2.63 -0.38,4.07 a 45,45 0 0 1 -0.64,5.9 c -2.19,11.13 -8.23,13.47 -12.91,13.47 v 0 a 16.5,16.5 0 0 1 -4,-0.53 l -0.12,0.33 c -1.26,3.71 -2.56,7.55 -3.95,11.31 l -0.78,2.12 c -5.92,16 -12,32.61 -23,46.65 -12.92,16.62 -24,35.95 -33.82,59.09 -1.84,4.34 -7.22,5.95 -8.28,6.23 A 86.74,86.74 0 0 1 130.1,414 Z"
         id="path1151" />
      <path
         d="m 133.78,10 v 0.37 0 V 10 c 0,0 0.38,0.11 1.07,0.34 a 10.09,10.09 0 0 1 3.47,0.78 c 3.56,1.42 7,3 10.4,4.65 22.1,9.86 62.82,33.49 81,79 0.45,-4.25 0.95,-8.49 1.54,-12.71 0.76,-5.38 4.13,-9.62 9.12,-12.18 a 6.32,6.32 0 0 1 2.87,-0.8 c 1.84,0 3.38,1.14 4.6,3.37 -6.94,5.55 -7.85,13.46 -8.15,21.42 -0.65,16.94 3.22,33.29 6.66,49.72 5.4,25.77 6.23,51.92 5.95,78.21 -7.92,2.46 -11.08,9 -12.95,15.93 -2.14,7.86 -3.08,16.05 -4.39,24.12 -0.53,3.24 -0.37,6.59 -1,9.8 -1.25,6.39 -3.75,9.44 -8,9.44 a 17.64,17.64 0 0 1 -7.13,-1.95 c -1.89,5.46 -3.67,10.93 -5.67,16.33 -6.12,16.56 -12.09,33.4 -23,47.43 -14.39,18.52 -25.36,38.76 -34.47,60.2 -0.66,1.57 -3.09,2.87 -5,3.35 a 81,81 0 0 1 -20.6,2.55 106.35,106.35 0 0 1 -12.95,-0.83 96.85,96.85 0 0 1 -13.71,-3.06 5.33,5.33 0 0 1 -3.21,-2.73 276.13,276.13 0 0 0 -32.68,-62.25 C 55.73,323.35 50,303.5 44,284 c -0.78,-2.54 -1.49,-5.1 -2.28,-7.81 a 22.45,22.45 0 0 1 -6.77,1.3 c -5.35,0 -7.81,-3.58 -8.52,-11.45 C 25.6,257 25.2,248 24,239 c -0.57,-4.18 -2.43,-8.25 -4.13,-12.18 -1.86,-4.27 -4.74,-7.78 -9.84,-9.19 q 0.54,-11.18 1.09,-22.28 c 1.28,-25.8 6.34,-50.94 12.63,-75.93 3.2,-12.7 5.07,-25.72 2.77,-38.91 C 25.68,75.88 24,71.64 20,68.68 c 1.06,-2.2 2.68,-3.36 4.58,-3.36 a 6.84,6.84 0 0 1 3.81,1.37 18.38,18.38 0 0 1 8.29,14.62 c 0.26,4.83 0.51,9.67 0.72,14.5 C 62.69,30.88 133.78,10 133.78,10 m 0,-10 A 9.77,9.77 0 0 0 131,0.41 c -0.78,0.23 -19.38,5.78 -41.26,19.72 -19.88,12.66 -36.1,28.27 -47.92,46 a 29.69,29.69 0 0 0 -7.67,-7.61 16.7,16.7 0 0 0 -9.49,-3.15 c -5.8,0 -10.89,3.38 -13.6,9 a 10,10 0 0 0 3,12.32 c 0.92,0.7 2,1.9 2.6,5.57 1.74,10 0.93,20.68 -2.61,34.74 C 8.77,137.84 2.56,165.53 1.1,194.87 q -0.38,7.62 -0.74,15.25 l -0.35,7 a 10,10 0 0 0 7.32,10.12 c 1.08,0.3 2.14,0.8 3.33,3.54 l 0.32,0.73 c 1.41,3.23 2.73,6.27 3.08,8.83 0.78,5.67 1.21,11.38 1.66,17.42 0.22,3 0.45,6.08 0.73,9.14 1.55,17.61 11.89,20.5 18.14,20.6 l 0.76,2.46 c 5.85,19 11.9,38.71 24,55.94 a 264.63,264.63 0 0 1 31.5,60 15.3,15.3 0 0 0 9.92,8.85 105.07,105.07 0 0 0 15.13,3.35 116.51,116.51 0 0 0 14.18,0.9 91.71,91.71 0 0 0 23.2,-2.88 c 2,-0.54 8.92,-2.78 11.61,-9.12 9.67,-22.73 20.51,-41.7 33.16,-58 11.39,-14.66 17.65,-31.61 23.7,-48 l 0.78,-2.1 c 1,-2.62 1.89,-5.26 2.78,-7.86 H 226 c 5.36,0 14.82,-2.28 17.81,-17.51 a 47.51,47.51 0 0 0 0.73,-6.54 c 0.09,-1.32 0.17,-2.57 0.33,-3.59 0.32,-1.94 0.61,-3.89 0.9,-5.84 A 154.16,154.16 0 0 1 249,240.35 c 1.93,-7.11 4.15,-8.35 6.26,-9 a 10,10 0 0 0 7,-9.44 c 0.25,-24 -0.28,-52.3 -6.16,-80.37 -0.3,-1.46 -0.61,-2.92 -0.92,-4.39 -3.13,-14.76 -6.08,-28.7 -5.53,-42.89 0.31,-8.2 1.37,-11.58 4.35,-13.94 a 10,10 0 0 0 2.56,-12.64 c -3,-5.44 -7.85,-8.57 -13.37,-8.57 a 16.09,16.09 0 0 0 -7.4,1.89 28.13,28.13 0 0 0 -8.74,6.91 C 205.39,34.27 172.73,15.56 153,6.72 149.34,4.91 145.66,3.27 142.05,1.83 A 20.35,20.35 0 0 0 136.8,0.47 h -0.15 A 10,10 0 0 0 133.78,0 Z m 0,20 z"
         id="path1153" />
    </g>
  </g>
</svg>
