<?xml version="1.0" encoding="UTF-8" standalone="no"?>
<svg
   xmlns:dc="http://purl.org/dc/elements/1.1/"
   xmlns:cc="http://creativecommons.org/ns#"
   xmlns:rdf="http://www.w3.org/1999/02/22-rdf-syntax-ns#"
   xmlns:svg="http://www.w3.org/2000/svg"
   xmlns="http://www.w3.org/2000/svg"
   xmlns:sodipodi="http://sodipodi.sourceforge.net/DTD/sodipodi-0.dtd"
   xmlns:inkscape="http://www.inkscape.org/namespaces/inkscape"
   viewBox="0 0 180.6062 188.59895"
   version="1.1"
   id="svg141"
   sodipodi:docname="venomSkin.svg"
   width="180.6062"
   height="188.59895"
   inkscape:version="1.0.2-2 (e86c870879, 2021-01-15)">
  <metadata
     id="metadata145">
    <rdf:RDF>
      <cc:Work
         rdf:about="">
        <dc:format>image/svg+xml</dc:format>
        <dc:type
           rdf:resource="http://purl.org/dc/dcmitype/StillImage" />
      </cc:Work>
    </rdf:RDF>
  </metadata>
  <sodipodi:namedview
     pagecolor="#ffffff"
     bordercolor="#666666"
     borderopacity="1"
     objecttolerance="10"
     gridtolerance="10"
     guidetolerance="10"
     inkscape:pageopacity="0"
     inkscape:pageshadow="2"
     inkscape:window-width="750"
     inkscape:window-height="480"
     id="namedview143"
     showgrid="false"
     inkscape:zoom="4.400615"
     inkscape:cx="90.308125"
     inkscape:cy="94.30407"
     inkscape:window-x="0"
     inkscape:window-y="0"
     inkscape:window-maximized="0"
     inkscape:current-layer="svg141" />
  <defs
     id="defs115">
    <style
       id="style113">.cls-1,.cls-4{fill:#3d394a;}.cls-1,.cls-5,.cls-6,.cls-7,.cls-8{stroke:#000;}.cls-1,.cls-7,.cls-8{stroke-miterlimit:10;}.cls-1,.cls-8{stroke-width:3px;}.cls-2{fill:#312a3c;}.cls-3{fill:#26232e;}.cls-5,.cls-6{fill:#fff;stroke-linecap:round;stroke-linejoin:round;}.cls-5{stroke-width:2px;}.cls-6{stroke-width:1.82px;}.cls-7{fill:#54090e;stroke-width:2.07px;}.cls-8{fill:#8c1b2b;}</style>
  </defs>
  <g
     id="Слой_2"
     data-name="Слой 2"
     transform="translate(0.00812225,-9.3035419e-4)">
    <g
       id="Слой_9"
       data-name="Слой 9">
      <path
         class="cls-1"
         d="m 91.71,167.63 c 1.77,-0.73 3.51,-1.59 5.24,-2.47 2.77,-1.4 5.57,-2.59 8.35,-3.93 a 65.07,65.07 0 0 0 10.7,-6.44 57.34,57.34 0 0 0 12.73,-12.94 32.33,32.33 0 0 0 3.58,-6.11 c 9.91,-18.73 8.26,-53.06 8.26,-53.06 0.49,-10.38 0.84,-22.13 -1.68,-32.21 -9.51,-38 -45,-50.34 -73.3,-48.85 C 40.64,2.94 11.65,18 3.53,50.47 1,60.55 1.36,72.3 1.84,82.68 c 0,0 -1.65,34.33 8.26,53.06 a 48.51,48.51 0 0 0 4,6.41 60.82,60.82 0 0 0 14,13.4 67.3,67.3 0 0 0 10.72,6.09 c 3.57,1.63 7.2,3 10.8,4.52 9.51,4 19.39,6.44 29.48,4.93 a 77.74,77.74 0 0 0 9.06,-2.23 30.27,30.27 0 0 0 3.55,-1.23 z"
         id="path117" />
      <path
         class="cls-2"
         d="m 4.32,60.86 c 0,0 4.96,-41.86 60.28,-48.11 0,0 47.07,-4.19 65.24,26.15 0,0 13.87,13.59 9.74,61.71 -1.52,17.69 -4.41,31.88 -14.81,44 -23.38,27.19 -69.8,28.84 -96.6,10.31 -3.82,-2.64 -6.61,-5.77 -9.87,-9.44 C 5.83,131.46 0.54,101.44 4.32,60.86 Z"
         id="path119" />
      <path
         class="cls-3"
         d="m 139.75,94.06 c -1.44,20.86 -2.43,36.81 -12.71,47.89 -4.83,5.2 -10.46,10.87 -16.36,14.84 a 91,91 0 0 1 -36.09,13.73 c -1.15,0.17 -2.3,0.73 -3.44,0.56 C 49.87,168 31.62,159 19.86,146.36 8.1,133.72 2.69,116.1 3.5,94.06 5,54.25 34,21.9 71.62,21.9 c 37.62,0 70.86,32.42 68.13,72.16 z"
         id="path121" />
      <ellipse
         class="cls-4"
         cx="100.11"
         cy="16.809999"
         rx="7.1100001"
         ry="9.1000004"
         transform="rotate(-73.87,100.106,16.816795)"
         id="ellipse123" />
      <path
         class="cls-5"
         d="m 65.43,106.39 c 0,0 3.3,7.13 -2.48,15.27 0,0 -18.17,-5.09 -37.16,-23.41 C 6.8,79.93 12.58,68.73 12.58,68.73 c 0,0 5,-18.33 21.47,-30.54 0,0 -9.08,6.11 -5.78,19.34 l 1.48,9.16 3.81,-10.18 c 0,0 8.75,15.27 12,23.42 q 2.05,5.91 4.08,11.86 c 1.07,3.14 8.18,30.08 13.26,21.73 0.1,0 2.53,-4.07 2.53,-7.13 z"
         id="path125" />
      <path
         class="cls-5"
         d="m 75.45,106.39 c 0,0 -3.3,7.13 2.48,15.27 0,0 18.16,-5.09 37.16,-23.41 19,-18.32 13.21,-29.52 13.21,-29.52 0,0 -5,-18.33 -21.47,-30.54 0,0 9.08,6.11 5.78,19.34 l -1.48,9.16 -3.82,-10.18 c 0,0 -8.74,15.27 -12,23.42 q -2.05,5.91 -4.08,11.86 c -1.07,3.14 -8.18,30.08 -13.26,21.73 -0.04,0 -2.52,-4.07 -2.52,-7.13 z"
         id="path127" />
      <path
         class="cls-6"
         d="m 50.56,160.54 c 0,0 5.78,6 11.56,3 0,0 5.79,4 9.91,1 0,0 6.61,1 9.91,-2"
         id="path129" />
      <path
         class="cls-7"
         d="m 19.08,106.15 a 10.06,10.06 0 0 0 -5.26,-1.42 1.22,1.22 0 0 0 -1.08,0.52 2.56,2.56 0 0 0 -0.2,1.16 c -0.08,10 1.22,21.21 6.56,29 3,4.35 7.16,7.44 10.8,10.73 2.54,2.3 5.27,6.42 8,8.18 7.78,4.94 16.31,10 25,10.25 a 42.3,42.3 0 0 0 9,-0.75 h 0.28 c 2.45,-0.09 37.32,-6 45.28,-22.52 a 26.73,26.73 0 0 1 2.46,-3.21 56.92,56.92 0 0 0 5.29,-9.49 c 3,-6.75 6.07,-16.8 3.76,-24.55 -0.75,-2.5 -3.3,-3 -4.64,-1 -2.95,4.5 -6.12,8.74 -10,11.91 -7.88,6.41 -17.6,14.2 -26.5,17.39 a 59.41,59.41 0 0 1 -18.08,3.52 C 50.92,136.5 34.15,122.03 19.9,106.77 a 3.72,3.72 0 0 0 -0.82,-0.62 z"
         id="path131" />
      <path
         class="cls-6"
         d="m 115,147.54 c 0,0 1.66,-9 -2.47,-11 0,0 -3.31,9 -3.31,12 0,0 0,-6 -3.3,-8 l -3.3,12 c 0,0 -0.83,-7 -4.13,-8 0,0 -6.61,13 -6.61,15 0,0 1.65,-11 -3.3,-12 l -6.61,12 c 0,0 0.83,-9 -4.13,-12 0,0 -3.3,5 -5.78,15 0,0 -1.65,-4 -5.78,-16 0,0 -6.6,1 -5,15 0,0 -5,-15 -7.43,-16 0,0 -4.13,-1 -4.13,12 0,0 -4.13,-11 -7.43,-15 0,0 -5,2 -4.13,10 0,0 0.16,-12.86 -6.53,-16.93 0,0 -2.56,0.93 -2.56,9.93 0,0 -0.49,-13.13 -4.37,-15.56 -0.65,-0.41 -2.57,3.91 -2.71,4.34 a 16.35,16.35 0 0 0 0.87,10.86 4.21,4.21 0 0 0 1.83,1.92 c 0.46,0.25 4.45,0.77 4.38,0.44 0,0 1.66,10 9.09,8 0,0 5,7 12.38,5 0,0 5.78,6 11.56,3 0,0 5.79,4 9.91,1 0,0 6.61,1 9.91,-2 0,0 3.31,3 9.91,-1 0,0 6.61,-1 9.91,-5 0,0 4.13,0 6.61,-5 0.02,0 4.15,1 6.65,-4 z"
         id="path133" />
      <path
         class="cls-8"
         d="m 81.73,133.18 c -5.78,-5.68 -16.43,-4.27 -22.48,0.23 -7,5.15 -7.42,14.29 -6.69,22.26 0.73,7.97 2.53,16 7.89,21.77 10.56,11.36 30.54,11 44.33,7.49 14.92,-3.82 28,-13 38.49,-24 5.45,-5.75 12.85,-15.24 21.45,-13.69 12.54,2.28 14.19,13 14.19,13 0,0 3.42,-19.29 -18.75,-23.76 a 29.12,29.12 0 0 0 -24.43,6.68 c -3.26,2.9 -6,6.3 -9.15,9.37 a 42.64,42.64 0 0 1 -37.65,11.75 c -1.51,-0.3 -3.14,-0.76 -4.05,-2 A 5.88,5.88 0 0 1 84,159 c -0.16,-4.12 0.86,-8.19 1.29,-12.3 0.43,-4.11 0.18,-8.53 -2.21,-11.9 a 11.62,11.62 0 0 0 -1.35,-1.62 z"
         id="path135" />
      <path
         class="cls-6"
         d="m 16.71,111.54 v -5 c 0,0 2.48,-9 5.78,3 l 0.82,4 c 0,0 5.78,-3 10.74,8 0,0 6.6,-4 9.91,3 a 13.32,13.32 0 0 1 11.56,5 c 0,0 8.08,-4 12.21,2 0,0 4.3,-7 12.56,-1 0,0 1.65,-8 10.74,-4 0,0 4.13,-7 9.91,-3 0,0 -0.83,-10 8.25,-7 0,0 1.66,-8 5.78,-4 0,0 2.48,-9 6.61,-4 0,0 0.83,14 -3.3,16 0,0 -1.65,0 -2.48,-10 0,0 0,12 -4.13,14 0,0 -1.65,-1 -2.48,-11 0,0 -0.82,15 -5,19 0,0 -3.3,0 -3.3,-11 0,0 0.82,9 -4.13,14 a 13.85,13.85 0 0 1 -5.78,-10 c 0,0 -1.65,12 -5.78,14 a 28.92,28.92 0 0 1 -5,-11 c 0,0 -4.13,15 -7.43,15 0,0 -5,-4 -5,-14 0,0 -4.13,15 -6.61,14 0,0 -5.78,-5 -6.61,-16 0,0 -1.65,13 -6.6,14 0,0 -5.78,-2 -5,-18 0,0 -1.65,11 -5,13 0,0 -4.13,-2 -5,-19 0,0 -0.82,13 -3.3,12 0,0 -6.61,-3 -6.61,-18 0,0 0,8 -1.65,8 0.27,0 -5.51,-8 -4.68,-12 z"
         id="path137" />
    </g>
  </g>
</svg>
