<?xml version="1.0" encoding="UTF-8" standalone="no"?>
<svg
   xmlns:dc="http://purl.org/dc/elements/1.1/"
   xmlns:cc="http://creativecommons.org/ns#"
   xmlns:rdf="http://www.w3.org/1999/02/22-rdf-syntax-ns#"
   xmlns:svg="http://www.w3.org/2000/svg"
   xmlns="http://www.w3.org/2000/svg"
   xmlns:sodipodi="http://sodipodi.sourceforge.net/DTD/sodipodi-0.dtd"
   xmlns:inkscape="http://www.inkscape.org/namespaces/inkscape"
   version="1.1"
   id="Слой_1"
   x="0px"
   y="0px"
   viewBox="0 0 179.4934 187.31283"
   xml:space="preserve"
   sodipodi:docname="venomSkinBack.svg"
   width="179.49341"
   height="187.31284"
   inkscape:version="1.0.2-2 (e86c870879, 2021-01-15)"><metadata
   id="metadata179"><rdf:RDF><cc:Work
       rdf:about=""><dc:format>image/svg+xml</dc:format><dc:type
         rdf:resource="http://purl.org/dc/dcmitype/StillImage" /></cc:Work></rdf:RDF></metadata><defs
   id="defs177" /><sodipodi:namedview
   pagecolor="#ffffff"
   bordercolor="#666666"
   borderopacity="1"
   objecttolerance="10"
   gridtolerance="10"
   guidetolerance="10"
   inkscape:pageopacity="0"
   inkscape:pageshadow="2"
   inkscape:window-width="750"
   inkscape:window-height="480"
   id="namedview175"
   showgrid="false"
   inkscape:zoom="4.4008482"
   inkscape:cx="89.710065"
   inkscape:cy="93.530724"
   inkscape:window-x="0"
   inkscape:window-y="0"
   inkscape:window-maximized="0"
   inkscape:current-layer="Слой_1" />
<style
   type="text/css"
   id="style170">
	.st0{fill:#272038;stroke:#000000;stroke-width:1.82;stroke-linecap:round;stroke-linejoin:round;}
</style>
<path
   class="st0"
   d="m 159.61006,135.73072 c -8.7,-1.6 -17.7,0.8 -24.4,6.7 -3.3,2.9 -6,6.3 -9.2,9.4 -7.8,7.8 -18.3,12.2 -29.199998,12.4 2.6,-1.3 5.299998,-2.4 7.899998,-3.7 3.8,-1.8 7.3,-4 10.7,-6.4 4.9,-3.6 9.2,-8 12.7,-12.9 1.4,-1.9 2.6,-3.9 3.6,-6.1 9.9,-18.7 8.3,-53.099999 8.3,-53.099999 0.5,-10.4 0.8,-22.1 -1.7,-32.2 -9.5,-38 -44.999998,-50.29999976 -73.299998,-48.7999998 -25,1.1 -53.9,16.1999998 -62.1,48.6999998 -2.5,10.1 -2.1,21.8 -1.7,32.2 0,0 -1.7,34.299999 8.3,53.099999 1.2,2.2 2.5,4.4 4,6.4 3.9,5.2 8.6,9.7 14,13.4 3.4,2.4 7,4.4 10.7,6.1 3.6,1.6 7.2,3 10.8,4.5 1.8,0.8 3.6,1.5 5.5,2.1 1.2,3.4 2.9,6.5 5.4,9.2 10.6,11.4 30.5,11 44.299998,7.5 14.9,-3.8 28,-13 38.5,-24 5.5,-5.8 12.8,-15.2 21.5,-13.7 12.5,2.3 14.2,13 14.2,13 0,0 3.3,-19.4 -18.8,-23.8 z"
   id="path172" />
</svg>
