<svg xmlns="http://www.w3.org/2000/svg" width="322.52" height="424.64"><path d="M322.52 424.644l-.1-1.796-.01-.182c-2.42-42.1-16.5-199.284-21.214-251.465-.25-7.163-.935-19.742-2.8-34.684-.614-5.658-1.42-11.07-2.396-16.248-4.195-24.516-11.688-51.983-25.06-71.793-.01-.013-.018-.025-.026-.038l-1.322-1.905-.252-.355-1.188-1.605-.338-.45c-.498-.65-1.003-1.29-1.517-1.92 0 0-46.388-42.204-106.014-42.204v.493C100.657.493 54.27 42.697 54.27 42.697 19.78 84.9 19.23 177.635 19.23 177.635l.025 3.85.07 3.64.11 3.494.1 2.36L0 424.5h160.284v.133H322.52z" fill="#727272"/></svg>