<svg xmlns="http://www.w3.org/2000/svg" width="326.66" height="428.78"><style><![CDATA[.B{fill:#231f20}.C{fill:#c29a80}.D{fill:#ddb50e}.E{fill:#e6c1a1}.F{fill:#dbdbdb}]]></style><g fill="#afafaf"><path d="M301.73 156.3l22.86 270.4H162.36V7.94s133.9-5.38 139.37 148.37"/><path d="M24.93 156.17L2.07 426.58H164.3V7.8S30.4 2.42 24.93 156.17"/></g><path d="M275.06 191.93c1.86-11.48 4.1-22.94 2.72-34.4-2.48-20.56-15.14-38.14-23.78-57.12-7.14-15.7-25.5-32.07-39.95-40.83-14.8-8.97-32.1-13.66-49.34-14.4-23.66-1-44.74 7.16-63.77 20.74-3.82 2.73-6.87 5.9-10.32 8.94-.01.01-34.82 26.14-41.53 84.5-1.52 13.26 2 26.33 2.28 39.55.26 12.76-2.87 25.3-2.53 38.13.46 17.22 5.58 33.92 7.15 51.04 1.55 16.95 2.68 31.65 10.13 47.27 8.72 18.28 26.4 33.9 40.53 48.2 10.78 10.93 20.04 16.2 31.55 16.76 17.03.82 9.22 1.97 25.08 1.23 14.75-.68 24.95.66 37.32-6.44 31.62-18.14 58.4-48.2 65.06-84.68 2.92-15.95 3.14-29.7 6.27-45.67 2.75-14.04 4.1-28.4 1.8-42.6-1.64-10.1-.3-20.16 1.34-30.2z" class="E"/><path d="M122.9 333c3.66-1.7 7.52-3 11.38-4.2a95.8 95.8 0 0 1 11.15-2.65c5.48-1 8.8.05 13.8 1.98 2.52.98 4.42 1.22 6.9.1 4.26-1.92 7.7-2.9 12.38-2.6 8.24.56 16.16 4.07 24.16 5.88 2.6.6 3.7-3.4 1.1-4-7.92-1.8-15.6-4.96-23.72-5.86-3.8-.42-7.35-.42-10.98.8-2.3.77-4.8 2.74-7.4 2.1-1.88-.46-3.7-1.38-5.5-2.1-7.12-2.8-16 .27-22.98 2.3a87.1 87.1 0 0 0-12.37 4.6c-2.42 1.13-.3 4.7 2.1 3.57z" class="B"/><g class="C"><path d="M74.8 203s-5.3 21.2 20.05 30.57c0 0 23.96 7.2 40.52-17.43 0 0-40.16 9.3-60.57-13.15zm69.32 156.63s26.17-4.36 37.8 0l-8.72-13.73-20.32.76z"/><path d="M131.25 220.28s8.7-9.05 13.17-22.7c0 0-60.44-36.9-84-18.65 0 0-2.3 15.58 7.77 25.74 0 0 43.48 30.2 63.06 15.63z"/></g><path d="M165.04 394.46l.12-9.9c.03-2.67-4.1-2.67-4.14 0l-.12 9.9c-.03 2.67 4.1 2.67 4.14 0zM60.42 178.9c.01 0 11.77-8.16 30.7 2.4 17 9.5 36 15.36 48.35 25.14 0 0 6.5-4.72 6.3-20.7.01.95-3.88 2.97-7.32 1.7-18.74-6.85-39.03-25.3-59.96-23.7-3.2.25-6.94 2.95-9.7 4.88-.67.47-9.12 10.23-8.37 10.26z" class="B"/><path d="M137.38 154.27c16.2 6.06 35.9 6.7 51.9 0 2.42-1 1.36-5.02-1.1-4-15.42 6.46-34.1 5.83-49.7 0-2.5-.94-3.58 3.06-1.1 4zM76.96 296.6c-7.18-7.52-14.18-15.25-20.65-23.4-1.66-2.1-4.57.86-2.93 2.93 6.47 8.14 13.47 15.87 20.65 23.4 1.85 1.93 4.77-1 2.93-2.93zm173.44 2.23c7.18-7.52 14.18-15.25 20.65-23.4 1.64-2.07-1.27-5-2.93-2.93-6.47 8.13-13.48 15.87-20.65 23.4-1.84 1.93 1.08 4.86 2.93 2.93z" class="C"/><path d="M149.55 289.6c7.74 8 18.73 7.8 26.45 0 1.88-1.9-1.05-4.83-2.93-2.93-6.18 6.25-14.48 6.33-20.6 0-1.86-1.92-4.78 1-2.93 2.93zm-13.62-15.58c-5.6 4.7-4.54 11.06.7 15.54 2 1.73 4.96-1.2 2.93-2.93-1.35-1.16-2.6-2.42-3.22-4.13-.84-2.33.88-4.17 2.53-5.56 2.05-1.72-.9-4.63-2.93-2.92zm51.67 2.08c1.53 1.3 3.05 2.83 2.68 5-.33 1.95-1.95 3.47-3.38 4.7-2.03 1.74.9 4.65 2.93 2.93 5.23-4.48 6.28-10.84.7-15.54-2.03-1.7-4.97 1.2-2.93 2.93z" class="B"/><g class="C"><path d="M250.25 203s5.3 21.2-20.05 30.57c0 0-23.96 7.2-40.52-17.43 0 0 40.16 9.3 60.57-13.15z"/><path d="M193.8 220.28s-8.7-9.05-13.17-22.7c0 0 60.43-36.9 84-18.65 0 0 2.3 15.58-7.77 25.74 0 0-43.47 30.2-63.05 15.63z"/></g><path d="M264.63 178.9c-.02 0-11.77-8.16-30.7 2.4-17 9.5-36 15.36-48.36 25.14 0 0-6.5-4.72-6.3-20.7-.01.95 3.88 2.97 7.32 1.7 18.74-6.85 39.03-25.3 59.96-23.7 3.2.25 6.94 2.95 9.7 4.88.67.47 9.12 10.23 8.37 10.26z" class="B"/><path d="M250.8 201.34c-29.8 2.18-57.8 14.45-57.83 14.46.16-.06 3.23 2.85 3.55 3.04 3.78 2.16 6.13 4.13 10.14 5.73 7.5 3 15.7 1.62 23-1.23 5.53-2.15 12.6-4.35 16.67-8.92 1.1-1.25 5.17-13.13 4.48-13.08z" fill="#fff"/><path d="M250.8 199.27a187.2 187.2 0 0 0-58.88 14.74c-1.5.65-1.2 2.85 0 3.57 1.83 1.1 3.2 2.83 5.1 3.95 4.05 2.4 7.75 4.8 12.34 6.05 8.94 2.45 18.05-1.12 26.26-4.32 5.88-2.3 11.56-5.05 14.05-11.08 1.12-2.7 4.82-9.53 2.6-12.3-1.67-2.08-4.58.87-2.93 2.93-1-1.26-.43-1.54-.84.01-.23.87-.5 1.72-.78 2.57-.6 1.92-1.3 3.82-2.05 5.7-2.24 5.7-10.06 7.8-15.27 9.76-8.03 3.03-16.13 4.8-24.33 1.23-4.6-2-7.9-5.56-12.06-8.06v3.57a181.3 181.3 0 0 1 56.79-14.18c2.64-.2 2.66-4.35 0-4.14z" class="B"/><path d="M212.53 214.36c0 5.4 4.76 9.8 10.63 9.8s10.63-4.38 10.63-9.8c0-4.23-2.92-7.83-7-9.2a307.1 307.1 0 0 0-11.21 2.36c-1.87 1.76-3.03 4.17-3.03 6.84z" class="D"/><path d="M211.07 214.36c.78 13.34 20.13 15.07 23.9 2.5 1.4-4.73-2.5-13.15-8.18-13.15-1.97 0-4.23.8-6.15 1.2-1.7.35-4.3.47-5.8 1.35-2.6 1.53-3.56 5.37-3.76 8.1-.14 1.9 2.8 1.88 2.94 0 .44-6.07 5.45-6.23 10.25-7.2 5.27-1.07 8.73 4.08 7.88 8.92-1.75 9.9-17.56 7.9-18.12-1.7-.1-1.88-3.05-1.9-2.94 0z" class="B"/><path d="M216.7 215.42s12.75-6.2 15.3-3.1c0 0-2.7-10.03-15-3.12 0 0-6.1 2.18-1.97 8.7" fill="#ad820b"/><g fill="#fff"><ellipse cx="227.64" cy="212.17" rx="2.71" ry="2.95"/><path d="M74.56 201.28c29.83 2.18 57.87 14.45 57.9 14.46-.16-.06-3.24 2.85-3.55 3.03-3.78 2.16-6.13 4.13-10.15 5.73-7.88 3.14-16.48 1.46-24.08-1.67-5.2-2.15-11.74-4.22-15.6-8.54-1.18-1.3-5.2-13.08-4.5-13.03z"/></g><path d="M74.56 203.35a181.6 181.6 0 0 1 56.85 14.18v-3.57c-1.17.7-2.15 1.76-3.16 2.67-2.07 1.86-5.02 3.26-7.44 4.64-8.13 4.63-17.37 2.82-25.6-.42-4.72-1.86-12.7-3.94-15.12-8.9-.9-1.82-1.5-3.8-2.17-5.7-.3-.9-.6-1.82-.87-2.73-.54-1.8.14-2.23-1.05-.77 1.68-2.05-1.24-5-2.93-2.93-2.15 2.63 1.25 8.8 2.24 11.38 2.35 6.16 7.27 9 13.28 11.44 8.02 3.27 16.67 6.94 25.54 5.26 4.78-.9 8.75-2.95 12.83-5.53 2.27-1.43 4.26-3.5 6.52-4.84 1.2-.72 1.5-2.93 0-3.57-18.53-8.02-38.83-13.13-58.94-14.74-2.66-.2-2.64 3.93 0 4.14z" class="B"/><path d="M113.83 214.33c0 5.42-4.76 9.8-10.63 9.8s-10.62-4.4-10.62-9.8c0-4.25 2.92-7.85 7-9.22 3.93.75 7.7 2.3 11.2 3.1 1.87 1.77 3.03 3.44 3.03 6.1z" class="D"/><path d="M112.36 214.33c-.55 9.4-13.27 10.97-17.57 3.3-1.95-3.48.7-11.9 5.87-10.8 4.5.97 11.28 1.92 11.7 7.5.14 1.88 3.08 1.9 2.94 0-.23-3-1.35-5.02-3.46-7.15-.97-.98-3.42-1.13-4.7-1.52-2.37-.73-4.73-1.44-7.16-1.97-2.4-.52-5.52 2.7-6.8 4.35-1.62 2.1-2.43 5.12-1.96 7.74 2.4 13.64 23.27 12.33 24.08-1.46.1-1.9-2.83-1.9-2.94 0z" class="B"/><path d="M109.67 214.54s-12.75-6.2-15.3-3.1c0 0 2.7-9.2 15-2.3 0 0 5.95 2.95 1.97 8.7" fill="#ad820b"/><path d="M104.37 218.72v-5.93" class="D"/><path d="M106.2 218.72v-5.93c0-2.35-3.64-2.35-3.64 0v5.93c0 2.35 3.64 2.35 3.64 0z" class="B"/><ellipse cx="98.73" cy="212.12" rx="2.71" ry="2.95" fill="#fff"/><path d="M221.98 218.72v-5.93" class="D"/><path d="M223.8 218.72v-5.93c0-2.35-3.64-2.35-3.64 0v5.93c0 2.35 3.64 2.35 3.64 0z" class="B"/><path d="M270.95 290.78c-6.8 25.52-31.28 35.47-31.28 35.47l-3.24-6.3c-6.62-11.3-14.53-10.42-23.3-17.24-8-6.22-17.9-7.44-26.9-6.17-7.54 1.06-17.8 3.72-23.17 5.2-5.38-1.47-15.63-4.13-23.17-5.2-8.98-1.27-18.9-.05-26.9 6.17-8.76 6.82-16.67 5.95-23.3 17.24l-3.24 6.3s-20.34-9.12-27.14-34.64c0 0-3.27 74.55 81.4 108.98l22.96.85 21.73-.85c84.66-34.43 85.53-109.8 85.53-109.8zm-83.87 73.47c-7.07-8.64-19.94-7.36-24-6.7-4.06-.66-16.94-1.93-24 6.7 0 0-29.15 2.03-32.8-38.5 0 0 34.7-20.3 45.98-13.37 0 0 3.07 3.15 7.17 4.65v.22a9.2 9.2 0 0 0 3.65.55 9.2 9.2 0 0 0 3.65-.55v-.22c4.1-1.5 7.17-4.65 7.17-4.65 11.3-6.94 45.98 13.37 45.98 13.37-3.65 40.52-32.8 38.5-32.8 38.5z" opacity=".7" fill="#bcbcbc"/><path d="M162.36 85.5c18.7-7.02 38.62-8.47 58.44-10.1 22.02-1.8 26.04 27.68 32.55 43.43 6.96 16.8 14.16 28.8 16.36 47l-1.78 17.1s5.27 6.8 7.96 17.25c0 0-.67 30.67-8.1 64.53l-1.46 16.1S303.4 267.8 303.4 179.2c0 0-.55-92.73-35.04-134.94 0 0-46.4-42.2-106-42.2" class="F"/><path d="M154.2 202.24c5.62 3.87 12.97 4.28 18.24-.32 2-1.76-.93-4.67-2.93-2.93-3.88 3.4-9.25 2.4-13.22-.32-2.2-1.52-4.27 2.07-2.1 3.57z" class="C"/><path d="M162.36 2.56c-59.63 0-106 42.2-106 42.2C21.85 86.97 21.3 179.7 21.3 179.7c0 88.58 37.07 101.64 37.07 101.64l-1.46-16.1c-7.43-33.85-8.1-64.53-8.1-64.53 2.7-10.46 7.96-17.26 7.96-17.26L55 166.34c2.2-18.2 9.4-30.2 16.36-47C77.88 103.6 81.9 74.1 103.9 75.9c19.82 1.62 39.75 3.07 58.44 10.1" class="F"/><path d="M274.44 201.2s16.72-21.6 20.66-.07c0 0-4.1 56.8-25.53 62.22-1.04.26-.27-5.2-.17-6.12.38-3.43.37-6.9.66-10.34l2.5-30.22c.54-5.16 1.1-10.32 1.86-15.46" class="E"/><path d="M275.9 202.65c2.95-3.78 11.34-13.26 15.45-6.56 3.05 4.96 1.03 11.9.24 17.2-1.42 9.46-3.47 18.87-6.7 27.88-1.62 4.52-3.7 8.88-6.43 12.83-1.13 1.64-6.55 8.02-8.63 7.2l1.45 1.44c-.88-2.33.3-6.5.46-8.9l1.14-16.35c.9-11.92 1.83-23.85 3.55-35.7.38-2.6-3.6-3.73-4-1.1-2.14 14.7-3.1 29.54-4.3 44.34l-1.18 16.2c-.13 2.6 1 4.74 3.84 3.94 13.43-3.78 18.6-22.72 21.55-34.4 1.72-6.8 2.92-13.72 3.83-20.67.37-2.8 1.5-6.66.9-9.5-1.35-6.5-5.05-13.14-12.63-10.34-4.57 1.7-8.54 5.73-11.5 9.5-1.62 2.08 1.28 5.03 2.93 2.93z" class="B"/><path d="M52.2 203.3s-16.72-21.6-20.66-.07c0 0 4.1 56.8 25.53 62.22 1.04.26.27-5.2.17-6.12-.37-3.43-.37-6.9-.66-10.34l-2.5-30.22c-.54-5.16-1.1-10.32-1.86-15.46" class="E"/><path d="M53.68 201.84c-2.9-3.72-6.64-7.36-11-9.3-6.96-3.1-11.18 2.4-12.8 8.63-.86 3.3.08 7.02.5 10.3a191.7 191.7 0 0 0 3.92 21.36c3 12.2 7.97 29.04 20.87 34.16 2.7 1.07 4.22-.08 4.52-2.84.5-4.8-.68-10.42-1.02-15.2-1.1-15.43-2.22-30.92-4.45-46.23-.38-2.63-4.37-1.5-4 1.1 1.72 11.83 2.65 23.77 3.55 35.7l1.14 16.35c.13 2.44 1.35 6.53.46 8.9l1.44-1.44c-1.9.74-6.98-5.02-8.13-6.52-2.88-3.76-4.9-8.2-6.58-12.6-3.45-8.97-5.42-18.53-6.9-28-.86-5.43-2.32-11.18-.58-16.5 3.07-9.42 12.95.96 16.14 5.05 1.64 2.1 4.55-.85 2.93-2.93zm78.5 11.9c-18.73-7.4-38.04-11.48-57.9-14.46-2.6-.4-3.73 3.6-1.1 4 19.86 2.98 39.17 7.05 57.9 14.46 2.5.98 3.55-3.02 1.1-4zm62.15 4c18.73-7.4 38.04-11.48 57.9-14.46 2.63-.4 1.5-4.38-1.1-4-19.86 2.98-39.17 7.05-57.9 14.46-2.45.97-1.38 4.97 1.1 4z" class="B"/><path d="M224.74 118.78v26.5c0 2.36-.6 5.6.2 7.9l4.25 12.12c.88 2.5 4.88 1.42 4-1.1l-4.1-11.7c-.25-.7-.2-.34-.2-1.93V118.8c0-2.67-4.14-2.67-4.14 0zm11.5 118.62c4.8 9.3 11.45 18.27 19.63 24.8 2.06 1.65 5-1.26 2.93-2.93-7.95-6.34-14.34-14.93-19-23.96-1.22-2.37-4.8-.28-3.57 2.1zM82.64 126.57c1.92.34 3.87-.56 5.55-1.37 6.83-3.3 12.58-9.38 17.76-14.74 1.85-1.92-1.07-4.85-2.93-2.93-4.7 4.87-9.62 9.8-15.46 13.3a14.7 14.7 0 0 1-3.42 1.56c-.6.17-1.05.07-.4.2-2.6-.47-3.73 3.52-1.1 4z" fill="#5f3b2f"/><g class="B"><path d="M165.9 83.2l.72-21.75c.2-6.16-2.3-12.54-3.7-18.5l-.3-1.3c-.13-.54-.27 1.07.13.05l6.74-17.2c.86-2.2.07-3.74-.56-6.03L165.8 7.4a1.6 1.6 0 0 0-3 .83l4 14.3c.32 1.16.22-.28.1.04l-5.54 14.14c-.73 1.87-2.17 4.04-1.7 6.08 1.43 6.05 4 13.3 3.83 18.64l-.72 21.75c-.07 2 3.04 2 3.1 0zm23.62-24.62l22.4-16.25 7.9-5.5c.96-.67 2.07-1.18 2.43-2.36l4.5-14.6c.6-1.92-2.4-2.73-3-.82l-4.25 13.8c-.47 1.53-.13.53.17.3l-10.1 7.05c-7.3 5.1-14.44 10.4-21.6 15.7-1.6 1.18-.05 3.87 1.56 2.68zM270.37 147l18.74-12.63c1.96-1.32 2.6-5.75 3.35-7.78l4.14-11.37c.7-1.88-2.3-2.7-3-.82l-6.5 17.86c-.25.7 1.22-1.08.23-.42l-18.53 12.5c-1.65 1.1-.1 3.8 1.57 2.68zm6.57-87.1v13.84c0 1.48.66-.54.2-.1l-4.46 4.1c-5.33 4.92-11 7.8-17.7 11.56-1.75.98-.18 3.66 1.57 2.68 6.65-3.73 12.75-6.9 18.34-12.05 2.2-2 5.18-3.58 5.18-6.72V59.9c0-2-3.1-2-3.1 0zm-6.5 205.25l10.4 67.3c-.2-1.25-.37.7-.67 1.74L271 365.56c-1.05 3.6-3.5 8.42-3.5 12.23 0 4.22 2 9.14 2.9 13.22l6.6 29.82c.43 1.95 3.43 1.13 3-.82l-9.35-42.18c-.24-1.06-.22.78-.03.14L282.86 336c.72-2.47 1.04-3.85.65-6.35l-10.08-65.34c-.3-1.97-3.3-1.13-3 .82zM56.88 138.52l-18.24-12.3c-1.2-.8.35 1.35-.5-.96l-6.07-16.68c-.68-1.86-3.68-1.06-3 .83l3.8 10.45c.76 2.1 1.53 7.26 3.55 8.6l18.88 12.72c1.67 1.12 3.22-1.57 1.57-2.68zM45.65 59.9l1.46 12.8c.4 3.43 2.42 6 4.14 9 1.78 3.08 2.58 5.65 5.88 7l12.4 5.1c1.85.76 2.65-2.24.82-3L56.9 85.28c-1.4-.57.46.78.1.14l-6.4-11.05c-.67-1.15-.15.3-.2-.2L48.75 59.9c-.22-1.97-3.33-2-3.1 0zm11.43 250.3l-8.65 31c-.72 2.6-1.42 4.26-.78 6.83l7.2 28.92c.2.82.04 1.7.3.47L45.7 420c-.43 1.95 2.56 2.78 3 .82l9.43-42.5c.64-2.88-1.64-7.62-2.32-10.36l-5.27-21.2c-.23-.9.01-1.6-.3-.48l9.84-35.26c.54-1.93-2.46-2.75-3-.82z"/><path d="M162.96 87.95a309.7 309.7 0 0 1 37.85-9.53c10.63-1.94 22.45-4 31.78 2.63 13.26 9.44 13.94 26.1 19.54 39.9 5.58 13.76 12.02 27.94 15.18 42.5 1.03 4.77-.8 10.7-1.42 15.54-.73 5.62 2.6 9.9 5.07 14.93.6 1.2.74 3 .88 1.37l-2.78 32.44c-2.02 23.6-3.15 47.3-4.7 70.95-.42 6.44-.58 13-1.78 19.35-3.62 19.17-16.8 34.48-30.07 47.94-12.13 12.3-24.56 26.8-41.84 31.5-8.57 2.33-18.56 1.62-27.4 2-2.66.12-2.67 4.26 0 4.14l18.03-.8c11.05-.48 20.6-4.35 29.46-10.87 10.45-7.67 19.48-17.65 28.45-26.94 9.44-9.77 17.9-20.5 23.3-33.04 5.24-12.14 5.42-25 6.27-37.95l3.1-47.04 1.63-23.1 2.44-28.5c.15-1.8-1.86-4.44-2.6-5.94l-4-8.18c.75 1.54.42-.4.56-1.5l.83-6.44c.7-5.32 1.3-8.2-.04-13.42-3.76-14.5-9.9-28.58-15.55-42.43-1.76-4.3-2.37-8.7-3.6-13.2-1.97-7.25-5.23-14.1-9.83-20.04-4.1-5.28-9.66-9.26-16.1-11.04-11.37-3.16-25.72.96-36.83 3.48-9.06 2.05-18.08 4.47-26.93 7.28-2.53.8-1.45 4.8 1.1 4z"/><path d="M163.9 83.95a309.7 309.7 0 0 0-37.85-9.53c-10.42-1.9-22.38-4.05-32.15 1.25-5.47 2.97-9.72 7.84-13.03 13.02-2.52 3.96-4.32 8.36-5.82 12.8-1.4 4.15-1.54 8.94-3.2 12.93-5.37 12.97-10.6 26.05-14.98 39.4-1.36 4.14-3.15 9.67-2.7 13.28l1.87 14.5c.1.8-.13.74.34-.3l-5.1 11.38c-.64 1.42-1.7 3-1.56 4.6l1.84 19.94c2.17 23.54 3.43 47.16 4.98 70.75l1.46 22.3c1.28 19.46 11.53 36 24.24 50.18 7.02 7.84 14.62 15.27 22.2 22.56 6.63 6.35 13.98 12.48 22.52 16.06 11.14 4.67 23.6 4.03 35.48 4.55 2.67.12 2.66-4.02 0-4.14l-18.03-.8c-12.78-.56-23.1-6.32-32.6-14.54-10.3-8.9-20.04-19.06-29-29.3-9.34-10.65-16.7-22.98-19.67-36.93-2.3-10.82-1.98-22.67-2.7-33.65l-5.1-71-1.37-14.82c-.1-1.07.27-2.32-.4-.8l3.6-8.04c.76-1.7 3.37-5.36 3.12-7.35-.7-5.42-1-11.05-2.12-16.4-.3-1.5.63-3.96 1.05-5.52a158.2 158.2 0 0 1 3.47-10.79 574.4 574.4 0 0 1 8.87-23.42c1.65-4.16 4.07-8.47 4.83-12.9 2.96-17.1 12.38-36.73 31.9-36.66 18.2.06 37.24 5.92 54.5 11.4 2.55.8 3.63-3.2 1.1-4zM326.66 426.7c-1.7-31.84-4.78-63.64-7.5-95.4l-10.82-123.1c-2.8-31.48-3.67-63.28-9.73-94.36-4.1-21.03-10.32-42.27-21.47-60.72-2.67-4.4-5.5-8.87-9.5-12.2a176.8 176.8 0 0 0-13.47-10.08C227.2 12.45 195.24.2 162.35 0c-1.13-.01-2.07.95-2.07 2.07v.5L162.35.5C124 .74 86 17.28 56.76 41.68c-3.93 3.28-6.66 7.84-9.3 12.16-5.12 8.33-8.97 17.43-12.23 26.63-6.66 18.75-10.37 38.5-12.9 58.2a380.5 380.5 0 0 0-3.04 38.38c-.17 6.4.67 12.87.12 19.22L4.9 362.2 0 426.58c-.06 1.13 1 2.07 2.07 2.07h160.28l-2.07-2.07v.13a2.1 2.1 0 0 0 2.07 2.07H324.6c2.67 0 2.67-4.14 0-4.14H162.35l2.07 2.07v-.13a2.1 2.1 0 0 0-2.07-2.07H2.07l2.07 2.07c1.93-35.78 5.48-71.52 8.6-107.2l6.17-70.14c1.87-21.18 5-42.7 4.52-63.94-.62-28.25 3.25-57.3 10.1-84.62a195.7 195.7 0 0 1 9.97-30.02c1.88-4.36 4.03-8.6 6.38-12.73 2.16-3.8 4.7-8.74 7.96-11.7C66 38.83 75.5 32.7 85 27.2c23.5-13.65 50.07-22.37 77.37-22.54a2.1 2.1 0 0 0 2.07-2.07v-.5l-2.07 2.07c37.5.24 75.78 16.6 104 41.1 5.58 4.85 9.43 13.4 12.64 19.92 4.97 10.1 8.52 20.88 11.46 31.73 5.3 19.55 8.2 39.76 9.8 59.93l22.27 269.9c.14 2.65 4.28 2.67 4.14 0z"/></g><path d="M170.97 75.27s46.18-21.3 51 30.75l21.5 46.25s2.73 30.48 5.47 41.4l2.73-48.02-18.78-40.87s-5.7-71.74-64.4-38.98" class="F"/><path d="M172 77.06c6.18-2.82 14.93-4.46 22.3-3.9a25.1 25.1 0 0 1 16.9 8.34c2.8 3.13 4.63 7.1 6 11.02.8 2.3 1.34 4.7 1.82 7.1.47 2.35.18 5.3 1.18 7.46l21.47 46.2c-.75-1.6-.23-.5-.14.42l1.85 17.53c.9 7.67 1.74 15.46 3.56 22.98.57 2.36 3.94 1.7 4.06-.55l2.1-36.73c.18-3.24 1.78-9.25.36-12.34l-18.37-39.97c-.87-1.9-.02 1.13-.2-.52a83.5 83.5 0 0 0-6.04-23.66c-4.03-9.55-10.45-18.5-20.2-22.76-13.67-5.96-28.95-.4-41.2 6.33-2.34 1.3-.25 4.86 2.1 3.57 13.94-7.65 31.74-13.04 45-1.24 8.3 7.4 12.42 18.75 14.8 29.33.63 2.83 1.15 5.7 1.45 8.58.26 2.52 1.92 5.02 2.96 7.28l16.1 35.04c-.62-1.34-.26-.57-.33.66l-2.64 46.42 4.06-.55c-2.18-9.04-3.05-18.45-4.07-27.68-.47-4.24.13-10.48-1.7-14.42l-16.43-35.37c-1.88-4.05-4.48-8.16-5-12.53-1.03-8.6-3.6-17.03-9.03-23.9-7.7-9.74-20.6-11.5-32.12-9.56-4.3.73-8.66 1.98-12.65 3.8-2.43 1.1-.32 4.67 2.1 3.57z" class="B"/></svg>