<svg xmlns="http://www.w3.org/2000/svg" width="284" height="477" viewBox="0 0 283.969 476.465"><defs/><path d="M0 207.294h283.97v201.25H0z" fill="#1daa75"/><path d="M39.42 125.908h205.106v162.764H39.42z" fill="#26b57b"/><path d="M0 408.56h283.97v67.904H0zm39.42-121.625h205.106v68.5H39.42zM68.586 165.28h146.758v68.513H68.586z" fill="#01915c"/><path d="M68.586 83.044h146.758v82.237H68.586z" fill="#2ec684"/><path d="M138.81 180.748h47.346v38.818H138.81z" fill="#d2ffe3"/><path d="M61.498 297.89h56.814v46.582H61.498z" fill="#d9484f"/><path d="M176.7 299.62h43.63v35.826H176.7zM22.08 419.215h44.166v36.217H22.08z" fill="#84fab0"/><path d="M115.164 419.23h56.783v46.593h-56.783z" fill="#d3ffe4"/><path d="M216.128 420.238h56.8v46.597h-56.8z" fill="#e3515e"/><path d="M22.08 262.5h15.78v52.375H22.08zm193.243-123.476h12.923v52.375h-12.923z" fill="#d2ffe3"/><path d="M183.37 98.808l9.026 55.876-49.856-26.822-50.347 25.863 10.08-55.706-40.14-39.888 56.092-7.606L143.764 0l24.577 51 55.897 8.685z" fill="#dcfc53"/></svg>